ISO-10303-21;
HEADER;
/* Generated by software containing ST-Developer
 * from STEP Tools, Inc. (www.steptools.com) 
 */

FILE_DESCRIPTION(
/* description */ (''),
/* implementation_level */ '2;1');

FILE_NAME(
/* name */ 'Mold.step',
/* time_stamp */ '2026-02-08T19:04:48+01:00',
/* author */ (''),
/* organization */ (''),
/* preprocessor_version */ 'ST-DEVELOPER v20.1',
/* originating_system */ 'Autodesk Translation Framework v14.24.0.0',
/* authorisation */ '');

FILE_SCHEMA (('AUTOMOTIVE_DESIGN { 1 0 10303 214 3 1 1 }'));
ENDSEC;

DATA;
#10=MECHANICAL_DESIGN_GEOMETRIC_PRESENTATION_REPRESENTATION('',(#13),#1683);
#11=SHAPE_REPRESENTATION_RELATIONSHIP('SRR','None',#1690,#12);
#12=ADVANCED_BREP_SHAPE_REPRESENTATION('',(#14),#1682);
#13=STYLED_ITEM('',(#1700),#14);
#14=MANIFOLD_SOLID_BREP('Corps1',#1019);
#15=B_SPLINE_CURVE_WITH_KNOTS('',3,(#1624,#1625,#1626,#1627),
 .UNSPECIFIED.,.F.,.F.,(4,4),(2.96099677745798E-15,0.000137135530961713),
 .UNSPECIFIED.);
#16=B_SPLINE_CURVE_WITH_KNOTS('',3,(#1659,#1660,#1661,#1662),
 .UNSPECIFIED.,.F.,.F.,(4,4),(2.07999263036728E-16,0.000137135530936888),
 .UNSPECIFIED.);
#17=CONICAL_SURFACE('',#1087,1.3000000000271,0.785398163397448);
#18=CONICAL_SURFACE('',#1106,1.30000000002584,0.785398163257585);
#19=FACE_BOUND('',#375,.T.);
#20=FACE_BOUND('',#383,.T.);
#21=FACE_BOUND('',#384,.T.);
#22=PLANE('',#1047);
#23=PLANE('',#1048);
#24=PLANE('',#1049);
#25=PLANE('',#1050);
#26=PLANE('',#1051);
#27=PLANE('',#1052);
#28=PLANE('',#1053);
#29=PLANE('',#1056);
#30=PLANE('',#1057);
#31=PLANE('',#1061);
#32=PLANE('',#1065);
#33=PLANE('',#1066);
#34=PLANE('',#1067);
#35=PLANE('',#1068);
#36=PLANE('',#1069);
#37=PLANE('',#1071);
#38=PLANE('',#1072);
#39=PLANE('',#1073);
#40=PLANE('',#1074);
#41=PLANE('',#1075);
#42=PLANE('',#1078);
#43=PLANE('',#1079);
#44=PLANE('',#1080);
#45=PLANE('',#1081);
#46=PLANE('',#1083);
#47=PLANE('',#1084);
#48=PLANE('',#1085);
#49=PLANE('',#1086);
#50=PLANE('',#1089);
#51=PLANE('',#1090);
#52=PLANE('',#1091);
#53=PLANE('',#1092);
#54=PLANE('',#1093);
#55=PLANE('',#1094);
#56=PLANE('',#1096);
#57=PLANE('',#1097);
#58=PLANE('',#1098);
#59=PLANE('',#1099);
#60=PLANE('',#1100);
#61=PLANE('',#1103);
#62=PLANE('',#1104);
#63=PLANE('',#1105);
#64=PLANE('',#1107);
#65=PLANE('',#1108);
#66=PLANE('',#1109);
#67=LINE('',#1404,#185);
#68=LINE('',#1408,#186);
#69=LINE('',#1412,#187);
#70=LINE('',#1414,#188);
#71=LINE('',#1416,#189);
#72=LINE('',#1418,#190);
#73=LINE('',#1420,#191);
#74=LINE('',#1421,#192);
#75=LINE('',#1424,#193);
#76=LINE('',#1426,#194);
#77=LINE('',#1427,#195);
#78=LINE('',#1430,#196);
#79=LINE('',#1432,#197);
#80=LINE('',#1434,#198);
#81=LINE('',#1435,#199);
#82=LINE('',#1438,#200);
#83=LINE('',#1439,#201);
#84=LINE('',#1442,#202);
#85=LINE('',#1444,#203);
#86=LINE('',#1446,#204);
#87=LINE('',#1447,#205);
#88=LINE('',#1450,#206);
#89=LINE('',#1451,#207);
#90=LINE('',#1455,#208);
#91=LINE('',#1459,#209);
#92=LINE('',#1461,#210);
#93=LINE('',#1463,#211);
#94=LINE('',#1465,#212);
#95=LINE('',#1467,#213);
#96=LINE('',#1469,#214);
#97=LINE('',#1472,#215);
#98=LINE('',#1476,#216);
#99=LINE('',#1479,#217);
#100=LINE('',#1483,#218);
#101=LINE('',#1485,#219);
#102=LINE('',#1487,#220);
#103=LINE('',#1488,#221);
#104=LINE('',#1490,#222);
#105=LINE('',#1492,#223);
#106=LINE('',#1494,#224);
#107=LINE('',#1496,#225);
#108=LINE('',#1498,#226);
#109=LINE('',#1499,#227);
#110=LINE('',#1504,#228);
#111=LINE('',#1507,#229);
#112=LINE('',#1510,#230);
#113=LINE('',#1512,#231);
#114=LINE('',#1514,#232);
#115=LINE('',#1515,#233);
#116=LINE('',#1518,#234);
#117=LINE('',#1519,#235);
#118=LINE('',#1522,#236);
#119=LINE('',#1524,#237);
#120=LINE('',#1525,#238);
#121=LINE('',#1531,#239);
#122=LINE('',#1533,#240);
#123=LINE('',#1534,#241);
#124=LINE('',#1537,#242);
#125=LINE('',#1538,#243);
#126=LINE('',#1541,#244);
#127=LINE('',#1543,#245);
#128=LINE('',#1544,#246);
#129=LINE('',#1547,#247);
#130=LINE('',#1549,#248);
#131=LINE('',#1550,#249);
#132=LINE('',#1553,#250);
#133=LINE('',#1554,#251);
#134=LINE('',#1558,#252);
#135=LINE('',#1560,#253);
#136=LINE('',#1561,#254);
#137=LINE('',#1563,#255);
#138=LINE('',#1565,#256);
#139=LINE('',#1567,#257);
#140=LINE('',#1571,#258);
#141=LINE('',#1572,#259);
#142=LINE('',#1574,#260);
#143=LINE('',#1576,#261);
#144=LINE('',#1577,#262);
#145=LINE('',#1579,#263);
#146=LINE('',#1581,#264);
#147=LINE('',#1583,#265);
#148=LINE('',#1585,#266);
#149=LINE('',#1586,#267);
#150=LINE('',#1588,#268);
#151=LINE('',#1592,#269);
#152=LINE('',#1593,#270);
#153=LINE('',#1596,#271);
#154=LINE('',#1598,#272);
#155=LINE('',#1599,#273);
#156=LINE('',#1601,#274);
#157=LINE('',#1604,#275);
#158=LINE('',#1608,#276);
#159=LINE('',#1609,#277);
#160=LINE('',#1611,#278);
#161=LINE('',#1613,#279);
#162=LINE('',#1615,#280);
#163=LINE('',#1618,#281);
#164=LINE('',#1620,#282);
#165=LINE('',#1621,#283);
#166=LINE('',#1630,#284);
#167=LINE('',#1633,#285);
#168=LINE('',#1634,#286);
#169=LINE('',#1637,#287);
#170=LINE('',#1638,#288);
#171=LINE('',#1640,#289);
#172=LINE('',#1642,#290);
#173=LINE('',#1644,#291);
#174=LINE('',#1648,#292);
#175=LINE('',#1649,#293);
#176=LINE('',#1652,#294);
#177=LINE('',#1653,#295);
#178=LINE('',#1655,#296);
#179=LINE('',#1663,#297);
#180=LINE('',#1666,#298);
#181=LINE('',#1670,#299);
#182=LINE('',#1671,#300);
#183=LINE('',#1673,#301);
#184=LINE('',#1676,#302);
#185=VECTOR('',#1136,0.25);
#186=VECTOR('',#1141,0.25);
#187=VECTOR('',#1144,1000.);
#188=VECTOR('',#1145,1000.);
#189=VECTOR('',#1146,1000.);
#190=VECTOR('',#1147,1000.);
#191=VECTOR('',#1148,1000.);
#192=VECTOR('',#1149,1000.);
#193=VECTOR('',#1152,1000.);
#194=VECTOR('',#1153,1000.);
#195=VECTOR('',#1154,1000.);
#196=VECTOR('',#1157,1000.);
#197=VECTOR('',#1158,1000.);
#198=VECTOR('',#1159,1000.);
#199=VECTOR('',#1160,1000.);
#200=VECTOR('',#1163,1000.);
#201=VECTOR('',#1164,1000.);
#202=VECTOR('',#1167,1000.);
#203=VECTOR('',#1168,1000.);
#204=VECTOR('',#1169,1000.);
#205=VECTOR('',#1170,1000.);
#206=VECTOR('',#1173,1000.);
#207=VECTOR('',#1174,1000.);
#208=VECTOR('',#1177,1000.);
#209=VECTOR('',#1180,1000.);
#210=VECTOR('',#1181,1000.);
#211=VECTOR('',#1182,1000.);
#212=VECTOR('',#1185,1000.);
#213=VECTOR('',#1188,1000.);
#214=VECTOR('',#1191,1000.);
#215=VECTOR('',#1194,1000.);
#216=VECTOR('',#1197,1000.);
#217=VECTOR('',#1200,1000.);
#218=VECTOR('',#1203,1000.);
#219=VECTOR('',#1204,1000.);
#220=VECTOR('',#1205,1000.);
#221=VECTOR('',#1206,1000.);
#222=VECTOR('',#1207,1000.);
#223=VECTOR('',#1208,1000.);
#224=VECTOR('',#1209,1000.);
#225=VECTOR('',#1210,1000.);
#226=VECTOR('',#1211,1000.);
#227=VECTOR('',#1212,1000.);
#228=VECTOR('',#1217,1000.);
#229=VECTOR('',#1220,1000.);
#230=VECTOR('',#1223,1000.);
#231=VECTOR('',#1224,1000.);
#232=VECTOR('',#1225,1000.);
#233=VECTOR('',#1226,1000.);
#234=VECTOR('',#1229,1000.);
#235=VECTOR('',#1230,1000.);
#236=VECTOR('',#1233,1000.);
#237=VECTOR('',#1234,1000.);
#238=VECTOR('',#1235,1000.);
#239=VECTOR('',#1242,1000.);
#240=VECTOR('',#1243,1000.);
#241=VECTOR('',#1244,1000.);
#242=VECTOR('',#1247,1000.);
#243=VECTOR('',#1248,1000.);
#244=VECTOR('',#1251,1000.);
#245=VECTOR('',#1252,1000.);
#246=VECTOR('',#1253,1000.);
#247=VECTOR('',#1256,1000.);
#248=VECTOR('',#1257,1000.);
#249=VECTOR('',#1258,1000.);
#250=VECTOR('',#1261,1000.);
#251=VECTOR('',#1262,1000.);
#252=VECTOR('',#1265,1000.);
#253=VECTOR('',#1266,1000.);
#254=VECTOR('',#1267,1000.);
#255=VECTOR('',#1268,1000.);
#256=VECTOR('',#1269,1000.);
#257=VECTOR('',#1270,1000.);
#258=VECTOR('',#1273,1000.);
#259=VECTOR('',#1274,1000.);
#260=VECTOR('',#1275,1000.);
#261=VECTOR('',#1276,1000.);
#262=VECTOR('',#1277,1000.);
#263=VECTOR('',#1278,1000.);
#264=VECTOR('',#1279,1000.);
#265=VECTOR('',#1280,1000.);
#266=VECTOR('',#1281,1000.);
#267=VECTOR('',#1282,1000.);
#268=VECTOR('',#1283,1000.);
#269=VECTOR('',#1288,1000.);
#270=VECTOR('',#1289,1000.);
#271=VECTOR('',#1292,1000.);
#272=VECTOR('',#1293,1000.);
#273=VECTOR('',#1294,1000.);
#274=VECTOR('',#1297,1000.);
#275=VECTOR('',#1300,1000.);
#276=VECTOR('',#1303,1000.);
#277=VECTOR('',#1304,1000.);
#278=VECTOR('',#1307,1000.);
#279=VECTOR('',#1310,1000.);
#280=VECTOR('',#1313,1000.);
#281=VECTOR('',#1316,1000.);
#282=VECTOR('',#1317,1000.);
#283=VECTOR('',#1318,1000.);
#284=VECTOR('',#1325,1000.);
#285=VECTOR('',#1328,1000.);
#286=VECTOR('',#1329,1000.);
#287=VECTOR('',#1332,1000.);
#288=VECTOR('',#1333,1000.);
#289=VECTOR('',#1336,1000.);
#290=VECTOR('',#1339,1000.);
#291=VECTOR('',#1342,1000.);
#292=VECTOR('',#1347,1000.);
#293=VECTOR('',#1348,1000.);
#294=VECTOR('',#1351,1000.);
#295=VECTOR('',#1352,1000.);
#296=VECTOR('',#1355,1000.);
#297=VECTOR('',#1360,1000.);
#298=VECTOR('',#1363,1000.);
#299=VECTOR('',#1368,1000.);
#300=VECTOR('',#1369,1000.);
#301=VECTOR('',#1372,1000.);
#302=VECTOR('',#1377,1000.);
#303=CYLINDRICAL_SURFACE('',#1043,0.25);
#304=CYLINDRICAL_SURFACE('',#1045,0.25);
#305=CYLINDRICAL_SURFACE('',#1058,1.);
#306=CYLINDRICAL_SURFACE('',#1062,1.);
#307=CYLINDRICAL_SURFACE('',#1095,1.3);
#308=CYLINDRICAL_SURFACE('',#1101,1.3);
#309=FACE_OUTER_BOUND('',#364,.T.);
#310=FACE_OUTER_BOUND('',#365,.T.);
#311=FACE_OUTER_BOUND('',#366,.T.);
#312=FACE_OUTER_BOUND('',#367,.T.);
#313=FACE_OUTER_BOUND('',#368,.T.);
#314=FACE_OUTER_BOUND('',#369,.T.);
#315=FACE_OUTER_BOUND('',#370,.T.);
#316=FACE_OUTER_BOUND('',#371,.T.);
#317=FACE_OUTER_BOUND('',#372,.T.);
#318=FACE_OUTER_BOUND('',#373,.T.);
#319=FACE_OUTER_BOUND('',#374,.T.);
#320=FACE_OUTER_BOUND('',#376,.T.);
#321=FACE_OUTER_BOUND('',#377,.T.);
#322=FACE_OUTER_BOUND('',#378,.T.);
#323=FACE_OUTER_BOUND('',#379,.T.);
#324=FACE_OUTER_BOUND('',#380,.T.);
#325=FACE_OUTER_BOUND('',#381,.T.);
#326=FACE_OUTER_BOUND('',#382,.T.);
#327=FACE_OUTER_BOUND('',#385,.T.);
#328=FACE_OUTER_BOUND('',#386,.T.);
#329=FACE_OUTER_BOUND('',#387,.T.);
#330=FACE_OUTER_BOUND('',#388,.T.);
#331=FACE_OUTER_BOUND('',#389,.T.);
#332=FACE_OUTER_BOUND('',#390,.T.);
#333=FACE_OUTER_BOUND('',#391,.T.);
#334=FACE_OUTER_BOUND('',#392,.T.);
#335=FACE_OUTER_BOUND('',#393,.T.);
#336=FACE_OUTER_BOUND('',#394,.T.);
#337=FACE_OUTER_BOUND('',#395,.T.);
#338=FACE_OUTER_BOUND('',#396,.T.);
#339=FACE_OUTER_BOUND('',#397,.T.);
#340=FACE_OUTER_BOUND('',#398,.T.);
#341=FACE_OUTER_BOUND('',#399,.T.);
#342=FACE_OUTER_BOUND('',#400,.T.);
#343=FACE_OUTER_BOUND('',#401,.T.);
#344=FACE_OUTER_BOUND('',#402,.T.);
#345=FACE_OUTER_BOUND('',#403,.T.);
#346=FACE_OUTER_BOUND('',#404,.T.);
#347=FACE_OUTER_BOUND('',#405,.T.);
#348=FACE_OUTER_BOUND('',#406,.T.);
#349=FACE_OUTER_BOUND('',#407,.T.);
#350=FACE_OUTER_BOUND('',#408,.T.);
#351=FACE_OUTER_BOUND('',#409,.T.);
#352=FACE_OUTER_BOUND('',#410,.T.);
#353=FACE_OUTER_BOUND('',#411,.T.);
#354=FACE_OUTER_BOUND('',#412,.T.);
#355=FACE_OUTER_BOUND('',#413,.T.);
#356=FACE_OUTER_BOUND('',#414,.T.);
#357=FACE_OUTER_BOUND('',#415,.T.);
#358=FACE_OUTER_BOUND('',#416,.T.);
#359=FACE_OUTER_BOUND('',#417,.T.);
#360=FACE_OUTER_BOUND('',#418,.T.);
#361=FACE_OUTER_BOUND('',#419,.T.);
#362=FACE_OUTER_BOUND('',#420,.T.);
#363=FACE_OUTER_BOUND('',#421,.T.);
#364=EDGE_LOOP('',(#678,#679,#680,#681,#682));
#365=EDGE_LOOP('',(#683,#684,#685,#686,#687));
#366=EDGE_LOOP('',(#688,#689,#690,#691,#692));
#367=EDGE_LOOP('',(#693,#694,#695,#696,#697));
#368=EDGE_LOOP('',(#698,#699,#700,#701,#702,#703));
#369=EDGE_LOOP('',(#704,#705,#706,#707));
#370=EDGE_LOOP('',(#708,#709,#710,#711,#712,#713));
#371=EDGE_LOOP('',(#714,#715,#716,#717));
#372=EDGE_LOOP('',(#718,#719,#720,#721,#722,#723));
#373=EDGE_LOOP('',(#724,#725,#726,#727));
#374=EDGE_LOOP('',(#728,#729,#730,#731,#732,#733));
#375=EDGE_LOOP('',(#734,#735,#736,#737));
#376=EDGE_LOOP('',(#738,#739,#740,#741,#742,#743));
#377=EDGE_LOOP('',(#744,#745,#746,#747));
#378=EDGE_LOOP('',(#748,#749,#750,#751,#752,#753));
#379=EDGE_LOOP('',(#754,#755,#756,#757,#758,#759,#760,#761,#762,#763,#764,
#765));
#380=EDGE_LOOP('',(#766,#767,#768,#769,#770,#771));
#381=EDGE_LOOP('',(#772,#773,#774,#775,#776,#777));
#382=EDGE_LOOP('',(#778,#779,#780,#781));
#383=EDGE_LOOP('',(#782));
#384=EDGE_LOOP('',(#783));
#385=EDGE_LOOP('',(#784,#785,#786,#787,#788,#789));
#386=EDGE_LOOP('',(#790,#791,#792,#793));
#387=EDGE_LOOP('',(#794,#795,#796,#797,#798,#799));
#388=EDGE_LOOP('',(#800,#801,#802,#803));
#389=EDGE_LOOP('',(#804,#805,#806,#807));
#390=EDGE_LOOP('',(#808,#809,#810,#811,#812));
#391=EDGE_LOOP('',(#813,#814,#815,#816));
#392=EDGE_LOOP('',(#817,#818,#819,#820,#821,#822,#823,#824,#825,#826,#827,
#828,#829,#830,#831,#832,#833,#834,#835,#836,#837,#838,#839,#840,#841,#842,
#843,#844,#845,#846));
#393=EDGE_LOOP('',(#847,#848,#849,#850));
#394=EDGE_LOOP('',(#851,#852,#853,#854,#855));
#395=EDGE_LOOP('',(#856,#857,#858,#859));
#396=EDGE_LOOP('',(#860,#861,#862,#863,#864,#865));
#397=EDGE_LOOP('',(#866,#867,#868,#869));
#398=EDGE_LOOP('',(#870,#871,#872,#873));
#399=EDGE_LOOP('',(#874,#875,#876,#877));
#400=EDGE_LOOP('',(#878,#879,#880,#881));
#401=EDGE_LOOP('',(#882,#883,#884,#885));
#402=EDGE_LOOP('',(#886,#887,#888,#889));
#403=EDGE_LOOP('',(#890,#891,#892,#893));
#404=EDGE_LOOP('',(#894,#895,#896,#897,#898));
#405=EDGE_LOOP('',(#899,#900,#901,#902));
#406=EDGE_LOOP('',(#903,#904,#905,#906));
#407=EDGE_LOOP('',(#907,#908,#909,#910));
#408=EDGE_LOOP('',(#911,#912,#913,#914));
#409=EDGE_LOOP('',(#915,#916,#917,#918));
#410=EDGE_LOOP('',(#919,#920,#921,#922));
#411=EDGE_LOOP('',(#923,#924,#925,#926,#927));
#412=EDGE_LOOP('',(#928,#929,#930,#931));
#413=EDGE_LOOP('',(#932,#933,#934,#935));
#414=EDGE_LOOP('',(#936,#937,#938,#939));
#415=EDGE_LOOP('',(#940,#941,#942,#943));
#416=EDGE_LOOP('',(#944,#945,#946,#947));
#417=EDGE_LOOP('',(#948,#949,#950,#951));
#418=EDGE_LOOP('',(#952,#953,#954,#955));
#419=EDGE_LOOP('',(#956,#957,#958,#959));
#420=EDGE_LOOP('',(#960));
#421=EDGE_LOOP('',(#961));
#422=CIRCLE('',#1034,0.15);
#423=CIRCLE('',#1035,0.0999999999999993);
#424=CIRCLE('',#1036,0.25);
#425=CIRCLE('',#1037,0.25);
#426=CIRCLE('',#1039,0.149999999999999);
#427=CIRCLE('',#1040,0.1);
#428=CIRCLE('',#1041,0.25);
#429=CIRCLE('',#1042,0.25);
#430=CIRCLE('',#1044,0.25);
#431=CIRCLE('',#1046,0.25);
#432=CIRCLE('',#1054,1.);
#433=CIRCLE('',#1055,1.);
#434=CIRCLE('',#1059,1.);
#435=CIRCLE('',#1060,1.);
#436=CIRCLE('',#1063,1.);
#437=CIRCLE('',#1064,1.);
#438=CIRCLE('',#1070,1.22000000000171);
#439=CIRCLE('',#1076,1.3);
#440=CIRCLE('',#1077,1.3);
#441=CIRCLE('',#1082,1.22000000002282);
#442=CIRCLE('',#1088,1.3000000000271);
#443=CIRCLE('',#1102,1.3);
#444=VERTEX_POINT('',#1386);
#445=VERTEX_POINT('',#1388);
#446=VERTEX_POINT('',#1390);
#447=VERTEX_POINT('',#1394);
#448=VERTEX_POINT('',#1396);
#449=VERTEX_POINT('',#1398);
#450=VERTEX_POINT('',#1402);
#451=VERTEX_POINT('',#1406);
#452=VERTEX_POINT('',#1410);
#453=VERTEX_POINT('',#1411);
#454=VERTEX_POINT('',#1413);
#455=VERTEX_POINT('',#1415);
#456=VERTEX_POINT('',#1417);
#457=VERTEX_POINT('',#1419);
#458=VERTEX_POINT('',#1423);
#459=VERTEX_POINT('',#1425);
#460=VERTEX_POINT('',#1429);
#461=VERTEX_POINT('',#1431);
#462=VERTEX_POINT('',#1433);
#463=VERTEX_POINT('',#1437);
#464=VERTEX_POINT('',#1441);
#465=VERTEX_POINT('',#1443);
#466=VERTEX_POINT('',#1445);
#467=VERTEX_POINT('',#1449);
#468=VERTEX_POINT('',#1453);
#469=VERTEX_POINT('',#1454);
#470=VERTEX_POINT('',#1456);
#471=VERTEX_POINT('',#1458);
#472=VERTEX_POINT('',#1460);
#473=VERTEX_POINT('',#1462);
#474=VERTEX_POINT('',#1471);
#475=VERTEX_POINT('',#1473);
#476=VERTEX_POINT('',#1475);
#477=VERTEX_POINT('',#1477);
#478=VERTEX_POINT('',#1481);
#479=VERTEX_POINT('',#1482);
#480=VERTEX_POINT('',#1484);
#481=VERTEX_POINT('',#1486);
#482=VERTEX_POINT('',#1489);
#483=VERTEX_POINT('',#1491);
#484=VERTEX_POINT('',#1493);
#485=VERTEX_POINT('',#1495);
#486=VERTEX_POINT('',#1497);
#487=VERTEX_POINT('',#1501);
#488=VERTEX_POINT('',#1503);
#489=VERTEX_POINT('',#1505);
#490=VERTEX_POINT('',#1509);
#491=VERTEX_POINT('',#1511);
#492=VERTEX_POINT('',#1513);
#493=VERTEX_POINT('',#1517);
#494=VERTEX_POINT('',#1521);
#495=VERTEX_POINT('',#1523);
#496=VERTEX_POINT('',#1528);
#497=VERTEX_POINT('',#1529);
#498=VERTEX_POINT('',#1532);
#499=VERTEX_POINT('',#1536);
#500=VERTEX_POINT('',#1540);
#501=VERTEX_POINT('',#1542);
#502=VERTEX_POINT('',#1546);
#503=VERTEX_POINT('',#1548);
#504=VERTEX_POINT('',#1552);
#505=VERTEX_POINT('',#1556);
#506=VERTEX_POINT('',#1557);
#507=VERTEX_POINT('',#1559);
#508=VERTEX_POINT('',#1562);
#509=VERTEX_POINT('',#1564);
#510=VERTEX_POINT('',#1566);
#511=VERTEX_POINT('',#1568);
#512=VERTEX_POINT('',#1570);
#513=VERTEX_POINT('',#1573);
#514=VERTEX_POINT('',#1575);
#515=VERTEX_POINT('',#1578);
#516=VERTEX_POINT('',#1580);
#517=VERTEX_POINT('',#1582);
#518=VERTEX_POINT('',#1584);
#519=VERTEX_POINT('',#1587);
#520=VERTEX_POINT('',#1591);
#521=VERTEX_POINT('',#1595);
#522=VERTEX_POINT('',#1597);
#523=VERTEX_POINT('',#1603);
#524=VERTEX_POINT('',#1605);
#525=VERTEX_POINT('',#1607);
#526=VERTEX_POINT('',#1617);
#527=VERTEX_POINT('',#1619);
#528=VERTEX_POINT('',#1623);
#529=VERTEX_POINT('',#1632);
#530=VERTEX_POINT('',#1636);
#531=VERTEX_POINT('',#1647);
#532=VERTEX_POINT('',#1651);
#533=VERTEX_POINT('',#1658);
#534=VERTEX_POINT('',#1665);
#535=VERTEX_POINT('',#1669);
#536=EDGE_CURVE('',#444,#444,#422,.T.);
#537=EDGE_CURVE('',#444,#445,#423,.T.);
#538=EDGE_CURVE('',#446,#445,#424,.T.);
#539=EDGE_CURVE('',#445,#446,#425,.T.);
#540=EDGE_CURVE('',#447,#447,#426,.T.);
#541=EDGE_CURVE('',#447,#448,#427,.T.);
#542=EDGE_CURVE('',#449,#448,#428,.T.);
#543=EDGE_CURVE('',#448,#449,#429,.T.);
#544=EDGE_CURVE('',#450,#450,#430,.T.);
#545=EDGE_CURVE('',#450,#446,#67,.T.);
#546=EDGE_CURVE('',#451,#451,#431,.T.);
#547=EDGE_CURVE('',#451,#449,#68,.T.);
#548=EDGE_CURVE('',#452,#453,#69,.T.);
#549=EDGE_CURVE('',#454,#452,#70,.T.);
#550=EDGE_CURVE('',#455,#454,#71,.T.);
#551=EDGE_CURVE('',#456,#455,#72,.T.);
#552=EDGE_CURVE('',#457,#456,#73,.T.);
#553=EDGE_CURVE('',#453,#457,#74,.T.);
#554=EDGE_CURVE('',#458,#457,#75,.T.);
#555=EDGE_CURVE('',#459,#458,#76,.T.);
#556=EDGE_CURVE('',#453,#459,#77,.T.);
#557=EDGE_CURVE('',#460,#459,#78,.T.);
#558=EDGE_CURVE('',#461,#460,#79,.T.);
#559=EDGE_CURVE('',#461,#462,#80,.T.);
#560=EDGE_CURVE('',#452,#462,#81,.T.);
#561=EDGE_CURVE('',#462,#463,#82,.T.);
#562=EDGE_CURVE('',#463,#454,#83,.T.);
#563=EDGE_CURVE('',#464,#463,#84,.T.);
#564=EDGE_CURVE('',#465,#464,#85,.T.);
#565=EDGE_CURVE('',#466,#465,#86,.T.);
#566=EDGE_CURVE('',#455,#466,#87,.T.);
#567=EDGE_CURVE('',#467,#466,#88,.T.);
#568=EDGE_CURVE('',#456,#467,#89,.T.);
#569=EDGE_CURVE('',#468,#469,#90,.T.);
#570=EDGE_CURVE('',#470,#468,#432,.T.);
#571=EDGE_CURVE('',#471,#470,#91,.T.);
#572=EDGE_CURVE('',#472,#471,#92,.T.);
#573=EDGE_CURVE('',#473,#472,#93,.T.);
#574=EDGE_CURVE('',#469,#473,#433,.T.);
#575=EDGE_CURVE('',#458,#467,#94,.T.);
#576=EDGE_CURVE('',#465,#460,#95,.T.);
#577=EDGE_CURVE('',#464,#461,#96,.T.);
#578=EDGE_CURVE('',#473,#474,#97,.T.);
#579=EDGE_CURVE('',#474,#475,#434,.T.);
#580=EDGE_CURVE('',#475,#476,#98,.T.);
#581=EDGE_CURVE('',#477,#476,#435,.T.);
#582=EDGE_CURVE('',#477,#469,#99,.T.);
#583=EDGE_CURVE('',#478,#479,#100,.T.);
#584=EDGE_CURVE('',#479,#480,#101,.T.);
#585=EDGE_CURVE('',#480,#481,#102,.T.);
#586=EDGE_CURVE('',#481,#468,#103,.T.);
#587=EDGE_CURVE('',#477,#482,#104,.T.);
#588=EDGE_CURVE('',#482,#483,#105,.T.);
#589=EDGE_CURVE('',#483,#484,#106,.T.);
#590=EDGE_CURVE('',#484,#485,#107,.T.);
#591=EDGE_CURVE('',#485,#486,#108,.T.);
#592=EDGE_CURVE('',#486,#478,#109,.T.);
#593=EDGE_CURVE('',#481,#487,#436,.T.);
#594=EDGE_CURVE('',#487,#488,#110,.T.);
#595=EDGE_CURVE('',#488,#489,#437,.T.);
#596=EDGE_CURVE('',#489,#470,#111,.T.);
#597=EDGE_CURVE('',#489,#490,#112,.T.);
#598=EDGE_CURVE('',#490,#491,#113,.T.);
#599=EDGE_CURVE('',#491,#492,#114,.T.);
#600=EDGE_CURVE('',#492,#471,#115,.T.);
#601=EDGE_CURVE('',#492,#493,#116,.T.);
#602=EDGE_CURVE('',#493,#472,#117,.T.);
#603=EDGE_CURVE('',#493,#494,#118,.T.);
#604=EDGE_CURVE('',#494,#495,#119,.T.);
#605=EDGE_CURVE('',#495,#474,#120,.T.);
#606=EDGE_CURVE('',#496,#497,#438,.T.);
#607=EDGE_CURVE('',#475,#496,#121,.T.);
#608=EDGE_CURVE('',#498,#495,#122,.T.);
#609=EDGE_CURVE('',#497,#498,#123,.T.);
#610=EDGE_CURVE('',#496,#499,#124,.T.);
#611=EDGE_CURVE('',#499,#476,#125,.T.);
#612=EDGE_CURVE('',#479,#500,#126,.T.);
#613=EDGE_CURVE('',#500,#501,#127,.T.);
#614=EDGE_CURVE('',#501,#480,#128,.T.);
#615=EDGE_CURVE('',#500,#502,#129,.T.);
#616=EDGE_CURVE('',#503,#478,#130,.T.);
#617=EDGE_CURVE('',#502,#503,#131,.T.);
#618=EDGE_CURVE('',#486,#504,#132,.T.);
#619=EDGE_CURVE('',#504,#503,#133,.T.);
#620=EDGE_CURVE('',#505,#506,#134,.T.);
#621=EDGE_CURVE('',#506,#507,#135,.T.);
#622=EDGE_CURVE('',#507,#494,#136,.T.);
#623=EDGE_CURVE('',#491,#508,#137,.T.);
#624=EDGE_CURVE('',#508,#509,#138,.T.);
#625=EDGE_CURVE('',#509,#510,#139,.T.);
#626=EDGE_CURVE('',#510,#511,#439,.T.);
#627=EDGE_CURVE('',#511,#512,#140,.T.);
#628=EDGE_CURVE('',#512,#487,#141,.T.);
#629=EDGE_CURVE('',#501,#513,#142,.T.);
#630=EDGE_CURVE('',#513,#514,#143,.T.);
#631=EDGE_CURVE('',#514,#504,#144,.T.);
#632=EDGE_CURVE('',#485,#515,#145,.T.);
#633=EDGE_CURVE('',#515,#516,#146,.T.);
#634=EDGE_CURVE('',#516,#517,#147,.T.);
#635=EDGE_CURVE('',#517,#518,#148,.T.);
#636=EDGE_CURVE('',#518,#482,#149,.T.);
#637=EDGE_CURVE('',#499,#519,#150,.T.);
#638=EDGE_CURVE('',#519,#505,#440,.T.);
#639=EDGE_CURVE('',#484,#520,#151,.T.);
#640=EDGE_CURVE('',#520,#515,#152,.T.);
#641=EDGE_CURVE('',#521,#483,#153,.T.);
#642=EDGE_CURVE('',#522,#521,#154,.T.);
#643=EDGE_CURVE('',#520,#522,#155,.T.);
#644=EDGE_CURVE('',#518,#521,#156,.T.);
#645=EDGE_CURVE('',#523,#488,#157,.T.);
#646=EDGE_CURVE('',#524,#523,#441,.T.);
#647=EDGE_CURVE('',#525,#524,#158,.T.);
#648=EDGE_CURVE('',#490,#525,#159,.T.);
#649=EDGE_CURVE('',#512,#523,#160,.T.);
#650=EDGE_CURVE('',#525,#508,#161,.T.);
#651=EDGE_CURVE('',#498,#507,#162,.T.);
#652=EDGE_CURVE('',#526,#497,#163,.T.);
#653=EDGE_CURVE('',#498,#527,#164,.T.);
#654=EDGE_CURVE('',#527,#526,#165,.T.);
#655=EDGE_CURVE('',#528,#496,#15,.T.);
#656=EDGE_CURVE('',#526,#528,#442,.T.);
#657=EDGE_CURVE('',#519,#528,#166,.T.);
#658=EDGE_CURVE('',#500,#529,#167,.T.);
#659=EDGE_CURVE('',#529,#513,#168,.T.);
#660=EDGE_CURVE('',#514,#530,#169,.T.);
#661=EDGE_CURVE('',#530,#502,#170,.T.);
#662=EDGE_CURVE('',#529,#530,#171,.T.);
#663=EDGE_CURVE('',#506,#527,#172,.T.);
#664=EDGE_CURVE('',#526,#505,#173,.T.);
#665=EDGE_CURVE('',#531,#521,#174,.T.);
#666=EDGE_CURVE('',#517,#531,#175,.T.);
#667=EDGE_CURVE('',#516,#532,#176,.T.);
#668=EDGE_CURVE('',#532,#531,#177,.T.);
#669=EDGE_CURVE('',#522,#532,#178,.T.);
#670=EDGE_CURVE('',#523,#533,#16,.T.);
#671=EDGE_CURVE('',#533,#511,#179,.T.);
#672=EDGE_CURVE('',#510,#534,#180,.T.);
#673=EDGE_CURVE('',#534,#533,#443,.T.);
#674=EDGE_CURVE('',#509,#535,#181,.T.);
#675=EDGE_CURVE('',#535,#534,#182,.T.);
#676=EDGE_CURVE('',#525,#535,#183,.T.);
#677=EDGE_CURVE('',#534,#524,#184,.T.);
#678=ORIENTED_EDGE('',*,*,#536,.T.);
#679=ORIENTED_EDGE('',*,*,#537,.T.);
#680=ORIENTED_EDGE('',*,*,#538,.F.);
#681=ORIENTED_EDGE('',*,*,#539,.F.);
#682=ORIENTED_EDGE('',*,*,#537,.F.);
#683=ORIENTED_EDGE('',*,*,#540,.T.);
#684=ORIENTED_EDGE('',*,*,#541,.T.);
#685=ORIENTED_EDGE('',*,*,#542,.F.);
#686=ORIENTED_EDGE('',*,*,#543,.F.);
#687=ORIENTED_EDGE('',*,*,#541,.F.);
#688=ORIENTED_EDGE('',*,*,#544,.F.);
#689=ORIENTED_EDGE('',*,*,#545,.T.);
#690=ORIENTED_EDGE('',*,*,#538,.T.);
#691=ORIENTED_EDGE('',*,*,#539,.T.);
#692=ORIENTED_EDGE('',*,*,#545,.F.);
#693=ORIENTED_EDGE('',*,*,#546,.F.);
#694=ORIENTED_EDGE('',*,*,#547,.T.);
#695=ORIENTED_EDGE('',*,*,#542,.T.);
#696=ORIENTED_EDGE('',*,*,#543,.T.);
#697=ORIENTED_EDGE('',*,*,#547,.F.);
#698=ORIENTED_EDGE('',*,*,#548,.F.);
#699=ORIENTED_EDGE('',*,*,#549,.F.);
#700=ORIENTED_EDGE('',*,*,#550,.F.);
#701=ORIENTED_EDGE('',*,*,#551,.F.);
#702=ORIENTED_EDGE('',*,*,#552,.F.);
#703=ORIENTED_EDGE('',*,*,#553,.F.);
#704=ORIENTED_EDGE('',*,*,#554,.F.);
#705=ORIENTED_EDGE('',*,*,#555,.F.);
#706=ORIENTED_EDGE('',*,*,#556,.F.);
#707=ORIENTED_EDGE('',*,*,#553,.T.);
#708=ORIENTED_EDGE('',*,*,#556,.T.);
#709=ORIENTED_EDGE('',*,*,#557,.F.);
#710=ORIENTED_EDGE('',*,*,#558,.F.);
#711=ORIENTED_EDGE('',*,*,#559,.T.);
#712=ORIENTED_EDGE('',*,*,#560,.F.);
#713=ORIENTED_EDGE('',*,*,#548,.T.);
#714=ORIENTED_EDGE('',*,*,#560,.T.);
#715=ORIENTED_EDGE('',*,*,#561,.T.);
#716=ORIENTED_EDGE('',*,*,#562,.T.);
#717=ORIENTED_EDGE('',*,*,#549,.T.);
#718=ORIENTED_EDGE('',*,*,#563,.F.);
#719=ORIENTED_EDGE('',*,*,#564,.F.);
#720=ORIENTED_EDGE('',*,*,#565,.F.);
#721=ORIENTED_EDGE('',*,*,#566,.F.);
#722=ORIENTED_EDGE('',*,*,#550,.T.);
#723=ORIENTED_EDGE('',*,*,#562,.F.);
#724=ORIENTED_EDGE('',*,*,#566,.T.);
#725=ORIENTED_EDGE('',*,*,#567,.F.);
#726=ORIENTED_EDGE('',*,*,#568,.F.);
#727=ORIENTED_EDGE('',*,*,#551,.T.);
#728=ORIENTED_EDGE('',*,*,#569,.F.);
#729=ORIENTED_EDGE('',*,*,#570,.F.);
#730=ORIENTED_EDGE('',*,*,#571,.F.);
#731=ORIENTED_EDGE('',*,*,#572,.F.);
#732=ORIENTED_EDGE('',*,*,#573,.F.);
#733=ORIENTED_EDGE('',*,*,#574,.F.);
#734=ORIENTED_EDGE('',*,*,#554,.T.);
#735=ORIENTED_EDGE('',*,*,#552,.T.);
#736=ORIENTED_EDGE('',*,*,#568,.T.);
#737=ORIENTED_EDGE('',*,*,#575,.F.);
#738=ORIENTED_EDGE('',*,*,#557,.T.);
#739=ORIENTED_EDGE('',*,*,#555,.T.);
#740=ORIENTED_EDGE('',*,*,#575,.T.);
#741=ORIENTED_EDGE('',*,*,#567,.T.);
#742=ORIENTED_EDGE('',*,*,#565,.T.);
#743=ORIENTED_EDGE('',*,*,#576,.T.);
#744=ORIENTED_EDGE('',*,*,#577,.F.);
#745=ORIENTED_EDGE('',*,*,#563,.T.);
#746=ORIENTED_EDGE('',*,*,#561,.F.);
#747=ORIENTED_EDGE('',*,*,#559,.F.);
#748=ORIENTED_EDGE('',*,*,#578,.T.);
#749=ORIENTED_EDGE('',*,*,#579,.T.);
#750=ORIENTED_EDGE('',*,*,#580,.T.);
#751=ORIENTED_EDGE('',*,*,#581,.F.);
#752=ORIENTED_EDGE('',*,*,#582,.T.);
#753=ORIENTED_EDGE('',*,*,#574,.T.);
#754=ORIENTED_EDGE('',*,*,#583,.T.);
#755=ORIENTED_EDGE('',*,*,#584,.T.);
#756=ORIENTED_EDGE('',*,*,#585,.T.);
#757=ORIENTED_EDGE('',*,*,#586,.T.);
#758=ORIENTED_EDGE('',*,*,#569,.T.);
#759=ORIENTED_EDGE('',*,*,#582,.F.);
#760=ORIENTED_EDGE('',*,*,#587,.T.);
#761=ORIENTED_EDGE('',*,*,#588,.T.);
#762=ORIENTED_EDGE('',*,*,#589,.T.);
#763=ORIENTED_EDGE('',*,*,#590,.T.);
#764=ORIENTED_EDGE('',*,*,#591,.T.);
#765=ORIENTED_EDGE('',*,*,#592,.T.);
#766=ORIENTED_EDGE('',*,*,#586,.F.);
#767=ORIENTED_EDGE('',*,*,#593,.T.);
#768=ORIENTED_EDGE('',*,*,#594,.T.);
#769=ORIENTED_EDGE('',*,*,#595,.T.);
#770=ORIENTED_EDGE('',*,*,#596,.T.);
#771=ORIENTED_EDGE('',*,*,#570,.T.);
#772=ORIENTED_EDGE('',*,*,#597,.T.);
#773=ORIENTED_EDGE('',*,*,#598,.T.);
#774=ORIENTED_EDGE('',*,*,#599,.T.);
#775=ORIENTED_EDGE('',*,*,#600,.T.);
#776=ORIENTED_EDGE('',*,*,#571,.T.);
#777=ORIENTED_EDGE('',*,*,#596,.F.);
#778=ORIENTED_EDGE('',*,*,#600,.F.);
#779=ORIENTED_EDGE('',*,*,#601,.T.);
#780=ORIENTED_EDGE('',*,*,#602,.T.);
#781=ORIENTED_EDGE('',*,*,#572,.T.);
#782=ORIENTED_EDGE('',*,*,#544,.T.);
#783=ORIENTED_EDGE('',*,*,#546,.T.);
#784=ORIENTED_EDGE('',*,*,#603,.T.);
#785=ORIENTED_EDGE('',*,*,#604,.T.);
#786=ORIENTED_EDGE('',*,*,#605,.T.);
#787=ORIENTED_EDGE('',*,*,#578,.F.);
#788=ORIENTED_EDGE('',*,*,#573,.T.);
#789=ORIENTED_EDGE('',*,*,#602,.F.);
#790=ORIENTED_EDGE('',*,*,#558,.T.);
#791=ORIENTED_EDGE('',*,*,#576,.F.);
#792=ORIENTED_EDGE('',*,*,#564,.T.);
#793=ORIENTED_EDGE('',*,*,#577,.T.);
#794=ORIENTED_EDGE('',*,*,#606,.F.);
#795=ORIENTED_EDGE('',*,*,#607,.F.);
#796=ORIENTED_EDGE('',*,*,#579,.F.);
#797=ORIENTED_EDGE('',*,*,#605,.F.);
#798=ORIENTED_EDGE('',*,*,#608,.F.);
#799=ORIENTED_EDGE('',*,*,#609,.F.);
#800=ORIENTED_EDGE('',*,*,#607,.T.);
#801=ORIENTED_EDGE('',*,*,#610,.T.);
#802=ORIENTED_EDGE('',*,*,#611,.T.);
#803=ORIENTED_EDGE('',*,*,#580,.F.);
#804=ORIENTED_EDGE('',*,*,#612,.T.);
#805=ORIENTED_EDGE('',*,*,#613,.T.);
#806=ORIENTED_EDGE('',*,*,#614,.T.);
#807=ORIENTED_EDGE('',*,*,#584,.F.);
#808=ORIENTED_EDGE('',*,*,#615,.F.);
#809=ORIENTED_EDGE('',*,*,#612,.F.);
#810=ORIENTED_EDGE('',*,*,#583,.F.);
#811=ORIENTED_EDGE('',*,*,#616,.F.);
#812=ORIENTED_EDGE('',*,*,#617,.F.);
#813=ORIENTED_EDGE('',*,*,#592,.F.);
#814=ORIENTED_EDGE('',*,*,#618,.T.);
#815=ORIENTED_EDGE('',*,*,#619,.T.);
#816=ORIENTED_EDGE('',*,*,#616,.T.);
#817=ORIENTED_EDGE('',*,*,#620,.T.);
#818=ORIENTED_EDGE('',*,*,#621,.T.);
#819=ORIENTED_EDGE('',*,*,#622,.T.);
#820=ORIENTED_EDGE('',*,*,#603,.F.);
#821=ORIENTED_EDGE('',*,*,#601,.F.);
#822=ORIENTED_EDGE('',*,*,#599,.F.);
#823=ORIENTED_EDGE('',*,*,#623,.T.);
#824=ORIENTED_EDGE('',*,*,#624,.T.);
#825=ORIENTED_EDGE('',*,*,#625,.T.);
#826=ORIENTED_EDGE('',*,*,#626,.T.);
#827=ORIENTED_EDGE('',*,*,#627,.T.);
#828=ORIENTED_EDGE('',*,*,#628,.T.);
#829=ORIENTED_EDGE('',*,*,#593,.F.);
#830=ORIENTED_EDGE('',*,*,#585,.F.);
#831=ORIENTED_EDGE('',*,*,#614,.F.);
#832=ORIENTED_EDGE('',*,*,#629,.T.);
#833=ORIENTED_EDGE('',*,*,#630,.T.);
#834=ORIENTED_EDGE('',*,*,#631,.T.);
#835=ORIENTED_EDGE('',*,*,#618,.F.);
#836=ORIENTED_EDGE('',*,*,#591,.F.);
#837=ORIENTED_EDGE('',*,*,#632,.T.);
#838=ORIENTED_EDGE('',*,*,#633,.T.);
#839=ORIENTED_EDGE('',*,*,#634,.T.);
#840=ORIENTED_EDGE('',*,*,#635,.T.);
#841=ORIENTED_EDGE('',*,*,#636,.T.);
#842=ORIENTED_EDGE('',*,*,#587,.F.);
#843=ORIENTED_EDGE('',*,*,#581,.T.);
#844=ORIENTED_EDGE('',*,*,#611,.F.);
#845=ORIENTED_EDGE('',*,*,#637,.T.);
#846=ORIENTED_EDGE('',*,*,#638,.T.);
#847=ORIENTED_EDGE('',*,*,#639,.T.);
#848=ORIENTED_EDGE('',*,*,#640,.T.);
#849=ORIENTED_EDGE('',*,*,#632,.F.);
#850=ORIENTED_EDGE('',*,*,#590,.F.);
#851=ORIENTED_EDGE('',*,*,#641,.F.);
#852=ORIENTED_EDGE('',*,*,#642,.F.);
#853=ORIENTED_EDGE('',*,*,#643,.F.);
#854=ORIENTED_EDGE('',*,*,#639,.F.);
#855=ORIENTED_EDGE('',*,*,#589,.F.);
#856=ORIENTED_EDGE('',*,*,#588,.F.);
#857=ORIENTED_EDGE('',*,*,#636,.F.);
#858=ORIENTED_EDGE('',*,*,#644,.T.);
#859=ORIENTED_EDGE('',*,*,#641,.T.);
#860=ORIENTED_EDGE('',*,*,#595,.F.);
#861=ORIENTED_EDGE('',*,*,#645,.F.);
#862=ORIENTED_EDGE('',*,*,#646,.F.);
#863=ORIENTED_EDGE('',*,*,#647,.F.);
#864=ORIENTED_EDGE('',*,*,#648,.F.);
#865=ORIENTED_EDGE('',*,*,#597,.F.);
#866=ORIENTED_EDGE('',*,*,#645,.T.);
#867=ORIENTED_EDGE('',*,*,#594,.F.);
#868=ORIENTED_EDGE('',*,*,#628,.F.);
#869=ORIENTED_EDGE('',*,*,#649,.T.);
#870=ORIENTED_EDGE('',*,*,#648,.T.);
#871=ORIENTED_EDGE('',*,*,#650,.T.);
#872=ORIENTED_EDGE('',*,*,#623,.F.);
#873=ORIENTED_EDGE('',*,*,#598,.F.);
#874=ORIENTED_EDGE('',*,*,#608,.T.);
#875=ORIENTED_EDGE('',*,*,#604,.F.);
#876=ORIENTED_EDGE('',*,*,#622,.F.);
#877=ORIENTED_EDGE('',*,*,#651,.F.);
#878=ORIENTED_EDGE('',*,*,#652,.T.);
#879=ORIENTED_EDGE('',*,*,#609,.T.);
#880=ORIENTED_EDGE('',*,*,#653,.T.);
#881=ORIENTED_EDGE('',*,*,#654,.T.);
#882=ORIENTED_EDGE('',*,*,#655,.T.);
#883=ORIENTED_EDGE('',*,*,#606,.T.);
#884=ORIENTED_EDGE('',*,*,#652,.F.);
#885=ORIENTED_EDGE('',*,*,#656,.T.);
#886=ORIENTED_EDGE('',*,*,#655,.F.);
#887=ORIENTED_EDGE('',*,*,#657,.F.);
#888=ORIENTED_EDGE('',*,*,#637,.F.);
#889=ORIENTED_EDGE('',*,*,#610,.F.);
#890=ORIENTED_EDGE('',*,*,#658,.T.);
#891=ORIENTED_EDGE('',*,*,#659,.T.);
#892=ORIENTED_EDGE('',*,*,#629,.F.);
#893=ORIENTED_EDGE('',*,*,#613,.F.);
#894=ORIENTED_EDGE('',*,*,#617,.T.);
#895=ORIENTED_EDGE('',*,*,#619,.F.);
#896=ORIENTED_EDGE('',*,*,#631,.F.);
#897=ORIENTED_EDGE('',*,*,#660,.T.);
#898=ORIENTED_EDGE('',*,*,#661,.T.);
#899=ORIENTED_EDGE('',*,*,#661,.F.);
#900=ORIENTED_EDGE('',*,*,#662,.F.);
#901=ORIENTED_EDGE('',*,*,#658,.F.);
#902=ORIENTED_EDGE('',*,*,#615,.T.);
#903=ORIENTED_EDGE('',*,*,#651,.T.);
#904=ORIENTED_EDGE('',*,*,#621,.F.);
#905=ORIENTED_EDGE('',*,*,#663,.T.);
#906=ORIENTED_EDGE('',*,*,#653,.F.);
#907=ORIENTED_EDGE('',*,*,#663,.F.);
#908=ORIENTED_EDGE('',*,*,#620,.F.);
#909=ORIENTED_EDGE('',*,*,#664,.F.);
#910=ORIENTED_EDGE('',*,*,#654,.F.);
#911=ORIENTED_EDGE('',*,*,#656,.F.);
#912=ORIENTED_EDGE('',*,*,#664,.T.);
#913=ORIENTED_EDGE('',*,*,#638,.F.);
#914=ORIENTED_EDGE('',*,*,#657,.T.);
#915=ORIENTED_EDGE('',*,*,#665,.T.);
#916=ORIENTED_EDGE('',*,*,#644,.F.);
#917=ORIENTED_EDGE('',*,*,#635,.F.);
#918=ORIENTED_EDGE('',*,*,#666,.T.);
#919=ORIENTED_EDGE('',*,*,#666,.F.);
#920=ORIENTED_EDGE('',*,*,#634,.F.);
#921=ORIENTED_EDGE('',*,*,#667,.T.);
#922=ORIENTED_EDGE('',*,*,#668,.T.);
#923=ORIENTED_EDGE('',*,*,#669,.T.);
#924=ORIENTED_EDGE('',*,*,#667,.F.);
#925=ORIENTED_EDGE('',*,*,#633,.F.);
#926=ORIENTED_EDGE('',*,*,#640,.F.);
#927=ORIENTED_EDGE('',*,*,#643,.T.);
#928=ORIENTED_EDGE('',*,*,#660,.F.);
#929=ORIENTED_EDGE('',*,*,#630,.F.);
#930=ORIENTED_EDGE('',*,*,#659,.F.);
#931=ORIENTED_EDGE('',*,*,#662,.T.);
#932=ORIENTED_EDGE('',*,*,#670,.F.);
#933=ORIENTED_EDGE('',*,*,#649,.F.);
#934=ORIENTED_EDGE('',*,*,#627,.F.);
#935=ORIENTED_EDGE('',*,*,#671,.F.);
#936=ORIENTED_EDGE('',*,*,#626,.F.);
#937=ORIENTED_EDGE('',*,*,#672,.T.);
#938=ORIENTED_EDGE('',*,*,#673,.T.);
#939=ORIENTED_EDGE('',*,*,#671,.T.);
#940=ORIENTED_EDGE('',*,*,#674,.T.);
#941=ORIENTED_EDGE('',*,*,#675,.T.);
#942=ORIENTED_EDGE('',*,*,#672,.F.);
#943=ORIENTED_EDGE('',*,*,#625,.F.);
#944=ORIENTED_EDGE('',*,*,#676,.T.);
#945=ORIENTED_EDGE('',*,*,#674,.F.);
#946=ORIENTED_EDGE('',*,*,#624,.F.);
#947=ORIENTED_EDGE('',*,*,#650,.F.);
#948=ORIENTED_EDGE('',*,*,#665,.F.);
#949=ORIENTED_EDGE('',*,*,#668,.F.);
#950=ORIENTED_EDGE('',*,*,#669,.F.);
#951=ORIENTED_EDGE('',*,*,#642,.T.);
#952=ORIENTED_EDGE('',*,*,#646,.T.);
#953=ORIENTED_EDGE('',*,*,#670,.T.);
#954=ORIENTED_EDGE('',*,*,#673,.F.);
#955=ORIENTED_EDGE('',*,*,#677,.T.);
#956=ORIENTED_EDGE('',*,*,#676,.F.);
#957=ORIENTED_EDGE('',*,*,#647,.T.);
#958=ORIENTED_EDGE('',*,*,#677,.F.);
#959=ORIENTED_EDGE('',*,*,#675,.F.);
#960=ORIENTED_EDGE('',*,*,#536,.F.);
#961=ORIENTED_EDGE('',*,*,#540,.F.);
#962=TOROIDAL_SURFACE('',#1033,0.15,0.0999999999999993);
#963=TOROIDAL_SURFACE('',#1038,0.150000000000005,0.1);
#964=ADVANCED_FACE('',(#309),#962,.T.);
#965=ADVANCED_FACE('',(#310),#963,.T.);
#966=ADVANCED_FACE('',(#311),#303,.T.);
#967=ADVANCED_FACE('',(#312),#304,.T.);
#968=ADVANCED_FACE('',(#313),#22,.F.);
#969=ADVANCED_FACE('',(#314),#23,.F.);
#970=ADVANCED_FACE('',(#315),#24,.F.);
#971=ADVANCED_FACE('',(#316),#25,.T.);
#972=ADVANCED_FACE('',(#317),#26,.F.);
#973=ADVANCED_FACE('',(#318),#27,.F.);
#974=ADVANCED_FACE('',(#319,#19),#28,.F.);
#975=ADVANCED_FACE('',(#320),#29,.T.);
#976=ADVANCED_FACE('',(#321),#30,.F.);
#977=ADVANCED_FACE('',(#322),#305,.T.);
#978=ADVANCED_FACE('',(#323),#31,.T.);
#979=ADVANCED_FACE('',(#324),#306,.T.);
#980=ADVANCED_FACE('',(#325),#32,.T.);
#981=ADVANCED_FACE('',(#326,#20,#21),#33,.T.);
#982=ADVANCED_FACE('',(#327),#34,.T.);
#983=ADVANCED_FACE('',(#328),#35,.T.);
#984=ADVANCED_FACE('',(#329),#36,.F.);
#985=ADVANCED_FACE('',(#330),#37,.T.);
#986=ADVANCED_FACE('',(#331),#38,.T.);
#987=ADVANCED_FACE('',(#332),#39,.F.);
#988=ADVANCED_FACE('',(#333),#40,.T.);
#989=ADVANCED_FACE('',(#334),#41,.T.);
#990=ADVANCED_FACE('',(#335),#42,.T.);
#991=ADVANCED_FACE('',(#336),#43,.F.);
#992=ADVANCED_FACE('',(#337),#44,.T.);
#993=ADVANCED_FACE('',(#338),#45,.F.);
#994=ADVANCED_FACE('',(#339),#46,.T.);
#995=ADVANCED_FACE('',(#340),#47,.T.);
#996=ADVANCED_FACE('',(#341),#48,.F.);
#997=ADVANCED_FACE('',(#342),#49,.T.);
#998=ADVANCED_FACE('',(#343),#17,.T.);
#999=ADVANCED_FACE('',(#344),#50,.F.);
#1000=ADVANCED_FACE('',(#345),#51,.T.);
#1001=ADVANCED_FACE('',(#346),#52,.T.);
#1002=ADVANCED_FACE('',(#347),#53,.F.);
#1003=ADVANCED_FACE('',(#348),#54,.T.);
#1004=ADVANCED_FACE('',(#349),#55,.F.);
#1005=ADVANCED_FACE('',(#350),#307,.T.);
#1006=ADVANCED_FACE('',(#351),#56,.T.);
#1007=ADVANCED_FACE('',(#352),#57,.T.);
#1008=ADVANCED_FACE('',(#353),#58,.T.);
#1009=ADVANCED_FACE('',(#354),#59,.T.);
#1010=ADVANCED_FACE('',(#355),#60,.F.);
#1011=ADVANCED_FACE('',(#356),#308,.T.);
#1012=ADVANCED_FACE('',(#357),#61,.T.);
#1013=ADVANCED_FACE('',(#358),#62,.T.);
#1014=ADVANCED_FACE('',(#359),#63,.F.);
#1015=ADVANCED_FACE('',(#360),#18,.T.);
#1016=ADVANCED_FACE('',(#361),#64,.F.);
#1017=ADVANCED_FACE('',(#362),#65,.F.);
#1018=ADVANCED_FACE('',(#363),#66,.F.);
#1019=CLOSED_SHELL('',(#964,#965,#966,#967,#968,#969,#970,#971,#972,#973,
#974,#975,#976,#977,#978,#979,#980,#981,#982,#983,#984,#985,#986,#987,#988,
#989,#990,#991,#992,#993,#994,#995,#996,#997,#998,#999,#1000,#1001,#1002,
#1003,#1004,#1005,#1006,#1007,#1008,#1009,#1010,#1011,#1012,#1013,#1014,
#1015,#1016,#1017,#1018));
#1020=DERIVED_UNIT_ELEMENT(#1022,1.);
#1021=DERIVED_UNIT_ELEMENT(#1685,-3.);
#1022=(
MASS_UNIT()
NAMED_UNIT(*)
SI_UNIT(.KILO.,.GRAM.)
);
#1023=DERIVED_UNIT((#1020,#1021));
#1024=MEASURE_REPRESENTATION_ITEM('density measure',
POSITIVE_RATIO_MEASURE(7850.),#1023);
#1025=PROPERTY_DEFINITION_REPRESENTATION(#1030,#1027);
#1026=PROPERTY_DEFINITION_REPRESENTATION(#1031,#1028);
#1027=REPRESENTATION('material name',(#1029),#1682);
#1028=REPRESENTATION('density',(#1024),#1682);
#1029=DESCRIPTIVE_REPRESENTATION_ITEM('Acier','Acier');
#1030=PROPERTY_DEFINITION('material property','material name',#1692);
#1031=PROPERTY_DEFINITION('material property','density of part',#1692);
#1032=AXIS2_PLACEMENT_3D('',#1384,#1110,#1111);
#1033=AXIS2_PLACEMENT_3D('',#1385,#1112,#1113);
#1034=AXIS2_PLACEMENT_3D('',#1387,#1114,#1115);
#1035=AXIS2_PLACEMENT_3D('',#1389,#1116,#1117);
#1036=AXIS2_PLACEMENT_3D('',#1391,#1118,#1119);
#1037=AXIS2_PLACEMENT_3D('',#1392,#1120,#1121);
#1038=AXIS2_PLACEMENT_3D('',#1393,#1122,#1123);
#1039=AXIS2_PLACEMENT_3D('',#1395,#1124,#1125);
#1040=AXIS2_PLACEMENT_3D('',#1397,#1126,#1127);
#1041=AXIS2_PLACEMENT_3D('',#1399,#1128,#1129);
#1042=AXIS2_PLACEMENT_3D('',#1400,#1130,#1131);
#1043=AXIS2_PLACEMENT_3D('',#1401,#1132,#1133);
#1044=AXIS2_PLACEMENT_3D('',#1403,#1134,#1135);
#1045=AXIS2_PLACEMENT_3D('',#1405,#1137,#1138);
#1046=AXIS2_PLACEMENT_3D('',#1407,#1139,#1140);
#1047=AXIS2_PLACEMENT_3D('',#1409,#1142,#1143);
#1048=AXIS2_PLACEMENT_3D('',#1422,#1150,#1151);
#1049=AXIS2_PLACEMENT_3D('',#1428,#1155,#1156);
#1050=AXIS2_PLACEMENT_3D('',#1436,#1161,#1162);
#1051=AXIS2_PLACEMENT_3D('',#1440,#1165,#1166);
#1052=AXIS2_PLACEMENT_3D('',#1448,#1171,#1172);
#1053=AXIS2_PLACEMENT_3D('',#1452,#1175,#1176);
#1054=AXIS2_PLACEMENT_3D('',#1457,#1178,#1179);
#1055=AXIS2_PLACEMENT_3D('',#1464,#1183,#1184);
#1056=AXIS2_PLACEMENT_3D('',#1466,#1186,#1187);
#1057=AXIS2_PLACEMENT_3D('',#1468,#1189,#1190);
#1058=AXIS2_PLACEMENT_3D('',#1470,#1192,#1193);
#1059=AXIS2_PLACEMENT_3D('',#1474,#1195,#1196);
#1060=AXIS2_PLACEMENT_3D('',#1478,#1198,#1199);
#1061=AXIS2_PLACEMENT_3D('',#1480,#1201,#1202);
#1062=AXIS2_PLACEMENT_3D('',#1500,#1213,#1214);
#1063=AXIS2_PLACEMENT_3D('',#1502,#1215,#1216);
#1064=AXIS2_PLACEMENT_3D('',#1506,#1218,#1219);
#1065=AXIS2_PLACEMENT_3D('',#1508,#1221,#1222);
#1066=AXIS2_PLACEMENT_3D('',#1516,#1227,#1228);
#1067=AXIS2_PLACEMENT_3D('',#1520,#1231,#1232);
#1068=AXIS2_PLACEMENT_3D('',#1526,#1236,#1237);
#1069=AXIS2_PLACEMENT_3D('',#1527,#1238,#1239);
#1070=AXIS2_PLACEMENT_3D('',#1530,#1240,#1241);
#1071=AXIS2_PLACEMENT_3D('',#1535,#1245,#1246);
#1072=AXIS2_PLACEMENT_3D('',#1539,#1249,#1250);
#1073=AXIS2_PLACEMENT_3D('',#1545,#1254,#1255);
#1074=AXIS2_PLACEMENT_3D('',#1551,#1259,#1260);
#1075=AXIS2_PLACEMENT_3D('',#1555,#1263,#1264);
#1076=AXIS2_PLACEMENT_3D('',#1569,#1271,#1272);
#1077=AXIS2_PLACEMENT_3D('',#1589,#1284,#1285);
#1078=AXIS2_PLACEMENT_3D('',#1590,#1286,#1287);
#1079=AXIS2_PLACEMENT_3D('',#1594,#1290,#1291);
#1080=AXIS2_PLACEMENT_3D('',#1600,#1295,#1296);
#1081=AXIS2_PLACEMENT_3D('',#1602,#1298,#1299);
#1082=AXIS2_PLACEMENT_3D('',#1606,#1301,#1302);
#1083=AXIS2_PLACEMENT_3D('',#1610,#1305,#1306);
#1084=AXIS2_PLACEMENT_3D('',#1612,#1308,#1309);
#1085=AXIS2_PLACEMENT_3D('',#1614,#1311,#1312);
#1086=AXIS2_PLACEMENT_3D('',#1616,#1314,#1315);
#1087=AXIS2_PLACEMENT_3D('',#1622,#1319,#1320);
#1088=AXIS2_PLACEMENT_3D('',#1628,#1321,#1322);
#1089=AXIS2_PLACEMENT_3D('',#1629,#1323,#1324);
#1090=AXIS2_PLACEMENT_3D('',#1631,#1326,#1327);
#1091=AXIS2_PLACEMENT_3D('',#1635,#1330,#1331);
#1092=AXIS2_PLACEMENT_3D('',#1639,#1334,#1335);
#1093=AXIS2_PLACEMENT_3D('',#1641,#1337,#1338);
#1094=AXIS2_PLACEMENT_3D('',#1643,#1340,#1341);
#1095=AXIS2_PLACEMENT_3D('',#1645,#1343,#1344);
#1096=AXIS2_PLACEMENT_3D('',#1646,#1345,#1346);
#1097=AXIS2_PLACEMENT_3D('',#1650,#1349,#1350);
#1098=AXIS2_PLACEMENT_3D('',#1654,#1353,#1354);
#1099=AXIS2_PLACEMENT_3D('',#1656,#1356,#1357);
#1100=AXIS2_PLACEMENT_3D('',#1657,#1358,#1359);
#1101=AXIS2_PLACEMENT_3D('',#1664,#1361,#1362);
#1102=AXIS2_PLACEMENT_3D('',#1667,#1364,#1365);
#1103=AXIS2_PLACEMENT_3D('',#1668,#1366,#1367);
#1104=AXIS2_PLACEMENT_3D('',#1672,#1370,#1371);
#1105=AXIS2_PLACEMENT_3D('',#1674,#1373,#1374);
#1106=AXIS2_PLACEMENT_3D('',#1675,#1375,#1376);
#1107=AXIS2_PLACEMENT_3D('',#1677,#1378,#1379);
#1108=AXIS2_PLACEMENT_3D('',#1678,#1380,#1381);
#1109=AXIS2_PLACEMENT_3D('',#1679,#1382,#1383);
#1110=DIRECTION('axis',(0.,0.,1.));
#1111=DIRECTION('refdir',(1.,0.,0.));
#1112=DIRECTION('center_axis',(1.85696494452844E-16,3.61591010283994E-15,
-1.));
#1113=DIRECTION('ref_axis',(-1.,0.,0.));
#1114=DIRECTION('center_axis',(0.,0.,1.));
#1115=DIRECTION('ref_axis',(-1.,-7.40148683083438E-15,0.));
#1116=DIRECTION('center_axis',(1.00361666278691E-30,-1.,-3.61591010283994E-15));
#1117=DIRECTION('ref_axis',(1.,0.,2.7755575615629E-16));
#1118=DIRECTION('center_axis',(0.,1.1E-16,1.));
#1119=DIRECTION('ref_axis',(0.,-1.,1.1E-16));
#1120=DIRECTION('center_axis',(0.,1.1E-16,1.));
#1121=DIRECTION('ref_axis',(0.,-1.,1.1E-16));
#1122=DIRECTION('center_axis',(-5.35145254610757E-16,1.98768237426892E-16,
-1.));
#1123=DIRECTION('ref_axis',(-1.,0.,4.44089209850055E-16));
#1124=DIRECTION('center_axis',(0.,0.,1.));
#1125=DIRECTION('ref_axis',(-1.,-1.48029736616688E-14,0.));
#1126=DIRECTION('center_axis',(-1.10338536877746E-31,-1.,-1.98768237426892E-16));
#1127=DIRECTION('ref_axis',(1.,0.,-5.55111512312568E-16));
#1128=DIRECTION('center_axis',(0.,1.1E-16,1.));
#1129=DIRECTION('ref_axis',(0.,-1.,1.1E-16));
#1130=DIRECTION('center_axis',(0.,1.1E-16,1.));
#1131=DIRECTION('ref_axis',(0.,-1.,1.1E-16));
#1132=DIRECTION('center_axis',(0.,1.1E-16,1.));
#1133=DIRECTION('ref_axis',(0.,-1.,1.1E-16));
#1134=DIRECTION('center_axis',(0.,1.1E-16,1.));
#1135=DIRECTION('ref_axis',(0.,-1.,1.1E-16));
#1136=DIRECTION('',(0.,-1.1E-16,-1.));
#1137=DIRECTION('center_axis',(0.,1.1E-16,1.));
#1138=DIRECTION('ref_axis',(0.,-1.,1.1E-16));
#1139=DIRECTION('center_axis',(0.,1.1E-16,1.));
#1140=DIRECTION('ref_axis',(0.,-1.,1.1E-16));
#1141=DIRECTION('',(0.,-1.1E-16,-1.));
#1142=DIRECTION('center_axis',(0.,2.2E-16,1.));
#1143=DIRECTION('ref_axis',(0.,-1.,2.2E-16));
#1144=DIRECTION('',(0.342020143326155,0.939692620785731,0.));
#1145=DIRECTION('',(1.,0.,0.));
#1146=DIRECTION('',(0.342020143326155,-0.939692620785731,0.));
#1147=DIRECTION('',(0.,-1.,2.2E-16));
#1148=DIRECTION('',(-1.,0.,0.));
#1149=DIRECTION('',(0.,1.,-2.2E-16));
#1150=DIRECTION('center_axis',(-1.,0.,0.));
#1151=DIRECTION('ref_axis',(0.,0.,1.));
#1152=DIRECTION('',(0.,0.,-1.));
#1153=DIRECTION('',(0.,1.,0.));
#1154=DIRECTION('',(0.,0.,1.));
#1155=DIRECTION('center_axis',(-0.939692620785813,0.342020143325932,-1.59999999999968E-16));
#1156=DIRECTION('ref_axis',(-0.342020143325932,-0.939692620785813,0.));
#1157=DIRECTION('',(0.342020143325932,0.939692620785813,0.));
#1158=DIRECTION('',(0.300626578482343,0.825964736070691,0.476870962711794));
#1159=DIRECTION('',(0.,-4.4E-16,-1.));
#1160=DIRECTION('',(-0.300626578483525,-0.82596473607067,0.476870962711085));
#1161=DIRECTION('center_axis',(1.30000000000049E-16,-0.50000000000019,-0.866025403784329));
#1162=DIRECTION('ref_axis',(1.23259516440783E-32,0.866025403784329,-0.50000000000019));
#1163=DIRECTION('',(-1.,-6.50000000000494E-17,-1.12583302492006E-16));
#1164=DIRECTION('',(-0.300626578482341,0.825964736070692,-0.476870962711794));
#1165=DIRECTION('center_axis',(0.939692620785813,0.342020143325932,-1.59999999999968E-16));
#1166=DIRECTION('ref_axis',(-0.342020143325932,0.939692620785813,0.));
#1167=DIRECTION('',(-1.503508193257E-16,-5.47232229321382E-17,-1.));
#1168=DIRECTION('',(0.300626578482341,-0.825964736070692,-0.476870962711794));
#1169=DIRECTION('',(0.342020143325932,-0.939692620785813,0.));
#1170=DIRECTION('',(1.503508193257E-16,5.47232229321382E-17,1.));
#1171=DIRECTION('center_axis',(1.,0.,0.));
#1172=DIRECTION('ref_axis',(0.,0.,-1.));
#1173=DIRECTION('',(0.,-1.,0.));
#1174=DIRECTION('',(0.,0.,1.));
#1175=DIRECTION('center_axis',(0.,1.,8.E-17));
#1176=DIRECTION('ref_axis',(0.,-8.E-17,1.));
#1177=DIRECTION('',(1.,0.,0.));
#1178=DIRECTION('center_axis',(0.,1.,-2.2E-16));
#1179=DIRECTION('ref_axis',(0.,2.2E-16,1.));
#1180=DIRECTION('',(0.,-8.E-17,1.));
#1181=DIRECTION('',(-1.,0.,0.));
#1182=DIRECTION('',(0.,8.E-17,-1.));
#1183=DIRECTION('center_axis',(0.,1.,-2.2E-16));
#1184=DIRECTION('ref_axis',(0.,2.2E-16,1.));
#1185=DIRECTION('',(-1.,0.,0.));
#1186=DIRECTION('center_axis',(0.,2.2E-16,1.));
#1187=DIRECTION('ref_axis',(0.,-1.,2.2E-16));
#1188=DIRECTION('',(1.,0.,0.));
#1189=DIRECTION('center_axis',(0.,1.,-4.4E-16));
#1190=DIRECTION('ref_axis',(0.,4.4E-16,1.));
#1191=DIRECTION('',(1.,0.,0.));
#1192=DIRECTION('center_axis',(0.,1.,-2.2E-16));
#1193=DIRECTION('ref_axis',(0.,2.2E-16,1.));
#1194=DIRECTION('',(0.,1.,-2.2E-16));
#1195=DIRECTION('center_axis',(0.,-1.,2.2E-16));
#1196=DIRECTION('ref_axis',(1.73472347597681E-15,2.2E-16,1.));
#1197=DIRECTION('',(0.,1.,-2.2E-16));
#1198=DIRECTION('center_axis',(0.,1.,-2.2E-16));
#1199=DIRECTION('ref_axis',(0.,2.2E-16,1.));
#1200=DIRECTION('',(0.,-1.,2.2E-16));
#1201=DIRECTION('center_axis',(0.,2.2E-16,1.));
#1202=DIRECTION('ref_axis',(0.,-1.,2.2E-16));
#1203=DIRECTION('',(-1.,0.,0.));
#1204=DIRECTION('',(0.,1.,-2.2E-16));
#1205=DIRECTION('',(-1.,0.,0.));
#1206=DIRECTION('',(0.,-1.,2.2E-16));
#1207=DIRECTION('',(-1.,0.,0.));
#1208=DIRECTION('',(0.,-1.,2.2E-16));
#1209=DIRECTION('',(-1.,0.,0.));
#1210=DIRECTION('',(0.,1.,-2.2E-16));
#1211=DIRECTION('',(-1.,0.,0.));
#1212=DIRECTION('',(0.,-1.,2.2E-16));
#1213=DIRECTION('center_axis',(0.,1.,-2.2E-16));
#1214=DIRECTION('ref_axis',(0.,2.2E-16,1.));
#1215=DIRECTION('center_axis',(0.,-1.,2.2E-16));
#1216=DIRECTION('ref_axis',(0.,2.2E-16,1.));
#1217=DIRECTION('',(0.,-1.,2.2E-16));
#1218=DIRECTION('center_axis',(0.,-1.,2.2E-16));
#1219=DIRECTION('ref_axis',(0.,2.2E-16,1.));
#1220=DIRECTION('',(0.,-1.,2.2E-16));
#1221=DIRECTION('center_axis',(-1.,0.,0.));
#1222=DIRECTION('ref_axis',(0.,0.,1.));
#1223=DIRECTION('',(0.,0.,-1.));
#1224=DIRECTION('',(0.,1.,0.));
#1225=DIRECTION('',(0.,0.,-1.));
#1226=DIRECTION('',(0.,-1.,0.));
#1227=DIRECTION('center_axis',(0.,-2.2E-16,-1.));
#1228=DIRECTION('ref_axis',(0.,1.,-2.2E-16));
#1229=DIRECTION('',(1.,0.,0.));
#1230=DIRECTION('',(0.,-1.,2.2E-16));
#1231=DIRECTION('center_axis',(1.,0.,0.));
#1232=DIRECTION('ref_axis',(0.,0.,-1.));
#1233=DIRECTION('',(0.,0.,1.));
#1234=DIRECTION('',(0.,-1.,0.));
#1235=DIRECTION('',(0.,0.,1.));
#1236=DIRECTION('center_axis',(-3.50000000000133E-16,-0.50000000000019,
0.866025403784329));
#1237=DIRECTION('ref_axis',(0.,-0.866025403784329,-0.50000000000019));
#1238=DIRECTION('center_axis',(1.3E-16,1.,6.1E-16));
#1239=DIRECTION('ref_axis',(0.,-6.1E-16,1.));
#1240=DIRECTION('center_axis',(6.67201336900247E-16,1.,0.));
#1241=DIRECTION('ref_axis',(-1.,6.67201336900247E-16,0.));
#1242=DIRECTION('',(0.400000000716917,0.,0.91651513867828));
#1243=DIRECTION('',(-1.,1.3E-16,7.93E-32));
#1244=DIRECTION('',(0.,6.1E-16,-1.));
#1245=DIRECTION('center_axis',(-0.916515138677838,8.99999999999841E-17,
0.400000000717929));
#1246=DIRECTION('ref_axis',(0.400000000717929,0.,0.916515138677838));
#1247=DIRECTION('',(8.24863624809908E-17,1.,-3.60000000646073E-17));
#1248=DIRECTION('',(-0.400000000717929,0.,-0.916515138677838));
#1249=DIRECTION('center_axis',(0.707106781186548,1.59999999999898E-16,0.707106781186548));
#1250=DIRECTION('ref_axis',(0.707106781186548,0.,-0.707106781186548));
#1251=DIRECTION('',(0.577350269189626,0.577350269189626,-0.577350269189626));
#1252=DIRECTION('',(-1.13137084989775E-16,1.,-1.13137084989775E-16));
#1253=DIRECTION('',(-0.707106781186547,0.,0.707106781186547));
#1254=DIRECTION('center_axis',(0.,-0.707106781186548,-0.707106781186548));
#1255=DIRECTION('ref_axis',(0.,0.707106781186548,-0.707106781186548));
#1256=DIRECTION('',(1.,0.,0.));
#1257=DIRECTION('',(0.862856209460841,-0.357406744336805,0.357406744336805));
#1258=DIRECTION('',(0.577350269189626,-0.577350269189626,0.577350269189626));
#1259=DIRECTION('center_axis',(-0.382683432365114,2.10000000000063E-16,
0.923879532511277));
#1260=DIRECTION('ref_axis',(0.923879532511277,0.,0.382683432365115));
#1261=DIRECTION('',(-0.923879532511277,0.,-0.382683432365114));
#1262=DIRECTION('',(-8.03635207966981E-17,-1.,1.94014701827426E-16));
#1263=DIRECTION('center_axis',(0.,1.,-2.2E-16));
#1264=DIRECTION('ref_axis',(0.,2.2E-16,1.));
#1265=DIRECTION('',(0.,-2.2E-16,-1.));
#1266=DIRECTION('',(-0.707106781186549,0.,-0.707106781186546));
#1267=DIRECTION('',(-1.,0.,0.));
#1268=DIRECTION('',(-1.,0.,0.));
#1269=DIRECTION('',(-0.707106781186549,0.,0.707106781186546));
#1270=DIRECTION('',(0.,2.2E-16,1.));
#1271=DIRECTION('center_axis',(0.,1.,-2.2E-16));
#1272=DIRECTION('ref_axis',(0.,2.2E-16,1.));
#1273=DIRECTION('',(0.936426191237546,0.,-0.3508646296855));
#1274=DIRECTION('',(0.400000000000094,0.,-0.916515138991127));
#1275=DIRECTION('',(0.,-2.2E-16,-1.));
#1276=DIRECTION('',(1.,0.,0.));
#1277=DIRECTION('',(0.707106781186548,0.,0.707106781186547));
#1278=DIRECTION('',(0.92387953251118,0.,-0.382683432365348));
#1279=DIRECTION('',(0.707106781186548,0.,-0.707106781186547));
#1280=DIRECTION('',(1.,0.,0.));
#1281=DIRECTION('',(0.,2.2E-16,1.));
#1282=DIRECTION('',(0.707106781186547,0.,0.707106781186547));
#1283=DIRECTION('',(0.936426191513693,0.,0.350864628948489));
#1284=DIRECTION('center_axis',(0.,1.,-2.2E-16));
#1285=DIRECTION('ref_axis',(0.,2.2E-16,1.));
#1286=DIRECTION('center_axis',(0.382683432365114,2.10000000000063E-16,0.923879532511277));
#1287=DIRECTION('ref_axis',(0.923879532511277,0.,-0.382683432365115));
#1288=DIRECTION('',(0.862856209460933,0.357406744336802,-0.357406744336586));
#1289=DIRECTION('',(-8.03635207966981E-17,1.,-1.94014701827426E-16));
#1290=DIRECTION('center_axis',(0.,-0.707106781186548,-0.707106781186548));
#1291=DIRECTION('ref_axis',(0.,0.707106781186548,-0.707106781186548));
#1292=DIRECTION('',(0.577350269189626,-0.577350269189626,0.577350269189626));
#1293=DIRECTION('',(1.,0.,0.));
#1294=DIRECTION('',(0.577350269189626,0.577350269189626,-0.577350269189626));
#1295=DIRECTION('center_axis',(-0.707106781186548,1.59999999999898E-16,
0.707106781186548));
#1296=DIRECTION('ref_axis',(0.707106781186548,0.,0.707106781186548));
#1297=DIRECTION('',(-1.13137084989775E-16,-1.,1.13137084989775E-16));
#1298=DIRECTION('center_axis',(-1.3E-16,1.,6.1E-16));
#1299=DIRECTION('ref_axis',(0.,-6.1E-16,1.));
#1300=DIRECTION('',(0.400000000000094,0.,-0.916515138991127));
#1301=DIRECTION('center_axis',(0.,1.,0.));
#1302=DIRECTION('ref_axis',(0.,0.,1.));
#1303=DIRECTION('',(0.,-6.1E-16,1.));
#1304=DIRECTION('',(-1.,-1.3E-16,-7.93E-32));
#1305=DIRECTION('center_axis',(0.916515138991141,9.00000000000139E-17,0.400000000000062));
#1306=DIRECTION('ref_axis',(0.400000000000062,0.,-0.916515138991141));
#1307=DIRECTION('',(8.24863625092154E-17,-1.,3.60000000000111E-17));
#1308=DIRECTION('center_axis',(0.,-2.2E-16,-1.));
#1309=DIRECTION('ref_axis',(0.,1.,-2.2E-16));
#1310=DIRECTION('',(0.,1.,-2.2E-16));
#1311=DIRECTION('center_axis',(0.,2.2E-16,1.));
#1312=DIRECTION('ref_axis',(0.,-1.,2.2E-16));
#1313=DIRECTION('',(0.,1.,-2.2E-16));
#1314=DIRECTION('center_axis',(0.707106781186548,-0.707106781186548,-2.79999999999821E-16));
#1315=DIRECTION('ref_axis',(0.707106781186548,0.707106781186548,0.));
#1316=DIRECTION('',(-0.707106781186547,-0.707106781186547,0.));
#1317=DIRECTION('',(0.577350269189627,0.577350269189627,0.577350269189624));
#1318=DIRECTION('',(1.97989898732107E-16,-1.97989898732107E-16,1.));
#1319=DIRECTION('center_axis',(6.67201336900247E-16,1.,0.));
#1320=DIRECTION('ref_axis',(-1.,6.67201336900247E-16,0.));
#1321=DIRECTION('center_axis',(-1.3E-16,-1.,-3.8E-16));
#1322=DIRECTION('ref_axis',(1.,-1.3E-16,5.00401002675185E-16));
#1323=DIRECTION('center_axis',(0.350864628951795,-2.09999999999878E-16,
-0.936426191512454));
#1324=DIRECTION('ref_axis',(-0.936426191512454,0.,-0.350864628951795));
#1325=DIRECTION('',(-7.36815720798341E-17,-1.,1.96649500217501E-16));
#1326=DIRECTION('center_axis',(1.,0.,0.));
#1327=DIRECTION('ref_axis',(0.,0.,-1.));
#1328=DIRECTION('',(0.,0.,-1.));
#1329=DIRECTION('',(0.,1.,0.));
#1330=DIRECTION('center_axis',(-0.707106781186548,1.59999999999898E-16,
0.707106781186548));
#1331=DIRECTION('ref_axis',(0.707106781186548,0.,0.707106781186548));
#1332=DIRECTION('',(-1.13137084989775E-16,-1.,1.13137084989775E-16));
#1333=DIRECTION('',(0.707106781186547,0.,0.707106781186547));
#1334=DIRECTION('center_axis',(0.,-1.,2.2E-16));
#1335=DIRECTION('ref_axis',(0.,-2.2E-16,-1.));
#1336=DIRECTION('',(1.,0.,0.));
#1337=DIRECTION('center_axis',(0.707106781186548,-1.59999999999898E-16,
-0.707106781186548));
#1338=DIRECTION('ref_axis',(-0.707106781186548,0.,-0.707106781186548));
#1339=DIRECTION('',(-1.13137084989775E-16,-1.,1.13137084989775E-16));
#1340=DIRECTION('center_axis',(-1.,0.,0.));
#1341=DIRECTION('ref_axis',(0.,0.,1.));
#1342=DIRECTION('',(0.,1.,0.));
#1343=DIRECTION('center_axis',(0.,1.,-2.2E-16));
#1344=DIRECTION('ref_axis',(0.,2.2E-16,1.));
#1345=DIRECTION('center_axis',(-1.,0.,0.));
#1346=DIRECTION('ref_axis',(0.,0.,1.));
#1347=DIRECTION('',(0.,0.,1.));
#1348=DIRECTION('',(0.,-1.,0.));
#1349=DIRECTION('center_axis',(0.,2.2E-16,1.));
#1350=DIRECTION('ref_axis',(0.,-1.,2.2E-16));
#1351=DIRECTION('',(0.,-1.,2.2E-16));
#1352=DIRECTION('',(1.,0.,0.));
#1353=DIRECTION('center_axis',(0.707106781186548,1.59999999999898E-16,0.707106781186548));
#1354=DIRECTION('ref_axis',(0.707106781186548,0.,-0.707106781186548));
#1355=DIRECTION('',(0.707106781186547,0.,-0.707106781186547));
#1356=DIRECTION('center_axis',(0.,2.2E-16,1.));
#1357=DIRECTION('ref_axis',(0.,-1.,2.2E-16));
#1358=DIRECTION('center_axis',(-0.350864629685789,-2.09999999999874E-16,
-0.936426191237438));
#1359=DIRECTION('ref_axis',(-0.936426191237438,0.,0.350864629685789));
#1360=DIRECTION('',(-7.36815722339715E-17,1.,-1.96649500159744E-16));
#1361=DIRECTION('center_axis',(0.,1.,-2.2E-16));
#1362=DIRECTION('ref_axis',(0.,2.2E-16,1.));
#1363=DIRECTION('',(0.,-1.,2.2E-16));
#1364=DIRECTION('center_axis',(0.,1.,-2.2E-16));
#1365=DIRECTION('ref_axis',(0.,2.2E-16,1.));
#1366=DIRECTION('center_axis',(-1.,0.,0.));
#1367=DIRECTION('ref_axis',(0.,0.,1.));
#1368=DIRECTION('',(0.,-1.,0.));
#1369=DIRECTION('',(0.,0.,1.));
#1370=DIRECTION('center_axis',(-0.707106781186548,-1.59999999999898E-16,
-0.707106781186548));
#1371=DIRECTION('ref_axis',(-0.707106781186548,0.,0.707106781186548));
#1372=DIRECTION('',(-0.577350269189625,0.577350269189627,0.577350269189626));
#1373=DIRECTION('center_axis',(0.,-1.,2.2E-16));
#1374=DIRECTION('ref_axis',(0.,-2.2E-16,-1.));
#1375=DIRECTION('center_axis',(0.,1.,0.));
#1376=DIRECTION('ref_axis',(0.,0.,1.));
#1377=DIRECTION('',(0.707106781186231,-0.707106781186864,1.30673249998381E-12));
#1378=DIRECTION('center_axis',(0.707106781186548,0.707106781186548,2.79999999999821E-16));
#1379=DIRECTION('ref_axis',(-0.707106781186548,0.707106781186548,0.));
#1380=DIRECTION('center_axis',(0.,2.2E-16,1.));
#1381=DIRECTION('ref_axis',(0.,-1.,2.2E-16));
#1382=DIRECTION('center_axis',(0.,2.2E-16,1.));
#1383=DIRECTION('ref_axis',(0.,-1.,2.2E-16));
#1384=CARTESIAN_POINT('',(0.,0.,0.));
#1385=CARTESIAN_POINT('Origin',(1.58,6.25,-0.580000000000001));
#1386=CARTESIAN_POINT('',(1.73,6.25,-0.68));
#1387=CARTESIAN_POINT('Origin',(1.58,6.25,-0.68));
#1388=CARTESIAN_POINT('',(1.83,6.25,-0.58));
#1389=CARTESIAN_POINT('Origin',(1.73,6.25,-0.580000000000001));
#1390=CARTESIAN_POINT('',(1.58,6.5,-0.58));
#1391=CARTESIAN_POINT('Origin',(1.58,6.25,-0.58));
#1392=CARTESIAN_POINT('Origin',(1.58,6.25,-0.58));
#1393=CARTESIAN_POINT('Origin',(7.36,6.24999999999999,-0.58));
#1394=CARTESIAN_POINT('',(7.51,6.25,-0.68));
#1395=CARTESIAN_POINT('Origin',(7.36,6.25,-0.68));
#1396=CARTESIAN_POINT('',(7.61,6.24999999999999,-0.58));
#1397=CARTESIAN_POINT('Origin',(7.51000000000001,6.24999999999999,-0.58));
#1398=CARTESIAN_POINT('',(7.36,6.5,-0.58));
#1399=CARTESIAN_POINT('Origin',(7.36,6.25,-0.58));
#1400=CARTESIAN_POINT('Origin',(7.36,6.25,-0.58));
#1401=CARTESIAN_POINT('Origin',(1.58,6.25,-6.9E-16));
#1402=CARTESIAN_POINT('',(1.58,6.5,-2.0275E-15));
#1403=CARTESIAN_POINT('Origin',(1.58,6.25,-2.E-15));
#1404=CARTESIAN_POINT('',(1.58,6.5,-7.175E-16));
#1405=CARTESIAN_POINT('Origin',(7.36,6.25,-6.9E-16));
#1406=CARTESIAN_POINT('',(7.36,6.5,-2.0275E-15));
#1407=CARTESIAN_POINT('Origin',(7.36,6.25,-2.E-15));
#1408=CARTESIAN_POINT('',(7.36,6.5,-7.175E-16));
#1409=CARTESIAN_POINT('Origin',(4.475,3.360563294844,1.28));
#1410=CARTESIAN_POINT('',(7.24119356851007,0.981865334794977,1.28));
#1411=CARTESIAN_POINT('',(7.45500000000006,1.56929367744698,1.28));
#1412=CARTESIAN_POINT('',(7.24119356851,0.981865334795,1.28));
#1413=CARTESIAN_POINT('',(1.70880643148993,0.981865334794975,1.28));
#1414=CARTESIAN_POINT('',(4.475,0.981865334795,1.28));
#1415=CARTESIAN_POINT('',(1.495,1.569293677447,1.28));
#1416=CARTESIAN_POINT('',(1.495,1.569293677447,1.28));
#1417=CARTESIAN_POINT('',(1.495,5.81,1.28));
#1418=CARTESIAN_POINT('',(1.495,3.360563294844,1.28));
#1419=CARTESIAN_POINT('',(7.455,5.81,1.28));
#1420=CARTESIAN_POINT('',(4.475,5.81,1.28));
#1421=CARTESIAN_POINT('',(7.455,3.360563294844,1.28));
#1422=CARTESIAN_POINT('Origin',(7.455,1.569293677447,1.28));
#1423=CARTESIAN_POINT('',(7.455,5.81,1.88));
#1424=CARTESIAN_POINT('',(7.455,5.81,1.28));
#1425=CARTESIAN_POINT('',(7.45500000000006,1.56929367744698,1.88));
#1426=CARTESIAN_POINT('',(7.455,1.569293677447,1.88));
#1427=CARTESIAN_POINT('',(7.455,1.569293677447,1.28));
#1428=CARTESIAN_POINT('Origin',(7.175,0.8,1.28));
#1429=CARTESIAN_POINT('',(7.24119356851007,0.981865334794931,1.88000000000008));
#1430=CARTESIAN_POINT('',(7.175,0.8,1.88));
#1431=CARTESIAN_POINT('',(7.175,0.8,1.775));
#1432=CARTESIAN_POINT('',(7.175,0.799999999999999,1.775));
#1433=CARTESIAN_POINT('',(7.175,0.800000000000023,1.38500000000004));
#1434=CARTESIAN_POINT('',(7.175,0.8,1.28));
#1435=CARTESIAN_POINT('',(7.24119356851026,0.981865334794905,1.28));
#1436=CARTESIAN_POINT('Origin',(1.495,0.981865334795,1.28));
#1437=CARTESIAN_POINT('',(1.77500000000006,0.800000000000045,1.38500000000004));
#1438=CARTESIAN_POINT('',(1.495,0.80000000000009,1.38500000000016));
#1439=CARTESIAN_POINT('',(1.775,0.80000000000009,1.38500000000016));
#1440=CARTESIAN_POINT('Origin',(1.495,1.569293677447,1.28));
#1441=CARTESIAN_POINT('',(1.77500000000003,0.800000000000011,1.775));
#1442=CARTESIAN_POINT('',(1.77500000000012,0.800000000000044,1.28));
#1443=CARTESIAN_POINT('',(1.70880643148997,0.981865334794942,1.88000000000008));
#1444=CARTESIAN_POINT('',(1.70880643149,0.98186533479491,1.88000000000016));
#1445=CARTESIAN_POINT('',(1.495,1.569293677447,1.88));
#1446=CARTESIAN_POINT('',(1.495,1.569293677447,1.88));
#1447=CARTESIAN_POINT('',(1.495,1.569293677447,1.28));
#1448=CARTESIAN_POINT('Origin',(1.495,5.81,1.28));
#1449=CARTESIAN_POINT('',(1.495,5.81,1.88));
#1450=CARTESIAN_POINT('',(1.495,5.81,1.88));
#1451=CARTESIAN_POINT('',(1.495,5.81,1.28));
#1452=CARTESIAN_POINT('Origin',(4.475,5.81,1.362516322338));
#1453=CARTESIAN_POINT('',(1.3,5.81,2.86));
#1454=CARTESIAN_POINT('',(7.65,5.81,2.86));
#1455=CARTESIAN_POINT('',(4.475,5.81,2.86));
#1456=CARTESIAN_POINT('',(0.3,5.81,1.86));
#1457=CARTESIAN_POINT('Origin',(1.3,5.81,1.86));
#1458=CARTESIAN_POINT('',(0.3,5.81,-1.38946811499034E-15));
#1459=CARTESIAN_POINT('',(0.3,5.81,1.362516322338));
#1460=CARTESIAN_POINT('',(8.65,5.81,-1.153534781657E-15));
#1461=CARTESIAN_POINT('',(4.475,5.81,-1.0842021724855E-15));
#1462=CARTESIAN_POINT('',(8.65,5.81,1.86));
#1463=CARTESIAN_POINT('',(8.65,5.81,1.362516322338));
#1464=CARTESIAN_POINT('Origin',(7.65,5.81,1.86));
#1465=CARTESIAN_POINT('',(4.475,5.81,1.88));
#1466=CARTESIAN_POINT('Origin',(4.475,3.360563294844,1.88));
#1467=CARTESIAN_POINT('',(4.475,0.981865334795,1.88));
#1468=CARTESIAN_POINT('Origin',(1.775,0.8,1.28));
#1469=CARTESIAN_POINT('',(1.775,0.8,1.775));
#1470=CARTESIAN_POINT('Origin',(7.65,7.3,1.86));
#1471=CARTESIAN_POINT('',(8.65,6.6,1.86));
#1472=CARTESIAN_POINT('',(8.65,7.3,1.86));
#1473=CARTESIAN_POINT('',(8.05000000071825,6.6,2.7765151386777));
#1474=CARTESIAN_POINT('Origin',(7.65,6.6,1.86));
#1475=CARTESIAN_POINT('',(8.05000000071825,7.3,2.7765151386777));
#1476=CARTESIAN_POINT('',(8.05000000071825,7.3,2.7765151386777));
#1477=CARTESIAN_POINT('',(7.65,7.3,2.86));
#1478=CARTESIAN_POINT('Origin',(7.65,7.3,1.86));
#1479=CARTESIAN_POINT('',(7.65,7.3,2.86));
#1480=CARTESIAN_POINT('Origin',(1.3,7.3,2.86));
#1481=CARTESIAN_POINT('',(3.15499999999995,6.47,2.86000000000012));
#1482=CARTESIAN_POINT('',(2.09,6.47,2.86));
#1483=CARTESIAN_POINT('',(1.3,6.47,2.86));
#1484=CARTESIAN_POINT('',(2.09,7.3,2.86));
#1485=CARTESIAN_POINT('',(2.09,7.3,2.86));
#1486=CARTESIAN_POINT('',(1.3,7.3,2.86));
#1487=CARTESIAN_POINT('',(1.3,7.3,2.86));
#1488=CARTESIAN_POINT('',(1.3,7.3,2.86));
#1489=CARTESIAN_POINT('',(6.86,7.3,2.86));
#1490=CARTESIAN_POINT('',(1.3,7.3,2.86));
#1491=CARTESIAN_POINT('',(6.86,6.47,2.86));
#1492=CARTESIAN_POINT('',(6.86,7.3,2.86));
#1493=CARTESIAN_POINT('',(5.79500000000005,6.47,2.86000000000012));
#1494=CARTESIAN_POINT('',(1.3,6.47,2.86));
#1495=CARTESIAN_POINT('',(5.795,7.3,2.86));
#1496=CARTESIAN_POINT('',(5.795,7.3,2.86));
#1497=CARTESIAN_POINT('',(3.15499999999998,7.3,2.86000000000006));
#1498=CARTESIAN_POINT('',(1.3,7.3,2.86));
#1499=CARTESIAN_POINT('',(3.155,7.3,2.86));
#1500=CARTESIAN_POINT('Origin',(1.3,7.3,1.86));
#1501=CARTESIAN_POINT('',(0.899999999999939,7.3,2.77651513899114));
#1502=CARTESIAN_POINT('Origin',(1.3,7.3,1.86));
#1503=CARTESIAN_POINT('',(0.899999999999939,6.6,2.77651513899114));
#1504=CARTESIAN_POINT('',(0.899999999999938,7.3,2.77651513899114));
#1505=CARTESIAN_POINT('',(0.3,6.6,1.86));
#1506=CARTESIAN_POINT('Origin',(1.3,6.6,1.86));
#1507=CARTESIAN_POINT('',(0.3,7.3,1.86));
#1508=CARTESIAN_POINT('Origin',(0.3,7.3,-1.62E-15));
#1509=CARTESIAN_POINT('',(0.3,6.6,1.725));
#1510=CARTESIAN_POINT('',(0.3,6.6,-1.62E-15));
#1511=CARTESIAN_POINT('',(0.3,7.3,1.725));
#1512=CARTESIAN_POINT('',(0.3,7.3,1.725));
#1513=CARTESIAN_POINT('',(0.3,7.3,-1.87333333333333E-15));
#1514=CARTESIAN_POINT('',(0.3,7.3,-1.62E-15));
#1515=CARTESIAN_POINT('',(0.3,7.3,-2.E-15));
#1516=CARTESIAN_POINT('Origin',(8.65,7.3,-1.62E-15));
#1517=CARTESIAN_POINT('',(8.65,7.3,-1.44140072416183E-15));
#1518=CARTESIAN_POINT('',(8.65,7.3,-1.62E-15));
#1519=CARTESIAN_POINT('',(8.65,7.3,-1.62E-15));
#1520=CARTESIAN_POINT('Origin',(8.65,7.3,1.86));
#1521=CARTESIAN_POINT('',(8.65,7.3,1.725));
#1522=CARTESIAN_POINT('',(8.65,7.3,1.86));
#1523=CARTESIAN_POINT('',(8.65,6.6,1.725));
#1524=CARTESIAN_POINT('',(8.65,7.3,1.725));
#1525=CARTESIAN_POINT('',(8.65,6.6,1.86));
#1526=CARTESIAN_POINT('Origin',(1.495,0.8,1.775));
#1527=CARTESIAN_POINT('Origin',(8.427297797979,6.6,2.269761772867));
#1528=CARTESIAN_POINT('',(8.13800000087638,6.59999999999586,2.97814846918772));
#1529=CARTESIAN_POINT('',(8.86999999999586,6.59999999999586,1.86));
#1530=CARTESIAN_POINT('Origin',(7.65,6.59999999999172,1.86));
#1531=CARTESIAN_POINT('',(8.05,6.6,2.776515137032));
#1532=CARTESIAN_POINT('',(8.87,6.6,1.725));
#1533=CARTESIAN_POINT('',(8.427297797979,6.6,1.725));
#1534=CARTESIAN_POINT('',(8.87,6.6,2.269761772867));
#1535=CARTESIAN_POINT('Origin',(8.05,7.3,2.776515137032));
#1536=CARTESIAN_POINT('',(8.13800000087615,7.3,2.97814846918694));
#1537=CARTESIAN_POINT('',(8.13800000087622,7.3,2.9781484691869));
#1538=CARTESIAN_POINT('',(8.05,7.3,2.776515137032));
#1539=CARTESIAN_POINT('Origin',(2.13,7.3,2.82));
#1540=CARTESIAN_POINT('',(2.17,6.55,2.78));
#1541=CARTESIAN_POINT('',(2.09,6.47,2.86));
#1542=CARTESIAN_POINT('',(2.17,7.3,2.78));
#1543=CARTESIAN_POINT('',(2.17,7.3,2.78));
#1544=CARTESIAN_POINT('',(2.13,7.3,2.82));
#1545=CARTESIAN_POINT('Origin',(3.075,6.51,2.82));
#1546=CARTESIAN_POINT('',(2.995,6.55,2.78));
#1547=CARTESIAN_POINT('',(3.075,6.55,2.78));
#1548=CARTESIAN_POINT('',(3.01843145750494,6.526568542495,2.80343145750513));
#1549=CARTESIAN_POINT('',(3.018431457505,6.526568542495,2.803431457505));
#1550=CARTESIAN_POINT('',(2.995,6.55,2.78));
#1551=CARTESIAN_POINT('Origin',(3.086715728753,7.3,2.831715728753));
#1552=CARTESIAN_POINT('',(3.01843145750497,7.3,2.80343145750507));
#1553=CARTESIAN_POINT('',(3.086715728753,7.3,2.831715728753));
#1554=CARTESIAN_POINT('',(3.01843145750489,7.3,2.80343145750527));
#1555=CARTESIAN_POINT('Origin',(4.475000000234,7.3,1.488582804144));
#1556=CARTESIAN_POINT('',(8.95,7.3,1.86));
#1557=CARTESIAN_POINT('',(8.95,7.3,1.805));
#1558=CARTESIAN_POINT('',(8.95,7.3,1.488582804144));
#1559=CARTESIAN_POINT('',(8.87,7.3,1.725));
#1560=CARTESIAN_POINT('',(8.95,7.3,1.805));
#1561=CARTESIAN_POINT('',(4.475000000234,7.3,1.725));
#1562=CARTESIAN_POINT('',(0.0799999999999997,7.3,1.725));
#1563=CARTESIAN_POINT('',(4.475000000234,7.3,1.725));
#1564=CARTESIAN_POINT('',(2.25875452601147E-18,7.3,1.805));
#1565=CARTESIAN_POINT('',(0.0800000000000002,7.3,1.725));
#1566=CARTESIAN_POINT('',(0.,7.3,1.86));
#1567=CARTESIAN_POINT('',(0.,7.3,1.488582804144));
#1568=CARTESIAN_POINT('',(0.707698120749775,7.3,3.0172287949391));
#1569=CARTESIAN_POINT('Origin',(1.3,7.3,1.86));
#1570=CARTESIAN_POINT('',(0.812000000000088,7.3,2.97814846956904));
#1571=CARTESIAN_POINT('',(0.70769812075,7.3,3.017228794939));
#1572=CARTESIAN_POINT('',(0.812,7.3,2.978148469569));
#1573=CARTESIAN_POINT('',(2.17,7.3,2.36));
#1574=CARTESIAN_POINT('',(2.17,7.3,1.488582804144));
#1575=CARTESIAN_POINT('',(2.575,7.3,2.36));
#1576=CARTESIAN_POINT('',(4.475000000234,7.3,2.36));
#1577=CARTESIAN_POINT('',(2.575,7.3,2.36));
#1578=CARTESIAN_POINT('',(5.93156854249504,7.3,2.80343145750509));
#1579=CARTESIAN_POINT('',(5.795,7.3,2.86));
#1580=CARTESIAN_POINT('',(6.375,7.3,2.36));
#1581=CARTESIAN_POINT('',(5.931568542495,7.3,2.803431457505));
#1582=CARTESIAN_POINT('',(6.78,7.3,2.36));
#1583=CARTESIAN_POINT('',(4.475000000234,7.3,2.36));
#1584=CARTESIAN_POINT('',(6.78,7.3,2.78));
#1585=CARTESIAN_POINT('',(6.78,7.3,1.488582804144));
#1586=CARTESIAN_POINT('',(6.78,7.3,2.78));
#1587=CARTESIAN_POINT('',(8.24230188015703,7.3,3.01722879447522));
#1588=CARTESIAN_POINT('',(8.138000000876,7.3,2.978148469187));
#1589=CARTESIAN_POINT('Origin',(7.65,7.3,1.86));
#1590=CARTESIAN_POINT('Origin',(5.863284271247,7.3,2.831715728753));
#1591=CARTESIAN_POINT('',(5.93156854249508,6.526568542495,2.80343145750518));
#1592=CARTESIAN_POINT('',(5.7950000000001,6.47,2.86000000000023));
#1593=CARTESIAN_POINT('',(5.93156854249511,7.3,2.80343145750527));
#1594=CARTESIAN_POINT('Origin',(6.78,6.51,2.82));
#1595=CARTESIAN_POINT('',(6.78,6.55,2.78));
#1596=CARTESIAN_POINT('',(6.78,6.55,2.78));
#1597=CARTESIAN_POINT('',(5.955,6.55,2.78));
#1598=CARTESIAN_POINT('',(6.78,6.55,2.78));
#1599=CARTESIAN_POINT('',(5.931568542495,6.526568542495,2.803431457505));
#1600=CARTESIAN_POINT('Origin',(6.82,7.3,2.82));
#1601=CARTESIAN_POINT('',(6.78,7.3,2.78));
#1602=CARTESIAN_POINT('Origin',(0.522702202177,6.6,2.269761773111));
#1603=CARTESIAN_POINT('',(0.81199999999292,6.59999999998966,2.97814846957171));
#1604=CARTESIAN_POINT('',(0.812,6.6,2.978148469569));
#1605=CARTESIAN_POINT('',(0.079999999976908,6.59999999999172,1.85999999999951));
#1606=CARTESIAN_POINT('Origin',(1.3,6.59999999999172,1.86));
#1607=CARTESIAN_POINT('',(0.08,6.6,1.725));
#1608=CARTESIAN_POINT('',(0.08,6.6,2.269761773111));
#1609=CARTESIAN_POINT('',(0.522702202177,6.6,1.725));
#1610=CARTESIAN_POINT('Origin',(0.78,7.3,3.051469680689));
#1611=CARTESIAN_POINT('',(0.812000000000264,7.3,2.97814846956912));
#1612=CARTESIAN_POINT('Origin',(0.9,7.3,1.725));
#1613=CARTESIAN_POINT('',(0.08,7.3,1.725));
#1614=CARTESIAN_POINT('Origin',(8.05,7.3,1.725));
#1615=CARTESIAN_POINT('',(8.87,7.3,1.725));
#1616=CARTESIAN_POINT('Origin',(8.91,6.64,1.725));
#1617=CARTESIAN_POINT('',(8.95000000000678,6.68000000000428,1.86));
#1618=CARTESIAN_POINT('',(8.91,6.64,1.86));
#1619=CARTESIAN_POINT('',(8.95,6.68,1.805));
#1620=CARTESIAN_POINT('',(8.87,6.6,1.725));
#1621=CARTESIAN_POINT('',(8.95,6.68,1.725));
#1622=CARTESIAN_POINT('Origin',(7.65,6.68000000001712,1.86));
#1623=CARTESIAN_POINT('',(8.24230188017397,6.68000000000362,3.01722879448178));
#1624=CARTESIAN_POINT('Ctrl Pts',(8.24230188017397,6.68000000000362,3.01722879448178));
#1625=CARTESIAN_POINT('Ctrl Pts',(8.20787607394835,6.65283279873028,3.00432996931579));
#1626=CARTESIAN_POINT('Ctrl Pts',(8.17313138911795,6.62611682372116,2.99131166518877));
#1627=CARTESIAN_POINT('Ctrl Pts',(8.13800000087638,6.59999999999586,2.97814846918772));
#1628=CARTESIAN_POINT('Origin',(7.65,6.68000000001712,1.86));
#1629=CARTESIAN_POINT('Origin',(8.138000000876,7.3,2.978148469187));
#1630=CARTESIAN_POINT('',(8.24230188015686,7.3,3.01722879447537));
#1631=CARTESIAN_POINT('Origin',(2.17,7.3,2.86));
#1632=CARTESIAN_POINT('',(2.17,6.55,2.36));
#1633=CARTESIAN_POINT('',(2.17,6.55,2.86));
#1634=CARTESIAN_POINT('',(2.17,7.3,2.36));
#1635=CARTESIAN_POINT('Origin',(2.575,7.3,2.36));
#1636=CARTESIAN_POINT('',(2.575,6.55,2.36));
#1637=CARTESIAN_POINT('',(2.575,7.3,2.36));
#1638=CARTESIAN_POINT('',(2.575,6.55,2.36));
#1639=CARTESIAN_POINT('Origin',(2.549276695297,6.55,2.659660189601));
#1640=CARTESIAN_POINT('',(2.549276695297,6.55,2.36));
#1641=CARTESIAN_POINT('Origin',(8.91,7.3,1.765));
#1642=CARTESIAN_POINT('',(8.95,7.3,1.805));
#1643=CARTESIAN_POINT('Origin',(8.95,7.3,1.725));
#1644=CARTESIAN_POINT('',(8.95,7.3,1.86));
#1645=CARTESIAN_POINT('Origin',(7.65,7.3,1.86));
#1646=CARTESIAN_POINT('Origin',(6.78,7.3,2.36));
#1647=CARTESIAN_POINT('',(6.78,6.55,2.36));
#1648=CARTESIAN_POINT('',(6.78,6.55,2.36));
#1649=CARTESIAN_POINT('',(6.78,7.3,2.36));
#1650=CARTESIAN_POINT('Origin',(6.375,7.3,2.36));
#1651=CARTESIAN_POINT('',(6.375,6.55,2.36));
#1652=CARTESIAN_POINT('',(6.375,7.3,2.36));
#1653=CARTESIAN_POINT('',(6.375,6.55,2.36));
#1654=CARTESIAN_POINT('Origin',(5.875,7.3,2.86));
#1655=CARTESIAN_POINT('',(5.875,6.55,2.86));
#1656=CARTESIAN_POINT('Origin',(2.17,7.3,2.36));
#1657=CARTESIAN_POINT('Origin',(0.812,7.3,2.978148469569));
#1658=CARTESIAN_POINT('',(0.707698120749796,6.67999999999547,3.01722879493911));
#1659=CARTESIAN_POINT('Ctrl Pts',(0.81199999999292,6.59999999998966,2.97814846957171));
#1660=CARTESIAN_POINT('Ctrl Pts',(0.776868611765993,6.62611682370903,2.9913116655992));
#1661=CARTESIAN_POINT('Ctrl Pts',(0.742123926954673,6.65283279871992,3.00432996974741));
#1662=CARTESIAN_POINT('Ctrl Pts',(0.707698120749796,6.67999999999547,3.01722879493911));
#1663=CARTESIAN_POINT('',(0.707698120750012,7.3,3.01722879493903));
#1664=CARTESIAN_POINT('Origin',(1.3,7.3,1.86));
#1665=CARTESIAN_POINT('',(2.8421709430404E-11,6.67999999996165,1.85999999999972));
#1666=CARTESIAN_POINT('',(0.,7.3,1.86));
#1667=CARTESIAN_POINT('Origin',(1.3,6.68,1.86));
#1668=CARTESIAN_POINT('Origin',(0.,7.3,1.725));
#1669=CARTESIAN_POINT('',(4.06575814682064E-17,6.68,1.805));
#1670=CARTESIAN_POINT('',(0.,7.3,1.805));
#1671=CARTESIAN_POINT('',(0.,6.68,1.725));
#1672=CARTESIAN_POINT('Origin',(0.04,7.3,1.765));
#1673=CARTESIAN_POINT('',(0.0799999999999999,6.6,1.725));
#1674=CARTESIAN_POINT('Origin',(6.400723304703,6.55,2.659660189601));
#1675=CARTESIAN_POINT('Origin',(1.3,6.68000000001712,1.86));
#1676=CARTESIAN_POINT('',(2.8421709430404E-11,6.67999999996165,1.85999999999972));
#1677=CARTESIAN_POINT('Origin',(0.04,6.64,1.86));
#1678=CARTESIAN_POINT('Origin',(1.58,6.25,-0.68));
#1679=CARTESIAN_POINT('Origin',(7.36,6.25,-0.68));
#1680=UNCERTAINTY_MEASURE_WITH_UNIT(LENGTH_MEASURE(0.01),#1684,
'DISTANCE_ACCURACY_VALUE',
'Maximum model space distance between geometric entities at asserted c
onnectivities');
#1681=UNCERTAINTY_MEASURE_WITH_UNIT(LENGTH_MEASURE(0.01),#1684,
'DISTANCE_ACCURACY_VALUE',
'Maximum model space distance between geometric entities at asserted c
onnectivities');
#1682=(
GEOMETRIC_REPRESENTATION_CONTEXT(3)
GLOBAL_UNCERTAINTY_ASSIGNED_CONTEXT((#1680))
GLOBAL_UNIT_ASSIGNED_CONTEXT((#1684,#1686,#1687))
REPRESENTATION_CONTEXT('','3D')
);
#1683=(
GEOMETRIC_REPRESENTATION_CONTEXT(3)
GLOBAL_UNCERTAINTY_ASSIGNED_CONTEXT((#1681))
GLOBAL_UNIT_ASSIGNED_CONTEXT((#1684,#1686,#1687))
REPRESENTATION_CONTEXT('','3D')
);
#1684=(
LENGTH_UNIT()
NAMED_UNIT(*)
SI_UNIT(.MILLI.,.METRE.)
);
#1685=(
LENGTH_UNIT()
NAMED_UNIT(*)
SI_UNIT($,.METRE.)
);
#1686=(
NAMED_UNIT(*)
PLANE_ANGLE_UNIT()
SI_UNIT($,.RADIAN.)
);
#1687=(
NAMED_UNIT(*)
SI_UNIT($,.STERADIAN.)
SOLID_ANGLE_UNIT()
);
#1688=SHAPE_DEFINITION_REPRESENTATION(#1689,#1690);
#1689=PRODUCT_DEFINITION_SHAPE('',$,#1692);
#1690=SHAPE_REPRESENTATION('',(#1032),#1682);
#1691=PRODUCT_DEFINITION_CONTEXT('part definition',#1696,'design');
#1692=PRODUCT_DEFINITION('Mold','Mold',#1693,#1691);
#1693=PRODUCT_DEFINITION_FORMATION('',$,#1698);
#1694=PRODUCT_RELATED_PRODUCT_CATEGORY('Mold','Mold',(#1698));
#1695=APPLICATION_PROTOCOL_DEFINITION('international standard',
'automotive_design',2009,#1696);
#1696=APPLICATION_CONTEXT(
'Core Data for Automotive Mechanical Design Process');
#1697=PRODUCT_CONTEXT('part definition',#1696,'mechanical');
#1698=PRODUCT('Mold','Mold',$,(#1697));
#1699=PRESENTATION_STYLE_ASSIGNMENT((#1701));
#1700=PRESENTATION_STYLE_ASSIGNMENT((#1702));
#1701=SURFACE_STYLE_USAGE(.BOTH.,#1703);
#1702=SURFACE_STYLE_USAGE(.BOTH.,#1704);
#1703=SURFACE_SIDE_STYLE('',(#1705));
#1704=SURFACE_SIDE_STYLE('',(#1706));
#1705=SURFACE_STYLE_FILL_AREA(#1707);
#1706=SURFACE_STYLE_FILL_AREA(#1708);
#1707=FILL_AREA_STYLE('Acier - Satin\X\E9',(#1709));
#1708=FILL_AREA_STYLE('Opaque(67,67,67)',(#1710));
#1709=FILL_AREA_STYLE_COLOUR('Acier - Satin\X\E9',#1711);
#1710=FILL_AREA_STYLE_COLOUR('Opaque(67,67,67)',#1712);
#1711=COLOUR_RGB('Acier - Satin\X\E9',0.627450980392157,0.627450980392157,
0.627450980392157);
#1712=COLOUR_RGB('Opaque(67,67,67)',0.262745098039216,0.262745098039216,
0.262745098039216);
ENDSEC;
END-ISO-10303-21;
