ISO-10303-21;
HEADER;
/* Generated by software containing ST-Developer
 * from STEP Tools, Inc. (www.steptools.com) 
 */

FILE_DESCRIPTION(
/* description */ (''),
/* implementation_level */ '2;1');

FILE_NAME(
/* name */ 'Header1.step',
/* time_stamp */ '2026-02-08T18:50:47+01:00',
/* author */ (''),
/* organization */ (''),
/* preprocessor_version */ 'ST-DEVELOPER v20.1',
/* originating_system */ 'Autodesk Translation Framework v14.24.0.0',
/* authorisation */ '');

FILE_SCHEMA (('AUTOMOTIVE_DESIGN { 1 0 10303 214 3 1 1 }'));
ENDSEC;

DATA;
#10=MECHANICAL_DESIGN_GEOMETRIC_PRESENTATION_REPRESENTATION('',(#36,#37),
#629);
#11=SHAPE_REPRESENTATION_RELATIONSHIP('SRR','None',#636,#12);
#12=ADVANCED_BREP_SHAPE_REPRESENTATION('',(#13),#628);
#13=MANIFOLD_SOLID_BREP('Corps1',#389);
#14=FACE_BOUND('',#60,.T.);
#15=FACE_BOUND('',#64,.T.);
#16=FACE_BOUND('',#75,.T.);
#17=PLANE('',#406);
#18=PLANE('',#407);
#19=PLANE('',#408);
#20=PLANE('',#409);
#21=PLANE('',#410);
#22=PLANE('',#411);
#23=PLANE('',#412);
#24=PLANE('',#413);
#25=PLANE('',#414);
#26=PLANE('',#415);
#27=PLANE('',#416);
#28=PLANE('',#417);
#29=PLANE('',#418);
#30=PLANE('',#419);
#31=PLANE('',#420);
#32=PLANE('',#421);
#33=PLANE('',#422);
#34=PLANE('',#423);
#35=PLANE('',#424);
#36=STYLED_ITEM('',(#647),#370);
#37=STYLED_ITEM('',(#646),#13);
#38=FACE_OUTER_BOUND('',#58,.T.);
#39=FACE_OUTER_BOUND('',#59,.T.);
#40=FACE_OUTER_BOUND('',#61,.T.);
#41=FACE_OUTER_BOUND('',#62,.T.);
#42=FACE_OUTER_BOUND('',#63,.T.);
#43=FACE_OUTER_BOUND('',#65,.T.);
#44=FACE_OUTER_BOUND('',#66,.T.);
#45=FACE_OUTER_BOUND('',#67,.T.);
#46=FACE_OUTER_BOUND('',#68,.T.);
#47=FACE_OUTER_BOUND('',#69,.T.);
#48=FACE_OUTER_BOUND('',#70,.T.);
#49=FACE_OUTER_BOUND('',#71,.T.);
#50=FACE_OUTER_BOUND('',#72,.T.);
#51=FACE_OUTER_BOUND('',#73,.T.);
#52=FACE_OUTER_BOUND('',#74,.T.);
#53=FACE_OUTER_BOUND('',#76,.T.);
#54=FACE_OUTER_BOUND('',#77,.T.);
#55=FACE_OUTER_BOUND('',#78,.T.);
#56=FACE_OUTER_BOUND('',#79,.T.);
#57=FACE_OUTER_BOUND('',#80,.T.);
#58=EDGE_LOOP('',(#266,#267,#268,#269));
#59=EDGE_LOOP('',(#270,#271,#272,#273,#274,#275,#276,#277));
#60=EDGE_LOOP('',(#278,#279,#280,#281));
#61=EDGE_LOOP('',(#282,#283,#284,#285));
#62=EDGE_LOOP('',(#286,#287,#288,#289,#290,#291,#292,#293));
#63=EDGE_LOOP('',(#294,#295,#296,#297));
#64=EDGE_LOOP('',(#298));
#65=EDGE_LOOP('',(#299,#300,#301,#302,#303,#304,#305,#306));
#66=EDGE_LOOP('',(#307,#308,#309,#310));
#67=EDGE_LOOP('',(#311,#312,#313,#314,#315,#316));
#68=EDGE_LOOP('',(#317,#318,#319,#320));
#69=EDGE_LOOP('',(#321,#322,#323,#324));
#70=EDGE_LOOP('',(#325,#326,#327,#328));
#71=EDGE_LOOP('',(#329,#330,#331,#332,#333,#334));
#72=EDGE_LOOP('',(#335,#336,#337,#338));
#73=EDGE_LOOP('',(#339,#340,#341,#342));
#74=EDGE_LOOP('',(#343,#344,#345,#346));
#75=EDGE_LOOP('',(#347,#348,#349,#350));
#76=EDGE_LOOP('',(#351,#352,#353,#354));
#77=EDGE_LOOP('',(#355,#356,#357,#358));
#78=EDGE_LOOP('',(#359,#360,#361,#362));
#79=EDGE_LOOP('',(#363));
#80=EDGE_LOOP('',(#364,#365,#366,#367));
#81=LINE('',#525,#130);
#82=LINE('',#530,#131);
#83=LINE('',#532,#132);
#84=LINE('',#534,#133);
#85=LINE('',#536,#134);
#86=LINE('',#538,#135);
#87=LINE('',#540,#136);
#88=LINE('',#542,#137);
#89=LINE('',#543,#138);
#90=LINE('',#546,#139);
#91=LINE('',#548,#140);
#92=LINE('',#550,#141);
#93=LINE('',#551,#142);
#94=LINE('',#554,#143);
#95=LINE('',#556,#144);
#96=LINE('',#557,#145);
#97=LINE('',#561,#146);
#98=LINE('',#563,#147);
#99=LINE('',#564,#148);
#100=LINE('',#566,#149);
#101=LINE('',#568,#150);
#102=LINE('',#570,#151);
#103=LINE('',#571,#152);
#104=LINE('',#574,#153);
#105=LINE('',#576,#154);
#106=LINE('',#577,#155);
#107=LINE('',#581,#156);
#108=LINE('',#583,#157);
#109=LINE('',#585,#158);
#110=LINE('',#587,#159);
#111=LINE('',#588,#160);
#112=LINE('',#590,#161);
#113=LINE('',#591,#162);
#114=LINE('',#595,#163);
#115=LINE('',#596,#164);
#116=LINE('',#597,#165);
#117=LINE('',#599,#166);
#118=LINE('',#600,#167);
#119=LINE('',#601,#168);
#120=LINE('',#605,#169);
#121=LINE('',#607,#170);
#122=LINE('',#608,#171);
#123=LINE('',#612,#172);
#124=LINE('',#613,#173);
#125=LINE('',#615,#174);
#126=LINE('',#616,#175);
#127=LINE('',#618,#176);
#128=LINE('',#619,#177);
#129=LINE('',#621,#178);
#130=VECTOR('',#431,0.397678121110506);
#131=VECTOR('',#436,1000.);
#132=VECTOR('',#437,1000.);
#133=VECTOR('',#438,1000.);
#134=VECTOR('',#439,1000.);
#135=VECTOR('',#440,1000.);
#136=VECTOR('',#441,1000.);
#137=VECTOR('',#442,1000.);
#138=VECTOR('',#443,1000.);
#139=VECTOR('',#444,1000.);
#140=VECTOR('',#445,1000.);
#141=VECTOR('',#446,1000.);
#142=VECTOR('',#447,1000.);
#143=VECTOR('',#450,1000.);
#144=VECTOR('',#451,1000.);
#145=VECTOR('',#452,1000.);
#146=VECTOR('',#455,1000.);
#147=VECTOR('',#456,1000.);
#148=VECTOR('',#457,1000.);
#149=VECTOR('',#458,1000.);
#150=VECTOR('',#459,1000.);
#151=VECTOR('',#460,1000.);
#152=VECTOR('',#461,1000.);
#153=VECTOR('',#464,1000.);
#154=VECTOR('',#465,1000.);
#155=VECTOR('',#466,1000.);
#156=VECTOR('',#469,1000.);
#157=VECTOR('',#470,1000.);
#158=VECTOR('',#471,1000.);
#159=VECTOR('',#472,1000.);
#160=VECTOR('',#473,1000.);
#161=VECTOR('',#474,1000.);
#162=VECTOR('',#475,1000.);
#163=VECTOR('',#478,1000.);
#164=VECTOR('',#479,1000.);
#165=VECTOR('',#480,1000.);
#166=VECTOR('',#483,1000.);
#167=VECTOR('',#484,1000.);
#168=VECTOR('',#485,1000.);
#169=VECTOR('',#492,1000.);
#170=VECTOR('',#495,1000.);
#171=VECTOR('',#496,1000.);
#172=VECTOR('',#501,1000.);
#173=VECTOR('',#502,1000.);
#174=VECTOR('',#505,1000.);
#175=VECTOR('',#506,1000.);
#176=VECTOR('',#507,1000.);
#177=VECTOR('',#508,1000.);
#178=VECTOR('',#511,1000.);
#179=CIRCLE('',#404,0.347678121179901);
#180=CIRCLE('',#405,0.397678121110506);
#181=VERTEX_POINT('',#522);
#182=VERTEX_POINT('',#524);
#183=VERTEX_POINT('',#528);
#184=VERTEX_POINT('',#529);
#185=VERTEX_POINT('',#531);
#186=VERTEX_POINT('',#533);
#187=VERTEX_POINT('',#535);
#188=VERTEX_POINT('',#537);
#189=VERTEX_POINT('',#539);
#190=VERTEX_POINT('',#541);
#191=VERTEX_POINT('',#544);
#192=VERTEX_POINT('',#545);
#193=VERTEX_POINT('',#547);
#194=VERTEX_POINT('',#549);
#195=VERTEX_POINT('',#553);
#196=VERTEX_POINT('',#555);
#197=VERTEX_POINT('',#559);
#198=VERTEX_POINT('',#560);
#199=VERTEX_POINT('',#562);
#200=VERTEX_POINT('',#565);
#201=VERTEX_POINT('',#567);
#202=VERTEX_POINT('',#569);
#203=VERTEX_POINT('',#573);
#204=VERTEX_POINT('',#575);
#205=VERTEX_POINT('',#579);
#206=VERTEX_POINT('',#580);
#207=VERTEX_POINT('',#582);
#208=VERTEX_POINT('',#584);
#209=VERTEX_POINT('',#586);
#210=VERTEX_POINT('',#589);
#211=VERTEX_POINT('',#593);
#212=VERTEX_POINT('',#594);
#213=VERTEX_POINT('',#611);
#214=VERTEX_POINT('',#617);
#215=EDGE_CURVE('',#181,#181,#179,.T.);
#216=EDGE_CURVE('',#181,#182,#81,.T.);
#217=EDGE_CURVE('',#182,#182,#180,.T.);
#218=EDGE_CURVE('',#183,#184,#82,.T.);
#219=EDGE_CURVE('',#185,#184,#83,.T.);
#220=EDGE_CURVE('',#185,#186,#84,.T.);
#221=EDGE_CURVE('',#187,#186,#85,.T.);
#222=EDGE_CURVE('',#187,#188,#86,.T.);
#223=EDGE_CURVE('',#189,#188,#87,.T.);
#224=EDGE_CURVE('',#189,#190,#88,.T.);
#225=EDGE_CURVE('',#183,#190,#89,.T.);
#226=EDGE_CURVE('',#191,#192,#90,.T.);
#227=EDGE_CURVE('',#192,#193,#91,.T.);
#228=EDGE_CURVE('',#193,#194,#92,.T.);
#229=EDGE_CURVE('',#191,#194,#93,.T.);
#230=EDGE_CURVE('',#183,#195,#94,.T.);
#231=EDGE_CURVE('',#196,#190,#95,.T.);
#232=EDGE_CURVE('',#195,#196,#96,.T.);
#233=EDGE_CURVE('',#197,#198,#97,.T.);
#234=EDGE_CURVE('',#199,#198,#98,.T.);
#235=EDGE_CURVE('',#185,#199,#99,.T.);
#236=EDGE_CURVE('',#200,#184,#100,.T.);
#237=EDGE_CURVE('',#201,#200,#101,.T.);
#238=EDGE_CURVE('',#201,#202,#102,.T.);
#239=EDGE_CURVE('',#202,#197,#103,.T.);
#240=EDGE_CURVE('',#187,#203,#104,.T.);
#241=EDGE_CURVE('',#204,#186,#105,.T.);
#242=EDGE_CURVE('',#203,#204,#106,.T.);
#243=EDGE_CURVE('',#205,#206,#107,.T.);
#244=EDGE_CURVE('',#206,#207,#108,.T.);
#245=EDGE_CURVE('',#207,#208,#109,.T.);
#246=EDGE_CURVE('',#209,#208,#110,.T.);
#247=EDGE_CURVE('',#189,#209,#111,.T.);
#248=EDGE_CURVE('',#210,#188,#112,.T.);
#249=EDGE_CURVE('',#205,#210,#113,.T.);
#250=EDGE_CURVE('',#211,#212,#114,.T.);
#251=EDGE_CURVE('',#191,#211,#115,.T.);
#252=EDGE_CURVE('',#212,#194,#116,.T.);
#253=EDGE_CURVE('',#196,#209,#117,.T.);
#254=EDGE_CURVE('',#208,#201,#118,.T.);
#255=EDGE_CURVE('',#200,#195,#119,.T.);
#256=EDGE_CURVE('',#204,#199,#120,.T.);
#257=EDGE_CURVE('',#198,#205,#121,.T.);
#258=EDGE_CURVE('',#210,#203,#122,.T.);
#259=EDGE_CURVE('',#212,#213,#123,.T.);
#260=EDGE_CURVE('',#213,#193,#124,.T.);
#261=EDGE_CURVE('',#207,#202,#125,.T.);
#262=EDGE_CURVE('',#197,#206,#126,.T.);
#263=EDGE_CURVE('',#214,#213,#127,.T.);
#264=EDGE_CURVE('',#211,#214,#128,.T.);
#265=EDGE_CURVE('',#192,#214,#129,.T.);
#266=ORIENTED_EDGE('',*,*,#215,.F.);
#267=ORIENTED_EDGE('',*,*,#216,.T.);
#268=ORIENTED_EDGE('',*,*,#217,.T.);
#269=ORIENTED_EDGE('',*,*,#216,.F.);
#270=ORIENTED_EDGE('',*,*,#218,.T.);
#271=ORIENTED_EDGE('',*,*,#219,.F.);
#272=ORIENTED_EDGE('',*,*,#220,.T.);
#273=ORIENTED_EDGE('',*,*,#221,.F.);
#274=ORIENTED_EDGE('',*,*,#222,.T.);
#275=ORIENTED_EDGE('',*,*,#223,.F.);
#276=ORIENTED_EDGE('',*,*,#224,.T.);
#277=ORIENTED_EDGE('',*,*,#225,.F.);
#278=ORIENTED_EDGE('',*,*,#226,.T.);
#279=ORIENTED_EDGE('',*,*,#227,.T.);
#280=ORIENTED_EDGE('',*,*,#228,.T.);
#281=ORIENTED_EDGE('',*,*,#229,.F.);
#282=ORIENTED_EDGE('',*,*,#230,.F.);
#283=ORIENTED_EDGE('',*,*,#225,.T.);
#284=ORIENTED_EDGE('',*,*,#231,.F.);
#285=ORIENTED_EDGE('',*,*,#232,.F.);
#286=ORIENTED_EDGE('',*,*,#233,.T.);
#287=ORIENTED_EDGE('',*,*,#234,.F.);
#288=ORIENTED_EDGE('',*,*,#235,.F.);
#289=ORIENTED_EDGE('',*,*,#219,.T.);
#290=ORIENTED_EDGE('',*,*,#236,.F.);
#291=ORIENTED_EDGE('',*,*,#237,.F.);
#292=ORIENTED_EDGE('',*,*,#238,.T.);
#293=ORIENTED_EDGE('',*,*,#239,.T.);
#294=ORIENTED_EDGE('',*,*,#240,.F.);
#295=ORIENTED_EDGE('',*,*,#221,.T.);
#296=ORIENTED_EDGE('',*,*,#241,.F.);
#297=ORIENTED_EDGE('',*,*,#242,.F.);
#298=ORIENTED_EDGE('',*,*,#217,.F.);
#299=ORIENTED_EDGE('',*,*,#243,.T.);
#300=ORIENTED_EDGE('',*,*,#244,.T.);
#301=ORIENTED_EDGE('',*,*,#245,.T.);
#302=ORIENTED_EDGE('',*,*,#246,.F.);
#303=ORIENTED_EDGE('',*,*,#247,.F.);
#304=ORIENTED_EDGE('',*,*,#223,.T.);
#305=ORIENTED_EDGE('',*,*,#248,.F.);
#306=ORIENTED_EDGE('',*,*,#249,.F.);
#307=ORIENTED_EDGE('',*,*,#250,.F.);
#308=ORIENTED_EDGE('',*,*,#251,.F.);
#309=ORIENTED_EDGE('',*,*,#229,.T.);
#310=ORIENTED_EDGE('',*,*,#252,.F.);
#311=ORIENTED_EDGE('',*,*,#253,.T.);
#312=ORIENTED_EDGE('',*,*,#246,.T.);
#313=ORIENTED_EDGE('',*,*,#254,.T.);
#314=ORIENTED_EDGE('',*,*,#237,.T.);
#315=ORIENTED_EDGE('',*,*,#255,.T.);
#316=ORIENTED_EDGE('',*,*,#232,.T.);
#317=ORIENTED_EDGE('',*,*,#230,.T.);
#318=ORIENTED_EDGE('',*,*,#255,.F.);
#319=ORIENTED_EDGE('',*,*,#236,.T.);
#320=ORIENTED_EDGE('',*,*,#218,.F.);
#321=ORIENTED_EDGE('',*,*,#247,.T.);
#322=ORIENTED_EDGE('',*,*,#253,.F.);
#323=ORIENTED_EDGE('',*,*,#231,.T.);
#324=ORIENTED_EDGE('',*,*,#224,.F.);
#325=ORIENTED_EDGE('',*,*,#235,.T.);
#326=ORIENTED_EDGE('',*,*,#256,.F.);
#327=ORIENTED_EDGE('',*,*,#241,.T.);
#328=ORIENTED_EDGE('',*,*,#220,.F.);
#329=ORIENTED_EDGE('',*,*,#256,.T.);
#330=ORIENTED_EDGE('',*,*,#234,.T.);
#331=ORIENTED_EDGE('',*,*,#257,.T.);
#332=ORIENTED_EDGE('',*,*,#249,.T.);
#333=ORIENTED_EDGE('',*,*,#258,.T.);
#334=ORIENTED_EDGE('',*,*,#242,.T.);
#335=ORIENTED_EDGE('',*,*,#240,.T.);
#336=ORIENTED_EDGE('',*,*,#258,.F.);
#337=ORIENTED_EDGE('',*,*,#248,.T.);
#338=ORIENTED_EDGE('',*,*,#222,.F.);
#339=ORIENTED_EDGE('',*,*,#259,.F.);
#340=ORIENTED_EDGE('',*,*,#252,.T.);
#341=ORIENTED_EDGE('',*,*,#228,.F.);
#342=ORIENTED_EDGE('',*,*,#260,.F.);
#343=ORIENTED_EDGE('',*,*,#261,.F.);
#344=ORIENTED_EDGE('',*,*,#244,.F.);
#345=ORIENTED_EDGE('',*,*,#262,.F.);
#346=ORIENTED_EDGE('',*,*,#239,.F.);
#347=ORIENTED_EDGE('',*,*,#259,.T.);
#348=ORIENTED_EDGE('',*,*,#263,.F.);
#349=ORIENTED_EDGE('',*,*,#264,.F.);
#350=ORIENTED_EDGE('',*,*,#250,.T.);
#351=ORIENTED_EDGE('',*,*,#264,.T.);
#352=ORIENTED_EDGE('',*,*,#265,.F.);
#353=ORIENTED_EDGE('',*,*,#226,.F.);
#354=ORIENTED_EDGE('',*,*,#251,.T.);
#355=ORIENTED_EDGE('',*,*,#254,.F.);
#356=ORIENTED_EDGE('',*,*,#245,.F.);
#357=ORIENTED_EDGE('',*,*,#261,.T.);
#358=ORIENTED_EDGE('',*,*,#238,.F.);
#359=ORIENTED_EDGE('',*,*,#262,.T.);
#360=ORIENTED_EDGE('',*,*,#243,.F.);
#361=ORIENTED_EDGE('',*,*,#257,.F.);
#362=ORIENTED_EDGE('',*,*,#233,.F.);
#363=ORIENTED_EDGE('',*,*,#215,.T.);
#364=ORIENTED_EDGE('',*,*,#263,.T.);
#365=ORIENTED_EDGE('',*,*,#260,.T.);
#366=ORIENTED_EDGE('',*,*,#227,.F.);
#367=ORIENTED_EDGE('',*,*,#265,.T.);
#368=CONICAL_SURFACE('',#403,0.397678121110506,0.785398163397448);
#369=ADVANCED_FACE('',(#38),#368,.F.);
#370=ADVANCED_FACE('',(#39,#14),#17,.F.);
#371=ADVANCED_FACE('',(#40),#18,.F.);
#372=ADVANCED_FACE('',(#41),#19,.F.);
#373=ADVANCED_FACE('',(#42,#15),#20,.F.);
#374=ADVANCED_FACE('',(#43),#21,.F.);
#375=ADVANCED_FACE('',(#44),#22,.F.);
#376=ADVANCED_FACE('',(#45),#23,.T.);
#377=ADVANCED_FACE('',(#46),#24,.F.);
#378=ADVANCED_FACE('',(#47),#25,.F.);
#379=ADVANCED_FACE('',(#48),#26,.F.);
#380=ADVANCED_FACE('',(#49),#27,.T.);
#381=ADVANCED_FACE('',(#50),#28,.F.);
#382=ADVANCED_FACE('',(#51),#29,.F.);
#383=ADVANCED_FACE('',(#52,#16),#30,.F.);
#384=ADVANCED_FACE('',(#53),#31,.F.);
#385=ADVANCED_FACE('',(#54),#32,.F.);
#386=ADVANCED_FACE('',(#55),#33,.F.);
#387=ADVANCED_FACE('',(#56),#34,.T.);
#388=ADVANCED_FACE('',(#57),#35,.F.);
#389=CLOSED_SHELL('',(#369,#370,#371,#372,#373,#374,#375,#376,#377,#378,
#379,#380,#381,#382,#383,#384,#385,#386,#387,#388));
#390=DERIVED_UNIT_ELEMENT(#392,1.);
#391=DERIVED_UNIT_ELEMENT(#631,-3.);
#392=(
MASS_UNIT()
NAMED_UNIT(*)
SI_UNIT(.KILO.,.GRAM.)
);
#393=DERIVED_UNIT((#390,#391));
#394=MEASURE_REPRESENTATION_ITEM('density measure',
POSITIVE_RATIO_MEASURE(7850.),#393);
#395=PROPERTY_DEFINITION_REPRESENTATION(#400,#397);
#396=PROPERTY_DEFINITION_REPRESENTATION(#401,#398);
#397=REPRESENTATION('material name',(#399),#628);
#398=REPRESENTATION('density',(#394),#628);
#399=DESCRIPTIVE_REPRESENTATION_ITEM('Acier','Acier');
#400=PROPERTY_DEFINITION('material property','material name',#638);
#401=PROPERTY_DEFINITION('material property','density of part',#638);
#402=AXIS2_PLACEMENT_3D('',#520,#425,#426);
#403=AXIS2_PLACEMENT_3D('',#521,#427,#428);
#404=AXIS2_PLACEMENT_3D('',#523,#429,#430);
#405=AXIS2_PLACEMENT_3D('',#526,#432,#433);
#406=AXIS2_PLACEMENT_3D('',#527,#434,#435);
#407=AXIS2_PLACEMENT_3D('',#552,#448,#449);
#408=AXIS2_PLACEMENT_3D('',#558,#453,#454);
#409=AXIS2_PLACEMENT_3D('',#572,#462,#463);
#410=AXIS2_PLACEMENT_3D('',#578,#467,#468);
#411=AXIS2_PLACEMENT_3D('',#592,#476,#477);
#412=AXIS2_PLACEMENT_3D('',#598,#481,#482);
#413=AXIS2_PLACEMENT_3D('',#602,#486,#487);
#414=AXIS2_PLACEMENT_3D('',#603,#488,#489);
#415=AXIS2_PLACEMENT_3D('',#604,#490,#491);
#416=AXIS2_PLACEMENT_3D('',#606,#493,#494);
#417=AXIS2_PLACEMENT_3D('',#609,#497,#498);
#418=AXIS2_PLACEMENT_3D('',#610,#499,#500);
#419=AXIS2_PLACEMENT_3D('',#614,#503,#504);
#420=AXIS2_PLACEMENT_3D('',#620,#509,#510);
#421=AXIS2_PLACEMENT_3D('',#622,#512,#513);
#422=AXIS2_PLACEMENT_3D('',#623,#514,#515);
#423=AXIS2_PLACEMENT_3D('',#624,#516,#517);
#424=AXIS2_PLACEMENT_3D('',#625,#518,#519);
#425=DIRECTION('axis',(0.,0.,1.));
#426=DIRECTION('refdir',(1.,0.,0.));
#427=DIRECTION('center_axis',(0.,0.,1.));
#428=DIRECTION('ref_axis',(1.,0.,0.));
#429=DIRECTION('center_axis',(0.,0.,1.));
#430=DIRECTION('ref_axis',(1.,0.,0.));
#431=DIRECTION('',(-0.707106781186547,-8.65956056235493E-17,0.707106781186547));
#432=DIRECTION('center_axis',(0.,0.,1.));
#433=DIRECTION('ref_axis',(1.,0.,0.));
#434=DIRECTION('center_axis',(0.,-1.,0.));
#435=DIRECTION('ref_axis',(0.,0.,-1.));
#436=DIRECTION('',(-0.707106781186549,0.,0.707106781186546));
#437=DIRECTION('',(0.,0.,-1.));
#438=DIRECTION('',(0.707106781186546,0.,0.707106781186549));
#439=DIRECTION('',(-1.,0.,0.));
#440=DIRECTION('',(0.707106781186549,0.,-0.707106781186546));
#441=DIRECTION('',(0.,0.,1.));
#442=DIRECTION('',(-0.707106781186546,0.,-0.707106781186549));
#443=DIRECTION('',(1.,0.,0.));
#444=DIRECTION('',(0.,0.,-1.));
#445=DIRECTION('',(1.,0.,-1.80700362080917E-16));
#446=DIRECTION('',(9.03501810404587E-17,0.,1.));
#447=DIRECTION('',(1.,0.,0.));
#448=DIRECTION('center_axis',(1.70740499604016E-16,0.,1.));
#449=DIRECTION('ref_axis',(1.,0.,-1.70740499604016E-16));
#450=DIRECTION('',(0.,-1.,0.));
#451=DIRECTION('',(0.,1.,0.));
#452=DIRECTION('',(1.,0.,-1.70740499604016E-16));
#453=DIRECTION('center_axis',(1.,0.,0.));
#454=DIRECTION('ref_axis',(0.,0.,-1.));
#455=DIRECTION('',(0.,-1.,0.));
#456=DIRECTION('',(0.,0.,-1.));
#457=DIRECTION('',(0.,-1.,0.));
#458=DIRECTION('',(0.,1.,0.));
#459=DIRECTION('',(0.,0.,-1.));
#460=DIRECTION('',(0.,1.,0.));
#461=DIRECTION('',(0.,1.44560289664734E-16,1.));
#462=DIRECTION('center_axis',(-1.70740499604016E-16,0.,-1.));
#463=DIRECTION('ref_axis',(-1.,0.,1.70740499604016E-16));
#464=DIRECTION('',(0.,-1.,0.));
#465=DIRECTION('',(0.,1.,0.));
#466=DIRECTION('',(-1.,0.,1.70740499604016E-16));
#467=DIRECTION('center_axis',(-1.,0.,0.));
#468=DIRECTION('ref_axis',(0.,0.,1.));
#469=DIRECTION('',(0.,1.,0.));
#470=DIRECTION('',(0.,-1.44560289664734E-16,-1.));
#471=DIRECTION('',(0.,-1.,0.));
#472=DIRECTION('',(0.,0.,1.));
#473=DIRECTION('',(0.,-1.,0.));
#474=DIRECTION('',(0.,1.,0.));
#475=DIRECTION('',(0.,0.,1.));
#476=DIRECTION('center_axis',(1.80700362080917E-16,0.,1.));
#477=DIRECTION('ref_axis',(1.,0.,-1.80700362080917E-16));
#478=DIRECTION('',(1.,0.,-1.80700362080917E-16));
#479=DIRECTION('',(0.,-1.,0.));
#480=DIRECTION('',(0.,1.,0.));
#481=DIRECTION('center_axis',(0.,-1.,0.));
#482=DIRECTION('ref_axis',(0.,0.,-1.));
#483=DIRECTION('',(0.707106781186546,0.,0.707106781186549));
#484=DIRECTION('',(-1.,0.,0.));
#485=DIRECTION('',(0.707106781186549,0.,-0.707106781186546));
#486=DIRECTION('center_axis',(0.707106781186546,0.,0.707106781186549));
#487=DIRECTION('ref_axis',(0.707106781186549,0.,-0.707106781186546));
#488=DIRECTION('center_axis',(-0.707106781186549,0.,0.707106781186546));
#489=DIRECTION('ref_axis',(0.707106781186546,0.,0.707106781186549));
#490=DIRECTION('center_axis',(0.707106781186549,0.,-0.707106781186546));
#491=DIRECTION('ref_axis',(-0.707106781186546,0.,-0.707106781186549));
#492=DIRECTION('',(-0.707106781186546,0.,-0.707106781186549));
#493=DIRECTION('center_axis',(0.,-1.,0.));
#494=DIRECTION('ref_axis',(0.,0.,-1.));
#495=DIRECTION('',(1.,0.,0.));
#496=DIRECTION('',(-0.707106781186549,0.,0.707106781186546));
#497=DIRECTION('center_axis',(-0.707106781186546,0.,-0.707106781186549));
#498=DIRECTION('ref_axis',(-0.707106781186549,0.,0.707106781186546));
#499=DIRECTION('center_axis',(1.,0.,-9.03501810404587E-17));
#500=DIRECTION('ref_axis',(-9.03501810404587E-17,0.,-1.));
#501=DIRECTION('',(-9.03501810404587E-17,0.,-1.));
#502=DIRECTION('',(0.,1.,0.));
#503=DIRECTION('center_axis',(0.,1.,-1.44560289664734E-16));
#504=DIRECTION('ref_axis',(0.,1.44560289664734E-16,1.));
#505=DIRECTION('',(-1.,0.,0.));
#506=DIRECTION('',(1.,0.,0.));
#507=DIRECTION('',(1.,0.,0.));
#508=DIRECTION('',(0.,-1.44560289664734E-16,-1.));
#509=DIRECTION('center_axis',(-1.,0.,0.));
#510=DIRECTION('ref_axis',(0.,0.,1.));
#511=DIRECTION('',(0.,-1.,0.));
#512=DIRECTION('center_axis',(0.,0.,-1.));
#513=DIRECTION('ref_axis',(-1.,0.,0.));
#514=DIRECTION('center_axis',(0.,0.,1.));
#515=DIRECTION('ref_axis',(1.,0.,0.));
#516=DIRECTION('center_axis',(0.,0.,1.));
#517=DIRECTION('ref_axis',(1.,0.,0.));
#518=DIRECTION('center_axis',(-1.80700362080917E-16,0.,-1.));
#519=DIRECTION('ref_axis',(-1.,0.,1.80700362080917E-16));
#520=CARTESIAN_POINT('',(0.,0.,0.));
#521=CARTESIAN_POINT('Origin',(-0.0353908297580476,1.60874079911275,1.26999999997679));
#522=CARTESIAN_POINT('',(-0.383068950937949,1.60874079911275,1.22000000004618));
#523=CARTESIAN_POINT('Origin',(-0.0353908297580476,1.60874079911275,1.22000000004618));
#524=CARTESIAN_POINT('',(-0.433068950868554,1.60874079911275,1.26999999997679));
#525=CARTESIAN_POINT('',(-0.433068950868554,1.60874079911275,1.26999999997679));
#526=CARTESIAN_POINT('Origin',(-0.0353908297580476,1.60874079911275,1.26999999997679));
#527=CARTESIAN_POINT('Origin',(0.,2.54,0.));
#528=CARTESIAN_POINT('',(-0.97,2.54,-1.27000000000001));
#529=CARTESIAN_POINT('',(-1.27,2.54,-0.970000000000007));
#530=CARTESIAN_POINT('',(-1.27,2.54,-0.970000000000007));
#531=CARTESIAN_POINT('',(-1.27,2.54,0.969999999999993));
#532=CARTESIAN_POINT('',(-1.27,2.54,0.));
#533=CARTESIAN_POINT('',(-0.970000000000001,2.54,1.26999999999999));
#534=CARTESIAN_POINT('',(-0.970000000000001,2.54,1.26999999999999));
#535=CARTESIAN_POINT('',(0.969999999999999,2.54,1.26999999999999));
#536=CARTESIAN_POINT('',(0.,2.54,1.26999999999999));
#537=CARTESIAN_POINT('',(1.27,2.54,0.969999999999994));
#538=CARTESIAN_POINT('',(1.27,2.54,0.969999999999994));
#539=CARTESIAN_POINT('',(1.27,2.54,-0.970000000000006));
#540=CARTESIAN_POINT('',(1.27,2.54,0.));
#541=CARTESIAN_POINT('',(0.970000000000001,2.54,-1.27000000000001));
#542=CARTESIAN_POINT('',(0.970000000000001,2.54,-1.27000000000001));
#543=CARTESIAN_POINT('',(0.,2.54,-1.27000000000001));
#544=CARTESIAN_POINT('',(-0.3,2.54,0.3));
#545=CARTESIAN_POINT('',(-0.3,2.54,-0.3));
#546=CARTESIAN_POINT('',(-0.3,2.54,-0.3));
#547=CARTESIAN_POINT('',(0.3,2.54,-0.3));
#548=CARTESIAN_POINT('',(0.3,2.54,-0.3));
#549=CARTESIAN_POINT('',(0.3,2.54,0.3));
#550=CARTESIAN_POINT('',(0.3,2.54,-0.3));
#551=CARTESIAN_POINT('',(0.,2.54,0.3));
#552=CARTESIAN_POINT('Origin',(1.27,2.54,-1.27000000000001));
#553=CARTESIAN_POINT('',(-0.97,0.,-1.27000000000001));
#554=CARTESIAN_POINT('',(-0.97,2.54,-1.27000000000001));
#555=CARTESIAN_POINT('',(0.970000000000001,-3.25260651745651E-16,-1.27000000000001));
#556=CARTESIAN_POINT('',(0.970000000000001,2.54,-1.27000000000001));
#557=CARTESIAN_POINT('',(1.27,0.,-1.27000000000001));
#558=CARTESIAN_POINT('Origin',(-1.27,2.54,-1.27000000000001));
#559=CARTESIAN_POINT('',(-1.27,0.3,0.781540300205871));
#560=CARTESIAN_POINT('',(-1.27,0.,0.781540300205871));
#561=CARTESIAN_POINT('',(-1.27,0.,0.781540300205871));
#562=CARTESIAN_POINT('',(-1.27,0.,0.969999999999993));
#563=CARTESIAN_POINT('',(-1.27,0.,0.));
#564=CARTESIAN_POINT('',(-1.27,2.54,0.969999999999993));
#565=CARTESIAN_POINT('',(-1.27,0.,-0.970000000000007));
#566=CARTESIAN_POINT('',(-1.27,2.54,-0.970000000000007));
#567=CARTESIAN_POINT('',(-1.27,0.,-0.718459699794129));
#568=CARTESIAN_POINT('',(-1.27,0.,-1.27000000000001));
#569=CARTESIAN_POINT('',(-1.27,0.3,-0.718459699794129));
#570=CARTESIAN_POINT('',(-1.27,0.,-0.718459699794129));
#571=CARTESIAN_POINT('',(-1.27,0.3,0.781540300205871));
#572=CARTESIAN_POINT('Origin',(1.27,2.54,1.26999999999999));
#573=CARTESIAN_POINT('',(0.969999999999999,0.,1.26999999999999));
#574=CARTESIAN_POINT('',(0.969999999999999,2.54,1.26999999999999));
#575=CARTESIAN_POINT('',(-0.970000000000001,0.,1.26999999999999));
#576=CARTESIAN_POINT('',(-0.970000000000001,2.54,1.26999999999999));
#577=CARTESIAN_POINT('',(1.27,0.,1.26999999999999));
#578=CARTESIAN_POINT('Origin',(1.27,2.54,-1.27000000000001));
#579=CARTESIAN_POINT('',(1.27,0.,0.781540300205871));
#580=CARTESIAN_POINT('',(1.27,0.3,0.781540300205871));
#581=CARTESIAN_POINT('',(1.27,0.,0.781540300205871));
#582=CARTESIAN_POINT('',(1.27,0.3,-0.718459699794129));
#583=CARTESIAN_POINT('',(1.27,0.3,0.781540300205871));
#584=CARTESIAN_POINT('',(1.27,0.,-0.718459699794129));
#585=CARTESIAN_POINT('',(1.27,0.,-0.718459699794129));
#586=CARTESIAN_POINT('',(1.27,-6.50521303491303E-16,-0.970000000000006));
#587=CARTESIAN_POINT('',(1.27,0.,-1.27000000000001));
#588=CARTESIAN_POINT('',(1.27,2.54,-0.970000000000006));
#589=CARTESIAN_POINT('',(1.27,0.,0.969999999999994));
#590=CARTESIAN_POINT('',(1.27,2.54,0.969999999999994));
#591=CARTESIAN_POINT('',(1.27,0.,-1.27000000000001));
#592=CARTESIAN_POINT('Origin',(0.3,0.,0.3));
#593=CARTESIAN_POINT('',(-0.3,0.3,0.3));
#594=CARTESIAN_POINT('',(0.3,0.3,0.3));
#595=CARTESIAN_POINT('',(0.3,0.3,0.3));
#596=CARTESIAN_POINT('',(-0.3,0.,0.3));
#597=CARTESIAN_POINT('',(0.3,0.,0.3));
#598=CARTESIAN_POINT('Origin',(0.,0.,0.));
#599=CARTESIAN_POINT('',(0.970000000000001,0.,-1.27000000000001));
#600=CARTESIAN_POINT('',(0.,0.,-0.718459699794129));
#601=CARTESIAN_POINT('',(-1.27,0.,-0.970000000000007));
#602=CARTESIAN_POINT('Origin',(-1.27,2.54,-0.970000000000007));
#603=CARTESIAN_POINT('Origin',(0.970000000000001,2.54,-1.27000000000001));
#604=CARTESIAN_POINT('Origin',(-0.970000000000001,2.54,1.26999999999999));
#605=CARTESIAN_POINT('',(-0.970000000000001,0.,1.26999999999999));
#606=CARTESIAN_POINT('Origin',(0.,0.,0.));
#607=CARTESIAN_POINT('',(0.,0.,0.781540300205871));
#608=CARTESIAN_POINT('',(1.27,0.,0.969999999999994));
#609=CARTESIAN_POINT('Origin',(1.27,2.54,0.969999999999994));
#610=CARTESIAN_POINT('Origin',(0.3,0.,-0.3));
#611=CARTESIAN_POINT('',(0.3,0.3,-0.3));
#612=CARTESIAN_POINT('',(0.3,0.3,-0.3));
#613=CARTESIAN_POINT('',(0.3,0.,-0.3));
#614=CARTESIAN_POINT('Origin',(1.27,0.3,0.781540300205871));
#615=CARTESIAN_POINT('',(1.27,0.3,-0.718459699794129));
#616=CARTESIAN_POINT('',(1.27,0.3,0.781540300205871));
#617=CARTESIAN_POINT('',(-0.3,0.3,-0.3));
#618=CARTESIAN_POINT('',(1.27,0.3,-0.3));
#619=CARTESIAN_POINT('',(-0.3,0.3,0.781540300205871));
#620=CARTESIAN_POINT('Origin',(-0.3,0.,-0.3));
#621=CARTESIAN_POINT('',(-0.3,0.,-0.3));
#622=CARTESIAN_POINT('Origin',(1.27,0.,-0.718459699794129));
#623=CARTESIAN_POINT('Origin',(1.27,0.,0.781540300205871));
#624=CARTESIAN_POINT('Origin',(-0.0353908297580476,1.60874079911275,1.21999999999999));
#625=CARTESIAN_POINT('Origin',(0.3,0.,-0.3));
#626=UNCERTAINTY_MEASURE_WITH_UNIT(LENGTH_MEASURE(0.01),#630,
'DISTANCE_ACCURACY_VALUE',
'Maximum model space distance between geometric entities at asserted c
onnectivities');
#627=UNCERTAINTY_MEASURE_WITH_UNIT(LENGTH_MEASURE(0.01),#630,
'DISTANCE_ACCURACY_VALUE',
'Maximum model space distance between geometric entities at asserted c
onnectivities');
#628=(
GEOMETRIC_REPRESENTATION_CONTEXT(3)
GLOBAL_UNCERTAINTY_ASSIGNED_CONTEXT((#626))
GLOBAL_UNIT_ASSIGNED_CONTEXT((#630,#632,#633))
REPRESENTATION_CONTEXT('','3D')
);
#629=(
GEOMETRIC_REPRESENTATION_CONTEXT(3)
GLOBAL_UNCERTAINTY_ASSIGNED_CONTEXT((#627))
GLOBAL_UNIT_ASSIGNED_CONTEXT((#630,#632,#633))
REPRESENTATION_CONTEXT('','3D')
);
#630=(
LENGTH_UNIT()
NAMED_UNIT(*)
SI_UNIT(.MILLI.,.METRE.)
);
#631=(
LENGTH_UNIT()
NAMED_UNIT(*)
SI_UNIT($,.METRE.)
);
#632=(
NAMED_UNIT(*)
PLANE_ANGLE_UNIT()
SI_UNIT($,.RADIAN.)
);
#633=(
NAMED_UNIT(*)
SI_UNIT($,.STERADIAN.)
SOLID_ANGLE_UNIT()
);
#634=SHAPE_DEFINITION_REPRESENTATION(#635,#636);
#635=PRODUCT_DEFINITION_SHAPE('',$,#638);
#636=SHAPE_REPRESENTATION('',(#402),#628);
#637=PRODUCT_DEFINITION_CONTEXT('part definition',#642,'design');
#638=PRODUCT_DEFINITION('Header1','Header1',#639,#637);
#639=PRODUCT_DEFINITION_FORMATION('',$,#644);
#640=PRODUCT_RELATED_PRODUCT_CATEGORY('Header1','Header1',(#644));
#641=APPLICATION_PROTOCOL_DEFINITION('international standard',
'automotive_design',2009,#642);
#642=APPLICATION_CONTEXT(
'Core Data for Automotive Mechanical Design Process');
#643=PRODUCT_CONTEXT('part definition',#642,'mechanical');
#644=PRODUCT('Header1','Header1',$,(#643));
#645=PRESENTATION_STYLE_ASSIGNMENT((#648));
#646=PRESENTATION_STYLE_ASSIGNMENT((#649));
#647=PRESENTATION_STYLE_ASSIGNMENT((#650));
#648=SURFACE_STYLE_USAGE(.BOTH.,#651);
#649=SURFACE_STYLE_USAGE(.BOTH.,#652);
#650=SURFACE_STYLE_USAGE(.BOTH.,#653);
#651=SURFACE_SIDE_STYLE('',(#654));
#652=SURFACE_SIDE_STYLE('',(#655));
#653=SURFACE_SIDE_STYLE('',(#656));
#654=SURFACE_STYLE_FILL_AREA(#657);
#655=SURFACE_STYLE_FILL_AREA(#658);
#656=SURFACE_STYLE_FILL_AREA(#659);
#657=FILL_AREA_STYLE('Acier - Satin\X\E9',(#660));
#658=FILL_AREA_STYLE('Opaque(177,24,24)',(#661));
#659=FILL_AREA_STYLE('Opaque(177,25,25)',(#662));
#660=FILL_AREA_STYLE_COLOUR('Acier - Satin\X\E9',#663);
#661=FILL_AREA_STYLE_COLOUR('Opaque(177,24,24)',#664);
#662=FILL_AREA_STYLE_COLOUR('Opaque(177,25,25)',#665);
#663=COLOUR_RGB('Acier - Satin\X\E9',0.627450980392157,0.627450980392157,
0.627450980392157);
#664=COLOUR_RGB('Opaque(177,24,24)',0.694117647058824,0.0941176470588235,
0.0941176470588235);
#665=COLOUR_RGB('Opaque(177,25,25)',0.694117647058824,0.0980392156862745,
0.0980392156862745);
ENDSEC;
END-ISO-10303-21;
