ISO-10303-21;
HEADER;
/* Generated by software containing ST-Developer
 * from STEP Tools, Inc. (www.steptools.com) 
 */

FILE_DESCRIPTION(
/* description */ (''),
/* implementation_level */ '2;1');

FILE_NAME(
/* name */ 'Buzzer.step',
/* time_stamp */ '2026-02-08T19:09:52+01:00',
/* author */ (''),
/* organization */ (''),
/* preprocessor_version */ 'ST-DEVELOPER v20.1',
/* originating_system */ 'Autodesk Translation Framework v14.24.0.0',
/* authorisation */ '');

FILE_SCHEMA (('AUTOMOTIVE_DESIGN { 1 0 10303 214 3 1 1 }'));
ENDSEC;

DATA;
#10=MECHANICAL_DESIGN_GEOMETRIC_PRESENTATION_REPRESENTATION('',(#687,#688,
#689,#690,#691),#1272);
#11=SHAPE_REPRESENTATION_RELATIONSHIP('SRR','None',#1279,#12);
#12=ADVANCED_BREP_SHAPE_REPRESENTATION('',(#13),#1271);
#13=MANIFOLD_SOLID_BREP('Corps1',#736);
#14=FACE_BOUND('',#107,.T.);
#15=FACE_BOUND('',#108,.T.);
#16=FACE_BOUND('',#111,.T.);
#17=FACE_BOUND('',#123,.T.);
#18=FACE_BOUND('',#127,.T.);
#19=FACE_BOUND('',#128,.T.);
#20=FACE_BOUND('',#130,.T.);
#21=FACE_BOUND('',#132,.T.);
#22=FACE_BOUND('',#135,.T.);
#23=PLANE('',#786);
#24=PLANE('',#787);
#25=PLANE('',#788);
#26=PLANE('',#789);
#27=PLANE('',#793);
#28=PLANE('',#796);
#29=PLANE('',#797);
#30=PLANE('',#800);
#31=PLANE('',#801);
#32=PLANE('',#804);
#33=PLANE('',#805);
#34=PLANE('',#806);
#35=PLANE('',#807);
#36=PLANE('',#808);
#37=PLANE('',#809);
#38=PLANE('',#810);
#39=PLANE('',#811);
#40=PLANE('',#812);
#41=PLANE('',#813);
#42=PLANE('',#819);
#43=PLANE('',#820);
#44=PLANE('',#823);
#45=PLANE('',#824);
#46=PLANE('',#825);
#47=PLANE('',#826);
#48=PLANE('',#829);
#49=PLANE('',#830);
#50=PLANE('',#831);
#51=FACE_OUTER_BOUND('',#95,.T.);
#52=FACE_OUTER_BOUND('',#96,.T.);
#53=FACE_OUTER_BOUND('',#97,.T.);
#54=FACE_OUTER_BOUND('',#98,.T.);
#55=FACE_OUTER_BOUND('',#99,.T.);
#56=FACE_OUTER_BOUND('',#100,.T.);
#57=FACE_OUTER_BOUND('',#101,.T.);
#58=FACE_OUTER_BOUND('',#102,.T.);
#59=FACE_OUTER_BOUND('',#103,.T.);
#60=FACE_OUTER_BOUND('',#104,.T.);
#61=FACE_OUTER_BOUND('',#105,.T.);
#62=FACE_OUTER_BOUND('',#106,.T.);
#63=FACE_OUTER_BOUND('',#109,.T.);
#64=FACE_OUTER_BOUND('',#110,.T.);
#65=FACE_OUTER_BOUND('',#112,.T.);
#66=FACE_OUTER_BOUND('',#113,.T.);
#67=FACE_OUTER_BOUND('',#114,.T.);
#68=FACE_OUTER_BOUND('',#115,.T.);
#69=FACE_OUTER_BOUND('',#116,.T.);
#70=FACE_OUTER_BOUND('',#117,.T.);
#71=FACE_OUTER_BOUND('',#118,.T.);
#72=FACE_OUTER_BOUND('',#119,.T.);
#73=FACE_OUTER_BOUND('',#120,.T.);
#74=FACE_OUTER_BOUND('',#121,.T.);
#75=FACE_OUTER_BOUND('',#122,.T.);
#76=FACE_OUTER_BOUND('',#124,.T.);
#77=FACE_OUTER_BOUND('',#125,.T.);
#78=FACE_OUTER_BOUND('',#126,.T.);
#79=FACE_OUTER_BOUND('',#129,.T.);
#80=FACE_OUTER_BOUND('',#131,.T.);
#81=FACE_OUTER_BOUND('',#133,.T.);
#82=FACE_OUTER_BOUND('',#134,.T.);
#83=FACE_OUTER_BOUND('',#136,.T.);
#84=FACE_OUTER_BOUND('',#137,.T.);
#85=FACE_OUTER_BOUND('',#138,.T.);
#86=FACE_OUTER_BOUND('',#139,.T.);
#87=FACE_OUTER_BOUND('',#140,.T.);
#88=FACE_OUTER_BOUND('',#141,.T.);
#89=FACE_OUTER_BOUND('',#142,.T.);
#90=FACE_OUTER_BOUND('',#143,.T.);
#91=FACE_OUTER_BOUND('',#144,.T.);
#92=FACE_OUTER_BOUND('',#145,.T.);
#93=FACE_OUTER_BOUND('',#146,.T.);
#94=FACE_OUTER_BOUND('',#147,.T.);
#95=EDGE_LOOP('',(#473,#474,#475,#476));
#96=EDGE_LOOP('',(#477,#478,#479,#480));
#97=EDGE_LOOP('',(#481,#482,#483,#484));
#98=EDGE_LOOP('',(#485,#486,#487,#488,#489,#490,#491,#492,#493,#494,#495,
#496,#497,#498,#499,#500));
#99=EDGE_LOOP('',(#501,#502,#503,#504));
#100=EDGE_LOOP('',(#505,#506,#507,#508));
#101=EDGE_LOOP('',(#509,#510,#511,#512));
#102=EDGE_LOOP('',(#513,#514,#515,#516));
#103=EDGE_LOOP('',(#517,#518,#519,#520));
#104=EDGE_LOOP('',(#521,#522,#523,#524));
#105=EDGE_LOOP('',(#525));
#106=EDGE_LOOP('',(#526));
#107=EDGE_LOOP('',(#527));
#108=EDGE_LOOP('',(#528));
#109=EDGE_LOOP('',(#529));
#110=EDGE_LOOP('',(#530,#531,#532,#533,#534,#535,#536,#537,#538,#539,#540,
#541,#542));
#111=EDGE_LOOP('',(#543));
#112=EDGE_LOOP('',(#544,#545,#546,#547));
#113=EDGE_LOOP('',(#548,#549,#550,#551));
#114=EDGE_LOOP('',(#552,#553,#554,#555));
#115=EDGE_LOOP('',(#556,#557,#558,#559));
#116=EDGE_LOOP('',(#560,#561,#562,#563));
#117=EDGE_LOOP('',(#564,#565,#566,#567));
#118=EDGE_LOOP('',(#568,#569,#570,#571));
#119=EDGE_LOOP('',(#572,#573,#574,#575));
#120=EDGE_LOOP('',(#576,#577,#578,#579));
#121=EDGE_LOOP('',(#580,#581,#582,#583));
#122=EDGE_LOOP('',(#584));
#123=EDGE_LOOP('',(#585));
#124=EDGE_LOOP('',(#586,#587,#588,#589));
#125=EDGE_LOOP('',(#590,#591,#592,#593));
#126=EDGE_LOOP('',(#594));
#127=EDGE_LOOP('',(#595));
#128=EDGE_LOOP('',(#596));
#129=EDGE_LOOP('',(#597));
#130=EDGE_LOOP('',(#598));
#131=EDGE_LOOP('',(#599));
#132=EDGE_LOOP('',(#600));
#133=EDGE_LOOP('',(#601));
#134=EDGE_LOOP('',(#602));
#135=EDGE_LOOP('',(#603,#604,#605,#606,#607,#608,#609,#610,#611,#612,#613,
#614));
#136=EDGE_LOOP('',(#615,#616,#617,#618));
#137=EDGE_LOOP('',(#619,#620,#621,#622));
#138=EDGE_LOOP('',(#623,#624,#625,#626));
#139=EDGE_LOOP('',(#627,#628,#629,#630));
#140=EDGE_LOOP('',(#631,#632,#633,#634));
#141=EDGE_LOOP('',(#635,#636,#637,#638));
#142=EDGE_LOOP('',(#639,#640,#641,#642));
#143=EDGE_LOOP('',(#643,#644,#645,#646));
#144=EDGE_LOOP('',(#647,#648,#649,#650));
#145=EDGE_LOOP('',(#651,#652,#653,#654));
#146=EDGE_LOOP('',(#655,#656,#657,#658));
#147=EDGE_LOOP('',(#659,#660,#661,#662,#663,#664,#665,#666,#667,#668,#669,
#670));
#148=LINE('',#1064,#209);
#149=LINE('',#1070,#210);
#150=LINE('',#1076,#211);
#151=LINE('',#1083,#212);
#152=LINE('',#1087,#213);
#153=LINE('',#1091,#214);
#154=LINE('',#1095,#215);
#155=LINE('',#1100,#216);
#156=LINE('',#1104,#217);
#157=LINE('',#1107,#218);
#158=LINE('',#1112,#219);
#159=LINE('',#1118,#220);
#160=LINE('',#1124,#221);
#161=LINE('',#1130,#222);
#162=LINE('',#1136,#223);
#163=LINE('',#1143,#224);
#164=LINE('',#1146,#225);
#165=LINE('',#1154,#226);
#166=LINE('',#1156,#227);
#167=LINE('',#1159,#228);
#168=LINE('',#1161,#229);
#169=LINE('',#1164,#230);
#170=LINE('',#1165,#231);
#171=LINE('',#1168,#232);
#172=LINE('',#1169,#233);
#173=LINE('',#1173,#234);
#174=LINE('',#1175,#235);
#175=LINE('',#1178,#236);
#176=LINE('',#1179,#237);
#177=LINE('',#1183,#238);
#178=LINE('',#1185,#239);
#179=LINE('',#1188,#240);
#180=LINE('',#1189,#241);
#181=LINE('',#1193,#242);
#182=LINE('',#1195,#243);
#183=LINE('',#1207,#244);
#184=LINE('',#1211,#245);
#185=LINE('',#1213,#246);
#186=LINE('',#1217,#247);
#187=LINE('',#1218,#248);
#188=LINE('',#1220,#249);
#189=LINE('',#1222,#250);
#190=LINE('',#1225,#251);
#191=LINE('',#1230,#252);
#192=LINE('',#1231,#253);
#193=LINE('',#1234,#254);
#194=LINE('',#1235,#255);
#195=LINE('',#1238,#256);
#196=LINE('',#1239,#257);
#197=LINE('',#1243,#258);
#198=LINE('',#1246,#259);
#199=LINE('',#1247,#260);
#200=LINE('',#1249,#261);
#201=LINE('',#1252,#262);
#202=LINE('',#1253,#263);
#203=LINE('',#1256,#264);
#204=LINE('',#1257,#265);
#205=LINE('',#1261,#266);
#206=LINE('',#1264,#267);
#207=LINE('',#1265,#268);
#208=LINE('',#1267,#269);
#209=VECTOR('',#838,0.3);
#210=VECTOR('',#845,0.3);
#211=VECTOR('',#852,5.25);
#212=VECTOR('',#859,1000.);
#213=VECTOR('',#862,1000.);
#214=VECTOR('',#865,1000.);
#215=VECTOR('',#868,6.);
#216=VECTOR('',#873,1000.);
#217=VECTOR('',#876,1000.);
#218=VECTOR('',#879,1000.);
#219=VECTOR('',#884,5.875);
#220=VECTOR('',#891,1.3);
#221=VECTOR('',#898,1.3);
#222=VECTOR('',#905,3.875);
#223=VECTOR('',#912,1.2);
#224=VECTOR('',#919,1000.);
#225=VECTOR('',#922,1000.);
#226=VECTOR('',#933,1000.);
#227=VECTOR('',#934,1000.);
#228=VECTOR('',#937,1000.);
#229=VECTOR('',#938,1000.);
#230=VECTOR('',#941,1000.);
#231=VECTOR('',#942,1000.);
#232=VECTOR('',#945,1000.);
#233=VECTOR('',#946,1000.);
#234=VECTOR('',#951,1000.);
#235=VECTOR('',#954,1000.);
#236=VECTOR('',#957,1000.);
#237=VECTOR('',#958,1000.);
#238=VECTOR('',#963,1000.);
#239=VECTOR('',#966,1000.);
#240=VECTOR('',#969,1000.);
#241=VECTOR('',#970,1000.);
#242=VECTOR('',#975,1000.);
#243=VECTOR('',#978,1000.);
#244=VECTOR('',#997,1000.);
#245=VECTOR('',#1000,1000.);
#246=VECTOR('',#1001,1000.);
#247=VECTOR('',#1004,1000.);
#248=VECTOR('',#1005,1000.);
#249=VECTOR('',#1006,1000.);
#250=VECTOR('',#1007,1000.);
#251=VECTOR('',#1010,1000.);
#252=VECTOR('',#1015,1000.);
#253=VECTOR('',#1016,1000.);
#254=VECTOR('',#1019,1000.);
#255=VECTOR('',#1020,1000.);
#256=VECTOR('',#1023,1000.);
#257=VECTOR('',#1024,1000.);
#258=VECTOR('',#1029,1000.);
#259=VECTOR('',#1032,1000.);
#260=VECTOR('',#1033,1000.);
#261=VECTOR('',#1036,1000.);
#262=VECTOR('',#1039,1000.);
#263=VECTOR('',#1040,1000.);
#264=VECTOR('',#1043,1000.);
#265=VECTOR('',#1044,1000.);
#266=VECTOR('',#1049,1000.);
#267=VECTOR('',#1052,1000.);
#268=VECTOR('',#1053,1000.);
#269=VECTOR('',#1056,1000.);
#270=CIRCLE('',#751,0.3);
#271=CIRCLE('',#752,0.3);
#272=CIRCLE('',#754,0.3);
#273=CIRCLE('',#755,0.3);
#274=CIRCLE('',#757,5.25);
#275=CIRCLE('',#758,5.25);
#276=CIRCLE('',#760,6.);
#277=CIRCLE('',#761,6.);
#278=CIRCLE('',#762,6.);
#279=CIRCLE('',#763,6.);
#280=CIRCLE('',#764,6.);
#281=CIRCLE('',#765,6.);
#282=CIRCLE('',#766,6.);
#283=CIRCLE('',#767,6.);
#284=CIRCLE('',#769,5.875);
#285=CIRCLE('',#770,5.875);
#286=CIRCLE('',#772,1.3);
#287=CIRCLE('',#773,1.3);
#288=CIRCLE('',#775,1.3);
#289=CIRCLE('',#776,1.3);
#290=CIRCLE('',#778,3.875);
#291=CIRCLE('',#779,3.875);
#292=CIRCLE('',#781,1.2);
#293=CIRCLE('',#782,1.2);
#294=CIRCLE('',#784,0.8);
#295=CIRCLE('',#785,0.8);
#296=CIRCLE('',#790,5.5);
#297=CIRCLE('',#791,5.5);
#298=CIRCLE('',#792,5.5);
#299=CIRCLE('',#795,5.5);
#300=CIRCLE('',#799,5.5);
#301=CIRCLE('',#803,5.5);
#302=CIRCLE('',#814,0.8);
#303=CIRCLE('',#815,0.8);
#304=CIRCLE('',#816,0.8);
#305=CIRCLE('',#818,0.8);
#306=CIRCLE('',#822,0.8);
#307=CIRCLE('',#828,0.8);
#308=VERTEX_POINT('',#1061);
#309=VERTEX_POINT('',#1063);
#310=VERTEX_POINT('',#1067);
#311=VERTEX_POINT('',#1069);
#312=VERTEX_POINT('',#1073);
#313=VERTEX_POINT('',#1075);
#314=VERTEX_POINT('',#1079);
#315=VERTEX_POINT('',#1080);
#316=VERTEX_POINT('',#1082);
#317=VERTEX_POINT('',#1084);
#318=VERTEX_POINT('',#1086);
#319=VERTEX_POINT('',#1088);
#320=VERTEX_POINT('',#1090);
#321=VERTEX_POINT('',#1092);
#322=VERTEX_POINT('',#1094);
#323=VERTEX_POINT('',#1097);
#324=VERTEX_POINT('',#1099);
#325=VERTEX_POINT('',#1101);
#326=VERTEX_POINT('',#1103);
#327=VERTEX_POINT('',#1105);
#328=VERTEX_POINT('',#1109);
#329=VERTEX_POINT('',#1111);
#330=VERTEX_POINT('',#1115);
#331=VERTEX_POINT('',#1117);
#332=VERTEX_POINT('',#1121);
#333=VERTEX_POINT('',#1123);
#334=VERTEX_POINT('',#1127);
#335=VERTEX_POINT('',#1129);
#336=VERTEX_POINT('',#1133);
#337=VERTEX_POINT('',#1135);
#338=VERTEX_POINT('',#1139);
#339=VERTEX_POINT('',#1140);
#340=VERTEX_POINT('',#1142);
#341=VERTEX_POINT('',#1144);
#342=VERTEX_POINT('',#1151);
#343=VERTEX_POINT('',#1152);
#344=VERTEX_POINT('',#1155);
#345=VERTEX_POINT('',#1157);
#346=VERTEX_POINT('',#1160);
#347=VERTEX_POINT('',#1162);
#348=VERTEX_POINT('',#1167);
#349=VERTEX_POINT('',#1171);
#350=VERTEX_POINT('',#1177);
#351=VERTEX_POINT('',#1181);
#352=VERTEX_POINT('',#1187);
#353=VERTEX_POINT('',#1191);
#354=VERTEX_POINT('',#1205);
#355=VERTEX_POINT('',#1206);
#356=VERTEX_POINT('',#1208);
#357=VERTEX_POINT('',#1210);
#358=VERTEX_POINT('',#1212);
#359=VERTEX_POINT('',#1214);
#360=VERTEX_POINT('',#1216);
#361=VERTEX_POINT('',#1219);
#362=VERTEX_POINT('',#1221);
#363=VERTEX_POINT('',#1223);
#364=VERTEX_POINT('',#1227);
#365=VERTEX_POINT('',#1228);
#366=VERTEX_POINT('',#1233);
#367=VERTEX_POINT('',#1237);
#368=VERTEX_POINT('',#1241);
#369=VERTEX_POINT('',#1245);
#370=VERTEX_POINT('',#1251);
#371=VERTEX_POINT('',#1255);
#372=VERTEX_POINT('',#1259);
#373=VERTEX_POINT('',#1263);
#374=EDGE_CURVE('',#308,#308,#270,.T.);
#375=EDGE_CURVE('',#308,#309,#148,.T.);
#376=EDGE_CURVE('',#309,#309,#271,.T.);
#377=EDGE_CURVE('',#310,#310,#272,.T.);
#378=EDGE_CURVE('',#310,#311,#149,.T.);
#379=EDGE_CURVE('',#311,#311,#273,.T.);
#380=EDGE_CURVE('',#312,#312,#274,.T.);
#381=EDGE_CURVE('',#312,#313,#150,.T.);
#382=EDGE_CURVE('',#313,#313,#275,.T.);
#383=EDGE_CURVE('',#314,#315,#276,.T.);
#384=EDGE_CURVE('',#314,#316,#151,.T.);
#385=EDGE_CURVE('',#316,#317,#277,.T.);
#386=EDGE_CURVE('',#318,#317,#152,.T.);
#387=EDGE_CURVE('',#319,#318,#278,.T.);
#388=EDGE_CURVE('',#320,#319,#153,.T.);
#389=EDGE_CURVE('',#320,#321,#279,.T.);
#390=EDGE_CURVE('',#321,#322,#154,.T.);
#391=EDGE_CURVE('',#322,#322,#280,.T.);
#392=EDGE_CURVE('',#321,#323,#281,.T.);
#393=EDGE_CURVE('',#324,#323,#155,.T.);
#394=EDGE_CURVE('',#325,#324,#282,.T.);
#395=EDGE_CURVE('',#326,#325,#156,.T.);
#396=EDGE_CURVE('',#326,#327,#283,.T.);
#397=EDGE_CURVE('',#315,#327,#157,.T.);
#398=EDGE_CURVE('',#328,#328,#284,.T.);
#399=EDGE_CURVE('',#328,#329,#158,.T.);
#400=EDGE_CURVE('',#329,#329,#285,.T.);
#401=EDGE_CURVE('',#330,#330,#286,.T.);
#402=EDGE_CURVE('',#330,#331,#159,.T.);
#403=EDGE_CURVE('',#331,#331,#287,.T.);
#404=EDGE_CURVE('',#332,#332,#288,.T.);
#405=EDGE_CURVE('',#332,#333,#160,.T.);
#406=EDGE_CURVE('',#333,#333,#289,.T.);
#407=EDGE_CURVE('',#334,#334,#290,.T.);
#408=EDGE_CURVE('',#334,#335,#161,.T.);
#409=EDGE_CURVE('',#335,#335,#291,.T.);
#410=EDGE_CURVE('',#336,#336,#292,.T.);
#411=EDGE_CURVE('',#336,#337,#162,.T.);
#412=EDGE_CURVE('',#337,#337,#293,.T.);
#413=EDGE_CURVE('',#338,#339,#294,.T.);
#414=EDGE_CURVE('',#340,#339,#163,.T.);
#415=EDGE_CURVE('',#341,#340,#295,.T.);
#416=EDGE_CURVE('',#341,#338,#164,.T.);
#417=EDGE_CURVE('',#342,#343,#296,.T.);
#418=EDGE_CURVE('',#327,#342,#165,.T.);
#419=EDGE_CURVE('',#344,#326,#166,.T.);
#420=EDGE_CURVE('',#345,#344,#297,.T.);
#421=EDGE_CURVE('',#323,#345,#167,.T.);
#422=EDGE_CURVE('',#346,#320,#168,.T.);
#423=EDGE_CURVE('',#347,#346,#298,.T.);
#424=EDGE_CURVE('',#317,#347,#169,.T.);
#425=EDGE_CURVE('',#343,#316,#170,.T.);
#426=EDGE_CURVE('',#348,#314,#171,.T.);
#427=EDGE_CURVE('',#343,#348,#172,.T.);
#428=EDGE_CURVE('',#348,#349,#299,.T.);
#429=EDGE_CURVE('',#349,#342,#173,.T.);
#430=EDGE_CURVE('',#349,#315,#174,.T.);
#431=EDGE_CURVE('',#350,#325,#175,.T.);
#432=EDGE_CURVE('',#344,#350,#176,.T.);
#433=EDGE_CURVE('',#350,#351,#300,.T.);
#434=EDGE_CURVE('',#351,#345,#177,.T.);
#435=EDGE_CURVE('',#351,#324,#178,.T.);
#436=EDGE_CURVE('',#352,#319,#179,.T.);
#437=EDGE_CURVE('',#346,#352,#180,.T.);
#438=EDGE_CURVE('',#352,#353,#301,.T.);
#439=EDGE_CURVE('',#353,#347,#181,.T.);
#440=EDGE_CURVE('',#353,#318,#182,.T.);
#441=EDGE_CURVE('',#354,#355,#183,.T.);
#442=EDGE_CURVE('',#355,#356,#302,.T.);
#443=EDGE_CURVE('',#356,#357,#184,.T.);
#444=EDGE_CURVE('',#357,#358,#185,.T.);
#445=EDGE_CURVE('',#358,#359,#303,.T.);
#446=EDGE_CURVE('',#359,#360,#186,.T.);
#447=EDGE_CURVE('',#360,#341,#187,.T.);
#448=EDGE_CURVE('',#340,#361,#188,.T.);
#449=EDGE_CURVE('',#361,#362,#189,.T.);
#450=EDGE_CURVE('',#362,#363,#304,.T.);
#451=EDGE_CURVE('',#363,#354,#190,.T.);
#452=EDGE_CURVE('',#364,#365,#305,.T.);
#453=EDGE_CURVE('',#365,#356,#191,.T.);
#454=EDGE_CURVE('',#355,#364,#192,.T.);
#455=EDGE_CURVE('',#366,#364,#193,.T.);
#456=EDGE_CURVE('',#354,#366,#194,.T.);
#457=EDGE_CURVE('',#367,#366,#195,.T.);
#458=EDGE_CURVE('',#363,#367,#196,.T.);
#459=EDGE_CURVE('',#368,#367,#306,.T.);
#460=EDGE_CURVE('',#362,#368,#197,.T.);
#461=EDGE_CURVE('',#369,#361,#198,.T.);
#462=EDGE_CURVE('',#368,#369,#199,.T.);
#463=EDGE_CURVE('',#339,#369,#200,.T.);
#464=EDGE_CURVE('',#370,#360,#201,.T.);
#465=EDGE_CURVE('',#338,#370,#202,.T.);
#466=EDGE_CURVE('',#371,#359,#203,.T.);
#467=EDGE_CURVE('',#370,#371,#204,.T.);
#468=EDGE_CURVE('',#372,#371,#307,.T.);
#469=EDGE_CURVE('',#358,#372,#205,.T.);
#470=EDGE_CURVE('',#373,#372,#206,.T.);
#471=EDGE_CURVE('',#357,#373,#207,.T.);
#472=EDGE_CURVE('',#373,#365,#208,.T.);
#473=ORIENTED_EDGE('',*,*,#374,.F.);
#474=ORIENTED_EDGE('',*,*,#375,.T.);
#475=ORIENTED_EDGE('',*,*,#376,.F.);
#476=ORIENTED_EDGE('',*,*,#375,.F.);
#477=ORIENTED_EDGE('',*,*,#377,.F.);
#478=ORIENTED_EDGE('',*,*,#378,.T.);
#479=ORIENTED_EDGE('',*,*,#379,.F.);
#480=ORIENTED_EDGE('',*,*,#378,.F.);
#481=ORIENTED_EDGE('',*,*,#380,.F.);
#482=ORIENTED_EDGE('',*,*,#381,.T.);
#483=ORIENTED_EDGE('',*,*,#382,.T.);
#484=ORIENTED_EDGE('',*,*,#381,.F.);
#485=ORIENTED_EDGE('',*,*,#383,.F.);
#486=ORIENTED_EDGE('',*,*,#384,.T.);
#487=ORIENTED_EDGE('',*,*,#385,.T.);
#488=ORIENTED_EDGE('',*,*,#386,.F.);
#489=ORIENTED_EDGE('',*,*,#387,.F.);
#490=ORIENTED_EDGE('',*,*,#388,.F.);
#491=ORIENTED_EDGE('',*,*,#389,.T.);
#492=ORIENTED_EDGE('',*,*,#390,.T.);
#493=ORIENTED_EDGE('',*,*,#391,.F.);
#494=ORIENTED_EDGE('',*,*,#390,.F.);
#495=ORIENTED_EDGE('',*,*,#392,.T.);
#496=ORIENTED_EDGE('',*,*,#393,.F.);
#497=ORIENTED_EDGE('',*,*,#394,.F.);
#498=ORIENTED_EDGE('',*,*,#395,.F.);
#499=ORIENTED_EDGE('',*,*,#396,.T.);
#500=ORIENTED_EDGE('',*,*,#397,.F.);
#501=ORIENTED_EDGE('',*,*,#398,.F.);
#502=ORIENTED_EDGE('',*,*,#399,.T.);
#503=ORIENTED_EDGE('',*,*,#400,.F.);
#504=ORIENTED_EDGE('',*,*,#399,.F.);
#505=ORIENTED_EDGE('',*,*,#401,.T.);
#506=ORIENTED_EDGE('',*,*,#402,.T.);
#507=ORIENTED_EDGE('',*,*,#403,.F.);
#508=ORIENTED_EDGE('',*,*,#402,.F.);
#509=ORIENTED_EDGE('',*,*,#404,.T.);
#510=ORIENTED_EDGE('',*,*,#405,.T.);
#511=ORIENTED_EDGE('',*,*,#406,.F.);
#512=ORIENTED_EDGE('',*,*,#405,.F.);
#513=ORIENTED_EDGE('',*,*,#407,.T.);
#514=ORIENTED_EDGE('',*,*,#408,.T.);
#515=ORIENTED_EDGE('',*,*,#409,.T.);
#516=ORIENTED_EDGE('',*,*,#408,.F.);
#517=ORIENTED_EDGE('',*,*,#410,.F.);
#518=ORIENTED_EDGE('',*,*,#411,.T.);
#519=ORIENTED_EDGE('',*,*,#412,.F.);
#520=ORIENTED_EDGE('',*,*,#411,.F.);
#521=ORIENTED_EDGE('',*,*,#413,.T.);
#522=ORIENTED_EDGE('',*,*,#414,.F.);
#523=ORIENTED_EDGE('',*,*,#415,.F.);
#524=ORIENTED_EDGE('',*,*,#416,.T.);
#525=ORIENTED_EDGE('',*,*,#376,.T.);
#526=ORIENTED_EDGE('',*,*,#380,.T.);
#527=ORIENTED_EDGE('',*,*,#377,.T.);
#528=ORIENTED_EDGE('',*,*,#374,.T.);
#529=ORIENTED_EDGE('',*,*,#379,.T.);
#530=ORIENTED_EDGE('',*,*,#417,.F.);
#531=ORIENTED_EDGE('',*,*,#418,.F.);
#532=ORIENTED_EDGE('',*,*,#396,.F.);
#533=ORIENTED_EDGE('',*,*,#419,.F.);
#534=ORIENTED_EDGE('',*,*,#420,.F.);
#535=ORIENTED_EDGE('',*,*,#421,.F.);
#536=ORIENTED_EDGE('',*,*,#392,.F.);
#537=ORIENTED_EDGE('',*,*,#389,.F.);
#538=ORIENTED_EDGE('',*,*,#422,.F.);
#539=ORIENTED_EDGE('',*,*,#423,.F.);
#540=ORIENTED_EDGE('',*,*,#424,.F.);
#541=ORIENTED_EDGE('',*,*,#385,.F.);
#542=ORIENTED_EDGE('',*,*,#425,.F.);
#543=ORIENTED_EDGE('',*,*,#382,.F.);
#544=ORIENTED_EDGE('',*,*,#384,.F.);
#545=ORIENTED_EDGE('',*,*,#426,.F.);
#546=ORIENTED_EDGE('',*,*,#427,.F.);
#547=ORIENTED_EDGE('',*,*,#425,.T.);
#548=ORIENTED_EDGE('',*,*,#428,.T.);
#549=ORIENTED_EDGE('',*,*,#429,.T.);
#550=ORIENTED_EDGE('',*,*,#417,.T.);
#551=ORIENTED_EDGE('',*,*,#427,.T.);
#552=ORIENTED_EDGE('',*,*,#430,.T.);
#553=ORIENTED_EDGE('',*,*,#397,.T.);
#554=ORIENTED_EDGE('',*,*,#418,.T.);
#555=ORIENTED_EDGE('',*,*,#429,.F.);
#556=ORIENTED_EDGE('',*,*,#395,.T.);
#557=ORIENTED_EDGE('',*,*,#431,.F.);
#558=ORIENTED_EDGE('',*,*,#432,.F.);
#559=ORIENTED_EDGE('',*,*,#419,.T.);
#560=ORIENTED_EDGE('',*,*,#433,.T.);
#561=ORIENTED_EDGE('',*,*,#434,.T.);
#562=ORIENTED_EDGE('',*,*,#420,.T.);
#563=ORIENTED_EDGE('',*,*,#432,.T.);
#564=ORIENTED_EDGE('',*,*,#435,.T.);
#565=ORIENTED_EDGE('',*,*,#393,.T.);
#566=ORIENTED_EDGE('',*,*,#421,.T.);
#567=ORIENTED_EDGE('',*,*,#434,.F.);
#568=ORIENTED_EDGE('',*,*,#388,.T.);
#569=ORIENTED_EDGE('',*,*,#436,.F.);
#570=ORIENTED_EDGE('',*,*,#437,.F.);
#571=ORIENTED_EDGE('',*,*,#422,.T.);
#572=ORIENTED_EDGE('',*,*,#438,.T.);
#573=ORIENTED_EDGE('',*,*,#439,.T.);
#574=ORIENTED_EDGE('',*,*,#423,.T.);
#575=ORIENTED_EDGE('',*,*,#437,.T.);
#576=ORIENTED_EDGE('',*,*,#440,.T.);
#577=ORIENTED_EDGE('',*,*,#386,.T.);
#578=ORIENTED_EDGE('',*,*,#424,.T.);
#579=ORIENTED_EDGE('',*,*,#439,.F.);
#580=ORIENTED_EDGE('',*,*,#383,.T.);
#581=ORIENTED_EDGE('',*,*,#430,.F.);
#582=ORIENTED_EDGE('',*,*,#428,.F.);
#583=ORIENTED_EDGE('',*,*,#426,.T.);
#584=ORIENTED_EDGE('',*,*,#391,.T.);
#585=ORIENTED_EDGE('',*,*,#398,.T.);
#586=ORIENTED_EDGE('',*,*,#394,.T.);
#587=ORIENTED_EDGE('',*,*,#435,.F.);
#588=ORIENTED_EDGE('',*,*,#433,.F.);
#589=ORIENTED_EDGE('',*,*,#431,.T.);
#590=ORIENTED_EDGE('',*,*,#387,.T.);
#591=ORIENTED_EDGE('',*,*,#440,.F.);
#592=ORIENTED_EDGE('',*,*,#438,.F.);
#593=ORIENTED_EDGE('',*,*,#436,.T.);
#594=ORIENTED_EDGE('',*,*,#400,.T.);
#595=ORIENTED_EDGE('',*,*,#403,.T.);
#596=ORIENTED_EDGE('',*,*,#406,.T.);
#597=ORIENTED_EDGE('',*,*,#407,.F.);
#598=ORIENTED_EDGE('',*,*,#401,.F.);
#599=ORIENTED_EDGE('',*,*,#404,.F.);
#600=ORIENTED_EDGE('',*,*,#412,.T.);
#601=ORIENTED_EDGE('',*,*,#409,.F.);
#602=ORIENTED_EDGE('',*,*,#410,.T.);
#603=ORIENTED_EDGE('',*,*,#441,.T.);
#604=ORIENTED_EDGE('',*,*,#442,.T.);
#605=ORIENTED_EDGE('',*,*,#443,.T.);
#606=ORIENTED_EDGE('',*,*,#444,.T.);
#607=ORIENTED_EDGE('',*,*,#445,.T.);
#608=ORIENTED_EDGE('',*,*,#446,.T.);
#609=ORIENTED_EDGE('',*,*,#447,.T.);
#610=ORIENTED_EDGE('',*,*,#415,.T.);
#611=ORIENTED_EDGE('',*,*,#448,.T.);
#612=ORIENTED_EDGE('',*,*,#449,.T.);
#613=ORIENTED_EDGE('',*,*,#450,.T.);
#614=ORIENTED_EDGE('',*,*,#451,.T.);
#615=ORIENTED_EDGE('',*,*,#452,.T.);
#616=ORIENTED_EDGE('',*,*,#453,.T.);
#617=ORIENTED_EDGE('',*,*,#442,.F.);
#618=ORIENTED_EDGE('',*,*,#454,.T.);
#619=ORIENTED_EDGE('',*,*,#455,.T.);
#620=ORIENTED_EDGE('',*,*,#454,.F.);
#621=ORIENTED_EDGE('',*,*,#441,.F.);
#622=ORIENTED_EDGE('',*,*,#456,.T.);
#623=ORIENTED_EDGE('',*,*,#457,.T.);
#624=ORIENTED_EDGE('',*,*,#456,.F.);
#625=ORIENTED_EDGE('',*,*,#451,.F.);
#626=ORIENTED_EDGE('',*,*,#458,.T.);
#627=ORIENTED_EDGE('',*,*,#459,.T.);
#628=ORIENTED_EDGE('',*,*,#458,.F.);
#629=ORIENTED_EDGE('',*,*,#450,.F.);
#630=ORIENTED_EDGE('',*,*,#460,.T.);
#631=ORIENTED_EDGE('',*,*,#461,.F.);
#632=ORIENTED_EDGE('',*,*,#462,.F.);
#633=ORIENTED_EDGE('',*,*,#460,.F.);
#634=ORIENTED_EDGE('',*,*,#449,.F.);
#635=ORIENTED_EDGE('',*,*,#463,.T.);
#636=ORIENTED_EDGE('',*,*,#461,.T.);
#637=ORIENTED_EDGE('',*,*,#448,.F.);
#638=ORIENTED_EDGE('',*,*,#414,.T.);
#639=ORIENTED_EDGE('',*,*,#464,.F.);
#640=ORIENTED_EDGE('',*,*,#465,.F.);
#641=ORIENTED_EDGE('',*,*,#416,.F.);
#642=ORIENTED_EDGE('',*,*,#447,.F.);
#643=ORIENTED_EDGE('',*,*,#466,.F.);
#644=ORIENTED_EDGE('',*,*,#467,.F.);
#645=ORIENTED_EDGE('',*,*,#464,.T.);
#646=ORIENTED_EDGE('',*,*,#446,.F.);
#647=ORIENTED_EDGE('',*,*,#468,.T.);
#648=ORIENTED_EDGE('',*,*,#466,.T.);
#649=ORIENTED_EDGE('',*,*,#445,.F.);
#650=ORIENTED_EDGE('',*,*,#469,.T.);
#651=ORIENTED_EDGE('',*,*,#470,.T.);
#652=ORIENTED_EDGE('',*,*,#469,.F.);
#653=ORIENTED_EDGE('',*,*,#444,.F.);
#654=ORIENTED_EDGE('',*,*,#471,.T.);
#655=ORIENTED_EDGE('',*,*,#453,.F.);
#656=ORIENTED_EDGE('',*,*,#472,.F.);
#657=ORIENTED_EDGE('',*,*,#471,.F.);
#658=ORIENTED_EDGE('',*,*,#443,.F.);
#659=ORIENTED_EDGE('',*,*,#468,.F.);
#660=ORIENTED_EDGE('',*,*,#470,.F.);
#661=ORIENTED_EDGE('',*,*,#472,.T.);
#662=ORIENTED_EDGE('',*,*,#452,.F.);
#663=ORIENTED_EDGE('',*,*,#455,.F.);
#664=ORIENTED_EDGE('',*,*,#457,.F.);
#665=ORIENTED_EDGE('',*,*,#459,.F.);
#666=ORIENTED_EDGE('',*,*,#462,.T.);
#667=ORIENTED_EDGE('',*,*,#463,.F.);
#668=ORIENTED_EDGE('',*,*,#413,.F.);
#669=ORIENTED_EDGE('',*,*,#465,.T.);
#670=ORIENTED_EDGE('',*,*,#467,.T.);
#671=CYLINDRICAL_SURFACE('',#750,0.3);
#672=CYLINDRICAL_SURFACE('',#753,0.3);
#673=CYLINDRICAL_SURFACE('',#756,5.25);
#674=CYLINDRICAL_SURFACE('',#759,6.);
#675=CYLINDRICAL_SURFACE('',#768,5.875);
#676=CYLINDRICAL_SURFACE('',#771,1.3);
#677=CYLINDRICAL_SURFACE('',#774,1.3);
#678=CYLINDRICAL_SURFACE('',#777,3.875);
#679=CYLINDRICAL_SURFACE('',#780,1.2);
#680=CYLINDRICAL_SURFACE('',#783,0.8);
#681=CYLINDRICAL_SURFACE('',#794,5.5);
#682=CYLINDRICAL_SURFACE('',#798,5.5);
#683=CYLINDRICAL_SURFACE('',#802,5.5);
#684=CYLINDRICAL_SURFACE('',#817,0.8);
#685=CYLINDRICAL_SURFACE('',#821,0.8);
#686=CYLINDRICAL_SURFACE('',#827,0.8);
#687=STYLED_ITEM('',(#1290),#692);
#688=STYLED_ITEM('',(#1290),#693);
#689=STYLED_ITEM('',(#1290),#702);
#690=STYLED_ITEM('',(#1290),#704);
#691=STYLED_ITEM('',(#1289),#13);
#692=ADVANCED_FACE('',(#51),#671,.T.);
#693=ADVANCED_FACE('',(#52),#672,.T.);
#694=ADVANCED_FACE('',(#53),#673,.F.);
#695=ADVANCED_FACE('',(#54),#674,.T.);
#696=ADVANCED_FACE('',(#55),#675,.T.);
#697=ADVANCED_FACE('',(#56),#676,.F.);
#698=ADVANCED_FACE('',(#57),#677,.F.);
#699=ADVANCED_FACE('',(#58),#678,.F.);
#700=ADVANCED_FACE('',(#59),#679,.T.);
#701=ADVANCED_FACE('',(#60),#680,.F.);
#702=ADVANCED_FACE('',(#61),#23,.T.);
#703=ADVANCED_FACE('',(#62,#14,#15),#24,.T.);
#704=ADVANCED_FACE('',(#63),#25,.T.);
#705=ADVANCED_FACE('',(#64,#16),#26,.F.);
#706=ADVANCED_FACE('',(#65),#27,.F.);
#707=ADVANCED_FACE('',(#66),#681,.F.);
#708=ADVANCED_FACE('',(#67),#28,.T.);
#709=ADVANCED_FACE('',(#68),#29,.F.);
#710=ADVANCED_FACE('',(#69),#682,.F.);
#711=ADVANCED_FACE('',(#70),#30,.T.);
#712=ADVANCED_FACE('',(#71),#31,.F.);
#713=ADVANCED_FACE('',(#72),#683,.F.);
#714=ADVANCED_FACE('',(#73),#32,.T.);
#715=ADVANCED_FACE('',(#74),#33,.T.);
#716=ADVANCED_FACE('',(#75,#17),#34,.T.);
#717=ADVANCED_FACE('',(#76),#35,.T.);
#718=ADVANCED_FACE('',(#77),#36,.T.);
#719=ADVANCED_FACE('',(#78,#18,#19),#37,.T.);
#720=ADVANCED_FACE('',(#79,#20),#38,.F.);
#721=ADVANCED_FACE('',(#80,#21),#39,.T.);
#722=ADVANCED_FACE('',(#81),#40,.T.);
#723=ADVANCED_FACE('',(#82,#22),#41,.T.);
#724=ADVANCED_FACE('',(#83),#684,.F.);
#725=ADVANCED_FACE('',(#84),#42,.T.);
#726=ADVANCED_FACE('',(#85),#43,.T.);
#727=ADVANCED_FACE('',(#86),#685,.F.);
#728=ADVANCED_FACE('',(#87),#44,.F.);
#729=ADVANCED_FACE('',(#88),#45,.T.);
#730=ADVANCED_FACE('',(#89),#46,.F.);
#731=ADVANCED_FACE('',(#90),#47,.F.);
#732=ADVANCED_FACE('',(#91),#686,.F.);
#733=ADVANCED_FACE('',(#92),#48,.T.);
#734=ADVANCED_FACE('',(#93),#49,.F.);
#735=ADVANCED_FACE('',(#94),#50,.T.);
#736=CLOSED_SHELL('',(#692,#693,#694,#695,#696,#697,#698,#699,#700,#701,
#702,#703,#704,#705,#706,#707,#708,#709,#710,#711,#712,#713,#714,#715,#716,
#717,#718,#719,#720,#721,#722,#723,#724,#725,#726,#727,#728,#729,#730,#731,
#732,#733,#734,#735));
#737=DERIVED_UNIT_ELEMENT(#739,1.);
#738=DERIVED_UNIT_ELEMENT(#1274,-3.);
#739=(
MASS_UNIT()
NAMED_UNIT(*)
SI_UNIT(.KILO.,.GRAM.)
);
#740=DERIVED_UNIT((#737,#738));
#741=MEASURE_REPRESENTATION_ITEM('density measure',
POSITIVE_RATIO_MEASURE(7850.),#740);
#742=PROPERTY_DEFINITION_REPRESENTATION(#747,#744);
#743=PROPERTY_DEFINITION_REPRESENTATION(#748,#745);
#744=REPRESENTATION('material name',(#746),#1271);
#745=REPRESENTATION('density',(#741),#1271);
#746=DESCRIPTIVE_REPRESENTATION_ITEM('Acier','Acier');
#747=PROPERTY_DEFINITION('material property','material name',#1281);
#748=PROPERTY_DEFINITION('material property','density of part',#1281);
#749=AXIS2_PLACEMENT_3D('',#1059,#832,#833);
#750=AXIS2_PLACEMENT_3D('',#1060,#834,#835);
#751=AXIS2_PLACEMENT_3D('',#1062,#836,#837);
#752=AXIS2_PLACEMENT_3D('',#1065,#839,#840);
#753=AXIS2_PLACEMENT_3D('',#1066,#841,#842);
#754=AXIS2_PLACEMENT_3D('',#1068,#843,#844);
#755=AXIS2_PLACEMENT_3D('',#1071,#846,#847);
#756=AXIS2_PLACEMENT_3D('',#1072,#848,#849);
#757=AXIS2_PLACEMENT_3D('',#1074,#850,#851);
#758=AXIS2_PLACEMENT_3D('',#1077,#853,#854);
#759=AXIS2_PLACEMENT_3D('',#1078,#855,#856);
#760=AXIS2_PLACEMENT_3D('',#1081,#857,#858);
#761=AXIS2_PLACEMENT_3D('',#1085,#860,#861);
#762=AXIS2_PLACEMENT_3D('',#1089,#863,#864);
#763=AXIS2_PLACEMENT_3D('',#1093,#866,#867);
#764=AXIS2_PLACEMENT_3D('',#1096,#869,#870);
#765=AXIS2_PLACEMENT_3D('',#1098,#871,#872);
#766=AXIS2_PLACEMENT_3D('',#1102,#874,#875);
#767=AXIS2_PLACEMENT_3D('',#1106,#877,#878);
#768=AXIS2_PLACEMENT_3D('',#1108,#880,#881);
#769=AXIS2_PLACEMENT_3D('',#1110,#882,#883);
#770=AXIS2_PLACEMENT_3D('',#1113,#885,#886);
#771=AXIS2_PLACEMENT_3D('',#1114,#887,#888);
#772=AXIS2_PLACEMENT_3D('',#1116,#889,#890);
#773=AXIS2_PLACEMENT_3D('',#1119,#892,#893);
#774=AXIS2_PLACEMENT_3D('',#1120,#894,#895);
#775=AXIS2_PLACEMENT_3D('',#1122,#896,#897);
#776=AXIS2_PLACEMENT_3D('',#1125,#899,#900);
#777=AXIS2_PLACEMENT_3D('',#1126,#901,#902);
#778=AXIS2_PLACEMENT_3D('',#1128,#903,#904);
#779=AXIS2_PLACEMENT_3D('',#1131,#906,#907);
#780=AXIS2_PLACEMENT_3D('',#1132,#908,#909);
#781=AXIS2_PLACEMENT_3D('',#1134,#910,#911);
#782=AXIS2_PLACEMENT_3D('',#1137,#913,#914);
#783=AXIS2_PLACEMENT_3D('',#1138,#915,#916);
#784=AXIS2_PLACEMENT_3D('',#1141,#917,#918);
#785=AXIS2_PLACEMENT_3D('',#1145,#920,#921);
#786=AXIS2_PLACEMENT_3D('',#1147,#923,#924);
#787=AXIS2_PLACEMENT_3D('',#1148,#925,#926);
#788=AXIS2_PLACEMENT_3D('',#1149,#927,#928);
#789=AXIS2_PLACEMENT_3D('',#1150,#929,#930);
#790=AXIS2_PLACEMENT_3D('',#1153,#931,#932);
#791=AXIS2_PLACEMENT_3D('',#1158,#935,#936);
#792=AXIS2_PLACEMENT_3D('',#1163,#939,#940);
#793=AXIS2_PLACEMENT_3D('',#1166,#943,#944);
#794=AXIS2_PLACEMENT_3D('',#1170,#947,#948);
#795=AXIS2_PLACEMENT_3D('',#1172,#949,#950);
#796=AXIS2_PLACEMENT_3D('',#1174,#952,#953);
#797=AXIS2_PLACEMENT_3D('',#1176,#955,#956);
#798=AXIS2_PLACEMENT_3D('',#1180,#959,#960);
#799=AXIS2_PLACEMENT_3D('',#1182,#961,#962);
#800=AXIS2_PLACEMENT_3D('',#1184,#964,#965);
#801=AXIS2_PLACEMENT_3D('',#1186,#967,#968);
#802=AXIS2_PLACEMENT_3D('',#1190,#971,#972);
#803=AXIS2_PLACEMENT_3D('',#1192,#973,#974);
#804=AXIS2_PLACEMENT_3D('',#1194,#976,#977);
#805=AXIS2_PLACEMENT_3D('',#1196,#979,#980);
#806=AXIS2_PLACEMENT_3D('',#1197,#981,#982);
#807=AXIS2_PLACEMENT_3D('',#1198,#983,#984);
#808=AXIS2_PLACEMENT_3D('',#1199,#985,#986);
#809=AXIS2_PLACEMENT_3D('',#1200,#987,#988);
#810=AXIS2_PLACEMENT_3D('',#1201,#989,#990);
#811=AXIS2_PLACEMENT_3D('',#1202,#991,#992);
#812=AXIS2_PLACEMENT_3D('',#1203,#993,#994);
#813=AXIS2_PLACEMENT_3D('',#1204,#995,#996);
#814=AXIS2_PLACEMENT_3D('',#1209,#998,#999);
#815=AXIS2_PLACEMENT_3D('',#1215,#1002,#1003);
#816=AXIS2_PLACEMENT_3D('',#1224,#1008,#1009);
#817=AXIS2_PLACEMENT_3D('',#1226,#1011,#1012);
#818=AXIS2_PLACEMENT_3D('',#1229,#1013,#1014);
#819=AXIS2_PLACEMENT_3D('',#1232,#1017,#1018);
#820=AXIS2_PLACEMENT_3D('',#1236,#1021,#1022);
#821=AXIS2_PLACEMENT_3D('',#1240,#1025,#1026);
#822=AXIS2_PLACEMENT_3D('',#1242,#1027,#1028);
#823=AXIS2_PLACEMENT_3D('',#1244,#1030,#1031);
#824=AXIS2_PLACEMENT_3D('',#1248,#1034,#1035);
#825=AXIS2_PLACEMENT_3D('',#1250,#1037,#1038);
#826=AXIS2_PLACEMENT_3D('',#1254,#1041,#1042);
#827=AXIS2_PLACEMENT_3D('',#1258,#1045,#1046);
#828=AXIS2_PLACEMENT_3D('',#1260,#1047,#1048);
#829=AXIS2_PLACEMENT_3D('',#1262,#1050,#1051);
#830=AXIS2_PLACEMENT_3D('',#1266,#1054,#1055);
#831=AXIS2_PLACEMENT_3D('',#1268,#1057,#1058);
#832=DIRECTION('axis',(0.,0.,1.));
#833=DIRECTION('refdir',(1.,0.,0.));
#834=DIRECTION('center_axis',(0.,1.,0.));
#835=DIRECTION('ref_axis',(0.,0.,1.));
#836=DIRECTION('center_axis',(0.,1.,0.));
#837=DIRECTION('ref_axis',(0.,0.,1.));
#838=DIRECTION('',(0.,-1.,0.));
#839=DIRECTION('center_axis',(0.,-1.,0.));
#840=DIRECTION('ref_axis',(0.,0.,1.));
#841=DIRECTION('center_axis',(-7.22801448323669E-16,1.,0.));
#842=DIRECTION('ref_axis',(-1.,-7.22801448323669E-16,0.));
#843=DIRECTION('center_axis',(-7.22801448323669E-16,1.,0.));
#844=DIRECTION('ref_axis',(-1.,-7.22801448323669E-16,0.));
#845=DIRECTION('',(7.22801448323669E-16,-1.,0.));
#846=DIRECTION('center_axis',(7.22801448323669E-16,-1.,0.));
#847=DIRECTION('ref_axis',(-1.,-7.22801448323669E-16,0.));
#848=DIRECTION('center_axis',(0.,-1.,0.));
#849=DIRECTION('ref_axis',(0.,0.,-1.));
#850=DIRECTION('center_axis',(0.,-1.,0.));
#851=DIRECTION('ref_axis',(0.,0.,-1.));
#852=DIRECTION('',(0.,-1.,0.));
#853=DIRECTION('center_axis',(0.,-1.,0.));
#854=DIRECTION('ref_axis',(0.,0.,-1.));
#855=DIRECTION('center_axis',(0.,-1.,0.));
#856=DIRECTION('ref_axis',(0.,0.,-1.));
#857=DIRECTION('center_axis',(0.,-1.,0.));
#858=DIRECTION('ref_axis',(0.,0.,-1.));
#859=DIRECTION('',(0.,1.,0.));
#860=DIRECTION('center_axis',(0.,1.,0.));
#861=DIRECTION('ref_axis',(0.,0.,-1.));
#862=DIRECTION('',(0.,1.,0.));
#863=DIRECTION('center_axis',(0.,-1.,0.));
#864=DIRECTION('ref_axis',(0.,0.,-1.));
#865=DIRECTION('',(0.,-1.,0.));
#866=DIRECTION('center_axis',(0.,1.,0.));
#867=DIRECTION('ref_axis',(0.,0.,-1.));
#868=DIRECTION('',(0.,1.,0.));
#869=DIRECTION('center_axis',(0.,1.,0.));
#870=DIRECTION('ref_axis',(0.,0.,-1.));
#871=DIRECTION('center_axis',(0.,1.,0.));
#872=DIRECTION('ref_axis',(0.,0.,-1.));
#873=DIRECTION('',(0.,1.,0.));
#874=DIRECTION('center_axis',(0.,-1.,0.));
#875=DIRECTION('ref_axis',(0.,0.,-1.));
#876=DIRECTION('',(0.,-1.,0.));
#877=DIRECTION('center_axis',(0.,1.,0.));
#878=DIRECTION('ref_axis',(0.,0.,-1.));
#879=DIRECTION('',(0.,1.,0.));
#880=DIRECTION('center_axis',(0.,-1.,0.));
#881=DIRECTION('ref_axis',(0.,0.,-1.));
#882=DIRECTION('center_axis',(0.,-1.,0.));
#883=DIRECTION('ref_axis',(0.,0.,-1.));
#884=DIRECTION('',(0.,1.,0.));
#885=DIRECTION('center_axis',(0.,1.,0.));
#886=DIRECTION('ref_axis',(0.,0.,-1.));
#887=DIRECTION('center_axis',(3.33600668457078E-16,1.,0.));
#888=DIRECTION('ref_axis',(-1.,3.33600668457078E-16,0.));
#889=DIRECTION('center_axis',(-3.33600668457078E-16,-1.,0.));
#890=DIRECTION('ref_axis',(-1.,3.33600668457078E-16,0.));
#891=DIRECTION('',(3.33600668457078E-16,1.,0.));
#892=DIRECTION('center_axis',(-3.33600668457078E-16,-1.,0.));
#893=DIRECTION('ref_axis',(-1.,3.33600668457078E-16,0.));
#894=DIRECTION('center_axis',(0.,1.,0.));
#895=DIRECTION('ref_axis',(0.,0.,1.));
#896=DIRECTION('center_axis',(0.,-1.,0.));
#897=DIRECTION('ref_axis',(0.,0.,1.));
#898=DIRECTION('',(0.,1.,0.));
#899=DIRECTION('center_axis',(0.,-1.,0.));
#900=DIRECTION('ref_axis',(0.,0.,1.));
#901=DIRECTION('center_axis',(-1.11917643611407E-16,-1.,0.));
#902=DIRECTION('ref_axis',(1.,-1.11917643611407E-16,0.));
#903=DIRECTION('center_axis',(1.11917643611407E-16,1.,0.));
#904=DIRECTION('ref_axis',(1.,-1.11917643611407E-16,0.));
#905=DIRECTION('',(-1.11917643611407E-16,-1.,0.));
#906=DIRECTION('center_axis',(-1.11917643611407E-16,-1.,0.));
#907=DIRECTION('ref_axis',(1.,-1.11917643611407E-16,0.));
#908=DIRECTION('center_axis',(0.,1.,0.));
#909=DIRECTION('ref_axis',(0.,0.,1.));
#910=DIRECTION('center_axis',(0.,1.,0.));
#911=DIRECTION('ref_axis',(0.,0.,1.));
#912=DIRECTION('',(0.,-1.,0.));
#913=DIRECTION('center_axis',(0.,-1.,0.));
#914=DIRECTION('ref_axis',(0.,0.,1.));
#915=DIRECTION('center_axis',(0.,1.,0.));
#916=DIRECTION('ref_axis',(0.,0.,1.));
#917=DIRECTION('center_axis',(0.,-1.,0.));
#918=DIRECTION('ref_axis',(3.30681662608079E-14,0.,1.));
#919=DIRECTION('',(0.,-1.,0.));
#920=DIRECTION('center_axis',(0.,-1.,0.));
#921=DIRECTION('ref_axis',(4.01154803819637E-14,0.,1.));
#922=DIRECTION('',(0.,-1.,0.));
#923=DIRECTION('center_axis',(0.,-1.,0.));
#924=DIRECTION('ref_axis',(0.,0.,-1.));
#925=DIRECTION('center_axis',(0.,-1.,0.));
#926=DIRECTION('ref_axis',(0.,0.,-1.));
#927=DIRECTION('center_axis',(0.,-1.,0.));
#928=DIRECTION('ref_axis',(0.,0.,-1.));
#929=DIRECTION('center_axis',(0.,1.,0.));
#930=DIRECTION('ref_axis',(0.,0.,1.));
#931=DIRECTION('center_axis',(0.,1.,0.));
#932=DIRECTION('ref_axis',(0.,0.,1.));
#933=DIRECTION('',(-0.342020143530917,0.,0.939692620711204));
#934=DIRECTION('',(0.984807752924728,0.,0.173648178163054));
#935=DIRECTION('center_axis',(0.,1.,0.));
#936=DIRECTION('ref_axis',(0.,0.,1.));
#937=DIRECTION('',(-0.642787609436667,0.,-0.766044443328646));
#938=DIRECTION('',(-0.642787609436667,0.,0.766044443328646));
#939=DIRECTION('center_axis',(0.,1.,0.));
#940=DIRECTION('ref_axis',(0.,0.,1.));
#941=DIRECTION('',(0.984807752924728,0.,-0.173648178163054));
#942=DIRECTION('',(-0.342020143530917,0.,-0.939692620711204));
#943=DIRECTION('center_axis',(0.939692620711204,0.,-0.342020143530917));
#944=DIRECTION('ref_axis',(-0.342020143530917,0.,-0.939692620711204));
#945=DIRECTION('',(-0.342020139601066,0.,-0.939692622141553));
#946=DIRECTION('',(0.,-1.,0.));
#947=DIRECTION('center_axis',(0.,1.,0.));
#948=DIRECTION('ref_axis',(7.08274664544566E-11,0.,-1.));
#949=DIRECTION('center_axis',(0.,-1.,0.));
#950=DIRECTION('ref_axis',(1.77635683940025E-15,0.,1.));
#951=DIRECTION('',(0.,1.,0.));
#952=DIRECTION('center_axis',(0.939692620711204,0.,0.342020143530917));
#953=DIRECTION('ref_axis',(0.342020143530917,0.,-0.939692620711204));
#954=DIRECTION('',(0.342020143530917,0.,-0.939692620711204));
#955=DIRECTION('center_axis',(-0.173648178163055,0.,0.984807752924728));
#956=DIRECTION('ref_axis',(0.984807752924728,0.,0.173648178163055));
#957=DIRECTION('',(0.984807752924728,0.,0.173648178163054));
#958=DIRECTION('',(0.,-1.,0.));
#959=DIRECTION('center_axis',(0.,1.,0.));
#960=DIRECTION('ref_axis',(0.,0.,1.));
#961=DIRECTION('center_axis',(0.,-1.,0.));
#962=DIRECTION('ref_axis',(2.66453525910038E-15,0.,1.));
#963=DIRECTION('',(0.,1.,0.));
#964=DIRECTION('center_axis',(-0.766044443328646,0.,0.642787609436667));
#965=DIRECTION('ref_axis',(0.642787609436667,0.,0.766044443328646));
#966=DIRECTION('',(0.642787609436667,0.,0.766044443328646));
#967=DIRECTION('center_axis',(-0.766044443328646,0.,-0.642787609436667));
#968=DIRECTION('ref_axis',(-0.642787609436667,0.,0.766044443328646));
#969=DIRECTION('',(-0.642787609436667,0.,0.766044443328646));
#970=DIRECTION('',(0.,-1.,0.));
#971=DIRECTION('center_axis',(0.,1.,0.));
#972=DIRECTION('ref_axis',(0.,0.,1.));
#973=DIRECTION('center_axis',(0.,-1.,0.));
#974=DIRECTION('ref_axis',(0.,0.,1.));
#975=DIRECTION('',(0.,1.,0.));
#976=DIRECTION('center_axis',(-0.173648178163055,0.,-0.984807752924728));
#977=DIRECTION('ref_axis',(-0.984807752924728,0.,0.173648178163055));
#978=DIRECTION('',(-0.984807752924728,0.,0.173648178163054));
#979=DIRECTION('center_axis',(0.,-1.,0.));
#980=DIRECTION('ref_axis',(0.,0.,-1.));
#981=DIRECTION('center_axis',(0.,1.,0.));
#982=DIRECTION('ref_axis',(0.,0.,1.));
#983=DIRECTION('center_axis',(0.,-1.,0.));
#984=DIRECTION('ref_axis',(0.,0.,-1.));
#985=DIRECTION('center_axis',(0.,-1.,0.));
#986=DIRECTION('ref_axis',(0.,0.,-1.));
#987=DIRECTION('center_axis',(0.,1.,0.));
#988=DIRECTION('ref_axis',(0.,0.,1.));
#989=DIRECTION('center_axis',(0.,1.,0.));
#990=DIRECTION('ref_axis',(0.,0.,1.));
#991=DIRECTION('center_axis',(0.,1.,0.));
#992=DIRECTION('ref_axis',(0.,0.,1.));
#993=DIRECTION('center_axis',(0.,1.,0.));
#994=DIRECTION('ref_axis',(0.,0.,1.));
#995=DIRECTION('center_axis',(0.,1.,0.));
#996=DIRECTION('ref_axis',(0.,0.,1.));
#997=DIRECTION('',(0.,0.,-1.));
#998=DIRECTION('center_axis',(0.,-1.,0.));
#999=DIRECTION('ref_axis',(0.,0.,1.));
#1000=DIRECTION('',(0.,0.,1.));
#1001=DIRECTION('',(1.,0.,0.));
#1002=DIRECTION('center_axis',(0.,-1.,0.));
#1003=DIRECTION('ref_axis',(-1.68051336735253E-14,0.,1.));
#1004=DIRECTION('',(-1.,0.,0.));
#1005=DIRECTION('',(0.,0.,1.));
#1006=DIRECTION('',(0.,0.,-1.));
#1007=DIRECTION('',(-1.,0.,0.));
#1008=DIRECTION('center_axis',(0.,-1.,0.));
#1009=DIRECTION('ref_axis',(0.,0.,1.));
#1010=DIRECTION('',(1.,0.,0.));
#1011=DIRECTION('center_axis',(0.,1.,0.));
#1012=DIRECTION('ref_axis',(4.48962093128917E-11,0.,-1.));
#1013=DIRECTION('center_axis',(0.,-1.,0.));
#1014=DIRECTION('ref_axis',(1.0842021724855E-14,0.,1.));
#1015=DIRECTION('',(0.,1.,0.));
#1016=DIRECTION('',(0.,-1.,0.));
#1017=DIRECTION('center_axis',(1.,0.,0.));
#1018=DIRECTION('ref_axis',(0.,0.,-1.));
#1019=DIRECTION('',(0.,0.,-1.));
#1020=DIRECTION('',(0.,-1.,0.));
#1021=DIRECTION('center_axis',(0.,0.,1.));
#1022=DIRECTION('ref_axis',(1.,0.,0.));
#1023=DIRECTION('',(1.,0.,0.));
#1024=DIRECTION('',(0.,-1.,0.));
#1025=DIRECTION('center_axis',(0.,1.,0.));
#1026=DIRECTION('ref_axis',(0.,0.,1.));
#1027=DIRECTION('center_axis',(0.,-1.,0.));
#1028=DIRECTION('ref_axis',(0.,0.,1.));
#1029=DIRECTION('',(0.,-1.,0.));
#1030=DIRECTION('center_axis',(0.,0.,1.));
#1031=DIRECTION('ref_axis',(1.,0.,0.));
#1032=DIRECTION('',(0.,1.,0.));
#1033=DIRECTION('',(1.,0.,0.));
#1034=DIRECTION('center_axis',(1.,0.,0.));
#1035=DIRECTION('ref_axis',(0.,0.,-1.));
#1036=DIRECTION('',(0.,0.,-1.));
#1037=DIRECTION('center_axis',(1.,0.,0.));
#1038=DIRECTION('ref_axis',(0.,0.,-1.));
#1039=DIRECTION('',(0.,1.,0.));
#1040=DIRECTION('',(0.,0.,-1.));
#1041=DIRECTION('center_axis',(0.,0.,1.));
#1042=DIRECTION('ref_axis',(1.,0.,0.));
#1043=DIRECTION('',(0.,1.,0.));
#1044=DIRECTION('',(1.,0.,0.));
#1045=DIRECTION('center_axis',(0.,1.,0.));
#1046=DIRECTION('ref_axis',(0.,0.,1.));
#1047=DIRECTION('center_axis',(0.,-1.,0.));
#1048=DIRECTION('ref_axis',(8.67361737988403E-15,0.,1.));
#1049=DIRECTION('',(0.,-1.,0.));
#1050=DIRECTION('center_axis',(0.,0.,1.));
#1051=DIRECTION('ref_axis',(1.,0.,0.));
#1052=DIRECTION('',(1.,0.,0.));
#1053=DIRECTION('',(0.,-1.,0.));
#1054=DIRECTION('center_axis',(1.,0.,0.));
#1055=DIRECTION('ref_axis',(0.,0.,-1.));
#1056=DIRECTION('',(0.,0.,-1.));
#1057=DIRECTION('center_axis',(0.,1.,0.));
#1058=DIRECTION('ref_axis',(0.,0.,1.));
#1059=CARTESIAN_POINT('',(0.,0.,0.));
#1060=CARTESIAN_POINT('Origin',(3.8,-5.25,0.));
#1061=CARTESIAN_POINT('',(3.8,0.25,-0.3));
#1062=CARTESIAN_POINT('Origin',(3.8,0.25,0.));
#1063=CARTESIAN_POINT('',(3.8,-5.25,-0.3));
#1064=CARTESIAN_POINT('',(3.8,-5.25,-0.3));
#1065=CARTESIAN_POINT('Origin',(3.8,-5.25,0.));
#1066=CARTESIAN_POINT('Origin',(-3.8,-3.75,0.));
#1067=CARTESIAN_POINT('',(-3.5,0.25,-3.67394039744206E-17));
#1068=CARTESIAN_POINT('Origin',(-3.8,0.25,0.));
#1069=CARTESIAN_POINT('',(-3.5,-3.75,-3.67394039744206E-17));
#1070=CARTESIAN_POINT('',(-3.5,-3.75,-3.67394039744206E-17));
#1071=CARTESIAN_POINT('Origin',(-3.8,-3.75,0.));
#1072=CARTESIAN_POINT('Origin',(0.,0.25,0.));
#1073=CARTESIAN_POINT('',(-6.42939569552361E-16,0.25,5.25));
#1074=CARTESIAN_POINT('Origin',(0.,0.25,0.));
#1075=CARTESIAN_POINT('',(-6.42939569552361E-16,0.,5.25));
#1076=CARTESIAN_POINT('',(-6.42939569552361E-16,0.25,5.25));
#1077=CARTESIAN_POINT('Origin',(0.,0.,0.));
#1078=CARTESIAN_POINT('Origin',(0.,3.,0.));
#1079=CARTESIAN_POINT('',(-2.05212085937725,-0.25,-5.63815572507602));
#1080=CARTESIAN_POINT('',(2.05212085995158,-0.25,-5.63815572486698));
#1081=CARTESIAN_POINT('Origin',(0.,-0.25,0.));
#1082=CARTESIAN_POINT('',(-2.05212085995158,1.24999958842943E-10,-5.63815572486698));
#1083=CARTESIAN_POINT('',(-2.05212086,-0.125,-5.638155725));
#1084=CARTESIAN_POINT('',(-5.90884651797577,2.50000107421267E-10,1.04188906655441));
#1085=CARTESIAN_POINT('Origin',(0.,2.50000107421267E-10,0.));
#1086=CARTESIAN_POINT('',(-5.90884651797577,-0.25,1.04188906655441));
#1087=CARTESIAN_POINT('',(-5.90884651788023,1.375,1.04188906709624));
#1088=CARTESIAN_POINT('',(-3.85672565721046,-0.25,4.59626665947642));
#1089=CARTESIAN_POINT('Origin',(0.,-0.25,0.));
#1090=CARTESIAN_POINT('',(-3.85672565721046,1.38888893152593E-10,4.59626665947642));
#1091=CARTESIAN_POINT('',(-3.85672565633807,1.375,4.59626666020845));
#1092=CARTESIAN_POINT('',(-7.34788079488412E-16,2.50000020685093E-10,6.));
#1093=CARTESIAN_POINT('Origin',(0.,2.50000107421267E-10,0.));
#1094=CARTESIAN_POINT('',(-7.34788079488412E-16,3.,6.));
#1095=CARTESIAN_POINT('',(-7.34788079488412E-16,3.,6.));
#1096=CARTESIAN_POINT('Origin',(0.,3.,0.));
#1097=CARTESIAN_POINT('',(3.85672565753593,2.50000107421267E-10,4.59626665920332));
#1098=CARTESIAN_POINT('Origin',(0.,2.50000107421267E-10,0.));
#1099=CARTESIAN_POINT('',(3.85672565753593,-0.25,4.59626665920332));
#1100=CARTESIAN_POINT('',(3.8567256571635,1.375,4.59626665951583));
#1101=CARTESIAN_POINT('',(5.90884651806933,-0.25,1.04188906602383));
#1102=CARTESIAN_POINT('Origin',(0.,-0.25,0.));
#1103=CARTESIAN_POINT('',(5.90884651807032,1.25000026605579E-10,1.0418890660182));
#1104=CARTESIAN_POINT('',(5.90884651806734,1.375,1.04188906603509));
#1105=CARTESIAN_POINT('',(2.05212085995158,1.24999958842943E-10,-5.63815572486698));
#1106=CARTESIAN_POINT('Origin',(0.,2.50000107421267E-10,0.));
#1107=CARTESIAN_POINT('',(2.05212086,-0.125,-5.638155725));
#1108=CARTESIAN_POINT('Origin',(0.,8.75,0.));
#1109=CARTESIAN_POINT('',(-7.1947999449907E-16,3.,5.875));
#1110=CARTESIAN_POINT('Origin',(0.,3.,0.));
#1111=CARTESIAN_POINT('',(-7.1947999449907E-16,8.75,5.875));
#1112=CARTESIAN_POINT('',(-7.1947999449907E-16,8.75,5.875));
#1113=CARTESIAN_POINT('Origin',(0.,8.75,0.));
#1114=CARTESIAN_POINT('Origin',(0.,6.75,0.));
#1115=CARTESIAN_POINT('',(1.3,6.75,-1.59204083889156E-16));
#1116=CARTESIAN_POINT('Origin',(-2.59820068819228E-41,6.75,0.));
#1117=CARTESIAN_POINT('',(1.3,8.75,-1.59204083889156E-16));
#1118=CARTESIAN_POINT('',(1.3,6.75,-1.59204083889156E-16));
#1119=CARTESIAN_POINT('Origin',(6.67201336914157E-16,8.75,0.));
#1120=CARTESIAN_POINT('Origin',(3.5875,8.7,0.));
#1121=CARTESIAN_POINT('',(3.5875,8.7,-1.3));
#1122=CARTESIAN_POINT('Origin',(3.5875,8.7,0.));
#1123=CARTESIAN_POINT('',(3.5875,8.75,-1.3));
#1124=CARTESIAN_POINT('',(3.5875,8.7,-1.3));
#1125=CARTESIAN_POINT('Origin',(3.5875,8.75,0.));
#1126=CARTESIAN_POINT('Origin',(0.,6.75,0.));
#1127=CARTESIAN_POINT('',(-3.875,6.75,-4.74550634669599E-16));
#1128=CARTESIAN_POINT('Origin',(-8.71654424425797E-42,6.75,0.));
#1129=CARTESIAN_POINT('',(-3.875,2.,-4.74550634669599E-16));
#1130=CARTESIAN_POINT('',(-3.875,6.75,-4.74550634669599E-16));
#1131=CARTESIAN_POINT('Origin',(-5.31608807154183E-16,2.,0.));
#1132=CARTESIAN_POINT('Origin',(3.5875,8.7,0.));
#1133=CARTESIAN_POINT('',(3.5875,8.75,-1.2));
#1134=CARTESIAN_POINT('Origin',(3.5875,8.75,0.));
#1135=CARTESIAN_POINT('',(3.5875,8.7,-1.2));
#1136=CARTESIAN_POINT('',(3.5875,8.7,-1.2));
#1137=CARTESIAN_POINT('Origin',(3.5875,8.7,0.));
#1138=CARTESIAN_POINT('Origin',(3.5875,8.7,0.));
#1139=CARTESIAN_POINT('',(3.63750000008124,8.7,0.798435971128478));
#1140=CARTESIAN_POINT('',(3.5375,8.7,0.798435971066783));
#1141=CARTESIAN_POINT('Origin',(3.5875,8.7,0.));
#1142=CARTESIAN_POINT('',(3.5374999997088,8.75,0.798435971048547));
#1143=CARTESIAN_POINT('',(3.5375,8.725,0.798435971));
#1144=CARTESIAN_POINT('',(3.63750000037244,8.75,0.798435971110242));
#1145=CARTESIAN_POINT('Origin',(3.5875,8.75,0.));
#1146=CARTESIAN_POINT('',(3.63750000016249,8.725,0.79843597112339));
#1147=CARTESIAN_POINT('Origin',(3.4964,-5.25,0.3036));
#1148=CARTESIAN_POINT('Origin',(-5.313,0.25,5.313));
#1149=CARTESIAN_POINT('Origin',(-4.1036,-3.75,0.3036));
#1150=CARTESIAN_POINT('Origin',(-6.072,0.,-5.707984659));
#1151=CARTESIAN_POINT('',(1.88111078870783,0.,-5.16830941417085));
#1152=CARTESIAN_POINT('',(-1.88111078806885,-9.48676900924816E-17,-5.16830941418918));
#1153=CARTESIAN_POINT('Origin',(0.,0.,0.));
#1154=CARTESIAN_POINT('',(1.881110788,-2.16840434497101E-16,-5.168309414));
#1155=CARTESIAN_POINT('',(5.41644264180447,-4.74338450462408E-17,0.955064976965523));
#1156=CARTESIAN_POINT('',(5.416442642,-1.0842021724855E-16,0.955064977));
#1157=CARTESIAN_POINT('',(3.53533185365911,0.,4.21324443683289));
#1158=CARTESIAN_POINT('Origin',(0.,0.,0.));
#1159=CARTESIAN_POINT('',(3.535331853,-1.0842021724855E-16,4.213244437));
#1160=CARTESIAN_POINT('',(-3.53533185309502,-4.74338450462408E-17,4.21324443711324));
#1161=CARTESIAN_POINT('',(-3.535331853,-1.0842021724855E-16,4.213244437));
#1162=CARTESIAN_POINT('',(-5.41644264141384,-3.61400724161835E-17,0.955064978037555));
#1163=CARTESIAN_POINT('Origin',(0.,0.,0.));
#1164=CARTESIAN_POINT('',(-5.416442642,-1.0842021724855E-16,0.955064977));
#1165=CARTESIAN_POINT('',(-1.881110788,-2.16840434497101E-16,-5.168309414));
#1166=CARTESIAN_POINT('Origin',(-1.881110788,-0.25,-5.168309414));
#1167=CARTESIAN_POINT('',(-1.88111078847698,-0.25,-5.16830941404063));
#1168=CARTESIAN_POINT('',(-1.88111078918719,-0.25,-5.16830941472207));
#1169=CARTESIAN_POINT('',(-1.881110788,-0.125,-5.168309414));
#1170=CARTESIAN_POINT('Origin',(0.,-0.25,0.));
#1171=CARTESIAN_POINT('',(1.88111078870783,-0.25,-5.16830941417085));
#1172=CARTESIAN_POINT('Origin',(0.,-0.25,0.));
#1173=CARTESIAN_POINT('',(1.88111078927795,-0.125,-5.16830941396334));
#1174=CARTESIAN_POINT('Origin',(1.881110788,-0.25,-5.168309414));
#1175=CARTESIAN_POINT('',(1.966615824,-0.25,-5.4032325695));
#1176=CARTESIAN_POINT('Origin',(5.416442642,-0.25,0.955064977));
#1177=CARTESIAN_POINT('',(5.41644264180447,-0.25,0.955064976965523));
#1178=CARTESIAN_POINT('',(5.66264458,-0.25,0.9984770215));
#1179=CARTESIAN_POINT('',(5.416442642,-0.125,0.955064977));
#1180=CARTESIAN_POINT('Origin',(0.,-0.25,0.));
#1181=CARTESIAN_POINT('',(3.53533185365911,-0.25,4.21324443683289));
#1182=CARTESIAN_POINT('Origin',(0.,-0.25,0.));
#1183=CARTESIAN_POINT('',(3.53533185412817,-0.125,4.21324443643929));
#1184=CARTESIAN_POINT('Origin',(3.535331853,-0.25,4.213244437));
#1185=CARTESIAN_POINT('',(3.6960287555,-0.25,4.404755548));
#1186=CARTESIAN_POINT('Origin',(-3.535331853,-0.25,4.213244437));
#1187=CARTESIAN_POINT('',(-3.53533185309502,-0.25,4.21324443711324));
#1188=CARTESIAN_POINT('',(-3.6960287555,-0.25,4.404755548));
#1189=CARTESIAN_POINT('',(-3.535331853,-0.125,4.213244437));
#1190=CARTESIAN_POINT('Origin',(0.,-0.25,0.));
#1191=CARTESIAN_POINT('',(-5.41644264141384,-0.25,0.955064978037554));
#1192=CARTESIAN_POINT('Origin',(0.,-0.25,0.));
#1193=CARTESIAN_POINT('',(-5.41644264116996,-0.125,0.955064979420689));
#1194=CARTESIAN_POINT('Origin',(-5.416442642,-0.25,0.955064977));
#1195=CARTESIAN_POINT('',(-5.66264458,-0.25,0.9984770215));
#1196=CARTESIAN_POINT('Origin',(-2.07674631,-0.25,-5.163319271));
#1197=CARTESIAN_POINT('Origin',(-6.072,3.,-6.072));
#1198=CARTESIAN_POINT('Origin',(3.521090765,-0.25,4.618113869));
#1199=CARTESIAN_POINT('Origin',(-5.923087606,-0.25,4.618113869));
#1200=CARTESIAN_POINT('Origin',(-5.9455,8.75,-5.9455));
#1201=CARTESIAN_POINT('Origin',(-3.9215,6.75,-3.9215));
#1202=CARTESIAN_POINT('Origin',(2.2719,8.7,-1.3156));
#1203=CARTESIAN_POINT('Origin',(-3.9215,2.,-3.9215));
#1204=CARTESIAN_POINT('Origin',(2.3731,8.75,-1.2144));
#1205=CARTESIAN_POINT('',(3.53749999961173,8.75,-0.0500000003882666));
#1206=CARTESIAN_POINT('',(3.53749999986301,8.75,-0.798435971124987));
#1207=CARTESIAN_POINT('',(3.5374999994176,8.75,0.));
#1208=CARTESIAN_POINT('',(3.63750000020868,8.75,-0.798435971120497));
#1209=CARTESIAN_POINT('Origin',(3.5875,8.75,0.));
#1210=CARTESIAN_POINT('',(3.63750000038827,8.75,-0.0500000003882666));
#1211=CARTESIAN_POINT('',(3.6375000005824,8.75,0.));
#1212=CARTESIAN_POINT('',(4.38593597110512,8.75,-0.0500000004543252));
#1213=CARTESIAN_POINT('',(3.5875,8.75,-0.0500000005823999));
#1214=CARTESIAN_POINT('',(4.38593597104855,8.75,0.0500000002911999));
#1215=CARTESIAN_POINT('Origin',(3.5875,8.75,0.));
#1216=CARTESIAN_POINT('',(3.63750000038827,8.75,0.0500000003882665));
#1217=CARTESIAN_POINT('',(3.5875,8.75,0.0500000005823997));
#1218=CARTESIAN_POINT('',(3.6375000005824,8.75,0.));
#1219=CARTESIAN_POINT('',(3.53749999961173,8.75,0.0500000003882665));
#1220=CARTESIAN_POINT('',(3.5374999994176,8.75,0.));
#1221=CARTESIAN_POINT('',(2.78906402888014,8.75,0.0500000002188691));
#1222=CARTESIAN_POINT('',(3.5875,8.75,0.0500000005823997));
#1223=CARTESIAN_POINT('',(2.78906402895145,8.75,-0.0500000002912));
#1224=CARTESIAN_POINT('Origin',(3.5875,8.75,0.));
#1225=CARTESIAN_POINT('',(3.5875,8.75,-0.0500000005823999));
#1226=CARTESIAN_POINT('Origin',(3.5875,8.7,0.));
#1227=CARTESIAN_POINT('',(3.53750000015421,8.7,-0.798435971143223));
#1228=CARTESIAN_POINT('',(3.63749999991748,8.7,-0.798435971138733));
#1229=CARTESIAN_POINT('Origin',(3.5875,8.7,0.));
#1230=CARTESIAN_POINT('',(3.63749999983497,8.725,-0.798435971143901));
#1231=CARTESIAN_POINT('',(3.53750000030842,8.725,-0.79843597115288));
#1232=CARTESIAN_POINT('Origin',(3.5375,8.7,-0.05));
#1233=CARTESIAN_POINT('',(3.5375,8.7,-0.05));
#1234=CARTESIAN_POINT('',(3.5375,8.7,-0.4242179855));
#1235=CARTESIAN_POINT('',(3.5375,8.725,-0.05));
#1236=CARTESIAN_POINT('Origin',(2.789064029,8.7,-0.05));
#1237=CARTESIAN_POINT('',(2.78906402893322,8.7,-0.05));
#1238=CARTESIAN_POINT('',(3.1632820145,8.7,-0.05));
#1239=CARTESIAN_POINT('',(2.789064029,8.725,-0.05));
#1240=CARTESIAN_POINT('Origin',(3.5875,8.7,0.));
#1241=CARTESIAN_POINT('',(2.78906402886191,8.7,0.0499999999276693));
#1242=CARTESIAN_POINT('Origin',(3.5875,8.7,0.));
#1243=CARTESIAN_POINT('',(2.78906402885738,8.725,0.0499999998553385));
#1244=CARTESIAN_POINT('Origin',(2.789064029,8.7,0.05));
#1245=CARTESIAN_POINT('',(3.5375,8.7,0.05));
#1246=CARTESIAN_POINT('',(3.5375,8.725,0.05));
#1247=CARTESIAN_POINT('',(3.1632820145,8.7,0.05));
#1248=CARTESIAN_POINT('Origin',(3.5375,8.7,0.798435971));
#1249=CARTESIAN_POINT('',(3.5375,8.7,0.4242179855));
#1250=CARTESIAN_POINT('Origin',(3.6375,8.7,0.798435971));
#1251=CARTESIAN_POINT('',(3.6375,8.7,0.05));
#1252=CARTESIAN_POINT('',(3.6375,8.725,0.05));
#1253=CARTESIAN_POINT('',(3.6375,8.7,0.4242179855));
#1254=CARTESIAN_POINT('Origin',(3.6375,8.7,0.05));
#1255=CARTESIAN_POINT('',(4.38593597106678,8.7,0.05));
#1256=CARTESIAN_POINT('',(4.385935971,8.725,0.05));
#1257=CARTESIAN_POINT('',(4.0117179855,8.7,0.05));
#1258=CARTESIAN_POINT('Origin',(3.5875,8.7,0.));
#1259=CARTESIAN_POINT('',(4.38593597112335,8.7,-0.0500000001631252));
#1260=CARTESIAN_POINT('Origin',(3.5875,8.7,0.));
#1261=CARTESIAN_POINT('',(4.38593597111313,8.725,-0.0500000003262505));
#1262=CARTESIAN_POINT('Origin',(3.6375,8.7,-0.05));
#1263=CARTESIAN_POINT('',(3.6375,8.7,-0.05));
#1264=CARTESIAN_POINT('',(4.0117179855,8.7,-0.05));
#1265=CARTESIAN_POINT('',(3.6375,8.725,-0.05));
#1266=CARTESIAN_POINT('Origin',(3.6375,8.7,-0.05));
#1267=CARTESIAN_POINT('',(3.6375,8.7,-0.4242179855));
#1268=CARTESIAN_POINT('Origin',(2.7779,8.7,-0.8096));
#1269=UNCERTAINTY_MEASURE_WITH_UNIT(LENGTH_MEASURE(0.01),#1273,
'DISTANCE_ACCURACY_VALUE',
'Maximum model space distance between geometric entities at asserted c
onnectivities');
#1270=UNCERTAINTY_MEASURE_WITH_UNIT(LENGTH_MEASURE(0.01),#1273,
'DISTANCE_ACCURACY_VALUE',
'Maximum model space distance between geometric entities at asserted c
onnectivities');
#1271=(
GEOMETRIC_REPRESENTATION_CONTEXT(3)
GLOBAL_UNCERTAINTY_ASSIGNED_CONTEXT((#1269))
GLOBAL_UNIT_ASSIGNED_CONTEXT((#1273,#1275,#1276))
REPRESENTATION_CONTEXT('','3D')
);
#1272=(
GEOMETRIC_REPRESENTATION_CONTEXT(3)
GLOBAL_UNCERTAINTY_ASSIGNED_CONTEXT((#1270))
GLOBAL_UNIT_ASSIGNED_CONTEXT((#1273,#1275,#1276))
REPRESENTATION_CONTEXT('','3D')
);
#1273=(
LENGTH_UNIT()
NAMED_UNIT(*)
SI_UNIT(.MILLI.,.METRE.)
);
#1274=(
LENGTH_UNIT()
NAMED_UNIT(*)
SI_UNIT($,.METRE.)
);
#1275=(
NAMED_UNIT(*)
PLANE_ANGLE_UNIT()
SI_UNIT($,.RADIAN.)
);
#1276=(
NAMED_UNIT(*)
SI_UNIT($,.STERADIAN.)
SOLID_ANGLE_UNIT()
);
#1277=SHAPE_DEFINITION_REPRESENTATION(#1278,#1279);
#1278=PRODUCT_DEFINITION_SHAPE('',$,#1281);
#1279=SHAPE_REPRESENTATION('',(#749),#1271);
#1280=PRODUCT_DEFINITION_CONTEXT('part definition',#1285,'design');
#1281=PRODUCT_DEFINITION('Buzzer','Buzzer',#1282,#1280);
#1282=PRODUCT_DEFINITION_FORMATION('',$,#1287);
#1283=PRODUCT_RELATED_PRODUCT_CATEGORY('Buzzer','Buzzer',(#1287));
#1284=APPLICATION_PROTOCOL_DEFINITION('international standard',
'automotive_design',2009,#1285);
#1285=APPLICATION_CONTEXT(
'Core Data for Automotive Mechanical Design Process');
#1286=PRODUCT_CONTEXT('part definition',#1285,'mechanical');
#1287=PRODUCT('Buzzer','Buzzer',$,(#1286));
#1288=PRESENTATION_STYLE_ASSIGNMENT((#1291));
#1289=PRESENTATION_STYLE_ASSIGNMENT((#1292));
#1290=PRESENTATION_STYLE_ASSIGNMENT((#1293));
#1291=SURFACE_STYLE_USAGE(.BOTH.,#1294);
#1292=SURFACE_STYLE_USAGE(.BOTH.,#1295);
#1293=SURFACE_STYLE_USAGE(.BOTH.,#1296);
#1294=SURFACE_SIDE_STYLE('',(#1297));
#1295=SURFACE_SIDE_STYLE('',(#1298));
#1296=SURFACE_SIDE_STYLE('',(#1299));
#1297=SURFACE_STYLE_FILL_AREA(#1300);
#1298=SURFACE_STYLE_FILL_AREA(#1301);
#1299=SURFACE_STYLE_FILL_AREA(#1302);
#1300=FILL_AREA_STYLE('Acier - Satin\X\E9',(#1303));
#1301=FILL_AREA_STYLE('Opaque(26,26,26)',(#1304));
#1302=FILL_AREA_STYLE('Opaque(229,235,237)',(#1305));
#1303=FILL_AREA_STYLE_COLOUR('Acier - Satin\X\E9',#1306);
#1304=FILL_AREA_STYLE_COLOUR('Opaque(26,26,26)',#1307);
#1305=FILL_AREA_STYLE_COLOUR('Opaque(229,235,237)',#1308);
#1306=COLOUR_RGB('Acier - Satin\X\E9',0.627450980392157,0.627450980392157,
0.627450980392157);
#1307=COLOUR_RGB('Opaque(26,26,26)',0.101960784313725,0.101960784313725,
0.101960784313725);
#1308=COLOUR_RGB('Opaque(229,235,237)',0.898039215686275,0.92156862745098,
0.929411764705882);
ENDSEC;
END-ISO-10303-21;
