ISO-10303-21;
HEADER;
/* Generated by software containing ST-Developer
 * from STEP Tools, Inc. (www.steptools.com) 
 */

FILE_DESCRIPTION(
/* description */ (''),
/* implementation_level */ '2;1');

FILE_NAME(
/* name */ 'Pin3.step',
/* time_stamp */ '2026-02-08T18:38:07+01:00',
/* author */ (''),
/* organization */ (''),
/* preprocessor_version */ 'ST-DEVELOPER v20.1',
/* originating_system */ 'Autodesk Translation Framework v14.24.0.0',
/* authorisation */ '');

FILE_SCHEMA (('AUTOMOTIVE_DESIGN { 1 0 10303 214 3 1 1 }'));
ENDSEC;

DATA;
#10=MECHANICAL_DESIGN_GEOMETRIC_PRESENTATION_REPRESENTATION('',(#13),#389);
#11=SHAPE_REPRESENTATION_RELATIONSHIP('SRR','None',#396,#12);
#12=ADVANCED_BREP_SHAPE_REPRESENTATION('',(#14),#388);
#13=STYLED_ITEM('',(#406),#14);
#14=MANIFOLD_SOLID_BREP('Corps1',#225);
#15=CYLINDRICAL_SURFACE('',#245,0.15);
#16=CYLINDRICAL_SURFACE('',#247,0.3);
#17=CYLINDRICAL_SURFACE('',#252,0.15);
#18=CYLINDRICAL_SURFACE('',#254,0.3);
#19=FACE_OUTER_BOUND('',#31,.T.);
#20=FACE_OUTER_BOUND('',#32,.T.);
#21=FACE_OUTER_BOUND('',#33,.T.);
#22=FACE_OUTER_BOUND('',#34,.T.);
#23=FACE_OUTER_BOUND('',#35,.T.);
#24=FACE_OUTER_BOUND('',#36,.T.);
#25=FACE_OUTER_BOUND('',#37,.T.);
#26=FACE_OUTER_BOUND('',#38,.T.);
#27=FACE_OUTER_BOUND('',#39,.T.);
#28=FACE_OUTER_BOUND('',#40,.T.);
#29=FACE_OUTER_BOUND('',#41,.T.);
#30=FACE_OUTER_BOUND('',#42,.T.);
#31=EDGE_LOOP('',(#145,#146,#147,#148,#149,#150,#151,#152,#153,#154));
#32=EDGE_LOOP('',(#155,#156,#157,#158));
#33=EDGE_LOOP('',(#159,#160,#161,#162));
#34=EDGE_LOOP('',(#163,#164,#165,#166));
#35=EDGE_LOOP('',(#167,#168,#169,#170));
#36=EDGE_LOOP('',(#171,#172,#173,#174));
#37=EDGE_LOOP('',(#175,#176,#177,#178));
#38=EDGE_LOOP('',(#179,#180,#181,#182));
#39=EDGE_LOOP('',(#183,#184,#185,#186));
#40=EDGE_LOOP('',(#187,#188,#189,#190));
#41=EDGE_LOOP('',(#191,#192,#193,#194));
#42=EDGE_LOOP('',(#195,#196,#197,#198,#199,#200,#201,#202,#203,#204));
#43=LINE('',#331,#65);
#44=LINE('',#333,#66);
#45=LINE('',#335,#67);
#46=LINE('',#341,#68);
#47=LINE('',#343,#69);
#48=LINE('',#344,#70);
#49=LINE('',#347,#71);
#50=LINE('',#349,#72);
#51=LINE('',#350,#73);
#52=LINE('',#354,#74);
#53=LINE('',#358,#75);
#54=LINE('',#361,#76);
#55=LINE('',#362,#77);
#56=LINE('',#365,#78);
#57=LINE('',#366,#79);
#58=LINE('',#369,#80);
#59=LINE('',#370,#81);
#60=LINE('',#374,#82);
#61=LINE('',#378,#83);
#62=LINE('',#381,#84);
#63=LINE('',#382,#85);
#64=LINE('',#384,#86);
#65=VECTOR('',#267,1000.);
#66=VECTOR('',#268,1000.);
#67=VECTOR('',#269,1000.);
#68=VECTOR('',#274,1000.);
#69=VECTOR('',#275,1000.);
#70=VECTOR('',#276,1000.);
#71=VECTOR('',#279,1000.);
#72=VECTOR('',#280,1000.);
#73=VECTOR('',#281,1000.);
#74=VECTOR('',#286,1000.);
#75=VECTOR('',#291,1000.);
#76=VECTOR('',#294,1000.);
#77=VECTOR('',#295,1000.);
#78=VECTOR('',#298,1000.);
#79=VECTOR('',#299,1000.);
#80=VECTOR('',#302,1000.);
#81=VECTOR('',#303,1000.);
#82=VECTOR('',#308,1000.);
#83=VECTOR('',#313,1000.);
#84=VECTOR('',#316,1000.);
#85=VECTOR('',#317,1000.);
#86=VECTOR('',#320,1000.);
#87=CIRCLE('',#240,0.15);
#88=CIRCLE('',#241,0.3);
#89=CIRCLE('',#242,0.15);
#90=CIRCLE('',#243,0.3);
#91=CIRCLE('',#246,0.15);
#92=CIRCLE('',#248,0.3);
#93=CIRCLE('',#253,0.15);
#94=CIRCLE('',#255,0.3);
#95=VERTEX_POINT('',#325);
#96=VERTEX_POINT('',#326);
#97=VERTEX_POINT('',#328);
#98=VERTEX_POINT('',#330);
#99=VERTEX_POINT('',#332);
#100=VERTEX_POINT('',#334);
#101=VERTEX_POINT('',#336);
#102=VERTEX_POINT('',#338);
#103=VERTEX_POINT('',#340);
#104=VERTEX_POINT('',#342);
#105=VERTEX_POINT('',#346);
#106=VERTEX_POINT('',#348);
#107=VERTEX_POINT('',#352);
#108=VERTEX_POINT('',#356);
#109=VERTEX_POINT('',#360);
#110=VERTEX_POINT('',#364);
#111=VERTEX_POINT('',#368);
#112=VERTEX_POINT('',#372);
#113=VERTEX_POINT('',#376);
#114=VERTEX_POINT('',#380);
#115=EDGE_CURVE('',#95,#96,#87,.T.);
#116=EDGE_CURVE('',#97,#95,#88,.T.);
#117=EDGE_CURVE('',#98,#97,#43,.T.);
#118=EDGE_CURVE('',#99,#98,#44,.T.);
#119=EDGE_CURVE('',#100,#99,#45,.T.);
#120=EDGE_CURVE('',#101,#100,#89,.T.);
#121=EDGE_CURVE('',#102,#101,#90,.T.);
#122=EDGE_CURVE('',#103,#102,#46,.T.);
#123=EDGE_CURVE('',#104,#103,#47,.T.);
#124=EDGE_CURVE('',#96,#104,#48,.T.);
#125=EDGE_CURVE('',#104,#105,#49,.T.);
#126=EDGE_CURVE('',#105,#106,#50,.T.);
#127=EDGE_CURVE('',#106,#96,#51,.T.);
#128=EDGE_CURVE('',#107,#106,#91,.T.);
#129=EDGE_CURVE('',#95,#107,#52,.T.);
#130=EDGE_CURVE('',#107,#108,#92,.T.);
#131=EDGE_CURVE('',#108,#97,#53,.T.);
#132=EDGE_CURVE('',#108,#109,#54,.T.);
#133=EDGE_CURVE('',#109,#98,#55,.T.);
#134=EDGE_CURVE('',#110,#99,#56,.T.);
#135=EDGE_CURVE('',#109,#110,#57,.T.);
#136=EDGE_CURVE('',#110,#111,#58,.T.);
#137=EDGE_CURVE('',#111,#100,#59,.T.);
#138=EDGE_CURVE('',#112,#111,#93,.T.);
#139=EDGE_CURVE('',#101,#112,#60,.T.);
#140=EDGE_CURVE('',#112,#113,#94,.T.);
#141=EDGE_CURVE('',#113,#102,#61,.T.);
#142=EDGE_CURVE('',#113,#114,#62,.T.);
#143=EDGE_CURVE('',#114,#103,#63,.T.);
#144=EDGE_CURVE('',#114,#105,#64,.T.);
#145=ORIENTED_EDGE('',*,*,#115,.F.);
#146=ORIENTED_EDGE('',*,*,#116,.F.);
#147=ORIENTED_EDGE('',*,*,#117,.F.);
#148=ORIENTED_EDGE('',*,*,#118,.F.);
#149=ORIENTED_EDGE('',*,*,#119,.F.);
#150=ORIENTED_EDGE('',*,*,#120,.F.);
#151=ORIENTED_EDGE('',*,*,#121,.F.);
#152=ORIENTED_EDGE('',*,*,#122,.F.);
#153=ORIENTED_EDGE('',*,*,#123,.F.);
#154=ORIENTED_EDGE('',*,*,#124,.F.);
#155=ORIENTED_EDGE('',*,*,#124,.T.);
#156=ORIENTED_EDGE('',*,*,#125,.T.);
#157=ORIENTED_EDGE('',*,*,#126,.T.);
#158=ORIENTED_EDGE('',*,*,#127,.T.);
#159=ORIENTED_EDGE('',*,*,#127,.F.);
#160=ORIENTED_EDGE('',*,*,#128,.F.);
#161=ORIENTED_EDGE('',*,*,#129,.F.);
#162=ORIENTED_EDGE('',*,*,#115,.T.);
#163=ORIENTED_EDGE('',*,*,#130,.T.);
#164=ORIENTED_EDGE('',*,*,#131,.T.);
#165=ORIENTED_EDGE('',*,*,#116,.T.);
#166=ORIENTED_EDGE('',*,*,#129,.T.);
#167=ORIENTED_EDGE('',*,*,#132,.T.);
#168=ORIENTED_EDGE('',*,*,#133,.T.);
#169=ORIENTED_EDGE('',*,*,#117,.T.);
#170=ORIENTED_EDGE('',*,*,#131,.F.);
#171=ORIENTED_EDGE('',*,*,#134,.T.);
#172=ORIENTED_EDGE('',*,*,#118,.T.);
#173=ORIENTED_EDGE('',*,*,#133,.F.);
#174=ORIENTED_EDGE('',*,*,#135,.T.);
#175=ORIENTED_EDGE('',*,*,#119,.T.);
#176=ORIENTED_EDGE('',*,*,#134,.F.);
#177=ORIENTED_EDGE('',*,*,#136,.T.);
#178=ORIENTED_EDGE('',*,*,#137,.T.);
#179=ORIENTED_EDGE('',*,*,#137,.F.);
#180=ORIENTED_EDGE('',*,*,#138,.F.);
#181=ORIENTED_EDGE('',*,*,#139,.F.);
#182=ORIENTED_EDGE('',*,*,#120,.T.);
#183=ORIENTED_EDGE('',*,*,#140,.T.);
#184=ORIENTED_EDGE('',*,*,#141,.T.);
#185=ORIENTED_EDGE('',*,*,#121,.T.);
#186=ORIENTED_EDGE('',*,*,#139,.T.);
#187=ORIENTED_EDGE('',*,*,#142,.T.);
#188=ORIENTED_EDGE('',*,*,#143,.T.);
#189=ORIENTED_EDGE('',*,*,#122,.T.);
#190=ORIENTED_EDGE('',*,*,#141,.F.);
#191=ORIENTED_EDGE('',*,*,#125,.F.);
#192=ORIENTED_EDGE('',*,*,#123,.T.);
#193=ORIENTED_EDGE('',*,*,#143,.F.);
#194=ORIENTED_EDGE('',*,*,#144,.T.);
#195=ORIENTED_EDGE('',*,*,#136,.F.);
#196=ORIENTED_EDGE('',*,*,#135,.F.);
#197=ORIENTED_EDGE('',*,*,#132,.F.);
#198=ORIENTED_EDGE('',*,*,#130,.F.);
#199=ORIENTED_EDGE('',*,*,#128,.T.);
#200=ORIENTED_EDGE('',*,*,#126,.F.);
#201=ORIENTED_EDGE('',*,*,#144,.F.);
#202=ORIENTED_EDGE('',*,*,#142,.F.);
#203=ORIENTED_EDGE('',*,*,#140,.F.);
#204=ORIENTED_EDGE('',*,*,#138,.T.);
#205=PLANE('',#239);
#206=PLANE('',#244);
#207=PLANE('',#249);
#208=PLANE('',#250);
#209=PLANE('',#251);
#210=PLANE('',#256);
#211=PLANE('',#257);
#212=PLANE('',#258);
#213=ADVANCED_FACE('',(#19),#205,.F.);
#214=ADVANCED_FACE('',(#20),#206,.T.);
#215=ADVANCED_FACE('',(#21),#15,.F.);
#216=ADVANCED_FACE('',(#22),#16,.T.);
#217=ADVANCED_FACE('',(#23),#207,.T.);
#218=ADVANCED_FACE('',(#24),#208,.T.);
#219=ADVANCED_FACE('',(#25),#209,.T.);
#220=ADVANCED_FACE('',(#26),#17,.F.);
#221=ADVANCED_FACE('',(#27),#18,.T.);
#222=ADVANCED_FACE('',(#28),#210,.T.);
#223=ADVANCED_FACE('',(#29),#211,.T.);
#224=ADVANCED_FACE('',(#30),#212,.T.);
#225=CLOSED_SHELL('',(#213,#214,#215,#216,#217,#218,#219,#220,#221,#222,
#223,#224));
#226=DERIVED_UNIT_ELEMENT(#228,1.);
#227=DERIVED_UNIT_ELEMENT(#391,-3.);
#228=(
MASS_UNIT()
NAMED_UNIT(*)
SI_UNIT(.KILO.,.GRAM.)
);
#229=DERIVED_UNIT((#226,#227));
#230=MEASURE_REPRESENTATION_ITEM('density measure',
POSITIVE_RATIO_MEASURE(7850.),#229);
#231=PROPERTY_DEFINITION_REPRESENTATION(#236,#233);
#232=PROPERTY_DEFINITION_REPRESENTATION(#237,#234);
#233=REPRESENTATION('material name',(#235),#388);
#234=REPRESENTATION('density',(#230),#388);
#235=DESCRIPTIVE_REPRESENTATION_ITEM('Acier','Acier');
#236=PROPERTY_DEFINITION('material property','material name',#398);
#237=PROPERTY_DEFINITION('material property','density of part',#398);
#238=AXIS2_PLACEMENT_3D('',#323,#259,#260);
#239=AXIS2_PLACEMENT_3D('',#324,#261,#262);
#240=AXIS2_PLACEMENT_3D('',#327,#263,#264);
#241=AXIS2_PLACEMENT_3D('',#329,#265,#266);
#242=AXIS2_PLACEMENT_3D('',#337,#270,#271);
#243=AXIS2_PLACEMENT_3D('',#339,#272,#273);
#244=AXIS2_PLACEMENT_3D('',#345,#277,#278);
#245=AXIS2_PLACEMENT_3D('',#351,#282,#283);
#246=AXIS2_PLACEMENT_3D('',#353,#284,#285);
#247=AXIS2_PLACEMENT_3D('',#355,#287,#288);
#248=AXIS2_PLACEMENT_3D('',#357,#289,#290);
#249=AXIS2_PLACEMENT_3D('',#359,#292,#293);
#250=AXIS2_PLACEMENT_3D('',#363,#296,#297);
#251=AXIS2_PLACEMENT_3D('',#367,#300,#301);
#252=AXIS2_PLACEMENT_3D('',#371,#304,#305);
#253=AXIS2_PLACEMENT_3D('',#373,#306,#307);
#254=AXIS2_PLACEMENT_3D('',#375,#309,#310);
#255=AXIS2_PLACEMENT_3D('',#377,#311,#312);
#256=AXIS2_PLACEMENT_3D('',#379,#314,#315);
#257=AXIS2_PLACEMENT_3D('',#383,#318,#319);
#258=AXIS2_PLACEMENT_3D('',#385,#321,#322);
#259=DIRECTION('axis',(0.,0.,1.));
#260=DIRECTION('refdir',(1.,0.,0.));
#261=DIRECTION('center_axis',(1.,0.,0.));
#262=DIRECTION('ref_axis',(0.,0.,-1.));
#263=DIRECTION('center_axis',(-1.,0.,0.));
#264=DIRECTION('ref_axis',(0.,0.,-1.));
#265=DIRECTION('center_axis',(1.,0.,0.));
#266=DIRECTION('ref_axis',(0.,0.,-1.));
#267=DIRECTION('',(0.,-1.,0.));
#268=DIRECTION('',(0.,0.,1.));
#269=DIRECTION('',(0.,1.,0.));
#270=DIRECTION('center_axis',(-1.,0.,0.));
#271=DIRECTION('ref_axis',(0.,0.,-1.));
#272=DIRECTION('center_axis',(1.,0.,0.));
#273=DIRECTION('ref_axis',(0.,0.,-1.));
#274=DIRECTION('',(0.,1.,0.));
#275=DIRECTION('',(0.,0.,-1.));
#276=DIRECTION('',(0.,-1.,0.));
#277=DIRECTION('center_axis',(0.,-2.19770710638954E-16,1.));
#278=DIRECTION('ref_axis',(0.,-1.,-2.19770710638954E-16));
#279=DIRECTION('',(1.,0.,0.));
#280=DIRECTION('',(0.,1.,2.19770710638954E-16));
#281=DIRECTION('',(-1.,0.,0.));
#282=DIRECTION('center_axis',(1.,0.,0.));
#283=DIRECTION('ref_axis',(0.,0.,-1.));
#284=DIRECTION('center_axis',(-1.,0.,0.));
#285=DIRECTION('ref_axis',(0.,0.,-1.));
#286=DIRECTION('',(1.,0.,0.));
#287=DIRECTION('center_axis',(1.,0.,0.));
#288=DIRECTION('ref_axis',(0.,0.,-1.));
#289=DIRECTION('center_axis',(-1.,0.,0.));
#290=DIRECTION('ref_axis',(0.,0.,-1.));
#291=DIRECTION('',(-1.,0.,0.));
#292=DIRECTION('center_axis',(0.,0.,1.));
#293=DIRECTION('ref_axis',(1.,0.,0.));
#294=DIRECTION('',(0.,1.,0.));
#295=DIRECTION('',(-1.,0.,0.));
#296=DIRECTION('center_axis',(0.,1.,0.));
#297=DIRECTION('ref_axis',(0.,0.,1.));
#298=DIRECTION('',(-1.,0.,0.));
#299=DIRECTION('',(0.,0.,-1.));
#300=DIRECTION('center_axis',(0.,0.,-1.));
#301=DIRECTION('ref_axis',(-1.,0.,0.));
#302=DIRECTION('',(0.,-1.,0.));
#303=DIRECTION('',(-1.,0.,0.));
#304=DIRECTION('center_axis',(1.,0.,0.));
#305=DIRECTION('ref_axis',(0.,0.,-1.));
#306=DIRECTION('center_axis',(-1.,0.,0.));
#307=DIRECTION('ref_axis',(0.,0.,-1.));
#308=DIRECTION('',(1.,0.,0.));
#309=DIRECTION('center_axis',(1.,0.,0.));
#310=DIRECTION('ref_axis',(0.,0.,-1.));
#311=DIRECTION('center_axis',(-1.,0.,0.));
#312=DIRECTION('ref_axis',(0.,-1.44560289664734E-15,-1.));
#313=DIRECTION('',(-1.,0.,0.));
#314=DIRECTION('center_axis',(0.,0.,-1.));
#315=DIRECTION('ref_axis',(-1.,0.,0.));
#316=DIRECTION('',(0.,-1.,0.));
#317=DIRECTION('',(-1.,0.,0.));
#318=DIRECTION('center_axis',(0.,-1.,0.));
#319=DIRECTION('ref_axis',(0.,0.,-1.));
#320=DIRECTION('',(0.,0.,1.));
#321=DIRECTION('center_axis',(1.,0.,0.));
#322=DIRECTION('ref_axis',(0.,0.,-1.));
#323=CARTESIAN_POINT('',(0.,0.,0.));
#324=CARTESIAN_POINT('Origin',(-1.125,-2.675,0.3325));
#325=CARTESIAN_POINT('',(-1.125,-2.7798332870113,0.375));
#326=CARTESIAN_POINT('',(-1.125,-2.92974993051695,0.23));
#327=CARTESIAN_POINT('Origin',(-1.125,-2.92974993051695,0.38));
#328=CARTESIAN_POINT('',(-1.125,-2.48,0.665));
#329=CARTESIAN_POINT('Origin',(-1.125,-2.48,0.365));
#330=CARTESIAN_POINT('',(-1.125,-2.2,0.665));
#331=CARTESIAN_POINT('',(-1.125,-2.675,0.665));
#332=CARTESIAN_POINT('',(-1.125,-2.2,0.435));
#333=CARTESIAN_POINT('',(-1.125,-2.2,0.3325));
#334=CARTESIAN_POINT('',(-1.125,-2.40025006948305,0.435));
#335=CARTESIAN_POINT('',(-1.125,-2.675,0.435));
#336=CARTESIAN_POINT('',(-1.125,-2.5501667129887,0.29));
#337=CARTESIAN_POINT('Origin',(-1.125,-2.40025006948305,0.285));
#338=CARTESIAN_POINT('',(-1.125,-2.85,0.));
#339=CARTESIAN_POINT('Origin',(-1.125,-2.85,0.3));
#340=CARTESIAN_POINT('',(-1.125,-3.15,0.));
#341=CARTESIAN_POINT('',(-1.125,-2.675,0.));
#342=CARTESIAN_POINT('',(-1.125,-3.15,0.23));
#343=CARTESIAN_POINT('',(-1.125,-3.15,0.3325));
#344=CARTESIAN_POINT('',(-1.125,-2.675,0.23));
#345=CARTESIAN_POINT('Origin',(-1.125,-2.965,0.23));
#346=CARTESIAN_POINT('',(-0.825,-3.15,0.23));
#347=CARTESIAN_POINT('',(-1.125,-3.15,0.23));
#348=CARTESIAN_POINT('',(-0.825,-2.92974993051695,0.23));
#349=CARTESIAN_POINT('',(-0.825,-2.965,0.23));
#350=CARTESIAN_POINT('',(-1.125,-2.92974993051695,0.23));
#351=CARTESIAN_POINT('Origin',(-1.125,-2.92974993051695,0.38));
#352=CARTESIAN_POINT('',(-0.825,-2.7798332870113,0.375));
#353=CARTESIAN_POINT('Origin',(-0.825,-2.92974993051695,0.38));
#354=CARTESIAN_POINT('',(-1.125,-2.7798332870113,0.375));
#355=CARTESIAN_POINT('Origin',(-1.125,-2.48,0.365));
#356=CARTESIAN_POINT('',(-0.825,-2.48,0.665));
#357=CARTESIAN_POINT('Origin',(-0.825,-2.48,0.365));
#358=CARTESIAN_POINT('',(-1.125,-2.48,0.665));
#359=CARTESIAN_POINT('Origin',(-1.125,-2.49,0.665));
#360=CARTESIAN_POINT('',(-0.825,-2.2,0.665));
#361=CARTESIAN_POINT('',(-0.825,-2.49,0.665));
#362=CARTESIAN_POINT('',(-1.125,-2.2,0.665));
#363=CARTESIAN_POINT('Origin',(-1.125,-2.2,0.55));
#364=CARTESIAN_POINT('',(-0.825,-2.2,0.435));
#365=CARTESIAN_POINT('',(-1.125,-2.2,0.435));
#366=CARTESIAN_POINT('',(-0.825,-2.2,0.55));
#367=CARTESIAN_POINT('Origin',(-1.125,-2.375,0.435));
#368=CARTESIAN_POINT('',(-0.825,-2.40025006948305,0.435));
#369=CARTESIAN_POINT('',(-0.825,-2.375,0.435));
#370=CARTESIAN_POINT('',(-1.125,-2.40025006948305,0.435));
#371=CARTESIAN_POINT('Origin',(-1.125,-2.40025006948305,0.285));
#372=CARTESIAN_POINT('',(-0.825,-2.5501667129887,0.29));
#373=CARTESIAN_POINT('Origin',(-0.825,-2.40025006948305,0.285));
#374=CARTESIAN_POINT('',(-1.125,-2.5501667129887,0.29));
#375=CARTESIAN_POINT('Origin',(-1.125,-2.85,0.3));
#376=CARTESIAN_POINT('',(-0.825,-2.85,0.));
#377=CARTESIAN_POINT('Origin',(-0.825,-2.85,0.3));
#378=CARTESIAN_POINT('',(-1.125,-2.85,0.));
#379=CARTESIAN_POINT('Origin',(-1.125,-2.85,0.));
#380=CARTESIAN_POINT('',(-0.825,-3.15,0.));
#381=CARTESIAN_POINT('',(-0.825,-2.85,0.));
#382=CARTESIAN_POINT('',(-1.125,-3.15,0.));
#383=CARTESIAN_POINT('Origin',(-1.125,-3.15,0.115));
#384=CARTESIAN_POINT('',(-0.825,-3.15,0.115));
#385=CARTESIAN_POINT('Origin',(-0.825,-2.675,0.3325));
#386=UNCERTAINTY_MEASURE_WITH_UNIT(LENGTH_MEASURE(0.01),#390,
'DISTANCE_ACCURACY_VALUE',
'Maximum model space distance between geometric entities at asserted c
onnectivities');
#387=UNCERTAINTY_MEASURE_WITH_UNIT(LENGTH_MEASURE(0.01),#390,
'DISTANCE_ACCURACY_VALUE',
'Maximum model space distance between geometric entities at asserted c
onnectivities');
#388=(
GEOMETRIC_REPRESENTATION_CONTEXT(3)
GLOBAL_UNCERTAINTY_ASSIGNED_CONTEXT((#386))
GLOBAL_UNIT_ASSIGNED_CONTEXT((#390,#392,#393))
REPRESENTATION_CONTEXT('','3D')
);
#389=(
GEOMETRIC_REPRESENTATION_CONTEXT(3)
GLOBAL_UNCERTAINTY_ASSIGNED_CONTEXT((#387))
GLOBAL_UNIT_ASSIGNED_CONTEXT((#390,#392,#393))
REPRESENTATION_CONTEXT('','3D')
);
#390=(
LENGTH_UNIT()
NAMED_UNIT(*)
SI_UNIT(.MILLI.,.METRE.)
);
#391=(
LENGTH_UNIT()
NAMED_UNIT(*)
SI_UNIT($,.METRE.)
);
#392=(
NAMED_UNIT(*)
PLANE_ANGLE_UNIT()
SI_UNIT($,.RADIAN.)
);
#393=(
NAMED_UNIT(*)
SI_UNIT($,.STERADIAN.)
SOLID_ANGLE_UNIT()
);
#394=SHAPE_DEFINITION_REPRESENTATION(#395,#396);
#395=PRODUCT_DEFINITION_SHAPE('',$,#398);
#396=SHAPE_REPRESENTATION('',(#238),#388);
#397=PRODUCT_DEFINITION_CONTEXT('part definition',#402,'design');
#398=PRODUCT_DEFINITION('Pin3','Pin3',#399,#397);
#399=PRODUCT_DEFINITION_FORMATION('',$,#404);
#400=PRODUCT_RELATED_PRODUCT_CATEGORY('Pin3','Pin3',(#404));
#401=APPLICATION_PROTOCOL_DEFINITION('international standard',
'automotive_design',2009,#402);
#402=APPLICATION_CONTEXT(
'Core Data for Automotive Mechanical Design Process');
#403=PRODUCT_CONTEXT('part definition',#402,'mechanical');
#404=PRODUCT('Pin3','Pin3',$,(#403));
#405=PRESENTATION_STYLE_ASSIGNMENT((#407));
#406=PRESENTATION_STYLE_ASSIGNMENT((#408));
#407=SURFACE_STYLE_USAGE(.BOTH.,#409);
#408=SURFACE_STYLE_USAGE(.BOTH.,#410);
#409=SURFACE_SIDE_STYLE('',(#411));
#410=SURFACE_SIDE_STYLE('',(#412));
#411=SURFACE_STYLE_FILL_AREA(#413);
#412=SURFACE_STYLE_FILL_AREA(#414);
#413=FILL_AREA_STYLE('Acier - Satin\X\E9',(#415));
#414=FILL_AREA_STYLE('Opaque(230,230,230)',(#416));
#415=FILL_AREA_STYLE_COLOUR('Acier - Satin\X\E9',#417);
#416=FILL_AREA_STYLE_COLOUR('Opaque(230,230,230)',#418);
#417=COLOUR_RGB('Acier - Satin\X\E9',0.627450980392157,0.627450980392157,
0.627450980392157);
#418=COLOUR_RGB('Opaque(230,230,230)',0.901960784313726,0.901960784313726,
0.901960784313726);
ENDSEC;
END-ISO-10303-21;
