ISO-10303-21;
HEADER;
/* Generated by software containing ST-Developer
 * from STEP Tools, Inc. (www.steptools.com) 
 */

FILE_DESCRIPTION(
/* description */ (''),
/* implementation_level */ '2;1');

FILE_NAME(
/* name */ 'Body.step',
/* time_stamp */ '2026-02-08T18:39:51+01:00',
/* author */ (''),
/* organization */ (''),
/* preprocessor_version */ 'ST-DEVELOPER v20.1',
/* originating_system */ 'Autodesk Translation Framework v14.24.0.0',
/* authorisation */ '');

FILE_SCHEMA (('AUTOMOTIVE_DESIGN { 1 0 10303 214 3 1 1 }'));
ENDSEC;

DATA;
#10=MECHANICAL_DESIGN_GEOMETRIC_PRESENTATION_REPRESENTATION('',(#235,#236,
#237),#422);
#11=SHAPE_REPRESENTATION_RELATIONSHIP('SRR','None',#429,#12);
#12=ADVANCED_BREP_SHAPE_REPRESENTATION('',(#13),#421);
#13=MANIFOLD_SOLID_BREP('Corps1',#254);
#14=FACE_BOUND('',#61,.T.);
#15=PLANE('',#271);
#16=PLANE('',#272);
#17=PLANE('',#273);
#18=PLANE('',#274);
#19=PLANE('',#275);
#20=PLANE('',#276);
#21=PLANE('',#277);
#22=PLANE('',#278);
#23=PLANE('',#279);
#24=PLANE('',#280);
#25=PLANE('',#281);
#26=PLANE('',#282);
#27=PLANE('',#283);
#28=PLANE('',#284);
#29=PLANE('',#285);
#30=FACE_OUTER_BOUND('',#46,.T.);
#31=FACE_OUTER_BOUND('',#47,.T.);
#32=FACE_OUTER_BOUND('',#48,.T.);
#33=FACE_OUTER_BOUND('',#49,.T.);
#34=FACE_OUTER_BOUND('',#50,.T.);
#35=FACE_OUTER_BOUND('',#51,.T.);
#36=FACE_OUTER_BOUND('',#52,.T.);
#37=FACE_OUTER_BOUND('',#53,.T.);
#38=FACE_OUTER_BOUND('',#54,.T.);
#39=FACE_OUTER_BOUND('',#55,.T.);
#40=FACE_OUTER_BOUND('',#56,.T.);
#41=FACE_OUTER_BOUND('',#57,.T.);
#42=FACE_OUTER_BOUND('',#58,.T.);
#43=FACE_OUTER_BOUND('',#59,.T.);
#44=FACE_OUTER_BOUND('',#60,.T.);
#45=FACE_OUTER_BOUND('',#62,.T.);
#46=EDGE_LOOP('',(#172,#173,#174,#175));
#47=EDGE_LOOP('',(#176,#177,#178,#179));
#48=EDGE_LOOP('',(#180,#181,#182,#183));
#49=EDGE_LOOP('',(#184,#185,#186,#187));
#50=EDGE_LOOP('',(#188,#189,#190,#191));
#51=EDGE_LOOP('',(#192,#193,#194,#195));
#52=EDGE_LOOP('',(#196,#197,#198,#199));
#53=EDGE_LOOP('',(#200,#201,#202,#203));
#54=EDGE_LOOP('',(#204,#205,#206,#207));
#55=EDGE_LOOP('',(#208,#209,#210,#211));
#56=EDGE_LOOP('',(#212,#213,#214,#215));
#57=EDGE_LOOP('',(#216,#217,#218,#219));
#58=EDGE_LOOP('',(#220,#221,#222,#223));
#59=EDGE_LOOP('',(#224,#225,#226,#227));
#60=EDGE_LOOP('',(#228,#229,#230,#231));
#61=EDGE_LOOP('',(#232));
#62=EDGE_LOOP('',(#233));
#63=LINE('',#358,#92);
#64=LINE('',#363,#93);
#65=LINE('',#365,#94);
#66=LINE('',#367,#95);
#67=LINE('',#368,#96);
#68=LINE('',#372,#97);
#69=LINE('',#373,#98);
#70=LINE('',#374,#99);
#71=LINE('',#377,#100);
#72=LINE('',#378,#101);
#73=LINE('',#381,#102);
#74=LINE('',#382,#103);
#75=LINE('',#384,#104);
#76=LINE('',#387,#105);
#77=LINE('',#389,#106);
#78=LINE('',#390,#107);
#79=LINE('',#393,#108);
#80=LINE('',#394,#109);
#81=LINE('',#397,#110);
#82=LINE('',#398,#111);
#83=LINE('',#400,#112);
#84=LINE('',#403,#113);
#85=LINE('',#405,#114);
#86=LINE('',#406,#115);
#87=LINE('',#409,#116);
#88=LINE('',#410,#117);
#89=LINE('',#413,#118);
#90=LINE('',#414,#119);
#91=LINE('',#416,#120);
#92=VECTOR('',#292,0.2);
#93=VECTOR('',#297,1000.);
#94=VECTOR('',#298,1000.);
#95=VECTOR('',#299,1000.);
#96=VECTOR('',#300,1000.);
#97=VECTOR('',#303,1000.);
#98=VECTOR('',#304,1000.);
#99=VECTOR('',#305,1000.);
#100=VECTOR('',#308,1000.);
#101=VECTOR('',#309,1000.);
#102=VECTOR('',#312,1000.);
#103=VECTOR('',#313,1000.);
#104=VECTOR('',#316,1000.);
#105=VECTOR('',#319,1000.);
#106=VECTOR('',#320,1000.);
#107=VECTOR('',#321,1000.);
#108=VECTOR('',#324,1000.);
#109=VECTOR('',#325,1000.);
#110=VECTOR('',#328,1000.);
#111=VECTOR('',#329,1000.);
#112=VECTOR('',#332,1000.);
#113=VECTOR('',#335,1000.);
#114=VECTOR('',#336,1000.);
#115=VECTOR('',#337,1000.);
#116=VECTOR('',#340,1000.);
#117=VECTOR('',#341,1000.);
#118=VECTOR('',#344,1000.);
#119=VECTOR('',#345,1000.);
#120=VECTOR('',#348,1000.);
#121=CIRCLE('',#269,0.2);
#122=CIRCLE('',#270,0.2);
#123=VERTEX_POINT('',#355);
#124=VERTEX_POINT('',#357);
#125=VERTEX_POINT('',#361);
#126=VERTEX_POINT('',#362);
#127=VERTEX_POINT('',#364);
#128=VERTEX_POINT('',#366);
#129=VERTEX_POINT('',#370);
#130=VERTEX_POINT('',#371);
#131=VERTEX_POINT('',#376);
#132=VERTEX_POINT('',#380);
#133=VERTEX_POINT('',#386);
#134=VERTEX_POINT('',#388);
#135=VERTEX_POINT('',#392);
#136=VERTEX_POINT('',#396);
#137=VERTEX_POINT('',#402);
#138=VERTEX_POINT('',#404);
#139=VERTEX_POINT('',#408);
#140=VERTEX_POINT('',#412);
#141=EDGE_CURVE('',#123,#123,#121,.T.);
#142=EDGE_CURVE('',#123,#124,#63,.T.);
#143=EDGE_CURVE('',#124,#124,#122,.T.);
#144=EDGE_CURVE('',#125,#126,#64,.T.);
#145=EDGE_CURVE('',#127,#125,#65,.T.);
#146=EDGE_CURVE('',#128,#127,#66,.T.);
#147=EDGE_CURVE('',#126,#128,#67,.T.);
#148=EDGE_CURVE('',#129,#130,#68,.T.);
#149=EDGE_CURVE('',#126,#129,#69,.T.);
#150=EDGE_CURVE('',#130,#128,#70,.T.);
#151=EDGE_CURVE('',#131,#125,#71,.T.);
#152=EDGE_CURVE('',#129,#131,#72,.T.);
#153=EDGE_CURVE('',#131,#132,#73,.T.);
#154=EDGE_CURVE('',#132,#127,#74,.T.);
#155=EDGE_CURVE('',#130,#132,#75,.T.);
#156=EDGE_CURVE('',#133,#130,#76,.T.);
#157=EDGE_CURVE('',#134,#133,#77,.T.);
#158=EDGE_CURVE('',#129,#134,#78,.T.);
#159=EDGE_CURVE('',#134,#135,#79,.T.);
#160=EDGE_CURVE('',#135,#131,#80,.T.);
#161=EDGE_CURVE('',#135,#136,#81,.T.);
#162=EDGE_CURVE('',#136,#132,#82,.T.);
#163=EDGE_CURVE('',#133,#136,#83,.T.);
#164=EDGE_CURVE('',#133,#137,#84,.T.);
#165=EDGE_CURVE('',#137,#138,#85,.T.);
#166=EDGE_CURVE('',#138,#134,#86,.T.);
#167=EDGE_CURVE('',#139,#138,#87,.T.);
#168=EDGE_CURVE('',#135,#139,#88,.T.);
#169=EDGE_CURVE('',#140,#139,#89,.T.);
#170=EDGE_CURVE('',#136,#140,#90,.T.);
#171=EDGE_CURVE('',#140,#137,#91,.T.);
#172=ORIENTED_EDGE('',*,*,#141,.F.);
#173=ORIENTED_EDGE('',*,*,#142,.T.);
#174=ORIENTED_EDGE('',*,*,#143,.F.);
#175=ORIENTED_EDGE('',*,*,#142,.F.);
#176=ORIENTED_EDGE('',*,*,#144,.F.);
#177=ORIENTED_EDGE('',*,*,#145,.F.);
#178=ORIENTED_EDGE('',*,*,#146,.F.);
#179=ORIENTED_EDGE('',*,*,#147,.F.);
#180=ORIENTED_EDGE('',*,*,#148,.F.);
#181=ORIENTED_EDGE('',*,*,#149,.F.);
#182=ORIENTED_EDGE('',*,*,#147,.T.);
#183=ORIENTED_EDGE('',*,*,#150,.F.);
#184=ORIENTED_EDGE('',*,*,#151,.T.);
#185=ORIENTED_EDGE('',*,*,#144,.T.);
#186=ORIENTED_EDGE('',*,*,#149,.T.);
#187=ORIENTED_EDGE('',*,*,#152,.T.);
#188=ORIENTED_EDGE('',*,*,#151,.F.);
#189=ORIENTED_EDGE('',*,*,#153,.T.);
#190=ORIENTED_EDGE('',*,*,#154,.T.);
#191=ORIENTED_EDGE('',*,*,#145,.T.);
#192=ORIENTED_EDGE('',*,*,#155,.F.);
#193=ORIENTED_EDGE('',*,*,#150,.T.);
#194=ORIENTED_EDGE('',*,*,#146,.T.);
#195=ORIENTED_EDGE('',*,*,#154,.F.);
#196=ORIENTED_EDGE('',*,*,#148,.T.);
#197=ORIENTED_EDGE('',*,*,#156,.F.);
#198=ORIENTED_EDGE('',*,*,#157,.F.);
#199=ORIENTED_EDGE('',*,*,#158,.F.);
#200=ORIENTED_EDGE('',*,*,#158,.T.);
#201=ORIENTED_EDGE('',*,*,#159,.T.);
#202=ORIENTED_EDGE('',*,*,#160,.T.);
#203=ORIENTED_EDGE('',*,*,#152,.F.);
#204=ORIENTED_EDGE('',*,*,#160,.F.);
#205=ORIENTED_EDGE('',*,*,#161,.T.);
#206=ORIENTED_EDGE('',*,*,#162,.T.);
#207=ORIENTED_EDGE('',*,*,#153,.F.);
#208=ORIENTED_EDGE('',*,*,#155,.T.);
#209=ORIENTED_EDGE('',*,*,#162,.F.);
#210=ORIENTED_EDGE('',*,*,#163,.F.);
#211=ORIENTED_EDGE('',*,*,#156,.T.);
#212=ORIENTED_EDGE('',*,*,#164,.T.);
#213=ORIENTED_EDGE('',*,*,#165,.T.);
#214=ORIENTED_EDGE('',*,*,#166,.T.);
#215=ORIENTED_EDGE('',*,*,#157,.T.);
#216=ORIENTED_EDGE('',*,*,#159,.F.);
#217=ORIENTED_EDGE('',*,*,#166,.F.);
#218=ORIENTED_EDGE('',*,*,#167,.F.);
#219=ORIENTED_EDGE('',*,*,#168,.F.);
#220=ORIENTED_EDGE('',*,*,#161,.F.);
#221=ORIENTED_EDGE('',*,*,#168,.T.);
#222=ORIENTED_EDGE('',*,*,#169,.F.);
#223=ORIENTED_EDGE('',*,*,#170,.F.);
#224=ORIENTED_EDGE('',*,*,#164,.F.);
#225=ORIENTED_EDGE('',*,*,#163,.T.);
#226=ORIENTED_EDGE('',*,*,#170,.T.);
#227=ORIENTED_EDGE('',*,*,#171,.T.);
#228=ORIENTED_EDGE('',*,*,#165,.F.);
#229=ORIENTED_EDGE('',*,*,#171,.F.);
#230=ORIENTED_EDGE('',*,*,#169,.T.);
#231=ORIENTED_EDGE('',*,*,#167,.T.);
#232=ORIENTED_EDGE('',*,*,#141,.T.);
#233=ORIENTED_EDGE('',*,*,#143,.T.);
#234=CYLINDRICAL_SURFACE('',#268,0.2);
#235=STYLED_ITEM('',(#440),#238);
#236=STYLED_ITEM('',(#440),#253);
#237=STYLED_ITEM('',(#439),#13);
#238=ADVANCED_FACE('',(#30),#234,.F.);
#239=ADVANCED_FACE('',(#31),#15,.F.);
#240=ADVANCED_FACE('',(#32),#16,.F.);
#241=ADVANCED_FACE('',(#33),#17,.T.);
#242=ADVANCED_FACE('',(#34),#18,.T.);
#243=ADVANCED_FACE('',(#35),#19,.F.);
#244=ADVANCED_FACE('',(#36),#20,.F.);
#245=ADVANCED_FACE('',(#37),#21,.T.);
#246=ADVANCED_FACE('',(#38),#22,.T.);
#247=ADVANCED_FACE('',(#39),#23,.F.);
#248=ADVANCED_FACE('',(#40),#24,.T.);
#249=ADVANCED_FACE('',(#41),#25,.F.);
#250=ADVANCED_FACE('',(#42),#26,.F.);
#251=ADVANCED_FACE('',(#43),#27,.T.);
#252=ADVANCED_FACE('',(#44,#14),#28,.T.);
#253=ADVANCED_FACE('',(#45),#29,.T.);
#254=CLOSED_SHELL('',(#238,#239,#240,#241,#242,#243,#244,#245,#246,#247,
#248,#249,#250,#251,#252,#253));
#255=DERIVED_UNIT_ELEMENT(#257,1.);
#256=DERIVED_UNIT_ELEMENT(#424,-3.);
#257=(
MASS_UNIT()
NAMED_UNIT(*)
SI_UNIT(.KILO.,.GRAM.)
);
#258=DERIVED_UNIT((#255,#256));
#259=MEASURE_REPRESENTATION_ITEM('density measure',
POSITIVE_RATIO_MEASURE(7850.),#258);
#260=PROPERTY_DEFINITION_REPRESENTATION(#265,#262);
#261=PROPERTY_DEFINITION_REPRESENTATION(#266,#263);
#262=REPRESENTATION('material name',(#264),#421);
#263=REPRESENTATION('density',(#259),#421);
#264=DESCRIPTIVE_REPRESENTATION_ITEM('Acier','Acier');
#265=PROPERTY_DEFINITION('material property','material name',#431);
#266=PROPERTY_DEFINITION('material property','density of part',#431);
#267=AXIS2_PLACEMENT_3D('',#353,#286,#287);
#268=AXIS2_PLACEMENT_3D('',#354,#288,#289);
#269=AXIS2_PLACEMENT_3D('',#356,#290,#291);
#270=AXIS2_PLACEMENT_3D('',#359,#293,#294);
#271=AXIS2_PLACEMENT_3D('',#360,#295,#296);
#272=AXIS2_PLACEMENT_3D('',#369,#301,#302);
#273=AXIS2_PLACEMENT_3D('',#375,#306,#307);
#274=AXIS2_PLACEMENT_3D('',#379,#310,#311);
#275=AXIS2_PLACEMENT_3D('',#383,#314,#315);
#276=AXIS2_PLACEMENT_3D('',#385,#317,#318);
#277=AXIS2_PLACEMENT_3D('',#391,#322,#323);
#278=AXIS2_PLACEMENT_3D('',#395,#326,#327);
#279=AXIS2_PLACEMENT_3D('',#399,#330,#331);
#280=AXIS2_PLACEMENT_3D('',#401,#333,#334);
#281=AXIS2_PLACEMENT_3D('',#407,#338,#339);
#282=AXIS2_PLACEMENT_3D('',#411,#342,#343);
#283=AXIS2_PLACEMENT_3D('',#415,#346,#347);
#284=AXIS2_PLACEMENT_3D('',#417,#349,#350);
#285=AXIS2_PLACEMENT_3D('',#418,#351,#352);
#286=DIRECTION('axis',(0.,0.,1.));
#287=DIRECTION('refdir',(1.,0.,0.));
#288=DIRECTION('center_axis',(0.,0.,-1.));
#289=DIRECTION('ref_axis',(-1.,0.,0.));
#290=DIRECTION('center_axis',(0.,0.,-1.));
#291=DIRECTION('ref_axis',(-1.,0.,0.));
#292=DIRECTION('',(0.,0.,-1.));
#293=DIRECTION('center_axis',(0.,0.,1.));
#294=DIRECTION('ref_axis',(-1.,0.,0.));
#295=DIRECTION('center_axis',(0.,0.,1.));
#296=DIRECTION('ref_axis',(1.,0.,0.));
#297=DIRECTION('',(-1.,0.,0.));
#298=DIRECTION('',(0.,1.,0.));
#299=DIRECTION('',(1.,0.,0.));
#300=DIRECTION('',(0.,-1.,0.));
#301=DIRECTION('center_axis',(0.951708617760551,0.,0.307002779922758));
#302=DIRECTION('ref_axis',(0.307002779922758,0.,-0.951708617760551));
#303=DIRECTION('',(0.,-1.,0.));
#304=DIRECTION('',(-0.293483635441874,0.293483635441875,0.909799269869811));
#305=DIRECTION('',(0.293483635441874,0.293483635441875,-0.909799269869811));
#306=DIRECTION('center_axis',(-1.65095128151866E-16,0.951708617760551,-0.307002779922758));
#307=DIRECTION('ref_axis',(-6.16297582203916E-33,0.307002779922758,0.951708617760551));
#308=DIRECTION('',(-0.293483635441875,-0.293483635441874,-0.909799269869811));
#309=DIRECTION('',(1.,1.57122456212413E-16,-5.06846632943268E-17));
#310=DIRECTION('center_axis',(0.951708617760551,0.,-0.307002779922758));
#311=DIRECTION('ref_axis',(-0.307002779922758,0.,-0.951708617760551));
#312=DIRECTION('',(0.,-1.,0.));
#313=DIRECTION('',(-0.293483635441874,0.293483635441875,-0.909799269869811));
#314=DIRECTION('center_axis',(-1.65095128151866E-16,0.951708617760551,0.307002779922758));
#315=DIRECTION('ref_axis',(6.16297582203916E-33,-0.307002779922758,0.951708617760551));
#316=DIRECTION('',(1.,1.57122456212413E-16,5.06846632943268E-17));
#317=DIRECTION('center_axis',(1.,0.,0.));
#318=DIRECTION('ref_axis',(0.,0.,-1.));
#319=DIRECTION('',(0.,0.,-1.));
#320=DIRECTION('',(0.,-1.,0.));
#321=DIRECTION('',(0.,0.,1.));
#322=DIRECTION('center_axis',(-1.7347234759768E-16,1.,0.));
#323=DIRECTION('ref_axis',(-1.,-1.7347234759768E-16,0.));
#324=DIRECTION('',(1.,1.7347234759768E-16,0.));
#325=DIRECTION('',(0.,0.,-1.));
#326=DIRECTION('center_axis',(1.,0.,0.));
#327=DIRECTION('ref_axis',(0.,0.,-1.));
#328=DIRECTION('',(0.,-1.,0.));
#329=DIRECTION('',(0.,0.,-1.));
#330=DIRECTION('center_axis',(-1.7347234759768E-16,1.,0.));
#331=DIRECTION('ref_axis',(-1.,-1.7347234759768E-16,0.));
#332=DIRECTION('',(1.,1.7347234759768E-16,0.));
#333=DIRECTION('center_axis',(-0.951708617760551,0.,0.307002779922758));
#334=DIRECTION('ref_axis',(0.307002779922758,0.,0.951708617760551));
#335=DIRECTION('',(0.293483635441874,0.293483635441875,0.909799269869811));
#336=DIRECTION('',(0.,1.,0.));
#337=DIRECTION('',(-0.293483635441874,0.293483635441875,-0.909799269869811));
#338=DIRECTION('center_axis',(1.65095128151866E-16,-0.951708617760551,-0.307002779922758));
#339=DIRECTION('ref_axis',(-6.16297582203916E-33,0.307002779922758,-0.951708617760551));
#340=DIRECTION('',(-1.,-1.57122456212413E-16,-5.06846632943268E-17));
#341=DIRECTION('',(-0.293483635441875,-0.293483635441874,0.909799269869811));
#342=DIRECTION('center_axis',(-0.951708617760551,0.,-0.307002779922758));
#343=DIRECTION('ref_axis',(-0.307002779922758,0.,0.951708617760551));
#344=DIRECTION('',(0.,1.,0.));
#345=DIRECTION('',(-0.293483635441874,0.293483635441875,0.909799269869811));
#346=DIRECTION('center_axis',(1.65095128151866E-16,-0.951708617760551,0.307002779922758));
#347=DIRECTION('ref_axis',(6.16297582203916E-33,-0.307002779922758,-0.951708617760551));
#348=DIRECTION('',(-1.,-1.57122456212413E-16,5.06846632943268E-17));
#349=DIRECTION('center_axis',(0.,0.,1.));
#350=DIRECTION('ref_axis',(1.,0.,0.));
#351=DIRECTION('center_axis',(0.,0.,1.));
#352=DIRECTION('ref_axis',(1.,0.,0.));
#353=CARTESIAN_POINT('',(0.,0.,0.));
#354=CARTESIAN_POINT('Origin',(-1.975,-1.725,1.85));
#355=CARTESIAN_POINT('',(-1.775,-1.725,1.));
#356=CARTESIAN_POINT('Origin',(-1.975,-1.725,1.));
#357=CARTESIAN_POINT('',(-1.775,-1.725,0.85));
#358=CARTESIAN_POINT('',(-1.775,-1.725,1.85));
#359=CARTESIAN_POINT('Origin',(-1.975,-1.725,0.85));
#360=CARTESIAN_POINT('Origin',(8.67361737988404E-16,0.,0.15));
#361=CARTESIAN_POINT('',(2.4,2.1,0.15));
#362=CARTESIAN_POINT('',(-2.4,2.1,0.15));
#363=CARTESIAN_POINT('',(8.67361737988404E-16,2.1,0.15));
#364=CARTESIAN_POINT('',(2.4,-2.1,0.15));
#365=CARTESIAN_POINT('',(2.4,0.,0.15));
#366=CARTESIAN_POINT('',(-2.4,-2.1,0.15));
#367=CARTESIAN_POINT('',(8.67361737988404E-16,-2.1,0.15));
#368=CARTESIAN_POINT('',(-2.4,0.,0.15));
#369=CARTESIAN_POINT('Origin',(-2.5,-4.33680868994202E-16,0.46));
#370=CARTESIAN_POINT('',(-2.5,2.2,0.46));
#371=CARTESIAN_POINT('',(-2.5,-2.2,0.46));
#372=CARTESIAN_POINT('',(-2.5,-4.33680868994202E-16,0.46));
#373=CARTESIAN_POINT('',(-2.4,2.1,0.15));
#374=CARTESIAN_POINT('',(-2.5,-2.2,0.46));
#375=CARTESIAN_POINT('Origin',(5.03069808033274E-16,2.1,0.15));
#376=CARTESIAN_POINT('',(2.5,2.2,0.46));
#377=CARTESIAN_POINT('',(2.5,2.2,0.46));
#378=CARTESIAN_POINT('',(5.03069808033274E-16,2.2,0.46));
#379=CARTESIAN_POINT('Origin',(2.4,0.,0.15));
#380=CARTESIAN_POINT('',(2.5,-2.2,0.46));
#381=CARTESIAN_POINT('',(2.5,0.,0.46));
#382=CARTESIAN_POINT('',(2.5,-2.2,0.46));
#383=CARTESIAN_POINT('Origin',(8.67361737988404E-16,-2.2,0.46));
#384=CARTESIAN_POINT('',(8.67361737988404E-16,-2.2,0.46));
#385=CARTESIAN_POINT('Origin',(-2.5,-4.33680868994202E-16,1.));
#386=CARTESIAN_POINT('',(-2.5,-2.2,0.69));
#387=CARTESIAN_POINT('',(-2.5,-2.2,1.));
#388=CARTESIAN_POINT('',(-2.5,2.2,0.69));
#389=CARTESIAN_POINT('',(-2.5,-4.33680868994202E-16,0.69));
#390=CARTESIAN_POINT('',(-2.5,2.2,1.));
#391=CARTESIAN_POINT('Origin',(8.67361737988404E-16,2.2,1.));
#392=CARTESIAN_POINT('',(2.5,2.2,0.69));
#393=CARTESIAN_POINT('',(8.67361737988404E-16,2.2,0.69));
#394=CARTESIAN_POINT('',(2.5,2.2,1.));
#395=CARTESIAN_POINT('Origin',(2.5,4.33680868994202E-16,1.));
#396=CARTESIAN_POINT('',(2.5,-2.2,0.69));
#397=CARTESIAN_POINT('',(2.5,4.33680868994202E-16,0.69));
#398=CARTESIAN_POINT('',(2.5,-2.2,1.));
#399=CARTESIAN_POINT('Origin',(8.67361737988404E-16,-2.2,1.));
#400=CARTESIAN_POINT('',(8.67361737988404E-16,-2.2,0.69));
#401=CARTESIAN_POINT('Origin',(-2.4,0.,1.));
#402=CARTESIAN_POINT('',(-2.4,-2.1,1.));
#403=CARTESIAN_POINT('',(-2.5,-2.2,0.69));
#404=CARTESIAN_POINT('',(-2.4,2.1,1.));
#405=CARTESIAN_POINT('',(-2.4,0.,1.));
#406=CARTESIAN_POINT('',(-2.4,2.1,1.));
#407=CARTESIAN_POINT('Origin',(8.67361737988404E-16,2.2,0.69));
#408=CARTESIAN_POINT('',(2.4,2.1,1.));
#409=CARTESIAN_POINT('',(8.67361737988404E-16,2.1,1.));
#410=CARTESIAN_POINT('',(2.5,2.2,0.69));
#411=CARTESIAN_POINT('Origin',(2.5,4.33680868994202E-16,0.69));
#412=CARTESIAN_POINT('',(2.4,-2.1,1.));
#413=CARTESIAN_POINT('',(2.4,4.33680868994202E-16,1.));
#414=CARTESIAN_POINT('',(2.5,-2.2,0.69));
#415=CARTESIAN_POINT('Origin',(1.23165366794353E-15,-2.1,1.));
#416=CARTESIAN_POINT('',(1.23165366794353E-15,-2.1,1.));
#417=CARTESIAN_POINT('Origin',(8.67361737988404E-16,0.,1.));
#418=CARTESIAN_POINT('Origin',(-1.975,-1.725,0.85));
#419=UNCERTAINTY_MEASURE_WITH_UNIT(LENGTH_MEASURE(0.01),#423,
'DISTANCE_ACCURACY_VALUE',
'Maximum model space distance between geometric entities at asserted c
onnectivities');
#420=UNCERTAINTY_MEASURE_WITH_UNIT(LENGTH_MEASURE(0.01),#423,
'DISTANCE_ACCURACY_VALUE',
'Maximum model space distance between geometric entities at asserted c
onnectivities');
#421=(
GEOMETRIC_REPRESENTATION_CONTEXT(3)
GLOBAL_UNCERTAINTY_ASSIGNED_CONTEXT((#419))
GLOBAL_UNIT_ASSIGNED_CONTEXT((#423,#425,#426))
REPRESENTATION_CONTEXT('','3D')
);
#422=(
GEOMETRIC_REPRESENTATION_CONTEXT(3)
GLOBAL_UNCERTAINTY_ASSIGNED_CONTEXT((#420))
GLOBAL_UNIT_ASSIGNED_CONTEXT((#423,#425,#426))
REPRESENTATION_CONTEXT('','3D')
);
#423=(
LENGTH_UNIT()
NAMED_UNIT(*)
SI_UNIT(.MILLI.,.METRE.)
);
#424=(
LENGTH_UNIT()
NAMED_UNIT(*)
SI_UNIT($,.METRE.)
);
#425=(
NAMED_UNIT(*)
PLANE_ANGLE_UNIT()
SI_UNIT($,.RADIAN.)
);
#426=(
NAMED_UNIT(*)
SI_UNIT($,.STERADIAN.)
SOLID_ANGLE_UNIT()
);
#427=SHAPE_DEFINITION_REPRESENTATION(#428,#429);
#428=PRODUCT_DEFINITION_SHAPE('',$,#431);
#429=SHAPE_REPRESENTATION('',(#267),#421);
#430=PRODUCT_DEFINITION_CONTEXT('part definition',#435,'design');
#431=PRODUCT_DEFINITION('Body','Body',#432,#430);
#432=PRODUCT_DEFINITION_FORMATION('',$,#437);
#433=PRODUCT_RELATED_PRODUCT_CATEGORY('Body','Body',(#437));
#434=APPLICATION_PROTOCOL_DEFINITION('international standard',
'automotive_design',2009,#435);
#435=APPLICATION_CONTEXT(
'Core Data for Automotive Mechanical Design Process');
#436=PRODUCT_CONTEXT('part definition',#435,'mechanical');
#437=PRODUCT('Body','Body',$,(#436));
#438=PRESENTATION_STYLE_ASSIGNMENT((#441));
#439=PRESENTATION_STYLE_ASSIGNMENT((#442));
#440=PRESENTATION_STYLE_ASSIGNMENT((#443));
#441=SURFACE_STYLE_USAGE(.BOTH.,#444);
#442=SURFACE_STYLE_USAGE(.BOTH.,#445);
#443=SURFACE_STYLE_USAGE(.BOTH.,#446);
#444=SURFACE_SIDE_STYLE('',(#447));
#445=SURFACE_SIDE_STYLE('',(#448));
#446=SURFACE_SIDE_STYLE('',(#449));
#447=SURFACE_STYLE_FILL_AREA(#450);
#448=SURFACE_STYLE_FILL_AREA(#451);
#449=SURFACE_STYLE_FILL_AREA(#452);
#450=FILL_AREA_STYLE('Acier - Satin\X\E9',(#453));
#451=FILL_AREA_STYLE('Opaque(77,77,77)',(#454));
#452=FILL_AREA_STYLE('Opaque(250,250,250)',(#455));
#453=FILL_AREA_STYLE_COLOUR('Acier - Satin\X\E9',#456);
#454=FILL_AREA_STYLE_COLOUR('Opaque(77,77,77)',#457);
#455=FILL_AREA_STYLE_COLOUR('Opaque(250,250,250)',#458);
#456=COLOUR_RGB('Acier - Satin\X\E9',0.627450980392157,0.627450980392157,
0.627450980392157);
#457=COLOUR_RGB('Opaque(77,77,77)',0.301960784313725,0.301960784313725,
0.301960784313725);
#458=COLOUR_RGB('Opaque(250,250,250)',0.980392156862745,0.980392156862745,
0.980392156862745);
ENDSEC;
END-ISO-10303-21;
