ISO-10303-21;
HEADER;
/* Generated by software containing ST-Developer
 * from STEP Tools, Inc. (www.steptools.com) 
 */

FILE_DESCRIPTION(
/* description */ (''),
/* implementation_level */ '2;1');

FILE_NAME(
/* name */ 'C_Elec_6.3x7.7.step',
/* time_stamp */ '2026-02-08T19:09:29+01:00',
/* author */ (''),
/* organization */ (''),
/* preprocessor_version */ 'ST-DEVELOPER v20.1',
/* originating_system */ 'Autodesk Translation Framework v14.24.0.0',
/* authorisation */ '');

FILE_SCHEMA (('AUTOMOTIVE_DESIGN { 1 0 10303 214 3 1 1 }'));
ENDSEC;

DATA;
#10=MECHANICAL_DESIGN_GEOMETRIC_PRESENTATION_REPRESENTATION('',(#17,#18,
#19,#20,#21,#22,#23,#24,#25,#26,#27,#28,#29,#30,#31,#32,#33,#34,#35,#36,
#37,#38,#39),#1570);
#11=SHAPE_REPRESENTATION_RELATIONSHIP('SRR','None',#1577,#12);
#12=ADVANCED_BREP_SHAPE_REPRESENTATION('',(#15),#1569);
#13=OPEN_SHELL('',(#804));
#14=SHELL_BASED_SURFACE_MODEL('Corps2',(#13));
#15=MANIFOLD_SOLID_BREP('Corps1',#805);
#16=FACE_BOUND('',#280,.T.);
#17=STYLED_ITEM('',(#1588),#772);
#18=STYLED_ITEM('',(#1588),#773);
#19=STYLED_ITEM('',(#1588),#774);
#20=STYLED_ITEM('',(#1588),#775);
#21=STYLED_ITEM('',(#1588),#776);
#22=STYLED_ITEM('',(#1588),#777);
#23=STYLED_ITEM('',(#1588),#778);
#24=STYLED_ITEM('',(#1588),#779);
#25=STYLED_ITEM('',(#1588),#780);
#26=STYLED_ITEM('',(#1588),#781);
#27=STYLED_ITEM('',(#1588),#782);
#28=STYLED_ITEM('',(#1588),#783);
#29=STYLED_ITEM('',(#1588),#784);
#30=STYLED_ITEM('',(#1588),#785);
#31=STYLED_ITEM('',(#1588),#786);
#32=STYLED_ITEM('',(#1588),#787);
#33=STYLED_ITEM('',(#1588),#788);
#34=STYLED_ITEM('',(#1588),#790);
#35=STYLED_ITEM('',(#1588),#801);
#36=STYLED_ITEM('',(#1588),#802);
#37=STYLED_ITEM('',(#1588),#803);
#38=STYLED_ITEM('',(#1587),#15);
#39=STYLED_ITEM('',(#1587),#14);
#40=PLANE('',#845);
#41=PLANE('',#846);
#42=PLANE('',#859);
#43=PLANE('',#860);
#44=PLANE('',#862);
#45=PLANE('',#864);
#46=PLANE('',#865);
#47=PLANE('',#866);
#48=PLANE('',#869);
#49=PLANE('',#870);
#50=PLANE('',#873);
#51=PLANE('',#874);
#52=PLANE('',#876);
#53=PLANE('',#877);
#54=PLANE('',#878);
#55=PLANE('',#881);
#56=PLANE('',#882);
#57=PLANE('',#883);
#58=PLANE('',#884);
#59=PLANE('',#885);
#60=PLANE('',#886);
#61=PLANE('',#887);
#62=PLANE('',#888);
#63=PLANE('',#891);
#64=PLANE('',#892);
#65=LINE('',#1299,#136);
#66=LINE('',#1302,#137);
#67=LINE('',#1309,#138);
#68=LINE('',#1312,#139);
#69=LINE('',#1314,#140);
#70=LINE('',#1402,#141);
#71=LINE('',#1406,#142);
#72=LINE('',#1410,#143);
#73=LINE('',#1414,#144);
#74=LINE('',#1418,#145);
#75=LINE('',#1420,#146);
#76=LINE('',#1424,#147);
#77=LINE('',#1427,#148);
#78=LINE('',#1430,#149);
#79=LINE('',#1433,#150);
#80=LINE('',#1436,#151);
#81=LINE('',#1439,#152);
#82=LINE('',#1443,#153);
#83=LINE('',#1444,#154);
#84=LINE('',#1445,#155);
#85=LINE('',#1450,#156);
#86=LINE('',#1451,#157);
#87=LINE('',#1454,#158);
#88=LINE('',#1457,#159);
#89=LINE('',#1460,#160);
#90=LINE('',#1462,#161);
#91=LINE('',#1463,#162);
#92=LINE('',#1466,#163);
#93=LINE('',#1468,#164);
#94=LINE('',#1469,#165);
#95=LINE('',#1472,#166);
#96=LINE('',#1473,#167);
#97=LINE('',#1476,#168);
#98=LINE('',#1480,#169);
#99=LINE('',#1482,#170);
#100=LINE('',#1484,#171);
#101=LINE('',#1485,#172);
#102=LINE('',#1488,#173);
#103=LINE('',#1490,#174);
#104=LINE('',#1491,#175);
#105=LINE('',#1496,#176);
#106=LINE('',#1497,#177);
#107=LINE('',#1500,#178);
#108=LINE('',#1502,#179);
#109=LINE('',#1506,#180);
#110=LINE('',#1507,#181);
#111=LINE('',#1508,#182);
#112=LINE('',#1509,#183);
#113=LINE('',#1512,#184);
#114=LINE('',#1514,#185);
#115=LINE('',#1515,#186);
#116=LINE('',#1517,#187);
#117=LINE('',#1520,#188);
#118=LINE('',#1522,#189);
#119=LINE('',#1524,#190);
#120=LINE('',#1525,#191);
#121=LINE('',#1529,#192);
#122=LINE('',#1533,#193);
#123=LINE('',#1534,#194);
#124=LINE('',#1535,#195);
#125=LINE('',#1538,#196);
#126=LINE('',#1539,#197);
#127=LINE('',#1542,#198);
#128=LINE('',#1543,#199);
#129=LINE('',#1545,#200);
#130=LINE('',#1547,#201);
#131=LINE('',#1549,#202);
#132=LINE('',#1554,#203);
#133=LINE('',#1557,#204);
#134=LINE('',#1559,#205);
#135=LINE('',#1565,#206);
#136=VECTOR('',#938,3.15);
#137=VECTOR('',#943,3.15);
#138=VECTOR('',#950,1000.);
#139=VECTOR('',#953,1000.);
#140=VECTOR('',#956,1000.);
#141=VECTOR('',#959,1000.);
#142=VECTOR('',#962,1000.);
#143=VECTOR('',#965,1000.);
#144=VECTOR('',#968,1000.);
#145=VECTOR('',#973,1000.);
#146=VECTOR('',#974,1000.);
#147=VECTOR('',#979,1000.);
#148=VECTOR('',#982,1000.);
#149=VECTOR('',#985,1000.);
#150=VECTOR('',#988,1000.);
#151=VECTOR('',#991,1000.);
#152=VECTOR('',#994,1000.);
#153=VECTOR('',#997,1000.);
#154=VECTOR('',#998,1000.);
#155=VECTOR('',#999,1000.);
#156=VECTOR('',#1004,1000.);
#157=VECTOR('',#1005,1000.);
#158=VECTOR('',#1008,1000.);
#159=VECTOR('',#1011,1000.);
#160=VECTOR('',#1014,1000.);
#161=VECTOR('',#1015,1000.);
#162=VECTOR('',#1016,1000.);
#163=VECTOR('',#1019,1000.);
#164=VECTOR('',#1020,1000.);
#165=VECTOR('',#1021,1000.);
#166=VECTOR('',#1024,1000.);
#167=VECTOR('',#1025,1000.);
#168=VECTOR('',#1028,1000.);
#169=VECTOR('',#1033,1000.);
#170=VECTOR('',#1034,1000.);
#171=VECTOR('',#1035,1000.);
#172=VECTOR('',#1036,1000.);
#173=VECTOR('',#1039,1000.);
#174=VECTOR('',#1040,1000.);
#175=VECTOR('',#1041,1000.);
#176=VECTOR('',#1048,1000.);
#177=VECTOR('',#1049,1000.);
#178=VECTOR('',#1052,1000.);
#179=VECTOR('',#1053,1000.);
#180=VECTOR('',#1056,1000.);
#181=VECTOR('',#1057,1000.);
#182=VECTOR('',#1058,1000.);
#183=VECTOR('',#1059,1000.);
#184=VECTOR('',#1062,1000.);
#185=VECTOR('',#1063,1000.);
#186=VECTOR('',#1064,1000.);
#187=VECTOR('',#1067,1000.);
#188=VECTOR('',#1070,1000.);
#189=VECTOR('',#1071,1000.);
#190=VECTOR('',#1072,1000.);
#191=VECTOR('',#1073,1000.);
#192=VECTOR('',#1078,1000.);
#193=VECTOR('',#1081,1000.);
#194=VECTOR('',#1082,1000.);
#195=VECTOR('',#1083,1000.);
#196=VECTOR('',#1086,1000.);
#197=VECTOR('',#1087,1000.);
#198=VECTOR('',#1090,1000.);
#199=VECTOR('',#1091,1000.);
#200=VECTOR('',#1094,1000.);
#201=VECTOR('',#1097,1000.);
#202=VECTOR('',#1100,1000.);
#203=VECTOR('',#1107,1000.);
#204=VECTOR('',#1110,1000.);
#205=VECTOR('',#1113,1000.);
#206=VECTOR('',#1120,0.01);
#207=CYLINDRICAL_SURFACE('',#838,3.15);
#208=CYLINDRICAL_SURFACE('',#840,3.15);
#209=CYLINDRICAL_SURFACE('',#842,0.325);
#210=CYLINDRICAL_SURFACE('',#851,3.35);
#211=CYLINDRICAL_SURFACE('',#853,3.35);
#212=CYLINDRICAL_SURFACE('',#855,3.35);
#213=CYLINDRICAL_SURFACE('',#857,3.35);
#214=CYLINDRICAL_SURFACE('',#867,0.4);
#215=CYLINDRICAL_SURFACE('',#871,0.4);
#216=CYLINDRICAL_SURFACE('',#879,0.325);
#217=CYLINDRICAL_SURFACE('',#889,2.73);
#218=CYLINDRICAL_SURFACE('',#893,0.01);
#219=ELLIPSE('',#823,2.73035189867763,2.73023334278174);
#220=ELLIPSE('',#825,2.73035058500923,2.73023248683113);
#221=TOROIDAL_SURFACE('',#822,2.73,0.42);
#222=TOROIDAL_SURFACE('',#828,3.15,0.314999999999999);
#223=TOROIDAL_SURFACE('',#833,2.73,0.419999999999998);
#224=FACE_OUTER_BOUND('',#268,.T.);
#225=FACE_OUTER_BOUND('',#269,.T.);
#226=FACE_OUTER_BOUND('',#270,.T.);
#227=FACE_OUTER_BOUND('',#271,.T.);
#228=FACE_OUTER_BOUND('',#272,.T.);
#229=FACE_OUTER_BOUND('',#273,.T.);
#230=FACE_OUTER_BOUND('',#274,.T.);
#231=FACE_OUTER_BOUND('',#275,.T.);
#232=FACE_OUTER_BOUND('',#276,.T.);
#233=FACE_OUTER_BOUND('',#277,.T.);
#234=FACE_OUTER_BOUND('',#278,.T.);
#235=FACE_OUTER_BOUND('',#279,.T.);
#236=FACE_OUTER_BOUND('',#281,.T.);
#237=FACE_OUTER_BOUND('',#282,.T.);
#238=FACE_OUTER_BOUND('',#283,.T.);
#239=FACE_OUTER_BOUND('',#284,.T.);
#240=FACE_OUTER_BOUND('',#285,.T.);
#241=FACE_OUTER_BOUND('',#286,.T.);
#242=FACE_OUTER_BOUND('',#287,.T.);
#243=FACE_OUTER_BOUND('',#288,.T.);
#244=FACE_OUTER_BOUND('',#289,.T.);
#245=FACE_OUTER_BOUND('',#290,.T.);
#246=FACE_OUTER_BOUND('',#291,.T.);
#247=FACE_OUTER_BOUND('',#292,.T.);
#248=FACE_OUTER_BOUND('',#293,.T.);
#249=FACE_OUTER_BOUND('',#294,.T.);
#250=FACE_OUTER_BOUND('',#295,.T.);
#251=FACE_OUTER_BOUND('',#296,.T.);
#252=FACE_OUTER_BOUND('',#297,.T.);
#253=FACE_OUTER_BOUND('',#298,.T.);
#254=FACE_OUTER_BOUND('',#299,.T.);
#255=FACE_OUTER_BOUND('',#300,.T.);
#256=FACE_OUTER_BOUND('',#301,.T.);
#257=FACE_OUTER_BOUND('',#302,.T.);
#258=FACE_OUTER_BOUND('',#303,.T.);
#259=FACE_OUTER_BOUND('',#304,.T.);
#260=FACE_OUTER_BOUND('',#305,.T.);
#261=FACE_OUTER_BOUND('',#306,.T.);
#262=FACE_OUTER_BOUND('',#307,.T.);
#263=FACE_OUTER_BOUND('',#308,.T.);
#264=FACE_OUTER_BOUND('',#309,.T.);
#265=FACE_OUTER_BOUND('',#310,.T.);
#266=FACE_OUTER_BOUND('',#311,.T.);
#267=FACE_OUTER_BOUND('',#312,.T.);
#268=EDGE_LOOP('',(#535,#536,#537,#538));
#269=EDGE_LOOP('',(#539,#540,#541,#542,#543,#544));
#270=EDGE_LOOP('',(#545,#546,#547,#548,#549,#550));
#271=EDGE_LOOP('',(#551,#552,#553,#554));
#272=EDGE_LOOP('',(#555,#556,#557,#558,#559));
#273=EDGE_LOOP('',(#560,#561,#562,#563,#564));
#274=EDGE_LOOP('',(#565,#566,#567,#568,#569,#570));
#275=EDGE_LOOP('',(#571,#572,#573,#574));
#276=EDGE_LOOP('',(#575,#576,#577));
#277=EDGE_LOOP('',(#578,#579,#580,#581));
#278=EDGE_LOOP('',(#582,#583,#584,#585));
#279=EDGE_LOOP('',(#586,#587,#588,#589,#590,#591,#592,#593));
#280=EDGE_LOOP('',(#594));
#281=EDGE_LOOP('',(#595,#596,#597,#598));
#282=EDGE_LOOP('',(#599,#600,#601,#602));
#283=EDGE_LOOP('',(#603,#604,#605,#606));
#284=EDGE_LOOP('',(#607,#608,#609,#610));
#285=EDGE_LOOP('',(#611,#612,#613,#614));
#286=EDGE_LOOP('',(#615,#616,#617,#618));
#287=EDGE_LOOP('',(#619,#620,#621,#622));
#288=EDGE_LOOP('',(#623,#624,#625,#626));
#289=EDGE_LOOP('',(#627,#628,#629,#630));
#290=EDGE_LOOP('',(#631,#632,#633,#634,#635,#636,#637,#638));
#291=EDGE_LOOP('',(#639,#640,#641,#642));
#292=EDGE_LOOP('',(#643,#644,#645,#646,#647,#648,#649,#650,#651,#652));
#293=EDGE_LOOP('',(#653,#654,#655,#656,#657,#658,#659,#660));
#294=EDGE_LOOP('',(#661,#662,#663,#664));
#295=EDGE_LOOP('',(#665,#666,#667,#668));
#296=EDGE_LOOP('',(#669,#670,#671,#672,#673,#674,#675,#676,#677,#678,#679,
#680,#681,#682,#683,#684));
#297=EDGE_LOOP('',(#685,#686,#687,#688));
#298=EDGE_LOOP('',(#689,#690,#691,#692,#693,#694,#695,#696,#697,#698));
#299=EDGE_LOOP('',(#699,#700,#701,#702,#703));
#300=EDGE_LOOP('',(#704,#705,#706,#707));
#301=EDGE_LOOP('',(#708,#709,#710,#711,#712));
#302=EDGE_LOOP('',(#713,#714,#715,#716,#717));
#303=EDGE_LOOP('',(#718,#719,#720,#721,#722));
#304=EDGE_LOOP('',(#723,#724,#725,#726));
#305=EDGE_LOOP('',(#727,#728,#729,#730));
#306=EDGE_LOOP('',(#731,#732,#733,#734));
#307=EDGE_LOOP('',(#735,#736,#737,#738));
#308=EDGE_LOOP('',(#739,#740,#741,#742));
#309=EDGE_LOOP('',(#743,#744,#745,#746));
#310=EDGE_LOOP('',(#747,#748,#749,#750));
#311=EDGE_LOOP('',(#751,#752));
#312=EDGE_LOOP('',(#753,#754,#755,#756));
#313=CIRCLE('',#819,0.0314999472725164);
#314=CIRCLE('',#820,3.15);
#315=CIRCLE('',#821,0.0315000000009474);
#316=CIRCLE('',#824,2.73);
#317=CIRCLE('',#826,0.42);
#318=CIRCLE('',#827,3.15);
#319=CIRCLE('',#829,0.314999999999999);
#320=CIRCLE('',#830,3.15);
#321=CIRCLE('',#831,0.0314999472715911);
#322=CIRCLE('',#832,0.0314999999995914);
#323=CIRCLE('',#834,2.73);
#324=CIRCLE('',#835,0.419999999999998);
#325=CIRCLE('',#836,3.15);
#326=CIRCLE('',#837,3.15);
#327=CIRCLE('',#839,3.15);
#328=CIRCLE('',#841,3.15);
#329=CIRCLE('',#843,0.325);
#330=CIRCLE('',#844,0.325);
#331=CIRCLE('',#847,3.35);
#332=CIRCLE('',#848,3.35);
#333=CIRCLE('',#849,3.35);
#334=CIRCLE('',#850,3.35);
#335=CIRCLE('',#852,3.35);
#336=CIRCLE('',#854,3.35);
#337=CIRCLE('',#856,3.35);
#338=CIRCLE('',#858,3.35);
#339=CIRCLE('',#861,0.4);
#340=CIRCLE('',#863,0.4);
#341=CIRCLE('',#868,0.4);
#342=CIRCLE('',#872,0.4);
#343=CIRCLE('',#875,0.325);
#344=CIRCLE('',#880,0.325);
#345=CIRCLE('',#890,2.73);
#346=CIRCLE('',#894,0.01);
#347=CIRCLE('',#895,0.01);
#348=B_SPLINE_CURVE_WITH_KNOTS('',13,(#1168,#1169,#1170,#1171,#1172,#1173,
#1174,#1175,#1176,#1177,#1178,#1179,#1180,#1181),.UNSPECIFIED.,.F.,.F.,
(14,14),(0.,0.5),.UNSPECIFIED.);
#349=B_SPLINE_CURVE_WITH_KNOTS('',13,(#1198,#1199,#1200,#1201,#1202,#1203,
#1204,#1205,#1206,#1207,#1208,#1209,#1210,#1211),.UNSPECIFIED.,.F.,.F.,
(14,14),(0.5,1.),.UNSPECIFIED.);
#350=B_SPLINE_CURVE_WITH_KNOTS('',13,(#1215,#1216,#1217,#1218,#1219,#1220,
#1221,#1222,#1223,#1224,#1225,#1226,#1227,#1228),.UNSPECIFIED.,.F.,.F.,
(14,14),(0.5,1.),.UNSPECIFIED.);
#351=B_SPLINE_CURVE_WITH_KNOTS('',13,(#1229,#1230,#1231,#1232,#1233,#1234,
#1235,#1236,#1237,#1238,#1239,#1240,#1241,#1242),.UNSPECIFIED.,.F.,.F.,
(14,14),(0.,0.5),.UNSPECIFIED.);
#352=VERTEX_POINT('',#1166);
#353=VERTEX_POINT('',#1167);
#354=VERTEX_POINT('',#1182);
#355=VERTEX_POINT('',#1184);
#356=VERTEX_POINT('',#1188);
#357=VERTEX_POINT('',#1189);
#358=VERTEX_POINT('',#1191);
#359=VERTEX_POINT('',#1194);
#360=VERTEX_POINT('',#1212);
#361=VERTEX_POINT('',#1214);
#362=VERTEX_POINT('',#1285);
#363=VERTEX_POINT('',#1286);
#364=VERTEX_POINT('',#1291);
#365=VERTEX_POINT('',#1293);
#366=VERTEX_POINT('',#1295);
#367=VERTEX_POINT('',#1305);
#368=VERTEX_POINT('',#1306);
#369=VERTEX_POINT('',#1308);
#370=VERTEX_POINT('',#1310);
#371=VERTEX_POINT('',#1400);
#372=VERTEX_POINT('',#1401);
#373=VERTEX_POINT('',#1403);
#374=VERTEX_POINT('',#1405);
#375=VERTEX_POINT('',#1407);
#376=VERTEX_POINT('',#1409);
#377=VERTEX_POINT('',#1411);
#378=VERTEX_POINT('',#1413);
#379=VERTEX_POINT('',#1417);
#380=VERTEX_POINT('',#1419);
#381=VERTEX_POINT('',#1423);
#382=VERTEX_POINT('',#1425);
#383=VERTEX_POINT('',#1429);
#384=VERTEX_POINT('',#1431);
#385=VERTEX_POINT('',#1435);
#386=VERTEX_POINT('',#1437);
#387=VERTEX_POINT('',#1441);
#388=VERTEX_POINT('',#1442);
#389=VERTEX_POINT('',#1447);
#390=VERTEX_POINT('',#1448);
#391=VERTEX_POINT('',#1453);
#392=VERTEX_POINT('',#1455);
#393=VERTEX_POINT('',#1459);
#394=VERTEX_POINT('',#1461);
#395=VERTEX_POINT('',#1465);
#396=VERTEX_POINT('',#1467);
#397=VERTEX_POINT('',#1471);
#398=VERTEX_POINT('',#1475);
#399=VERTEX_POINT('',#1479);
#400=VERTEX_POINT('',#1481);
#401=VERTEX_POINT('',#1483);
#402=VERTEX_POINT('',#1487);
#403=VERTEX_POINT('',#1489);
#404=VERTEX_POINT('',#1495);
#405=VERTEX_POINT('',#1499);
#406=VERTEX_POINT('',#1501);
#407=VERTEX_POINT('',#1503);
#408=VERTEX_POINT('',#1505);
#409=VERTEX_POINT('',#1511);
#410=VERTEX_POINT('',#1513);
#411=VERTEX_POINT('',#1519);
#412=VERTEX_POINT('',#1521);
#413=VERTEX_POINT('',#1523);
#414=VERTEX_POINT('',#1527);
#415=VERTEX_POINT('',#1531);
#416=VERTEX_POINT('',#1532);
#417=VERTEX_POINT('',#1537);
#418=VERTEX_POINT('',#1541);
#419=VERTEX_POINT('',#1553);
#420=VERTEX_POINT('',#1555);
#421=VERTEX_POINT('',#1562);
#422=VERTEX_POINT('',#1564);
#423=EDGE_CURVE('',#352,#353,#348,.T.);
#424=EDGE_CURVE('',#353,#354,#313,.T.);
#425=EDGE_CURVE('',#355,#354,#314,.T.);
#426=EDGE_CURVE('',#352,#355,#315,.T.);
#427=EDGE_CURVE('',#356,#357,#219,.T.);
#428=EDGE_CURVE('',#358,#357,#316,.T.);
#429=EDGE_CURVE('',#358,#356,#220,.T.);
#430=EDGE_CURVE('',#356,#359,#317,.T.);
#431=EDGE_CURVE('',#359,#359,#318,.T.);
#432=EDGE_CURVE('',#353,#352,#349,.T.);
#433=EDGE_CURVE('',#352,#360,#319,.T.);
#434=EDGE_CURVE('',#361,#360,#350,.T.);
#435=EDGE_CURVE('',#360,#361,#351,.T.);
#436=EDGE_CURVE('',#362,#363,#320,.T.);
#437=EDGE_CURVE('',#363,#361,#321,.T.);
#438=EDGE_CURVE('',#362,#360,#322,.T.);
#439=EDGE_CURVE('',#364,#364,#323,.T.);
#440=EDGE_CURVE('',#364,#365,#324,.T.);
#441=EDGE_CURVE('',#366,#365,#325,.T.);
#442=EDGE_CURVE('',#365,#366,#326,.T.);
#443=EDGE_CURVE('',#359,#355,#65,.T.);
#444=EDGE_CURVE('',#354,#355,#327,.T.);
#445=EDGE_CURVE('',#362,#366,#66,.T.);
#446=EDGE_CURVE('',#363,#362,#328,.T.);
#447=EDGE_CURVE('',#367,#368,#329,.T.);
#448=EDGE_CURVE('',#368,#369,#67,.T.);
#449=EDGE_CURVE('',#369,#370,#330,.T.);
#450=EDGE_CURVE('',#370,#367,#68,.T.);
#451=EDGE_CURVE('',#357,#358,#69,.T.);
#452=EDGE_CURVE('',#371,#372,#70,.T.);
#453=EDGE_CURVE('',#372,#373,#331,.T.);
#454=EDGE_CURVE('',#373,#374,#71,.T.);
#455=EDGE_CURVE('',#374,#375,#332,.T.);
#456=EDGE_CURVE('',#375,#376,#72,.T.);
#457=EDGE_CURVE('',#376,#377,#333,.T.);
#458=EDGE_CURVE('',#377,#378,#73,.T.);
#459=EDGE_CURVE('',#378,#371,#334,.T.);
#460=EDGE_CURVE('',#379,#373,#74,.T.);
#461=EDGE_CURVE('',#372,#380,#75,.T.);
#462=EDGE_CURVE('',#379,#380,#335,.T.);
#463=EDGE_CURVE('',#378,#381,#76,.T.);
#464=EDGE_CURVE('',#382,#381,#336,.T.);
#465=EDGE_CURVE('',#382,#371,#77,.T.);
#466=EDGE_CURVE('',#376,#383,#78,.T.);
#467=EDGE_CURVE('',#384,#383,#337,.T.);
#468=EDGE_CURVE('',#384,#377,#79,.T.);
#469=EDGE_CURVE('',#374,#385,#80,.T.);
#470=EDGE_CURVE('',#386,#385,#338,.T.);
#471=EDGE_CURVE('',#386,#375,#81,.T.);
#472=EDGE_CURVE('',#387,#388,#82,.T.);
#473=EDGE_CURVE('',#388,#379,#83,.T.);
#474=EDGE_CURVE('',#380,#387,#84,.T.);
#475=EDGE_CURVE('',#389,#390,#339,.T.);
#476=EDGE_CURVE('',#390,#382,#85,.T.);
#477=EDGE_CURVE('',#381,#389,#86,.T.);
#478=EDGE_CURVE('',#383,#391,#87,.T.);
#479=EDGE_CURVE('',#391,#392,#340,.T.);
#480=EDGE_CURVE('',#392,#384,#88,.T.);
#481=EDGE_CURVE('',#385,#393,#89,.T.);
#482=EDGE_CURVE('',#393,#394,#90,.T.);
#483=EDGE_CURVE('',#394,#386,#91,.T.);
#484=EDGE_CURVE('',#395,#387,#92,.T.);
#485=EDGE_CURVE('',#395,#396,#93,.T.);
#486=EDGE_CURVE('',#396,#388,#94,.T.);
#487=EDGE_CURVE('',#397,#390,#95,.T.);
#488=EDGE_CURVE('',#395,#397,#96,.T.);
#489=EDGE_CURVE('',#389,#398,#97,.T.);
#490=EDGE_CURVE('',#398,#397,#341,.T.);
#491=EDGE_CURVE('',#398,#399,#98,.T.);
#492=EDGE_CURVE('',#400,#392,#99,.T.);
#493=EDGE_CURVE('',#401,#400,#100,.T.);
#494=EDGE_CURVE('',#399,#401,#101,.T.);
#495=EDGE_CURVE('',#402,#394,#102,.T.);
#496=EDGE_CURVE('',#403,#402,#103,.T.);
#497=EDGE_CURVE('',#391,#403,#104,.T.);
#498=EDGE_CURVE('',#403,#400,#342,.T.);
#499=EDGE_CURVE('',#393,#404,#105,.T.);
#500=EDGE_CURVE('',#402,#404,#106,.T.);
#501=EDGE_CURVE('',#405,#404,#107,.T.);
#502=EDGE_CURVE('',#406,#405,#108,.T.);
#503=EDGE_CURVE('',#407,#406,#343,.T.);
#504=EDGE_CURVE('',#408,#407,#109,.T.);
#505=EDGE_CURVE('',#396,#408,#110,.T.);
#506=EDGE_CURVE('',#368,#399,#111,.T.);
#507=EDGE_CURVE('',#401,#367,#112,.T.);
#508=EDGE_CURVE('',#409,#399,#113,.T.);
#509=EDGE_CURVE('',#401,#410,#114,.T.);
#510=EDGE_CURVE('',#410,#409,#115,.T.);
#511=EDGE_CURVE('',#405,#408,#116,.T.);
#512=EDGE_CURVE('',#406,#411,#117,.T.);
#513=EDGE_CURVE('',#412,#405,#118,.T.);
#514=EDGE_CURVE('',#413,#412,#119,.T.);
#515=EDGE_CURVE('',#411,#413,#120,.T.);
#516=EDGE_CURVE('',#411,#414,#344,.T.);
#517=EDGE_CURVE('',#414,#407,#121,.T.);
#518=EDGE_CURVE('',#415,#416,#122,.T.);
#519=EDGE_CURVE('',#408,#415,#123,.T.);
#520=EDGE_CURVE('',#416,#414,#124,.T.);
#521=EDGE_CURVE('',#417,#409,#125,.T.);
#522=EDGE_CURVE('',#369,#417,#126,.T.);
#523=EDGE_CURVE('',#410,#418,#127,.T.);
#524=EDGE_CURVE('',#418,#370,#128,.T.);
#525=EDGE_CURVE('',#417,#418,#129,.T.);
#526=EDGE_CURVE('',#415,#412,#130,.T.);
#527=EDGE_CURVE('',#416,#413,#131,.T.);
#528=EDGE_CURVE('',#419,#357,#132,.T.);
#529=EDGE_CURVE('',#420,#419,#345,.T.);
#530=EDGE_CURVE('',#420,#358,#133,.T.);
#531=EDGE_CURVE('',#419,#420,#134,.T.);
#532=EDGE_CURVE('',#421,#421,#346,.T.);
#533=EDGE_CURVE('',#421,#422,#135,.T.);
#534=EDGE_CURVE('',#422,#422,#347,.T.);
#535=ORIENTED_EDGE('',*,*,#423,.T.);
#536=ORIENTED_EDGE('',*,*,#424,.T.);
#537=ORIENTED_EDGE('',*,*,#425,.F.);
#538=ORIENTED_EDGE('',*,*,#426,.F.);
#539=ORIENTED_EDGE('',*,*,#427,.T.);
#540=ORIENTED_EDGE('',*,*,#428,.F.);
#541=ORIENTED_EDGE('',*,*,#429,.T.);
#542=ORIENTED_EDGE('',*,*,#430,.T.);
#543=ORIENTED_EDGE('',*,*,#431,.F.);
#544=ORIENTED_EDGE('',*,*,#430,.F.);
#545=ORIENTED_EDGE('',*,*,#432,.F.);
#546=ORIENTED_EDGE('',*,*,#423,.F.);
#547=ORIENTED_EDGE('',*,*,#433,.T.);
#548=ORIENTED_EDGE('',*,*,#434,.F.);
#549=ORIENTED_EDGE('',*,*,#435,.F.);
#550=ORIENTED_EDGE('',*,*,#433,.F.);
#551=ORIENTED_EDGE('',*,*,#436,.T.);
#552=ORIENTED_EDGE('',*,*,#437,.T.);
#553=ORIENTED_EDGE('',*,*,#434,.T.);
#554=ORIENTED_EDGE('',*,*,#438,.F.);
#555=ORIENTED_EDGE('',*,*,#439,.T.);
#556=ORIENTED_EDGE('',*,*,#440,.T.);
#557=ORIENTED_EDGE('',*,*,#441,.F.);
#558=ORIENTED_EDGE('',*,*,#442,.F.);
#559=ORIENTED_EDGE('',*,*,#440,.F.);
#560=ORIENTED_EDGE('',*,*,#431,.T.);
#561=ORIENTED_EDGE('',*,*,#443,.T.);
#562=ORIENTED_EDGE('',*,*,#425,.T.);
#563=ORIENTED_EDGE('',*,*,#444,.T.);
#564=ORIENTED_EDGE('',*,*,#443,.F.);
#565=ORIENTED_EDGE('',*,*,#436,.F.);
#566=ORIENTED_EDGE('',*,*,#445,.T.);
#567=ORIENTED_EDGE('',*,*,#441,.T.);
#568=ORIENTED_EDGE('',*,*,#442,.T.);
#569=ORIENTED_EDGE('',*,*,#445,.F.);
#570=ORIENTED_EDGE('',*,*,#446,.F.);
#571=ORIENTED_EDGE('',*,*,#447,.T.);
#572=ORIENTED_EDGE('',*,*,#448,.T.);
#573=ORIENTED_EDGE('',*,*,#449,.T.);
#574=ORIENTED_EDGE('',*,*,#450,.T.);
#575=ORIENTED_EDGE('',*,*,#451,.F.);
#576=ORIENTED_EDGE('',*,*,#427,.F.);
#577=ORIENTED_EDGE('',*,*,#429,.F.);
#578=ORIENTED_EDGE('',*,*,#424,.F.);
#579=ORIENTED_EDGE('',*,*,#432,.T.);
#580=ORIENTED_EDGE('',*,*,#426,.T.);
#581=ORIENTED_EDGE('',*,*,#444,.F.);
#582=ORIENTED_EDGE('',*,*,#437,.F.);
#583=ORIENTED_EDGE('',*,*,#446,.T.);
#584=ORIENTED_EDGE('',*,*,#438,.T.);
#585=ORIENTED_EDGE('',*,*,#435,.T.);
#586=ORIENTED_EDGE('',*,*,#452,.T.);
#587=ORIENTED_EDGE('',*,*,#453,.T.);
#588=ORIENTED_EDGE('',*,*,#454,.T.);
#589=ORIENTED_EDGE('',*,*,#455,.T.);
#590=ORIENTED_EDGE('',*,*,#456,.T.);
#591=ORIENTED_EDGE('',*,*,#457,.T.);
#592=ORIENTED_EDGE('',*,*,#458,.T.);
#593=ORIENTED_EDGE('',*,*,#459,.T.);
#594=ORIENTED_EDGE('',*,*,#439,.F.);
#595=ORIENTED_EDGE('',*,*,#460,.T.);
#596=ORIENTED_EDGE('',*,*,#453,.F.);
#597=ORIENTED_EDGE('',*,*,#461,.T.);
#598=ORIENTED_EDGE('',*,*,#462,.F.);
#599=ORIENTED_EDGE('',*,*,#459,.F.);
#600=ORIENTED_EDGE('',*,*,#463,.T.);
#601=ORIENTED_EDGE('',*,*,#464,.F.);
#602=ORIENTED_EDGE('',*,*,#465,.T.);
#603=ORIENTED_EDGE('',*,*,#466,.T.);
#604=ORIENTED_EDGE('',*,*,#467,.F.);
#605=ORIENTED_EDGE('',*,*,#468,.T.);
#606=ORIENTED_EDGE('',*,*,#457,.F.);
#607=ORIENTED_EDGE('',*,*,#469,.T.);
#608=ORIENTED_EDGE('',*,*,#470,.F.);
#609=ORIENTED_EDGE('',*,*,#471,.T.);
#610=ORIENTED_EDGE('',*,*,#455,.F.);
#611=ORIENTED_EDGE('',*,*,#472,.T.);
#612=ORIENTED_EDGE('',*,*,#473,.T.);
#613=ORIENTED_EDGE('',*,*,#462,.T.);
#614=ORIENTED_EDGE('',*,*,#474,.T.);
#615=ORIENTED_EDGE('',*,*,#475,.T.);
#616=ORIENTED_EDGE('',*,*,#476,.T.);
#617=ORIENTED_EDGE('',*,*,#464,.T.);
#618=ORIENTED_EDGE('',*,*,#477,.T.);
#619=ORIENTED_EDGE('',*,*,#467,.T.);
#620=ORIENTED_EDGE('',*,*,#478,.T.);
#621=ORIENTED_EDGE('',*,*,#479,.T.);
#622=ORIENTED_EDGE('',*,*,#480,.T.);
#623=ORIENTED_EDGE('',*,*,#481,.T.);
#624=ORIENTED_EDGE('',*,*,#482,.T.);
#625=ORIENTED_EDGE('',*,*,#483,.T.);
#626=ORIENTED_EDGE('',*,*,#470,.T.);
#627=ORIENTED_EDGE('',*,*,#472,.F.);
#628=ORIENTED_EDGE('',*,*,#484,.F.);
#629=ORIENTED_EDGE('',*,*,#485,.T.);
#630=ORIENTED_EDGE('',*,*,#486,.T.);
#631=ORIENTED_EDGE('',*,*,#474,.F.);
#632=ORIENTED_EDGE('',*,*,#461,.F.);
#633=ORIENTED_EDGE('',*,*,#452,.F.);
#634=ORIENTED_EDGE('',*,*,#465,.F.);
#635=ORIENTED_EDGE('',*,*,#476,.F.);
#636=ORIENTED_EDGE('',*,*,#487,.F.);
#637=ORIENTED_EDGE('',*,*,#488,.F.);
#638=ORIENTED_EDGE('',*,*,#484,.T.);
#639=ORIENTED_EDGE('',*,*,#489,.T.);
#640=ORIENTED_EDGE('',*,*,#490,.T.);
#641=ORIENTED_EDGE('',*,*,#487,.T.);
#642=ORIENTED_EDGE('',*,*,#475,.F.);
#643=ORIENTED_EDGE('',*,*,#491,.F.);
#644=ORIENTED_EDGE('',*,*,#489,.F.);
#645=ORIENTED_EDGE('',*,*,#477,.F.);
#646=ORIENTED_EDGE('',*,*,#463,.F.);
#647=ORIENTED_EDGE('',*,*,#458,.F.);
#648=ORIENTED_EDGE('',*,*,#468,.F.);
#649=ORIENTED_EDGE('',*,*,#480,.F.);
#650=ORIENTED_EDGE('',*,*,#492,.F.);
#651=ORIENTED_EDGE('',*,*,#493,.F.);
#652=ORIENTED_EDGE('',*,*,#494,.F.);
#653=ORIENTED_EDGE('',*,*,#466,.F.);
#654=ORIENTED_EDGE('',*,*,#456,.F.);
#655=ORIENTED_EDGE('',*,*,#471,.F.);
#656=ORIENTED_EDGE('',*,*,#483,.F.);
#657=ORIENTED_EDGE('',*,*,#495,.F.);
#658=ORIENTED_EDGE('',*,*,#496,.F.);
#659=ORIENTED_EDGE('',*,*,#497,.F.);
#660=ORIENTED_EDGE('',*,*,#478,.F.);
#661=ORIENTED_EDGE('',*,*,#497,.T.);
#662=ORIENTED_EDGE('',*,*,#498,.T.);
#663=ORIENTED_EDGE('',*,*,#492,.T.);
#664=ORIENTED_EDGE('',*,*,#479,.F.);
#665=ORIENTED_EDGE('',*,*,#482,.F.);
#666=ORIENTED_EDGE('',*,*,#499,.T.);
#667=ORIENTED_EDGE('',*,*,#500,.F.);
#668=ORIENTED_EDGE('',*,*,#495,.T.);
#669=ORIENTED_EDGE('',*,*,#500,.T.);
#670=ORIENTED_EDGE('',*,*,#501,.F.);
#671=ORIENTED_EDGE('',*,*,#502,.F.);
#672=ORIENTED_EDGE('',*,*,#503,.F.);
#673=ORIENTED_EDGE('',*,*,#504,.F.);
#674=ORIENTED_EDGE('',*,*,#505,.F.);
#675=ORIENTED_EDGE('',*,*,#485,.F.);
#676=ORIENTED_EDGE('',*,*,#488,.T.);
#677=ORIENTED_EDGE('',*,*,#490,.F.);
#678=ORIENTED_EDGE('',*,*,#491,.T.);
#679=ORIENTED_EDGE('',*,*,#506,.F.);
#680=ORIENTED_EDGE('',*,*,#447,.F.);
#681=ORIENTED_EDGE('',*,*,#507,.F.);
#682=ORIENTED_EDGE('',*,*,#493,.T.);
#683=ORIENTED_EDGE('',*,*,#498,.F.);
#684=ORIENTED_EDGE('',*,*,#496,.T.);
#685=ORIENTED_EDGE('',*,*,#508,.T.);
#686=ORIENTED_EDGE('',*,*,#494,.T.);
#687=ORIENTED_EDGE('',*,*,#509,.T.);
#688=ORIENTED_EDGE('',*,*,#510,.T.);
#689=ORIENTED_EDGE('',*,*,#501,.T.);
#690=ORIENTED_EDGE('',*,*,#499,.F.);
#691=ORIENTED_EDGE('',*,*,#481,.F.);
#692=ORIENTED_EDGE('',*,*,#469,.F.);
#693=ORIENTED_EDGE('',*,*,#454,.F.);
#694=ORIENTED_EDGE('',*,*,#460,.F.);
#695=ORIENTED_EDGE('',*,*,#473,.F.);
#696=ORIENTED_EDGE('',*,*,#486,.F.);
#697=ORIENTED_EDGE('',*,*,#505,.T.);
#698=ORIENTED_EDGE('',*,*,#511,.F.);
#699=ORIENTED_EDGE('',*,*,#512,.F.);
#700=ORIENTED_EDGE('',*,*,#502,.T.);
#701=ORIENTED_EDGE('',*,*,#513,.F.);
#702=ORIENTED_EDGE('',*,*,#514,.F.);
#703=ORIENTED_EDGE('',*,*,#515,.F.);
#704=ORIENTED_EDGE('',*,*,#503,.T.);
#705=ORIENTED_EDGE('',*,*,#512,.T.);
#706=ORIENTED_EDGE('',*,*,#516,.T.);
#707=ORIENTED_EDGE('',*,*,#517,.T.);
#708=ORIENTED_EDGE('',*,*,#518,.F.);
#709=ORIENTED_EDGE('',*,*,#519,.F.);
#710=ORIENTED_EDGE('',*,*,#504,.T.);
#711=ORIENTED_EDGE('',*,*,#517,.F.);
#712=ORIENTED_EDGE('',*,*,#520,.F.);
#713=ORIENTED_EDGE('',*,*,#448,.F.);
#714=ORIENTED_EDGE('',*,*,#506,.T.);
#715=ORIENTED_EDGE('',*,*,#508,.F.);
#716=ORIENTED_EDGE('',*,*,#521,.F.);
#717=ORIENTED_EDGE('',*,*,#522,.F.);
#718=ORIENTED_EDGE('',*,*,#523,.F.);
#719=ORIENTED_EDGE('',*,*,#509,.F.);
#720=ORIENTED_EDGE('',*,*,#507,.T.);
#721=ORIENTED_EDGE('',*,*,#450,.F.);
#722=ORIENTED_EDGE('',*,*,#524,.F.);
#723=ORIENTED_EDGE('',*,*,#521,.T.);
#724=ORIENTED_EDGE('',*,*,#510,.F.);
#725=ORIENTED_EDGE('',*,*,#523,.T.);
#726=ORIENTED_EDGE('',*,*,#525,.F.);
#727=ORIENTED_EDGE('',*,*,#513,.T.);
#728=ORIENTED_EDGE('',*,*,#511,.T.);
#729=ORIENTED_EDGE('',*,*,#519,.T.);
#730=ORIENTED_EDGE('',*,*,#526,.T.);
#731=ORIENTED_EDGE('',*,*,#516,.F.);
#732=ORIENTED_EDGE('',*,*,#515,.T.);
#733=ORIENTED_EDGE('',*,*,#527,.F.);
#734=ORIENTED_EDGE('',*,*,#520,.T.);
#735=ORIENTED_EDGE('',*,*,#514,.T.);
#736=ORIENTED_EDGE('',*,*,#526,.F.);
#737=ORIENTED_EDGE('',*,*,#518,.T.);
#738=ORIENTED_EDGE('',*,*,#527,.T.);
#739=ORIENTED_EDGE('',*,*,#449,.F.);
#740=ORIENTED_EDGE('',*,*,#522,.T.);
#741=ORIENTED_EDGE('',*,*,#525,.T.);
#742=ORIENTED_EDGE('',*,*,#524,.T.);
#743=ORIENTED_EDGE('',*,*,#428,.T.);
#744=ORIENTED_EDGE('',*,*,#528,.F.);
#745=ORIENTED_EDGE('',*,*,#529,.F.);
#746=ORIENTED_EDGE('',*,*,#530,.T.);
#747=ORIENTED_EDGE('',*,*,#451,.T.);
#748=ORIENTED_EDGE('',*,*,#530,.F.);
#749=ORIENTED_EDGE('',*,*,#531,.F.);
#750=ORIENTED_EDGE('',*,*,#528,.T.);
#751=ORIENTED_EDGE('',*,*,#529,.T.);
#752=ORIENTED_EDGE('',*,*,#531,.T.);
#753=ORIENTED_EDGE('',*,*,#532,.T.);
#754=ORIENTED_EDGE('',*,*,#533,.T.);
#755=ORIENTED_EDGE('',*,*,#534,.T.);
#756=ORIENTED_EDGE('',*,*,#533,.F.);
#757=(
BOUNDED_SURFACE()
B_SPLINE_SURFACE(2,13,((#1124,#1125,#1126,#1127,#1128,#1129,#1130,#1131,
#1132,#1133,#1134,#1135,#1136,#1137),(#1138,#1139,#1140,#1141,#1142,#1143,
#1144,#1145,#1146,#1147,#1148,#1149,#1150,#1151),(#1152,#1153,#1154,#1155,
#1156,#1157,#1158,#1159,#1160,#1161,#1162,#1163,#1164,#1165)),
 .UNSPECIFIED.,.F.,.T.,.F.)
B_SPLINE_SURFACE_WITH_KNOTS((3,3),(14,14),(0.,19.792033717616),(0.,19.792033717616),
 .UNSPECIFIED.)
GEOMETRIC_REPRESENTATION_ITEM()
RATIONAL_B_SPLINE_SURFACE(((1.,1.,1.,1.,1.,1.,1.,1.,1.,1.,1.,1.,1.,1.),
(0.738548945876,0.738548945876,0.738548945877,0.738548945874,0.73854894588,
0.73854894587,0.738548945883,0.73854894587,0.738548945881,0.738548945873,
0.738548945877,0.738548945875,0.738548945876,0.738548945876),(1.,1.,1.,
1.,1.,1.,1.,1.,1.,1.,1.,1.,1.,1.)))
REPRESENTATION_ITEM('')
SURFACE()
);
#758=(
BOUNDED_SURFACE()
B_SPLINE_SURFACE(2,13,((#1243,#1244,#1245,#1246,#1247,#1248,#1249,#1250,
#1251,#1252,#1253,#1254,#1255,#1256),(#1257,#1258,#1259,#1260,#1261,#1262,
#1263,#1264,#1265,#1266,#1267,#1268,#1269,#1270),(#1271,#1272,#1273,#1274,
#1275,#1276,#1277,#1278,#1279,#1280,#1281,#1282,#1283,#1284)),
 .UNSPECIFIED.,.F.,.T.,.F.)
B_SPLINE_SURFACE_WITH_KNOTS((3,3),(14,14),(0.,19.792033717616),(0.,19.792033717616),
 .UNSPECIFIED.)
GEOMETRIC_REPRESENTATION_ITEM()
RATIONAL_B_SPLINE_SURFACE(((1.,1.,1.,1.,1.,1.,1.,1.,1.,1.,1.,1.,1.,1.),
(0.738548945876,0.738548945876,0.738548945877,0.738548945875,0.738548945879,
0.738548945872,0.738548945881,0.738548945872,0.738548945879,0.738548945874,
0.738548945877,0.738548945876,0.738548945876,0.738548945876),(1.,1.,1.,
1.,1.,1.,1.,1.,1.,1.,1.,1.,1.,1.)))
REPRESENTATION_ITEM('')
SURFACE()
);
#759=(
BOUNDED_SURFACE()
B_SPLINE_SURFACE(2,13,((#1315,#1316,#1317,#1318,#1319,#1320,#1321,#1322,
#1323,#1324,#1325,#1326,#1327,#1328),(#1329,#1330,#1331,#1332,#1333,#1334,
#1335,#1336,#1337,#1338,#1339,#1340,#1341,#1342),(#1343,#1344,#1345,#1346,
#1347,#1348,#1349,#1350,#1351,#1352,#1353,#1354,#1355,#1356)),
 .UNSPECIFIED.,.F.,.T.,.F.)
B_SPLINE_SURFACE_WITH_KNOTS((3,3),(14,14),(0.,19.792033717616),(0.,19.792033717616),
 .UNSPECIFIED.)
GEOMETRIC_REPRESENTATION_ITEM()
RATIONAL_B_SPLINE_SURFACE(((1.,1.,1.,1.,1.,1.,1.,1.,1.,1.,1.,1.,1.,1.),
(0.738548945876,0.738548945876,0.738548945877,0.738548945874,0.73854894588,
0.73854894587,0.738548945883,0.73854894587,0.738548945881,0.738548945873,
0.738548945877,0.738548945875,0.738548945876,0.738548945876),(1.,1.,1.,
1.,1.,1.,1.,1.,1.,1.,1.,1.,1.,1.)))
REPRESENTATION_ITEM('')
SURFACE()
);
#760=(
BOUNDED_SURFACE()
B_SPLINE_SURFACE(2,13,((#1357,#1358,#1359,#1360,#1361,#1362,#1363,#1364,
#1365,#1366,#1367,#1368,#1369,#1370),(#1371,#1372,#1373,#1374,#1375,#1376,
#1377,#1378,#1379,#1380,#1381,#1382,#1383,#1384),(#1385,#1386,#1387,#1388,
#1389,#1390,#1391,#1392,#1393,#1394,#1395,#1396,#1397,#1398)),
 .UNSPECIFIED.,.F.,.T.,.F.)
B_SPLINE_SURFACE_WITH_KNOTS((3,3),(14,14),(0.,19.792033717616),(0.,19.792033717616),
 .UNSPECIFIED.)
GEOMETRIC_REPRESENTATION_ITEM()
RATIONAL_B_SPLINE_SURFACE(((1.,1.,1.,1.,1.,1.,1.,1.,1.,1.,1.,1.,1.,1.),
(0.738548945876,0.738548945876,0.738548945877,0.738548945875,0.738548945879,
0.738548945872,0.738548945881,0.738548945872,0.738548945879,0.738548945874,
0.738548945877,0.738548945876,0.738548945876,0.738548945876),(1.,1.,1.,
1.,1.,1.,1.,1.,1.,1.,1.,1.,1.,1.)))
REPRESENTATION_ITEM('')
SURFACE()
);
#761=ADVANCED_FACE('',(#224),#757,.T.);
#762=ADVANCED_FACE('',(#225),#221,.T.);
#763=ADVANCED_FACE('',(#226),#222,.F.);
#764=ADVANCED_FACE('',(#227),#758,.T.);
#765=ADVANCED_FACE('',(#228),#223,.T.);
#766=ADVANCED_FACE('',(#229),#207,.T.);
#767=ADVANCED_FACE('',(#230),#208,.T.);
#768=ADVANCED_FACE('',(#231),#209,.T.);
#769=ADVANCED_FACE('',(#232),#40,.F.);
#770=ADVANCED_FACE('',(#233),#759,.T.);
#771=ADVANCED_FACE('',(#234),#760,.T.);
#772=ADVANCED_FACE('',(#235,#16),#41,.T.);
#773=ADVANCED_FACE('',(#236),#210,.F.);
#774=ADVANCED_FACE('',(#237),#211,.F.);
#775=ADVANCED_FACE('',(#238),#212,.F.);
#776=ADVANCED_FACE('',(#239),#213,.F.);
#777=ADVANCED_FACE('',(#240),#42,.T.);
#778=ADVANCED_FACE('',(#241),#43,.T.);
#779=ADVANCED_FACE('',(#242),#44,.T.);
#780=ADVANCED_FACE('',(#243),#45,.T.);
#781=ADVANCED_FACE('',(#244),#46,.F.);
#782=ADVANCED_FACE('',(#245),#47,.F.);
#783=ADVANCED_FACE('',(#246),#214,.T.);
#784=ADVANCED_FACE('',(#247),#48,.F.);
#785=ADVANCED_FACE('',(#248),#49,.F.);
#786=ADVANCED_FACE('',(#249),#215,.T.);
#787=ADVANCED_FACE('',(#250),#50,.F.);
#788=ADVANCED_FACE('',(#251),#51,.F.);
#789=ADVANCED_FACE('',(#252),#52,.T.);
#790=ADVANCED_FACE('',(#253),#53,.F.);
#791=ADVANCED_FACE('',(#254),#54,.F.);
#792=ADVANCED_FACE('',(#255),#216,.T.);
#793=ADVANCED_FACE('',(#256),#55,.F.);
#794=ADVANCED_FACE('',(#257),#56,.F.);
#795=ADVANCED_FACE('',(#258),#57,.F.);
#796=ADVANCED_FACE('',(#259),#58,.F.);
#797=ADVANCED_FACE('',(#260),#59,.T.);
#798=ADVANCED_FACE('',(#261),#60,.F.);
#799=ADVANCED_FACE('',(#262),#61,.F.);
#800=ADVANCED_FACE('',(#263),#62,.F.);
#801=ADVANCED_FACE('',(#264),#217,.T.);
#802=ADVANCED_FACE('',(#265),#63,.F.);
#803=ADVANCED_FACE('',(#266),#64,.F.);
#804=ADVANCED_FACE('',(#267),#218,.T.);
#805=CLOSED_SHELL('',(#761,#762,#763,#764,#765,#766,#767,#768,#769,#770,
#771,#772,#773,#774,#775,#776,#777,#778,#779,#780,#781,#782,#783,#784,#785,
#786,#787,#788,#789,#790,#791,#792,#793,#794,#795,#796,#797,#798,#799,#800,
#801,#802,#803));
#806=DERIVED_UNIT_ELEMENT(#808,1.);
#807=DERIVED_UNIT_ELEMENT(#1572,-3.);
#808=(
MASS_UNIT()
NAMED_UNIT(*)
SI_UNIT(.KILO.,.GRAM.)
);
#809=DERIVED_UNIT((#806,#807));
#810=MEASURE_REPRESENTATION_ITEM('density measure',
POSITIVE_RATIO_MEASURE(7850.),#809);
#811=PROPERTY_DEFINITION_REPRESENTATION(#816,#813);
#812=PROPERTY_DEFINITION_REPRESENTATION(#817,#814);
#813=REPRESENTATION('material name',(#815),#1569);
#814=REPRESENTATION('density',(#810),#1569);
#815=DESCRIPTIVE_REPRESENTATION_ITEM('Acier','Acier');
#816=PROPERTY_DEFINITION('material property','material name',#1579);
#817=PROPERTY_DEFINITION('material property','density of part',#1579);
#818=AXIS2_PLACEMENT_3D('',#1123,#896,#897);
#819=AXIS2_PLACEMENT_3D('',#1183,#898,#899);
#820=AXIS2_PLACEMENT_3D('',#1185,#900,#901);
#821=AXIS2_PLACEMENT_3D('',#1186,#902,#903);
#822=AXIS2_PLACEMENT_3D('',#1187,#904,#905);
#823=AXIS2_PLACEMENT_3D('',#1190,#906,#907);
#824=AXIS2_PLACEMENT_3D('',#1192,#908,#909);
#825=AXIS2_PLACEMENT_3D('',#1193,#910,#911);
#826=AXIS2_PLACEMENT_3D('',#1195,#912,#913);
#827=AXIS2_PLACEMENT_3D('',#1196,#914,#915);
#828=AXIS2_PLACEMENT_3D('',#1197,#916,#917);
#829=AXIS2_PLACEMENT_3D('',#1213,#918,#919);
#830=AXIS2_PLACEMENT_3D('',#1287,#920,#921);
#831=AXIS2_PLACEMENT_3D('',#1288,#922,#923);
#832=AXIS2_PLACEMENT_3D('',#1289,#924,#925);
#833=AXIS2_PLACEMENT_3D('',#1290,#926,#927);
#834=AXIS2_PLACEMENT_3D('',#1292,#928,#929);
#835=AXIS2_PLACEMENT_3D('',#1294,#930,#931);
#836=AXIS2_PLACEMENT_3D('',#1296,#932,#933);
#837=AXIS2_PLACEMENT_3D('',#1297,#934,#935);
#838=AXIS2_PLACEMENT_3D('',#1298,#936,#937);
#839=AXIS2_PLACEMENT_3D('',#1300,#939,#940);
#840=AXIS2_PLACEMENT_3D('',#1301,#941,#942);
#841=AXIS2_PLACEMENT_3D('',#1303,#944,#945);
#842=AXIS2_PLACEMENT_3D('',#1304,#946,#947);
#843=AXIS2_PLACEMENT_3D('',#1307,#948,#949);
#844=AXIS2_PLACEMENT_3D('',#1311,#951,#952);
#845=AXIS2_PLACEMENT_3D('',#1313,#954,#955);
#846=AXIS2_PLACEMENT_3D('',#1399,#957,#958);
#847=AXIS2_PLACEMENT_3D('',#1404,#960,#961);
#848=AXIS2_PLACEMENT_3D('',#1408,#963,#964);
#849=AXIS2_PLACEMENT_3D('',#1412,#966,#967);
#850=AXIS2_PLACEMENT_3D('',#1415,#969,#970);
#851=AXIS2_PLACEMENT_3D('',#1416,#971,#972);
#852=AXIS2_PLACEMENT_3D('',#1421,#975,#976);
#853=AXIS2_PLACEMENT_3D('',#1422,#977,#978);
#854=AXIS2_PLACEMENT_3D('',#1426,#980,#981);
#855=AXIS2_PLACEMENT_3D('',#1428,#983,#984);
#856=AXIS2_PLACEMENT_3D('',#1432,#986,#987);
#857=AXIS2_PLACEMENT_3D('',#1434,#989,#990);
#858=AXIS2_PLACEMENT_3D('',#1438,#992,#993);
#859=AXIS2_PLACEMENT_3D('',#1440,#995,#996);
#860=AXIS2_PLACEMENT_3D('',#1446,#1000,#1001);
#861=AXIS2_PLACEMENT_3D('',#1449,#1002,#1003);
#862=AXIS2_PLACEMENT_3D('',#1452,#1006,#1007);
#863=AXIS2_PLACEMENT_3D('',#1456,#1009,#1010);
#864=AXIS2_PLACEMENT_3D('',#1458,#1012,#1013);
#865=AXIS2_PLACEMENT_3D('',#1464,#1017,#1018);
#866=AXIS2_PLACEMENT_3D('',#1470,#1022,#1023);
#867=AXIS2_PLACEMENT_3D('',#1474,#1026,#1027);
#868=AXIS2_PLACEMENT_3D('',#1477,#1029,#1030);
#869=AXIS2_PLACEMENT_3D('',#1478,#1031,#1032);
#870=AXIS2_PLACEMENT_3D('',#1486,#1037,#1038);
#871=AXIS2_PLACEMENT_3D('',#1492,#1042,#1043);
#872=AXIS2_PLACEMENT_3D('',#1493,#1044,#1045);
#873=AXIS2_PLACEMENT_3D('',#1494,#1046,#1047);
#874=AXIS2_PLACEMENT_3D('',#1498,#1050,#1051);
#875=AXIS2_PLACEMENT_3D('',#1504,#1054,#1055);
#876=AXIS2_PLACEMENT_3D('',#1510,#1060,#1061);
#877=AXIS2_PLACEMENT_3D('',#1516,#1065,#1066);
#878=AXIS2_PLACEMENT_3D('',#1518,#1068,#1069);
#879=AXIS2_PLACEMENT_3D('',#1526,#1074,#1075);
#880=AXIS2_PLACEMENT_3D('',#1528,#1076,#1077);
#881=AXIS2_PLACEMENT_3D('',#1530,#1079,#1080);
#882=AXIS2_PLACEMENT_3D('',#1536,#1084,#1085);
#883=AXIS2_PLACEMENT_3D('',#1540,#1088,#1089);
#884=AXIS2_PLACEMENT_3D('',#1544,#1092,#1093);
#885=AXIS2_PLACEMENT_3D('',#1546,#1095,#1096);
#886=AXIS2_PLACEMENT_3D('',#1548,#1098,#1099);
#887=AXIS2_PLACEMENT_3D('',#1550,#1101,#1102);
#888=AXIS2_PLACEMENT_3D('',#1551,#1103,#1104);
#889=AXIS2_PLACEMENT_3D('',#1552,#1105,#1106);
#890=AXIS2_PLACEMENT_3D('',#1556,#1108,#1109);
#891=AXIS2_PLACEMENT_3D('',#1558,#1111,#1112);
#892=AXIS2_PLACEMENT_3D('',#1560,#1114,#1115);
#893=AXIS2_PLACEMENT_3D('',#1561,#1116,#1117);
#894=AXIS2_PLACEMENT_3D('',#1563,#1118,#1119);
#895=AXIS2_PLACEMENT_3D('',#1566,#1121,#1122);
#896=DIRECTION('axis',(0.,0.,1.));
#897=DIRECTION('refdir',(1.,0.,0.));
#898=DIRECTION('center_axis',(1.18653624613778E-12,-1.,-5.03605741154764E-13));
#899=DIRECTION('ref_axis',(0.999999999998219,1.18653529566842E-12,1.88732405838023E-6));
#900=DIRECTION('center_axis',(2.91653826310259E-14,2.91653826310259E-14,
1.));
#901=DIRECTION('ref_axis',(1.,-5.18540727744975E-16,-2.90772696925636E-14));
#902=DIRECTION('center_axis',(6.28038062809449E-14,1.,5.72199745471162E-14));
#903=DIRECTION('ref_axis',(-1.,6.28038062810063E-14,-1.05735526151597E-12));
#904=DIRECTION('center_axis',(-2.71218192291546E-16,-1.72046701493641E-15,
1.));
#905=DIRECTION('ref_axis',(1.,0.,2.81961403079405E-16));
#906=DIRECTION('center_axis',(-3.54835270986336E-8,1.82593199636709E-8,
-0.999999999999999));
#907=DIRECTION('ref_axis',(0.805196899433954,-0.593007548975513,-3.93991405784167E-8));
#908=DIRECTION('center_axis',(-2.92950318726739E-15,-1.59627581664793E-15,
1.));
#909=DIRECTION('ref_axis',(0.542124528161935,0.840298158968113,2.84672570416707E-15));
#910=DIRECTION('center_axis',(-3.52264934404719E-8,-1.81259885064964E-8,
-0.999999999999999));
#911=DIRECTION('ref_axis',(0.805183972542991,0.593025100952638,-3.91129740910902E-8));
#912=DIRECTION('center_axis',(1.22464679914736E-16,-1.,-1.72046701493641E-15));
#913=DIRECTION('ref_axis',(-1.,-1.22464679914735E-16,-3.52451753849256E-16));
#914=DIRECTION('center_axis',(0.,0.,-1.));
#915=DIRECTION('ref_axis',(1.,0.,0.));
#916=DIRECTION('center_axis',(-8.63369755729981E-17,6.69814473166976E-16,
1.));
#917=DIRECTION('ref_axis',(1.,0.,1.28164274127002E-16));
#918=DIRECTION('center_axis',(-1.22464679914735E-16,1.,-6.69814473166976E-16));
#919=DIRECTION('ref_axis',(-1.,-1.22464679914735E-16,-8.01026713293764E-17));
#920=DIRECTION('center_axis',(-1.98498396677159E-30,-1.76228719094817E-16,
1.));
#921=DIRECTION('ref_axis',(1.,-2.25926694709698E-14,0.));
#922=DIRECTION('center_axis',(2.41571374268754E-11,-1.,2.29766949931387E-11));
#923=DIRECTION('ref_axis',(0.0911239476223703,2.50823955221524E-11,0.995839558447904));
#924=DIRECTION('center_axis',(1.03146438199765E-13,1.,-8.17502013578075E-14));
#925=DIRECTION('ref_axis',(-0.0909090909085971,9.0788638680405E-14,0.995859195463983));
#926=DIRECTION('center_axis',(1.74010058800486E-16,-1.27942892947555E-15,
-1.));
#927=DIRECTION('ref_axis',(-1.,0.,-1.40980701539703E-16));
#928=DIRECTION('center_axis',(0.,0.,1.));
#929=DIRECTION('ref_axis',(1.,3.11180755825899E-16,0.));
#930=DIRECTION('center_axis',(-1.22464679914736E-16,-1.,1.27942892947555E-15));
#931=DIRECTION('ref_axis',(1.,-1.22464679914735E-16,1.76225876924628E-16));
#932=DIRECTION('center_axis',(0.,0.,1.));
#933=DIRECTION('ref_axis',(1.,0.,0.));
#934=DIRECTION('center_axis',(0.,0.,1.));
#935=DIRECTION('ref_axis',(1.,0.,0.));
#936=DIRECTION('center_axis',(0.,0.,1.));
#937=DIRECTION('ref_axis',(1.,0.,0.));
#938=DIRECTION('',(0.,0.,-1.));
#939=DIRECTION('center_axis',(2.91653826310259E-14,-2.91653826310259E-14,
1.));
#940=DIRECTION('ref_axis',(-1.,8.15581793275578E-17,2.90772696925636E-14));
#941=DIRECTION('center_axis',(0.,0.,1.));
#942=DIRECTION('ref_axis',(1.,0.,0.));
#943=DIRECTION('',(0.,0.,-1.));
#944=DIRECTION('center_axis',(0.,0.,1.));
#945=DIRECTION('ref_axis',(-1.,5.71559815511997E-17,0.));
#946=DIRECTION('center_axis',(0.,0.,-1.));
#947=DIRECTION('ref_axis',(-1.,0.,0.));
#948=DIRECTION('center_axis',(0.,0.,-1.));
#949=DIRECTION('ref_axis',(-1.,0.,0.));
#950=DIRECTION('',(0.,0.,-1.));
#951=DIRECTION('center_axis',(0.,0.,1.));
#952=DIRECTION('ref_axis',(-1.,0.,0.));
#953=DIRECTION('',(0.,0.,1.));
#954=DIRECTION('center_axis',(0.,0.,-1.));
#955=DIRECTION('ref_axis',(-1.,0.,0.));
#956=DIRECTION('',(0.,-1.,0.));
#957=DIRECTION('center_axis',(0.,0.,1.));
#958=DIRECTION('ref_axis',(1.,0.,0.));
#959=DIRECTION('',(-1.,1.224646799147E-16,0.));
#960=DIRECTION('center_axis',(0.,0.,1.));
#961=DIRECTION('ref_axis',(-1.,8.88178419700125E-16,0.));
#962=DIRECTION('',(-1.224646799147E-16,-1.,0.));
#963=DIRECTION('center_axis',(0.,0.,1.));
#964=DIRECTION('ref_axis',(-1.,0.,0.));
#965=DIRECTION('',(1.,-1.224646799147E-16,0.));
#966=DIRECTION('center_axis',(0.,0.,1.));
#967=DIRECTION('ref_axis',(-1.,0.,0.));
#968=DIRECTION('',(1.224646799147E-16,1.,0.));
#969=DIRECTION('center_axis',(0.,0.,1.));
#970=DIRECTION('ref_axis',(-1.,0.,0.));
#971=DIRECTION('center_axis',(0.,0.,-1.));
#972=DIRECTION('ref_axis',(-1.,0.,0.));
#973=DIRECTION('',(0.,0.,-1.));
#974=DIRECTION('',(0.,0.,1.));
#975=DIRECTION('center_axis',(0.,0.,-1.));
#976=DIRECTION('ref_axis',(-1.,0.,0.));
#977=DIRECTION('center_axis',(0.,0.,-1.));
#978=DIRECTION('ref_axis',(-1.,0.,0.));
#979=DIRECTION('',(0.,0.,1.));
#980=DIRECTION('center_axis',(0.,0.,-1.));
#981=DIRECTION('ref_axis',(-1.,0.,0.));
#982=DIRECTION('',(0.,0.,-1.));
#983=DIRECTION('center_axis',(0.,0.,-1.));
#984=DIRECTION('ref_axis',(-1.,0.,0.));
#985=DIRECTION('',(0.,0.,1.));
#986=DIRECTION('center_axis',(0.,0.,-1.));
#987=DIRECTION('ref_axis',(-1.,0.,0.));
#988=DIRECTION('',(0.,0.,-1.));
#989=DIRECTION('center_axis',(0.,0.,-1.));
#990=DIRECTION('ref_axis',(-1.,0.,0.));
#991=DIRECTION('',(0.,0.,1.));
#992=DIRECTION('center_axis',(0.,0.,-1.));
#993=DIRECTION('ref_axis',(-1.,0.,0.));
#994=DIRECTION('',(0.,0.,-1.));
#995=DIRECTION('center_axis',(0.,0.,1.));
#996=DIRECTION('ref_axis',(1.,0.,0.));
#997=DIRECTION('',(-0.707106781186547,-0.707106781186547,0.));
#998=DIRECTION('',(-1.224646799147E-16,-1.,0.));
#999=DIRECTION('',(-1.,1.224646799147E-16,0.));
#1000=DIRECTION('center_axis',(0.,0.,1.));
#1001=DIRECTION('ref_axis',(1.,0.,0.));
#1002=DIRECTION('center_axis',(0.,0.,1.));
#1003=DIRECTION('ref_axis',(1.,0.,0.));
#1004=DIRECTION('',(-1.,0.,0.));
#1005=DIRECTION('',(0.,1.,0.));
#1006=DIRECTION('center_axis',(0.,0.,1.));
#1007=DIRECTION('ref_axis',(1.,0.,0.));
#1008=DIRECTION('',(1.,0.,0.));
#1009=DIRECTION('center_axis',(0.,0.,1.));
#1010=DIRECTION('ref_axis',(1.,0.,0.));
#1011=DIRECTION('',(0.,1.,0.));
#1012=DIRECTION('center_axis',(0.,0.,1.));
#1013=DIRECTION('ref_axis',(1.,0.,0.));
#1014=DIRECTION('',(-1.224646799147E-16,-1.,0.));
#1015=DIRECTION('',(0.707106781186547,-0.707106781186547,0.));
#1016=DIRECTION('',(1.,0.,0.));
#1017=DIRECTION('center_axis',(0.707106781186548,-0.707106781186548,0.));
#1018=DIRECTION('ref_axis',(0.707106781186548,0.707106781186548,0.));
#1019=DIRECTION('',(0.,0.,1.));
#1020=DIRECTION('',(-0.707106781186547,-0.707106781186547,0.));
#1021=DIRECTION('',(0.,0.,1.));
#1022=DIRECTION('center_axis',(-1.224646799147E-16,-1.,0.));
#1023=DIRECTION('ref_axis',(1.,-1.224646799147E-16,0.));
#1024=DIRECTION('',(0.,0.,1.));
#1025=DIRECTION('',(1.,-1.224646799147E-16,0.));
#1026=DIRECTION('center_axis',(0.,0.,1.));
#1027=DIRECTION('ref_axis',(1.,0.,0.));
#1028=DIRECTION('',(0.,0.,-1.));
#1029=DIRECTION('center_axis',(0.,0.,1.));
#1030=DIRECTION('ref_axis',(1.,0.,0.));
#1031=DIRECTION('center_axis',(-1.,1.224646799147E-16,0.));
#1032=DIRECTION('ref_axis',(-1.224646799147E-16,-1.,0.));
#1033=DIRECTION('',(-1.224646799147E-16,-1.,0.));
#1034=DIRECTION('',(0.,0.,1.));
#1035=DIRECTION('',(-1.224646799147E-16,-1.,0.));
#1036=DIRECTION('',(-1.224646799147E-16,-1.,0.));
#1037=DIRECTION('center_axis',(1.224646799147E-16,1.,0.));
#1038=DIRECTION('ref_axis',(-1.,1.224646799147E-16,0.));
#1039=DIRECTION('',(0.,0.,1.));
#1040=DIRECTION('',(-1.,1.224646799147E-16,0.));
#1041=DIRECTION('',(0.,0.,-1.));
#1042=DIRECTION('center_axis',(0.,0.,1.));
#1043=DIRECTION('ref_axis',(1.,0.,0.));
#1044=DIRECTION('center_axis',(0.,0.,1.));
#1045=DIRECTION('ref_axis',(1.,0.,0.));
#1046=DIRECTION('center_axis',(0.707106781186548,0.707106781186548,0.));
#1047=DIRECTION('ref_axis',(-0.707106781186548,0.707106781186548,0.));
#1048=DIRECTION('',(0.,0.,-1.));
#1049=DIRECTION('',(-0.707106781186547,0.707106781186547,0.));
#1050=DIRECTION('center_axis',(0.,0.,1.));
#1051=DIRECTION('ref_axis',(1.,0.,0.));
#1052=DIRECTION('',(0.,-1.,0.));
#1053=DIRECTION('',(-1.,0.,0.));
#1054=DIRECTION('center_axis',(0.,0.,-1.));
#1055=DIRECTION('ref_axis',(-1.,0.,0.));
#1056=DIRECTION('',(1.,0.,0.));
#1057=DIRECTION('',(0.,-1.,0.));
#1058=DIRECTION('',(1.,0.,0.));
#1059=DIRECTION('',(-1.,0.,0.));
#1060=DIRECTION('center_axis',(0.,0.,1.));
#1061=DIRECTION('ref_axis',(1.,0.,0.));
#1062=DIRECTION('',(-1.,0.,0.));
#1063=DIRECTION('',(1.,0.,0.));
#1064=DIRECTION('',(0.,1.,0.));
#1065=DIRECTION('center_axis',(1.,-1.224646799147E-16,0.));
#1066=DIRECTION('ref_axis',(1.224646799147E-16,1.,0.));
#1067=DIRECTION('',(1.224646799147E-16,1.,0.));
#1068=DIRECTION('center_axis',(1.224646799147E-16,1.,0.));
#1069=DIRECTION('ref_axis',(-1.,1.224646799147E-16,0.));
#1070=DIRECTION('',(0.,0.,-1.));
#1071=DIRECTION('',(1.,-1.224646799147E-16,0.));
#1072=DIRECTION('',(0.,0.,1.));
#1073=DIRECTION('',(-1.,1.224646799147E-16,0.));
#1074=DIRECTION('center_axis',(0.,0.,-1.));
#1075=DIRECTION('ref_axis',(1.,-3.21624529935327E-16,0.));
#1076=DIRECTION('center_axis',(0.,0.,1.));
#1077=DIRECTION('ref_axis',(-1.,0.,0.));
#1078=DIRECTION('',(0.,0.,1.));
#1079=DIRECTION('center_axis',(-1.432165121507E-16,-1.,0.));
#1080=DIRECTION('ref_axis',(1.,-1.432165121507E-16,0.));
#1081=DIRECTION('',(0.,0.,-1.));
#1082=DIRECTION('',(-1.,1.432165121507E-16,0.));
#1083=DIRECTION('',(1.,-1.432165121507E-16,0.));
#1084=DIRECTION('center_axis',(-2.449293598295E-16,-1.,0.));
#1085=DIRECTION('ref_axis',(1.,-2.449293598295E-16,0.));
#1086=DIRECTION('',(0.,0.,1.));
#1087=DIRECTION('',(1.,-2.449293598295E-16,0.));
#1088=DIRECTION('center_axis',(2.656811920655E-16,1.,0.));
#1089=DIRECTION('ref_axis',(-1.,2.656811920655E-16,0.));
#1090=DIRECTION('',(0.,0.,-1.));
#1091=DIRECTION('',(-1.,2.656811920655E-16,0.));
#1092=DIRECTION('center_axis',(-1.,2.449293598295E-16,0.));
#1093=DIRECTION('ref_axis',(-2.449293598295E-16,-1.,0.));
#1094=DIRECTION('',(-2.449293598295E-16,-1.,0.));
#1095=DIRECTION('center_axis',(0.,0.,1.));
#1096=DIRECTION('ref_axis',(1.,0.,0.));
#1097=DIRECTION('',(0.,-1.,0.));
#1098=DIRECTION('center_axis',(0.,0.,1.));
#1099=DIRECTION('ref_axis',(1.,0.,0.));
#1100=DIRECTION('',(0.,-1.,0.));
#1101=DIRECTION('center_axis',(1.,-1.224646799147E-16,0.));
#1102=DIRECTION('ref_axis',(1.224646799147E-16,1.,0.));
#1103=DIRECTION('center_axis',(0.,0.,1.));
#1104=DIRECTION('ref_axis',(1.,0.,0.));
#1105=DIRECTION('center_axis',(0.,0.,-1.));
#1106=DIRECTION('ref_axis',(1.,1.67742838622713E-8,0.));
#1107=DIRECTION('',(0.,0.,-1.));
#1108=DIRECTION('center_axis',(0.,0.,1.));
#1109=DIRECTION('ref_axis',(-1.,0.,0.));
#1110=DIRECTION('',(0.,0.,-1.));
#1111=DIRECTION('center_axis',(1.,0.,0.));
#1112=DIRECTION('ref_axis',(0.,0.,-1.));
#1113=DIRECTION('',(0.,-1.,0.));
#1114=DIRECTION('center_axis',(0.,0.,-1.));
#1115=DIRECTION('ref_axis',(-1.,0.,0.));
#1116=DIRECTION('center_axis',(0.,0.,-1.));
#1117=DIRECTION('ref_axis',(-1.,0.,0.));
#1118=DIRECTION('center_axis',(0.,0.,1.));
#1119=DIRECTION('ref_axis',(-1.,0.,0.));
#1120=DIRECTION('',(0.,0.,1.));
#1121=DIRECTION('center_axis',(0.,0.,-1.));
#1122=DIRECTION('ref_axis',(-1.,0.,0.));
#1123=CARTESIAN_POINT('',(0.,0.,0.));
#1124=CARTESIAN_POINT('Ctrl Pts',(-3.121363636364,3.822567986248E-16,2.562028979904));
#1125=CARTESIAN_POINT('Ctrl Pts',(-3.121363636365,1.486800248075,2.562028979904));
#1126=CARTESIAN_POINT('Ctrl Pts',(-2.35293621353,3.007887230305,2.562028979904));
#1127=CARTESIAN_POINT('Ctrl Pts',(-0.771620175949,4.095529142456,2.562028979904));
#1128=CARTESIAN_POINT('Ctrl Pts',(1.404471408802,4.262570212171,2.562028979904));
#1129=CARTESIAN_POINT('Ctrl Pts',(3.284355526341,3.103316100396,2.562028979904));
#1130=CARTESIAN_POINT('Ctrl Pts',(4.663053053984,1.411064085018,2.562028979904));
#1131=CARTESIAN_POINT('Ctrl Pts',(4.663053054007,-1.411064085035,2.562028979904));
#1132=CARTESIAN_POINT('Ctrl Pts',(3.284355526336,-3.103316100365,2.562028979904));
#1133=CARTESIAN_POINT('Ctrl Pts',(1.404471408794,-4.262570212199,2.562028979904));
#1134=CARTESIAN_POINT('Ctrl Pts',(-0.771620175938,-4.095529142443,2.562028979904));
#1135=CARTESIAN_POINT('Ctrl Pts',(-2.352936213536,-3.007887230309,2.562028979904));
#1136=CARTESIAN_POINT('Ctrl Pts',(-3.121363636363,-1.486800248074,2.562028979904));
#1137=CARTESIAN_POINT('Ctrl Pts',(-3.121363636364,3.822567986248E-16,2.562028979904));
#1138=CARTESIAN_POINT('Ctrl Pts',(-3.15,2.031148958695E-15,2.564643110293));
#1139=CARTESIAN_POINT('Ctrl Pts',(-3.150000000001,1.500440617323,2.564643110293));
#1140=CARTESIAN_POINT('Ctrl Pts',(-2.374522784295,3.035482525995,2.564643110293));
#1141=CARTESIAN_POINT('Ctrl Pts',(-0.778699260134,4.133102804316,2.564643110293));
#1142=CARTESIAN_POINT('Ctrl Pts',(1.4173564676,4.301676360901,2.564643110293));
#1143=CARTESIAN_POINT('Ctrl Pts',(3.314487228419,3.131786890314,2.564643110292));
#1144=CARTESIAN_POINT('Ctrl Pts',(4.705833357225,1.424009627078,2.564643110293));
#1145=CARTESIAN_POINT('Ctrl Pts',(4.705833357262,-1.424009627103,2.564643110292));
#1146=CARTESIAN_POINT('Ctrl Pts',(3.314487228409,-3.13178689027,2.564643110293));
#1147=CARTESIAN_POINT('Ctrl Pts',(1.41735646759,-4.301676360939,2.564643110292));
#1148=CARTESIAN_POINT('Ctrl Pts',(-0.77869926012,-4.133102804298,2.564643110293));
#1149=CARTESIAN_POINT('Ctrl Pts',(-2.374522784303,-3.035482526,2.564643110293));
#1150=CARTESIAN_POINT('Ctrl Pts',(-3.149999999999,-1.500440617323,2.564643110293));
#1151=CARTESIAN_POINT('Ctrl Pts',(-3.15,2.031148958695E-15,2.564643110293));
#1152=CARTESIAN_POINT('Ctrl Pts',(-3.15,3.857637417314E-16,2.593398544562));
#1153=CARTESIAN_POINT('Ctrl Pts',(-3.150000000001,1.500440617323,2.593398544562));
#1154=CARTESIAN_POINT('Ctrl Pts',(-2.374522784297,3.035482525996,2.593398544562));
#1155=CARTESIAN_POINT('Ctrl Pts',(-0.778699260131,4.133102804313,2.593398544562));
#1156=CARTESIAN_POINT('Ctrl Pts',(1.417356467597,4.301676360906,2.593398544562));
#1157=CARTESIAN_POINT('Ctrl Pts',(3.31448722842,3.131786890308,2.593398544561));
#1158=CARTESIAN_POINT('Ctrl Pts',(4.705833357228,1.424009627082,2.593398544562));
#1159=CARTESIAN_POINT('Ctrl Pts',(4.705833357259,-1.4240096271,2.593398544561));
#1160=CARTESIAN_POINT('Ctrl Pts',(3.314487228409,-3.131786890276,2.593398544562));
#1161=CARTESIAN_POINT('Ctrl Pts',(1.417356467593,-4.301676360935,2.593398544562));
#1162=CARTESIAN_POINT('Ctrl Pts',(-0.778699260122,-4.1331028043,2.593398544562));
#1163=CARTESIAN_POINT('Ctrl Pts',(-2.374522784302,-3.035482525999,2.593398544562));
#1164=CARTESIAN_POINT('Ctrl Pts',(-3.15,-1.500440617323,2.593398544562));
#1165=CARTESIAN_POINT('Ctrl Pts',(-3.15,3.857637417314E-16,2.593398544562));
#1166=CARTESIAN_POINT('',(-3.12136363636399,3.82256798624797E-16,2.56202897990409));
#1167=CARTESIAN_POINT('',(3.12135686965114,-1.76263900961549E-14,2.56202918377872));
#1168=CARTESIAN_POINT('Ctrl Pts',(-3.12136363636399,3.82256798624797E-16,
2.56202897990409));
#1169=CARTESIAN_POINT('Ctrl Pts',(-3.1213636363635,-0.743400124037,2.562028979904));
#1170=CARTESIAN_POINT('Ctrl Pts',(-2.9292567806565,-1.49537193161425,2.562028979904));
#1171=CARTESIAN_POINT('Ctrl Pts',(-2.53948542024965,-2.19744894719924,2.562028979904));
#1172=CARTESIAN_POINT('Ctrl Pts',(-1.96290279737471,-2.78995069725761,2.562028979904));
#1173=CARTESIAN_POINT('Ctrl Pts',(-1.23959478570704,-3.21513537903883,2.562028979904));
#1174=CARTESIAN_POINT('Ctrl Pts',(-0.424058356756524,-3.43623760409574,
2.562028979904));
#1175=CARTESIAN_POINT('Ctrl Pts',(0.422211828592931,-3.43549010627595,2.562028979904));
#1176=CARTESIAN_POINT('Ctrl Pts',(1.23517951953918,-3.21386116595602,2.562028979904));
#1177=CARTESIAN_POINT('Ctrl Pts',(1.95427108715352,-2.79166001335605,2.562028979904));
#1178=CARTESIAN_POINT('Ctrl Pts',(2.52896644353401,-2.20653040885155,2.562028979904));
#1179=CARTESIAN_POINT('Ctrl Pts',(2.92388890801089,-1.50861540551255,2.562028979904));
#1180=CARTESIAN_POINT('Ctrl Pts',(3.1213501402493,-0.754307702756289,2.562028979904));
#1181=CARTESIAN_POINT('Ctrl Pts',(3.12135688830662,-1.72687056350846E-14,
2.56202897990409));
#1182=CARTESIAN_POINT('',(3.15000377097597,-1.24171041327397E-15,2.59339854456537));
#1183=CARTESIAN_POINT('Origin',(3.11848643279546,-3.75451470211161E-14,
2.59339848511103));
#1184=CARTESIAN_POINT('',(-3.15,3.85763741731408E-16,2.593398544562));
#1185=CARTESIAN_POINT('Origin',(-5.55111512312578E-16,6.24221119741334E-16,
2.59339854456191));
#1186=CARTESIAN_POINT('Origin',(-3.11849999999905,-1.59255615617979E-15,
2.59339854456203));
#1187=CARTESIAN_POINT('Origin',(-1.99493199737333E-16,-1.94289029309402E-15,
7.28));
#1188=CARTESIAN_POINT('',(-2.73,3.34328576167166E-16,7.7));
#1189=CARTESIAN_POINT('',(1.48006017679423,2.29415392909177,7.69999994625066));
#1190=CARTESIAN_POINT('Origin',(0.000310208130457346,-0.000120730872048568,
7.69999990311676));
#1191=CARTESIAN_POINT('',(1.48005995922063,-2.29415342273042,7.69999994663878));
#1192=CARTESIAN_POINT('Origin',(2.22044604925031E-15,1.73588675661585E-15,
7.69999999999999));
#1193=CARTESIAN_POINT('Origin',(0.000309052959279188,0.000120258923766714,
7.69999990381861));
#1194=CARTESIAN_POINT('',(-3.15,3.85763741731416E-16,7.28));
#1195=CARTESIAN_POINT('Origin',(-2.73,-2.27721886926125E-15,7.28));
#1196=CARTESIAN_POINT('Origin',(0.,0.,7.28));
#1197=CARTESIAN_POINT('Origin',(1.90819582357449E-15,2.4980018054066E-15,
2.248333333333));
#1198=CARTESIAN_POINT('Ctrl Pts',(3.12135688830662,-1.72687056350846E-14,
2.56202897990409));
#1199=CARTESIAN_POINT('Ctrl Pts',(3.1213501402492,0.754307702756227,2.562028979904));
#1200=CARTESIAN_POINT('Ctrl Pts',(2.92388890801068,1.50861540551251,2.562028979904));
#1201=CARTESIAN_POINT('Ctrl Pts',(2.52896644353369,2.20653040885156,2.562028979904));
#1202=CARTESIAN_POINT('Ctrl Pts',(1.9542710871531,2.79166001335608,2.562028979904));
#1203=CARTESIAN_POINT('Ctrl Pts',(1.23517951953872,3.21386116595603,2.562028979904));
#1204=CARTESIAN_POINT('Ctrl Pts',(0.422211828592551,3.43549010627589,2.562028979904));
#1205=CARTESIAN_POINT('Ctrl Pts',(-0.424058356756675,3.4362376040956,2.562028979904));
#1206=CARTESIAN_POINT('Ctrl Pts',(-1.23959478570696,3.21513537903869,2.562028979904));
#1207=CARTESIAN_POINT('Ctrl Pts',(-1.96290279737478,2.78995069725761,2.562028979904));
#1208=CARTESIAN_POINT('Ctrl Pts',(-2.53948542025012,2.19744894719933,2.562028979904));
#1209=CARTESIAN_POINT('Ctrl Pts',(-2.92925678065586,1.49537193161413,2.562028979904));
#1210=CARTESIAN_POINT('Ctrl Pts',(-3.1213636363645,0.7434001240375,2.562028979904));
#1211=CARTESIAN_POINT('Ctrl Pts',(-3.12136363636399,3.82256798624797E-16,
2.56202897990409));
#1212=CARTESIAN_POINT('',(-3.12136363636399,3.82256798624797E-16,1.93463768676191));
#1213=CARTESIAN_POINT('Origin',(-3.15,2.11223806367519E-15,2.248333333333));
#1214=CARTESIAN_POINT('',(3.12135686965127,-4.19793459599408E-14,1.93463748288729));
#1215=CARTESIAN_POINT('Ctrl Pts',(3.12135688830675,-4.22082376087552E-14,
1.93463768676191));
#1216=CARTESIAN_POINT('Ctrl Pts',(3.12135014024958,-0.754307702756241,1.934637686762));
#1217=CARTESIAN_POINT('Ctrl Pts',(2.92388890801116,-1.50861540551242,1.934637686762));
#1218=CARTESIAN_POINT('Ctrl Pts',(2.52896644353425,-2.20653040885133,1.934637686762));
#1219=CARTESIAN_POINT('Ctrl Pts',(1.95427108715373,-2.79166001335573,1.934637686762));
#1220=CARTESIAN_POINT('Ctrl Pts',(1.23517951953935,-3.21386116595561,1.934637686762));
#1221=CARTESIAN_POINT('Ctrl Pts',(0.422211828593056,-3.43549010627549,1.934637686762));
#1222=CARTESIAN_POINT('Ctrl Pts',(-0.424058356756445,-3.43623760409527,
1.934637686762));
#1223=CARTESIAN_POINT('Ctrl Pts',(-1.23959478570701,-3.21513537903839,1.934637686762));
#1224=CARTESIAN_POINT('Ctrl Pts',(-1.96290279737471,-2.78995069725724,1.934637686762));
#1225=CARTESIAN_POINT('Ctrl Pts',(-2.53948542024965,-2.19744894719899,1.934637686762));
#1226=CARTESIAN_POINT('Ctrl Pts',(-2.9292567806565,-1.49537193161425,1.934637686762));
#1227=CARTESIAN_POINT('Ctrl Pts',(-3.1213636363635,-0.743400124037,1.934637686762));
#1228=CARTESIAN_POINT('Ctrl Pts',(-3.12136363636399,3.82256798624797E-16,
1.93463768676191));
#1229=CARTESIAN_POINT('Ctrl Pts',(-3.12136363636399,3.82256798624797E-16,
1.93463768676191));
#1230=CARTESIAN_POINT('Ctrl Pts',(-3.1213636363645,0.7434001240375,1.934637686762));
#1231=CARTESIAN_POINT('Ctrl Pts',(-2.92925678065586,1.49537193161438,1.934637686762));
#1232=CARTESIAN_POINT('Ctrl Pts',(-2.53948542025025,2.19744894719958,1.934637686762));
#1233=CARTESIAN_POINT('Ctrl Pts',(-1.96290279737496,2.78995069725786,1.934637686762));
#1234=CARTESIAN_POINT('Ctrl Pts',(-1.23959478570715,3.2151353790389,1.934637686762));
#1235=CARTESIAN_POINT('Ctrl Pts',(-0.424058356756816,3.43623760409576,1.934637686762));
#1236=CARTESIAN_POINT('Ctrl Pts',(0.422211828592488,3.43549010627597,1.934637686762));
#1237=CARTESIAN_POINT('Ctrl Pts',(1.23517951953875,3.21386116595603,1.934637686762));
#1238=CARTESIAN_POINT('Ctrl Pts',(1.95427108715321,2.79166001335602,1.934637686762));
#1239=CARTESIAN_POINT('Ctrl Pts',(2.52896644353387,2.20653040885147,1.934637686762));
#1240=CARTESIAN_POINT('Ctrl Pts',(2.92388890801091,1.50861540551242,1.934637686762));
#1241=CARTESIAN_POINT('Ctrl Pts',(3.12135014024945,0.754307702756163,1.934637686762));
#1242=CARTESIAN_POINT('Ctrl Pts',(3.12135688830675,-4.22082376087552E-14,
1.93463768676191));
#1243=CARTESIAN_POINT('Ctrl Pts',(-3.15,3.857637417314E-16,1.903268122105));
#1244=CARTESIAN_POINT('Ctrl Pts',(-3.150000000001,1.500440617323,1.903268122105));
#1245=CARTESIAN_POINT('Ctrl Pts',(-2.374522784297,3.035482525997,1.903268122105));
#1246=CARTESIAN_POINT('Ctrl Pts',(-0.778699260131,4.133102804312,1.903268122105));
#1247=CARTESIAN_POINT('Ctrl Pts',(1.417356467598,4.301676360909,1.903268122105));
#1248=CARTESIAN_POINT('Ctrl Pts',(3.314487228419,3.131786890304,1.903268122105));
#1249=CARTESIAN_POINT('Ctrl Pts',(4.70583335723,1.424009627086,1.903268122105));
#1250=CARTESIAN_POINT('Ctrl Pts',(4.705833357256,-1.424009627104,1.903268122105));
#1251=CARTESIAN_POINT('Ctrl Pts',(3.314487228411,-3.131786890273,1.903268122105));
#1252=CARTESIAN_POINT('Ctrl Pts',(1.417356467591,-4.301676360936,1.903268122105));
#1253=CARTESIAN_POINT('Ctrl Pts',(-0.778699260121,-4.133102804299,1.903268122105));
#1254=CARTESIAN_POINT('Ctrl Pts',(-2.374522784302,-3.035482526,1.903268122105));
#1255=CARTESIAN_POINT('Ctrl Pts',(-3.149999999999,-1.500440617323,1.903268122105));
#1256=CARTESIAN_POINT('Ctrl Pts',(-3.15,3.857637417314E-16,1.903268122105));
#1257=CARTESIAN_POINT('Ctrl Pts',(-3.15,3.122290025085E-15,1.932023556374));
#1258=CARTESIAN_POINT('Ctrl Pts',(-3.150000000001,1.500440617323,1.932023556374));
#1259=CARTESIAN_POINT('Ctrl Pts',(-2.374522784297,3.035482525997,1.932023556374));
#1260=CARTESIAN_POINT('Ctrl Pts',(-0.778699260132,4.13310280431,1.932023556374));
#1261=CARTESIAN_POINT('Ctrl Pts',(1.417356467598,4.301676360912,1.932023556374));
#1262=CARTESIAN_POINT('Ctrl Pts',(3.314487228418,3.1317868903,1.932023556374));
#1263=CARTESIAN_POINT('Ctrl Pts',(4.705833357231,1.424009627092,1.932023556374));
#1264=CARTESIAN_POINT('Ctrl Pts',(4.705833357255,-1.42400962711,1.932023556374));
#1265=CARTESIAN_POINT('Ctrl Pts',(3.314487228413,-3.131786890268,1.932023556374));
#1266=CARTESIAN_POINT('Ctrl Pts',(1.41735646759,-4.301676360939,1.932023556374));
#1267=CARTESIAN_POINT('Ctrl Pts',(-0.778699260121,-4.133102804297,1.932023556374));
#1268=CARTESIAN_POINT('Ctrl Pts',(-2.374522784302,-3.035482526,1.932023556374));
#1269=CARTESIAN_POINT('Ctrl Pts',(-3.149999999999,-1.500440617322,1.932023556374));
#1270=CARTESIAN_POINT('Ctrl Pts',(-3.15,3.122290025085E-15,1.932023556374));
#1271=CARTESIAN_POINT('Ctrl Pts',(-3.121363636364,3.822567986248E-16,1.934637686762));
#1272=CARTESIAN_POINT('Ctrl Pts',(-3.121363636365,1.486800248075,1.934637686762));
#1273=CARTESIAN_POINT('Ctrl Pts',(-2.35293621353,3.007887230306,1.934637686762));
#1274=CARTESIAN_POINT('Ctrl Pts',(-0.77162017595,4.095529142455,1.934637686762));
#1275=CARTESIAN_POINT('Ctrl Pts',(1.404471408803,4.262570212173,1.934637686762));
#1276=CARTESIAN_POINT('Ctrl Pts',(3.28435552634,3.103316100393,1.934637686762));
#1277=CARTESIAN_POINT('Ctrl Pts',(4.663053053986,1.411064085021,1.934637686762));
#1278=CARTESIAN_POINT('Ctrl Pts',(4.663053054006,-1.411064085039,1.934637686762));
#1279=CARTESIAN_POINT('Ctrl Pts',(3.284355526337,-3.103316100361,1.934637686762));
#1280=CARTESIAN_POINT('Ctrl Pts',(1.404471408794,-4.262570212201,1.934637686762));
#1281=CARTESIAN_POINT('Ctrl Pts',(-0.771620175938,-4.095529142441,1.934637686762));
#1282=CARTESIAN_POINT('Ctrl Pts',(-2.352936213536,-3.007887230309,1.934637686762));
#1283=CARTESIAN_POINT('Ctrl Pts',(-3.121363636363,-1.486800248074,1.934637686762));
#1284=CARTESIAN_POINT('Ctrl Pts',(-3.121363636364,3.822567986248E-16,1.934637686762));
#1285=CARTESIAN_POINT('',(-3.15,7.71527483462824E-16,1.903268122105));
#1286=CARTESIAN_POINT('',(3.15,-7.13469501754403E-14,1.903268122105));
#1287=CARTESIAN_POINT('Origin',(1.66533453693773E-15,-1.80041341885474E-16,
1.903268122105));
#1288=CARTESIAN_POINT('Origin',(3.11848643279628,-8.31615699027974E-13,
1.90326818155585));
#1289=CARTESIAN_POINT('Origin',(-3.11850000000041,-2.47758531977087E-15,
1.90326812210521));
#1290=CARTESIAN_POINT('Origin',(9.06393016197882E-16,-5.55111512312578E-15,
1.07));
#1291=CARTESIAN_POINT('',(2.73,-6.42280384967274E-15,0.65));
#1292=CARTESIAN_POINT('Origin',(0.,-8.49523463404607E-16,0.65));
#1293=CARTESIAN_POINT('',(3.15,-5.93687886485719E-15,1.07));
#1294=CARTESIAN_POINT('Origin',(2.73,-5.88544369929301E-15,1.07));
#1295=CARTESIAN_POINT('',(-3.15,3.85763741731416E-16,1.07));
#1296=CARTESIAN_POINT('Origin',(0.,0.,1.07));
#1297=CARTESIAN_POINT('Origin',(0.,0.,1.07));
#1298=CARTESIAN_POINT('Origin',(0.,0.,2.563333333333));
#1299=CARTESIAN_POINT('',(-3.15,-3.85763741731416E-16,2.563333333333));
#1300=CARTESIAN_POINT('Origin',(-1.11022302462516E-15,1.28855476849609E-16,
2.59339854456191));
#1301=CARTESIAN_POINT('Origin',(0.,0.,0.65));
#1302=CARTESIAN_POINT('',(-3.15,-3.85763741731416E-16,0.65));
#1303=CARTESIAN_POINT('Origin',(0.,2.05722399845137E-16,1.903268122105));
#1304=CARTESIAN_POINT('Origin',(1.225,-3.000384657911E-16,0.));
#1305=CARTESIAN_POINT('',(1.225,-0.325,0.15));
#1306=CARTESIAN_POINT('',(1.225,0.325,0.15));
#1307=CARTESIAN_POINT('Origin',(1.225,-3.000384657911E-16,0.15));
#1308=CARTESIAN_POINT('',(1.225,0.325000000000001,0.));
#1309=CARTESIAN_POINT('',(1.225,0.325000000000001,0.));
#1310=CARTESIAN_POINT('',(1.225,-0.325,0.));
#1311=CARTESIAN_POINT('Origin',(1.225,-3.000384657911E-16,0.));
#1312=CARTESIAN_POINT('',(1.225,-0.325,0.));
#1313=CARTESIAN_POINT('Origin',(0.,0.,7.7));
#1314=CARTESIAN_POINT('',(1.48,2.29401394939089,7.7));
#1315=CARTESIAN_POINT('Ctrl Pts',(-3.121363636364,3.822567986248E-16,2.562028979904));
#1316=CARTESIAN_POINT('Ctrl Pts',(-3.121363636365,1.486800248075,2.562028979904));
#1317=CARTESIAN_POINT('Ctrl Pts',(-2.35293621353,3.007887230305,2.562028979904));
#1318=CARTESIAN_POINT('Ctrl Pts',(-0.771620175949,4.095529142456,2.562028979904));
#1319=CARTESIAN_POINT('Ctrl Pts',(1.404471408802,4.262570212171,2.562028979904));
#1320=CARTESIAN_POINT('Ctrl Pts',(3.284355526341,3.103316100396,2.562028979904));
#1321=CARTESIAN_POINT('Ctrl Pts',(4.663053053984,1.411064085018,2.562028979904));
#1322=CARTESIAN_POINT('Ctrl Pts',(4.663053054007,-1.411064085035,2.562028979904));
#1323=CARTESIAN_POINT('Ctrl Pts',(3.284355526336,-3.103316100365,2.562028979904));
#1324=CARTESIAN_POINT('Ctrl Pts',(1.404471408794,-4.262570212199,2.562028979904));
#1325=CARTESIAN_POINT('Ctrl Pts',(-0.771620175938,-4.095529142443,2.562028979904));
#1326=CARTESIAN_POINT('Ctrl Pts',(-2.352936213536,-3.007887230309,2.562028979904));
#1327=CARTESIAN_POINT('Ctrl Pts',(-3.121363636363,-1.486800248074,2.562028979904));
#1328=CARTESIAN_POINT('Ctrl Pts',(-3.121363636364,3.822567986248E-16,2.562028979904));
#1329=CARTESIAN_POINT('Ctrl Pts',(-3.15,2.031148958695E-15,2.564643110293));
#1330=CARTESIAN_POINT('Ctrl Pts',(-3.150000000001,1.500440617323,2.564643110293));
#1331=CARTESIAN_POINT('Ctrl Pts',(-2.374522784295,3.035482525995,2.564643110293));
#1332=CARTESIAN_POINT('Ctrl Pts',(-0.778699260134,4.133102804316,2.564643110293));
#1333=CARTESIAN_POINT('Ctrl Pts',(1.4173564676,4.301676360901,2.564643110293));
#1334=CARTESIAN_POINT('Ctrl Pts',(3.314487228419,3.131786890314,2.564643110292));
#1335=CARTESIAN_POINT('Ctrl Pts',(4.705833357225,1.424009627078,2.564643110293));
#1336=CARTESIAN_POINT('Ctrl Pts',(4.705833357262,-1.424009627103,2.564643110292));
#1337=CARTESIAN_POINT('Ctrl Pts',(3.314487228409,-3.13178689027,2.564643110293));
#1338=CARTESIAN_POINT('Ctrl Pts',(1.41735646759,-4.301676360939,2.564643110292));
#1339=CARTESIAN_POINT('Ctrl Pts',(-0.77869926012,-4.133102804298,2.564643110293));
#1340=CARTESIAN_POINT('Ctrl Pts',(-2.374522784303,-3.035482526,2.564643110293));
#1341=CARTESIAN_POINT('Ctrl Pts',(-3.149999999999,-1.500440617323,2.564643110293));
#1342=CARTESIAN_POINT('Ctrl Pts',(-3.15,2.031148958695E-15,2.564643110293));
#1343=CARTESIAN_POINT('Ctrl Pts',(-3.15,3.857637417314E-16,2.593398544562));
#1344=CARTESIAN_POINT('Ctrl Pts',(-3.150000000001,1.500440617323,2.593398544562));
#1345=CARTESIAN_POINT('Ctrl Pts',(-2.374522784297,3.035482525996,2.593398544562));
#1346=CARTESIAN_POINT('Ctrl Pts',(-0.778699260131,4.133102804313,2.593398544562));
#1347=CARTESIAN_POINT('Ctrl Pts',(1.417356467597,4.301676360906,2.593398544562));
#1348=CARTESIAN_POINT('Ctrl Pts',(3.31448722842,3.131786890308,2.593398544561));
#1349=CARTESIAN_POINT('Ctrl Pts',(4.705833357228,1.424009627082,2.593398544562));
#1350=CARTESIAN_POINT('Ctrl Pts',(4.705833357259,-1.4240096271,2.593398544561));
#1351=CARTESIAN_POINT('Ctrl Pts',(3.314487228409,-3.131786890276,2.593398544562));
#1352=CARTESIAN_POINT('Ctrl Pts',(1.417356467593,-4.301676360935,2.593398544562));
#1353=CARTESIAN_POINT('Ctrl Pts',(-0.778699260122,-4.1331028043,2.593398544562));
#1354=CARTESIAN_POINT('Ctrl Pts',(-2.374522784302,-3.035482525999,2.593398544562));
#1355=CARTESIAN_POINT('Ctrl Pts',(-3.15,-1.500440617323,2.593398544562));
#1356=CARTESIAN_POINT('Ctrl Pts',(-3.15,3.857637417314E-16,2.593398544562));
#1357=CARTESIAN_POINT('Ctrl Pts',(-3.15,3.857637417314E-16,1.903268122105));
#1358=CARTESIAN_POINT('Ctrl Pts',(-3.150000000001,1.500440617323,1.903268122105));
#1359=CARTESIAN_POINT('Ctrl Pts',(-2.374522784297,3.035482525997,1.903268122105));
#1360=CARTESIAN_POINT('Ctrl Pts',(-0.778699260131,4.133102804312,1.903268122105));
#1361=CARTESIAN_POINT('Ctrl Pts',(1.417356467598,4.301676360909,1.903268122105));
#1362=CARTESIAN_POINT('Ctrl Pts',(3.314487228419,3.131786890304,1.903268122105));
#1363=CARTESIAN_POINT('Ctrl Pts',(4.70583335723,1.424009627086,1.903268122105));
#1364=CARTESIAN_POINT('Ctrl Pts',(4.705833357256,-1.424009627104,1.903268122105));
#1365=CARTESIAN_POINT('Ctrl Pts',(3.314487228411,-3.131786890273,1.903268122105));
#1366=CARTESIAN_POINT('Ctrl Pts',(1.417356467591,-4.301676360936,1.903268122105));
#1367=CARTESIAN_POINT('Ctrl Pts',(-0.778699260121,-4.133102804299,1.903268122105));
#1368=CARTESIAN_POINT('Ctrl Pts',(-2.374522784302,-3.035482526,1.903268122105));
#1369=CARTESIAN_POINT('Ctrl Pts',(-3.149999999999,-1.500440617323,1.903268122105));
#1370=CARTESIAN_POINT('Ctrl Pts',(-3.15,3.857637417314E-16,1.903268122105));
#1371=CARTESIAN_POINT('Ctrl Pts',(-3.15,3.122290025085E-15,1.932023556374));
#1372=CARTESIAN_POINT('Ctrl Pts',(-3.150000000001,1.500440617323,1.932023556374));
#1373=CARTESIAN_POINT('Ctrl Pts',(-2.374522784297,3.035482525997,1.932023556374));
#1374=CARTESIAN_POINT('Ctrl Pts',(-0.778699260132,4.13310280431,1.932023556374));
#1375=CARTESIAN_POINT('Ctrl Pts',(1.417356467598,4.301676360912,1.932023556374));
#1376=CARTESIAN_POINT('Ctrl Pts',(3.314487228418,3.1317868903,1.932023556374));
#1377=CARTESIAN_POINT('Ctrl Pts',(4.705833357231,1.424009627092,1.932023556374));
#1378=CARTESIAN_POINT('Ctrl Pts',(4.705833357255,-1.42400962711,1.932023556374));
#1379=CARTESIAN_POINT('Ctrl Pts',(3.314487228413,-3.131786890268,1.932023556374));
#1380=CARTESIAN_POINT('Ctrl Pts',(1.41735646759,-4.301676360939,1.932023556374));
#1381=CARTESIAN_POINT('Ctrl Pts',(-0.778699260121,-4.133102804297,1.932023556374));
#1382=CARTESIAN_POINT('Ctrl Pts',(-2.374522784302,-3.035482526,1.932023556374));
#1383=CARTESIAN_POINT('Ctrl Pts',(-3.149999999999,-1.500440617322,1.932023556374));
#1384=CARTESIAN_POINT('Ctrl Pts',(-3.15,3.122290025085E-15,1.932023556374));
#1385=CARTESIAN_POINT('Ctrl Pts',(-3.121363636364,3.822567986248E-16,1.934637686762));
#1386=CARTESIAN_POINT('Ctrl Pts',(-3.121363636365,1.486800248075,1.934637686762));
#1387=CARTESIAN_POINT('Ctrl Pts',(-2.35293621353,3.007887230306,1.934637686762));
#1388=CARTESIAN_POINT('Ctrl Pts',(-0.77162017595,4.095529142455,1.934637686762));
#1389=CARTESIAN_POINT('Ctrl Pts',(1.404471408803,4.262570212173,1.934637686762));
#1390=CARTESIAN_POINT('Ctrl Pts',(3.28435552634,3.103316100393,1.934637686762));
#1391=CARTESIAN_POINT('Ctrl Pts',(4.663053053986,1.411064085021,1.934637686762));
#1392=CARTESIAN_POINT('Ctrl Pts',(4.663053054006,-1.411064085039,1.934637686762));
#1393=CARTESIAN_POINT('Ctrl Pts',(3.284355526337,-3.103316100361,1.934637686762));
#1394=CARTESIAN_POINT('Ctrl Pts',(1.404471408794,-4.262570212201,1.934637686762));
#1395=CARTESIAN_POINT('Ctrl Pts',(-0.771620175938,-4.095529142441,1.934637686762));
#1396=CARTESIAN_POINT('Ctrl Pts',(-2.352936213536,-3.007887230309,1.934637686762));
#1397=CARTESIAN_POINT('Ctrl Pts',(-3.121363636363,-1.486800248074,1.934637686762));
#1398=CARTESIAN_POINT('Ctrl Pts',(-3.121363636364,3.822567986248E-16,1.934637686762));
#1399=CARTESIAN_POINT('Origin',(2.040955421701E-16,-6.734331626528E-17,
0.65));
#1400=CARTESIAN_POINT('',(0.57662812973377,3.3,0.65));
#1401=CARTESIAN_POINT('',(-0.576628129733769,3.3,0.65));
#1402=CARTESIAN_POINT('',(3.3,3.3,0.65));
#1403=CARTESIAN_POINT('',(-3.3,0.57662812973377,0.65));
#1404=CARTESIAN_POINT('Origin',(0.,0.,0.65));
#1405=CARTESIAN_POINT('',(-3.3,-0.576628129733769,0.65));
#1406=CARTESIAN_POINT('',(-3.3,2.3,0.65));
#1407=CARTESIAN_POINT('',(-0.57662812973377,-3.3,0.65));
#1408=CARTESIAN_POINT('Origin',(0.,0.,0.65));
#1409=CARTESIAN_POINT('',(0.576628129733769,-3.3,0.65));
#1410=CARTESIAN_POINT('',(-2.3,-3.3,0.65));
#1411=CARTESIAN_POINT('',(3.3,-0.57662812973377,0.65));
#1412=CARTESIAN_POINT('Origin',(0.,0.,0.65));
#1413=CARTESIAN_POINT('',(3.3,0.576628129733769,0.65));
#1414=CARTESIAN_POINT('',(3.3,-3.3,0.65));
#1415=CARTESIAN_POINT('Origin',(0.,0.,0.65));
#1416=CARTESIAN_POINT('Origin',(0.,0.,0.65));
#1417=CARTESIAN_POINT('',(-3.3,0.57662812973377,0.85));
#1418=CARTESIAN_POINT('',(-3.3,0.576628129734,0.15));
#1419=CARTESIAN_POINT('',(-0.576628129733769,3.3,0.85));
#1420=CARTESIAN_POINT('',(-0.576628129734,3.3,0.15));
#1421=CARTESIAN_POINT('Origin',(0.,0.,0.85));
#1422=CARTESIAN_POINT('Origin',(0.,0.,0.65));
#1423=CARTESIAN_POINT('',(3.3,0.576628129733771,1.15));
#1424=CARTESIAN_POINT('',(3.3,0.576628129734,0.15));
#1425=CARTESIAN_POINT('',(0.576628129733771,3.3,1.15));
#1426=CARTESIAN_POINT('Origin',(0.,0.,1.15));
#1427=CARTESIAN_POINT('',(0.576628129734,3.3,0.15));
#1428=CARTESIAN_POINT('Origin',(0.,0.,0.65));
#1429=CARTESIAN_POINT('',(0.576628129733771,-3.3,1.15));
#1430=CARTESIAN_POINT('',(0.576628129734,-3.3,0.15));
#1431=CARTESIAN_POINT('',(3.3,-0.576628129733771,1.15));
#1432=CARTESIAN_POINT('Origin',(0.,0.,1.15));
#1433=CARTESIAN_POINT('',(3.3,-0.576628129734,0.15));
#1434=CARTESIAN_POINT('Origin',(0.,0.,0.65));
#1435=CARTESIAN_POINT('',(-3.3,-0.576628129733769,0.85));
#1436=CARTESIAN_POINT('',(-3.3,-0.576628129734,0.15));
#1437=CARTESIAN_POINT('',(-0.576628129733771,-3.3,0.85));
#1438=CARTESIAN_POINT('Origin',(0.,0.,0.85));
#1439=CARTESIAN_POINT('',(-0.576628129734,-3.3,0.15));
#1440=CARTESIAN_POINT('Origin',(4.041334437186E-16,3.3,0.85));
#1441=CARTESIAN_POINT('',(-2.3,3.3,0.85));
#1442=CARTESIAN_POINT('',(-3.3,2.3,0.85));
#1443=CARTESIAN_POINT('',(-2.3,3.3,0.85));
#1444=CARTESIAN_POINT('',(-3.3,2.3,0.85));
#1445=CARTESIAN_POINT('',(3.3,3.3,0.85));
#1446=CARTESIAN_POINT('Origin',(0.169665910187,-2.077808138351E-17,1.15));
#1447=CARTESIAN_POINT('',(3.3,2.9,1.15));
#1448=CARTESIAN_POINT('',(2.9,3.3,1.15));
#1449=CARTESIAN_POINT('Origin',(2.9,2.9,1.15));
#1450=CARTESIAN_POINT('',(0.169665910187,3.3,1.15));
#1451=CARTESIAN_POINT('',(3.3,-2.077808138351E-17,1.15));
#1452=CARTESIAN_POINT('Origin',(0.169665910187,-2.077808138351E-17,1.15));
#1453=CARTESIAN_POINT('',(2.9,-3.3,1.15));
#1454=CARTESIAN_POINT('',(0.169665910187,-3.3,1.15));
#1455=CARTESIAN_POINT('',(3.3,-2.9,1.15));
#1456=CARTESIAN_POINT('Origin',(2.9,-2.9,1.15));
#1457=CARTESIAN_POINT('',(3.3,-2.077808138351E-17,1.15));
#1458=CARTESIAN_POINT('Origin',(4.041334437186E-16,3.3,0.85));
#1459=CARTESIAN_POINT('',(-3.3,-2.3,0.85));
#1460=CARTESIAN_POINT('',(-3.3,2.3,0.85));
#1461=CARTESIAN_POINT('',(-2.3,-3.3,0.85));
#1462=CARTESIAN_POINT('',(-3.3,-2.3,0.85));
#1463=CARTESIAN_POINT('',(4.041334437186E-16,-3.3,0.85));
#1464=CARTESIAN_POINT('Origin',(-2.3,3.3,0.15));
#1465=CARTESIAN_POINT('',(-2.3,3.3,0.15));
#1466=CARTESIAN_POINT('',(-2.3,3.3,0.15));
#1467=CARTESIAN_POINT('',(-3.3,2.3,0.15));
#1468=CARTESIAN_POINT('',(-2.3,3.3,0.15));
#1469=CARTESIAN_POINT('',(-3.3,2.3,0.15));
#1470=CARTESIAN_POINT('Origin',(3.3,3.3,0.15));
#1471=CARTESIAN_POINT('',(2.9,3.3,0.15));
#1472=CARTESIAN_POINT('',(2.9,3.3,0.15));
#1473=CARTESIAN_POINT('',(3.3,3.3,0.15));
#1474=CARTESIAN_POINT('Origin',(2.9,2.9,0.15));
#1475=CARTESIAN_POINT('',(3.3,2.9,0.15));
#1476=CARTESIAN_POINT('',(3.3,2.9,0.15));
#1477=CARTESIAN_POINT('Origin',(2.9,2.9,0.15));
#1478=CARTESIAN_POINT('Origin',(3.3,-3.3,0.15));
#1479=CARTESIAN_POINT('',(3.3,0.325,0.15));
#1480=CARTESIAN_POINT('',(3.3,-3.3,0.15));
#1481=CARTESIAN_POINT('',(3.3,-2.9,0.15));
#1482=CARTESIAN_POINT('',(3.3,-2.9,0.15));
#1483=CARTESIAN_POINT('',(3.3,-0.325,0.15));
#1484=CARTESIAN_POINT('',(3.3,-3.3,0.15));
#1485=CARTESIAN_POINT('',(3.3,-3.3,0.15));
#1486=CARTESIAN_POINT('Origin',(-2.3,-3.3,0.15));
#1487=CARTESIAN_POINT('',(-2.3,-3.3,0.15));
#1488=CARTESIAN_POINT('',(-2.3,-3.3,0.15));
#1489=CARTESIAN_POINT('',(2.9,-3.3,0.15));
#1490=CARTESIAN_POINT('',(-2.3,-3.3,0.15));
#1491=CARTESIAN_POINT('',(2.9,-3.3,0.15));
#1492=CARTESIAN_POINT('Origin',(2.9,-2.9,0.15));
#1493=CARTESIAN_POINT('Origin',(2.9,-2.9,0.15));
#1494=CARTESIAN_POINT('Origin',(-3.3,-2.3,0.15));
#1495=CARTESIAN_POINT('',(-3.3,-2.3,0.15));
#1496=CARTESIAN_POINT('',(-3.3,-2.3,0.15));
#1497=CARTESIAN_POINT('',(-3.3,-2.3,0.15));
#1498=CARTESIAN_POINT('Origin',(0.169665910187,-2.077808138351E-17,0.15));
#1499=CARTESIAN_POINT('',(-3.3,-0.325,0.15));
#1500=CARTESIAN_POINT('',(-3.3,-2.077808138351E-17,0.15));
#1501=CARTESIAN_POINT('',(-1.225,-0.325,0.15));
#1502=CARTESIAN_POINT('',(0.169665910187,-0.325,0.15));
#1503=CARTESIAN_POINT('',(-1.225,0.325,0.15));
#1504=CARTESIAN_POINT('Origin',(-1.225,1.500192328956E-16,0.15));
#1505=CARTESIAN_POINT('',(-3.3,0.325,0.15));
#1506=CARTESIAN_POINT('',(0.169665910187,0.325,0.15));
#1507=CARTESIAN_POINT('',(-3.3,-2.077808138351E-17,0.15));
#1508=CARTESIAN_POINT('',(0.169665910187,0.325,0.15));
#1509=CARTESIAN_POINT('',(0.169665910187,-0.325,0.15));
#1510=CARTESIAN_POINT('Origin',(2.47395012666,-5.900258447925E-16,0.15));
#1511=CARTESIAN_POINT('',(3.9,0.325,0.15));
#1512=CARTESIAN_POINT('',(2.47395012666,0.325,0.15));
#1513=CARTESIAN_POINT('',(3.9,-0.325,0.15));
#1514=CARTESIAN_POINT('',(2.47395012666,-0.325,0.15));
#1515=CARTESIAN_POINT('',(3.9,-5.900258447925E-16,0.15));
#1516=CARTESIAN_POINT('Origin',(-3.3,2.3,0.15));
#1517=CARTESIAN_POINT('',(-3.3,2.3,0.15));
#1518=CARTESIAN_POINT('Origin',(-3.9,-0.325,0.));
#1519=CARTESIAN_POINT('',(-1.225,-0.325,0.));
#1520=CARTESIAN_POINT('',(-1.225,-0.325,0.));
#1521=CARTESIAN_POINT('',(-3.9,-0.325,0.15));
#1522=CARTESIAN_POINT('',(-3.9,-0.325,0.15));
#1523=CARTESIAN_POINT('',(-3.9,-0.325,0.));
#1524=CARTESIAN_POINT('',(-3.9,-0.325,0.));
#1525=CARTESIAN_POINT('',(-3.9,-0.325,0.));
#1526=CARTESIAN_POINT('Origin',(-1.225,1.500192328956E-16,0.));
#1527=CARTESIAN_POINT('',(-1.225,0.325,0.));
#1528=CARTESIAN_POINT('Origin',(-1.225,1.500192328956E-16,0.));
#1529=CARTESIAN_POINT('',(-1.225,0.325,0.));
#1530=CARTESIAN_POINT('Origin',(-1.225,0.325,0.));
#1531=CARTESIAN_POINT('',(-3.9,0.325,0.15));
#1532=CARTESIAN_POINT('',(-3.9,0.325,0.));
#1533=CARTESIAN_POINT('',(-3.9,0.325,0.));
#1534=CARTESIAN_POINT('',(-1.225,0.325,0.15));
#1535=CARTESIAN_POINT('',(-1.225,0.325,0.));
#1536=CARTESIAN_POINT('Origin',(3.9,0.325,0.));
#1537=CARTESIAN_POINT('',(3.9,0.325,0.));
#1538=CARTESIAN_POINT('',(3.9,0.325,0.));
#1539=CARTESIAN_POINT('',(3.9,0.325,0.));
#1540=CARTESIAN_POINT('Origin',(1.225,-0.325,0.));
#1541=CARTESIAN_POINT('',(3.9,-0.325000000000001,0.));
#1542=CARTESIAN_POINT('',(3.9,-0.325000000000001,0.));
#1543=CARTESIAN_POINT('',(1.225,-0.325,0.));
#1544=CARTESIAN_POINT('Origin',(3.9,-0.325,0.));
#1545=CARTESIAN_POINT('',(3.9,-0.325,0.));
#1546=CARTESIAN_POINT('Origin',(-2.47395012666,2.870543344061E-16,0.15));
#1547=CARTESIAN_POINT('',(-3.9,2.870543344061E-16,0.15));
#1548=CARTESIAN_POINT('Origin',(-2.47395012666,2.870543344061E-16,0.));
#1549=CARTESIAN_POINT('',(-3.9,2.870543344061E-16,0.));
#1550=CARTESIAN_POINT('Origin',(-3.9,0.325,0.));
#1551=CARTESIAN_POINT('Origin',(2.47395012666,-5.900258447925E-16,0.));
#1552=CARTESIAN_POINT('Origin',(0.,0.,7.72));
#1553=CARTESIAN_POINT('',(1.48,2.29401394939089,7.72));
#1554=CARTESIAN_POINT('',(1.48,2.29401394939089,7.72));
#1555=CARTESIAN_POINT('',(1.48,-2.29401394939089,7.72));
#1556=CARTESIAN_POINT('Origin',(0.,0.,7.72));
#1557=CARTESIAN_POINT('',(1.48,-2.29401394939089,7.72));
#1558=CARTESIAN_POINT('Origin',(1.48,2.29401394939089,7.72));
#1559=CARTESIAN_POINT('',(1.48,2.29401394939089,7.72));
#1560=CARTESIAN_POINT('Origin',(0.,0.,7.72));
#1561=CARTESIAN_POINT('Origin',(0.,0.,0.));
#1562=CARTESIAN_POINT('',(0.01,-1.22464679914735E-18,0.));
#1563=CARTESIAN_POINT('Origin',(0.,0.,0.));
#1564=CARTESIAN_POINT('',(0.01,-1.22464679914735E-18,0.01));
#1565=CARTESIAN_POINT('',(0.01,-1.22464679914735E-18,0.));
#1566=CARTESIAN_POINT('Origin',(0.,0.,0.01));
#1567=UNCERTAINTY_MEASURE_WITH_UNIT(LENGTH_MEASURE(0.01),#1571,
'DISTANCE_ACCURACY_VALUE',
'Maximum model space distance between geometric entities at asserted c
onnectivities');
#1568=UNCERTAINTY_MEASURE_WITH_UNIT(LENGTH_MEASURE(0.01),#1571,
'DISTANCE_ACCURACY_VALUE',
'Maximum model space distance between geometric entities at asserted c
onnectivities');
#1569=(
GEOMETRIC_REPRESENTATION_CONTEXT(3)
GLOBAL_UNCERTAINTY_ASSIGNED_CONTEXT((#1567))
GLOBAL_UNIT_ASSIGNED_CONTEXT((#1571,#1573,#1574))
REPRESENTATION_CONTEXT('','3D')
);
#1570=(
GEOMETRIC_REPRESENTATION_CONTEXT(3)
GLOBAL_UNCERTAINTY_ASSIGNED_CONTEXT((#1568))
GLOBAL_UNIT_ASSIGNED_CONTEXT((#1571,#1573,#1574))
REPRESENTATION_CONTEXT('','3D')
);
#1571=(
LENGTH_UNIT()
NAMED_UNIT(*)
SI_UNIT(.MILLI.,.METRE.)
);
#1572=(
LENGTH_UNIT()
NAMED_UNIT(*)
SI_UNIT($,.METRE.)
);
#1573=(
NAMED_UNIT(*)
PLANE_ANGLE_UNIT()
SI_UNIT($,.RADIAN.)
);
#1574=(
NAMED_UNIT(*)
SI_UNIT($,.STERADIAN.)
SOLID_ANGLE_UNIT()
);
#1575=SHAPE_DEFINITION_REPRESENTATION(#1576,#1577);
#1576=PRODUCT_DEFINITION_SHAPE('',$,#1579);
#1577=SHAPE_REPRESENTATION('',(#818,#14),#1569);
#1578=PRODUCT_DEFINITION_CONTEXT('part definition',#1583,'design');
#1579=PRODUCT_DEFINITION('C_Elec_6.3x7.7','C_Elec_6.3x7.7',#1580,#1578);
#1580=PRODUCT_DEFINITION_FORMATION('',$,#1585);
#1581=PRODUCT_RELATED_PRODUCT_CATEGORY('C_Elec_6.3x7.7',
'C_Elec_6.3x7.7',(#1585));
#1582=APPLICATION_PROTOCOL_DEFINITION('international standard',
'automotive_design',2009,#1583);
#1583=APPLICATION_CONTEXT(
'Core Data for Automotive Mechanical Design Process');
#1584=PRODUCT_CONTEXT('part definition',#1583,'mechanical');
#1585=PRODUCT('C_Elec_6.3x7.7','C_Elec_6.3x7.7',$,(#1584));
#1586=PRESENTATION_STYLE_ASSIGNMENT((#1589));
#1587=PRESENTATION_STYLE_ASSIGNMENT((#1590));
#1588=PRESENTATION_STYLE_ASSIGNMENT((#1591));
#1589=SURFACE_STYLE_USAGE(.BOTH.,#1592);
#1590=SURFACE_STYLE_USAGE(.BOTH.,#1593);
#1591=SURFACE_STYLE_USAGE(.BOTH.,#1594);
#1592=SURFACE_SIDE_STYLE('',(#1595));
#1593=SURFACE_SIDE_STYLE('',(#1596));
#1594=SURFACE_SIDE_STYLE('',(#1597));
#1595=SURFACE_STYLE_FILL_AREA(#1598);
#1596=SURFACE_STYLE_FILL_AREA(#1599);
#1597=SURFACE_STYLE_FILL_AREA(#1600);
#1598=FILL_AREA_STYLE('Acier - Satin\X\E9',(#1601));
#1599=FILL_AREA_STYLE('Opaque(210,209,199)',(#1602));
#1600=FILL_AREA_STYLE('Opaque(37,36,36)',(#1603));
#1601=FILL_AREA_STYLE_COLOUR('Acier - Satin\X\E9',#1604);
#1602=FILL_AREA_STYLE_COLOUR('Opaque(210,209,199)',#1605);
#1603=FILL_AREA_STYLE_COLOUR('Opaque(37,36,36)',#1606);
#1604=COLOUR_RGB('Acier - Satin\X\E9',0.627450980392157,0.627450980392157,
0.627450980392157);
#1605=COLOUR_RGB('Opaque(210,209,199)',0.823529411764706,0.819607843137255,
0.780392156862745);
#1606=COLOUR_RGB('Opaque(37,36,36)',0.145098039215686,0.141176470588235,
0.141176470588235);
ENDSEC;
END-ISO-10303-21;
