ISO-10303-21;
HEADER;
/* Generated by software containing ST-Developer
 * from STEP Tools, Inc. (www.steptools.com) 
 */

FILE_DESCRIPTION(
/* description */ (''),
/* implementation_level */ '2;1');

FILE_NAME(
/* name */ 'pin_std.step',
/* time_stamp */ '2026-02-08T18:51:00+01:00',
/* author */ (''),
/* organization */ (''),
/* preprocessor_version */ 'ST-DEVELOPER v20.1',
/* originating_system */ 'Autodesk Translation Framework v14.24.0.0',
/* authorisation */ '');

FILE_SCHEMA (('AUTOMOTIVE_DESIGN { 1 0 10303 214 3 1 1 }'));
ENDSEC;

DATA;
#10=MECHANICAL_DESIGN_GEOMETRIC_PRESENTATION_REPRESENTATION('',(#13),#375);
#11=SHAPE_REPRESENTATION_RELATIONSHIP('SRR','None',#382,#12);
#12=ADVANCED_BREP_SHAPE_REPRESENTATION('',(#14),#374);
#13=STYLED_ITEM('',(#392),#14);
#14=MANIFOLD_SOLID_BREP('Corps1',#227);
#15=FACE_OUTER_BOUND('',#29,.T.);
#16=FACE_OUTER_BOUND('',#30,.T.);
#17=FACE_OUTER_BOUND('',#31,.T.);
#18=FACE_OUTER_BOUND('',#32,.T.);
#19=FACE_OUTER_BOUND('',#33,.T.);
#20=FACE_OUTER_BOUND('',#34,.T.);
#21=FACE_OUTER_BOUND('',#35,.T.);
#22=FACE_OUTER_BOUND('',#36,.T.);
#23=FACE_OUTER_BOUND('',#37,.T.);
#24=FACE_OUTER_BOUND('',#38,.T.);
#25=FACE_OUTER_BOUND('',#39,.T.);
#26=FACE_OUTER_BOUND('',#40,.T.);
#27=FACE_OUTER_BOUND('',#41,.T.);
#28=FACE_OUTER_BOUND('',#42,.T.);
#29=EDGE_LOOP('',(#143,#144,#145,#146));
#30=EDGE_LOOP('',(#147,#148,#149,#150));
#31=EDGE_LOOP('',(#151,#152,#153,#154));
#32=EDGE_LOOP('',(#155,#156,#157,#158));
#33=EDGE_LOOP('',(#159,#160,#161,#162));
#34=EDGE_LOOP('',(#163,#164,#165,#166));
#35=EDGE_LOOP('',(#167,#168,#169,#170));
#36=EDGE_LOOP('',(#171,#172,#173,#174));
#37=EDGE_LOOP('',(#175,#176,#177,#178));
#38=EDGE_LOOP('',(#179,#180,#181,#182));
#39=EDGE_LOOP('',(#183,#184,#185,#186));
#40=EDGE_LOOP('',(#187,#188,#189,#190));
#41=EDGE_LOOP('',(#191,#192,#193,#194));
#42=EDGE_LOOP('',(#195,#196,#197,#198));
#43=LINE('',#317,#71);
#44=LINE('',#319,#72);
#45=LINE('',#321,#73);
#46=LINE('',#322,#74);
#47=LINE('',#326,#75);
#48=LINE('',#328,#76);
#49=LINE('',#330,#77);
#50=LINE('',#331,#78);
#51=LINE('',#335,#79);
#52=LINE('',#337,#80);
#53=LINE('',#339,#81);
#54=LINE('',#340,#82);
#55=LINE('',#344,#83);
#56=LINE('',#346,#84);
#57=LINE('',#348,#85);
#58=LINE('',#349,#86);
#59=LINE('',#351,#87);
#60=LINE('',#352,#88);
#61=LINE('',#354,#89);
#62=LINE('',#355,#90);
#63=LINE('',#357,#91);
#64=LINE('',#358,#92);
#65=LINE('',#360,#93);
#66=LINE('',#362,#94);
#67=LINE('',#365,#95);
#68=LINE('',#366,#96);
#69=LINE('',#368,#97);
#70=LINE('',#370,#98);
#71=VECTOR('',#259,1000.);
#72=VECTOR('',#260,1000.);
#73=VECTOR('',#261,1000.);
#74=VECTOR('',#262,1000.);
#75=VECTOR('',#265,1000.);
#76=VECTOR('',#266,1000.);
#77=VECTOR('',#267,1000.);
#78=VECTOR('',#268,1000.);
#79=VECTOR('',#271,1000.);
#80=VECTOR('',#272,1000.);
#81=VECTOR('',#273,1000.);
#82=VECTOR('',#274,1000.);
#83=VECTOR('',#277,1000.);
#84=VECTOR('',#278,1000.);
#85=VECTOR('',#279,1000.);
#86=VECTOR('',#280,1000.);
#87=VECTOR('',#283,1000.);
#88=VECTOR('',#284,1000.);
#89=VECTOR('',#287,1000.);
#90=VECTOR('',#288,1000.);
#91=VECTOR('',#291,1000.);
#92=VECTOR('',#292,1000.);
#93=VECTOR('',#295,1000.);
#94=VECTOR('',#298,1000.);
#95=VECTOR('',#303,1000.);
#96=VECTOR('',#304,1000.);
#97=VECTOR('',#307,1000.);
#98=VECTOR('',#310,1000.);
#99=VERTEX_POINT('',#315);
#100=VERTEX_POINT('',#316);
#101=VERTEX_POINT('',#318);
#102=VERTEX_POINT('',#320);
#103=VERTEX_POINT('',#324);
#104=VERTEX_POINT('',#325);
#105=VERTEX_POINT('',#327);
#106=VERTEX_POINT('',#329);
#107=VERTEX_POINT('',#333);
#108=VERTEX_POINT('',#334);
#109=VERTEX_POINT('',#336);
#110=VERTEX_POINT('',#338);
#111=VERTEX_POINT('',#342);
#112=VERTEX_POINT('',#343);
#113=VERTEX_POINT('',#345);
#114=VERTEX_POINT('',#347);
#115=EDGE_CURVE('',#99,#100,#43,.T.);
#116=EDGE_CURVE('',#100,#101,#44,.T.);
#117=EDGE_CURVE('',#101,#102,#45,.T.);
#118=EDGE_CURVE('',#102,#99,#46,.T.);
#119=EDGE_CURVE('',#103,#104,#47,.T.);
#120=EDGE_CURVE('',#103,#105,#48,.T.);
#121=EDGE_CURVE('',#105,#106,#49,.T.);
#122=EDGE_CURVE('',#106,#104,#50,.T.);
#123=EDGE_CURVE('',#107,#108,#51,.T.);
#124=EDGE_CURVE('',#108,#109,#52,.T.);
#125=EDGE_CURVE('',#109,#110,#53,.T.);
#126=EDGE_CURVE('',#110,#107,#54,.T.);
#127=EDGE_CURVE('',#111,#112,#55,.T.);
#128=EDGE_CURVE('',#112,#113,#56,.T.);
#129=EDGE_CURVE('',#114,#113,#57,.T.);
#130=EDGE_CURVE('',#114,#111,#58,.T.);
#131=EDGE_CURVE('',#105,#112,#59,.T.);
#132=EDGE_CURVE('',#111,#106,#60,.T.);
#133=EDGE_CURVE('',#113,#103,#61,.T.);
#134=EDGE_CURVE('',#104,#114,#62,.T.);
#135=EDGE_CURVE('',#104,#102,#63,.T.);
#136=EDGE_CURVE('',#99,#106,#64,.T.);
#137=EDGE_CURVE('',#100,#111,#65,.T.);
#138=EDGE_CURVE('',#114,#101,#66,.T.);
#139=EDGE_CURVE('',#107,#105,#67,.T.);
#140=EDGE_CURVE('',#112,#110,#68,.T.);
#141=EDGE_CURVE('',#113,#109,#69,.T.);
#142=EDGE_CURVE('',#108,#103,#70,.T.);
#143=ORIENTED_EDGE('',*,*,#115,.T.);
#144=ORIENTED_EDGE('',*,*,#116,.T.);
#145=ORIENTED_EDGE('',*,*,#117,.T.);
#146=ORIENTED_EDGE('',*,*,#118,.T.);
#147=ORIENTED_EDGE('',*,*,#119,.F.);
#148=ORIENTED_EDGE('',*,*,#120,.T.);
#149=ORIENTED_EDGE('',*,*,#121,.T.);
#150=ORIENTED_EDGE('',*,*,#122,.T.);
#151=ORIENTED_EDGE('',*,*,#123,.T.);
#152=ORIENTED_EDGE('',*,*,#124,.T.);
#153=ORIENTED_EDGE('',*,*,#125,.T.);
#154=ORIENTED_EDGE('',*,*,#126,.T.);
#155=ORIENTED_EDGE('',*,*,#127,.T.);
#156=ORIENTED_EDGE('',*,*,#128,.T.);
#157=ORIENTED_EDGE('',*,*,#129,.F.);
#158=ORIENTED_EDGE('',*,*,#130,.T.);
#159=ORIENTED_EDGE('',*,*,#121,.F.);
#160=ORIENTED_EDGE('',*,*,#131,.T.);
#161=ORIENTED_EDGE('',*,*,#127,.F.);
#162=ORIENTED_EDGE('',*,*,#132,.T.);
#163=ORIENTED_EDGE('',*,*,#129,.T.);
#164=ORIENTED_EDGE('',*,*,#133,.T.);
#165=ORIENTED_EDGE('',*,*,#119,.T.);
#166=ORIENTED_EDGE('',*,*,#134,.T.);
#167=ORIENTED_EDGE('',*,*,#135,.F.);
#168=ORIENTED_EDGE('',*,*,#122,.F.);
#169=ORIENTED_EDGE('',*,*,#136,.F.);
#170=ORIENTED_EDGE('',*,*,#118,.F.);
#171=ORIENTED_EDGE('',*,*,#136,.T.);
#172=ORIENTED_EDGE('',*,*,#132,.F.);
#173=ORIENTED_EDGE('',*,*,#137,.F.);
#174=ORIENTED_EDGE('',*,*,#115,.F.);
#175=ORIENTED_EDGE('',*,*,#135,.T.);
#176=ORIENTED_EDGE('',*,*,#117,.F.);
#177=ORIENTED_EDGE('',*,*,#138,.F.);
#178=ORIENTED_EDGE('',*,*,#134,.F.);
#179=ORIENTED_EDGE('',*,*,#137,.T.);
#180=ORIENTED_EDGE('',*,*,#130,.F.);
#181=ORIENTED_EDGE('',*,*,#138,.T.);
#182=ORIENTED_EDGE('',*,*,#116,.F.);
#183=ORIENTED_EDGE('',*,*,#139,.F.);
#184=ORIENTED_EDGE('',*,*,#126,.F.);
#185=ORIENTED_EDGE('',*,*,#140,.F.);
#186=ORIENTED_EDGE('',*,*,#131,.F.);
#187=ORIENTED_EDGE('',*,*,#140,.T.);
#188=ORIENTED_EDGE('',*,*,#125,.F.);
#189=ORIENTED_EDGE('',*,*,#141,.F.);
#190=ORIENTED_EDGE('',*,*,#128,.F.);
#191=ORIENTED_EDGE('',*,*,#139,.T.);
#192=ORIENTED_EDGE('',*,*,#120,.F.);
#193=ORIENTED_EDGE('',*,*,#142,.F.);
#194=ORIENTED_EDGE('',*,*,#123,.F.);
#195=ORIENTED_EDGE('',*,*,#141,.T.);
#196=ORIENTED_EDGE('',*,*,#124,.F.);
#197=ORIENTED_EDGE('',*,*,#142,.T.);
#198=ORIENTED_EDGE('',*,*,#133,.F.);
#199=PLANE('',#241);
#200=PLANE('',#242);
#201=PLANE('',#243);
#202=PLANE('',#244);
#203=PLANE('',#245);
#204=PLANE('',#246);
#205=PLANE('',#247);
#206=PLANE('',#248);
#207=PLANE('',#249);
#208=PLANE('',#250);
#209=PLANE('',#251);
#210=PLANE('',#252);
#211=PLANE('',#253);
#212=PLANE('',#254);
#213=ADVANCED_FACE('',(#15),#199,.T.);
#214=ADVANCED_FACE('',(#16),#200,.T.);
#215=ADVANCED_FACE('',(#17),#201,.T.);
#216=ADVANCED_FACE('',(#18),#202,.T.);
#217=ADVANCED_FACE('',(#19),#203,.F.);
#218=ADVANCED_FACE('',(#20),#204,.T.);
#219=ADVANCED_FACE('',(#21),#205,.F.);
#220=ADVANCED_FACE('',(#22),#206,.T.);
#221=ADVANCED_FACE('',(#23),#207,.F.);
#222=ADVANCED_FACE('',(#24),#208,.F.);
#223=ADVANCED_FACE('',(#25),#209,.T.);
#224=ADVANCED_FACE('',(#26),#210,.F.);
#225=ADVANCED_FACE('',(#27),#211,.F.);
#226=ADVANCED_FACE('',(#28),#212,.F.);
#227=CLOSED_SHELL('',(#213,#214,#215,#216,#217,#218,#219,#220,#221,#222,
#223,#224,#225,#226));
#228=DERIVED_UNIT_ELEMENT(#230,1.);
#229=DERIVED_UNIT_ELEMENT(#377,-3.);
#230=(
MASS_UNIT()
NAMED_UNIT(*)
SI_UNIT(.KILO.,.GRAM.)
);
#231=DERIVED_UNIT((#228,#229));
#232=MEASURE_REPRESENTATION_ITEM('density measure',
POSITIVE_RATIO_MEASURE(7850.),#231);
#233=PROPERTY_DEFINITION_REPRESENTATION(#238,#235);
#234=PROPERTY_DEFINITION_REPRESENTATION(#239,#236);
#235=REPRESENTATION('material name',(#237),#374);
#236=REPRESENTATION('density',(#232),#374);
#237=DESCRIPTIVE_REPRESENTATION_ITEM('Acier','Acier');
#238=PROPERTY_DEFINITION('material property','material name',#384);
#239=PROPERTY_DEFINITION('material property','density of part',#384);
#240=AXIS2_PLACEMENT_3D('',#313,#255,#256);
#241=AXIS2_PLACEMENT_3D('',#314,#257,#258);
#242=AXIS2_PLACEMENT_3D('',#323,#263,#264);
#243=AXIS2_PLACEMENT_3D('',#332,#269,#270);
#244=AXIS2_PLACEMENT_3D('',#341,#275,#276);
#245=AXIS2_PLACEMENT_3D('',#350,#281,#282);
#246=AXIS2_PLACEMENT_3D('',#353,#285,#286);
#247=AXIS2_PLACEMENT_3D('',#356,#289,#290);
#248=AXIS2_PLACEMENT_3D('',#359,#293,#294);
#249=AXIS2_PLACEMENT_3D('',#361,#296,#297);
#250=AXIS2_PLACEMENT_3D('',#363,#299,#300);
#251=AXIS2_PLACEMENT_3D('',#364,#301,#302);
#252=AXIS2_PLACEMENT_3D('',#367,#305,#306);
#253=AXIS2_PLACEMENT_3D('',#369,#308,#309);
#254=AXIS2_PLACEMENT_3D('',#371,#311,#312);
#255=DIRECTION('axis',(0.,0.,1.));
#256=DIRECTION('refdir',(1.,0.,0.));
#257=DIRECTION('center_axis',(0.,1.,0.));
#258=DIRECTION('ref_axis',(0.,0.,1.));
#259=DIRECTION('',(1.,0.,0.));
#260=DIRECTION('',(0.,0.,-1.));
#261=DIRECTION('',(-1.,0.,0.));
#262=DIRECTION('',(0.,0.,1.));
#263=DIRECTION('center_axis',(-1.,0.,0.));
#264=DIRECTION('ref_axis',(0.,0.,1.));
#265=DIRECTION('',(0.,1.,0.));
#266=DIRECTION('',(0.,0.,1.));
#267=DIRECTION('',(0.,1.,0.));
#268=DIRECTION('',(0.,0.,-1.));
#269=DIRECTION('center_axis',(0.,-1.,0.));
#270=DIRECTION('ref_axis',(0.,0.,-1.));
#271=DIRECTION('',(0.,0.,-1.));
#272=DIRECTION('',(1.,0.,0.));
#273=DIRECTION('',(0.,0.,1.));
#274=DIRECTION('',(-1.,0.,0.));
#275=DIRECTION('center_axis',(1.,0.,0.));
#276=DIRECTION('ref_axis',(0.,0.,-1.));
#277=DIRECTION('',(0.,-1.,0.));
#278=DIRECTION('',(0.,0.,-1.));
#279=DIRECTION('',(0.,-1.,0.));
#280=DIRECTION('',(0.,0.,1.));
#281=DIRECTION('center_axis',(0.,0.,-1.));
#282=DIRECTION('ref_axis',(-1.,0.,0.));
#283=DIRECTION('',(1.,0.,0.));
#284=DIRECTION('',(-1.,0.,0.));
#285=DIRECTION('center_axis',(0.,0.,-1.));
#286=DIRECTION('ref_axis',(-1.,0.,0.));
#287=DIRECTION('',(-1.,0.,0.));
#288=DIRECTION('',(1.,0.,0.));
#289=DIRECTION('center_axis',(0.866025403784439,-0.5,0.));
#290=DIRECTION('ref_axis',(0.,0.,-1.));
#291=DIRECTION('',(0.447213595499958,0.774596669241484,0.447213595499958));
#292=DIRECTION('',(-0.447213595499958,-0.774596669241484,0.447213595499958));
#293=DIRECTION('center_axis',(0.,0.5,0.866025403784439));
#294=DIRECTION('ref_axis',(-1.,0.,0.));
#295=DIRECTION('',(0.447213595499958,-0.774596669241484,0.447213595499958));
#296=DIRECTION('center_axis',(0.,-0.5,0.866025403784439));
#297=DIRECTION('ref_axis',(1.,0.,0.));
#298=DIRECTION('',(-0.447213595499958,0.774596669241484,0.447213595499958));
#299=DIRECTION('center_axis',(-0.866025403784439,-0.5,0.));
#300=DIRECTION('ref_axis',(0.,0.,-1.));
#301=DIRECTION('center_axis',(0.,-0.766044443118982,0.642787609686535));
#302=DIRECTION('ref_axis',(1.,0.,0.));
#303=DIRECTION('',(-0.608120402411345,0.510273605374733,0.608120402411345));
#304=DIRECTION('',(-0.608120402411345,-0.510273605374733,-0.608120402411345));
#305=DIRECTION('center_axis',(-0.642787609686535,0.766044443118982,0.));
#306=DIRECTION('ref_axis',(0.,0.,-1.));
#307=DIRECTION('',(-0.608120402411345,-0.510273605374733,0.608120402411345));
#308=DIRECTION('center_axis',(0.642787609686535,0.766044443118982,0.));
#309=DIRECTION('ref_axis',(0.,0.,-1.));
#310=DIRECTION('',(-0.608120402411345,0.510273605374733,-0.608120402411345));
#311=DIRECTION('center_axis',(0.,0.766044443118982,0.642787609686535));
#312=DIRECTION('ref_axis',(-1.,0.,0.));
#313=CARTESIAN_POINT('',(0.,0.,0.));
#314=CARTESIAN_POINT('Origin',(-0.24642857142857,11.5,0.299999999999998));
#315=CARTESIAN_POINT('',(-0.0732234906716835,11.5,0.126794919243112));
#316=CARTESIAN_POINT('',(0.0732234906716863,11.5,0.126794919243112));
#317=CARTESIAN_POINT('',(0.246428571428573,11.5,0.126794919243112));
#318=CARTESIAN_POINT('',(0.0732234906716863,11.5,-0.126794919243115));
#319=CARTESIAN_POINT('',(0.0732234906716863,11.5,0.299999999999998));
#320=CARTESIAN_POINT('',(-0.0732234906716835,11.5,-0.126794919243115));
#321=CARTESIAN_POINT('',(-0.24642857142857,11.5,-0.126794919243115));
#322=CARTESIAN_POINT('',(-0.0732234906716835,11.5,0.299999999999998));
#323=CARTESIAN_POINT('Origin',(-0.24642857142857,0.,0.299999999999998));
#324=CARTESIAN_POINT('',(-0.24642857142857,0.167819926235456,-0.300000000000002));
#325=CARTESIAN_POINT('',(-0.24642857142857,11.2,-0.300000000000002));
#326=CARTESIAN_POINT('',(-0.24642857142857,0.,-0.300000000000002));
#327=CARTESIAN_POINT('',(-0.24642857142857,0.167819926235456,0.299999999999998));
#328=CARTESIAN_POINT('',(-0.24642857142857,0.167819926235456,0.299999999999998));
#329=CARTESIAN_POINT('',(-0.24642857142857,11.2,0.299999999999998));
#330=CARTESIAN_POINT('',(-0.24642857142857,0.,0.299999999999998));
#331=CARTESIAN_POINT('',(-0.24642857142857,11.2,0.299999999999998));
#332=CARTESIAN_POINT('Origin',(0.246428571428573,0.,0.299999999999998));
#333=CARTESIAN_POINT('',(-0.0464285714285678,0.,0.0999999999999961));
#334=CARTESIAN_POINT('',(-0.0464285714285678,0.,-0.0999999999999994));
#335=CARTESIAN_POINT('',(-0.0464285714285678,0.,0.299999999999998));
#336=CARTESIAN_POINT('',(0.0464285714285705,0.,-0.0999999999999994));
#337=CARTESIAN_POINT('',(0.246428571428573,0.,-0.0999999999999994));
#338=CARTESIAN_POINT('',(0.0464285714285705,0.,0.0999999999999961));
#339=CARTESIAN_POINT('',(0.0464285714285705,0.,0.299999999999998));
#340=CARTESIAN_POINT('',(-0.24642857142857,0.,0.0999999999999961));
#341=CARTESIAN_POINT('Origin',(0.246428571428573,11.5,0.299999999999998));
#342=CARTESIAN_POINT('',(0.246428571428573,11.2,0.299999999999998));
#343=CARTESIAN_POINT('',(0.246428571428573,0.167819926235456,0.299999999999998));
#344=CARTESIAN_POINT('',(0.246428571428573,11.5,0.299999999999998));
#345=CARTESIAN_POINT('',(0.246428571428573,0.167819926235456,-0.300000000000002));
#346=CARTESIAN_POINT('',(0.246428571428573,0.167819926235456,0.299999999999998));
#347=CARTESIAN_POINT('',(0.246428571428573,11.2,-0.300000000000002));
#348=CARTESIAN_POINT('',(0.246428571428573,11.5,-0.300000000000002));
#349=CARTESIAN_POINT('',(0.246428571428573,11.2,0.299999999999998));
#350=CARTESIAN_POINT('Origin',(0.,0.,0.299999999999998));
#351=CARTESIAN_POINT('',(0.246428571428573,0.167819926235456,0.299999999999998));
#352=CARTESIAN_POINT('',(-0.24642857142857,11.2,0.299999999999998));
#353=CARTESIAN_POINT('Origin',(0.,0.,-0.300000000000002));
#354=CARTESIAN_POINT('',(0.,0.167819926235456,-0.300000000000002));
#355=CARTESIAN_POINT('',(0.,11.2,-0.300000000000002));
#356=CARTESIAN_POINT('Origin',(-0.24642857142857,11.2,0.299999999999998));
#357=CARTESIAN_POINT('',(-0.12642857142857,11.4078460969083,-0.180000000000002));
#358=CARTESIAN_POINT('',(-0.24642857142857,11.2,0.299999999999998));
#359=CARTESIAN_POINT('Origin',(-0.24642857142857,11.5,0.126794919243112));
#360=CARTESIAN_POINT('',(0.00929307825163516,11.6107307224604,0.0628645068230606));
#361=CARTESIAN_POINT('Origin',(0.,11.2,-0.300000000000002));
#362=CARTESIAN_POINT('',(0.197142857142858,11.2853653612302,-0.250714285714287));
#363=CARTESIAN_POINT('Origin',(0.0732234906716863,11.5,0.299999999999998));
#364=CARTESIAN_POINT('Origin',(0.246428571428573,0.,0.0999999999999961));
#365=CARTESIAN_POINT('',(0.0618730526927626,-0.0908758528561077,-0.00830162412133431));
#366=CARTESIAN_POINT('',(0.120390656194359,0.0620615580480747,0.173962084765784));
#367=CARTESIAN_POINT('Origin',(0.246428571428573,0.167819926235456,0.299999999999998));
#368=CARTESIAN_POINT('',(0.0245423171312114,-0.018364747908766,-0.0781137457026402));
#369=CARTESIAN_POINT('Origin',(-0.0464285714285678,0.,0.299999999999998));
#370=CARTESIAN_POINT('',(0.101495598103006,-0.124123116096147,0.0479241695315741));
#371=CARTESIAN_POINT('Origin',(0.,0.167819926235456,-0.300000000000002));
#372=UNCERTAINTY_MEASURE_WITH_UNIT(LENGTH_MEASURE(0.01),#376,
'DISTANCE_ACCURACY_VALUE',
'Maximum model space distance between geometric entities at asserted c
onnectivities');
#373=UNCERTAINTY_MEASURE_WITH_UNIT(LENGTH_MEASURE(0.01),#376,
'DISTANCE_ACCURACY_VALUE',
'Maximum model space distance between geometric entities at asserted c
onnectivities');
#374=(
GEOMETRIC_REPRESENTATION_CONTEXT(3)
GLOBAL_UNCERTAINTY_ASSIGNED_CONTEXT((#372))
GLOBAL_UNIT_ASSIGNED_CONTEXT((#376,#378,#379))
REPRESENTATION_CONTEXT('','3D')
);
#375=(
GEOMETRIC_REPRESENTATION_CONTEXT(3)
GLOBAL_UNCERTAINTY_ASSIGNED_CONTEXT((#373))
GLOBAL_UNIT_ASSIGNED_CONTEXT((#376,#378,#379))
REPRESENTATION_CONTEXT('','3D')
);
#376=(
LENGTH_UNIT()
NAMED_UNIT(*)
SI_UNIT(.MILLI.,.METRE.)
);
#377=(
LENGTH_UNIT()
NAMED_UNIT(*)
SI_UNIT($,.METRE.)
);
#378=(
NAMED_UNIT(*)
PLANE_ANGLE_UNIT()
SI_UNIT($,.RADIAN.)
);
#379=(
NAMED_UNIT(*)
SI_UNIT($,.STERADIAN.)
SOLID_ANGLE_UNIT()
);
#380=SHAPE_DEFINITION_REPRESENTATION(#381,#382);
#381=PRODUCT_DEFINITION_SHAPE('',$,#384);
#382=SHAPE_REPRESENTATION('',(#240),#374);
#383=PRODUCT_DEFINITION_CONTEXT('part definition',#388,'design');
#384=PRODUCT_DEFINITION('pin_std','pin_std',#385,#383);
#385=PRODUCT_DEFINITION_FORMATION('',$,#390);
#386=PRODUCT_RELATED_PRODUCT_CATEGORY('pin_std','pin_std',(#390));
#387=APPLICATION_PROTOCOL_DEFINITION('international standard',
'automotive_design',2009,#388);
#388=APPLICATION_CONTEXT(
'Core Data for Automotive Mechanical Design Process');
#389=PRODUCT_CONTEXT('part definition',#388,'mechanical');
#390=PRODUCT('pin_std','pin_std',$,(#389));
#391=PRESENTATION_STYLE_ASSIGNMENT((#393));
#392=PRESENTATION_STYLE_ASSIGNMENT((#394));
#393=SURFACE_STYLE_USAGE(.BOTH.,#395);
#394=SURFACE_STYLE_USAGE(.BOTH.,#396);
#395=SURFACE_SIDE_STYLE('',(#397));
#396=SURFACE_SIDE_STYLE('',(#398));
#397=SURFACE_STYLE_FILL_AREA(#399);
#398=SURFACE_STYLE_FILL_AREA(#400);
#399=FILL_AREA_STYLE('Acier - Satin\X\E9',(#401));
#400=FILL_AREA_STYLE('Opaque(228,233,237)',(#402));
#401=FILL_AREA_STYLE_COLOUR('Acier - Satin\X\E9',#403);
#402=FILL_AREA_STYLE_COLOUR('Opaque(228,233,237)',#404);
#403=COLOUR_RGB('Acier - Satin\X\E9',0.627450980392157,0.627450980392157,
0.627450980392157);
#404=COLOUR_RGB('Opaque(228,233,237)',0.894117647058824,0.913725490196078,
0.929411764705882);
ENDSEC;
END-ISO-10303-21;
