ISO-10303-21;
HEADER;
/* Generated by software containing ST-Developer
 * from STEP Tools, Inc. (www.steptools.com) 
 */

FILE_DESCRIPTION(
/* description */ (''),
/* implementation_level */ '2;1');

FILE_NAME(
/* name */ 'BB02-HP-PIN-A=6.0,B=0.64.step',
/* time_stamp */ '2026-02-08T19:01:40+01:00',
/* author */ (''),
/* organization */ (''),
/* preprocessor_version */ 'ST-DEVELOPER v20.1',
/* originating_system */ 'Autodesk Translation Framework v14.24.0.0',
/* authorisation */ '');

FILE_SCHEMA (('AUTOMOTIVE_DESIGN { 1 0 10303 214 3 1 1 }'));
ENDSEC;

DATA;
#10=MECHANICAL_DESIGN_GEOMETRIC_PRESENTATION_REPRESENTATION('',(#13),#511);
#11=SHAPE_REPRESENTATION_RELATIONSHIP('SRR','None',#518,#12);
#12=ADVANCED_BREP_SHAPE_REPRESENTATION('',(#14),#510);
#13=STYLED_ITEM('',(#528),#14);
#14=MANIFOLD_SOLID_BREP('Corps1',#307);
#15=CYLINDRICAL_SURFACE('',#324,0.94);
#16=CYLINDRICAL_SURFACE('',#329,0.3);
#17=FACE_OUTER_BOUND('',#35,.T.);
#18=FACE_OUTER_BOUND('',#36,.T.);
#19=FACE_OUTER_BOUND('',#37,.T.);
#20=FACE_OUTER_BOUND('',#38,.T.);
#21=FACE_OUTER_BOUND('',#39,.T.);
#22=FACE_OUTER_BOUND('',#40,.T.);
#23=FACE_OUTER_BOUND('',#41,.T.);
#24=FACE_OUTER_BOUND('',#42,.T.);
#25=FACE_OUTER_BOUND('',#43,.T.);
#26=FACE_OUTER_BOUND('',#44,.T.);
#27=FACE_OUTER_BOUND('',#45,.T.);
#28=FACE_OUTER_BOUND('',#46,.T.);
#29=FACE_OUTER_BOUND('',#47,.T.);
#30=FACE_OUTER_BOUND('',#48,.T.);
#31=FACE_OUTER_BOUND('',#49,.T.);
#32=FACE_OUTER_BOUND('',#50,.T.);
#33=FACE_OUTER_BOUND('',#51,.T.);
#34=FACE_OUTER_BOUND('',#52,.T.);
#35=EDGE_LOOP('',(#193,#194,#195,#196,#197,#198,#199,#200));
#36=EDGE_LOOP('',(#201,#202,#203,#204));
#37=EDGE_LOOP('',(#205,#206,#207,#208));
#38=EDGE_LOOP('',(#209,#210,#211,#212));
#39=EDGE_LOOP('',(#213,#214,#215,#216));
#40=EDGE_LOOP('',(#217,#218,#219,#220));
#41=EDGE_LOOP('',(#221,#222,#223,#224));
#42=EDGE_LOOP('',(#225,#226,#227,#228));
#43=EDGE_LOOP('',(#229,#230,#231,#232));
#44=EDGE_LOOP('',(#233,#234,#235,#236,#237,#238,#239,#240));
#45=EDGE_LOOP('',(#241,#242,#243,#244));
#46=EDGE_LOOP('',(#245,#246,#247,#248));
#47=EDGE_LOOP('',(#249,#250,#251,#252));
#48=EDGE_LOOP('',(#253,#254,#255,#256));
#49=EDGE_LOOP('',(#257,#258,#259,#260));
#50=EDGE_LOOP('',(#261,#262,#263,#264));
#51=EDGE_LOOP('',(#265,#266,#267,#268));
#52=EDGE_LOOP('',(#269,#270,#271,#272));
#53=CIRCLE('',#322,0.94);
#54=CIRCLE('',#323,0.3);
#55=CIRCLE('',#325,0.94);
#56=CIRCLE('',#330,0.3);
#57=LINE('',#429,#93);
#58=LINE('',#433,#94);
#59=LINE('',#435,#95);
#60=LINE('',#437,#96);
#61=LINE('',#441,#97);
#62=LINE('',#442,#98);
#63=LINE('',#445,#99);
#64=LINE('',#448,#100);
#65=LINE('',#451,#101);
#66=LINE('',#452,#102);
#67=LINE('',#455,#103);
#68=LINE('',#457,#104);
#69=LINE('',#458,#105);
#70=LINE('',#461,#106);
#71=LINE('',#463,#107);
#72=LINE('',#464,#108);
#73=LINE('',#467,#109);
#74=LINE('',#471,#110);
#75=LINE('',#472,#111);
#76=LINE('',#475,#112);
#77=LINE('',#477,#113);
#78=LINE('',#478,#114);
#79=LINE('',#481,#115);
#80=LINE('',#482,#116);
#81=LINE('',#484,#117);
#82=LINE('',#485,#118);
#83=LINE('',#488,#119);
#84=LINE('',#489,#120);
#85=LINE('',#492,#121);
#86=LINE('',#493,#122);
#87=LINE('',#495,#123);
#88=LINE('',#498,#124);
#89=LINE('',#499,#125);
#90=LINE('',#502,#126);
#91=LINE('',#503,#127);
#92=LINE('',#505,#128);
#93=VECTOR('',#347,1000.);
#94=VECTOR('',#350,1000.);
#95=VECTOR('',#351,1000.);
#96=VECTOR('',#352,1000.);
#97=VECTOR('',#355,1000.);
#98=VECTOR('',#356,1000.);
#99=VECTOR('',#359,1000.);
#100=VECTOR('',#362,1000.);
#101=VECTOR('',#365,1000.);
#102=VECTOR('',#366,1000.);
#103=VECTOR('',#369,1000.);
#104=VECTOR('',#370,1000.);
#105=VECTOR('',#371,1000.);
#106=VECTOR('',#374,1000.);
#107=VECTOR('',#375,1000.);
#108=VECTOR('',#376,1000.);
#109=VECTOR('',#379,1000.);
#110=VECTOR('',#384,1000.);
#111=VECTOR('',#385,1000.);
#112=VECTOR('',#388,1000.);
#113=VECTOR('',#389,1000.);
#114=VECTOR('',#390,1000.);
#115=VECTOR('',#393,1000.);
#116=VECTOR('',#394,1000.);
#117=VECTOR('',#397,1000.);
#118=VECTOR('',#398,1000.);
#119=VECTOR('',#401,1000.);
#120=VECTOR('',#402,1000.);
#121=VECTOR('',#405,1000.);
#122=VECTOR('',#406,1000.);
#123=VECTOR('',#409,1000.);
#124=VECTOR('',#412,1000.);
#125=VECTOR('',#413,1000.);
#126=VECTOR('',#416,1000.);
#127=VECTOR('',#417,1000.);
#128=VECTOR('',#420,1000.);
#129=VERTEX_POINT('',#427);
#130=VERTEX_POINT('',#428);
#131=VERTEX_POINT('',#430);
#132=VERTEX_POINT('',#432);
#133=VERTEX_POINT('',#434);
#134=VERTEX_POINT('',#436);
#135=VERTEX_POINT('',#438);
#136=VERTEX_POINT('',#440);
#137=VERTEX_POINT('',#444);
#138=VERTEX_POINT('',#446);
#139=VERTEX_POINT('',#450);
#140=VERTEX_POINT('',#454);
#141=VERTEX_POINT('',#456);
#142=VERTEX_POINT('',#460);
#143=VERTEX_POINT('',#462);
#144=VERTEX_POINT('',#466);
#145=VERTEX_POINT('',#470);
#146=VERTEX_POINT('',#474);
#147=VERTEX_POINT('',#476);
#148=VERTEX_POINT('',#480);
#149=VERTEX_POINT('',#487);
#150=VERTEX_POINT('',#491);
#151=VERTEX_POINT('',#497);
#152=VERTEX_POINT('',#501);
#153=EDGE_CURVE('',#129,#130,#57,.T.);
#154=EDGE_CURVE('',#130,#131,#53,.T.);
#155=EDGE_CURVE('',#131,#132,#58,.T.);
#156=EDGE_CURVE('',#132,#133,#59,.T.);
#157=EDGE_CURVE('',#133,#134,#60,.T.);
#158=EDGE_CURVE('',#134,#135,#54,.T.);
#159=EDGE_CURVE('',#135,#136,#61,.T.);
#160=EDGE_CURVE('',#136,#129,#62,.T.);
#161=EDGE_CURVE('',#130,#137,#63,.T.);
#162=EDGE_CURVE('',#137,#138,#55,.T.);
#163=EDGE_CURVE('',#138,#131,#64,.T.);
#164=EDGE_CURVE('',#139,#137,#65,.T.);
#165=EDGE_CURVE('',#129,#139,#66,.T.);
#166=EDGE_CURVE('',#140,#136,#67,.T.);
#167=EDGE_CURVE('',#141,#140,#68,.T.);
#168=EDGE_CURVE('',#129,#141,#69,.T.);
#169=EDGE_CURVE('',#135,#142,#70,.T.);
#170=EDGE_CURVE('',#142,#143,#71,.T.);
#171=EDGE_CURVE('',#143,#136,#72,.T.);
#172=EDGE_CURVE('',#144,#134,#73,.T.);
#173=EDGE_CURVE('',#142,#144,#56,.T.);
#174=EDGE_CURVE('',#145,#144,#74,.T.);
#175=EDGE_CURVE('',#133,#145,#75,.T.);
#176=EDGE_CURVE('',#146,#132,#76,.T.);
#177=EDGE_CURVE('',#147,#146,#77,.T.);
#178=EDGE_CURVE('',#133,#147,#78,.T.);
#179=EDGE_CURVE('',#138,#148,#79,.T.);
#180=EDGE_CURVE('',#148,#132,#80,.T.);
#181=EDGE_CURVE('',#148,#145,#81,.T.);
#182=EDGE_CURVE('',#143,#139,#82,.T.);
#183=EDGE_CURVE('',#149,#141,#83,.T.);
#184=EDGE_CURVE('',#139,#149,#84,.T.);
#185=EDGE_CURVE('',#150,#143,#85,.T.);
#186=EDGE_CURVE('',#140,#150,#86,.T.);
#187=EDGE_CURVE('',#150,#149,#87,.T.);
#188=EDGE_CURVE('',#151,#147,#88,.T.);
#189=EDGE_CURVE('',#145,#151,#89,.T.);
#190=EDGE_CURVE('',#152,#148,#90,.T.);
#191=EDGE_CURVE('',#146,#152,#91,.T.);
#192=EDGE_CURVE('',#152,#151,#92,.T.);
#193=ORIENTED_EDGE('',*,*,#153,.T.);
#194=ORIENTED_EDGE('',*,*,#154,.T.);
#195=ORIENTED_EDGE('',*,*,#155,.T.);
#196=ORIENTED_EDGE('',*,*,#156,.T.);
#197=ORIENTED_EDGE('',*,*,#157,.T.);
#198=ORIENTED_EDGE('',*,*,#158,.T.);
#199=ORIENTED_EDGE('',*,*,#159,.T.);
#200=ORIENTED_EDGE('',*,*,#160,.T.);
#201=ORIENTED_EDGE('',*,*,#154,.F.);
#202=ORIENTED_EDGE('',*,*,#161,.T.);
#203=ORIENTED_EDGE('',*,*,#162,.T.);
#204=ORIENTED_EDGE('',*,*,#163,.T.);
#205=ORIENTED_EDGE('',*,*,#164,.T.);
#206=ORIENTED_EDGE('',*,*,#161,.F.);
#207=ORIENTED_EDGE('',*,*,#153,.F.);
#208=ORIENTED_EDGE('',*,*,#165,.T.);
#209=ORIENTED_EDGE('',*,*,#160,.F.);
#210=ORIENTED_EDGE('',*,*,#166,.F.);
#211=ORIENTED_EDGE('',*,*,#167,.F.);
#212=ORIENTED_EDGE('',*,*,#168,.F.);
#213=ORIENTED_EDGE('',*,*,#159,.F.);
#214=ORIENTED_EDGE('',*,*,#169,.T.);
#215=ORIENTED_EDGE('',*,*,#170,.T.);
#216=ORIENTED_EDGE('',*,*,#171,.T.);
#217=ORIENTED_EDGE('',*,*,#169,.F.);
#218=ORIENTED_EDGE('',*,*,#158,.F.);
#219=ORIENTED_EDGE('',*,*,#172,.F.);
#220=ORIENTED_EDGE('',*,*,#173,.F.);
#221=ORIENTED_EDGE('',*,*,#174,.T.);
#222=ORIENTED_EDGE('',*,*,#172,.T.);
#223=ORIENTED_EDGE('',*,*,#157,.F.);
#224=ORIENTED_EDGE('',*,*,#175,.T.);
#225=ORIENTED_EDGE('',*,*,#156,.F.);
#226=ORIENTED_EDGE('',*,*,#176,.F.);
#227=ORIENTED_EDGE('',*,*,#177,.F.);
#228=ORIENTED_EDGE('',*,*,#178,.F.);
#229=ORIENTED_EDGE('',*,*,#155,.F.);
#230=ORIENTED_EDGE('',*,*,#163,.F.);
#231=ORIENTED_EDGE('',*,*,#179,.T.);
#232=ORIENTED_EDGE('',*,*,#180,.T.);
#233=ORIENTED_EDGE('',*,*,#181,.F.);
#234=ORIENTED_EDGE('',*,*,#179,.F.);
#235=ORIENTED_EDGE('',*,*,#162,.F.);
#236=ORIENTED_EDGE('',*,*,#164,.F.);
#237=ORIENTED_EDGE('',*,*,#182,.F.);
#238=ORIENTED_EDGE('',*,*,#170,.F.);
#239=ORIENTED_EDGE('',*,*,#173,.T.);
#240=ORIENTED_EDGE('',*,*,#174,.F.);
#241=ORIENTED_EDGE('',*,*,#165,.F.);
#242=ORIENTED_EDGE('',*,*,#168,.T.);
#243=ORIENTED_EDGE('',*,*,#183,.F.);
#244=ORIENTED_EDGE('',*,*,#184,.F.);
#245=ORIENTED_EDGE('',*,*,#171,.F.);
#246=ORIENTED_EDGE('',*,*,#185,.F.);
#247=ORIENTED_EDGE('',*,*,#186,.F.);
#248=ORIENTED_EDGE('',*,*,#166,.T.);
#249=ORIENTED_EDGE('',*,*,#187,.T.);
#250=ORIENTED_EDGE('',*,*,#183,.T.);
#251=ORIENTED_EDGE('',*,*,#167,.T.);
#252=ORIENTED_EDGE('',*,*,#186,.T.);
#253=ORIENTED_EDGE('',*,*,#175,.F.);
#254=ORIENTED_EDGE('',*,*,#178,.T.);
#255=ORIENTED_EDGE('',*,*,#188,.F.);
#256=ORIENTED_EDGE('',*,*,#189,.F.);
#257=ORIENTED_EDGE('',*,*,#180,.F.);
#258=ORIENTED_EDGE('',*,*,#190,.F.);
#259=ORIENTED_EDGE('',*,*,#191,.F.);
#260=ORIENTED_EDGE('',*,*,#176,.T.);
#261=ORIENTED_EDGE('',*,*,#192,.T.);
#262=ORIENTED_EDGE('',*,*,#188,.T.);
#263=ORIENTED_EDGE('',*,*,#177,.T.);
#264=ORIENTED_EDGE('',*,*,#191,.T.);
#265=ORIENTED_EDGE('',*,*,#190,.T.);
#266=ORIENTED_EDGE('',*,*,#181,.T.);
#267=ORIENTED_EDGE('',*,*,#189,.T.);
#268=ORIENTED_EDGE('',*,*,#192,.F.);
#269=ORIENTED_EDGE('',*,*,#185,.T.);
#270=ORIENTED_EDGE('',*,*,#182,.T.);
#271=ORIENTED_EDGE('',*,*,#184,.T.);
#272=ORIENTED_EDGE('',*,*,#187,.F.);
#273=PLANE('',#321);
#274=PLANE('',#326);
#275=PLANE('',#327);
#276=PLANE('',#328);
#277=PLANE('',#331);
#278=PLANE('',#332);
#279=PLANE('',#333);
#280=PLANE('',#334);
#281=PLANE('',#335);
#282=PLANE('',#336);
#283=PLANE('',#337);
#284=PLANE('',#338);
#285=PLANE('',#339);
#286=PLANE('',#340);
#287=PLANE('',#341);
#288=PLANE('',#342);
#289=ADVANCED_FACE('',(#17),#273,.T.);
#290=ADVANCED_FACE('',(#18),#15,.T.);
#291=ADVANCED_FACE('',(#19),#274,.T.);
#292=ADVANCED_FACE('',(#20),#275,.F.);
#293=ADVANCED_FACE('',(#21),#276,.T.);
#294=ADVANCED_FACE('',(#22),#16,.F.);
#295=ADVANCED_FACE('',(#23),#277,.T.);
#296=ADVANCED_FACE('',(#24),#278,.F.);
#297=ADVANCED_FACE('',(#25),#279,.T.);
#298=ADVANCED_FACE('',(#26),#280,.F.);
#299=ADVANCED_FACE('',(#27),#281,.F.);
#300=ADVANCED_FACE('',(#28),#282,.F.);
#301=ADVANCED_FACE('',(#29),#283,.T.);
#302=ADVANCED_FACE('',(#30),#284,.F.);
#303=ADVANCED_FACE('',(#31),#285,.F.);
#304=ADVANCED_FACE('',(#32),#286,.T.);
#305=ADVANCED_FACE('',(#33),#287,.T.);
#306=ADVANCED_FACE('',(#34),#288,.T.);
#307=CLOSED_SHELL('',(#289,#290,#291,#292,#293,#294,#295,#296,#297,#298,
#299,#300,#301,#302,#303,#304,#305,#306));
#308=DERIVED_UNIT_ELEMENT(#310,1.);
#309=DERIVED_UNIT_ELEMENT(#513,-3.);
#310=(
MASS_UNIT()
NAMED_UNIT(*)
SI_UNIT(.KILO.,.GRAM.)
);
#311=DERIVED_UNIT((#308,#309));
#312=MEASURE_REPRESENTATION_ITEM('density measure',
POSITIVE_RATIO_MEASURE(7850.),#311);
#313=PROPERTY_DEFINITION_REPRESENTATION(#318,#315);
#314=PROPERTY_DEFINITION_REPRESENTATION(#319,#316);
#315=REPRESENTATION('material name',(#317),#510);
#316=REPRESENTATION('density',(#312),#510);
#317=DESCRIPTIVE_REPRESENTATION_ITEM('Acier','Acier');
#318=PROPERTY_DEFINITION('material property','material name',#520);
#319=PROPERTY_DEFINITION('material property','density of part',#520);
#320=AXIS2_PLACEMENT_3D('',#425,#343,#344);
#321=AXIS2_PLACEMENT_3D('',#426,#345,#346);
#322=AXIS2_PLACEMENT_3D('',#431,#348,#349);
#323=AXIS2_PLACEMENT_3D('',#439,#353,#354);
#324=AXIS2_PLACEMENT_3D('',#443,#357,#358);
#325=AXIS2_PLACEMENT_3D('',#447,#360,#361);
#326=AXIS2_PLACEMENT_3D('',#449,#363,#364);
#327=AXIS2_PLACEMENT_3D('',#453,#367,#368);
#328=AXIS2_PLACEMENT_3D('',#459,#372,#373);
#329=AXIS2_PLACEMENT_3D('',#465,#377,#378);
#330=AXIS2_PLACEMENT_3D('',#468,#380,#381);
#331=AXIS2_PLACEMENT_3D('',#469,#382,#383);
#332=AXIS2_PLACEMENT_3D('',#473,#386,#387);
#333=AXIS2_PLACEMENT_3D('',#479,#391,#392);
#334=AXIS2_PLACEMENT_3D('',#483,#395,#396);
#335=AXIS2_PLACEMENT_3D('',#486,#399,#400);
#336=AXIS2_PLACEMENT_3D('',#490,#403,#404);
#337=AXIS2_PLACEMENT_3D('',#494,#407,#408);
#338=AXIS2_PLACEMENT_3D('',#496,#410,#411);
#339=AXIS2_PLACEMENT_3D('',#500,#414,#415);
#340=AXIS2_PLACEMENT_3D('',#504,#418,#419);
#341=AXIS2_PLACEMENT_3D('',#506,#421,#422);
#342=AXIS2_PLACEMENT_3D('',#507,#423,#424);
#343=DIRECTION('axis',(0.,0.,1.));
#344=DIRECTION('refdir',(1.,0.,0.));
#345=DIRECTION('center_axis',(0.,0.,-1.));
#346=DIRECTION('ref_axis',(-1.,0.,0.));
#347=DIRECTION('',(0.,-1.,0.));
#348=DIRECTION('center_axis',(0.,0.,-1.));
#349=DIRECTION('ref_axis',(1.,0.,0.));
#350=DIRECTION('',(-1.,0.,0.));
#351=DIRECTION('',(0.,1.,0.));
#352=DIRECTION('',(1.,0.,0.));
#353=DIRECTION('center_axis',(0.,0.,1.));
#354=DIRECTION('ref_axis',(1.,0.,0.));
#355=DIRECTION('',(0.,1.,0.));
#356=DIRECTION('',(1.,0.,0.));
#357=DIRECTION('center_axis',(0.,0.,1.));
#358=DIRECTION('ref_axis',(1.,0.,0.));
#359=DIRECTION('',(0.,0.,1.));
#360=DIRECTION('center_axis',(0.,0.,-1.));
#361=DIRECTION('ref_axis',(1.,0.,0.));
#362=DIRECTION('',(0.,0.,-1.));
#363=DIRECTION('center_axis',(1.,5.26311734216264E-17,0.));
#364=DIRECTION('ref_axis',(-5.26311734216264E-17,1.,0.));
#365=DIRECTION('',(5.26311734216264E-17,-1.,0.));
#366=DIRECTION('',(0.,0.,1.));
#367=DIRECTION('center_axis',(0.,-0.342020143325665,0.93969262078591));
#368=DIRECTION('ref_axis',(0.,-0.93969262078591,-0.342020143325665));
#369=DIRECTION('',(-0.32361557711818,-0.889126490715991,-0.323615577118182));
#370=DIRECTION('',(-1.,0.,0.));
#371=DIRECTION('',(-0.323615577118181,0.889126490715991,0.323615577118182));
#372=DIRECTION('center_axis',(-1.,5.26311734216264E-17,0.));
#373=DIRECTION('ref_axis',(-5.26311734216264E-17,-1.,0.));
#374=DIRECTION('',(0.,0.,1.));
#375=DIRECTION('',(5.26311734216264E-17,1.,0.));
#376=DIRECTION('',(0.,0.,-1.));
#377=DIRECTION('center_axis',(0.,0.,1.));
#378=DIRECTION('ref_axis',(1.,0.,0.));
#379=DIRECTION('',(0.,0.,-1.));
#380=DIRECTION('center_axis',(0.,0.,-1.));
#381=DIRECTION('ref_axis',(1.,0.,0.));
#382=DIRECTION('center_axis',(0.,1.,0.));
#383=DIRECTION('ref_axis',(0.,0.,1.));
#384=DIRECTION('',(1.,0.,0.));
#385=DIRECTION('',(0.,0.,1.));
#386=DIRECTION('center_axis',(0.342020143325669,0.,0.939692620785908));
#387=DIRECTION('ref_axis',(0.939692620785908,0.,-0.342020143325669));
#388=DIRECTION('',(0.889126490715988,-0.323615577118185,-0.323615577118185));
#389=DIRECTION('',(0.,-1.,0.));
#390=DIRECTION('',(-0.889126490715988,-0.323615577118185,0.323615577118185));
#391=DIRECTION('center_axis',(0.,-1.,0.));
#392=DIRECTION('ref_axis',(0.,0.,-1.));
#393=DIRECTION('',(-1.,0.,0.));
#394=DIRECTION('',(0.,0.,-1.));
#395=DIRECTION('center_axis',(0.,0.,-1.));
#396=DIRECTION('ref_axis',(-1.,0.,0.));
#397=DIRECTION('',(0.,1.,0.));
#398=DIRECTION('',(1.,0.,0.));
#399=DIRECTION('center_axis',(-0.93969262078591,-0.342020143325665,0.));
#400=DIRECTION('ref_axis',(0.342020143325665,-0.93969262078591,0.));
#401=DIRECTION('',(0.,0.,-1.));
#402=DIRECTION('',(-0.323615577118181,0.889126490715991,-0.323615577118181));
#403=DIRECTION('center_axis',(0.93969262078591,-0.342020143325665,0.));
#404=DIRECTION('ref_axis',(0.342020143325665,0.93969262078591,0.));
#405=DIRECTION('',(-0.323615577118182,-0.889126490715991,0.323615577118181));
#406=DIRECTION('',(0.,0.,1.));
#407=DIRECTION('center_axis',(0.,1.,0.));
#408=DIRECTION('ref_axis',(0.,0.,1.));
#409=DIRECTION('',(1.,0.,0.));
#410=DIRECTION('center_axis',(0.342020143325669,-0.939692620785908,0.));
#411=DIRECTION('ref_axis',(0.939692620785908,0.342020143325669,0.));
#412=DIRECTION('',(0.,0.,-1.));
#413=DIRECTION('',(-0.889126490715988,-0.323615577118185,-0.323615577118185));
#414=DIRECTION('center_axis',(0.342020143325669,0.939692620785908,0.));
#415=DIRECTION('ref_axis',(-0.939692620785909,0.342020143325669,0.));
#416=DIRECTION('',(0.889126490715988,-0.323615577118185,0.323615577118185));
#417=DIRECTION('',(0.,0.,1.));
#418=DIRECTION('center_axis',(-1.,0.,0.));
#419=DIRECTION('ref_axis',(0.,0.,1.));
#420=DIRECTION('',(0.,1.,0.));
#421=DIRECTION('center_axis',(-0.342020143325669,0.,0.939692620785908));
#422=DIRECTION('ref_axis',(0.939692620785908,0.,0.342020143325669));
#423=DIRECTION('center_axis',(0.,0.342020143325665,0.93969262078591));
#424=DIRECTION('ref_axis',(0.,-0.93969262078591,0.342020143325665));
#425=CARTESIAN_POINT('',(0.,0.,0.));
#426=CARTESIAN_POINT('Origin',(2.06,0.94,-0.64));
#427=CARTESIAN_POINT('',(3.,8.63050451610907,-0.64));
#428=CARTESIAN_POINT('',(3.,0.94,-0.64));
#429=CARTESIAN_POINT('',(3.,0.94,-0.64));
#430=CARTESIAN_POINT('',(2.06,5.42101086242752E-17,-0.64));
#431=CARTESIAN_POINT('Origin',(2.06,0.94,-0.64));
#432=CARTESIAN_POINT('',(0.549495483890924,0.,-0.64));
#433=CARTESIAN_POINT('',(2.06,0.,-0.64));
#434=CARTESIAN_POINT('',(0.549495483890924,0.64,-0.64));
#435=CARTESIAN_POINT('',(0.549495483890924,0.94,-0.64));
#436=CARTESIAN_POINT('',(2.06,0.64,-0.64));
#437=CARTESIAN_POINT('',(2.06,0.64,-0.64));
#438=CARTESIAN_POINT('',(2.36,0.94,-0.64));
#439=CARTESIAN_POINT('Origin',(2.06,0.94,-0.64));
#440=CARTESIAN_POINT('',(2.36,8.63050451610907,-0.64));
#441=CARTESIAN_POINT('',(2.36,0.94,-0.64));
#442=CARTESIAN_POINT('',(2.06,8.63050451610907,-0.64));
#443=CARTESIAN_POINT('Origin',(2.06,0.94,-0.64));
#444=CARTESIAN_POINT('',(3.,0.94,0.));
#445=CARTESIAN_POINT('',(3.,0.94,-0.64));
#446=CARTESIAN_POINT('',(2.06,5.42101086242752E-17,0.));
#447=CARTESIAN_POINT('Origin',(2.06,0.94,0.));
#448=CARTESIAN_POINT('',(2.06,1.0842021724855E-16,-0.64));
#449=CARTESIAN_POINT('Origin',(3.,0.94,-0.64));
#450=CARTESIAN_POINT('',(3.,8.63050451610907,1.56795685143251E-18));
#451=CARTESIAN_POINT('',(3.,0.94,0.));
#452=CARTESIAN_POINT('',(3.,8.63050451610907,-0.64));
#453=CARTESIAN_POINT('Origin',(2.36,9.18,-0.44));
#454=CARTESIAN_POINT('',(2.56,9.18,-0.44));
#455=CARTESIAN_POINT('',(2.56,9.18,-0.44));
#456=CARTESIAN_POINT('',(2.8,9.18,-0.44));
#457=CARTESIAN_POINT('',(2.36,9.18,-0.44));
#458=CARTESIAN_POINT('',(3.,8.63050451610907,-0.640000000000001));
#459=CARTESIAN_POINT('Origin',(2.36,0.94,-0.64));
#460=CARTESIAN_POINT('',(2.36,0.94,0.));
#461=CARTESIAN_POINT('',(2.36,0.94,-0.64));
#462=CARTESIAN_POINT('',(2.36,8.63050451610907,-4.06575814682064E-17));
#463=CARTESIAN_POINT('',(2.36,0.94,0.));
#464=CARTESIAN_POINT('',(2.36,8.63050451610907,-0.64));
#465=CARTESIAN_POINT('Origin',(2.06,0.94,-0.64));
#466=CARTESIAN_POINT('',(2.06,0.64,0.));
#467=CARTESIAN_POINT('',(2.06,0.64,-0.64));
#468=CARTESIAN_POINT('Origin',(2.06,0.94,0.));
#469=CARTESIAN_POINT('Origin',(0.,0.64,-0.64));
#470=CARTESIAN_POINT('',(0.549495483890924,0.64,-1.56795685143255E-18));
#471=CARTESIAN_POINT('',(0.,0.64,0.));
#472=CARTESIAN_POINT('',(0.549495483890924,0.64,-0.64));
#473=CARTESIAN_POINT('Origin',(0.,0.64,-0.44));
#474=CARTESIAN_POINT('',(-9.30973787500941E-18,0.2,-0.44));
#475=CARTESIAN_POINT('',(0.,0.2,-0.44));
#476=CARTESIAN_POINT('',(0.,0.44,-0.44));
#477=CARTESIAN_POINT('',(0.,0.64,-0.44));
#478=CARTESIAN_POINT('',(0.549495483890924,0.64,-0.64));
#479=CARTESIAN_POINT('Origin',(0.,0.,-0.64));
#480=CARTESIAN_POINT('',(0.549495483890924,0.,-6.7762635780344E-18));
#481=CARTESIAN_POINT('',(0.,0.,0.));
#482=CARTESIAN_POINT('',(0.549495483890924,0.,-0.64));
#483=CARTESIAN_POINT('Origin',(2.06,0.94,0.));
#484=CARTESIAN_POINT('',(0.549495483890924,0.94,0.));
#485=CARTESIAN_POINT('',(2.06,8.63050451610907,0.));
#486=CARTESIAN_POINT('Origin',(3.,8.63050451610907,-0.64));
#487=CARTESIAN_POINT('',(2.8,9.18,-0.2));
#488=CARTESIAN_POINT('',(2.8,9.18,-0.64));
#489=CARTESIAN_POINT('',(3.,8.63050451610907,0.));
#490=CARTESIAN_POINT('Origin',(2.56,9.18,-0.64));
#491=CARTESIAN_POINT('',(2.56,9.18,-0.2));
#492=CARTESIAN_POINT('',(2.56,9.18,-0.2));
#493=CARTESIAN_POINT('',(2.56,9.18,-0.64));
#494=CARTESIAN_POINT('Origin',(2.36,9.18,-0.64));
#495=CARTESIAN_POINT('',(2.36,9.18,-0.2));
#496=CARTESIAN_POINT('Origin',(0.549495483890924,0.64,-0.64));
#497=CARTESIAN_POINT('',(-1.44560289664734E-16,0.44,-0.2));
#498=CARTESIAN_POINT('',(-1.0842021724855E-16,0.44,-0.64));
#499=CARTESIAN_POINT('',(0.549495483890924,0.64,0.));
#500=CARTESIAN_POINT('Origin',(0.,0.2,-0.64));
#501=CARTESIAN_POINT('',(-4.65486893750471E-18,0.2,-0.2));
#502=CARTESIAN_POINT('',(0.,0.2,-0.2));
#503=CARTESIAN_POINT('',(0.,0.2,-0.64));
#504=CARTESIAN_POINT('Origin',(0.,0.64,-0.64));
#505=CARTESIAN_POINT('',(0.,0.64,-0.2));
#506=CARTESIAN_POINT('Origin',(0.549495483890924,0.94,0.));
#507=CARTESIAN_POINT('Origin',(2.06,8.63050451610907,0.));
#508=UNCERTAINTY_MEASURE_WITH_UNIT(LENGTH_MEASURE(0.01),#512,
'DISTANCE_ACCURACY_VALUE',
'Maximum model space distance between geometric entities at asserted c
onnectivities');
#509=UNCERTAINTY_MEASURE_WITH_UNIT(LENGTH_MEASURE(0.01),#512,
'DISTANCE_ACCURACY_VALUE',
'Maximum model space distance between geometric entities at asserted c
onnectivities');
#510=(
GEOMETRIC_REPRESENTATION_CONTEXT(3)
GLOBAL_UNCERTAINTY_ASSIGNED_CONTEXT((#508))
GLOBAL_UNIT_ASSIGNED_CONTEXT((#512,#514,#515))
REPRESENTATION_CONTEXT('','3D')
);
#511=(
GEOMETRIC_REPRESENTATION_CONTEXT(3)
GLOBAL_UNCERTAINTY_ASSIGNED_CONTEXT((#509))
GLOBAL_UNIT_ASSIGNED_CONTEXT((#512,#514,#515))
REPRESENTATION_CONTEXT('','3D')
);
#512=(
LENGTH_UNIT()
NAMED_UNIT(*)
SI_UNIT(.MILLI.,.METRE.)
);
#513=(
LENGTH_UNIT()
NAMED_UNIT(*)
SI_UNIT($,.METRE.)
);
#514=(
NAMED_UNIT(*)
PLANE_ANGLE_UNIT()
SI_UNIT($,.RADIAN.)
);
#515=(
NAMED_UNIT(*)
SI_UNIT($,.STERADIAN.)
SOLID_ANGLE_UNIT()
);
#516=SHAPE_DEFINITION_REPRESENTATION(#517,#518);
#517=PRODUCT_DEFINITION_SHAPE('',$,#520);
#518=SHAPE_REPRESENTATION('',(#320),#510);
#519=PRODUCT_DEFINITION_CONTEXT('part definition',#524,'design');
#520=PRODUCT_DEFINITION('BB02-HP-PIN-A=6.0,B=0.64',
'BB02-HP-PIN-A=6.0,B=0.64',#521,#519);
#521=PRODUCT_DEFINITION_FORMATION('',$,#526);
#522=PRODUCT_RELATED_PRODUCT_CATEGORY('BB02-HP-PIN-A=6.0,B=0.64',
'BB02-HP-PIN-A=6.0,B=0.64',(#526));
#523=APPLICATION_PROTOCOL_DEFINITION('international standard',
'automotive_design',2009,#524);
#524=APPLICATION_CONTEXT(
'Core Data for Automotive Mechanical Design Process');
#525=PRODUCT_CONTEXT('part definition',#524,'mechanical');
#526=PRODUCT('BB02-HP-PIN-A=6.0,B=0.64','BB02-HP-PIN-A=6.0,B=0.64',$,(#525));
#527=PRESENTATION_STYLE_ASSIGNMENT((#529));
#528=PRESENTATION_STYLE_ASSIGNMENT((#530));
#529=SURFACE_STYLE_USAGE(.BOTH.,#531);
#530=SURFACE_STYLE_USAGE(.BOTH.,#532);
#531=SURFACE_SIDE_STYLE('',(#533));
#532=SURFACE_SIDE_STYLE('',(#534));
#533=SURFACE_STYLE_FILL_AREA(#535);
#534=SURFACE_STYLE_FILL_AREA(#536);
#535=FILL_AREA_STYLE('Acier - Satin\X\E9',(#537));
#536=FILL_AREA_STYLE('Opaque(255,206,127)',(#538));
#537=FILL_AREA_STYLE_COLOUR('Acier - Satin\X\E9',#539);
#538=FILL_AREA_STYLE_COLOUR('Opaque(255,206,127)',#540);
#539=COLOUR_RGB('Acier - Satin\X\E9',0.627450980392157,0.627450980392157,
0.627450980392157);
#540=COLOUR_RGB('Opaque(255,206,127)',1.,0.807843137254902,0.498039215686275);
ENDSEC;
END-ISO-10303-21;
