ISO-10303-21;
HEADER;
/* Generated by software containing ST-Developer
 * from STEP Tools, Inc. (www.steptools.com) 
 */

FILE_DESCRIPTION(
/* description */ (''),
/* implementation_level */ '2;1');

FILE_NAME(
/* name */ 'C_Elec_4x5.4.step',
/* time_stamp */ '2026-02-08T19:08:28+01:00',
/* author */ (''),
/* organization */ (''),
/* preprocessor_version */ 'ST-DEVELOPER v20.1',
/* originating_system */ 'Autodesk Translation Framework v14.24.0.0',
/* authorisation */ '');

FILE_SCHEMA (('AUTOMOTIVE_DESIGN { 1 0 10303 214 3 1 1 }'));
ENDSEC;

DATA;
#10=MECHANICAL_DESIGN_GEOMETRIC_PRESENTATION_REPRESENTATION('',(#17,#18,
#19,#20,#21,#22,#23,#24,#25,#26,#27,#28,#29,#30,#31,#32,#33,#34,#35,#36,
#37,#38,#39),#1550);
#11=SHAPE_REPRESENTATION_RELATIONSHIP('SRR','None',#1557,#12);
#12=ADVANCED_BREP_SHAPE_REPRESENTATION('',(#15),#1549);
#13=OPEN_SHELL('',(#804));
#14=SHELL_BASED_SURFACE_MODEL('Corps2',(#13));
#15=MANIFOLD_SOLID_BREP('Corps1',#805);
#16=FACE_BOUND('',#282,.T.);
#17=STYLED_ITEM('',(#1568),#772);
#18=STYLED_ITEM('',(#1568),#773);
#19=STYLED_ITEM('',(#1568),#774);
#20=STYLED_ITEM('',(#1568),#775);
#21=STYLED_ITEM('',(#1568),#776);
#22=STYLED_ITEM('',(#1568),#777);
#23=STYLED_ITEM('',(#1568),#778);
#24=STYLED_ITEM('',(#1568),#779);
#25=STYLED_ITEM('',(#1568),#780);
#26=STYLED_ITEM('',(#1568),#782);
#27=STYLED_ITEM('',(#1568),#783);
#28=STYLED_ITEM('',(#1568),#784);
#29=STYLED_ITEM('',(#1568),#785);
#30=STYLED_ITEM('',(#1568),#787);
#31=STYLED_ITEM('',(#1568),#788);
#32=STYLED_ITEM('',(#1568),#790);
#33=STYLED_ITEM('',(#1568),#792);
#34=STYLED_ITEM('',(#1568),#795);
#35=STYLED_ITEM('',(#1568),#801);
#36=STYLED_ITEM('',(#1568),#802);
#37=STYLED_ITEM('',(#1568),#803);
#38=STYLED_ITEM('',(#1567),#15);
#39=STYLED_ITEM('',(#1567),#14);
#40=PLANE('',#847);
#41=PLANE('',#848);
#42=PLANE('',#857);
#43=PLANE('',#862);
#44=PLANE('',#863);
#45=PLANE('',#864);
#46=PLANE('',#866);
#47=PLANE('',#872);
#48=PLANE('',#873);
#49=PLANE('',#874);
#50=PLANE('',#875);
#51=PLANE('',#877);
#52=PLANE('',#878);
#53=PLANE('',#879);
#54=PLANE('',#880);
#55=PLANE('',#881);
#56=PLANE('',#882);
#57=PLANE('',#885);
#58=PLANE('',#886);
#59=PLANE('',#887);
#60=PLANE('',#888);
#61=PLANE('',#889);
#62=PLANE('',#890);
#63=PLANE('',#893);
#64=PLANE('',#894);
#65=LINE('',#1279,#136);
#66=LINE('',#1282,#137);
#67=LINE('',#1289,#138);
#68=LINE('',#1292,#139);
#69=LINE('',#1294,#140);
#70=LINE('',#1382,#141);
#71=LINE('',#1386,#142);
#72=LINE('',#1390,#143);
#73=LINE('',#1394,#144);
#74=LINE('',#1398,#145);
#75=LINE('',#1400,#146);
#76=LINE('',#1404,#147);
#77=LINE('',#1407,#148);
#78=LINE('',#1411,#149);
#79=LINE('',#1413,#150);
#80=LINE('',#1414,#151);
#81=LINE('',#1416,#152);
#82=LINE('',#1418,#153);
#83=LINE('',#1420,#154);
#84=LINE('',#1422,#155);
#85=LINE('',#1423,#156);
#86=LINE('',#1426,#157);
#87=LINE('',#1430,#158);
#88=LINE('',#1433,#159);
#89=LINE('',#1437,#160);
#90=LINE('',#1439,#161);
#91=LINE('',#1440,#162);
#92=LINE('',#1442,#163);
#93=LINE('',#1444,#164);
#94=LINE('',#1446,#165);
#95=LINE('',#1447,#166);
#96=LINE('',#1450,#167);
#97=LINE('',#1451,#168);
#98=LINE('',#1455,#169);
#99=LINE('',#1458,#170);
#100=LINE('',#1460,#171);
#101=LINE('',#1461,#172);
#102=LINE('',#1465,#173);
#103=LINE('',#1469,#174);
#104=LINE('',#1473,#175);
#105=LINE('',#1476,#176);
#106=LINE('',#1477,#177);
#107=LINE('',#1480,#178);
#108=LINE('',#1482,#179);
#109=LINE('',#1483,#180);
#110=LINE('',#1486,#181);
#111=LINE('',#1488,#182);
#112=LINE('',#1491,#183);
#113=LINE('',#1493,#184);
#114=LINE('',#1494,#185);
#115=LINE('',#1495,#186);
#116=LINE('',#1496,#187);
#117=LINE('',#1497,#188);
#118=LINE('',#1499,#189);
#119=LINE('',#1502,#190);
#120=LINE('',#1504,#191);
#121=LINE('',#1505,#192);
#122=LINE('',#1507,#193);
#123=LINE('',#1510,#194);
#124=LINE('',#1512,#195);
#125=LINE('',#1513,#196);
#126=LINE('',#1517,#197);
#127=LINE('',#1518,#198);
#128=LINE('',#1522,#199);
#129=LINE('',#1525,#200);
#130=LINE('',#1527,#201);
#131=LINE('',#1529,#202);
#132=LINE('',#1534,#203);
#133=LINE('',#1537,#204);
#134=LINE('',#1539,#205);
#135=LINE('',#1545,#206);
#136=VECTOR('',#944,2.);
#137=VECTOR('',#949,2.);
#138=VECTOR('',#956,1000.);
#139=VECTOR('',#959,1000.);
#140=VECTOR('',#962,1000.);
#141=VECTOR('',#965,1000.);
#142=VECTOR('',#968,1000.);
#143=VECTOR('',#971,1000.);
#144=VECTOR('',#974,1000.);
#145=VECTOR('',#979,1000.);
#146=VECTOR('',#980,1000.);
#147=VECTOR('',#985,1000.);
#148=VECTOR('',#988,1000.);
#149=VECTOR('',#991,1000.);
#150=VECTOR('',#992,1000.);
#151=VECTOR('',#993,1000.);
#152=VECTOR('',#994,1000.);
#153=VECTOR('',#995,1000.);
#154=VECTOR('',#996,1000.);
#155=VECTOR('',#997,1000.);
#156=VECTOR('',#998,1000.);
#157=VECTOR('',#1001,1000.);
#158=VECTOR('',#1006,1000.);
#159=VECTOR('',#1009,1000.);
#160=VECTOR('',#1012,1000.);
#161=VECTOR('',#1013,1000.);
#162=VECTOR('',#1014,1000.);
#163=VECTOR('',#1015,1000.);
#164=VECTOR('',#1016,1000.);
#165=VECTOR('',#1017,1000.);
#166=VECTOR('',#1018,1000.);
#167=VECTOR('',#1021,1000.);
#168=VECTOR('',#1022,1000.);
#169=VECTOR('',#1027,1000.);
#170=VECTOR('',#1030,1000.);
#171=VECTOR('',#1031,1000.);
#172=VECTOR('',#1032,1000.);
#173=VECTOR('',#1037,1000.);
#174=VECTOR('',#1040,1000.);
#175=VECTOR('',#1047,1000.);
#176=VECTOR('',#1050,1000.);
#177=VECTOR('',#1051,1000.);
#178=VECTOR('',#1054,1000.);
#179=VECTOR('',#1055,1000.);
#180=VECTOR('',#1056,1000.);
#181=VECTOR('',#1059,1000.);
#182=VECTOR('',#1060,1000.);
#183=VECTOR('',#1063,1000.);
#184=VECTOR('',#1064,1000.);
#185=VECTOR('',#1065,1000.);
#186=VECTOR('',#1066,1000.);
#187=VECTOR('',#1067,1000.);
#188=VECTOR('',#1068,1000.);
#189=VECTOR('',#1071,1000.);
#190=VECTOR('',#1074,1000.);
#191=VECTOR('',#1075,1000.);
#192=VECTOR('',#1076,1000.);
#193=VECTOR('',#1079,1000.);
#194=VECTOR('',#1082,1000.);
#195=VECTOR('',#1083,1000.);
#196=VECTOR('',#1084,1000.);
#197=VECTOR('',#1089,1000.);
#198=VECTOR('',#1090,1000.);
#199=VECTOR('',#1095,1000.);
#200=VECTOR('',#1100,1000.);
#201=VECTOR('',#1103,1000.);
#202=VECTOR('',#1106,1000.);
#203=VECTOR('',#1113,1000.);
#204=VECTOR('',#1116,1000.);
#205=VECTOR('',#1119,1000.);
#206=VECTOR('',#1126,0.01);
#207=CYLINDRICAL_SURFACE('',#840,2.);
#208=CYLINDRICAL_SURFACE('',#842,2.);
#209=CYLINDRICAL_SURFACE('',#844,0.325);
#210=CYLINDRICAL_SURFACE('',#853,2.2);
#211=CYLINDRICAL_SURFACE('',#855,2.2);
#212=CYLINDRICAL_SURFACE('',#858,2.2);
#213=CYLINDRICAL_SURFACE('',#860,2.2);
#214=CYLINDRICAL_SURFACE('',#867,0.4);
#215=CYLINDRICAL_SURFACE('',#869,0.4);
#216=CYLINDRICAL_SURFACE('',#883,0.325);
#217=CYLINDRICAL_SURFACE('',#891,1.733333333333);
#218=CYLINDRICAL_SURFACE('',#895,0.01);
#219=ELLIPSE('',#823,1.73355682752509,1.73348153105664);
#220=ELLIPSE('',#825,1.73355573716995,1.73348082317712);
#221=ELLIPSE('',#829,1.98181620571732,1.98177764093044);
#222=ELLIPSE('',#831,1.98181620571737,1.98177764092967);
#223=TOROIDAL_SURFACE('',#822,1.733333333333,0.266666666667);
#224=TOROIDAL_SURFACE('',#828,2.,0.2);
#225=TOROIDAL_SURFACE('',#835,1.733333333333,0.266666666667);
#226=FACE_OUTER_BOUND('',#270,.T.);
#227=FACE_OUTER_BOUND('',#271,.T.);
#228=FACE_OUTER_BOUND('',#272,.T.);
#229=FACE_OUTER_BOUND('',#273,.T.);
#230=FACE_OUTER_BOUND('',#274,.T.);
#231=FACE_OUTER_BOUND('',#275,.T.);
#232=FACE_OUTER_BOUND('',#276,.T.);
#233=FACE_OUTER_BOUND('',#277,.T.);
#234=FACE_OUTER_BOUND('',#278,.T.);
#235=FACE_OUTER_BOUND('',#279,.T.);
#236=FACE_OUTER_BOUND('',#280,.T.);
#237=FACE_OUTER_BOUND('',#281,.T.);
#238=FACE_OUTER_BOUND('',#283,.T.);
#239=FACE_OUTER_BOUND('',#284,.T.);
#240=FACE_OUTER_BOUND('',#285,.T.);
#241=FACE_OUTER_BOUND('',#286,.T.);
#242=FACE_OUTER_BOUND('',#287,.T.);
#243=FACE_OUTER_BOUND('',#288,.T.);
#244=FACE_OUTER_BOUND('',#289,.T.);
#245=FACE_OUTER_BOUND('',#290,.T.);
#246=FACE_OUTER_BOUND('',#291,.T.);
#247=FACE_OUTER_BOUND('',#292,.T.);
#248=FACE_OUTER_BOUND('',#293,.T.);
#249=FACE_OUTER_BOUND('',#294,.T.);
#250=FACE_OUTER_BOUND('',#295,.T.);
#251=FACE_OUTER_BOUND('',#296,.T.);
#252=FACE_OUTER_BOUND('',#297,.T.);
#253=FACE_OUTER_BOUND('',#298,.T.);
#254=FACE_OUTER_BOUND('',#299,.T.);
#255=FACE_OUTER_BOUND('',#300,.T.);
#256=FACE_OUTER_BOUND('',#301,.T.);
#257=FACE_OUTER_BOUND('',#302,.T.);
#258=FACE_OUTER_BOUND('',#303,.T.);
#259=FACE_OUTER_BOUND('',#304,.T.);
#260=FACE_OUTER_BOUND('',#305,.T.);
#261=FACE_OUTER_BOUND('',#306,.T.);
#262=FACE_OUTER_BOUND('',#307,.T.);
#263=FACE_OUTER_BOUND('',#308,.T.);
#264=FACE_OUTER_BOUND('',#309,.T.);
#265=FACE_OUTER_BOUND('',#310,.T.);
#266=FACE_OUTER_BOUND('',#311,.T.);
#267=FACE_OUTER_BOUND('',#312,.T.);
#268=FACE_OUTER_BOUND('',#313,.T.);
#269=FACE_OUTER_BOUND('',#314,.T.);
#270=EDGE_LOOP('',(#535,#536,#537,#538));
#271=EDGE_LOOP('',(#539,#540,#541,#542,#543,#544));
#272=EDGE_LOOP('',(#545,#546,#547,#548,#549,#550));
#273=EDGE_LOOP('',(#551,#552,#553,#554));
#274=EDGE_LOOP('',(#555,#556,#557,#558,#559));
#275=EDGE_LOOP('',(#560,#561,#562,#563,#564));
#276=EDGE_LOOP('',(#565,#566,#567,#568,#569,#570));
#277=EDGE_LOOP('',(#571,#572,#573,#574));
#278=EDGE_LOOP('',(#575,#576,#577));
#279=EDGE_LOOP('',(#578,#579,#580,#581));
#280=EDGE_LOOP('',(#582,#583,#584,#585));
#281=EDGE_LOOP('',(#586,#587,#588,#589,#590,#591,#592,#593));
#282=EDGE_LOOP('',(#594));
#283=EDGE_LOOP('',(#595,#596,#597,#598));
#284=EDGE_LOOP('',(#599,#600,#601,#602));
#285=EDGE_LOOP('',(#603,#604,#605,#606,#607,#608,#609,#610,#611,#612));
#286=EDGE_LOOP('',(#613,#614,#615,#616));
#287=EDGE_LOOP('',(#617,#618,#619,#620));
#288=EDGE_LOOP('',(#621,#622,#623,#624,#625,#626,#627,#628,#629,#630));
#289=EDGE_LOOP('',(#631,#632,#633,#634));
#290=EDGE_LOOP('',(#635,#636,#637,#638));
#291=EDGE_LOOP('',(#639,#640,#641,#642));
#292=EDGE_LOOP('',(#643,#644,#645,#646));
#293=EDGE_LOOP('',(#647,#648,#649,#650));
#294=EDGE_LOOP('',(#651,#652,#653,#654));
#295=EDGE_LOOP('',(#655,#656,#657,#658));
#296=EDGE_LOOP('',(#659,#660,#661,#662));
#297=EDGE_LOOP('',(#663,#664,#665,#666,#667,#668,#669,#670,#671,#672,#673,
#674,#675,#676,#677,#678));
#298=EDGE_LOOP('',(#679,#680,#681,#682));
#299=EDGE_LOOP('',(#683,#684,#685,#686));
#300=EDGE_LOOP('',(#687,#688,#689,#690));
#301=EDGE_LOOP('',(#691,#692,#693,#694));
#302=EDGE_LOOP('',(#695,#696,#697,#698,#699,#700,#701,#702));
#303=EDGE_LOOP('',(#703,#704,#705,#706,#707));
#304=EDGE_LOOP('',(#708,#709,#710,#711));
#305=EDGE_LOOP('',(#712,#713,#714,#715,#716,#717,#718,#719));
#306=EDGE_LOOP('',(#720,#721,#722,#723,#724));
#307=EDGE_LOOP('',(#725,#726,#727,#728));
#308=EDGE_LOOP('',(#729,#730,#731,#732));
#309=EDGE_LOOP('',(#733,#734,#735,#736,#737));
#310=EDGE_LOOP('',(#738,#739,#740,#741,#742));
#311=EDGE_LOOP('',(#743,#744,#745,#746));
#312=EDGE_LOOP('',(#747,#748,#749,#750));
#313=EDGE_LOOP('',(#751,#752));
#314=EDGE_LOOP('',(#753,#754,#755,#756));
#315=CIRCLE('',#819,0.019999966521647);
#316=CIRCLE('',#820,2.);
#317=CIRCLE('',#821,0.0200000000002573);
#318=CIRCLE('',#824,1.733333333333);
#319=CIRCLE('',#826,0.266666666667);
#320=CIRCLE('',#827,2.);
#321=CIRCLE('',#830,0.2);
#322=CIRCLE('',#832,2.);
#323=CIRCLE('',#833,0.0199999665217673);
#324=CIRCLE('',#834,0.020000000000258);
#325=CIRCLE('',#836,1.733333333333);
#326=CIRCLE('',#837,0.266666666667);
#327=CIRCLE('',#838,2.);
#328=CIRCLE('',#839,2.);
#329=CIRCLE('',#841,2.);
#330=CIRCLE('',#843,2.);
#331=CIRCLE('',#845,0.325);
#332=CIRCLE('',#846,0.325);
#333=CIRCLE('',#849,2.2);
#334=CIRCLE('',#850,2.2);
#335=CIRCLE('',#851,2.2);
#336=CIRCLE('',#852,2.2);
#337=CIRCLE('',#854,2.2);
#338=CIRCLE('',#856,2.2);
#339=CIRCLE('',#859,2.2);
#340=CIRCLE('',#861,2.2);
#341=CIRCLE('',#865,0.4);
#342=CIRCLE('',#868,0.4);
#343=CIRCLE('',#870,0.4);
#344=CIRCLE('',#871,0.4);
#345=CIRCLE('',#876,0.325);
#346=CIRCLE('',#884,0.325);
#347=CIRCLE('',#892,1.733333333333);
#348=CIRCLE('',#896,0.01);
#349=CIRCLE('',#897,0.01);
#350=B_SPLINE_CURVE_WITH_KNOTS('',13,(#1174,#1175,#1176,#1177,#1178,#1179,
#1180,#1181,#1182,#1183,#1184,#1185,#1186,#1187),.UNSPECIFIED.,.F.,.F.,
(14,14),(0.,0.5),.UNSPECIFIED.);
#351=B_SPLINE_CURVE_WITH_KNOTS('',13,(#1209,#1210,#1211,#1212,#1213,#1214,
#1215,#1216,#1217,#1218,#1219,#1220,#1221,#1222),.UNSPECIFIED.,.F.,.F.,
(14,14),(0.,0.5),.UNSPECIFIED.);
#352=VERTEX_POINT('',#1172);
#353=VERTEX_POINT('',#1173);
#354=VERTEX_POINT('',#1188);
#355=VERTEX_POINT('',#1190);
#356=VERTEX_POINT('',#1194);
#357=VERTEX_POINT('',#1195);
#358=VERTEX_POINT('',#1197);
#359=VERTEX_POINT('',#1200);
#360=VERTEX_POINT('',#1205);
#361=VERTEX_POINT('',#1207);
#362=VERTEX_POINT('',#1265);
#363=VERTEX_POINT('',#1266);
#364=VERTEX_POINT('',#1271);
#365=VERTEX_POINT('',#1273);
#366=VERTEX_POINT('',#1275);
#367=VERTEX_POINT('',#1285);
#368=VERTEX_POINT('',#1286);
#369=VERTEX_POINT('',#1288);
#370=VERTEX_POINT('',#1290);
#371=VERTEX_POINT('',#1380);
#372=VERTEX_POINT('',#1381);
#373=VERTEX_POINT('',#1383);
#374=VERTEX_POINT('',#1385);
#375=VERTEX_POINT('',#1387);
#376=VERTEX_POINT('',#1389);
#377=VERTEX_POINT('',#1391);
#378=VERTEX_POINT('',#1393);
#379=VERTEX_POINT('',#1397);
#380=VERTEX_POINT('',#1399);
#381=VERTEX_POINT('',#1403);
#382=VERTEX_POINT('',#1405);
#383=VERTEX_POINT('',#1409);
#384=VERTEX_POINT('',#1410);
#385=VERTEX_POINT('',#1412);
#386=VERTEX_POINT('',#1415);
#387=VERTEX_POINT('',#1417);
#388=VERTEX_POINT('',#1419);
#389=VERTEX_POINT('',#1421);
#390=VERTEX_POINT('',#1425);
#391=VERTEX_POINT('',#1429);
#392=VERTEX_POINT('',#1431);
#393=VERTEX_POINT('',#1435);
#394=VERTEX_POINT('',#1436);
#395=VERTEX_POINT('',#1438);
#396=VERTEX_POINT('',#1441);
#397=VERTEX_POINT('',#1443);
#398=VERTEX_POINT('',#1445);
#399=VERTEX_POINT('',#1449);
#400=VERTEX_POINT('',#1453);
#401=VERTEX_POINT('',#1457);
#402=VERTEX_POINT('',#1459);
#403=VERTEX_POINT('',#1463);
#404=VERTEX_POINT('',#1467);
#405=VERTEX_POINT('',#1468);
#406=VERTEX_POINT('',#1475);
#407=VERTEX_POINT('',#1479);
#408=VERTEX_POINT('',#1481);
#409=VERTEX_POINT('',#1485);
#410=VERTEX_POINT('',#1487);
#411=VERTEX_POINT('',#1489);
#412=VERTEX_POINT('',#1492);
#413=VERTEX_POINT('',#1501);
#414=VERTEX_POINT('',#1503);
#415=VERTEX_POINT('',#1509);
#416=VERTEX_POINT('',#1511);
#417=VERTEX_POINT('',#1516);
#418=VERTEX_POINT('',#1520);
#419=VERTEX_POINT('',#1533);
#420=VERTEX_POINT('',#1535);
#421=VERTEX_POINT('',#1542);
#422=VERTEX_POINT('',#1544);
#423=EDGE_CURVE('',#352,#353,#350,.T.);
#424=EDGE_CURVE('',#353,#354,#315,.T.);
#425=EDGE_CURVE('',#355,#354,#316,.T.);
#426=EDGE_CURVE('',#352,#355,#317,.T.);
#427=EDGE_CURVE('',#356,#357,#219,.T.);
#428=EDGE_CURVE('',#358,#357,#318,.T.);
#429=EDGE_CURVE('',#358,#356,#220,.T.);
#430=EDGE_CURVE('',#356,#359,#319,.T.);
#431=EDGE_CURVE('',#359,#359,#320,.T.);
#432=EDGE_CURVE('',#353,#352,#221,.T.);
#433=EDGE_CURVE('',#352,#360,#321,.T.);
#434=EDGE_CURVE('',#361,#360,#222,.T.);
#435=EDGE_CURVE('',#360,#361,#351,.T.);
#436=EDGE_CURVE('',#362,#363,#322,.T.);
#437=EDGE_CURVE('',#363,#361,#323,.T.);
#438=EDGE_CURVE('',#362,#360,#324,.T.);
#439=EDGE_CURVE('',#364,#364,#325,.T.);
#440=EDGE_CURVE('',#364,#365,#326,.T.);
#441=EDGE_CURVE('',#366,#365,#327,.T.);
#442=EDGE_CURVE('',#365,#366,#328,.T.);
#443=EDGE_CURVE('',#359,#355,#65,.T.);
#444=EDGE_CURVE('',#354,#355,#329,.T.);
#445=EDGE_CURVE('',#362,#366,#66,.T.);
#446=EDGE_CURVE('',#363,#362,#330,.T.);
#447=EDGE_CURVE('',#367,#368,#331,.T.);
#448=EDGE_CURVE('',#368,#369,#67,.T.);
#449=EDGE_CURVE('',#369,#370,#332,.T.);
#450=EDGE_CURVE('',#370,#367,#68,.T.);
#451=EDGE_CURVE('',#357,#358,#69,.T.);
#452=EDGE_CURVE('',#371,#372,#70,.T.);
#453=EDGE_CURVE('',#372,#373,#333,.T.);
#454=EDGE_CURVE('',#373,#374,#71,.T.);
#455=EDGE_CURVE('',#374,#375,#334,.T.);
#456=EDGE_CURVE('',#375,#376,#72,.T.);
#457=EDGE_CURVE('',#376,#377,#335,.T.);
#458=EDGE_CURVE('',#377,#378,#73,.T.);
#459=EDGE_CURVE('',#378,#371,#336,.T.);
#460=EDGE_CURVE('',#373,#379,#74,.T.);
#461=EDGE_CURVE('',#372,#380,#75,.T.);
#462=EDGE_CURVE('',#379,#380,#337,.T.);
#463=EDGE_CURVE('',#381,#378,#76,.T.);
#464=EDGE_CURVE('',#382,#381,#338,.T.);
#465=EDGE_CURVE('',#382,#371,#77,.T.);
#466=EDGE_CURVE('',#383,#384,#78,.T.);
#467=EDGE_CURVE('',#385,#384,#79,.T.);
#468=EDGE_CURVE('',#381,#385,#80,.T.);
#469=EDGE_CURVE('',#386,#377,#81,.T.);
#470=EDGE_CURVE('',#387,#386,#82,.T.);
#471=EDGE_CURVE('',#388,#387,#83,.T.);
#472=EDGE_CURVE('',#388,#389,#84,.T.);
#473=EDGE_CURVE('',#383,#389,#85,.T.);
#474=EDGE_CURVE('',#376,#390,#86,.T.);
#475=EDGE_CURVE('',#386,#390,#339,.T.);
#476=EDGE_CURVE('',#391,#374,#87,.T.);
#477=EDGE_CURVE('',#392,#391,#340,.T.);
#478=EDGE_CURVE('',#392,#375,#88,.T.);
#479=EDGE_CURVE('',#393,#394,#89,.T.);
#480=EDGE_CURVE('',#393,#395,#90,.T.);
#481=EDGE_CURVE('',#391,#395,#91,.T.);
#482=EDGE_CURVE('',#396,#379,#92,.T.);
#483=EDGE_CURVE('',#396,#397,#93,.T.);
#484=EDGE_CURVE('',#398,#397,#94,.T.);
#485=EDGE_CURVE('',#394,#398,#95,.T.);
#486=EDGE_CURVE('',#399,#396,#96,.T.);
#487=EDGE_CURVE('',#380,#399,#97,.T.);
#488=EDGE_CURVE('',#385,#400,#341,.T.);
#489=EDGE_CURVE('',#400,#382,#98,.T.);
#490=EDGE_CURVE('',#401,#383,#99,.T.);
#491=EDGE_CURVE('',#389,#402,#100,.T.);
#492=EDGE_CURVE('',#402,#401,#101,.T.);
#493=EDGE_CURVE('',#384,#403,#342,.T.);
#494=EDGE_CURVE('',#403,#400,#102,.T.);
#495=EDGE_CURVE('',#404,#405,#103,.T.);
#496=EDGE_CURVE('',#405,#388,#343,.T.);
#497=EDGE_CURVE('',#387,#404,#344,.T.);
#498=EDGE_CURVE('',#390,#404,#104,.T.);
#499=EDGE_CURVE('',#395,#406,#105,.T.);
#500=EDGE_CURVE('',#406,#392,#106,.T.);
#501=EDGE_CURVE('',#407,#394,#107,.T.);
#502=EDGE_CURVE('',#398,#408,#108,.T.);
#503=EDGE_CURVE('',#408,#407,#109,.T.);
#504=EDGE_CURVE('',#393,#409,#110,.T.);
#505=EDGE_CURVE('',#410,#394,#111,.T.);
#506=EDGE_CURVE('',#411,#410,#345,.T.);
#507=EDGE_CURVE('',#411,#398,#112,.T.);
#508=EDGE_CURVE('',#412,#397,#113,.T.);
#509=EDGE_CURVE('',#403,#412,#114,.T.);
#510=EDGE_CURVE('',#368,#383,#115,.T.);
#511=EDGE_CURVE('',#367,#389,#116,.T.);
#512=EDGE_CURVE('',#409,#405,#117,.T.);
#513=EDGE_CURVE('',#412,#399,#118,.T.);
#514=EDGE_CURVE('',#401,#413,#119,.T.);
#515=EDGE_CURVE('',#402,#414,#120,.T.);
#516=EDGE_CURVE('',#414,#413,#121,.T.);
#517=EDGE_CURVE('',#406,#409,#122,.T.);
#518=EDGE_CURVE('',#407,#415,#123,.T.);
#519=EDGE_CURVE('',#408,#416,#124,.T.);
#520=EDGE_CURVE('',#416,#415,#125,.T.);
#521=EDGE_CURVE('',#410,#417,#126,.T.);
#522=EDGE_CURVE('',#417,#415,#127,.T.);
#523=EDGE_CURVE('',#417,#418,#346,.T.);
#524=EDGE_CURVE('',#418,#411,#128,.T.);
#525=EDGE_CURVE('',#369,#413,#129,.T.);
#526=EDGE_CURVE('',#418,#416,#130,.T.);
#527=EDGE_CURVE('',#370,#414,#131,.T.);
#528=EDGE_CURVE('',#419,#357,#132,.T.);
#529=EDGE_CURVE('',#420,#419,#347,.T.);
#530=EDGE_CURVE('',#420,#358,#133,.T.);
#531=EDGE_CURVE('',#419,#420,#134,.T.);
#532=EDGE_CURVE('',#421,#421,#348,.T.);
#533=EDGE_CURVE('',#421,#422,#135,.T.);
#534=EDGE_CURVE('',#422,#422,#349,.T.);
#535=ORIENTED_EDGE('',*,*,#423,.T.);
#536=ORIENTED_EDGE('',*,*,#424,.T.);
#537=ORIENTED_EDGE('',*,*,#425,.F.);
#538=ORIENTED_EDGE('',*,*,#426,.F.);
#539=ORIENTED_EDGE('',*,*,#427,.T.);
#540=ORIENTED_EDGE('',*,*,#428,.F.);
#541=ORIENTED_EDGE('',*,*,#429,.T.);
#542=ORIENTED_EDGE('',*,*,#430,.T.);
#543=ORIENTED_EDGE('',*,*,#431,.F.);
#544=ORIENTED_EDGE('',*,*,#430,.F.);
#545=ORIENTED_EDGE('',*,*,#432,.F.);
#546=ORIENTED_EDGE('',*,*,#423,.F.);
#547=ORIENTED_EDGE('',*,*,#433,.T.);
#548=ORIENTED_EDGE('',*,*,#434,.F.);
#549=ORIENTED_EDGE('',*,*,#435,.F.);
#550=ORIENTED_EDGE('',*,*,#433,.F.);
#551=ORIENTED_EDGE('',*,*,#436,.T.);
#552=ORIENTED_EDGE('',*,*,#437,.T.);
#553=ORIENTED_EDGE('',*,*,#434,.T.);
#554=ORIENTED_EDGE('',*,*,#438,.F.);
#555=ORIENTED_EDGE('',*,*,#439,.T.);
#556=ORIENTED_EDGE('',*,*,#440,.T.);
#557=ORIENTED_EDGE('',*,*,#441,.F.);
#558=ORIENTED_EDGE('',*,*,#442,.F.);
#559=ORIENTED_EDGE('',*,*,#440,.F.);
#560=ORIENTED_EDGE('',*,*,#431,.T.);
#561=ORIENTED_EDGE('',*,*,#443,.T.);
#562=ORIENTED_EDGE('',*,*,#425,.T.);
#563=ORIENTED_EDGE('',*,*,#444,.T.);
#564=ORIENTED_EDGE('',*,*,#443,.F.);
#565=ORIENTED_EDGE('',*,*,#436,.F.);
#566=ORIENTED_EDGE('',*,*,#445,.T.);
#567=ORIENTED_EDGE('',*,*,#441,.T.);
#568=ORIENTED_EDGE('',*,*,#442,.T.);
#569=ORIENTED_EDGE('',*,*,#445,.F.);
#570=ORIENTED_EDGE('',*,*,#446,.F.);
#571=ORIENTED_EDGE('',*,*,#447,.T.);
#572=ORIENTED_EDGE('',*,*,#448,.T.);
#573=ORIENTED_EDGE('',*,*,#449,.T.);
#574=ORIENTED_EDGE('',*,*,#450,.T.);
#575=ORIENTED_EDGE('',*,*,#451,.F.);
#576=ORIENTED_EDGE('',*,*,#427,.F.);
#577=ORIENTED_EDGE('',*,*,#429,.F.);
#578=ORIENTED_EDGE('',*,*,#424,.F.);
#579=ORIENTED_EDGE('',*,*,#432,.T.);
#580=ORIENTED_EDGE('',*,*,#426,.T.);
#581=ORIENTED_EDGE('',*,*,#444,.F.);
#582=ORIENTED_EDGE('',*,*,#437,.F.);
#583=ORIENTED_EDGE('',*,*,#446,.T.);
#584=ORIENTED_EDGE('',*,*,#438,.T.);
#585=ORIENTED_EDGE('',*,*,#435,.T.);
#586=ORIENTED_EDGE('',*,*,#452,.T.);
#587=ORIENTED_EDGE('',*,*,#453,.T.);
#588=ORIENTED_EDGE('',*,*,#454,.T.);
#589=ORIENTED_EDGE('',*,*,#455,.T.);
#590=ORIENTED_EDGE('',*,*,#456,.T.);
#591=ORIENTED_EDGE('',*,*,#457,.T.);
#592=ORIENTED_EDGE('',*,*,#458,.T.);
#593=ORIENTED_EDGE('',*,*,#459,.T.);
#594=ORIENTED_EDGE('',*,*,#439,.F.);
#595=ORIENTED_EDGE('',*,*,#460,.F.);
#596=ORIENTED_EDGE('',*,*,#453,.F.);
#597=ORIENTED_EDGE('',*,*,#461,.T.);
#598=ORIENTED_EDGE('',*,*,#462,.F.);
#599=ORIENTED_EDGE('',*,*,#459,.F.);
#600=ORIENTED_EDGE('',*,*,#463,.F.);
#601=ORIENTED_EDGE('',*,*,#464,.F.);
#602=ORIENTED_EDGE('',*,*,#465,.T.);
#603=ORIENTED_EDGE('',*,*,#466,.T.);
#604=ORIENTED_EDGE('',*,*,#467,.F.);
#605=ORIENTED_EDGE('',*,*,#468,.F.);
#606=ORIENTED_EDGE('',*,*,#463,.T.);
#607=ORIENTED_EDGE('',*,*,#458,.F.);
#608=ORIENTED_EDGE('',*,*,#469,.F.);
#609=ORIENTED_EDGE('',*,*,#470,.F.);
#610=ORIENTED_EDGE('',*,*,#471,.F.);
#611=ORIENTED_EDGE('',*,*,#472,.T.);
#612=ORIENTED_EDGE('',*,*,#473,.F.);
#613=ORIENTED_EDGE('',*,*,#474,.T.);
#614=ORIENTED_EDGE('',*,*,#475,.F.);
#615=ORIENTED_EDGE('',*,*,#469,.T.);
#616=ORIENTED_EDGE('',*,*,#457,.F.);
#617=ORIENTED_EDGE('',*,*,#476,.F.);
#618=ORIENTED_EDGE('',*,*,#477,.F.);
#619=ORIENTED_EDGE('',*,*,#478,.T.);
#620=ORIENTED_EDGE('',*,*,#455,.F.);
#621=ORIENTED_EDGE('',*,*,#479,.F.);
#622=ORIENTED_EDGE('',*,*,#480,.T.);
#623=ORIENTED_EDGE('',*,*,#481,.F.);
#624=ORIENTED_EDGE('',*,*,#476,.T.);
#625=ORIENTED_EDGE('',*,*,#454,.F.);
#626=ORIENTED_EDGE('',*,*,#460,.T.);
#627=ORIENTED_EDGE('',*,*,#482,.F.);
#628=ORIENTED_EDGE('',*,*,#483,.T.);
#629=ORIENTED_EDGE('',*,*,#484,.F.);
#630=ORIENTED_EDGE('',*,*,#485,.F.);
#631=ORIENTED_EDGE('',*,*,#486,.T.);
#632=ORIENTED_EDGE('',*,*,#482,.T.);
#633=ORIENTED_EDGE('',*,*,#462,.T.);
#634=ORIENTED_EDGE('',*,*,#487,.T.);
#635=ORIENTED_EDGE('',*,*,#488,.T.);
#636=ORIENTED_EDGE('',*,*,#489,.T.);
#637=ORIENTED_EDGE('',*,*,#464,.T.);
#638=ORIENTED_EDGE('',*,*,#468,.T.);
#639=ORIENTED_EDGE('',*,*,#490,.T.);
#640=ORIENTED_EDGE('',*,*,#473,.T.);
#641=ORIENTED_EDGE('',*,*,#491,.T.);
#642=ORIENTED_EDGE('',*,*,#492,.T.);
#643=ORIENTED_EDGE('',*,*,#467,.T.);
#644=ORIENTED_EDGE('',*,*,#493,.T.);
#645=ORIENTED_EDGE('',*,*,#494,.T.);
#646=ORIENTED_EDGE('',*,*,#488,.F.);
#647=ORIENTED_EDGE('',*,*,#495,.T.);
#648=ORIENTED_EDGE('',*,*,#496,.T.);
#649=ORIENTED_EDGE('',*,*,#471,.T.);
#650=ORIENTED_EDGE('',*,*,#497,.T.);
#651=ORIENTED_EDGE('',*,*,#475,.T.);
#652=ORIENTED_EDGE('',*,*,#498,.T.);
#653=ORIENTED_EDGE('',*,*,#497,.F.);
#654=ORIENTED_EDGE('',*,*,#470,.T.);
#655=ORIENTED_EDGE('',*,*,#481,.T.);
#656=ORIENTED_EDGE('',*,*,#499,.T.);
#657=ORIENTED_EDGE('',*,*,#500,.T.);
#658=ORIENTED_EDGE('',*,*,#477,.T.);
#659=ORIENTED_EDGE('',*,*,#501,.T.);
#660=ORIENTED_EDGE('',*,*,#485,.T.);
#661=ORIENTED_EDGE('',*,*,#502,.T.);
#662=ORIENTED_EDGE('',*,*,#503,.T.);
#663=ORIENTED_EDGE('',*,*,#504,.F.);
#664=ORIENTED_EDGE('',*,*,#479,.T.);
#665=ORIENTED_EDGE('',*,*,#505,.F.);
#666=ORIENTED_EDGE('',*,*,#506,.F.);
#667=ORIENTED_EDGE('',*,*,#507,.T.);
#668=ORIENTED_EDGE('',*,*,#484,.T.);
#669=ORIENTED_EDGE('',*,*,#508,.F.);
#670=ORIENTED_EDGE('',*,*,#509,.F.);
#671=ORIENTED_EDGE('',*,*,#493,.F.);
#672=ORIENTED_EDGE('',*,*,#466,.F.);
#673=ORIENTED_EDGE('',*,*,#510,.F.);
#674=ORIENTED_EDGE('',*,*,#447,.F.);
#675=ORIENTED_EDGE('',*,*,#511,.T.);
#676=ORIENTED_EDGE('',*,*,#472,.F.);
#677=ORIENTED_EDGE('',*,*,#496,.F.);
#678=ORIENTED_EDGE('',*,*,#512,.F.);
#679=ORIENTED_EDGE('',*,*,#486,.F.);
#680=ORIENTED_EDGE('',*,*,#513,.F.);
#681=ORIENTED_EDGE('',*,*,#508,.T.);
#682=ORIENTED_EDGE('',*,*,#483,.F.);
#683=ORIENTED_EDGE('',*,*,#514,.F.);
#684=ORIENTED_EDGE('',*,*,#492,.F.);
#685=ORIENTED_EDGE('',*,*,#515,.T.);
#686=ORIENTED_EDGE('',*,*,#516,.T.);
#687=ORIENTED_EDGE('',*,*,#499,.F.);
#688=ORIENTED_EDGE('',*,*,#480,.F.);
#689=ORIENTED_EDGE('',*,*,#504,.T.);
#690=ORIENTED_EDGE('',*,*,#517,.F.);
#691=ORIENTED_EDGE('',*,*,#518,.F.);
#692=ORIENTED_EDGE('',*,*,#503,.F.);
#693=ORIENTED_EDGE('',*,*,#519,.T.);
#694=ORIENTED_EDGE('',*,*,#520,.T.);
#695=ORIENTED_EDGE('',*,*,#474,.F.);
#696=ORIENTED_EDGE('',*,*,#456,.F.);
#697=ORIENTED_EDGE('',*,*,#478,.F.);
#698=ORIENTED_EDGE('',*,*,#500,.F.);
#699=ORIENTED_EDGE('',*,*,#517,.T.);
#700=ORIENTED_EDGE('',*,*,#512,.T.);
#701=ORIENTED_EDGE('',*,*,#495,.F.);
#702=ORIENTED_EDGE('',*,*,#498,.F.);
#703=ORIENTED_EDGE('',*,*,#521,.F.);
#704=ORIENTED_EDGE('',*,*,#505,.T.);
#705=ORIENTED_EDGE('',*,*,#501,.F.);
#706=ORIENTED_EDGE('',*,*,#518,.T.);
#707=ORIENTED_EDGE('',*,*,#522,.F.);
#708=ORIENTED_EDGE('',*,*,#506,.T.);
#709=ORIENTED_EDGE('',*,*,#521,.T.);
#710=ORIENTED_EDGE('',*,*,#523,.T.);
#711=ORIENTED_EDGE('',*,*,#524,.T.);
#712=ORIENTED_EDGE('',*,*,#487,.F.);
#713=ORIENTED_EDGE('',*,*,#461,.F.);
#714=ORIENTED_EDGE('',*,*,#452,.F.);
#715=ORIENTED_EDGE('',*,*,#465,.F.);
#716=ORIENTED_EDGE('',*,*,#489,.F.);
#717=ORIENTED_EDGE('',*,*,#494,.F.);
#718=ORIENTED_EDGE('',*,*,#509,.T.);
#719=ORIENTED_EDGE('',*,*,#513,.T.);
#720=ORIENTED_EDGE('',*,*,#448,.F.);
#721=ORIENTED_EDGE('',*,*,#510,.T.);
#722=ORIENTED_EDGE('',*,*,#490,.F.);
#723=ORIENTED_EDGE('',*,*,#514,.T.);
#724=ORIENTED_EDGE('',*,*,#525,.F.);
#725=ORIENTED_EDGE('',*,*,#523,.F.);
#726=ORIENTED_EDGE('',*,*,#522,.T.);
#727=ORIENTED_EDGE('',*,*,#520,.F.);
#728=ORIENTED_EDGE('',*,*,#526,.F.);
#729=ORIENTED_EDGE('',*,*,#449,.F.);
#730=ORIENTED_EDGE('',*,*,#525,.T.);
#731=ORIENTED_EDGE('',*,*,#516,.F.);
#732=ORIENTED_EDGE('',*,*,#527,.F.);
#733=ORIENTED_EDGE('',*,*,#519,.F.);
#734=ORIENTED_EDGE('',*,*,#502,.F.);
#735=ORIENTED_EDGE('',*,*,#507,.F.);
#736=ORIENTED_EDGE('',*,*,#524,.F.);
#737=ORIENTED_EDGE('',*,*,#526,.T.);
#738=ORIENTED_EDGE('',*,*,#515,.F.);
#739=ORIENTED_EDGE('',*,*,#491,.F.);
#740=ORIENTED_EDGE('',*,*,#511,.F.);
#741=ORIENTED_EDGE('',*,*,#450,.F.);
#742=ORIENTED_EDGE('',*,*,#527,.T.);
#743=ORIENTED_EDGE('',*,*,#428,.T.);
#744=ORIENTED_EDGE('',*,*,#528,.F.);
#745=ORIENTED_EDGE('',*,*,#529,.F.);
#746=ORIENTED_EDGE('',*,*,#530,.T.);
#747=ORIENTED_EDGE('',*,*,#451,.T.);
#748=ORIENTED_EDGE('',*,*,#530,.F.);
#749=ORIENTED_EDGE('',*,*,#531,.F.);
#750=ORIENTED_EDGE('',*,*,#528,.T.);
#751=ORIENTED_EDGE('',*,*,#529,.T.);
#752=ORIENTED_EDGE('',*,*,#531,.T.);
#753=ORIENTED_EDGE('',*,*,#532,.T.);
#754=ORIENTED_EDGE('',*,*,#533,.T.);
#755=ORIENTED_EDGE('',*,*,#534,.T.);
#756=ORIENTED_EDGE('',*,*,#533,.F.);
#757=(
BOUNDED_SURFACE()
B_SPLINE_SURFACE(2,13,((#1130,#1131,#1132,#1133,#1134,#1135,#1136,#1137,
#1138,#1139,#1140,#1141,#1142,#1143),(#1144,#1145,#1146,#1147,#1148,#1149,
#1150,#1151,#1152,#1153,#1154,#1155,#1156,#1157),(#1158,#1159,#1160,#1161,
#1162,#1163,#1164,#1165,#1166,#1167,#1168,#1169,#1170,#1171)),
 .UNSPECIFIED.,.F.,.T.,.F.)
B_SPLINE_SURFACE_WITH_KNOTS((3,3),(14,14),(0.,12.566370614359),(0.,12.566370614359),
 .UNSPECIFIED.)
GEOMETRIC_REPRESENTATION_ITEM()
RATIONAL_B_SPLINE_SURFACE(((1.,1.,1.,1.,1.,1.,1.,1.,1.,1.,1.,1.,1.,1.),
(0.738548945876,0.738548945876,0.738548945877,0.738548945874,0.73854894588,
0.73854894587,0.738548945882,0.738548945871,0.73854894588,0.738548945874,
0.738548945877,0.738548945876,0.738548945876,0.738548945876),(1.,1.,1.,
1.,1.,1.,1.,1.,1.,1.,1.,1.,1.,1.)))
REPRESENTATION_ITEM('')
SURFACE()
);
#758=(
BOUNDED_SURFACE()
B_SPLINE_SURFACE(2,13,((#1223,#1224,#1225,#1226,#1227,#1228,#1229,#1230,
#1231,#1232,#1233,#1234,#1235,#1236),(#1237,#1238,#1239,#1240,#1241,#1242,
#1243,#1244,#1245,#1246,#1247,#1248,#1249,#1250),(#1251,#1252,#1253,#1254,
#1255,#1256,#1257,#1258,#1259,#1260,#1261,#1262,#1263,#1264)),
 .UNSPECIFIED.,.F.,.T.,.F.)
B_SPLINE_SURFACE_WITH_KNOTS((3,3),(14,14),(0.,12.566370614359),(0.,12.566370614359),
 .UNSPECIFIED.)
GEOMETRIC_REPRESENTATION_ITEM()
RATIONAL_B_SPLINE_SURFACE(((1.,1.,1.,1.,1.,1.,1.,1.,1.,1.,1.,1.,1.,1.),
(0.738548945876,0.738548945876,0.738548945877,0.738548945873,0.738548945881,
0.73854894587,0.738548945883,0.73854894587,0.73854894588,0.738548945874,
0.738548945877,0.738548945876,0.738548945876,0.738548945876),(1.,1.,1.,
1.,1.,1.,1.,1.,1.,1.,1.,1.,1.,1.)))
REPRESENTATION_ITEM('')
SURFACE()
);
#759=(
BOUNDED_SURFACE()
B_SPLINE_SURFACE(2,13,((#1295,#1296,#1297,#1298,#1299,#1300,#1301,#1302,
#1303,#1304,#1305,#1306,#1307,#1308),(#1309,#1310,#1311,#1312,#1313,#1314,
#1315,#1316,#1317,#1318,#1319,#1320,#1321,#1322),(#1323,#1324,#1325,#1326,
#1327,#1328,#1329,#1330,#1331,#1332,#1333,#1334,#1335,#1336)),
 .UNSPECIFIED.,.F.,.T.,.F.)
B_SPLINE_SURFACE_WITH_KNOTS((3,3),(14,14),(0.,12.566370614359),(0.,12.566370614359),
 .UNSPECIFIED.)
GEOMETRIC_REPRESENTATION_ITEM()
RATIONAL_B_SPLINE_SURFACE(((1.,1.,1.,1.,1.,1.,1.,1.,1.,1.,1.,1.,1.,1.),
(0.738548945876,0.738548945876,0.738548945877,0.738548945874,0.73854894588,
0.73854894587,0.738548945882,0.738548945871,0.73854894588,0.738548945874,
0.738548945877,0.738548945876,0.738548945876,0.738548945876),(1.,1.,1.,
1.,1.,1.,1.,1.,1.,1.,1.,1.,1.,1.)))
REPRESENTATION_ITEM('')
SURFACE()
);
#760=(
BOUNDED_SURFACE()
B_SPLINE_SURFACE(2,13,((#1337,#1338,#1339,#1340,#1341,#1342,#1343,#1344,
#1345,#1346,#1347,#1348,#1349,#1350),(#1351,#1352,#1353,#1354,#1355,#1356,
#1357,#1358,#1359,#1360,#1361,#1362,#1363,#1364),(#1365,#1366,#1367,#1368,
#1369,#1370,#1371,#1372,#1373,#1374,#1375,#1376,#1377,#1378)),
 .UNSPECIFIED.,.F.,.T.,.F.)
B_SPLINE_SURFACE_WITH_KNOTS((3,3),(14,14),(0.,12.566370614359),(0.,12.566370614359),
 .UNSPECIFIED.)
GEOMETRIC_REPRESENTATION_ITEM()
RATIONAL_B_SPLINE_SURFACE(((1.,1.,1.,1.,1.,1.,1.,1.,1.,1.,1.,1.,1.,1.),
(0.738548945876,0.738548945876,0.738548945877,0.738548945873,0.738548945881,
0.73854894587,0.738548945883,0.73854894587,0.73854894588,0.738548945874,
0.738548945877,0.738548945876,0.738548945876,0.738548945876),(1.,1.,1.,
1.,1.,1.,1.,1.,1.,1.,1.,1.,1.,1.)))
REPRESENTATION_ITEM('')
SURFACE()
);
#761=ADVANCED_FACE('',(#226),#757,.T.);
#762=ADVANCED_FACE('',(#227),#223,.T.);
#763=ADVANCED_FACE('',(#228),#224,.F.);
#764=ADVANCED_FACE('',(#229),#758,.T.);
#765=ADVANCED_FACE('',(#230),#225,.T.);
#766=ADVANCED_FACE('',(#231),#207,.T.);
#767=ADVANCED_FACE('',(#232),#208,.T.);
#768=ADVANCED_FACE('',(#233),#209,.T.);
#769=ADVANCED_FACE('',(#234),#40,.F.);
#770=ADVANCED_FACE('',(#235),#759,.T.);
#771=ADVANCED_FACE('',(#236),#760,.T.);
#772=ADVANCED_FACE('',(#237,#16),#41,.T.);
#773=ADVANCED_FACE('',(#238),#210,.F.);
#774=ADVANCED_FACE('',(#239),#211,.F.);
#775=ADVANCED_FACE('',(#240),#42,.F.);
#776=ADVANCED_FACE('',(#241),#212,.F.);
#777=ADVANCED_FACE('',(#242),#213,.F.);
#778=ADVANCED_FACE('',(#243),#43,.F.);
#779=ADVANCED_FACE('',(#244),#44,.T.);
#780=ADVANCED_FACE('',(#245),#45,.T.);
#781=ADVANCED_FACE('',(#246),#46,.T.);
#782=ADVANCED_FACE('',(#247),#214,.T.);
#783=ADVANCED_FACE('',(#248),#215,.T.);
#784=ADVANCED_FACE('',(#249),#47,.T.);
#785=ADVANCED_FACE('',(#250),#48,.T.);
#786=ADVANCED_FACE('',(#251),#49,.T.);
#787=ADVANCED_FACE('',(#252),#50,.F.);
#788=ADVANCED_FACE('',(#253),#51,.F.);
#789=ADVANCED_FACE('',(#254),#52,.F.);
#790=ADVANCED_FACE('',(#255),#53,.F.);
#791=ADVANCED_FACE('',(#256),#54,.F.);
#792=ADVANCED_FACE('',(#257),#55,.F.);
#793=ADVANCED_FACE('',(#258),#56,.F.);
#794=ADVANCED_FACE('',(#259),#216,.T.);
#795=ADVANCED_FACE('',(#260),#57,.F.);
#796=ADVANCED_FACE('',(#261),#58,.F.);
#797=ADVANCED_FACE('',(#262),#59,.F.);
#798=ADVANCED_FACE('',(#263),#60,.F.);
#799=ADVANCED_FACE('',(#264),#61,.F.);
#800=ADVANCED_FACE('',(#265),#62,.F.);
#801=ADVANCED_FACE('',(#266),#217,.T.);
#802=ADVANCED_FACE('',(#267),#63,.F.);
#803=ADVANCED_FACE('',(#268),#64,.F.);
#804=ADVANCED_FACE('',(#269),#218,.T.);
#805=CLOSED_SHELL('',(#761,#762,#763,#764,#765,#766,#767,#768,#769,#770,
#771,#772,#773,#774,#775,#776,#777,#778,#779,#780,#781,#782,#783,#784,#785,
#786,#787,#788,#789,#790,#791,#792,#793,#794,#795,#796,#797,#798,#799,#800,
#801,#802,#803));
#806=DERIVED_UNIT_ELEMENT(#808,1.);
#807=DERIVED_UNIT_ELEMENT(#1552,-3.);
#808=(
MASS_UNIT()
NAMED_UNIT(*)
SI_UNIT(.KILO.,.GRAM.)
);
#809=DERIVED_UNIT((#806,#807));
#810=MEASURE_REPRESENTATION_ITEM('density measure',
POSITIVE_RATIO_MEASURE(7850.),#809);
#811=PROPERTY_DEFINITION_REPRESENTATION(#816,#813);
#812=PROPERTY_DEFINITION_REPRESENTATION(#817,#814);
#813=REPRESENTATION('material name',(#815),#1549);
#814=REPRESENTATION('density',(#810),#1549);
#815=DESCRIPTIVE_REPRESENTATION_ITEM('Acier','Acier');
#816=PROPERTY_DEFINITION('material property','material name',#1559);
#817=PROPERTY_DEFINITION('material property','density of part',#1559);
#818=AXIS2_PLACEMENT_3D('',#1129,#898,#899);
#819=AXIS2_PLACEMENT_3D('',#1189,#900,#901);
#820=AXIS2_PLACEMENT_3D('',#1191,#902,#903);
#821=AXIS2_PLACEMENT_3D('',#1192,#904,#905);
#822=AXIS2_PLACEMENT_3D('',#1193,#906,#907);
#823=AXIS2_PLACEMENT_3D('',#1196,#908,#909);
#824=AXIS2_PLACEMENT_3D('',#1198,#910,#911);
#825=AXIS2_PLACEMENT_3D('',#1199,#912,#913);
#826=AXIS2_PLACEMENT_3D('',#1201,#914,#915);
#827=AXIS2_PLACEMENT_3D('',#1202,#916,#917);
#828=AXIS2_PLACEMENT_3D('',#1203,#918,#919);
#829=AXIS2_PLACEMENT_3D('',#1204,#920,#921);
#830=AXIS2_PLACEMENT_3D('',#1206,#922,#923);
#831=AXIS2_PLACEMENT_3D('',#1208,#924,#925);
#832=AXIS2_PLACEMENT_3D('',#1267,#926,#927);
#833=AXIS2_PLACEMENT_3D('',#1268,#928,#929);
#834=AXIS2_PLACEMENT_3D('',#1269,#930,#931);
#835=AXIS2_PLACEMENT_3D('',#1270,#932,#933);
#836=AXIS2_PLACEMENT_3D('',#1272,#934,#935);
#837=AXIS2_PLACEMENT_3D('',#1274,#936,#937);
#838=AXIS2_PLACEMENT_3D('',#1276,#938,#939);
#839=AXIS2_PLACEMENT_3D('',#1277,#940,#941);
#840=AXIS2_PLACEMENT_3D('',#1278,#942,#943);
#841=AXIS2_PLACEMENT_3D('',#1280,#945,#946);
#842=AXIS2_PLACEMENT_3D('',#1281,#947,#948);
#843=AXIS2_PLACEMENT_3D('',#1283,#950,#951);
#844=AXIS2_PLACEMENT_3D('',#1284,#952,#953);
#845=AXIS2_PLACEMENT_3D('',#1287,#954,#955);
#846=AXIS2_PLACEMENT_3D('',#1291,#957,#958);
#847=AXIS2_PLACEMENT_3D('',#1293,#960,#961);
#848=AXIS2_PLACEMENT_3D('',#1379,#963,#964);
#849=AXIS2_PLACEMENT_3D('',#1384,#966,#967);
#850=AXIS2_PLACEMENT_3D('',#1388,#969,#970);
#851=AXIS2_PLACEMENT_3D('',#1392,#972,#973);
#852=AXIS2_PLACEMENT_3D('',#1395,#975,#976);
#853=AXIS2_PLACEMENT_3D('',#1396,#977,#978);
#854=AXIS2_PLACEMENT_3D('',#1401,#981,#982);
#855=AXIS2_PLACEMENT_3D('',#1402,#983,#984);
#856=AXIS2_PLACEMENT_3D('',#1406,#986,#987);
#857=AXIS2_PLACEMENT_3D('',#1408,#989,#990);
#858=AXIS2_PLACEMENT_3D('',#1424,#999,#1000);
#859=AXIS2_PLACEMENT_3D('',#1427,#1002,#1003);
#860=AXIS2_PLACEMENT_3D('',#1428,#1004,#1005);
#861=AXIS2_PLACEMENT_3D('',#1432,#1007,#1008);
#862=AXIS2_PLACEMENT_3D('',#1434,#1010,#1011);
#863=AXIS2_PLACEMENT_3D('',#1448,#1019,#1020);
#864=AXIS2_PLACEMENT_3D('',#1452,#1023,#1024);
#865=AXIS2_PLACEMENT_3D('',#1454,#1025,#1026);
#866=AXIS2_PLACEMENT_3D('',#1456,#1028,#1029);
#867=AXIS2_PLACEMENT_3D('',#1462,#1033,#1034);
#868=AXIS2_PLACEMENT_3D('',#1464,#1035,#1036);
#869=AXIS2_PLACEMENT_3D('',#1466,#1038,#1039);
#870=AXIS2_PLACEMENT_3D('',#1470,#1041,#1042);
#871=AXIS2_PLACEMENT_3D('',#1471,#1043,#1044);
#872=AXIS2_PLACEMENT_3D('',#1472,#1045,#1046);
#873=AXIS2_PLACEMENT_3D('',#1474,#1048,#1049);
#874=AXIS2_PLACEMENT_3D('',#1478,#1052,#1053);
#875=AXIS2_PLACEMENT_3D('',#1484,#1057,#1058);
#876=AXIS2_PLACEMENT_3D('',#1490,#1061,#1062);
#877=AXIS2_PLACEMENT_3D('',#1498,#1069,#1070);
#878=AXIS2_PLACEMENT_3D('',#1500,#1072,#1073);
#879=AXIS2_PLACEMENT_3D('',#1506,#1077,#1078);
#880=AXIS2_PLACEMENT_3D('',#1508,#1080,#1081);
#881=AXIS2_PLACEMENT_3D('',#1514,#1085,#1086);
#882=AXIS2_PLACEMENT_3D('',#1515,#1087,#1088);
#883=AXIS2_PLACEMENT_3D('',#1519,#1091,#1092);
#884=AXIS2_PLACEMENT_3D('',#1521,#1093,#1094);
#885=AXIS2_PLACEMENT_3D('',#1523,#1096,#1097);
#886=AXIS2_PLACEMENT_3D('',#1524,#1098,#1099);
#887=AXIS2_PLACEMENT_3D('',#1526,#1101,#1102);
#888=AXIS2_PLACEMENT_3D('',#1528,#1104,#1105);
#889=AXIS2_PLACEMENT_3D('',#1530,#1107,#1108);
#890=AXIS2_PLACEMENT_3D('',#1531,#1109,#1110);
#891=AXIS2_PLACEMENT_3D('',#1532,#1111,#1112);
#892=AXIS2_PLACEMENT_3D('',#1536,#1114,#1115);
#893=AXIS2_PLACEMENT_3D('',#1538,#1117,#1118);
#894=AXIS2_PLACEMENT_3D('',#1540,#1120,#1121);
#895=AXIS2_PLACEMENT_3D('',#1541,#1122,#1123);
#896=AXIS2_PLACEMENT_3D('',#1543,#1124,#1125);
#897=AXIS2_PLACEMENT_3D('',#1546,#1127,#1128);
#898=DIRECTION('axis',(0.,0.,1.));
#899=DIRECTION('refdir',(1.,0.,0.));
#900=DIRECTION('center_axis',(-1.15137149184811E-11,-1.,1.42118586013798E-11));
#901=DIRECTION('ref_axis',(0.999999999998219,-1.15136880961246E-11,1.88732078084898E-6));
#902=DIRECTION('center_axis',(2.08166817117217E-16,6.93889390390723E-17,
1.));
#903=DIRECTION('ref_axis',(1.,-1.90413175544871E-16,-2.77555756156289E-16));
#904=DIRECTION('center_axis',(-3.83883964871533E-14,1.,-3.51554456175434E-14));
#905=DIRECTION('ref_axis',(-1.,-3.83883964878847E-14,-2.08028039236462E-11));
#906=DIRECTION('center_axis',(5.66834765902127E-17,2.57212676876829E-15,
1.));
#907=DIRECTION('ref_axis',(1.,0.,0.));
#908=DIRECTION('center_axis',(-3.55275474793088E-8,1.82877374682206E-8,
-0.999999999999999));
#909=DIRECTION('ref_axis',(0.805028366021631,-0.593236318763898,-3.94496335501917E-8));
#910=DIRECTION('center_axis',(0.,0.,1.));
#911=DIRECTION('ref_axis',(0.542706872044034,0.839922169630127,0.));
#912=DIRECTION('center_axis',(-3.51933758517401E-8,-1.81140455471051E-8,
-0.999999999999999));
#913=DIRECTION('ref_axis',(0.805007997620441,0.593263957920188,-3.9077359379135E-8));
#914=DIRECTION('center_axis',(1.22464679914735E-16,-1.,2.57212676876829E-15));
#915=DIRECTION('ref_axis',(-1.,-1.22464679914735E-16,0.));
#916=DIRECTION('center_axis',(0.,0.,-1.));
#917=DIRECTION('ref_axis',(1.,0.,0.));
#918=DIRECTION('center_axis',(-1.60543576383226E-16,-5.96304712280552E-17,
1.));
#919=DIRECTION('ref_axis',(1.,0.,1.00929365875014E-16));
#920=DIRECTION('center_axis',(-7.00256105050745E-17,-5.72109943620804E-14,
1.));
#921=DIRECTION('ref_axis',(0.997848451526259,0.0655627011847942,3.82078227485569E-15));
#922=DIRECTION('center_axis',(-1.22464679914735E-16,1.,5.96304712280552E-17));
#923=DIRECTION('ref_axis',(-1.,-1.22464679914735E-16,-1.26161707343768E-16));
#924=DIRECTION('center_axis',(7.00256105060401E-17,5.70708421897404E-14,
-1.));
#925=DIRECTION('ref_axis',(0.997848451445803,-0.0655627024093164,-3.67184369573001E-15));
#926=DIRECTION('center_axis',(-6.93889390390743E-17,-6.89959665275922E-17,
1.));
#927=DIRECTION('ref_axis',(1.,-5.98336007592802E-14,0.));
#928=DIRECTION('center_axis',(3.20309088525385E-11,-1.,2.83251640606552E-11));
#929=DIRECTION('ref_axis',(0.0911239476153241,3.11261017314954E-11,0.995839558448548));
#930=DIRECTION('center_axis',(-4.04717314071976E-14,1.,4.93546505778636E-14));
#931=DIRECTION('ref_axis',(-0.090909090912243,-5.28295309267335E-14,0.995859195463651));
#932=DIRECTION('center_axis',(4.63106470336318E-17,-1.72010974696347E-17,
-1.));
#933=DIRECTION('ref_axis',(-1.,0.,-5.55111512312578E-17));
#934=DIRECTION('center_axis',(0.,0.,1.));
#935=DIRECTION('ref_axis',(1.,-6.12323399573459E-17,0.));
#936=DIRECTION('center_axis',(-1.22464679914735E-16,-1.,1.72010974696347E-17));
#937=DIRECTION('ref_axis',(1.,-1.22464679914735E-16,6.93889390390722E-17));
#938=DIRECTION('center_axis',(0.,0.,1.));
#939=DIRECTION('ref_axis',(1.,0.,0.));
#940=DIRECTION('center_axis',(0.,0.,1.));
#941=DIRECTION('ref_axis',(1.,0.,0.));
#942=DIRECTION('center_axis',(0.,0.,1.));
#943=DIRECTION('ref_axis',(1.,0.,0.));
#944=DIRECTION('',(0.,0.,-1.));
#945=DIRECTION('center_axis',(2.08166817117217E-16,-3.46944695195362E-16,
1.));
#946=DIRECTION('ref_axis',(-1.,3.12877855459606E-16,2.77555756156289E-16));
#947=DIRECTION('center_axis',(0.,0.,1.));
#948=DIRECTION('ref_axis',(1.,0.,0.));
#949=DIRECTION('',(0.,0.,-1.));
#950=DIRECTION('center_axis',(-6.93889390390785E-17,-2.0856426604672E-16,
1.));
#951=DIRECTION('ref_axis',(-1.,2.80615435713175E-16,-1.38777878078145E-16));
#952=DIRECTION('center_axis',(0.,0.,-1.));
#953=DIRECTION('ref_axis',(-1.,0.,0.));
#954=DIRECTION('center_axis',(0.,0.,-1.));
#955=DIRECTION('ref_axis',(-1.,0.,0.));
#956=DIRECTION('',(0.,0.,-1.));
#957=DIRECTION('center_axis',(0.,0.,1.));
#958=DIRECTION('ref_axis',(-1.,0.,0.));
#959=DIRECTION('',(0.,0.,1.));
#960=DIRECTION('center_axis',(0.,0.,-1.));
#961=DIRECTION('ref_axis',(-1.,0.,0.));
#962=DIRECTION('',(3.7235667554957E-17,-1.,0.));
#963=DIRECTION('center_axis',(0.,0.,1.));
#964=DIRECTION('ref_axis',(1.,0.,0.));
#965=DIRECTION('',(-1.,1.224646799147E-16,0.));
#966=DIRECTION('center_axis',(0.,0.,1.));
#967=DIRECTION('ref_axis',(-1.,-8.88178419700125E-16,0.));
#968=DIRECTION('',(0.,-1.,0.));
#969=DIRECTION('center_axis',(0.,0.,1.));
#970=DIRECTION('ref_axis',(-1.,0.,0.));
#971=DIRECTION('',(1.,-1.224646799147E-16,0.));
#972=DIRECTION('center_axis',(0.,0.,1.));
#973=DIRECTION('ref_axis',(-1.,0.,0.));
#974=DIRECTION('',(0.,1.,0.));
#975=DIRECTION('center_axis',(0.,0.,1.));
#976=DIRECTION('ref_axis',(-1.,0.,0.));
#977=DIRECTION('center_axis',(0.,0.,-1.));
#978=DIRECTION('ref_axis',(-1.,0.,0.));
#979=DIRECTION('',(0.,0.,1.));
#980=DIRECTION('',(0.,0.,1.));
#981=DIRECTION('center_axis',(0.,0.,-1.));
#982=DIRECTION('ref_axis',(-1.,0.,0.));
#983=DIRECTION('center_axis',(0.,0.,-1.));
#984=DIRECTION('ref_axis',(-1.,0.,0.));
#985=DIRECTION('',(0.,0.,-1.));
#986=DIRECTION('center_axis',(0.,0.,-1.));
#987=DIRECTION('ref_axis',(-1.,0.,0.));
#988=DIRECTION('',(0.,0.,-1.));
#989=DIRECTION('center_axis',(-1.,1.224646799147E-16,0.));
#990=DIRECTION('ref_axis',(-1.224646799147E-16,-1.,0.));
#991=DIRECTION('',(0.,1.,1.285728656045E-33));
#992=DIRECTION('',(0.,0.,-1.));
#993=DIRECTION('',(1.224646799147E-16,1.,0.));
#994=DIRECTION('',(0.,0.,-1.));
#995=DIRECTION('',(0.,1.,1.285728656045E-33));
#996=DIRECTION('',(0.,0.,1.));
#997=DIRECTION('',(0.,1.,1.285728656045E-33));
#998=DIRECTION('',(-1.224646799147E-16,-1.,0.));
#999=DIRECTION('center_axis',(0.,0.,-1.));
#1000=DIRECTION('ref_axis',(-1.,0.,0.));
#1001=DIRECTION('',(0.,0.,1.));
#1002=DIRECTION('center_axis',(0.,0.,-1.));
#1003=DIRECTION('ref_axis',(-1.,0.,0.));
#1004=DIRECTION('center_axis',(0.,0.,-1.));
#1005=DIRECTION('ref_axis',(-1.,0.,0.));
#1006=DIRECTION('',(0.,0.,-1.));
#1007=DIRECTION('center_axis',(0.,0.,-1.));
#1008=DIRECTION('ref_axis',(-1.,0.,0.));
#1009=DIRECTION('',(0.,0.,-1.));
#1010=DIRECTION('center_axis',(1.,-1.224646799147E-16,0.));
#1011=DIRECTION('ref_axis',(1.224646799147E-16,1.,0.));
#1012=DIRECTION('',(1.224646799147E-16,1.,0.));
#1013=DIRECTION('',(0.,0.,1.));
#1014=DIRECTION('',(-1.224646799147E-16,-1.,0.));
#1015=DIRECTION('',(-1.224646799147E-16,-1.,0.));
#1016=DIRECTION('',(0.,0.,-1.));
#1017=DIRECTION('',(1.224646799147E-16,1.,0.));
#1018=DIRECTION('',(1.224646799147E-16,1.,0.));
#1019=DIRECTION('center_axis',(0.,0.,1.));
#1020=DIRECTION('ref_axis',(1.,0.,0.));
#1021=DIRECTION('',(-0.707106781186547,-0.707106781186547,0.));
#1022=DIRECTION('',(-1.,1.224646799147E-16,0.));
#1023=DIRECTION('center_axis',(-9.138558031111E-34,-1.285728656045E-33,
1.));
#1024=DIRECTION('ref_axis',(0.,-1.,-1.285728656045E-33));
#1025=DIRECTION('center_axis',(0.,0.,1.));
#1026=DIRECTION('ref_axis',(1.,0.,0.));
#1027=DIRECTION('',(-1.,1.224646799147E-16,0.));
#1028=DIRECTION('center_axis',(0.,0.,1.));
#1029=DIRECTION('ref_axis',(1.,0.,0.));
#1030=DIRECTION('',(-1.,2.449293598295E-16,0.));
#1031=DIRECTION('',(1.,-2.73766321508E-16,0.));
#1032=DIRECTION('',(0.,1.,0.));
#1033=DIRECTION('center_axis',(0.,0.,1.));
#1034=DIRECTION('ref_axis',(1.,0.,0.));
#1035=DIRECTION('center_axis',(0.,0.,1.));
#1036=DIRECTION('ref_axis',(1.,0.,0.));
#1037=DIRECTION('',(0.,0.,1.));
#1038=DIRECTION('center_axis',(0.,0.,1.));
#1039=DIRECTION('ref_axis',(1.,0.,0.));
#1040=DIRECTION('',(0.,0.,-1.));
#1041=DIRECTION('center_axis',(0.,0.,1.));
#1042=DIRECTION('ref_axis',(1.,0.,0.));
#1043=DIRECTION('center_axis',(0.,0.,-1.));
#1044=DIRECTION('ref_axis',(1.,0.,0.));
#1045=DIRECTION('center_axis',(-9.138558031111E-34,-1.285728656045E-33,
1.));
#1046=DIRECTION('ref_axis',(0.,-1.,-1.285728656045E-33));
#1047=DIRECTION('',(1.,-1.224646799147E-16,0.));
#1048=DIRECTION('center_axis',(0.,0.,1.));
#1049=DIRECTION('ref_axis',(1.,0.,0.));
#1050=DIRECTION('',(0.707106781186547,-0.707106781186547,0.));
#1051=DIRECTION('',(1.,-1.224646799147E-16,0.));
#1052=DIRECTION('center_axis',(0.,0.,1.));
#1053=DIRECTION('ref_axis',(1.,0.,0.));
#1054=DIRECTION('',(1.,-1.224646799147E-16,0.));
#1055=DIRECTION('',(-1.,1.513016415933E-16,0.));
#1056=DIRECTION('',(0.,-1.,0.));
#1057=DIRECTION('center_axis',(-9.138558031111E-34,-1.285728656045E-33,
1.));
#1058=DIRECTION('ref_axis',(0.,-1.,-1.285728656045E-33));
#1059=DIRECTION('',(0.707106781186547,-0.707106781186547,0.));
#1060=DIRECTION('',(-1.,1.17497059355296E-66,-9.138558031111E-34));
#1061=DIRECTION('center_axis',(0.,0.,-1.));
#1062=DIRECTION('ref_axis',(-1.,0.,0.));
#1063=DIRECTION('',(-1.,1.513016415933E-16,0.));
#1064=DIRECTION('',(-0.707106781186547,-0.707106781186547,0.));
#1065=DIRECTION('',(-1.,1.17497059355296E-66,-9.138558031111E-34));
#1066=DIRECTION('',(1.,-1.17497059355296E-66,9.138558031111E-34));
#1067=DIRECTION('',(1.,-2.73766321508E-16,0.));
#1068=DIRECTION('',(1.,-1.17497059355296E-66,9.138558031111E-34));
#1069=DIRECTION('center_axis',(0.707106781186548,-0.707106781186548,0.));
#1070=DIRECTION('ref_axis',(0.707106781186548,0.707106781186548,0.));
#1071=DIRECTION('',(0.,0.,1.));
#1072=DIRECTION('center_axis',(-1.,2.449293598295E-16,0.));
#1073=DIRECTION('ref_axis',(-2.449293598295E-16,-1.,0.));
#1074=DIRECTION('',(0.,0.,-1.));
#1075=DIRECTION('',(0.,0.,-1.));
#1076=DIRECTION('',(0.,1.,0.));
#1077=DIRECTION('center_axis',(0.707106781186548,0.707106781186548,0.));
#1078=DIRECTION('ref_axis',(-0.707106781186548,0.707106781186548,0.));
#1079=DIRECTION('',(0.,0.,-1.));
#1080=DIRECTION('center_axis',(1.,-1.224646799147E-16,0.));
#1081=DIRECTION('ref_axis',(1.224646799147E-16,1.,0.));
#1082=DIRECTION('',(0.,0.,-1.));
#1083=DIRECTION('',(0.,0.,-1.));
#1084=DIRECTION('',(0.,-1.,0.));
#1085=DIRECTION('center_axis',(1.224646799147E-16,1.,0.));
#1086=DIRECTION('ref_axis',(-1.,1.224646799147E-16,0.));
#1087=DIRECTION('center_axis',(1.224646799147E-16,1.,0.));
#1088=DIRECTION('ref_axis',(-1.,1.224646799147E-16,0.));
#1089=DIRECTION('',(0.,0.,-1.));
#1090=DIRECTION('',(-1.,1.224646799147E-16,0.));
#1091=DIRECTION('center_axis',(0.,0.,-1.));
#1092=DIRECTION('ref_axis',(1.,1.22464679914735E-16,0.));
#1093=DIRECTION('center_axis',(0.,0.,1.));
#1094=DIRECTION('ref_axis',(-1.,8.88178419700125E-16,0.));
#1095=DIRECTION('',(0.,0.,1.));
#1096=DIRECTION('center_axis',(-1.224646799147E-16,-1.,0.));
#1097=DIRECTION('ref_axis',(1.,-1.224646799147E-16,0.));
#1098=DIRECTION('center_axis',(-2.449293598295E-16,-1.,0.));
#1099=DIRECTION('ref_axis',(1.,-2.449293598295E-16,0.));
#1100=DIRECTION('',(1.,-2.449293598295E-16,0.));
#1101=DIRECTION('center_axis',(0.,0.,1.));
#1102=DIRECTION('ref_axis',(1.,0.,0.));
#1103=DIRECTION('',(-1.,0.,0.));
#1104=DIRECTION('center_axis',(0.,0.,1.));
#1105=DIRECTION('ref_axis',(1.,0.,0.));
#1106=DIRECTION('',(1.,0.,0.));
#1107=DIRECTION('center_axis',(-1.513016415933E-16,-1.,0.));
#1108=DIRECTION('ref_axis',(1.,-1.513016415933E-16,0.));
#1109=DIRECTION('center_axis',(2.73766321508E-16,1.,0.));
#1110=DIRECTION('ref_axis',(-1.,2.73766321508E-16,0.));
#1111=DIRECTION('center_axis',(0.,0.,-1.));
#1112=DIRECTION('ref_axis',(1.,2.18112249487161E-8,0.));
#1113=DIRECTION('',(0.,0.,-1.));
#1114=DIRECTION('center_axis',(0.,0.,1.));
#1115=DIRECTION('ref_axis',(-1.,0.,0.));
#1116=DIRECTION('',(0.,0.,-1.));
#1117=DIRECTION('center_axis',(1.,3.7235667554957E-17,0.));
#1118=DIRECTION('ref_axis',(-3.7235667554957E-17,1.,0.));
#1119=DIRECTION('',(3.7235667554957E-17,-1.,0.));
#1120=DIRECTION('center_axis',(0.,0.,-1.));
#1121=DIRECTION('ref_axis',(-1.,0.,0.));
#1122=DIRECTION('center_axis',(0.,0.,-1.));
#1123=DIRECTION('ref_axis',(-1.,0.,0.));
#1124=DIRECTION('center_axis',(0.,0.,1.));
#1125=DIRECTION('ref_axis',(-1.,0.,0.));
#1126=DIRECTION('',(0.,0.,1.));
#1127=DIRECTION('center_axis',(0.,0.,-1.));
#1128=DIRECTION('ref_axis',(-1.,0.,0.));
#1129=CARTESIAN_POINT('',(0.,0.,0.));
#1130=CARTESIAN_POINT('Ctrl Pts',(-1.981818181818,2.427027292856E-16,1.949171839093));
#1131=CARTESIAN_POINT('Ctrl Pts',(-1.981818181819,0.944000157507,1.949171839093));
#1132=CARTESIAN_POINT('Ctrl Pts',(-1.493927754621,1.909769670036,1.949171839093));
#1133=CARTESIAN_POINT('Ctrl Pts',(-0.489917572033,2.600335963463,1.949171839093));
#1134=CARTESIAN_POINT('Ctrl Pts',(0.891727878605,2.706393785507,1.949171839093));
#1135=CARTESIAN_POINT('Ctrl Pts',(2.085305096093,1.970359428818,1.949171839093));
#1136=CARTESIAN_POINT('Ctrl Pts',(2.960668605698,0.895913704783,1.949171839093));
#1137=CARTESIAN_POINT('Ctrl Pts',(2.960668605724,-0.895913704798,1.949171839093));
#1138=CARTESIAN_POINT('Ctrl Pts',(2.085305096084,-1.970359428791,1.949171839093));
#1139=CARTESIAN_POINT('Ctrl Pts',(0.891727878599,-2.706393785531,1.949171839093));
#1140=CARTESIAN_POINT('Ctrl Pts',(-0.489917572023,-2.600335963452,1.949171839093));
#1141=CARTESIAN_POINT('Ctrl Pts',(-1.493927754626,-1.909769670038,1.949171839093));
#1142=CARTESIAN_POINT('Ctrl Pts',(-1.981818181818,-0.944000157507,1.949171839093));
#1143=CARTESIAN_POINT('Ctrl Pts',(-1.981818181818,2.427027292856E-16,1.949171839093));
#1144=CARTESIAN_POINT('Ctrl Pts',(-2.,-3.969183262819E-16,1.950831604419));
#1145=CARTESIAN_POINT('Ctrl Pts',(-2.000000000001,0.952660709411,1.950831604419));
#1146=CARTESIAN_POINT('Ctrl Pts',(-1.507633513838,1.927290492697,1.950831604419));
#1147=CARTESIAN_POINT('Ctrl Pts',(-0.494412228656,2.624192256705,1.950831604419));
#1148=CARTESIAN_POINT('Ctrl Pts',(0.899908868314,2.731223086294,1.950831604419));
#1149=CARTESIAN_POINT('Ctrl Pts',(2.104436335511,1.988436120822,1.950831604419));
#1150=CARTESIAN_POINT('Ctrl Pts',(2.987830702994,0.904133096573,1.950831604418));
#1151=CARTESIAN_POINT('Ctrl Pts',(2.987830703028,-0.904133096586,1.950831604419));
#1152=CARTESIAN_POINT('Ctrl Pts',(2.104436335494,-1.988436120799,1.950831604419));
#1153=CARTESIAN_POINT('Ctrl Pts',(0.899908868314,-2.731223086314,1.950831604419));
#1154=CARTESIAN_POINT('Ctrl Pts',(-0.49441222865,-2.624192256695,1.950831604419));
#1155=CARTESIAN_POINT('Ctrl Pts',(-1.507633513842,-1.927290492699,1.950831604419));
#1156=CARTESIAN_POINT('Ctrl Pts',(-2.,-0.952660709411,1.950831604419));
#1157=CARTESIAN_POINT('Ctrl Pts',(-2.,-3.969183262819E-16,1.950831604419));
#1158=CARTESIAN_POINT('Ctrl Pts',(-2.,2.449293598295E-16,1.969089023002));
#1159=CARTESIAN_POINT('Ctrl Pts',(-2.000000000001,0.952660709411,1.969089023002));
#1160=CARTESIAN_POINT('Ctrl Pts',(-1.507633513839,1.927290492696,1.969089023002));
#1161=CARTESIAN_POINT('Ctrl Pts',(-0.494412228655,2.624192256706,1.969089023002));
#1162=CARTESIAN_POINT('Ctrl Pts',(0.899908868311,2.731223086291,1.969089023002));
#1163=CARTESIAN_POINT('Ctrl Pts',(2.104436335515,1.988436120826,1.969089023002));
#1164=CARTESIAN_POINT('Ctrl Pts',(2.987830702988,0.904133096569,1.969089023002));
#1165=CARTESIAN_POINT('Ctrl Pts',(2.987830703034,-0.904133096585,1.969089023002));
#1166=CARTESIAN_POINT('Ctrl Pts',(2.10443633549,-1.988436120799,1.969089023002));
#1167=CARTESIAN_POINT('Ctrl Pts',(0.899908868316,-2.731223086315,1.969089023002));
#1168=CARTESIAN_POINT('Ctrl Pts',(-0.49441222865,-2.624192256695,1.969089023002));
#1169=CARTESIAN_POINT('Ctrl Pts',(-1.507633513842,-1.927290492699,1.969089023002));
#1170=CARTESIAN_POINT('Ctrl Pts',(-2.,-0.952660709411,1.969089023002));
#1171=CARTESIAN_POINT('Ctrl Pts',(-2.,2.449293598295E-16,1.969089023002));
#1172=CARTESIAN_POINT('',(-1.98181818181801,2.42702729285588E-16,1.94917183909289));
#1173=CARTESIAN_POINT('',(1.98181388549255,-7.07254263867455E-14,1.94917196853714));
#1174=CARTESIAN_POINT('Ctrl Pts',(-1.98181818181801,2.42702729285588E-16,
1.94917183909289));
#1175=CARTESIAN_POINT('Ctrl Pts',(-1.981818181818,-0.4720000787535,1.949171839093));
#1176=CARTESIAN_POINT('Ctrl Pts',(-1.85984557502009,-0.94944249626276,1.949171839093));
#1177=CARTESIAN_POINT('Ctrl Pts',(-1.61237169539639,-1.39520568076098,1.949171839093));
#1178=CARTESIAN_POINT('Ctrl Pts',(-1.24628749039625,-1.77139726809982,1.949171839093));
#1179=CARTESIAN_POINT('Ctrl Pts',(-0.787044308385073,-2.04135579621499,
1.949171839093));
#1180=CARTESIAN_POINT('Ctrl Pts',(-0.269243401115066,-2.18173816133052,
1.949171839093));
#1181=CARTESIAN_POINT('Ctrl Pts',(0.268071002281243,-2.1812635595402,1.949171839093));
#1182=CARTESIAN_POINT('Ctrl Pts',(0.784240964786682,-2.04054677203554,1.949171839093));
#1183=CARTESIAN_POINT('Ctrl Pts',(1.2408070394624,-1.77248254816262,1.949171839093));
#1184=CARTESIAN_POINT('Ctrl Pts',(1.60569298002144,-1.40097168815983,1.949171839093));
#1185=CARTESIAN_POINT('Ctrl Pts',(1.85643740191154,-0.957851051119232,1.949171839093));
#1186=CARTESIAN_POINT('Ctrl Pts',(1.98180961285659,-0.478925525559702,1.949171839093));
#1187=CARTESIAN_POINT('Ctrl Pts',(1.9818138973373,-7.07078523852021E-14,
1.94917183909289));
#1188=CARTESIAN_POINT('',(1.99999567621201,-3.12691995609823E-16,1.969089023002));
#1189=CARTESIAN_POINT('Origin',(1.97999138590235,2.33293863384594E-13,1.96908898525565));
#1190=CARTESIAN_POINT('',(-2.,2.44929359829485E-16,1.969089023002));
#1191=CARTESIAN_POINT('Origin',(0.,6.813367947151E-17,1.969089023002));
#1192=CARTESIAN_POINT('Origin',(-1.97999999999974,1.01269728959706E-15,
1.96908902300242));
#1193=CARTESIAN_POINT('Origin',(-3.27429056090622E-16,2.77555756156289E-16,
5.133333333333));
#1194=CARTESIAN_POINT('',(-1.733333333333,2.12272111852153E-16,5.4));
#1195=CARTESIAN_POINT('',(0.940730208244851,1.45595402884824,5.39999996581141));
#1196=CARTESIAN_POINT('Origin',(0.000196995522794563,-7.66910466008718E-5,
5.39999993841052));
#1197=CARTESIAN_POINT('',(0.940730028473169,-1.45595361115218,5.39999996613176));
#1198=CARTESIAN_POINT('Origin',(5.55111512312578E-16,-6.79772147030464E-16,
5.4));
#1199=CARTESIAN_POINT('Origin',(0.000196037311646635,7.62956390118474E-5,
5.39999993898987));
#1200=CARTESIAN_POINT('',(-2.,2.44929359829471E-16,5.133333333333));
#1201=CARTESIAN_POINT('Origin',(-1.733333333333,6.5283644304122E-17,5.133333333333));
#1202=CARTESIAN_POINT('Origin',(0.,0.,5.133333333333));
#1203=CARTESIAN_POINT('Origin',(9.58434720477186E-16,-1.52655665885959E-15,
1.75));
#1204=CARTESIAN_POINT('Origin',(-2.14214346483388E-6,3.80535717071565E-5,
1.94917183909289));
#1205=CARTESIAN_POINT('',(-1.98181818181801,2.42702729285588E-16,1.55082816090711));
#1206=CARTESIAN_POINT('Origin',(-2.,-1.77148601868906E-15,1.75));
#1207=CARTESIAN_POINT('',(1.98181388549262,-1.3794643609124E-13,1.55082803146286));
#1208=CARTESIAN_POINT('Origin',(-2.14214342819652E-6,-3.80535723869296E-5,
1.55082816090711));
#1209=CARTESIAN_POINT('Ctrl Pts',(-1.98181818181801,2.42702729285588E-16,
1.55082816090711));
#1210=CARTESIAN_POINT('Ctrl Pts',(-1.9818181818185,0.4720000787535,1.550828160907));
#1211=CARTESIAN_POINT('Ctrl Pts',(-1.85984557501941,0.94944249626274,1.550828160907));
#1212=CARTESIAN_POINT('Ctrl Pts',(-1.61237169539688,1.39520568076124,1.550828160907));
#1213=CARTESIAN_POINT('Ctrl Pts',(-1.24628749039667,1.77139726809997,1.550828160907));
#1214=CARTESIAN_POINT('Ctrl Pts',(-0.787044308385327,2.04135579621502,1.550828160907));
#1215=CARTESIAN_POINT('Ctrl Pts',(-0.269243401115324,2.18173816133056,1.550828160907));
#1216=CARTESIAN_POINT('Ctrl Pts',(0.268071002280955,2.18126355954031,1.550828160907));
#1217=CARTESIAN_POINT('Ctrl Pts',(0.784240964786421,2.04054677203567,1.550828160907));
#1218=CARTESIAN_POINT('Ctrl Pts',(1.24080703946222,1.77248254816269,1.550828160907));
#1219=CARTESIAN_POINT('Ctrl Pts',(1.60569298002136,1.40097168815978,1.550828160907));
#1220=CARTESIAN_POINT('Ctrl Pts',(1.85643740191156,0.95785105111905,1.550828160907));
#1221=CARTESIAN_POINT('Ctrl Pts',(1.98180961285668,0.47892552555944,1.550828160907));
#1222=CARTESIAN_POINT('Ctrl Pts',(1.98181389733737,-1.38035813773101E-13,
1.55082816090711));
#1223=CARTESIAN_POINT('Ctrl Pts',(-2.,2.449293598295E-16,1.530910976998));
#1224=CARTESIAN_POINT('Ctrl Pts',(-2.000000000001,0.952660709411,1.530910976998));
#1225=CARTESIAN_POINT('Ctrl Pts',(-1.507633513838,1.927290492697,1.530910976998));
#1226=CARTESIAN_POINT('Ctrl Pts',(-0.494412228655,2.624192256705,1.530910976998));
#1227=CARTESIAN_POINT('Ctrl Pts',(0.899908868313,2.731223086293,1.530910976998));
#1228=CARTESIAN_POINT('Ctrl Pts',(2.104436335512,1.988436120823,1.530910976998));
#1229=CARTESIAN_POINT('Ctrl Pts',(2.987830702991,0.904133096572,1.530910976998));
#1230=CARTESIAN_POINT('Ctrl Pts',(2.987830703031,-0.904133096587,1.530910976998));
#1231=CARTESIAN_POINT('Ctrl Pts',(2.104436335493,-1.988436120797,1.530910976998));
#1232=CARTESIAN_POINT('Ctrl Pts',(0.899908868314,-2.731223086316,1.530910976998));
#1233=CARTESIAN_POINT('Ctrl Pts',(-0.494412228649,-2.624192256695,1.530910976998));
#1234=CARTESIAN_POINT('Ctrl Pts',(-1.507633513843,-1.927290492699,1.530910976998));
#1235=CARTESIAN_POINT('Ctrl Pts',(-2.,-0.952660709411,1.530910976998));
#1236=CARTESIAN_POINT('Ctrl Pts',(-2.,2.449293598295E-16,1.530910976998));
#1237=CARTESIAN_POINT('Ctrl Pts',(-2.,-4.112297949588E-16,1.549168395581));
#1238=CARTESIAN_POINT('Ctrl Pts',(-2.000000000001,0.952660709411,1.549168395581));
#1239=CARTESIAN_POINT('Ctrl Pts',(-1.507633513838,1.927290492697,1.549168395581));
#1240=CARTESIAN_POINT('Ctrl Pts',(-0.494412228655,2.624192256706,1.549168395581));
#1241=CARTESIAN_POINT('Ctrl Pts',(0.899908868313,2.731223086293,1.549168395581));
#1242=CARTESIAN_POINT('Ctrl Pts',(2.104436335513,1.988436120823,1.549168395581));
#1243=CARTESIAN_POINT('Ctrl Pts',(2.98783070299,0.904133096573,1.549168395581));
#1244=CARTESIAN_POINT('Ctrl Pts',(2.987830703032,-0.904133096587,1.549168395581));
#1245=CARTESIAN_POINT('Ctrl Pts',(2.104436335492,-1.988436120798,1.549168395581));
#1246=CARTESIAN_POINT('Ctrl Pts',(0.899908868315,-2.731223086315,1.549168395581));
#1247=CARTESIAN_POINT('Ctrl Pts',(-0.49441222865,-2.624192256695,1.549168395581));
#1248=CARTESIAN_POINT('Ctrl Pts',(-1.507633513842,-1.927290492699,1.549168395581));
#1249=CARTESIAN_POINT('Ctrl Pts',(-2.,-0.952660709411,1.549168395581));
#1250=CARTESIAN_POINT('Ctrl Pts',(-2.,-4.112297949588E-16,1.549168395581));
#1251=CARTESIAN_POINT('Ctrl Pts',(-1.981818181818,2.427027292856E-16,1.550828160907));
#1252=CARTESIAN_POINT('Ctrl Pts',(-1.981818181819,0.944000157507,1.550828160907));
#1253=CARTESIAN_POINT('Ctrl Pts',(-1.493927754622,1.909769670036,1.550828160907));
#1254=CARTESIAN_POINT('Ctrl Pts',(-0.489917572031,2.600335963463,1.550828160907));
#1255=CARTESIAN_POINT('Ctrl Pts',(0.891727878601,2.706393785507,1.550828160907));
#1256=CARTESIAN_POINT('Ctrl Pts',(2.085305096099,1.970359428818,1.550828160907));
#1257=CARTESIAN_POINT('Ctrl Pts',(2.960668605691,0.895913704783,1.550828160907));
#1258=CARTESIAN_POINT('Ctrl Pts',(2.960668605731,-0.895913704798,1.550828160907));
#1259=CARTESIAN_POINT('Ctrl Pts',(2.085305096079,-1.970359428791,1.550828160907));
#1260=CARTESIAN_POINT('Ctrl Pts',(0.891727878603,-2.706393785531,1.550828160907));
#1261=CARTESIAN_POINT('Ctrl Pts',(-0.489917572025,-2.600335963452,1.550828160907));
#1262=CARTESIAN_POINT('Ctrl Pts',(-1.493927754626,-1.909769670038,1.550828160907));
#1263=CARTESIAN_POINT('Ctrl Pts',(-1.981818181818,-0.944000157507,1.550828160907));
#1264=CARTESIAN_POINT('Ctrl Pts',(-1.981818181818,2.427027292856E-16,1.550828160907));
#1265=CARTESIAN_POINT('',(-2.,4.89858719658956E-16,1.530910976998));
#1266=CARTESIAN_POINT('',(1.99999567621203,-1.19534273387562E-13,1.530910976998));
#1267=CARTESIAN_POINT('Origin',(0.,1.32669710013099E-16,1.530910976998));
#1268=CARTESIAN_POINT('Origin',(1.97999138590227,-7.60275192842233E-13,
1.53091101474425));
#1269=CARTESIAN_POINT('Origin',(-1.97999999999974,1.29929334783389E-15,
1.53091097699758));
#1270=CARTESIAN_POINT('Origin',(-4.01154803819637E-16,2.77555756156289E-15,
0.916666666667));
#1271=CARTESIAN_POINT('',(1.733333333333,2.55869849038548E-15,0.65));
#1272=CARTESIAN_POINT('Origin',(0.,1.06136055926107E-16,0.65));
#1273=CARTESIAN_POINT('',(2.,2.53062820173342E-15,0.916666666667));
#1274=CARTESIAN_POINT('Origin',(1.733333333333,2.56328544971072E-15,0.916666666667));
#1275=CARTESIAN_POINT('',(-2.,2.44929359829471E-16,0.916666666667));
#1276=CARTESIAN_POINT('Origin',(0.,0.,0.916666666667));
#1277=CARTESIAN_POINT('Origin',(0.,0.,0.916666666667));
#1278=CARTESIAN_POINT('Origin',(0.,0.,1.95));
#1279=CARTESIAN_POINT('',(-2.,-2.44929359829471E-16,1.95));
#1280=CARTESIAN_POINT('Origin',(0.,-3.80826351089742E-16,1.969089023002));
#1281=CARTESIAN_POINT('Origin',(0.,0.,0.65));
#1282=CARTESIAN_POINT('',(-2.,-2.44929359829471E-16,0.65));
#1283=CARTESIAN_POINT('Origin',(0.,-3.16301511596879E-16,1.530910976998));
#1284=CARTESIAN_POINT('Origin',(0.825,-2.020667218593E-16,0.));
#1285=CARTESIAN_POINT('',(0.825,-0.325,0.15));
#1286=CARTESIAN_POINT('',(0.825,0.325,0.15));
#1287=CARTESIAN_POINT('Origin',(0.825,-2.020667218593E-16,0.15));
#1288=CARTESIAN_POINT('',(0.825,0.325000000000001,0.));
#1289=CARTESIAN_POINT('',(0.825,0.325000000000001,0.));
#1290=CARTESIAN_POINT('',(0.825,-0.325,0.));
#1291=CARTESIAN_POINT('Origin',(0.825,-2.020667218593E-16,0.));
#1292=CARTESIAN_POINT('',(0.825,-0.325,0.));
#1293=CARTESIAN_POINT('Origin',(0.,0.,5.4));
#1294=CARTESIAN_POINT('',(0.940691912445412,1.45586509344207,5.4));
#1295=CARTESIAN_POINT('Ctrl Pts',(-1.981818181818,2.427027292856E-16,1.949171839093));
#1296=CARTESIAN_POINT('Ctrl Pts',(-1.981818181819,0.944000157507,1.949171839093));
#1297=CARTESIAN_POINT('Ctrl Pts',(-1.493927754621,1.909769670036,1.949171839093));
#1298=CARTESIAN_POINT('Ctrl Pts',(-0.489917572033,2.600335963463,1.949171839093));
#1299=CARTESIAN_POINT('Ctrl Pts',(0.891727878605,2.706393785507,1.949171839093));
#1300=CARTESIAN_POINT('Ctrl Pts',(2.085305096093,1.970359428818,1.949171839093));
#1301=CARTESIAN_POINT('Ctrl Pts',(2.960668605698,0.895913704783,1.949171839093));
#1302=CARTESIAN_POINT('Ctrl Pts',(2.960668605724,-0.895913704798,1.949171839093));
#1303=CARTESIAN_POINT('Ctrl Pts',(2.085305096084,-1.970359428791,1.949171839093));
#1304=CARTESIAN_POINT('Ctrl Pts',(0.891727878599,-2.706393785531,1.949171839093));
#1305=CARTESIAN_POINT('Ctrl Pts',(-0.489917572023,-2.600335963452,1.949171839093));
#1306=CARTESIAN_POINT('Ctrl Pts',(-1.493927754626,-1.909769670038,1.949171839093));
#1307=CARTESIAN_POINT('Ctrl Pts',(-1.981818181818,-0.944000157507,1.949171839093));
#1308=CARTESIAN_POINT('Ctrl Pts',(-1.981818181818,2.427027292856E-16,1.949171839093));
#1309=CARTESIAN_POINT('Ctrl Pts',(-2.,-3.969183262819E-16,1.950831604419));
#1310=CARTESIAN_POINT('Ctrl Pts',(-2.000000000001,0.952660709411,1.950831604419));
#1311=CARTESIAN_POINT('Ctrl Pts',(-1.507633513838,1.927290492697,1.950831604419));
#1312=CARTESIAN_POINT('Ctrl Pts',(-0.494412228656,2.624192256705,1.950831604419));
#1313=CARTESIAN_POINT('Ctrl Pts',(0.899908868314,2.731223086294,1.950831604419));
#1314=CARTESIAN_POINT('Ctrl Pts',(2.104436335511,1.988436120822,1.950831604419));
#1315=CARTESIAN_POINT('Ctrl Pts',(2.987830702994,0.904133096573,1.950831604418));
#1316=CARTESIAN_POINT('Ctrl Pts',(2.987830703028,-0.904133096586,1.950831604419));
#1317=CARTESIAN_POINT('Ctrl Pts',(2.104436335494,-1.988436120799,1.950831604419));
#1318=CARTESIAN_POINT('Ctrl Pts',(0.899908868314,-2.731223086314,1.950831604419));
#1319=CARTESIAN_POINT('Ctrl Pts',(-0.49441222865,-2.624192256695,1.950831604419));
#1320=CARTESIAN_POINT('Ctrl Pts',(-1.507633513842,-1.927290492699,1.950831604419));
#1321=CARTESIAN_POINT('Ctrl Pts',(-2.,-0.952660709411,1.950831604419));
#1322=CARTESIAN_POINT('Ctrl Pts',(-2.,-3.969183262819E-16,1.950831604419));
#1323=CARTESIAN_POINT('Ctrl Pts',(-2.,2.449293598295E-16,1.969089023002));
#1324=CARTESIAN_POINT('Ctrl Pts',(-2.000000000001,0.952660709411,1.969089023002));
#1325=CARTESIAN_POINT('Ctrl Pts',(-1.507633513839,1.927290492696,1.969089023002));
#1326=CARTESIAN_POINT('Ctrl Pts',(-0.494412228655,2.624192256706,1.969089023002));
#1327=CARTESIAN_POINT('Ctrl Pts',(0.899908868311,2.731223086291,1.969089023002));
#1328=CARTESIAN_POINT('Ctrl Pts',(2.104436335515,1.988436120826,1.969089023002));
#1329=CARTESIAN_POINT('Ctrl Pts',(2.987830702988,0.904133096569,1.969089023002));
#1330=CARTESIAN_POINT('Ctrl Pts',(2.987830703034,-0.904133096585,1.969089023002));
#1331=CARTESIAN_POINT('Ctrl Pts',(2.10443633549,-1.988436120799,1.969089023002));
#1332=CARTESIAN_POINT('Ctrl Pts',(0.899908868316,-2.731223086315,1.969089023002));
#1333=CARTESIAN_POINT('Ctrl Pts',(-0.49441222865,-2.624192256695,1.969089023002));
#1334=CARTESIAN_POINT('Ctrl Pts',(-1.507633513842,-1.927290492699,1.969089023002));
#1335=CARTESIAN_POINT('Ctrl Pts',(-2.,-0.952660709411,1.969089023002));
#1336=CARTESIAN_POINT('Ctrl Pts',(-2.,2.449293598295E-16,1.969089023002));
#1337=CARTESIAN_POINT('Ctrl Pts',(-2.,2.449293598295E-16,1.530910976998));
#1338=CARTESIAN_POINT('Ctrl Pts',(-2.000000000001,0.952660709411,1.530910976998));
#1339=CARTESIAN_POINT('Ctrl Pts',(-1.507633513838,1.927290492697,1.530910976998));
#1340=CARTESIAN_POINT('Ctrl Pts',(-0.494412228655,2.624192256705,1.530910976998));
#1341=CARTESIAN_POINT('Ctrl Pts',(0.899908868313,2.731223086293,1.530910976998));
#1342=CARTESIAN_POINT('Ctrl Pts',(2.104436335512,1.988436120823,1.530910976998));
#1343=CARTESIAN_POINT('Ctrl Pts',(2.987830702991,0.904133096572,1.530910976998));
#1344=CARTESIAN_POINT('Ctrl Pts',(2.987830703031,-0.904133096587,1.530910976998));
#1345=CARTESIAN_POINT('Ctrl Pts',(2.104436335493,-1.988436120797,1.530910976998));
#1346=CARTESIAN_POINT('Ctrl Pts',(0.899908868314,-2.731223086316,1.530910976998));
#1347=CARTESIAN_POINT('Ctrl Pts',(-0.494412228649,-2.624192256695,1.530910976998));
#1348=CARTESIAN_POINT('Ctrl Pts',(-1.507633513843,-1.927290492699,1.530910976998));
#1349=CARTESIAN_POINT('Ctrl Pts',(-2.,-0.952660709411,1.530910976998));
#1350=CARTESIAN_POINT('Ctrl Pts',(-2.,2.449293598295E-16,1.530910976998));
#1351=CARTESIAN_POINT('Ctrl Pts',(-2.,-4.112297949588E-16,1.549168395581));
#1352=CARTESIAN_POINT('Ctrl Pts',(-2.000000000001,0.952660709411,1.549168395581));
#1353=CARTESIAN_POINT('Ctrl Pts',(-1.507633513838,1.927290492697,1.549168395581));
#1354=CARTESIAN_POINT('Ctrl Pts',(-0.494412228655,2.624192256706,1.549168395581));
#1355=CARTESIAN_POINT('Ctrl Pts',(0.899908868313,2.731223086293,1.549168395581));
#1356=CARTESIAN_POINT('Ctrl Pts',(2.104436335513,1.988436120823,1.549168395581));
#1357=CARTESIAN_POINT('Ctrl Pts',(2.98783070299,0.904133096573,1.549168395581));
#1358=CARTESIAN_POINT('Ctrl Pts',(2.987830703032,-0.904133096587,1.549168395581));
#1359=CARTESIAN_POINT('Ctrl Pts',(2.104436335492,-1.988436120798,1.549168395581));
#1360=CARTESIAN_POINT('Ctrl Pts',(0.899908868315,-2.731223086315,1.549168395581));
#1361=CARTESIAN_POINT('Ctrl Pts',(-0.49441222865,-2.624192256695,1.549168395581));
#1362=CARTESIAN_POINT('Ctrl Pts',(-1.507633513842,-1.927290492699,1.549168395581));
#1363=CARTESIAN_POINT('Ctrl Pts',(-2.,-0.952660709411,1.549168395581));
#1364=CARTESIAN_POINT('Ctrl Pts',(-2.,-4.112297949588E-16,1.549168395581));
#1365=CARTESIAN_POINT('Ctrl Pts',(-1.981818181818,2.427027292856E-16,1.550828160907));
#1366=CARTESIAN_POINT('Ctrl Pts',(-1.981818181819,0.944000157507,1.550828160907));
#1367=CARTESIAN_POINT('Ctrl Pts',(-1.493927754622,1.909769670036,1.550828160907));
#1368=CARTESIAN_POINT('Ctrl Pts',(-0.489917572031,2.600335963463,1.550828160907));
#1369=CARTESIAN_POINT('Ctrl Pts',(0.891727878601,2.706393785507,1.550828160907));
#1370=CARTESIAN_POINT('Ctrl Pts',(2.085305096099,1.970359428818,1.550828160907));
#1371=CARTESIAN_POINT('Ctrl Pts',(2.960668605691,0.895913704783,1.550828160907));
#1372=CARTESIAN_POINT('Ctrl Pts',(2.960668605731,-0.895913704798,1.550828160907));
#1373=CARTESIAN_POINT('Ctrl Pts',(2.085305096079,-1.970359428791,1.550828160907));
#1374=CARTESIAN_POINT('Ctrl Pts',(0.891727878603,-2.706393785531,1.550828160907));
#1375=CARTESIAN_POINT('Ctrl Pts',(-0.489917572025,-2.600335963452,1.550828160907));
#1376=CARTESIAN_POINT('Ctrl Pts',(-1.493927754626,-1.909769670038,1.550828160907));
#1377=CARTESIAN_POINT('Ctrl Pts',(-1.981818181818,-0.944000157507,1.550828160907));
#1378=CARTESIAN_POINT('Ctrl Pts',(-1.981818181818,2.427027292856E-16,1.550828160907));
#1379=CARTESIAN_POINT('Origin',(7.76954620761E-17,1.211196986137E-17,0.65));
#1380=CARTESIAN_POINT('',(0.46636895265422,2.15,0.65));
#1381=CARTESIAN_POINT('',(-0.466368952654219,2.15,0.65));
#1382=CARTESIAN_POINT('',(2.15,2.15,0.65));
#1383=CARTESIAN_POINT('',(-2.15000000000005,0.46636895265423,0.65));
#1384=CARTESIAN_POINT('Origin',(0.,0.,0.65));
#1385=CARTESIAN_POINT('',(-2.15000000000005,-0.46636895265423,0.65));
#1386=CARTESIAN_POINT('',(-2.15,1.211196986137E-17,0.65));
#1387=CARTESIAN_POINT('',(-0.466368952654221,-2.15,0.65));
#1388=CARTESIAN_POINT('Origin',(0.,0.,0.65));
#1389=CARTESIAN_POINT('',(0.46636895265422,-2.15,0.65));
#1390=CARTESIAN_POINT('',(-1.15,-2.15,0.65));
#1391=CARTESIAN_POINT('',(2.15,-0.46636895265422,0.65));
#1392=CARTESIAN_POINT('Origin',(0.,0.,0.65));
#1393=CARTESIAN_POINT('',(2.15000000000005,0.46636895265423,0.65));
#1394=CARTESIAN_POINT('',(2.15,1.211196986137E-17,0.65));
#1395=CARTESIAN_POINT('Origin',(0.,0.,0.65));
#1396=CARTESIAN_POINT('Origin',(0.,0.,0.65));
#1397=CARTESIAN_POINT('',(-2.15000000000005,0.466368952654231,0.85));
#1398=CARTESIAN_POINT('',(-2.15000000000009,0.46636895265402,0.65));
#1399=CARTESIAN_POINT('',(-0.466368952654219,2.15,0.85));
#1400=CARTESIAN_POINT('',(-0.466368952654,2.15,0.15));
#1401=CARTESIAN_POINT('Origin',(0.,0.,0.85));
#1402=CARTESIAN_POINT('Origin',(0.,0.,0.65));
#1403=CARTESIAN_POINT('',(2.15000000000005,0.466368952654229,1.15));
#1404=CARTESIAN_POINT('',(2.15000000000009,0.46636895265402,0.65));
#1405=CARTESIAN_POINT('',(0.46636895265422,2.15,1.15));
#1406=CARTESIAN_POINT('Origin',(0.,0.,1.15));
#1407=CARTESIAN_POINT('',(0.466368952654,2.15,0.15));
#1408=CARTESIAN_POINT('Origin',(2.15,-2.15,0.15));
#1409=CARTESIAN_POINT('',(2.15,0.325,0.15));
#1410=CARTESIAN_POINT('',(2.15,1.75,0.15));
#1411=CARTESIAN_POINT('',(2.15,-7.782291925643E-17,0.15));
#1412=CARTESIAN_POINT('',(2.15,1.75,1.15));
#1413=CARTESIAN_POINT('',(2.15,1.75,0.15));
#1414=CARTESIAN_POINT('',(2.15,-2.15,1.15));
#1415=CARTESIAN_POINT('',(2.15,-0.46636895265422,1.15));
#1416=CARTESIAN_POINT('',(2.15,-0.466368952654,0.15));
#1417=CARTESIAN_POINT('',(2.15,-1.75,1.15));
#1418=CARTESIAN_POINT('',(2.15,-7.782291925643E-17,1.15));
#1419=CARTESIAN_POINT('',(2.15,-1.75,0.15));
#1420=CARTESIAN_POINT('',(2.15,-1.75,0.15));
#1421=CARTESIAN_POINT('',(2.15,-0.325,0.15));
#1422=CARTESIAN_POINT('',(2.15,-7.782291925643E-17,0.15));
#1423=CARTESIAN_POINT('',(2.15,-2.15,0.15));
#1424=CARTESIAN_POINT('Origin',(0.,0.,0.65));
#1425=CARTESIAN_POINT('',(0.46636895265422,-2.15,1.15));
#1426=CARTESIAN_POINT('',(0.466368952654,-2.15,0.15));
#1427=CARTESIAN_POINT('Origin',(0.,0.,1.15));
#1428=CARTESIAN_POINT('Origin',(0.,0.,0.65));
#1429=CARTESIAN_POINT('',(-2.15000000000005,-0.46636895265423,0.85));
#1430=CARTESIAN_POINT('',(-2.15000000000009,-0.46636895265402,0.65));
#1431=CARTESIAN_POINT('',(-0.466368952654221,-2.15,0.85));
#1432=CARTESIAN_POINT('Origin',(0.,0.,0.85));
#1433=CARTESIAN_POINT('',(-0.466368952654,-2.15,0.15));
#1434=CARTESIAN_POINT('Origin',(-2.15,1.15,0.15));
#1435=CARTESIAN_POINT('',(-2.15,-1.15,0.15));
#1436=CARTESIAN_POINT('',(-2.15,-0.325,0.15));
#1437=CARTESIAN_POINT('',(-2.15,1.15,0.15));
#1438=CARTESIAN_POINT('',(-2.15,-1.15,0.85));
#1439=CARTESIAN_POINT('',(-2.15,-1.15,0.15));
#1440=CARTESIAN_POINT('',(-2.15,1.15,0.85));
#1441=CARTESIAN_POINT('',(-2.15,1.15,0.85));
#1442=CARTESIAN_POINT('',(-2.15,1.15,0.85));
#1443=CARTESIAN_POINT('',(-2.15,1.15,0.15));
#1444=CARTESIAN_POINT('',(-2.15,1.15,0.15));
#1445=CARTESIAN_POINT('',(-2.15,0.325,0.15));
#1446=CARTESIAN_POINT('',(-2.15,1.15,0.15));
#1447=CARTESIAN_POINT('',(-2.15,1.15,0.15));
#1448=CARTESIAN_POINT('Origin',(2.632990618167E-16,2.15,0.85));
#1449=CARTESIAN_POINT('',(-1.15,2.15,0.85));
#1450=CARTESIAN_POINT('',(-1.15,2.15,0.85));
#1451=CARTESIAN_POINT('',(2.15,2.15,0.85));
#1452=CARTESIAN_POINT('Origin',(0.182993329373,-7.782291925643E-17,1.15));
#1453=CARTESIAN_POINT('',(1.75,2.15,1.15));
#1454=CARTESIAN_POINT('Origin',(1.75,1.75,1.15));
#1455=CARTESIAN_POINT('',(2.15,2.15,1.15));
#1456=CARTESIAN_POINT('Origin',(1.696950161361,-3.852158475168E-16,0.15));
#1457=CARTESIAN_POINT('',(2.75,0.325,0.15));
#1458=CARTESIAN_POINT('',(2.75,0.325,0.15));
#1459=CARTESIAN_POINT('',(2.75,-0.325,0.15));
#1460=CARTESIAN_POINT('',(0.825,-0.325,0.15));
#1461=CARTESIAN_POINT('',(2.75,-3.852158475168E-16,0.15));
#1462=CARTESIAN_POINT('Origin',(1.75,1.75,0.15));
#1463=CARTESIAN_POINT('',(1.75,2.15,0.15));
#1464=CARTESIAN_POINT('Origin',(1.75,1.75,0.15));
#1465=CARTESIAN_POINT('',(1.75,2.15,0.15));
#1466=CARTESIAN_POINT('Origin',(1.75,-1.75,0.15));
#1467=CARTESIAN_POINT('',(1.75,-2.15,1.15));
#1468=CARTESIAN_POINT('',(1.75,-2.15,0.15));
#1469=CARTESIAN_POINT('',(1.75,-2.15,0.15));
#1470=CARTESIAN_POINT('Origin',(1.75,-1.75,0.15));
#1471=CARTESIAN_POINT('Origin',(1.75,-1.75,1.15));
#1472=CARTESIAN_POINT('Origin',(0.182993329373,-7.782291925643E-17,1.15));
#1473=CARTESIAN_POINT('',(-1.15,-2.15,1.15));
#1474=CARTESIAN_POINT('Origin',(2.632990618167E-16,2.15,0.85));
#1475=CARTESIAN_POINT('',(-1.15,-2.15,0.85));
#1476=CARTESIAN_POINT('',(-2.15,-1.15,0.85));
#1477=CARTESIAN_POINT('',(-1.15,-2.15,0.85));
#1478=CARTESIAN_POINT('Origin',(-1.696950161361,1.773993891745E-16,0.15));
#1479=CARTESIAN_POINT('',(-2.75,-0.325,0.15));
#1480=CARTESIAN_POINT('',(-2.75,-0.325,0.15));
#1481=CARTESIAN_POINT('',(-2.75,0.325,0.15));
#1482=CARTESIAN_POINT('',(-0.825,0.325,0.15));
#1483=CARTESIAN_POINT('',(-2.75,1.773993891745E-16,0.15));
#1484=CARTESIAN_POINT('Origin',(0.182993329373,-7.782291925643E-17,0.15));
#1485=CARTESIAN_POINT('',(-1.15,-2.15,0.15));
#1486=CARTESIAN_POINT('',(-2.15,-1.15,0.15));
#1487=CARTESIAN_POINT('',(-0.825,-0.325,0.15));
#1488=CARTESIAN_POINT('',(0.182993329373,-0.325,0.15));
#1489=CARTESIAN_POINT('',(-0.825,0.325,0.15));
#1490=CARTESIAN_POINT('Origin',(-0.825,1.010333609297E-16,0.15));
#1491=CARTESIAN_POINT('',(-0.825,0.325,0.15));
#1492=CARTESIAN_POINT('',(-1.15,2.15,0.15));
#1493=CARTESIAN_POINT('',(-1.15,2.15,0.15));
#1494=CARTESIAN_POINT('',(0.182993329373,2.15,0.15));
#1495=CARTESIAN_POINT('',(0.182993329373,0.325,0.15));
#1496=CARTESIAN_POINT('',(0.825,-0.325,0.15));
#1497=CARTESIAN_POINT('',(0.182993329373,-2.15,0.15));
#1498=CARTESIAN_POINT('Origin',(-1.15,2.15,0.15));
#1499=CARTESIAN_POINT('',(-1.15,2.15,0.15));
#1500=CARTESIAN_POINT('Origin',(2.75,-0.325,0.));
#1501=CARTESIAN_POINT('',(2.75,0.325,0.));
#1502=CARTESIAN_POINT('',(2.75,0.325,0.));
#1503=CARTESIAN_POINT('',(2.75,-0.325,0.));
#1504=CARTESIAN_POINT('',(2.75,-0.325000000000001,0.));
#1505=CARTESIAN_POINT('',(2.75,-3.852158475168E-16,0.));
#1506=CARTESIAN_POINT('Origin',(-2.15,-1.15,0.15));
#1507=CARTESIAN_POINT('',(-1.15,-2.15,0.15));
#1508=CARTESIAN_POINT('Origin',(-2.75,0.325,0.));
#1509=CARTESIAN_POINT('',(-2.75,-0.325,0.));
#1510=CARTESIAN_POINT('',(-2.75,-0.325,0.));
#1511=CARTESIAN_POINT('',(-2.75,0.325,0.));
#1512=CARTESIAN_POINT('',(-2.75,0.325,0.));
#1513=CARTESIAN_POINT('',(-2.75,1.773993891745E-16,0.));
#1514=CARTESIAN_POINT('Origin',(-1.15,-2.15,0.15));
#1515=CARTESIAN_POINT('Origin',(-2.75,-0.325,0.));
#1516=CARTESIAN_POINT('',(-0.825,-0.325,0.));
#1517=CARTESIAN_POINT('',(-0.825,-0.325,0.));
#1518=CARTESIAN_POINT('',(-2.75,-0.325,0.));
#1519=CARTESIAN_POINT('Origin',(-0.825,1.010333609297E-16,0.));
#1520=CARTESIAN_POINT('',(-0.825,0.325,0.));
#1521=CARTESIAN_POINT('Origin',(-0.825,1.010333609297E-16,0.));
#1522=CARTESIAN_POINT('',(-0.825,0.325,0.));
#1523=CARTESIAN_POINT('Origin',(2.15,2.15,0.15));
#1524=CARTESIAN_POINT('Origin',(2.75,0.325,0.));
#1525=CARTESIAN_POINT('',(2.75,0.325,0.));
#1526=CARTESIAN_POINT('Origin',(-1.696950161361,1.773993891745E-16,0.));
#1527=CARTESIAN_POINT('',(-1.696950161361,0.325,0.));
#1528=CARTESIAN_POINT('Origin',(1.696950161361,-3.852158475168E-16,0.));
#1529=CARTESIAN_POINT('',(1.696950161361,-0.325,0.));
#1530=CARTESIAN_POINT('Origin',(-0.825,0.325,0.));
#1531=CARTESIAN_POINT('Origin',(0.825,-0.325,0.));
#1532=CARTESIAN_POINT('Origin',(0.,0.,5.42));
#1533=CARTESIAN_POINT('',(0.940691912445412,1.45586509344207,5.42));
#1534=CARTESIAN_POINT('',(0.940691912445412,1.45586509344207,5.42));
#1535=CARTESIAN_POINT('',(0.940691912445412,-1.45586509344207,5.42));
#1536=CARTESIAN_POINT('Origin',(0.,0.,5.42));
#1537=CARTESIAN_POINT('',(0.940691912445412,-1.45586509344207,5.42));
#1538=CARTESIAN_POINT('Origin',(0.940691912445412,1.45586509344207,5.42));
#1539=CARTESIAN_POINT('',(0.940691912445412,1.45586509344207,5.42));
#1540=CARTESIAN_POINT('Origin',(0.,0.,5.42));
#1541=CARTESIAN_POINT('Origin',(0.,0.,0.));
#1542=CARTESIAN_POINT('',(0.01,-1.22464679914735E-18,0.));
#1543=CARTESIAN_POINT('Origin',(0.,0.,0.));
#1544=CARTESIAN_POINT('',(0.01,-1.22464679914735E-18,0.01));
#1545=CARTESIAN_POINT('',(0.01,-1.22464679914735E-18,0.));
#1546=CARTESIAN_POINT('Origin',(0.,0.,0.01));
#1547=UNCERTAINTY_MEASURE_WITH_UNIT(LENGTH_MEASURE(0.01),#1551,
'DISTANCE_ACCURACY_VALUE',
'Maximum model space distance between geometric entities at asserted c
onnectivities');
#1548=UNCERTAINTY_MEASURE_WITH_UNIT(LENGTH_MEASURE(0.01),#1551,
'DISTANCE_ACCURACY_VALUE',
'Maximum model space distance between geometric entities at asserted c
onnectivities');
#1549=(
GEOMETRIC_REPRESENTATION_CONTEXT(3)
GLOBAL_UNCERTAINTY_ASSIGNED_CONTEXT((#1547))
GLOBAL_UNIT_ASSIGNED_CONTEXT((#1551,#1553,#1554))
REPRESENTATION_CONTEXT('','3D')
);
#1550=(
GEOMETRIC_REPRESENTATION_CONTEXT(3)
GLOBAL_UNCERTAINTY_ASSIGNED_CONTEXT((#1548))
GLOBAL_UNIT_ASSIGNED_CONTEXT((#1551,#1553,#1554))
REPRESENTATION_CONTEXT('','3D')
);
#1551=(
LENGTH_UNIT()
NAMED_UNIT(*)
SI_UNIT(.MILLI.,.METRE.)
);
#1552=(
LENGTH_UNIT()
NAMED_UNIT(*)
SI_UNIT($,.METRE.)
);
#1553=(
NAMED_UNIT(*)
PLANE_ANGLE_UNIT()
SI_UNIT($,.RADIAN.)
);
#1554=(
NAMED_UNIT(*)
SI_UNIT($,.STERADIAN.)
SOLID_ANGLE_UNIT()
);
#1555=SHAPE_DEFINITION_REPRESENTATION(#1556,#1557);
#1556=PRODUCT_DEFINITION_SHAPE('',$,#1559);
#1557=SHAPE_REPRESENTATION('',(#818,#14),#1549);
#1558=PRODUCT_DEFINITION_CONTEXT('part definition',#1563,'design');
#1559=PRODUCT_DEFINITION('C_Elec_4x5.4','C_Elec_4x5.4',#1560,#1558);
#1560=PRODUCT_DEFINITION_FORMATION('',$,#1565);
#1561=PRODUCT_RELATED_PRODUCT_CATEGORY('C_Elec_4x5.4','C_Elec_4x5.4',(#1565));
#1562=APPLICATION_PROTOCOL_DEFINITION('international standard',
'automotive_design',2009,#1563);
#1563=APPLICATION_CONTEXT(
'Core Data for Automotive Mechanical Design Process');
#1564=PRODUCT_CONTEXT('part definition',#1563,'mechanical');
#1565=PRODUCT('C_Elec_4x5.4','C_Elec_4x5.4',$,(#1564));
#1566=PRESENTATION_STYLE_ASSIGNMENT((#1569));
#1567=PRESENTATION_STYLE_ASSIGNMENT((#1570));
#1568=PRESENTATION_STYLE_ASSIGNMENT((#1571));
#1569=SURFACE_STYLE_USAGE(.BOTH.,#1572);
#1570=SURFACE_STYLE_USAGE(.BOTH.,#1573);
#1571=SURFACE_STYLE_USAGE(.BOTH.,#1574);
#1572=SURFACE_SIDE_STYLE('',(#1575));
#1573=SURFACE_SIDE_STYLE('',(#1576));
#1574=SURFACE_SIDE_STYLE('',(#1577));
#1575=SURFACE_STYLE_FILL_AREA(#1578);
#1576=SURFACE_STYLE_FILL_AREA(#1579);
#1577=SURFACE_STYLE_FILL_AREA(#1580);
#1578=FILL_AREA_STYLE('Acier - Satin\X\E9',(#1581));
#1579=FILL_AREA_STYLE('Opaque(210,209,199)',(#1582));
#1580=FILL_AREA_STYLE('Opaque(37,36,36)',(#1583));
#1581=FILL_AREA_STYLE_COLOUR('Acier - Satin\X\E9',#1584);
#1582=FILL_AREA_STYLE_COLOUR('Opaque(210,209,199)',#1585);
#1583=FILL_AREA_STYLE_COLOUR('Opaque(37,36,36)',#1586);
#1584=COLOUR_RGB('Acier - Satin\X\E9',0.627450980392157,0.627450980392157,
0.627450980392157);
#1585=COLOUR_RGB('Opaque(210,209,199)',0.823529411764706,0.819607843137255,
0.780392156862745);
#1586=COLOUR_RGB('Opaque(37,36,36)',0.145098039215686,0.141176470588235,
0.141176470588235);
ENDSEC;
END-ISO-10303-21;
