ISO-10303-21;
HEADER;
/* Generated by software containing ST-Developer
 * from STEP Tools, Inc. (www.steptools.com) 
 */

FILE_DESCRIPTION(
/* description */ (''),
/* implementation_level */ '2;1');

FILE_NAME(
/* name */ 'ConPins.step',
/* time_stamp */ '2026-02-08T19:04:38+01:00',
/* author */ (''),
/* organization */ (''),
/* preprocessor_version */ 'ST-DEVELOPER v20.1',
/* originating_system */ 'Autodesk Translation Framework v14.24.0.0',
/* authorisation */ '');

FILE_SCHEMA (('AUTOMOTIVE_DESIGN { 1 0 10303 214 3 1 1 }'));
ENDSEC;

DATA;
#10=MECHANICAL_DESIGN_GEOMETRIC_PRESENTATION_REPRESENTATION('',(#13),#2007);
#11=SHAPE_REPRESENTATION_RELATIONSHIP('SRR','None',#2014,#12);
#12=ADVANCED_BREP_SHAPE_REPRESENTATION('',(#14),#2006);
#13=STYLED_ITEM('',(#2024),#14);
#14=MANIFOLD_SOLID_BREP('Corps1',#1259);
#15=FACE_OUTER_BOUND('',#85,.T.);
#16=FACE_OUTER_BOUND('',#86,.T.);
#17=FACE_OUTER_BOUND('',#87,.T.);
#18=FACE_OUTER_BOUND('',#88,.T.);
#19=FACE_OUTER_BOUND('',#89,.T.);
#20=FACE_OUTER_BOUND('',#90,.T.);
#21=FACE_OUTER_BOUND('',#91,.T.);
#22=FACE_OUTER_BOUND('',#92,.T.);
#23=FACE_OUTER_BOUND('',#93,.T.);
#24=FACE_OUTER_BOUND('',#94,.T.);
#25=FACE_OUTER_BOUND('',#95,.T.);
#26=FACE_OUTER_BOUND('',#96,.T.);
#27=FACE_OUTER_BOUND('',#97,.T.);
#28=FACE_OUTER_BOUND('',#98,.T.);
#29=FACE_OUTER_BOUND('',#99,.T.);
#30=FACE_OUTER_BOUND('',#100,.T.);
#31=FACE_OUTER_BOUND('',#101,.T.);
#32=FACE_OUTER_BOUND('',#102,.T.);
#33=FACE_OUTER_BOUND('',#103,.T.);
#34=FACE_OUTER_BOUND('',#104,.T.);
#35=FACE_OUTER_BOUND('',#105,.T.);
#36=FACE_OUTER_BOUND('',#106,.T.);
#37=FACE_OUTER_BOUND('',#107,.T.);
#38=FACE_OUTER_BOUND('',#108,.T.);
#39=FACE_OUTER_BOUND('',#109,.T.);
#40=FACE_OUTER_BOUND('',#110,.T.);
#41=FACE_OUTER_BOUND('',#111,.T.);
#42=FACE_OUTER_BOUND('',#112,.T.);
#43=FACE_OUTER_BOUND('',#113,.T.);
#44=FACE_OUTER_BOUND('',#114,.T.);
#45=FACE_OUTER_BOUND('',#115,.T.);
#46=FACE_OUTER_BOUND('',#116,.T.);
#47=FACE_OUTER_BOUND('',#117,.T.);
#48=FACE_OUTER_BOUND('',#118,.T.);
#49=FACE_OUTER_BOUND('',#119,.T.);
#50=FACE_OUTER_BOUND('',#120,.T.);
#51=FACE_OUTER_BOUND('',#121,.T.);
#52=FACE_OUTER_BOUND('',#122,.T.);
#53=FACE_OUTER_BOUND('',#123,.T.);
#54=FACE_OUTER_BOUND('',#124,.T.);
#55=FACE_OUTER_BOUND('',#125,.T.);
#56=FACE_OUTER_BOUND('',#126,.T.);
#57=FACE_OUTER_BOUND('',#127,.T.);
#58=FACE_OUTER_BOUND('',#128,.T.);
#59=FACE_OUTER_BOUND('',#129,.T.);
#60=FACE_OUTER_BOUND('',#130,.T.);
#61=FACE_OUTER_BOUND('',#131,.T.);
#62=FACE_OUTER_BOUND('',#132,.T.);
#63=FACE_OUTER_BOUND('',#133,.T.);
#64=FACE_OUTER_BOUND('',#134,.T.);
#65=FACE_OUTER_BOUND('',#135,.T.);
#66=FACE_OUTER_BOUND('',#136,.T.);
#67=FACE_OUTER_BOUND('',#137,.T.);
#68=FACE_OUTER_BOUND('',#138,.T.);
#69=FACE_OUTER_BOUND('',#139,.T.);
#70=FACE_OUTER_BOUND('',#140,.T.);
#71=FACE_OUTER_BOUND('',#141,.T.);
#72=FACE_OUTER_BOUND('',#142,.T.);
#73=FACE_OUTER_BOUND('',#143,.T.);
#74=FACE_OUTER_BOUND('',#144,.T.);
#75=FACE_OUTER_BOUND('',#145,.T.);
#76=FACE_OUTER_BOUND('',#146,.T.);
#77=FACE_OUTER_BOUND('',#147,.T.);
#78=FACE_OUTER_BOUND('',#148,.T.);
#79=FACE_OUTER_BOUND('',#149,.T.);
#80=FACE_OUTER_BOUND('',#150,.T.);
#81=FACE_OUTER_BOUND('',#151,.T.);
#82=FACE_OUTER_BOUND('',#152,.T.);
#83=FACE_OUTER_BOUND('',#153,.T.);
#84=FACE_OUTER_BOUND('',#154,.T.);
#85=EDGE_LOOP('',(#775,#776,#777,#778));
#86=EDGE_LOOP('',(#779,#780,#781,#782,#783,#784,#785,#786,#787,#788,#789,
#790,#791,#792,#793,#794,#795,#796,#797,#798));
#87=EDGE_LOOP('',(#799,#800,#801,#802));
#88=EDGE_LOOP('',(#803,#804,#805,#806,#807,#808,#809,#810,#811,#812,#813,
#814,#815,#816,#817,#818,#819,#820,#821,#822));
#89=EDGE_LOOP('',(#823,#824,#825,#826));
#90=EDGE_LOOP('',(#827,#828,#829,#830));
#91=EDGE_LOOP('',(#831,#832,#833,#834));
#92=EDGE_LOOP('',(#835,#836,#837,#838));
#93=EDGE_LOOP('',(#839,#840,#841,#842));
#94=EDGE_LOOP('',(#843,#844,#845,#846));
#95=EDGE_LOOP('',(#847,#848,#849,#850));
#96=EDGE_LOOP('',(#851,#852,#853,#854));
#97=EDGE_LOOP('',(#855,#856,#857,#858));
#98=EDGE_LOOP('',(#859,#860,#861,#862));
#99=EDGE_LOOP('',(#863,#864,#865,#866));
#100=EDGE_LOOP('',(#867,#868,#869,#870));
#101=EDGE_LOOP('',(#871,#872,#873,#874));
#102=EDGE_LOOP('',(#875,#876,#877,#878));
#103=EDGE_LOOP('',(#879,#880,#881,#882));
#104=EDGE_LOOP('',(#883,#884,#885,#886));
#105=EDGE_LOOP('',(#887,#888,#889,#890));
#106=EDGE_LOOP('',(#891,#892,#893,#894));
#107=EDGE_LOOP('',(#895,#896,#897,#898));
#108=EDGE_LOOP('',(#899,#900,#901,#902));
#109=EDGE_LOOP('',(#903,#904,#905,#906));
#110=EDGE_LOOP('',(#907,#908,#909,#910));
#111=EDGE_LOOP('',(#911,#912,#913,#914));
#112=EDGE_LOOP('',(#915,#916,#917,#918));
#113=EDGE_LOOP('',(#919,#920,#921,#922));
#114=EDGE_LOOP('',(#923,#924,#925,#926));
#115=EDGE_LOOP('',(#927,#928,#929,#930,#931,#932));
#116=EDGE_LOOP('',(#933,#934,#935,#936,#937,#938));
#117=EDGE_LOOP('',(#939,#940,#941,#942,#943,#944));
#118=EDGE_LOOP('',(#945,#946,#947,#948,#949,#950));
#119=EDGE_LOOP('',(#951,#952,#953,#954,#955,#956));
#120=EDGE_LOOP('',(#957,#958,#959,#960,#961,#962));
#121=EDGE_LOOP('',(#963,#964,#965,#966,#967,#968));
#122=EDGE_LOOP('',(#969,#970,#971,#972,#973,#974));
#123=EDGE_LOOP('',(#975,#976,#977,#978));
#124=EDGE_LOOP('',(#979,#980,#981,#982));
#125=EDGE_LOOP('',(#983,#984,#985,#986));
#126=EDGE_LOOP('',(#987,#988,#989,#990));
#127=EDGE_LOOP('',(#991,#992,#993,#994));
#128=EDGE_LOOP('',(#995,#996,#997,#998));
#129=EDGE_LOOP('',(#999,#1000,#1001,#1002));
#130=EDGE_LOOP('',(#1003,#1004,#1005,#1006));
#131=EDGE_LOOP('',(#1007,#1008,#1009,#1010));
#132=EDGE_LOOP('',(#1011,#1012,#1013,#1014));
#133=EDGE_LOOP('',(#1015,#1016,#1017,#1018));
#134=EDGE_LOOP('',(#1019,#1020,#1021,#1022));
#135=EDGE_LOOP('',(#1023,#1024,#1025,#1026));
#136=EDGE_LOOP('',(#1027,#1028,#1029,#1030));
#137=EDGE_LOOP('',(#1031,#1032,#1033,#1034));
#138=EDGE_LOOP('',(#1035,#1036,#1037,#1038));
#139=EDGE_LOOP('',(#1039,#1040,#1041,#1042));
#140=EDGE_LOOP('',(#1043,#1044,#1045,#1046));
#141=EDGE_LOOP('',(#1047,#1048,#1049,#1050));
#142=EDGE_LOOP('',(#1051,#1052,#1053,#1054));
#143=EDGE_LOOP('',(#1055,#1056,#1057,#1058));
#144=EDGE_LOOP('',(#1059,#1060,#1061,#1062));
#145=EDGE_LOOP('',(#1063,#1064,#1065,#1066));
#146=EDGE_LOOP('',(#1067,#1068,#1069,#1070));
#147=EDGE_LOOP('',(#1071,#1072,#1073,#1074,#1075,#1076));
#148=EDGE_LOOP('',(#1077,#1078,#1079,#1080,#1081,#1082));
#149=EDGE_LOOP('',(#1083,#1084,#1085,#1086,#1087,#1088));
#150=EDGE_LOOP('',(#1089,#1090,#1091,#1092,#1093,#1094));
#151=EDGE_LOOP('',(#1095,#1096,#1097,#1098,#1099,#1100));
#152=EDGE_LOOP('',(#1101,#1102,#1103,#1104,#1105,#1106));
#153=EDGE_LOOP('',(#1107,#1108,#1109,#1110,#1111,#1112));
#154=EDGE_LOOP('',(#1113,#1114,#1115,#1116,#1117,#1118));
#155=LINE('',#1661,#327);
#156=LINE('',#1663,#328);
#157=LINE('',#1665,#329);
#158=LINE('',#1666,#330);
#159=LINE('',#1670,#331);
#160=LINE('',#1671,#332);
#161=LINE('',#1673,#333);
#162=LINE('',#1675,#334);
#163=LINE('',#1677,#335);
#164=LINE('',#1679,#336);
#165=LINE('',#1681,#337);
#166=LINE('',#1683,#338);
#167=LINE('',#1685,#339);
#168=LINE('',#1687,#340);
#169=LINE('',#1689,#341);
#170=LINE('',#1691,#342);
#171=LINE('',#1693,#343);
#172=LINE('',#1695,#344);
#173=LINE('',#1697,#345);
#174=LINE('',#1699,#346);
#175=LINE('',#1701,#347);
#176=LINE('',#1703,#348);
#177=LINE('',#1704,#349);
#178=LINE('',#1707,#350);
#179=LINE('',#1708,#351);
#180=LINE('',#1712,#352);
#181=LINE('',#1714,#353);
#182=LINE('',#1716,#354);
#183=LINE('',#1718,#355);
#184=LINE('',#1720,#356);
#185=LINE('',#1722,#357);
#186=LINE('',#1724,#358);
#187=LINE('',#1726,#359);
#188=LINE('',#1728,#360);
#189=LINE('',#1730,#361);
#190=LINE('',#1732,#362);
#191=LINE('',#1734,#363);
#192=LINE('',#1736,#364);
#193=LINE('',#1738,#365);
#194=LINE('',#1740,#366);
#195=LINE('',#1742,#367);
#196=LINE('',#1743,#368);
#197=LINE('',#1744,#369);
#198=LINE('',#1746,#370);
#199=LINE('',#1748,#371);
#200=LINE('',#1751,#372);
#201=LINE('',#1753,#373);
#202=LINE('',#1754,#374);
#203=LINE('',#1756,#375);
#204=LINE('',#1757,#376);
#205=LINE('',#1760,#377);
#206=LINE('',#1762,#378);
#207=LINE('',#1763,#379);
#208=LINE('',#1765,#380);
#209=LINE('',#1766,#381);
#210=LINE('',#1769,#382);
#211=LINE('',#1771,#383);
#212=LINE('',#1772,#384);
#213=LINE('',#1774,#385);
#214=LINE('',#1775,#386);
#215=LINE('',#1778,#387);
#216=LINE('',#1780,#388);
#217=LINE('',#1781,#389);
#218=LINE('',#1783,#390);
#219=LINE('',#1784,#391);
#220=LINE('',#1787,#392);
#221=LINE('',#1789,#393);
#222=LINE('',#1790,#394);
#223=LINE('',#1792,#395);
#224=LINE('',#1793,#396);
#225=LINE('',#1796,#397);
#226=LINE('',#1798,#398);
#227=LINE('',#1799,#399);
#228=LINE('',#1801,#400);
#229=LINE('',#1802,#401);
#230=LINE('',#1805,#402);
#231=LINE('',#1807,#403);
#232=LINE('',#1808,#404);
#233=LINE('',#1810,#405);
#234=LINE('',#1811,#406);
#235=LINE('',#1814,#407);
#236=LINE('',#1816,#408);
#237=LINE('',#1817,#409);
#238=LINE('',#1819,#410);
#239=LINE('',#1823,#411);
#240=LINE('',#1824,#412);
#241=LINE('',#1825,#413);
#242=LINE('',#1829,#414);
#243=LINE('',#1830,#415);
#244=LINE('',#1831,#416);
#245=LINE('',#1835,#417);
#246=LINE('',#1836,#418);
#247=LINE('',#1837,#419);
#248=LINE('',#1841,#420);
#249=LINE('',#1842,#421);
#250=LINE('',#1843,#422);
#251=LINE('',#1847,#423);
#252=LINE('',#1848,#424);
#253=LINE('',#1849,#425);
#254=LINE('',#1853,#426);
#255=LINE('',#1854,#427);
#256=LINE('',#1855,#428);
#257=LINE('',#1859,#429);
#258=LINE('',#1860,#430);
#259=LINE('',#1861,#431);
#260=LINE('',#1865,#432);
#261=LINE('',#1866,#433);
#262=LINE('',#1867,#434);
#263=LINE('',#1870,#435);
#264=LINE('',#1872,#436);
#265=LINE('',#1873,#437);
#266=LINE('',#1876,#438);
#267=LINE('',#1878,#439);
#268=LINE('',#1879,#440);
#269=LINE('',#1882,#441);
#270=LINE('',#1884,#442);
#271=LINE('',#1885,#443);
#272=LINE('',#1888,#444);
#273=LINE('',#1890,#445);
#274=LINE('',#1891,#446);
#275=LINE('',#1894,#447);
#276=LINE('',#1896,#448);
#277=LINE('',#1897,#449);
#278=LINE('',#1900,#450);
#279=LINE('',#1902,#451);
#280=LINE('',#1903,#452);
#281=LINE('',#1906,#453);
#282=LINE('',#1908,#454);
#283=LINE('',#1909,#455);
#284=LINE('',#1912,#456);
#285=LINE('',#1914,#457);
#286=LINE('',#1915,#458);
#287=LINE('',#1918,#459);
#288=LINE('',#1919,#460);
#289=LINE('',#1922,#461);
#290=LINE('',#1923,#462);
#291=LINE('',#1925,#463);
#292=LINE('',#1928,#464);
#293=LINE('',#1929,#465);
#294=LINE('',#1932,#466);
#295=LINE('',#1933,#467);
#296=LINE('',#1935,#468);
#297=LINE('',#1938,#469);
#298=LINE('',#1939,#470);
#299=LINE('',#1942,#471);
#300=LINE('',#1943,#472);
#301=LINE('',#1945,#473);
#302=LINE('',#1948,#474);
#303=LINE('',#1949,#475);
#304=LINE('',#1952,#476);
#305=LINE('',#1953,#477);
#306=LINE('',#1955,#478);
#307=LINE('',#1958,#479);
#308=LINE('',#1959,#480);
#309=LINE('',#1962,#481);
#310=LINE('',#1963,#482);
#311=LINE('',#1965,#483);
#312=LINE('',#1968,#484);
#313=LINE('',#1969,#485);
#314=LINE('',#1972,#486);
#315=LINE('',#1973,#487);
#316=LINE('',#1975,#488);
#317=LINE('',#1978,#489);
#318=LINE('',#1979,#490);
#319=LINE('',#1982,#491);
#320=LINE('',#1983,#492);
#321=LINE('',#1985,#493);
#322=LINE('',#1988,#494);
#323=LINE('',#1989,#495);
#324=LINE('',#1992,#496);
#325=LINE('',#1993,#497);
#326=LINE('',#1995,#498);
#327=VECTOR('',#1347,1000.);
#328=VECTOR('',#1348,1000.);
#329=VECTOR('',#1349,1000.);
#330=VECTOR('',#1350,1000.);
#331=VECTOR('',#1353,1000.);
#332=VECTOR('',#1354,1000.);
#333=VECTOR('',#1355,1000.);
#334=VECTOR('',#1356,1000.);
#335=VECTOR('',#1357,1000.);
#336=VECTOR('',#1358,1000.);
#337=VECTOR('',#1359,1000.);
#338=VECTOR('',#1360,1000.);
#339=VECTOR('',#1361,1000.);
#340=VECTOR('',#1362,1000.);
#341=VECTOR('',#1363,1000.);
#342=VECTOR('',#1364,1000.);
#343=VECTOR('',#1365,1000.);
#344=VECTOR('',#1366,1000.);
#345=VECTOR('',#1367,1000.);
#346=VECTOR('',#1368,1000.);
#347=VECTOR('',#1369,1000.);
#348=VECTOR('',#1370,1000.);
#349=VECTOR('',#1371,1000.);
#350=VECTOR('',#1374,1000.);
#351=VECTOR('',#1375,1000.);
#352=VECTOR('',#1378,1000.);
#353=VECTOR('',#1379,1000.);
#354=VECTOR('',#1380,1000.);
#355=VECTOR('',#1381,1000.);
#356=VECTOR('',#1382,1000.);
#357=VECTOR('',#1383,1000.);
#358=VECTOR('',#1384,1000.);
#359=VECTOR('',#1385,1000.);
#360=VECTOR('',#1386,1000.);
#361=VECTOR('',#1387,1000.);
#362=VECTOR('',#1388,1000.);
#363=VECTOR('',#1389,1000.);
#364=VECTOR('',#1390,1000.);
#365=VECTOR('',#1391,1000.);
#366=VECTOR('',#1392,1000.);
#367=VECTOR('',#1393,1000.);
#368=VECTOR('',#1394,1000.);
#369=VECTOR('',#1395,1000.);
#370=VECTOR('',#1398,1000.);
#371=VECTOR('',#1401,1000.);
#372=VECTOR('',#1404,1000.);
#373=VECTOR('',#1405,1000.);
#374=VECTOR('',#1406,1000.);
#375=VECTOR('',#1409,1000.);
#376=VECTOR('',#1410,1000.);
#377=VECTOR('',#1413,1000.);
#378=VECTOR('',#1414,1000.);
#379=VECTOR('',#1415,1000.);
#380=VECTOR('',#1418,1000.);
#381=VECTOR('',#1419,1000.);
#382=VECTOR('',#1422,1000.);
#383=VECTOR('',#1423,1000.);
#384=VECTOR('',#1424,1000.);
#385=VECTOR('',#1427,1000.);
#386=VECTOR('',#1428,1000.);
#387=VECTOR('',#1431,1000.);
#388=VECTOR('',#1432,1000.);
#389=VECTOR('',#1433,1000.);
#390=VECTOR('',#1436,1000.);
#391=VECTOR('',#1437,1000.);
#392=VECTOR('',#1440,1000.);
#393=VECTOR('',#1441,1000.);
#394=VECTOR('',#1442,1000.);
#395=VECTOR('',#1445,1000.);
#396=VECTOR('',#1446,1000.);
#397=VECTOR('',#1449,1000.);
#398=VECTOR('',#1450,1000.);
#399=VECTOR('',#1451,1000.);
#400=VECTOR('',#1454,1000.);
#401=VECTOR('',#1455,1000.);
#402=VECTOR('',#1458,1000.);
#403=VECTOR('',#1459,1000.);
#404=VECTOR('',#1460,1000.);
#405=VECTOR('',#1463,1000.);
#406=VECTOR('',#1464,1000.);
#407=VECTOR('',#1467,1000.);
#408=VECTOR('',#1468,1000.);
#409=VECTOR('',#1469,1000.);
#410=VECTOR('',#1472,1000.);
#411=VECTOR('',#1475,1000.);
#412=VECTOR('',#1476,1000.);
#413=VECTOR('',#1477,1000.);
#414=VECTOR('',#1480,1000.);
#415=VECTOR('',#1481,1000.);
#416=VECTOR('',#1482,1000.);
#417=VECTOR('',#1485,1000.);
#418=VECTOR('',#1486,1000.);
#419=VECTOR('',#1487,1000.);
#420=VECTOR('',#1490,1000.);
#421=VECTOR('',#1491,1000.);
#422=VECTOR('',#1492,1000.);
#423=VECTOR('',#1495,1000.);
#424=VECTOR('',#1496,1000.);
#425=VECTOR('',#1497,1000.);
#426=VECTOR('',#1500,1000.);
#427=VECTOR('',#1501,1000.);
#428=VECTOR('',#1502,1000.);
#429=VECTOR('',#1505,1000.);
#430=VECTOR('',#1506,1000.);
#431=VECTOR('',#1507,1000.);
#432=VECTOR('',#1510,1000.);
#433=VECTOR('',#1511,1000.);
#434=VECTOR('',#1512,1000.);
#435=VECTOR('',#1515,1000.);
#436=VECTOR('',#1516,1000.);
#437=VECTOR('',#1517,1000.);
#438=VECTOR('',#1520,1000.);
#439=VECTOR('',#1521,1000.);
#440=VECTOR('',#1522,1000.);
#441=VECTOR('',#1525,1000.);
#442=VECTOR('',#1526,1000.);
#443=VECTOR('',#1527,1000.);
#444=VECTOR('',#1530,1000.);
#445=VECTOR('',#1531,1000.);
#446=VECTOR('',#1532,1000.);
#447=VECTOR('',#1535,1000.);
#448=VECTOR('',#1536,1000.);
#449=VECTOR('',#1537,1000.);
#450=VECTOR('',#1540,1000.);
#451=VECTOR('',#1541,1000.);
#452=VECTOR('',#1542,1000.);
#453=VECTOR('',#1545,1000.);
#454=VECTOR('',#1546,1000.);
#455=VECTOR('',#1547,1000.);
#456=VECTOR('',#1550,1000.);
#457=VECTOR('',#1551,1000.);
#458=VECTOR('',#1552,1000.);
#459=VECTOR('',#1555,1000.);
#460=VECTOR('',#1556,1000.);
#461=VECTOR('',#1559,1000.);
#462=VECTOR('',#1560,1000.);
#463=VECTOR('',#1563,1000.);
#464=VECTOR('',#1566,1000.);
#465=VECTOR('',#1567,1000.);
#466=VECTOR('',#1570,1000.);
#467=VECTOR('',#1571,1000.);
#468=VECTOR('',#1574,1000.);
#469=VECTOR('',#1577,1000.);
#470=VECTOR('',#1578,1000.);
#471=VECTOR('',#1581,1000.);
#472=VECTOR('',#1582,1000.);
#473=VECTOR('',#1585,1000.);
#474=VECTOR('',#1588,1000.);
#475=VECTOR('',#1589,1000.);
#476=VECTOR('',#1592,1000.);
#477=VECTOR('',#1593,1000.);
#478=VECTOR('',#1596,1000.);
#479=VECTOR('',#1599,1000.);
#480=VECTOR('',#1600,1000.);
#481=VECTOR('',#1603,1000.);
#482=VECTOR('',#1604,1000.);
#483=VECTOR('',#1607,1000.);
#484=VECTOR('',#1610,1000.);
#485=VECTOR('',#1611,1000.);
#486=VECTOR('',#1614,1000.);
#487=VECTOR('',#1615,1000.);
#488=VECTOR('',#1618,1000.);
#489=VECTOR('',#1621,1000.);
#490=VECTOR('',#1622,1000.);
#491=VECTOR('',#1625,1000.);
#492=VECTOR('',#1626,1000.);
#493=VECTOR('',#1629,1000.);
#494=VECTOR('',#1632,1000.);
#495=VECTOR('',#1633,1000.);
#496=VECTOR('',#1636,1000.);
#497=VECTOR('',#1637,1000.);
#498=VECTOR('',#1640,1000.);
#499=VERTEX_POINT('',#1659);
#500=VERTEX_POINT('',#1660);
#501=VERTEX_POINT('',#1662);
#502=VERTEX_POINT('',#1664);
#503=VERTEX_POINT('',#1668);
#504=VERTEX_POINT('',#1669);
#505=VERTEX_POINT('',#1672);
#506=VERTEX_POINT('',#1674);
#507=VERTEX_POINT('',#1676);
#508=VERTEX_POINT('',#1678);
#509=VERTEX_POINT('',#1680);
#510=VERTEX_POINT('',#1682);
#511=VERTEX_POINT('',#1684);
#512=VERTEX_POINT('',#1686);
#513=VERTEX_POINT('',#1688);
#514=VERTEX_POINT('',#1690);
#515=VERTEX_POINT('',#1692);
#516=VERTEX_POINT('',#1694);
#517=VERTEX_POINT('',#1696);
#518=VERTEX_POINT('',#1698);
#519=VERTEX_POINT('',#1700);
#520=VERTEX_POINT('',#1702);
#521=VERTEX_POINT('',#1706);
#522=VERTEX_POINT('',#1710);
#523=VERTEX_POINT('',#1711);
#524=VERTEX_POINT('',#1713);
#525=VERTEX_POINT('',#1715);
#526=VERTEX_POINT('',#1717);
#527=VERTEX_POINT('',#1719);
#528=VERTEX_POINT('',#1721);
#529=VERTEX_POINT('',#1723);
#530=VERTEX_POINT('',#1725);
#531=VERTEX_POINT('',#1727);
#532=VERTEX_POINT('',#1729);
#533=VERTEX_POINT('',#1731);
#534=VERTEX_POINT('',#1733);
#535=VERTEX_POINT('',#1735);
#536=VERTEX_POINT('',#1737);
#537=VERTEX_POINT('',#1739);
#538=VERTEX_POINT('',#1741);
#539=VERTEX_POINT('',#1750);
#540=VERTEX_POINT('',#1752);
#541=VERTEX_POINT('',#1759);
#542=VERTEX_POINT('',#1761);
#543=VERTEX_POINT('',#1768);
#544=VERTEX_POINT('',#1770);
#545=VERTEX_POINT('',#1777);
#546=VERTEX_POINT('',#1779);
#547=VERTEX_POINT('',#1786);
#548=VERTEX_POINT('',#1788);
#549=VERTEX_POINT('',#1795);
#550=VERTEX_POINT('',#1797);
#551=VERTEX_POINT('',#1804);
#552=VERTEX_POINT('',#1806);
#553=VERTEX_POINT('',#1813);
#554=VERTEX_POINT('',#1815);
#555=VERTEX_POINT('',#1821);
#556=VERTEX_POINT('',#1822);
#557=VERTEX_POINT('',#1827);
#558=VERTEX_POINT('',#1828);
#559=VERTEX_POINT('',#1833);
#560=VERTEX_POINT('',#1834);
#561=VERTEX_POINT('',#1839);
#562=VERTEX_POINT('',#1840);
#563=VERTEX_POINT('',#1845);
#564=VERTEX_POINT('',#1846);
#565=VERTEX_POINT('',#1851);
#566=VERTEX_POINT('',#1852);
#567=VERTEX_POINT('',#1857);
#568=VERTEX_POINT('',#1858);
#569=VERTEX_POINT('',#1863);
#570=VERTEX_POINT('',#1864);
#571=VERTEX_POINT('',#1869);
#572=VERTEX_POINT('',#1871);
#573=VERTEX_POINT('',#1875);
#574=VERTEX_POINT('',#1877);
#575=VERTEX_POINT('',#1881);
#576=VERTEX_POINT('',#1883);
#577=VERTEX_POINT('',#1887);
#578=VERTEX_POINT('',#1889);
#579=VERTEX_POINT('',#1893);
#580=VERTEX_POINT('',#1895);
#581=VERTEX_POINT('',#1899);
#582=VERTEX_POINT('',#1901);
#583=VERTEX_POINT('',#1905);
#584=VERTEX_POINT('',#1907);
#585=VERTEX_POINT('',#1911);
#586=VERTEX_POINT('',#1913);
#587=VERTEX_POINT('',#1917);
#588=VERTEX_POINT('',#1921);
#589=VERTEX_POINT('',#1927);
#590=VERTEX_POINT('',#1931);
#591=VERTEX_POINT('',#1937);
#592=VERTEX_POINT('',#1941);
#593=VERTEX_POINT('',#1947);
#594=VERTEX_POINT('',#1951);
#595=VERTEX_POINT('',#1957);
#596=VERTEX_POINT('',#1961);
#597=VERTEX_POINT('',#1967);
#598=VERTEX_POINT('',#1971);
#599=VERTEX_POINT('',#1977);
#600=VERTEX_POINT('',#1981);
#601=VERTEX_POINT('',#1987);
#602=VERTEX_POINT('',#1991);
#603=EDGE_CURVE('',#499,#500,#155,.T.);
#604=EDGE_CURVE('',#500,#501,#156,.T.);
#605=EDGE_CURVE('',#501,#502,#157,.T.);
#606=EDGE_CURVE('',#502,#499,#158,.T.);
#607=EDGE_CURVE('',#503,#504,#159,.T.);
#608=EDGE_CURVE('',#504,#501,#160,.T.);
#609=EDGE_CURVE('',#500,#505,#161,.T.);
#610=EDGE_CURVE('',#505,#506,#162,.T.);
#611=EDGE_CURVE('',#506,#507,#163,.T.);
#612=EDGE_CURVE('',#507,#508,#164,.T.);
#613=EDGE_CURVE('',#508,#509,#165,.T.);
#614=EDGE_CURVE('',#509,#510,#166,.T.);
#615=EDGE_CURVE('',#510,#511,#167,.T.);
#616=EDGE_CURVE('',#511,#512,#168,.T.);
#617=EDGE_CURVE('',#512,#513,#169,.T.);
#618=EDGE_CURVE('',#513,#514,#170,.T.);
#619=EDGE_CURVE('',#514,#515,#171,.T.);
#620=EDGE_CURVE('',#515,#516,#172,.T.);
#621=EDGE_CURVE('',#516,#517,#173,.T.);
#622=EDGE_CURVE('',#517,#518,#174,.T.);
#623=EDGE_CURVE('',#518,#519,#175,.T.);
#624=EDGE_CURVE('',#519,#520,#176,.T.);
#625=EDGE_CURVE('',#520,#503,#177,.T.);
#626=EDGE_CURVE('',#521,#505,#178,.T.);
#627=EDGE_CURVE('',#499,#521,#179,.T.);
#628=EDGE_CURVE('',#522,#523,#180,.T.);
#629=EDGE_CURVE('',#524,#522,#181,.T.);
#630=EDGE_CURVE('',#525,#524,#182,.T.);
#631=EDGE_CURVE('',#526,#525,#183,.T.);
#632=EDGE_CURVE('',#527,#526,#184,.T.);
#633=EDGE_CURVE('',#528,#527,#185,.T.);
#634=EDGE_CURVE('',#529,#528,#186,.T.);
#635=EDGE_CURVE('',#530,#529,#187,.T.);
#636=EDGE_CURVE('',#531,#530,#188,.T.);
#637=EDGE_CURVE('',#532,#531,#189,.T.);
#638=EDGE_CURVE('',#533,#532,#190,.T.);
#639=EDGE_CURVE('',#534,#533,#191,.T.);
#640=EDGE_CURVE('',#535,#534,#192,.T.);
#641=EDGE_CURVE('',#536,#535,#193,.T.);
#642=EDGE_CURVE('',#537,#536,#194,.T.);
#643=EDGE_CURVE('',#538,#537,#195,.T.);
#644=EDGE_CURVE('',#521,#538,#196,.T.);
#645=EDGE_CURVE('',#523,#502,#197,.T.);
#646=EDGE_CURVE('',#504,#523,#198,.T.);
#647=EDGE_CURVE('',#503,#522,#199,.T.);
#648=EDGE_CURVE('',#539,#520,#200,.T.);
#649=EDGE_CURVE('',#540,#539,#201,.T.);
#650=EDGE_CURVE('',#540,#503,#202,.T.);
#651=EDGE_CURVE('',#520,#524,#203,.T.);
#652=EDGE_CURVE('',#519,#525,#204,.T.);
#653=EDGE_CURVE('',#541,#518,#205,.T.);
#654=EDGE_CURVE('',#542,#541,#206,.T.);
#655=EDGE_CURVE('',#542,#519,#207,.T.);
#656=EDGE_CURVE('',#518,#526,#208,.T.);
#657=EDGE_CURVE('',#517,#527,#209,.T.);
#658=EDGE_CURVE('',#543,#516,#210,.T.);
#659=EDGE_CURVE('',#544,#543,#211,.T.);
#660=EDGE_CURVE('',#544,#517,#212,.T.);
#661=EDGE_CURVE('',#516,#528,#213,.T.);
#662=EDGE_CURVE('',#515,#529,#214,.T.);
#663=EDGE_CURVE('',#545,#514,#215,.T.);
#664=EDGE_CURVE('',#546,#545,#216,.T.);
#665=EDGE_CURVE('',#546,#515,#217,.T.);
#666=EDGE_CURVE('',#514,#530,#218,.T.);
#667=EDGE_CURVE('',#513,#531,#219,.T.);
#668=EDGE_CURVE('',#547,#512,#220,.T.);
#669=EDGE_CURVE('',#548,#547,#221,.T.);
#670=EDGE_CURVE('',#548,#513,#222,.T.);
#671=EDGE_CURVE('',#512,#532,#223,.T.);
#672=EDGE_CURVE('',#511,#533,#224,.T.);
#673=EDGE_CURVE('',#549,#510,#225,.T.);
#674=EDGE_CURVE('',#550,#549,#226,.T.);
#675=EDGE_CURVE('',#550,#511,#227,.T.);
#676=EDGE_CURVE('',#510,#534,#228,.T.);
#677=EDGE_CURVE('',#509,#535,#229,.T.);
#678=EDGE_CURVE('',#551,#508,#230,.T.);
#679=EDGE_CURVE('',#552,#551,#231,.T.);
#680=EDGE_CURVE('',#552,#509,#232,.T.);
#681=EDGE_CURVE('',#508,#536,#233,.T.);
#682=EDGE_CURVE('',#507,#537,#234,.T.);
#683=EDGE_CURVE('',#553,#506,#235,.T.);
#684=EDGE_CURVE('',#554,#553,#236,.T.);
#685=EDGE_CURVE('',#554,#507,#237,.T.);
#686=EDGE_CURVE('',#506,#538,#238,.T.);
#687=EDGE_CURVE('',#555,#556,#239,.T.);
#688=EDGE_CURVE('',#524,#556,#240,.T.);
#689=EDGE_CURVE('',#522,#555,#241,.T.);
#690=EDGE_CURVE('',#557,#558,#242,.T.);
#691=EDGE_CURVE('',#526,#558,#243,.T.);
#692=EDGE_CURVE('',#525,#557,#244,.T.);
#693=EDGE_CURVE('',#559,#560,#245,.T.);
#694=EDGE_CURVE('',#528,#560,#246,.T.);
#695=EDGE_CURVE('',#527,#559,#247,.T.);
#696=EDGE_CURVE('',#561,#562,#248,.T.);
#697=EDGE_CURVE('',#530,#562,#249,.T.);
#698=EDGE_CURVE('',#529,#561,#250,.T.);
#699=EDGE_CURVE('',#563,#564,#251,.T.);
#700=EDGE_CURVE('',#532,#564,#252,.T.);
#701=EDGE_CURVE('',#531,#563,#253,.T.);
#702=EDGE_CURVE('',#565,#566,#254,.T.);
#703=EDGE_CURVE('',#534,#566,#255,.T.);
#704=EDGE_CURVE('',#533,#565,#256,.T.);
#705=EDGE_CURVE('',#567,#568,#257,.T.);
#706=EDGE_CURVE('',#536,#568,#258,.T.);
#707=EDGE_CURVE('',#535,#567,#259,.T.);
#708=EDGE_CURVE('',#569,#570,#260,.T.);
#709=EDGE_CURVE('',#538,#570,#261,.T.);
#710=EDGE_CURVE('',#537,#569,#262,.T.);
#711=EDGE_CURVE('',#540,#571,#263,.T.);
#712=EDGE_CURVE('',#571,#572,#264,.T.);
#713=EDGE_CURVE('',#572,#555,#265,.T.);
#714=EDGE_CURVE('',#542,#573,#266,.T.);
#715=EDGE_CURVE('',#573,#574,#267,.T.);
#716=EDGE_CURVE('',#574,#557,#268,.T.);
#717=EDGE_CURVE('',#544,#575,#269,.T.);
#718=EDGE_CURVE('',#575,#576,#270,.T.);
#719=EDGE_CURVE('',#576,#559,#271,.T.);
#720=EDGE_CURVE('',#546,#577,#272,.T.);
#721=EDGE_CURVE('',#577,#578,#273,.T.);
#722=EDGE_CURVE('',#578,#561,#274,.T.);
#723=EDGE_CURVE('',#548,#579,#275,.T.);
#724=EDGE_CURVE('',#579,#580,#276,.T.);
#725=EDGE_CURVE('',#580,#563,#277,.T.);
#726=EDGE_CURVE('',#550,#581,#278,.T.);
#727=EDGE_CURVE('',#581,#582,#279,.T.);
#728=EDGE_CURVE('',#582,#565,#280,.T.);
#729=EDGE_CURVE('',#552,#583,#281,.T.);
#730=EDGE_CURVE('',#583,#584,#282,.T.);
#731=EDGE_CURVE('',#584,#567,#283,.T.);
#732=EDGE_CURVE('',#554,#585,#284,.T.);
#733=EDGE_CURVE('',#585,#586,#285,.T.);
#734=EDGE_CURVE('',#586,#569,#286,.T.);
#735=EDGE_CURVE('',#587,#571,#287,.T.);
#736=EDGE_CURVE('',#539,#587,#288,.T.);
#737=EDGE_CURVE('',#588,#572,#289,.T.);
#738=EDGE_CURVE('',#556,#588,#290,.T.);
#739=EDGE_CURVE('',#587,#588,#291,.T.);
#740=EDGE_CURVE('',#589,#573,#292,.T.);
#741=EDGE_CURVE('',#541,#589,#293,.T.);
#742=EDGE_CURVE('',#590,#574,#294,.T.);
#743=EDGE_CURVE('',#558,#590,#295,.T.);
#744=EDGE_CURVE('',#589,#590,#296,.T.);
#745=EDGE_CURVE('',#591,#575,#297,.T.);
#746=EDGE_CURVE('',#543,#591,#298,.T.);
#747=EDGE_CURVE('',#592,#576,#299,.T.);
#748=EDGE_CURVE('',#560,#592,#300,.T.);
#749=EDGE_CURVE('',#591,#592,#301,.T.);
#750=EDGE_CURVE('',#593,#577,#302,.T.);
#751=EDGE_CURVE('',#545,#593,#303,.T.);
#752=EDGE_CURVE('',#594,#578,#304,.T.);
#753=EDGE_CURVE('',#562,#594,#305,.T.);
#754=EDGE_CURVE('',#593,#594,#306,.T.);
#755=EDGE_CURVE('',#595,#579,#307,.T.);
#756=EDGE_CURVE('',#547,#595,#308,.T.);
#757=EDGE_CURVE('',#596,#580,#309,.T.);
#758=EDGE_CURVE('',#564,#596,#310,.T.);
#759=EDGE_CURVE('',#595,#596,#311,.T.);
#760=EDGE_CURVE('',#597,#581,#312,.T.);
#761=EDGE_CURVE('',#549,#597,#313,.T.);
#762=EDGE_CURVE('',#598,#582,#314,.T.);
#763=EDGE_CURVE('',#566,#598,#315,.T.);
#764=EDGE_CURVE('',#597,#598,#316,.T.);
#765=EDGE_CURVE('',#599,#583,#317,.T.);
#766=EDGE_CURVE('',#551,#599,#318,.T.);
#767=EDGE_CURVE('',#600,#584,#319,.T.);
#768=EDGE_CURVE('',#568,#600,#320,.T.);
#769=EDGE_CURVE('',#599,#600,#321,.T.);
#770=EDGE_CURVE('',#601,#585,#322,.T.);
#771=EDGE_CURVE('',#553,#601,#323,.T.);
#772=EDGE_CURVE('',#602,#586,#324,.T.);
#773=EDGE_CURVE('',#570,#602,#325,.T.);
#774=EDGE_CURVE('',#601,#602,#326,.T.);
#775=ORIENTED_EDGE('',*,*,#603,.T.);
#776=ORIENTED_EDGE('',*,*,#604,.T.);
#777=ORIENTED_EDGE('',*,*,#605,.T.);
#778=ORIENTED_EDGE('',*,*,#606,.T.);
#779=ORIENTED_EDGE('',*,*,#607,.T.);
#780=ORIENTED_EDGE('',*,*,#608,.T.);
#781=ORIENTED_EDGE('',*,*,#604,.F.);
#782=ORIENTED_EDGE('',*,*,#609,.T.);
#783=ORIENTED_EDGE('',*,*,#610,.T.);
#784=ORIENTED_EDGE('',*,*,#611,.T.);
#785=ORIENTED_EDGE('',*,*,#612,.T.);
#786=ORIENTED_EDGE('',*,*,#613,.T.);
#787=ORIENTED_EDGE('',*,*,#614,.T.);
#788=ORIENTED_EDGE('',*,*,#615,.T.);
#789=ORIENTED_EDGE('',*,*,#616,.T.);
#790=ORIENTED_EDGE('',*,*,#617,.T.);
#791=ORIENTED_EDGE('',*,*,#618,.T.);
#792=ORIENTED_EDGE('',*,*,#619,.T.);
#793=ORIENTED_EDGE('',*,*,#620,.T.);
#794=ORIENTED_EDGE('',*,*,#621,.T.);
#795=ORIENTED_EDGE('',*,*,#622,.T.);
#796=ORIENTED_EDGE('',*,*,#623,.T.);
#797=ORIENTED_EDGE('',*,*,#624,.T.);
#798=ORIENTED_EDGE('',*,*,#625,.T.);
#799=ORIENTED_EDGE('',*,*,#626,.T.);
#800=ORIENTED_EDGE('',*,*,#609,.F.);
#801=ORIENTED_EDGE('',*,*,#603,.F.);
#802=ORIENTED_EDGE('',*,*,#627,.T.);
#803=ORIENTED_EDGE('',*,*,#628,.F.);
#804=ORIENTED_EDGE('',*,*,#629,.F.);
#805=ORIENTED_EDGE('',*,*,#630,.F.);
#806=ORIENTED_EDGE('',*,*,#631,.F.);
#807=ORIENTED_EDGE('',*,*,#632,.F.);
#808=ORIENTED_EDGE('',*,*,#633,.F.);
#809=ORIENTED_EDGE('',*,*,#634,.F.);
#810=ORIENTED_EDGE('',*,*,#635,.F.);
#811=ORIENTED_EDGE('',*,*,#636,.F.);
#812=ORIENTED_EDGE('',*,*,#637,.F.);
#813=ORIENTED_EDGE('',*,*,#638,.F.);
#814=ORIENTED_EDGE('',*,*,#639,.F.);
#815=ORIENTED_EDGE('',*,*,#640,.F.);
#816=ORIENTED_EDGE('',*,*,#641,.F.);
#817=ORIENTED_EDGE('',*,*,#642,.F.);
#818=ORIENTED_EDGE('',*,*,#643,.F.);
#819=ORIENTED_EDGE('',*,*,#644,.F.);
#820=ORIENTED_EDGE('',*,*,#627,.F.);
#821=ORIENTED_EDGE('',*,*,#606,.F.);
#822=ORIENTED_EDGE('',*,*,#645,.F.);
#823=ORIENTED_EDGE('',*,*,#605,.F.);
#824=ORIENTED_EDGE('',*,*,#608,.F.);
#825=ORIENTED_EDGE('',*,*,#646,.T.);
#826=ORIENTED_EDGE('',*,*,#645,.T.);
#827=ORIENTED_EDGE('',*,*,#628,.T.);
#828=ORIENTED_EDGE('',*,*,#646,.F.);
#829=ORIENTED_EDGE('',*,*,#607,.F.);
#830=ORIENTED_EDGE('',*,*,#647,.T.);
#831=ORIENTED_EDGE('',*,*,#625,.F.);
#832=ORIENTED_EDGE('',*,*,#648,.F.);
#833=ORIENTED_EDGE('',*,*,#649,.F.);
#834=ORIENTED_EDGE('',*,*,#650,.T.);
#835=ORIENTED_EDGE('',*,*,#630,.T.);
#836=ORIENTED_EDGE('',*,*,#651,.F.);
#837=ORIENTED_EDGE('',*,*,#624,.F.);
#838=ORIENTED_EDGE('',*,*,#652,.T.);
#839=ORIENTED_EDGE('',*,*,#623,.F.);
#840=ORIENTED_EDGE('',*,*,#653,.F.);
#841=ORIENTED_EDGE('',*,*,#654,.F.);
#842=ORIENTED_EDGE('',*,*,#655,.T.);
#843=ORIENTED_EDGE('',*,*,#632,.T.);
#844=ORIENTED_EDGE('',*,*,#656,.F.);
#845=ORIENTED_EDGE('',*,*,#622,.F.);
#846=ORIENTED_EDGE('',*,*,#657,.T.);
#847=ORIENTED_EDGE('',*,*,#621,.F.);
#848=ORIENTED_EDGE('',*,*,#658,.F.);
#849=ORIENTED_EDGE('',*,*,#659,.F.);
#850=ORIENTED_EDGE('',*,*,#660,.T.);
#851=ORIENTED_EDGE('',*,*,#634,.T.);
#852=ORIENTED_EDGE('',*,*,#661,.F.);
#853=ORIENTED_EDGE('',*,*,#620,.F.);
#854=ORIENTED_EDGE('',*,*,#662,.T.);
#855=ORIENTED_EDGE('',*,*,#619,.F.);
#856=ORIENTED_EDGE('',*,*,#663,.F.);
#857=ORIENTED_EDGE('',*,*,#664,.F.);
#858=ORIENTED_EDGE('',*,*,#665,.T.);
#859=ORIENTED_EDGE('',*,*,#636,.T.);
#860=ORIENTED_EDGE('',*,*,#666,.F.);
#861=ORIENTED_EDGE('',*,*,#618,.F.);
#862=ORIENTED_EDGE('',*,*,#667,.T.);
#863=ORIENTED_EDGE('',*,*,#617,.F.);
#864=ORIENTED_EDGE('',*,*,#668,.F.);
#865=ORIENTED_EDGE('',*,*,#669,.F.);
#866=ORIENTED_EDGE('',*,*,#670,.T.);
#867=ORIENTED_EDGE('',*,*,#638,.T.);
#868=ORIENTED_EDGE('',*,*,#671,.F.);
#869=ORIENTED_EDGE('',*,*,#616,.F.);
#870=ORIENTED_EDGE('',*,*,#672,.T.);
#871=ORIENTED_EDGE('',*,*,#615,.F.);
#872=ORIENTED_EDGE('',*,*,#673,.F.);
#873=ORIENTED_EDGE('',*,*,#674,.F.);
#874=ORIENTED_EDGE('',*,*,#675,.T.);
#875=ORIENTED_EDGE('',*,*,#640,.T.);
#876=ORIENTED_EDGE('',*,*,#676,.F.);
#877=ORIENTED_EDGE('',*,*,#614,.F.);
#878=ORIENTED_EDGE('',*,*,#677,.T.);
#879=ORIENTED_EDGE('',*,*,#613,.F.);
#880=ORIENTED_EDGE('',*,*,#678,.F.);
#881=ORIENTED_EDGE('',*,*,#679,.F.);
#882=ORIENTED_EDGE('',*,*,#680,.T.);
#883=ORIENTED_EDGE('',*,*,#642,.T.);
#884=ORIENTED_EDGE('',*,*,#681,.F.);
#885=ORIENTED_EDGE('',*,*,#612,.F.);
#886=ORIENTED_EDGE('',*,*,#682,.T.);
#887=ORIENTED_EDGE('',*,*,#611,.F.);
#888=ORIENTED_EDGE('',*,*,#683,.F.);
#889=ORIENTED_EDGE('',*,*,#684,.F.);
#890=ORIENTED_EDGE('',*,*,#685,.T.);
#891=ORIENTED_EDGE('',*,*,#644,.T.);
#892=ORIENTED_EDGE('',*,*,#686,.F.);
#893=ORIENTED_EDGE('',*,*,#610,.F.);
#894=ORIENTED_EDGE('',*,*,#626,.F.);
#895=ORIENTED_EDGE('',*,*,#687,.T.);
#896=ORIENTED_EDGE('',*,*,#688,.F.);
#897=ORIENTED_EDGE('',*,*,#629,.T.);
#898=ORIENTED_EDGE('',*,*,#689,.T.);
#899=ORIENTED_EDGE('',*,*,#690,.T.);
#900=ORIENTED_EDGE('',*,*,#691,.F.);
#901=ORIENTED_EDGE('',*,*,#631,.T.);
#902=ORIENTED_EDGE('',*,*,#692,.T.);
#903=ORIENTED_EDGE('',*,*,#693,.T.);
#904=ORIENTED_EDGE('',*,*,#694,.F.);
#905=ORIENTED_EDGE('',*,*,#633,.T.);
#906=ORIENTED_EDGE('',*,*,#695,.T.);
#907=ORIENTED_EDGE('',*,*,#696,.T.);
#908=ORIENTED_EDGE('',*,*,#697,.F.);
#909=ORIENTED_EDGE('',*,*,#635,.T.);
#910=ORIENTED_EDGE('',*,*,#698,.T.);
#911=ORIENTED_EDGE('',*,*,#699,.T.);
#912=ORIENTED_EDGE('',*,*,#700,.F.);
#913=ORIENTED_EDGE('',*,*,#637,.T.);
#914=ORIENTED_EDGE('',*,*,#701,.T.);
#915=ORIENTED_EDGE('',*,*,#702,.T.);
#916=ORIENTED_EDGE('',*,*,#703,.F.);
#917=ORIENTED_EDGE('',*,*,#639,.T.);
#918=ORIENTED_EDGE('',*,*,#704,.T.);
#919=ORIENTED_EDGE('',*,*,#705,.T.);
#920=ORIENTED_EDGE('',*,*,#706,.F.);
#921=ORIENTED_EDGE('',*,*,#641,.T.);
#922=ORIENTED_EDGE('',*,*,#707,.T.);
#923=ORIENTED_EDGE('',*,*,#708,.T.);
#924=ORIENTED_EDGE('',*,*,#709,.F.);
#925=ORIENTED_EDGE('',*,*,#643,.T.);
#926=ORIENTED_EDGE('',*,*,#710,.T.);
#927=ORIENTED_EDGE('',*,*,#650,.F.);
#928=ORIENTED_EDGE('',*,*,#711,.T.);
#929=ORIENTED_EDGE('',*,*,#712,.T.);
#930=ORIENTED_EDGE('',*,*,#713,.T.);
#931=ORIENTED_EDGE('',*,*,#689,.F.);
#932=ORIENTED_EDGE('',*,*,#647,.F.);
#933=ORIENTED_EDGE('',*,*,#655,.F.);
#934=ORIENTED_EDGE('',*,*,#714,.T.);
#935=ORIENTED_EDGE('',*,*,#715,.T.);
#936=ORIENTED_EDGE('',*,*,#716,.T.);
#937=ORIENTED_EDGE('',*,*,#692,.F.);
#938=ORIENTED_EDGE('',*,*,#652,.F.);
#939=ORIENTED_EDGE('',*,*,#660,.F.);
#940=ORIENTED_EDGE('',*,*,#717,.T.);
#941=ORIENTED_EDGE('',*,*,#718,.T.);
#942=ORIENTED_EDGE('',*,*,#719,.T.);
#943=ORIENTED_EDGE('',*,*,#695,.F.);
#944=ORIENTED_EDGE('',*,*,#657,.F.);
#945=ORIENTED_EDGE('',*,*,#665,.F.);
#946=ORIENTED_EDGE('',*,*,#720,.T.);
#947=ORIENTED_EDGE('',*,*,#721,.T.);
#948=ORIENTED_EDGE('',*,*,#722,.T.);
#949=ORIENTED_EDGE('',*,*,#698,.F.);
#950=ORIENTED_EDGE('',*,*,#662,.F.);
#951=ORIENTED_EDGE('',*,*,#670,.F.);
#952=ORIENTED_EDGE('',*,*,#723,.T.);
#953=ORIENTED_EDGE('',*,*,#724,.T.);
#954=ORIENTED_EDGE('',*,*,#725,.T.);
#955=ORIENTED_EDGE('',*,*,#701,.F.);
#956=ORIENTED_EDGE('',*,*,#667,.F.);
#957=ORIENTED_EDGE('',*,*,#675,.F.);
#958=ORIENTED_EDGE('',*,*,#726,.T.);
#959=ORIENTED_EDGE('',*,*,#727,.T.);
#960=ORIENTED_EDGE('',*,*,#728,.T.);
#961=ORIENTED_EDGE('',*,*,#704,.F.);
#962=ORIENTED_EDGE('',*,*,#672,.F.);
#963=ORIENTED_EDGE('',*,*,#680,.F.);
#964=ORIENTED_EDGE('',*,*,#729,.T.);
#965=ORIENTED_EDGE('',*,*,#730,.T.);
#966=ORIENTED_EDGE('',*,*,#731,.T.);
#967=ORIENTED_EDGE('',*,*,#707,.F.);
#968=ORIENTED_EDGE('',*,*,#677,.F.);
#969=ORIENTED_EDGE('',*,*,#685,.F.);
#970=ORIENTED_EDGE('',*,*,#732,.T.);
#971=ORIENTED_EDGE('',*,*,#733,.T.);
#972=ORIENTED_EDGE('',*,*,#734,.T.);
#973=ORIENTED_EDGE('',*,*,#710,.F.);
#974=ORIENTED_EDGE('',*,*,#682,.F.);
#975=ORIENTED_EDGE('',*,*,#735,.T.);
#976=ORIENTED_EDGE('',*,*,#711,.F.);
#977=ORIENTED_EDGE('',*,*,#649,.T.);
#978=ORIENTED_EDGE('',*,*,#736,.T.);
#979=ORIENTED_EDGE('',*,*,#737,.F.);
#980=ORIENTED_EDGE('',*,*,#738,.F.);
#981=ORIENTED_EDGE('',*,*,#687,.F.);
#982=ORIENTED_EDGE('',*,*,#713,.F.);
#983=ORIENTED_EDGE('',*,*,#712,.F.);
#984=ORIENTED_EDGE('',*,*,#735,.F.);
#985=ORIENTED_EDGE('',*,*,#739,.T.);
#986=ORIENTED_EDGE('',*,*,#737,.T.);
#987=ORIENTED_EDGE('',*,*,#740,.T.);
#988=ORIENTED_EDGE('',*,*,#714,.F.);
#989=ORIENTED_EDGE('',*,*,#654,.T.);
#990=ORIENTED_EDGE('',*,*,#741,.T.);
#991=ORIENTED_EDGE('',*,*,#742,.F.);
#992=ORIENTED_EDGE('',*,*,#743,.F.);
#993=ORIENTED_EDGE('',*,*,#690,.F.);
#994=ORIENTED_EDGE('',*,*,#716,.F.);
#995=ORIENTED_EDGE('',*,*,#715,.F.);
#996=ORIENTED_EDGE('',*,*,#740,.F.);
#997=ORIENTED_EDGE('',*,*,#744,.T.);
#998=ORIENTED_EDGE('',*,*,#742,.T.);
#999=ORIENTED_EDGE('',*,*,#745,.T.);
#1000=ORIENTED_EDGE('',*,*,#717,.F.);
#1001=ORIENTED_EDGE('',*,*,#659,.T.);
#1002=ORIENTED_EDGE('',*,*,#746,.T.);
#1003=ORIENTED_EDGE('',*,*,#747,.F.);
#1004=ORIENTED_EDGE('',*,*,#748,.F.);
#1005=ORIENTED_EDGE('',*,*,#693,.F.);
#1006=ORIENTED_EDGE('',*,*,#719,.F.);
#1007=ORIENTED_EDGE('',*,*,#718,.F.);
#1008=ORIENTED_EDGE('',*,*,#745,.F.);
#1009=ORIENTED_EDGE('',*,*,#749,.T.);
#1010=ORIENTED_EDGE('',*,*,#747,.T.);
#1011=ORIENTED_EDGE('',*,*,#750,.T.);
#1012=ORIENTED_EDGE('',*,*,#720,.F.);
#1013=ORIENTED_EDGE('',*,*,#664,.T.);
#1014=ORIENTED_EDGE('',*,*,#751,.T.);
#1015=ORIENTED_EDGE('',*,*,#752,.F.);
#1016=ORIENTED_EDGE('',*,*,#753,.F.);
#1017=ORIENTED_EDGE('',*,*,#696,.F.);
#1018=ORIENTED_EDGE('',*,*,#722,.F.);
#1019=ORIENTED_EDGE('',*,*,#721,.F.);
#1020=ORIENTED_EDGE('',*,*,#750,.F.);
#1021=ORIENTED_EDGE('',*,*,#754,.T.);
#1022=ORIENTED_EDGE('',*,*,#752,.T.);
#1023=ORIENTED_EDGE('',*,*,#755,.T.);
#1024=ORIENTED_EDGE('',*,*,#723,.F.);
#1025=ORIENTED_EDGE('',*,*,#669,.T.);
#1026=ORIENTED_EDGE('',*,*,#756,.T.);
#1027=ORIENTED_EDGE('',*,*,#757,.F.);
#1028=ORIENTED_EDGE('',*,*,#758,.F.);
#1029=ORIENTED_EDGE('',*,*,#699,.F.);
#1030=ORIENTED_EDGE('',*,*,#725,.F.);
#1031=ORIENTED_EDGE('',*,*,#724,.F.);
#1032=ORIENTED_EDGE('',*,*,#755,.F.);
#1033=ORIENTED_EDGE('',*,*,#759,.T.);
#1034=ORIENTED_EDGE('',*,*,#757,.T.);
#1035=ORIENTED_EDGE('',*,*,#760,.T.);
#1036=ORIENTED_EDGE('',*,*,#726,.F.);
#1037=ORIENTED_EDGE('',*,*,#674,.T.);
#1038=ORIENTED_EDGE('',*,*,#761,.T.);
#1039=ORIENTED_EDGE('',*,*,#762,.F.);
#1040=ORIENTED_EDGE('',*,*,#763,.F.);
#1041=ORIENTED_EDGE('',*,*,#702,.F.);
#1042=ORIENTED_EDGE('',*,*,#728,.F.);
#1043=ORIENTED_EDGE('',*,*,#727,.F.);
#1044=ORIENTED_EDGE('',*,*,#760,.F.);
#1045=ORIENTED_EDGE('',*,*,#764,.T.);
#1046=ORIENTED_EDGE('',*,*,#762,.T.);
#1047=ORIENTED_EDGE('',*,*,#765,.T.);
#1048=ORIENTED_EDGE('',*,*,#729,.F.);
#1049=ORIENTED_EDGE('',*,*,#679,.T.);
#1050=ORIENTED_EDGE('',*,*,#766,.T.);
#1051=ORIENTED_EDGE('',*,*,#767,.F.);
#1052=ORIENTED_EDGE('',*,*,#768,.F.);
#1053=ORIENTED_EDGE('',*,*,#705,.F.);
#1054=ORIENTED_EDGE('',*,*,#731,.F.);
#1055=ORIENTED_EDGE('',*,*,#730,.F.);
#1056=ORIENTED_EDGE('',*,*,#765,.F.);
#1057=ORIENTED_EDGE('',*,*,#769,.T.);
#1058=ORIENTED_EDGE('',*,*,#767,.T.);
#1059=ORIENTED_EDGE('',*,*,#770,.T.);
#1060=ORIENTED_EDGE('',*,*,#732,.F.);
#1061=ORIENTED_EDGE('',*,*,#684,.T.);
#1062=ORIENTED_EDGE('',*,*,#771,.T.);
#1063=ORIENTED_EDGE('',*,*,#772,.F.);
#1064=ORIENTED_EDGE('',*,*,#773,.F.);
#1065=ORIENTED_EDGE('',*,*,#708,.F.);
#1066=ORIENTED_EDGE('',*,*,#734,.F.);
#1067=ORIENTED_EDGE('',*,*,#733,.F.);
#1068=ORIENTED_EDGE('',*,*,#770,.F.);
#1069=ORIENTED_EDGE('',*,*,#774,.T.);
#1070=ORIENTED_EDGE('',*,*,#772,.T.);
#1071=ORIENTED_EDGE('',*,*,#739,.F.);
#1072=ORIENTED_EDGE('',*,*,#736,.F.);
#1073=ORIENTED_EDGE('',*,*,#648,.T.);
#1074=ORIENTED_EDGE('',*,*,#651,.T.);
#1075=ORIENTED_EDGE('',*,*,#688,.T.);
#1076=ORIENTED_EDGE('',*,*,#738,.T.);
#1077=ORIENTED_EDGE('',*,*,#744,.F.);
#1078=ORIENTED_EDGE('',*,*,#741,.F.);
#1079=ORIENTED_EDGE('',*,*,#653,.T.);
#1080=ORIENTED_EDGE('',*,*,#656,.T.);
#1081=ORIENTED_EDGE('',*,*,#691,.T.);
#1082=ORIENTED_EDGE('',*,*,#743,.T.);
#1083=ORIENTED_EDGE('',*,*,#749,.F.);
#1084=ORIENTED_EDGE('',*,*,#746,.F.);
#1085=ORIENTED_EDGE('',*,*,#658,.T.);
#1086=ORIENTED_EDGE('',*,*,#661,.T.);
#1087=ORIENTED_EDGE('',*,*,#694,.T.);
#1088=ORIENTED_EDGE('',*,*,#748,.T.);
#1089=ORIENTED_EDGE('',*,*,#754,.F.);
#1090=ORIENTED_EDGE('',*,*,#751,.F.);
#1091=ORIENTED_EDGE('',*,*,#663,.T.);
#1092=ORIENTED_EDGE('',*,*,#666,.T.);
#1093=ORIENTED_EDGE('',*,*,#697,.T.);
#1094=ORIENTED_EDGE('',*,*,#753,.T.);
#1095=ORIENTED_EDGE('',*,*,#759,.F.);
#1096=ORIENTED_EDGE('',*,*,#756,.F.);
#1097=ORIENTED_EDGE('',*,*,#668,.T.);
#1098=ORIENTED_EDGE('',*,*,#671,.T.);
#1099=ORIENTED_EDGE('',*,*,#700,.T.);
#1100=ORIENTED_EDGE('',*,*,#758,.T.);
#1101=ORIENTED_EDGE('',*,*,#764,.F.);
#1102=ORIENTED_EDGE('',*,*,#761,.F.);
#1103=ORIENTED_EDGE('',*,*,#673,.T.);
#1104=ORIENTED_EDGE('',*,*,#676,.T.);
#1105=ORIENTED_EDGE('',*,*,#703,.T.);
#1106=ORIENTED_EDGE('',*,*,#763,.T.);
#1107=ORIENTED_EDGE('',*,*,#769,.F.);
#1108=ORIENTED_EDGE('',*,*,#766,.F.);
#1109=ORIENTED_EDGE('',*,*,#678,.T.);
#1110=ORIENTED_EDGE('',*,*,#681,.T.);
#1111=ORIENTED_EDGE('',*,*,#706,.T.);
#1112=ORIENTED_EDGE('',*,*,#768,.T.);
#1113=ORIENTED_EDGE('',*,*,#774,.F.);
#1114=ORIENTED_EDGE('',*,*,#771,.F.);
#1115=ORIENTED_EDGE('',*,*,#683,.T.);
#1116=ORIENTED_EDGE('',*,*,#686,.T.);
#1117=ORIENTED_EDGE('',*,*,#709,.T.);
#1118=ORIENTED_EDGE('',*,*,#773,.T.);
#1119=PLANE('',#1273);
#1120=PLANE('',#1274);
#1121=PLANE('',#1275);
#1122=PLANE('',#1276);
#1123=PLANE('',#1277);
#1124=PLANE('',#1278);
#1125=PLANE('',#1279);
#1126=PLANE('',#1280);
#1127=PLANE('',#1281);
#1128=PLANE('',#1282);
#1129=PLANE('',#1283);
#1130=PLANE('',#1284);
#1131=PLANE('',#1285);
#1132=PLANE('',#1286);
#1133=PLANE('',#1287);
#1134=PLANE('',#1288);
#1135=PLANE('',#1289);
#1136=PLANE('',#1290);
#1137=PLANE('',#1291);
#1138=PLANE('',#1292);
#1139=PLANE('',#1293);
#1140=PLANE('',#1294);
#1141=PLANE('',#1295);
#1142=PLANE('',#1296);
#1143=PLANE('',#1297);
#1144=PLANE('',#1298);
#1145=PLANE('',#1299);
#1146=PLANE('',#1300);
#1147=PLANE('',#1301);
#1148=PLANE('',#1302);
#1149=PLANE('',#1303);
#1150=PLANE('',#1304);
#1151=PLANE('',#1305);
#1152=PLANE('',#1306);
#1153=PLANE('',#1307);
#1154=PLANE('',#1308);
#1155=PLANE('',#1309);
#1156=PLANE('',#1310);
#1157=PLANE('',#1311);
#1158=PLANE('',#1312);
#1159=PLANE('',#1313);
#1160=PLANE('',#1314);
#1161=PLANE('',#1315);
#1162=PLANE('',#1316);
#1163=PLANE('',#1317);
#1164=PLANE('',#1318);
#1165=PLANE('',#1319);
#1166=PLANE('',#1320);
#1167=PLANE('',#1321);
#1168=PLANE('',#1322);
#1169=PLANE('',#1323);
#1170=PLANE('',#1324);
#1171=PLANE('',#1325);
#1172=PLANE('',#1326);
#1173=PLANE('',#1327);
#1174=PLANE('',#1328);
#1175=PLANE('',#1329);
#1176=PLANE('',#1330);
#1177=PLANE('',#1331);
#1178=PLANE('',#1332);
#1179=PLANE('',#1333);
#1180=PLANE('',#1334);
#1181=PLANE('',#1335);
#1182=PLANE('',#1336);
#1183=PLANE('',#1337);
#1184=PLANE('',#1338);
#1185=PLANE('',#1339);
#1186=PLANE('',#1340);
#1187=PLANE('',#1341);
#1188=PLANE('',#1342);
#1189=ADVANCED_FACE('',(#15),#1119,.T.);
#1190=ADVANCED_FACE('',(#16),#1120,.T.);
#1191=ADVANCED_FACE('',(#17),#1121,.T.);
#1192=ADVANCED_FACE('',(#18),#1122,.F.);
#1193=ADVANCED_FACE('',(#19),#1123,.T.);
#1194=ADVANCED_FACE('',(#20),#1124,.T.);
#1195=ADVANCED_FACE('',(#21),#1125,.T.);
#1196=ADVANCED_FACE('',(#22),#1126,.T.);
#1197=ADVANCED_FACE('',(#23),#1127,.T.);
#1198=ADVANCED_FACE('',(#24),#1128,.T.);
#1199=ADVANCED_FACE('',(#25),#1129,.T.);
#1200=ADVANCED_FACE('',(#26),#1130,.T.);
#1201=ADVANCED_FACE('',(#27),#1131,.T.);
#1202=ADVANCED_FACE('',(#28),#1132,.T.);
#1203=ADVANCED_FACE('',(#29),#1133,.T.);
#1204=ADVANCED_FACE('',(#30),#1134,.T.);
#1205=ADVANCED_FACE('',(#31),#1135,.T.);
#1206=ADVANCED_FACE('',(#32),#1136,.T.);
#1207=ADVANCED_FACE('',(#33),#1137,.T.);
#1208=ADVANCED_FACE('',(#34),#1138,.T.);
#1209=ADVANCED_FACE('',(#35),#1139,.T.);
#1210=ADVANCED_FACE('',(#36),#1140,.T.);
#1211=ADVANCED_FACE('',(#37),#1141,.T.);
#1212=ADVANCED_FACE('',(#38),#1142,.T.);
#1213=ADVANCED_FACE('',(#39),#1143,.T.);
#1214=ADVANCED_FACE('',(#40),#1144,.T.);
#1215=ADVANCED_FACE('',(#41),#1145,.T.);
#1216=ADVANCED_FACE('',(#42),#1146,.T.);
#1217=ADVANCED_FACE('',(#43),#1147,.T.);
#1218=ADVANCED_FACE('',(#44),#1148,.T.);
#1219=ADVANCED_FACE('',(#45),#1149,.T.);
#1220=ADVANCED_FACE('',(#46),#1150,.T.);
#1221=ADVANCED_FACE('',(#47),#1151,.T.);
#1222=ADVANCED_FACE('',(#48),#1152,.T.);
#1223=ADVANCED_FACE('',(#49),#1153,.T.);
#1224=ADVANCED_FACE('',(#50),#1154,.T.);
#1225=ADVANCED_FACE('',(#51),#1155,.T.);
#1226=ADVANCED_FACE('',(#52),#1156,.T.);
#1227=ADVANCED_FACE('',(#53),#1157,.T.);
#1228=ADVANCED_FACE('',(#54),#1158,.F.);
#1229=ADVANCED_FACE('',(#55),#1159,.T.);
#1230=ADVANCED_FACE('',(#56),#1160,.T.);
#1231=ADVANCED_FACE('',(#57),#1161,.F.);
#1232=ADVANCED_FACE('',(#58),#1162,.T.);
#1233=ADVANCED_FACE('',(#59),#1163,.T.);
#1234=ADVANCED_FACE('',(#60),#1164,.F.);
#1235=ADVANCED_FACE('',(#61),#1165,.T.);
#1236=ADVANCED_FACE('',(#62),#1166,.T.);
#1237=ADVANCED_FACE('',(#63),#1167,.F.);
#1238=ADVANCED_FACE('',(#64),#1168,.T.);
#1239=ADVANCED_FACE('',(#65),#1169,.T.);
#1240=ADVANCED_FACE('',(#66),#1170,.F.);
#1241=ADVANCED_FACE('',(#67),#1171,.T.);
#1242=ADVANCED_FACE('',(#68),#1172,.T.);
#1243=ADVANCED_FACE('',(#69),#1173,.F.);
#1244=ADVANCED_FACE('',(#70),#1174,.T.);
#1245=ADVANCED_FACE('',(#71),#1175,.T.);
#1246=ADVANCED_FACE('',(#72),#1176,.F.);
#1247=ADVANCED_FACE('',(#73),#1177,.T.);
#1248=ADVANCED_FACE('',(#74),#1178,.T.);
#1249=ADVANCED_FACE('',(#75),#1179,.F.);
#1250=ADVANCED_FACE('',(#76),#1180,.T.);
#1251=ADVANCED_FACE('',(#77),#1181,.T.);
#1252=ADVANCED_FACE('',(#78),#1182,.T.);
#1253=ADVANCED_FACE('',(#79),#1183,.T.);
#1254=ADVANCED_FACE('',(#80),#1184,.T.);
#1255=ADVANCED_FACE('',(#81),#1185,.T.);
#1256=ADVANCED_FACE('',(#82),#1186,.T.);
#1257=ADVANCED_FACE('',(#83),#1187,.T.);
#1258=ADVANCED_FACE('',(#84),#1188,.T.);
#1259=CLOSED_SHELL('',(#1189,#1190,#1191,#1192,#1193,#1194,#1195,#1196,
#1197,#1198,#1199,#1200,#1201,#1202,#1203,#1204,#1205,#1206,#1207,#1208,
#1209,#1210,#1211,#1212,#1213,#1214,#1215,#1216,#1217,#1218,#1219,#1220,
#1221,#1222,#1223,#1224,#1225,#1226,#1227,#1228,#1229,#1230,#1231,#1232,
#1233,#1234,#1235,#1236,#1237,#1238,#1239,#1240,#1241,#1242,#1243,#1244,
#1245,#1246,#1247,#1248,#1249,#1250,#1251,#1252,#1253,#1254,#1255,#1256,
#1257,#1258));
#1260=DERIVED_UNIT_ELEMENT(#1262,1.);
#1261=DERIVED_UNIT_ELEMENT(#2009,-3.);
#1262=(
MASS_UNIT()
NAMED_UNIT(*)
SI_UNIT(.KILO.,.GRAM.)
);
#1263=DERIVED_UNIT((#1260,#1261));
#1264=MEASURE_REPRESENTATION_ITEM('density measure',
POSITIVE_RATIO_MEASURE(7850.),#1263);
#1265=PROPERTY_DEFINITION_REPRESENTATION(#1270,#1267);
#1266=PROPERTY_DEFINITION_REPRESENTATION(#1271,#1268);
#1267=REPRESENTATION('material name',(#1269),#2006);
#1268=REPRESENTATION('density',(#1264),#2006);
#1269=DESCRIPTIVE_REPRESENTATION_ITEM('Acier','Acier');
#1270=PROPERTY_DEFINITION('material property','material name',#2016);
#1271=PROPERTY_DEFINITION('material property','density of part',#2016);
#1272=AXIS2_PLACEMENT_3D('',#1657,#1343,#1344);
#1273=AXIS2_PLACEMENT_3D('',#1658,#1345,#1346);
#1274=AXIS2_PLACEMENT_3D('',#1667,#1351,#1352);
#1275=AXIS2_PLACEMENT_3D('',#1705,#1372,#1373);
#1276=AXIS2_PLACEMENT_3D('',#1709,#1376,#1377);
#1277=AXIS2_PLACEMENT_3D('',#1745,#1396,#1397);
#1278=AXIS2_PLACEMENT_3D('',#1747,#1399,#1400);
#1279=AXIS2_PLACEMENT_3D('',#1749,#1402,#1403);
#1280=AXIS2_PLACEMENT_3D('',#1755,#1407,#1408);
#1281=AXIS2_PLACEMENT_3D('',#1758,#1411,#1412);
#1282=AXIS2_PLACEMENT_3D('',#1764,#1416,#1417);
#1283=AXIS2_PLACEMENT_3D('',#1767,#1420,#1421);
#1284=AXIS2_PLACEMENT_3D('',#1773,#1425,#1426);
#1285=AXIS2_PLACEMENT_3D('',#1776,#1429,#1430);
#1286=AXIS2_PLACEMENT_3D('',#1782,#1434,#1435);
#1287=AXIS2_PLACEMENT_3D('',#1785,#1438,#1439);
#1288=AXIS2_PLACEMENT_3D('',#1791,#1443,#1444);
#1289=AXIS2_PLACEMENT_3D('',#1794,#1447,#1448);
#1290=AXIS2_PLACEMENT_3D('',#1800,#1452,#1453);
#1291=AXIS2_PLACEMENT_3D('',#1803,#1456,#1457);
#1292=AXIS2_PLACEMENT_3D('',#1809,#1461,#1462);
#1293=AXIS2_PLACEMENT_3D('',#1812,#1465,#1466);
#1294=AXIS2_PLACEMENT_3D('',#1818,#1470,#1471);
#1295=AXIS2_PLACEMENT_3D('',#1820,#1473,#1474);
#1296=AXIS2_PLACEMENT_3D('',#1826,#1478,#1479);
#1297=AXIS2_PLACEMENT_3D('',#1832,#1483,#1484);
#1298=AXIS2_PLACEMENT_3D('',#1838,#1488,#1489);
#1299=AXIS2_PLACEMENT_3D('',#1844,#1493,#1494);
#1300=AXIS2_PLACEMENT_3D('',#1850,#1498,#1499);
#1301=AXIS2_PLACEMENT_3D('',#1856,#1503,#1504);
#1302=AXIS2_PLACEMENT_3D('',#1862,#1508,#1509);
#1303=AXIS2_PLACEMENT_3D('',#1868,#1513,#1514);
#1304=AXIS2_PLACEMENT_3D('',#1874,#1518,#1519);
#1305=AXIS2_PLACEMENT_3D('',#1880,#1523,#1524);
#1306=AXIS2_PLACEMENT_3D('',#1886,#1528,#1529);
#1307=AXIS2_PLACEMENT_3D('',#1892,#1533,#1534);
#1308=AXIS2_PLACEMENT_3D('',#1898,#1538,#1539);
#1309=AXIS2_PLACEMENT_3D('',#1904,#1543,#1544);
#1310=AXIS2_PLACEMENT_3D('',#1910,#1548,#1549);
#1311=AXIS2_PLACEMENT_3D('',#1916,#1553,#1554);
#1312=AXIS2_PLACEMENT_3D('',#1920,#1557,#1558);
#1313=AXIS2_PLACEMENT_3D('',#1924,#1561,#1562);
#1314=AXIS2_PLACEMENT_3D('',#1926,#1564,#1565);
#1315=AXIS2_PLACEMENT_3D('',#1930,#1568,#1569);
#1316=AXIS2_PLACEMENT_3D('',#1934,#1572,#1573);
#1317=AXIS2_PLACEMENT_3D('',#1936,#1575,#1576);
#1318=AXIS2_PLACEMENT_3D('',#1940,#1579,#1580);
#1319=AXIS2_PLACEMENT_3D('',#1944,#1583,#1584);
#1320=AXIS2_PLACEMENT_3D('',#1946,#1586,#1587);
#1321=AXIS2_PLACEMENT_3D('',#1950,#1590,#1591);
#1322=AXIS2_PLACEMENT_3D('',#1954,#1594,#1595);
#1323=AXIS2_PLACEMENT_3D('',#1956,#1597,#1598);
#1324=AXIS2_PLACEMENT_3D('',#1960,#1601,#1602);
#1325=AXIS2_PLACEMENT_3D('',#1964,#1605,#1606);
#1326=AXIS2_PLACEMENT_3D('',#1966,#1608,#1609);
#1327=AXIS2_PLACEMENT_3D('',#1970,#1612,#1613);
#1328=AXIS2_PLACEMENT_3D('',#1974,#1616,#1617);
#1329=AXIS2_PLACEMENT_3D('',#1976,#1619,#1620);
#1330=AXIS2_PLACEMENT_3D('',#1980,#1623,#1624);
#1331=AXIS2_PLACEMENT_3D('',#1984,#1627,#1628);
#1332=AXIS2_PLACEMENT_3D('',#1986,#1630,#1631);
#1333=AXIS2_PLACEMENT_3D('',#1990,#1634,#1635);
#1334=AXIS2_PLACEMENT_3D('',#1994,#1638,#1639);
#1335=AXIS2_PLACEMENT_3D('',#1996,#1641,#1642);
#1336=AXIS2_PLACEMENT_3D('',#1997,#1643,#1644);
#1337=AXIS2_PLACEMENT_3D('',#1998,#1645,#1646);
#1338=AXIS2_PLACEMENT_3D('',#1999,#1647,#1648);
#1339=AXIS2_PLACEMENT_3D('',#2000,#1649,#1650);
#1340=AXIS2_PLACEMENT_3D('',#2001,#1651,#1652);
#1341=AXIS2_PLACEMENT_3D('',#2002,#1653,#1654);
#1342=AXIS2_PLACEMENT_3D('',#2003,#1655,#1656);
#1343=DIRECTION('axis',(0.,0.,1.));
#1344=DIRECTION('refdir',(1.,0.,0.));
#1345=DIRECTION('center_axis',(0.,1.,0.));
#1346=DIRECTION('ref_axis',(0.,0.,1.));
#1347=DIRECTION('',(0.,0.,-1.));
#1348=DIRECTION('',(-1.,0.,0.));
#1349=DIRECTION('',(0.,0.,1.));
#1350=DIRECTION('',(1.,0.,0.));
#1351=DIRECTION('center_axis',(0.,0.,-1.));
#1352=DIRECTION('ref_axis',(-1.,0.,0.));
#1353=DIRECTION('',(-1.,0.,0.));
#1354=DIRECTION('',(0.,1.,0.));
#1355=DIRECTION('',(0.,-1.,0.));
#1356=DIRECTION('',(-1.,0.,0.));
#1357=DIRECTION('',(-1.,0.,0.));
#1358=DIRECTION('',(-1.,0.,0.));
#1359=DIRECTION('',(-1.,0.,0.));
#1360=DIRECTION('',(-1.,0.,0.));
#1361=DIRECTION('',(-1.,0.,0.));
#1362=DIRECTION('',(-1.,0.,0.));
#1363=DIRECTION('',(-1.,0.,0.));
#1364=DIRECTION('',(-1.,0.,0.));
#1365=DIRECTION('',(-1.,0.,0.));
#1366=DIRECTION('',(-1.,0.,0.));
#1367=DIRECTION('',(-1.,0.,0.));
#1368=DIRECTION('',(-1.,0.,0.));
#1369=DIRECTION('',(-1.,0.,0.));
#1370=DIRECTION('',(-1.,0.,0.));
#1371=DIRECTION('',(-1.,0.,0.));
#1372=DIRECTION('center_axis',(1.,0.,0.));
#1373=DIRECTION('ref_axis',(0.,0.,-1.));
#1374=DIRECTION('',(0.,0.,-1.));
#1375=DIRECTION('',(0.,-1.,0.));
#1376=DIRECTION('center_axis',(0.,0.,-1.));
#1377=DIRECTION('ref_axis',(-1.,0.,0.));
#1378=DIRECTION('',(-1.,0.,0.));
#1379=DIRECTION('',(-1.,0.,0.));
#1380=DIRECTION('',(-1.,0.,0.));
#1381=DIRECTION('',(-1.,0.,0.));
#1382=DIRECTION('',(-1.,0.,0.));
#1383=DIRECTION('',(-1.,0.,0.));
#1384=DIRECTION('',(-1.,0.,0.));
#1385=DIRECTION('',(-1.,0.,0.));
#1386=DIRECTION('',(-1.,0.,0.));
#1387=DIRECTION('',(-1.,0.,0.));
#1388=DIRECTION('',(-1.,0.,0.));
#1389=DIRECTION('',(-1.,0.,0.));
#1390=DIRECTION('',(-1.,0.,0.));
#1391=DIRECTION('',(-1.,0.,0.));
#1392=DIRECTION('',(-1.,0.,0.));
#1393=DIRECTION('',(-1.,0.,0.));
#1394=DIRECTION('',(-1.,0.,0.));
#1395=DIRECTION('',(0.,1.,0.));
#1396=DIRECTION('center_axis',(-1.,0.,0.));
#1397=DIRECTION('ref_axis',(0.,0.,1.));
#1398=DIRECTION('',(0.,0.,1.));
#1399=DIRECTION('center_axis',(0.,-1.,0.));
#1400=DIRECTION('ref_axis',(0.,0.,-1.));
#1401=DIRECTION('',(0.,0.,1.));
#1402=DIRECTION('center_axis',(0.,1.,0.));
#1403=DIRECTION('ref_axis',(0.,0.,1.));
#1404=DIRECTION('',(0.,0.,1.));
#1405=DIRECTION('',(1.,0.,0.));
#1406=DIRECTION('',(0.,0.,1.));
#1407=DIRECTION('center_axis',(0.,-1.,0.));
#1408=DIRECTION('ref_axis',(0.,0.,-1.));
#1409=DIRECTION('',(0.,0.,1.));
#1410=DIRECTION('',(0.,0.,1.));
#1411=DIRECTION('center_axis',(0.,1.,0.));
#1412=DIRECTION('ref_axis',(0.,0.,1.));
#1413=DIRECTION('',(0.,0.,1.));
#1414=DIRECTION('',(1.,0.,0.));
#1415=DIRECTION('',(0.,0.,1.));
#1416=DIRECTION('center_axis',(0.,-1.,0.));
#1417=DIRECTION('ref_axis',(0.,0.,-1.));
#1418=DIRECTION('',(0.,0.,1.));
#1419=DIRECTION('',(0.,0.,1.));
#1420=DIRECTION('center_axis',(0.,1.,0.));
#1421=DIRECTION('ref_axis',(0.,0.,1.));
#1422=DIRECTION('',(0.,0.,1.));
#1423=DIRECTION('',(1.,0.,0.));
#1424=DIRECTION('',(0.,0.,1.));
#1425=DIRECTION('center_axis',(0.,-1.,0.));
#1426=DIRECTION('ref_axis',(0.,0.,-1.));
#1427=DIRECTION('',(0.,0.,1.));
#1428=DIRECTION('',(0.,0.,1.));
#1429=DIRECTION('center_axis',(0.,1.,0.));
#1430=DIRECTION('ref_axis',(0.,0.,1.));
#1431=DIRECTION('',(0.,0.,1.));
#1432=DIRECTION('',(1.,0.,0.));
#1433=DIRECTION('',(0.,0.,1.));
#1434=DIRECTION('center_axis',(0.,-1.,0.));
#1435=DIRECTION('ref_axis',(0.,0.,-1.));
#1436=DIRECTION('',(0.,0.,1.));
#1437=DIRECTION('',(0.,0.,1.));
#1438=DIRECTION('center_axis',(0.,1.,0.));
#1439=DIRECTION('ref_axis',(0.,0.,1.));
#1440=DIRECTION('',(0.,0.,1.));
#1441=DIRECTION('',(1.,0.,0.));
#1442=DIRECTION('',(0.,0.,1.));
#1443=DIRECTION('center_axis',(0.,-1.,0.));
#1444=DIRECTION('ref_axis',(0.,0.,-1.));
#1445=DIRECTION('',(0.,0.,1.));
#1446=DIRECTION('',(0.,0.,1.));
#1447=DIRECTION('center_axis',(0.,1.,0.));
#1448=DIRECTION('ref_axis',(0.,0.,1.));
#1449=DIRECTION('',(0.,0.,1.));
#1450=DIRECTION('',(1.,0.,0.));
#1451=DIRECTION('',(0.,0.,1.));
#1452=DIRECTION('center_axis',(0.,-1.,0.));
#1453=DIRECTION('ref_axis',(0.,0.,-1.));
#1454=DIRECTION('',(0.,0.,1.));
#1455=DIRECTION('',(0.,0.,1.));
#1456=DIRECTION('center_axis',(0.,1.,0.));
#1457=DIRECTION('ref_axis',(0.,0.,1.));
#1458=DIRECTION('',(0.,0.,1.));
#1459=DIRECTION('',(1.,0.,0.));
#1460=DIRECTION('',(0.,0.,1.));
#1461=DIRECTION('center_axis',(0.,-1.,0.));
#1462=DIRECTION('ref_axis',(0.,0.,-1.));
#1463=DIRECTION('',(0.,0.,1.));
#1464=DIRECTION('',(0.,0.,1.));
#1465=DIRECTION('center_axis',(0.,1.,0.));
#1466=DIRECTION('ref_axis',(0.,0.,1.));
#1467=DIRECTION('',(0.,0.,1.));
#1468=DIRECTION('',(1.,0.,0.));
#1469=DIRECTION('',(0.,0.,1.));
#1470=DIRECTION('center_axis',(0.,-1.,0.));
#1471=DIRECTION('ref_axis',(0.,0.,-1.));
#1472=DIRECTION('',(0.,0.,1.));
#1473=DIRECTION('center_axis',(0.,1.,0.));
#1474=DIRECTION('ref_axis',(0.,0.,1.));
#1475=DIRECTION('',(1.,0.,0.));
#1476=DIRECTION('',(0.,0.,1.));
#1477=DIRECTION('',(0.,0.,1.));
#1478=DIRECTION('center_axis',(0.,1.,0.));
#1479=DIRECTION('ref_axis',(0.,0.,1.));
#1480=DIRECTION('',(1.,0.,0.));
#1481=DIRECTION('',(0.,0.,1.));
#1482=DIRECTION('',(0.,0.,1.));
#1483=DIRECTION('center_axis',(0.,1.,0.));
#1484=DIRECTION('ref_axis',(0.,0.,1.));
#1485=DIRECTION('',(1.,0.,0.));
#1486=DIRECTION('',(0.,0.,1.));
#1487=DIRECTION('',(0.,0.,1.));
#1488=DIRECTION('center_axis',(0.,1.,0.));
#1489=DIRECTION('ref_axis',(0.,0.,1.));
#1490=DIRECTION('',(1.,0.,0.));
#1491=DIRECTION('',(0.,0.,1.));
#1492=DIRECTION('',(0.,0.,1.));
#1493=DIRECTION('center_axis',(0.,1.,0.));
#1494=DIRECTION('ref_axis',(0.,0.,1.));
#1495=DIRECTION('',(1.,0.,0.));
#1496=DIRECTION('',(0.,0.,1.));
#1497=DIRECTION('',(0.,0.,1.));
#1498=DIRECTION('center_axis',(0.,1.,0.));
#1499=DIRECTION('ref_axis',(0.,0.,1.));
#1500=DIRECTION('',(1.,0.,0.));
#1501=DIRECTION('',(0.,0.,1.));
#1502=DIRECTION('',(0.,0.,1.));
#1503=DIRECTION('center_axis',(0.,1.,0.));
#1504=DIRECTION('ref_axis',(0.,0.,1.));
#1505=DIRECTION('',(1.,0.,0.));
#1506=DIRECTION('',(0.,0.,1.));
#1507=DIRECTION('',(0.,0.,1.));
#1508=DIRECTION('center_axis',(0.,1.,0.));
#1509=DIRECTION('ref_axis',(0.,0.,1.));
#1510=DIRECTION('',(1.,0.,0.));
#1511=DIRECTION('',(0.,0.,1.));
#1512=DIRECTION('',(0.,0.,1.));
#1513=DIRECTION('center_axis',(-1.,0.,0.));
#1514=DIRECTION('ref_axis',(0.,0.,1.));
#1515=DIRECTION('',(0.,-1.,0.));
#1516=DIRECTION('',(0.,0.,1.));
#1517=DIRECTION('',(0.,1.,0.));
#1518=DIRECTION('center_axis',(-1.,0.,0.));
#1519=DIRECTION('ref_axis',(0.,0.,1.));
#1520=DIRECTION('',(0.,-1.,0.));
#1521=DIRECTION('',(0.,0.,1.));
#1522=DIRECTION('',(0.,1.,0.));
#1523=DIRECTION('center_axis',(-1.,0.,0.));
#1524=DIRECTION('ref_axis',(0.,0.,1.));
#1525=DIRECTION('',(0.,-1.,0.));
#1526=DIRECTION('',(0.,0.,1.));
#1527=DIRECTION('',(0.,1.,0.));
#1528=DIRECTION('center_axis',(-1.,0.,0.));
#1529=DIRECTION('ref_axis',(0.,0.,1.));
#1530=DIRECTION('',(0.,-1.,0.));
#1531=DIRECTION('',(0.,0.,1.));
#1532=DIRECTION('',(0.,1.,0.));
#1533=DIRECTION('center_axis',(-1.,0.,0.));
#1534=DIRECTION('ref_axis',(0.,0.,1.));
#1535=DIRECTION('',(0.,-1.,0.));
#1536=DIRECTION('',(0.,0.,1.));
#1537=DIRECTION('',(0.,1.,0.));
#1538=DIRECTION('center_axis',(-1.,0.,0.));
#1539=DIRECTION('ref_axis',(0.,0.,1.));
#1540=DIRECTION('',(0.,-1.,0.));
#1541=DIRECTION('',(0.,0.,1.));
#1542=DIRECTION('',(0.,1.,0.));
#1543=DIRECTION('center_axis',(-1.,0.,0.));
#1544=DIRECTION('ref_axis',(0.,0.,1.));
#1545=DIRECTION('',(0.,-1.,0.));
#1546=DIRECTION('',(0.,0.,1.));
#1547=DIRECTION('',(0.,1.,0.));
#1548=DIRECTION('center_axis',(-1.,0.,0.));
#1549=DIRECTION('ref_axis',(0.,0.,1.));
#1550=DIRECTION('',(0.,-1.,0.));
#1551=DIRECTION('',(0.,0.,1.));
#1552=DIRECTION('',(0.,1.,0.));
#1553=DIRECTION('center_axis',(0.,0.,-1.));
#1554=DIRECTION('ref_axis',(-1.,0.,0.));
#1555=DIRECTION('',(-1.,0.,0.));
#1556=DIRECTION('',(0.,-1.,0.));
#1557=DIRECTION('center_axis',(0.,0.,-1.));
#1558=DIRECTION('ref_axis',(-1.,0.,0.));
#1559=DIRECTION('',(-1.,0.,0.));
#1560=DIRECTION('',(0.,-1.,0.));
#1561=DIRECTION('center_axis',(0.,-1.,0.));
#1562=DIRECTION('ref_axis',(0.,0.,-1.));
#1563=DIRECTION('',(0.,0.,1.));
#1564=DIRECTION('center_axis',(0.,0.,-1.));
#1565=DIRECTION('ref_axis',(-1.,0.,0.));
#1566=DIRECTION('',(-1.,0.,0.));
#1567=DIRECTION('',(0.,-1.,0.));
#1568=DIRECTION('center_axis',(0.,0.,-1.));
#1569=DIRECTION('ref_axis',(-1.,0.,0.));
#1570=DIRECTION('',(-1.,0.,0.));
#1571=DIRECTION('',(0.,-1.,0.));
#1572=DIRECTION('center_axis',(0.,-1.,0.));
#1573=DIRECTION('ref_axis',(0.,0.,-1.));
#1574=DIRECTION('',(0.,0.,1.));
#1575=DIRECTION('center_axis',(0.,0.,-1.));
#1576=DIRECTION('ref_axis',(-1.,0.,0.));
#1577=DIRECTION('',(-1.,0.,0.));
#1578=DIRECTION('',(0.,-1.,0.));
#1579=DIRECTION('center_axis',(0.,0.,-1.));
#1580=DIRECTION('ref_axis',(-1.,0.,0.));
#1581=DIRECTION('',(-1.,0.,0.));
#1582=DIRECTION('',(0.,-1.,0.));
#1583=DIRECTION('center_axis',(0.,-1.,0.));
#1584=DIRECTION('ref_axis',(0.,0.,-1.));
#1585=DIRECTION('',(0.,0.,1.));
#1586=DIRECTION('center_axis',(0.,0.,-1.));
#1587=DIRECTION('ref_axis',(-1.,0.,0.));
#1588=DIRECTION('',(-1.,0.,0.));
#1589=DIRECTION('',(0.,-1.,0.));
#1590=DIRECTION('center_axis',(0.,0.,-1.));
#1591=DIRECTION('ref_axis',(-1.,0.,0.));
#1592=DIRECTION('',(-1.,0.,0.));
#1593=DIRECTION('',(0.,-1.,0.));
#1594=DIRECTION('center_axis',(0.,-1.,0.));
#1595=DIRECTION('ref_axis',(0.,0.,-1.));
#1596=DIRECTION('',(0.,0.,1.));
#1597=DIRECTION('center_axis',(0.,0.,-1.));
#1598=DIRECTION('ref_axis',(-1.,0.,0.));
#1599=DIRECTION('',(-1.,0.,0.));
#1600=DIRECTION('',(0.,-1.,0.));
#1601=DIRECTION('center_axis',(0.,0.,-1.));
#1602=DIRECTION('ref_axis',(-1.,0.,0.));
#1603=DIRECTION('',(-1.,0.,0.));
#1604=DIRECTION('',(0.,-1.,0.));
#1605=DIRECTION('center_axis',(0.,-1.,0.));
#1606=DIRECTION('ref_axis',(0.,0.,-1.));
#1607=DIRECTION('',(0.,0.,1.));
#1608=DIRECTION('center_axis',(0.,0.,-1.));
#1609=DIRECTION('ref_axis',(-1.,0.,0.));
#1610=DIRECTION('',(-1.,0.,0.));
#1611=DIRECTION('',(0.,-1.,0.));
#1612=DIRECTION('center_axis',(0.,0.,-1.));
#1613=DIRECTION('ref_axis',(-1.,0.,0.));
#1614=DIRECTION('',(-1.,0.,0.));
#1615=DIRECTION('',(0.,-1.,0.));
#1616=DIRECTION('center_axis',(0.,-1.,0.));
#1617=DIRECTION('ref_axis',(0.,0.,-1.));
#1618=DIRECTION('',(0.,0.,1.));
#1619=DIRECTION('center_axis',(0.,0.,-1.));
#1620=DIRECTION('ref_axis',(-1.,0.,0.));
#1621=DIRECTION('',(-1.,0.,0.));
#1622=DIRECTION('',(0.,-1.,0.));
#1623=DIRECTION('center_axis',(0.,0.,-1.));
#1624=DIRECTION('ref_axis',(-1.,0.,0.));
#1625=DIRECTION('',(-1.,0.,0.));
#1626=DIRECTION('',(0.,-1.,0.));
#1627=DIRECTION('center_axis',(0.,-1.,0.));
#1628=DIRECTION('ref_axis',(0.,0.,-1.));
#1629=DIRECTION('',(0.,0.,1.));
#1630=DIRECTION('center_axis',(0.,0.,-1.));
#1631=DIRECTION('ref_axis',(-1.,0.,0.));
#1632=DIRECTION('',(-1.,0.,0.));
#1633=DIRECTION('',(0.,-1.,0.));
#1634=DIRECTION('center_axis',(0.,0.,-1.));
#1635=DIRECTION('ref_axis',(-1.,0.,0.));
#1636=DIRECTION('',(-1.,0.,0.));
#1637=DIRECTION('',(0.,-1.,0.));
#1638=DIRECTION('center_axis',(0.,-1.,0.));
#1639=DIRECTION('ref_axis',(0.,0.,-1.));
#1640=DIRECTION('',(0.,0.,1.));
#1641=DIRECTION('center_axis',(1.,0.,0.));
#1642=DIRECTION('ref_axis',(0.,0.,-1.));
#1643=DIRECTION('center_axis',(1.,0.,0.));
#1644=DIRECTION('ref_axis',(0.,0.,-1.));
#1645=DIRECTION('center_axis',(1.,0.,0.));
#1646=DIRECTION('ref_axis',(0.,0.,-1.));
#1647=DIRECTION('center_axis',(1.,0.,0.));
#1648=DIRECTION('ref_axis',(0.,0.,-1.));
#1649=DIRECTION('center_axis',(1.,0.,0.));
#1650=DIRECTION('ref_axis',(0.,0.,-1.));
#1651=DIRECTION('center_axis',(1.,0.,0.));
#1652=DIRECTION('ref_axis',(0.,0.,-1.));
#1653=DIRECTION('center_axis',(1.,0.,0.));
#1654=DIRECTION('ref_axis',(0.,0.,-1.));
#1655=DIRECTION('center_axis',(1.,0.,0.));
#1656=DIRECTION('ref_axis',(0.,0.,-1.));
#1657=CARTESIAN_POINT('',(0.,0.,0.));
#1658=CARTESIAN_POINT('Origin',(1.475,5.92,1.3));
#1659=CARTESIAN_POINT('',(7.475,5.92,1.86));
#1660=CARTESIAN_POINT('',(7.475,5.92,1.3));
#1661=CARTESIAN_POINT('',(7.475,5.92,1.3));
#1662=CARTESIAN_POINT('',(1.475,5.92,1.3));
#1663=CARTESIAN_POINT('',(1.475,5.92,1.3));
#1664=CARTESIAN_POINT('',(1.475,5.92,1.86));
#1665=CARTESIAN_POINT('',(1.475,5.92,1.3));
#1666=CARTESIAN_POINT('',(1.475,5.92,1.86));
#1667=CARTESIAN_POINT('Origin',(4.475,5.87,1.3));
#1668=CARTESIAN_POINT('',(1.6,5.82,1.3));
#1669=CARTESIAN_POINT('',(1.475,5.82,1.3));
#1670=CARTESIAN_POINT('',(4.475,5.82,1.3));
#1671=CARTESIAN_POINT('',(1.475,5.87,1.3));
#1672=CARTESIAN_POINT('',(7.475,5.82,1.3));
#1673=CARTESIAN_POINT('',(7.475,5.87,1.3));
#1674=CARTESIAN_POINT('',(7.35,5.82,1.3));
#1675=CARTESIAN_POINT('',(4.475,5.82,1.3));
#1676=CARTESIAN_POINT('',(7.1,5.82,1.3));
#1677=CARTESIAN_POINT('',(4.475,5.82,1.3));
#1678=CARTESIAN_POINT('',(5.85,5.82,1.3));
#1679=CARTESIAN_POINT('',(4.475,5.82,1.3));
#1680=CARTESIAN_POINT('',(5.6,5.82,1.3));
#1681=CARTESIAN_POINT('',(4.475,5.82,1.3));
#1682=CARTESIAN_POINT('',(5.35,5.82,1.3));
#1683=CARTESIAN_POINT('',(4.475,5.82,1.3));
#1684=CARTESIAN_POINT('',(5.1,5.82,1.3));
#1685=CARTESIAN_POINT('',(4.475,5.82,1.3));
#1686=CARTESIAN_POINT('',(4.85,5.82,1.3));
#1687=CARTESIAN_POINT('',(4.475,5.82,1.3));
#1688=CARTESIAN_POINT('',(4.6,5.82,1.3));
#1689=CARTESIAN_POINT('',(4.475,5.82,1.3));
#1690=CARTESIAN_POINT('',(4.35,5.82,1.3));
#1691=CARTESIAN_POINT('',(4.475,5.82,1.3));
#1692=CARTESIAN_POINT('',(4.1,5.82,1.3));
#1693=CARTESIAN_POINT('',(4.475,5.82,1.3));
#1694=CARTESIAN_POINT('',(3.85,5.82,1.3));
#1695=CARTESIAN_POINT('',(4.475,5.82,1.3));
#1696=CARTESIAN_POINT('',(3.6,5.82,1.3));
#1697=CARTESIAN_POINT('',(4.475,5.82,1.3));
#1698=CARTESIAN_POINT('',(3.35,5.82,1.3));
#1699=CARTESIAN_POINT('',(4.475,5.82,1.3));
#1700=CARTESIAN_POINT('',(3.1,5.82,1.3));
#1701=CARTESIAN_POINT('',(4.475,5.82,1.3));
#1702=CARTESIAN_POINT('',(1.85,5.82,1.3));
#1703=CARTESIAN_POINT('',(4.475,5.82,1.3));
#1704=CARTESIAN_POINT('',(4.475,5.82,1.3));
#1705=CARTESIAN_POINT('Origin',(7.475,5.92,1.3));
#1706=CARTESIAN_POINT('',(7.475,5.82,1.86));
#1707=CARTESIAN_POINT('',(7.475,5.82,1.3));
#1708=CARTESIAN_POINT('',(7.475,5.92,1.86));
#1709=CARTESIAN_POINT('Origin',(4.475,5.87,1.86));
#1710=CARTESIAN_POINT('',(1.6,5.82,1.86));
#1711=CARTESIAN_POINT('',(1.475,5.82,1.86));
#1712=CARTESIAN_POINT('',(4.475,5.82,1.86));
#1713=CARTESIAN_POINT('',(1.85,5.82,1.86));
#1714=CARTESIAN_POINT('',(4.475,5.82,1.86));
#1715=CARTESIAN_POINT('',(3.1,5.82,1.86));
#1716=CARTESIAN_POINT('',(4.475,5.82,1.86));
#1717=CARTESIAN_POINT('',(3.35,5.82,1.86));
#1718=CARTESIAN_POINT('',(4.475,5.82,1.86));
#1719=CARTESIAN_POINT('',(3.6,5.82,1.86));
#1720=CARTESIAN_POINT('',(4.475,5.82,1.86));
#1721=CARTESIAN_POINT('',(3.85,5.82,1.86));
#1722=CARTESIAN_POINT('',(4.475,5.82,1.86));
#1723=CARTESIAN_POINT('',(4.1,5.82,1.86));
#1724=CARTESIAN_POINT('',(4.475,5.82,1.86));
#1725=CARTESIAN_POINT('',(4.35,5.82,1.86));
#1726=CARTESIAN_POINT('',(4.475,5.82,1.86));
#1727=CARTESIAN_POINT('',(4.6,5.82,1.86));
#1728=CARTESIAN_POINT('',(4.475,5.82,1.86));
#1729=CARTESIAN_POINT('',(4.85,5.82,1.86));
#1730=CARTESIAN_POINT('',(4.475,5.82,1.86));
#1731=CARTESIAN_POINT('',(5.1,5.82,1.86));
#1732=CARTESIAN_POINT('',(4.475,5.82,1.86));
#1733=CARTESIAN_POINT('',(5.35,5.82,1.86));
#1734=CARTESIAN_POINT('',(4.475,5.82,1.86));
#1735=CARTESIAN_POINT('',(5.6,5.82,1.86));
#1736=CARTESIAN_POINT('',(4.475,5.82,1.86));
#1737=CARTESIAN_POINT('',(5.85,5.82,1.86));
#1738=CARTESIAN_POINT('',(4.475,5.82,1.86));
#1739=CARTESIAN_POINT('',(7.1,5.82,1.86));
#1740=CARTESIAN_POINT('',(4.475,5.82,1.86));
#1741=CARTESIAN_POINT('',(7.35,5.82,1.86));
#1742=CARTESIAN_POINT('',(4.475,5.82,1.86));
#1743=CARTESIAN_POINT('',(4.475,5.82,1.86));
#1744=CARTESIAN_POINT('',(1.475,5.87,1.86));
#1745=CARTESIAN_POINT('Origin',(1.475,5.82,1.3));
#1746=CARTESIAN_POINT('',(1.475,5.82,1.3));
#1747=CARTESIAN_POINT('Origin',(7.475,5.82,1.3));
#1748=CARTESIAN_POINT('',(1.6,5.82,1.3));
#1749=CARTESIAN_POINT('Origin',(1.6,5.82,1.275));
#1750=CARTESIAN_POINT('',(1.85,5.82,1.275));
#1751=CARTESIAN_POINT('',(1.85,5.82,1.275));
#1752=CARTESIAN_POINT('',(1.6,5.82,1.275));
#1753=CARTESIAN_POINT('',(1.725,5.82,1.275));
#1754=CARTESIAN_POINT('',(1.6,5.82,1.275));
#1755=CARTESIAN_POINT('Origin',(7.475,5.82,1.3));
#1756=CARTESIAN_POINT('',(1.85,5.82,1.275));
#1757=CARTESIAN_POINT('',(3.1,5.82,1.3));
#1758=CARTESIAN_POINT('Origin',(3.1,5.82,1.275));
#1759=CARTESIAN_POINT('',(3.35,5.82,1.275));
#1760=CARTESIAN_POINT('',(3.35,5.82,1.275));
#1761=CARTESIAN_POINT('',(3.1,5.82,1.275));
#1762=CARTESIAN_POINT('',(3.225,5.82,1.275));
#1763=CARTESIAN_POINT('',(3.1,5.82,1.275));
#1764=CARTESIAN_POINT('Origin',(7.475,5.82,1.3));
#1765=CARTESIAN_POINT('',(3.35,5.82,1.275));
#1766=CARTESIAN_POINT('',(3.6,5.82,1.3));
#1767=CARTESIAN_POINT('Origin',(3.6,5.82,1.275));
#1768=CARTESIAN_POINT('',(3.85,5.82,1.275));
#1769=CARTESIAN_POINT('',(3.85,5.82,1.275));
#1770=CARTESIAN_POINT('',(3.6,5.82,1.275));
#1771=CARTESIAN_POINT('',(3.725,5.82,1.275));
#1772=CARTESIAN_POINT('',(3.6,5.82,1.275));
#1773=CARTESIAN_POINT('Origin',(7.475,5.82,1.3));
#1774=CARTESIAN_POINT('',(3.85,5.82,1.275));
#1775=CARTESIAN_POINT('',(4.1,5.82,1.3));
#1776=CARTESIAN_POINT('Origin',(4.1,5.82,1.275));
#1777=CARTESIAN_POINT('',(4.35,5.82,1.275));
#1778=CARTESIAN_POINT('',(4.35,5.82,1.275));
#1779=CARTESIAN_POINT('',(4.1,5.82,1.275));
#1780=CARTESIAN_POINT('',(4.225,5.82,1.275));
#1781=CARTESIAN_POINT('',(4.1,5.82,1.275));
#1782=CARTESIAN_POINT('Origin',(7.475,5.82,1.3));
#1783=CARTESIAN_POINT('',(4.35,5.82,1.275));
#1784=CARTESIAN_POINT('',(4.6,5.82,1.3));
#1785=CARTESIAN_POINT('Origin',(4.6,5.82,1.275));
#1786=CARTESIAN_POINT('',(4.85,5.82,1.275));
#1787=CARTESIAN_POINT('',(4.85,5.82,1.275));
#1788=CARTESIAN_POINT('',(4.6,5.82,1.275));
#1789=CARTESIAN_POINT('',(4.725,5.82,1.275));
#1790=CARTESIAN_POINT('',(4.6,5.82,1.275));
#1791=CARTESIAN_POINT('Origin',(7.475,5.82,1.3));
#1792=CARTESIAN_POINT('',(4.85,5.82,1.275));
#1793=CARTESIAN_POINT('',(5.1,5.82,1.3));
#1794=CARTESIAN_POINT('Origin',(5.1,5.82,1.275));
#1795=CARTESIAN_POINT('',(5.35,5.82,1.275));
#1796=CARTESIAN_POINT('',(5.35,5.82,1.275));
#1797=CARTESIAN_POINT('',(5.1,5.82,1.275));
#1798=CARTESIAN_POINT('',(5.225,5.82,1.275));
#1799=CARTESIAN_POINT('',(5.1,5.82,1.275));
#1800=CARTESIAN_POINT('Origin',(7.475,5.82,1.3));
#1801=CARTESIAN_POINT('',(5.35,5.82,1.275));
#1802=CARTESIAN_POINT('',(5.6,5.82,1.3));
#1803=CARTESIAN_POINT('Origin',(5.6,5.82,1.275));
#1804=CARTESIAN_POINT('',(5.85,5.82,1.275));
#1805=CARTESIAN_POINT('',(5.85,5.82,1.275));
#1806=CARTESIAN_POINT('',(5.6,5.82,1.275));
#1807=CARTESIAN_POINT('',(5.725,5.82,1.275));
#1808=CARTESIAN_POINT('',(5.6,5.82,1.275));
#1809=CARTESIAN_POINT('Origin',(7.475,5.82,1.3));
#1810=CARTESIAN_POINT('',(5.85,5.82,1.275));
#1811=CARTESIAN_POINT('',(7.1,5.82,1.3));
#1812=CARTESIAN_POINT('Origin',(7.1,5.82,1.275));
#1813=CARTESIAN_POINT('',(7.35,5.82,1.275));
#1814=CARTESIAN_POINT('',(7.35,5.82,1.275));
#1815=CARTESIAN_POINT('',(7.1,5.82,1.275));
#1816=CARTESIAN_POINT('',(7.225,5.82,1.275));
#1817=CARTESIAN_POINT('',(7.1,5.82,1.275));
#1818=CARTESIAN_POINT('Origin',(7.475,5.82,1.3));
#1819=CARTESIAN_POINT('',(7.35,5.82,1.275));
#1820=CARTESIAN_POINT('Origin',(1.6,5.82,1.275));
#1821=CARTESIAN_POINT('',(1.6,5.82,1.885));
#1822=CARTESIAN_POINT('',(1.85,5.82,1.885));
#1823=CARTESIAN_POINT('',(1.725,5.82,1.885));
#1824=CARTESIAN_POINT('',(1.85,5.82,1.275));
#1825=CARTESIAN_POINT('',(1.6,5.82,1.275));
#1826=CARTESIAN_POINT('Origin',(3.1,5.82,1.275));
#1827=CARTESIAN_POINT('',(3.1,5.82,1.885));
#1828=CARTESIAN_POINT('',(3.35,5.82,1.885));
#1829=CARTESIAN_POINT('',(3.225,5.82,1.885));
#1830=CARTESIAN_POINT('',(3.35,5.82,1.275));
#1831=CARTESIAN_POINT('',(3.1,5.82,1.275));
#1832=CARTESIAN_POINT('Origin',(3.6,5.82,1.275));
#1833=CARTESIAN_POINT('',(3.6,5.82,1.885));
#1834=CARTESIAN_POINT('',(3.85,5.82,1.885));
#1835=CARTESIAN_POINT('',(3.725,5.82,1.885));
#1836=CARTESIAN_POINT('',(3.85,5.82,1.275));
#1837=CARTESIAN_POINT('',(3.6,5.82,1.275));
#1838=CARTESIAN_POINT('Origin',(4.1,5.82,1.275));
#1839=CARTESIAN_POINT('',(4.1,5.82,1.885));
#1840=CARTESIAN_POINT('',(4.35,5.82,1.885));
#1841=CARTESIAN_POINT('',(4.225,5.82,1.885));
#1842=CARTESIAN_POINT('',(4.35,5.82,1.275));
#1843=CARTESIAN_POINT('',(4.1,5.82,1.275));
#1844=CARTESIAN_POINT('Origin',(4.6,5.82,1.275));
#1845=CARTESIAN_POINT('',(4.6,5.82,1.885));
#1846=CARTESIAN_POINT('',(4.85,5.82,1.885));
#1847=CARTESIAN_POINT('',(4.725,5.82,1.885));
#1848=CARTESIAN_POINT('',(4.85,5.82,1.275));
#1849=CARTESIAN_POINT('',(4.6,5.82,1.275));
#1850=CARTESIAN_POINT('Origin',(5.1,5.82,1.275));
#1851=CARTESIAN_POINT('',(5.1,5.82,1.885));
#1852=CARTESIAN_POINT('',(5.35,5.82,1.885));
#1853=CARTESIAN_POINT('',(5.225,5.82,1.885));
#1854=CARTESIAN_POINT('',(5.35,5.82,1.275));
#1855=CARTESIAN_POINT('',(5.1,5.82,1.275));
#1856=CARTESIAN_POINT('Origin',(5.6,5.82,1.275));
#1857=CARTESIAN_POINT('',(5.6,5.82,1.885));
#1858=CARTESIAN_POINT('',(5.85,5.82,1.885));
#1859=CARTESIAN_POINT('',(5.725,5.82,1.885));
#1860=CARTESIAN_POINT('',(5.85,5.82,1.275));
#1861=CARTESIAN_POINT('',(5.6,5.82,1.275));
#1862=CARTESIAN_POINT('Origin',(7.1,5.82,1.275));
#1863=CARTESIAN_POINT('',(7.1,5.82,1.885));
#1864=CARTESIAN_POINT('',(7.35,5.82,1.885));
#1865=CARTESIAN_POINT('',(7.225,5.82,1.885));
#1866=CARTESIAN_POINT('',(7.35,5.82,1.275));
#1867=CARTESIAN_POINT('',(7.1,5.82,1.275));
#1868=CARTESIAN_POINT('Origin',(1.6,1.6,1.275));
#1869=CARTESIAN_POINT('',(1.6,1.6,1.275));
#1870=CARTESIAN_POINT('',(1.6,1.6,1.275));
#1871=CARTESIAN_POINT('',(1.6,1.6,1.885));
#1872=CARTESIAN_POINT('',(1.6,1.6,1.275));
#1873=CARTESIAN_POINT('',(1.6,1.6,1.885));
#1874=CARTESIAN_POINT('Origin',(3.1,1.6,1.275));
#1875=CARTESIAN_POINT('',(3.1,1.6,1.275));
#1876=CARTESIAN_POINT('',(3.1,1.6,1.275));
#1877=CARTESIAN_POINT('',(3.1,1.6,1.885));
#1878=CARTESIAN_POINT('',(3.1,1.6,1.275));
#1879=CARTESIAN_POINT('',(3.1,1.6,1.885));
#1880=CARTESIAN_POINT('Origin',(3.6,2.,1.275));
#1881=CARTESIAN_POINT('',(3.6,2.,1.275));
#1882=CARTESIAN_POINT('',(3.6,2.,1.275));
#1883=CARTESIAN_POINT('',(3.6,2.,1.885));
#1884=CARTESIAN_POINT('',(3.6,2.,1.275));
#1885=CARTESIAN_POINT('',(3.6,2.,1.885));
#1886=CARTESIAN_POINT('Origin',(4.1,2.,1.275));
#1887=CARTESIAN_POINT('',(4.1,2.,1.275));
#1888=CARTESIAN_POINT('',(4.1,2.,1.275));
#1889=CARTESIAN_POINT('',(4.1,2.,1.885));
#1890=CARTESIAN_POINT('',(4.1,2.,1.275));
#1891=CARTESIAN_POINT('',(4.1,2.,1.885));
#1892=CARTESIAN_POINT('Origin',(4.6,2.,1.275));
#1893=CARTESIAN_POINT('',(4.6,2.,1.275));
#1894=CARTESIAN_POINT('',(4.6,2.,1.275));
#1895=CARTESIAN_POINT('',(4.6,2.,1.885));
#1896=CARTESIAN_POINT('',(4.6,2.,1.275));
#1897=CARTESIAN_POINT('',(4.6,2.,1.885));
#1898=CARTESIAN_POINT('Origin',(5.1,2.,1.275));
#1899=CARTESIAN_POINT('',(5.1,2.,1.275));
#1900=CARTESIAN_POINT('',(5.1,2.,1.275));
#1901=CARTESIAN_POINT('',(5.1,2.,1.885));
#1902=CARTESIAN_POINT('',(5.1,2.,1.275));
#1903=CARTESIAN_POINT('',(5.1,2.,1.885));
#1904=CARTESIAN_POINT('Origin',(5.6,1.6,1.275));
#1905=CARTESIAN_POINT('',(5.6,1.6,1.275));
#1906=CARTESIAN_POINT('',(5.6,1.6,1.275));
#1907=CARTESIAN_POINT('',(5.6,1.6,1.885));
#1908=CARTESIAN_POINT('',(5.6,1.6,1.275));
#1909=CARTESIAN_POINT('',(5.6,1.6,1.885));
#1910=CARTESIAN_POINT('Origin',(7.1,1.6,1.275));
#1911=CARTESIAN_POINT('',(7.1,1.6,1.275));
#1912=CARTESIAN_POINT('',(7.1,1.6,1.275));
#1913=CARTESIAN_POINT('',(7.1,1.6,1.885));
#1914=CARTESIAN_POINT('',(7.1,1.6,1.275));
#1915=CARTESIAN_POINT('',(7.1,1.6,1.885));
#1916=CARTESIAN_POINT('Origin',(1.725,3.71,1.275));
#1917=CARTESIAN_POINT('',(1.85,1.6,1.275));
#1918=CARTESIAN_POINT('',(1.725,1.6,1.275));
#1919=CARTESIAN_POINT('',(1.85,3.71,1.275));
#1920=CARTESIAN_POINT('Origin',(1.725,3.71,1.885));
#1921=CARTESIAN_POINT('',(1.85,1.6,1.885));
#1922=CARTESIAN_POINT('',(1.725,1.6,1.885));
#1923=CARTESIAN_POINT('',(1.85,3.71,1.885));
#1924=CARTESIAN_POINT('Origin',(1.85,1.6,1.275));
#1925=CARTESIAN_POINT('',(1.85,1.6,1.275));
#1926=CARTESIAN_POINT('Origin',(3.225,3.71,1.275));
#1927=CARTESIAN_POINT('',(3.35,1.6,1.275));
#1928=CARTESIAN_POINT('',(3.225,1.6,1.275));
#1929=CARTESIAN_POINT('',(3.35,3.71,1.275));
#1930=CARTESIAN_POINT('Origin',(3.225,3.71,1.885));
#1931=CARTESIAN_POINT('',(3.35,1.6,1.885));
#1932=CARTESIAN_POINT('',(3.225,1.6,1.885));
#1933=CARTESIAN_POINT('',(3.35,3.71,1.885));
#1934=CARTESIAN_POINT('Origin',(3.35,1.6,1.275));
#1935=CARTESIAN_POINT('',(3.35,1.6,1.275));
#1936=CARTESIAN_POINT('Origin',(3.725,3.91,1.275));
#1937=CARTESIAN_POINT('',(3.85,2.,1.275));
#1938=CARTESIAN_POINT('',(3.725,2.,1.275));
#1939=CARTESIAN_POINT('',(3.85,3.91,1.275));
#1940=CARTESIAN_POINT('Origin',(3.725,3.91,1.885));
#1941=CARTESIAN_POINT('',(3.85,2.,1.885));
#1942=CARTESIAN_POINT('',(3.725,2.,1.885));
#1943=CARTESIAN_POINT('',(3.85,3.91,1.885));
#1944=CARTESIAN_POINT('Origin',(3.85,2.,1.275));
#1945=CARTESIAN_POINT('',(3.85,2.,1.275));
#1946=CARTESIAN_POINT('Origin',(4.225,3.91,1.275));
#1947=CARTESIAN_POINT('',(4.35,2.,1.275));
#1948=CARTESIAN_POINT('',(4.225,2.,1.275));
#1949=CARTESIAN_POINT('',(4.35,3.91,1.275));
#1950=CARTESIAN_POINT('Origin',(4.225,3.91,1.885));
#1951=CARTESIAN_POINT('',(4.35,2.,1.885));
#1952=CARTESIAN_POINT('',(4.225,2.,1.885));
#1953=CARTESIAN_POINT('',(4.35,3.91,1.885));
#1954=CARTESIAN_POINT('Origin',(4.35,2.,1.275));
#1955=CARTESIAN_POINT('',(4.35,2.,1.275));
#1956=CARTESIAN_POINT('Origin',(4.725,3.91,1.275));
#1957=CARTESIAN_POINT('',(4.85,2.,1.275));
#1958=CARTESIAN_POINT('',(4.725,2.,1.275));
#1959=CARTESIAN_POINT('',(4.85,3.91,1.275));
#1960=CARTESIAN_POINT('Origin',(4.725,3.91,1.885));
#1961=CARTESIAN_POINT('',(4.85,2.,1.885));
#1962=CARTESIAN_POINT('',(4.725,2.,1.885));
#1963=CARTESIAN_POINT('',(4.85,3.91,1.885));
#1964=CARTESIAN_POINT('Origin',(4.85,2.,1.275));
#1965=CARTESIAN_POINT('',(4.85,2.,1.275));
#1966=CARTESIAN_POINT('Origin',(5.225,3.91,1.275));
#1967=CARTESIAN_POINT('',(5.35,2.,1.275));
#1968=CARTESIAN_POINT('',(5.225,2.,1.275));
#1969=CARTESIAN_POINT('',(5.35,3.91,1.275));
#1970=CARTESIAN_POINT('Origin',(5.225,3.91,1.885));
#1971=CARTESIAN_POINT('',(5.35,2.,1.885));
#1972=CARTESIAN_POINT('',(5.225,2.,1.885));
#1973=CARTESIAN_POINT('',(5.35,3.91,1.885));
#1974=CARTESIAN_POINT('Origin',(5.35,2.,1.275));
#1975=CARTESIAN_POINT('',(5.35,2.,1.275));
#1976=CARTESIAN_POINT('Origin',(5.725,3.71,1.275));
#1977=CARTESIAN_POINT('',(5.85,1.6,1.275));
#1978=CARTESIAN_POINT('',(5.725,1.6,1.275));
#1979=CARTESIAN_POINT('',(5.85,3.71,1.275));
#1980=CARTESIAN_POINT('Origin',(5.725,3.71,1.885));
#1981=CARTESIAN_POINT('',(5.85,1.6,1.885));
#1982=CARTESIAN_POINT('',(5.725,1.6,1.885));
#1983=CARTESIAN_POINT('',(5.85,3.71,1.885));
#1984=CARTESIAN_POINT('Origin',(5.85,1.6,1.275));
#1985=CARTESIAN_POINT('',(5.85,1.6,1.275));
#1986=CARTESIAN_POINT('Origin',(7.225,3.71,1.275));
#1987=CARTESIAN_POINT('',(7.35,1.6,1.275));
#1988=CARTESIAN_POINT('',(7.225,1.6,1.275));
#1989=CARTESIAN_POINT('',(7.35,3.71,1.275));
#1990=CARTESIAN_POINT('Origin',(7.225,3.71,1.885));
#1991=CARTESIAN_POINT('',(7.35,1.6,1.885));
#1992=CARTESIAN_POINT('',(7.225,1.6,1.885));
#1993=CARTESIAN_POINT('',(7.35,3.71,1.885));
#1994=CARTESIAN_POINT('Origin',(7.35,1.6,1.275));
#1995=CARTESIAN_POINT('',(7.35,1.6,1.275));
#1996=CARTESIAN_POINT('Origin',(1.85,5.82,1.275));
#1997=CARTESIAN_POINT('Origin',(3.35,5.82,1.275));
#1998=CARTESIAN_POINT('Origin',(3.85,5.82,1.275));
#1999=CARTESIAN_POINT('Origin',(4.35,5.82,1.275));
#2000=CARTESIAN_POINT('Origin',(4.85,5.82,1.275));
#2001=CARTESIAN_POINT('Origin',(5.35,5.82,1.275));
#2002=CARTESIAN_POINT('Origin',(5.85,5.82,1.275));
#2003=CARTESIAN_POINT('Origin',(7.35,5.82,1.275));
#2004=UNCERTAINTY_MEASURE_WITH_UNIT(LENGTH_MEASURE(0.01),#2008,
'DISTANCE_ACCURACY_VALUE',
'Maximum model space distance between geometric entities at asserted c
onnectivities');
#2005=UNCERTAINTY_MEASURE_WITH_UNIT(LENGTH_MEASURE(0.01),#2008,
'DISTANCE_ACCURACY_VALUE',
'Maximum model space distance between geometric entities at asserted c
onnectivities');
#2006=(
GEOMETRIC_REPRESENTATION_CONTEXT(3)
GLOBAL_UNCERTAINTY_ASSIGNED_CONTEXT((#2004))
GLOBAL_UNIT_ASSIGNED_CONTEXT((#2008,#2010,#2011))
REPRESENTATION_CONTEXT('','3D')
);
#2007=(
GEOMETRIC_REPRESENTATION_CONTEXT(3)
GLOBAL_UNCERTAINTY_ASSIGNED_CONTEXT((#2005))
GLOBAL_UNIT_ASSIGNED_CONTEXT((#2008,#2010,#2011))
REPRESENTATION_CONTEXT('','3D')
);
#2008=(
LENGTH_UNIT()
NAMED_UNIT(*)
SI_UNIT(.MILLI.,.METRE.)
);
#2009=(
LENGTH_UNIT()
NAMED_UNIT(*)
SI_UNIT($,.METRE.)
);
#2010=(
NAMED_UNIT(*)
PLANE_ANGLE_UNIT()
SI_UNIT($,.RADIAN.)
);
#2011=(
NAMED_UNIT(*)
SI_UNIT($,.STERADIAN.)
SOLID_ANGLE_UNIT()
);
#2012=SHAPE_DEFINITION_REPRESENTATION(#2013,#2014);
#2013=PRODUCT_DEFINITION_SHAPE('',$,#2016);
#2014=SHAPE_REPRESENTATION('',(#1272),#2006);
#2015=PRODUCT_DEFINITION_CONTEXT('part definition',#2020,'design');
#2016=PRODUCT_DEFINITION('ConPins','ConPins',#2017,#2015);
#2017=PRODUCT_DEFINITION_FORMATION('',$,#2022);
#2018=PRODUCT_RELATED_PRODUCT_CATEGORY('ConPins','ConPins',(#2022));
#2019=APPLICATION_PROTOCOL_DEFINITION('international standard',
'automotive_design',2009,#2020);
#2020=APPLICATION_CONTEXT(
'Core Data for Automotive Mechanical Design Process');
#2021=PRODUCT_CONTEXT('part definition',#2020,'mechanical');
#2022=PRODUCT('ConPins','ConPins',$,(#2021));
#2023=PRESENTATION_STYLE_ASSIGNMENT((#2025));
#2024=PRESENTATION_STYLE_ASSIGNMENT((#2026));
#2025=SURFACE_STYLE_USAGE(.BOTH.,#2027);
#2026=SURFACE_STYLE_USAGE(.BOTH.,#2028);
#2027=SURFACE_SIDE_STYLE('',(#2029));
#2028=SURFACE_SIDE_STYLE('',(#2030));
#2029=SURFACE_STYLE_FILL_AREA(#2031);
#2030=SURFACE_STYLE_FILL_AREA(#2032);
#2031=FILL_AREA_STYLE('Acier - Satin\X\E9',(#2033));
#2032=FILL_AREA_STYLE('Opaque(208,194,125)',(#2034));
#2033=FILL_AREA_STYLE_COLOUR('Acier - Satin\X\E9',#2035);
#2034=FILL_AREA_STYLE_COLOUR('Opaque(208,194,125)',#2036);
#2035=COLOUR_RGB('Acier - Satin\X\E9',0.627450980392157,0.627450980392157,
0.627450980392157);
#2036=COLOUR_RGB('Opaque(208,194,125)',0.815686274509804,0.76078431372549,
0.490196078431373);
ENDSEC;
END-ISO-10303-21;
