ISO-10303-21;
HEADER;
/* Generated by software containing ST-Developer
 * from STEP Tools, Inc. (www.steptools.com) 
 */

FILE_DESCRIPTION(
/* description */ (''),
/* implementation_level */ '2;1');

FILE_NAME(
/* name */ 'hex nut style 1 gradeab_iso_ISO - 4032 - M3 - W - N.step',
/* time_stamp */ '2026-02-08T19:56:12+01:00',
/* author */ (''),
/* organization */ (''),
/* preprocessor_version */ 'ST-DEVELOPER v20.1',
/* originating_system */ 'Autodesk Translation Framework v14.24.0.0',
/* authorisation */ '');

FILE_SCHEMA (('AUTOMOTIVE_DESIGN { 1 0 10303 214 3 1 1 }'));
ENDSEC;

DATA;
#10=MECHANICAL_DESIGN_GEOMETRIC_PRESENTATION_REPRESENTATION('',(#13),#708);
#11=SHAPE_REPRESENTATION_RELATIONSHIP('SRR','None',#715,#12);
#12=ADVANCED_BREP_SHAPE_REPRESENTATION('',(#14),#707);
#13=STYLED_ITEM('',(#725),#14);
#14=MANIFOLD_SOLID_BREP('Corps1',#394);
#15=FACE_BOUND('',#88,.T.);
#16=FACE_BOUND('',#90,.T.);
#17=(
BOUNDED_CURVE()
B_SPLINE_CURVE(2,(#612,#613,#614),.UNSPECIFIED.,.F.,.F.)
B_SPLINE_CURVE_WITH_KNOTS((3,3),(0.494672246101133,0.803609596289681),
 .UNSPECIFIED.)
CURVE()
GEOMETRIC_REPRESENTATION_ITEM()
RATIONAL_B_SPLINE_CURVE((1.80512786004874,1.94475498594666,1.94475498594666))
REPRESENTATION_ITEM('')
);
#18=(
BOUNDED_CURVE()
B_SPLINE_CURVE(2,(#616,#617,#618),.UNSPECIFIED.,.F.,.F.)
B_SPLINE_CURVE_WITH_KNOTS((3,3),(0.803609596289681,1.11254694647823),
 .UNSPECIFIED.)
CURVE()
GEOMETRIC_REPRESENTATION_ITEM()
RATIONAL_B_SPLINE_CURVE((1.94475498594666,1.94475498594666,1.80512786004874))
REPRESENTATION_ITEM('')
);
#19=(
BOUNDED_CURVE()
B_SPLINE_CURVE(2,(#625,#626,#627),.UNSPECIFIED.,.F.,.F.)
B_SPLINE_CURVE_WITH_KNOTS((3,3),(0.494672246101132,0.803609596289681),
 .UNSPECIFIED.)
CURVE()
GEOMETRIC_REPRESENTATION_ITEM()
RATIONAL_B_SPLINE_CURVE((1.80512786004874,1.94475498594666,1.94475498594666))
REPRESENTATION_ITEM('')
);
#20=(
BOUNDED_CURVE()
B_SPLINE_CURVE(2,(#629,#630,#631),.UNSPECIFIED.,.F.,.F.)
B_SPLINE_CURVE_WITH_KNOTS((3,3),(0.803609596289681,1.11254694647823),
 .UNSPECIFIED.)
CURVE()
GEOMETRIC_REPRESENTATION_ITEM()
RATIONAL_B_SPLINE_CURVE((1.94475498594666,1.94475498594666,1.80512786004874))
REPRESENTATION_ITEM('')
);
#21=(
BOUNDED_CURVE()
B_SPLINE_CURVE(2,(#639,#640,#641),.UNSPECIFIED.,.F.,.F.)
B_SPLINE_CURVE_WITH_KNOTS((3,3),(0.494672246101131,0.803609596289681),
 .UNSPECIFIED.)
CURVE()
GEOMETRIC_REPRESENTATION_ITEM()
RATIONAL_B_SPLINE_CURVE((1.80512786004874,1.94475498594666,1.94475498594666))
REPRESENTATION_ITEM('')
);
#22=(
BOUNDED_CURVE()
B_SPLINE_CURVE(2,(#646,#647,#648),.UNSPECIFIED.,.F.,.F.)
B_SPLINE_CURVE_WITH_KNOTS((3,3),(0.803609596289681,1.11254694647823),
 .UNSPECIFIED.)
CURVE()
GEOMETRIC_REPRESENTATION_ITEM()
RATIONAL_B_SPLINE_CURVE((1.94475498594666,1.94475498594666,1.80512786004874))
REPRESENTATION_ITEM('')
);
#23=(
BOUNDED_CURVE()
B_SPLINE_CURVE(2,(#651,#652,#653),.UNSPECIFIED.,.F.,.F.)
B_SPLINE_CURVE_WITH_KNOTS((3,3),(0.494672246101133,0.80360959628968),
 .UNSPECIFIED.)
CURVE()
GEOMETRIC_REPRESENTATION_ITEM()
RATIONAL_B_SPLINE_CURVE((1.80512786004874,1.94475498594666,1.94475498594666))
REPRESENTATION_ITEM('')
);
#24=(
BOUNDED_CURVE()
B_SPLINE_CURVE(2,(#655,#656,#657),.UNSPECIFIED.,.F.,.F.)
B_SPLINE_CURVE_WITH_KNOTS((3,3),(0.80360959628968,1.11254694647823),
 .UNSPECIFIED.)
CURVE()
GEOMETRIC_REPRESENTATION_ITEM()
RATIONAL_B_SPLINE_CURVE((1.94475498594666,1.94475498594666,1.80512786004874))
REPRESENTATION_ITEM('')
);
#25=(
BOUNDED_CURVE()
B_SPLINE_CURVE(2,(#664,#665,#666),.UNSPECIFIED.,.F.,.F.)
B_SPLINE_CURVE_WITH_KNOTS((3,3),(0.494672246101132,0.80360959628968),
 .UNSPECIFIED.)
CURVE()
GEOMETRIC_REPRESENTATION_ITEM()
RATIONAL_B_SPLINE_CURVE((1.80512786004874,1.94475498594666,1.94475498594666))
REPRESENTATION_ITEM('')
);
#26=(
BOUNDED_CURVE()
B_SPLINE_CURVE(2,(#668,#669,#670),.UNSPECIFIED.,.F.,.F.)
B_SPLINE_CURVE_WITH_KNOTS((3,3),(0.80360959628968,1.11254694647823),
 .UNSPECIFIED.)
CURVE()
GEOMETRIC_REPRESENTATION_ITEM()
RATIONAL_B_SPLINE_CURVE((1.94475498594666,1.94475498594666,1.80512786004874))
REPRESENTATION_ITEM('')
);
#27=(
BOUNDED_CURVE()
B_SPLINE_CURVE(2,(#677,#678,#679),.UNSPECIFIED.,.F.,.F.)
B_SPLINE_CURVE_WITH_KNOTS((3,3),(0.494672246101131,0.803609596289681),
 .UNSPECIFIED.)
CURVE()
GEOMETRIC_REPRESENTATION_ITEM()
RATIONAL_B_SPLINE_CURVE((1.80512786004874,1.94475498594666,1.94475498594666))
REPRESENTATION_ITEM('')
);
#28=(
BOUNDED_CURVE()
B_SPLINE_CURVE(2,(#680,#681,#682),.UNSPECIFIED.,.F.,.F.)
B_SPLINE_CURVE_WITH_KNOTS((3,3),(0.803609596289681,1.11254694647823),
 .UNSPECIFIED.)
CURVE()
GEOMETRIC_REPRESENTATION_ITEM()
RATIONAL_B_SPLINE_CURVE((1.94475498594666,1.94475498594666,1.80512786004874))
REPRESENTATION_ITEM('')
);
#29=PLANE('',#427);
#30=PLANE('',#428);
#31=PLANE('',#429);
#32=PLANE('',#430);
#33=PLANE('',#431);
#34=PLANE('',#432);
#35=PLANE('',#433);
#36=PLANE('',#440);
#37=PLANE('',#441);
#38=PLANE('',#442);
#39=PLANE('',#443);
#40=PLANE('',#444);
#41=PLANE('',#445);
#42=PLANE('',#446);
#43=CONICAL_SURFACE('',#412,1.5,0.959931088596876);
#44=CONICAL_SURFACE('',#415,1.225,0.959931088596884);
#45=CONICAL_SURFACE('',#447,2.75,1.0471975511966);
#46=CONICAL_SURFACE('',#448,2.75,1.0471975511966);
#47=CONICAL_SURFACE('',#449,2.75,1.0471975511966);
#48=CONICAL_SURFACE('',#450,2.75,1.0471975511966);
#49=CONICAL_SURFACE('',#451,2.75,1.0471975511966);
#50=CONICAL_SURFACE('',#452,2.75,1.0471975511966);
#51=FACE_OUTER_BOUND('',#76,.T.);
#52=FACE_OUTER_BOUND('',#77,.T.);
#53=FACE_OUTER_BOUND('',#78,.T.);
#54=FACE_OUTER_BOUND('',#79,.T.);
#55=FACE_OUTER_BOUND('',#80,.T.);
#56=FACE_OUTER_BOUND('',#81,.T.);
#57=FACE_OUTER_BOUND('',#82,.T.);
#58=FACE_OUTER_BOUND('',#83,.T.);
#59=FACE_OUTER_BOUND('',#84,.T.);
#60=FACE_OUTER_BOUND('',#85,.T.);
#61=FACE_OUTER_BOUND('',#86,.T.);
#62=FACE_OUTER_BOUND('',#87,.T.);
#63=FACE_OUTER_BOUND('',#89,.T.);
#64=FACE_OUTER_BOUND('',#91,.T.);
#65=FACE_OUTER_BOUND('',#92,.T.);
#66=FACE_OUTER_BOUND('',#93,.T.);
#67=FACE_OUTER_BOUND('',#94,.T.);
#68=FACE_OUTER_BOUND('',#95,.T.);
#69=FACE_OUTER_BOUND('',#96,.T.);
#70=FACE_OUTER_BOUND('',#97,.T.);
#71=FACE_OUTER_BOUND('',#98,.T.);
#72=FACE_OUTER_BOUND('',#99,.T.);
#73=FACE_OUTER_BOUND('',#100,.T.);
#74=FACE_OUTER_BOUND('',#101,.T.);
#75=FACE_OUTER_BOUND('',#102,.T.);
#76=EDGE_LOOP('',(#256,#257,#258,#259,#260));
#77=EDGE_LOOP('',(#261,#262,#263,#264,#265,#266));
#78=EDGE_LOOP('',(#267,#268,#269,#270));
#79=EDGE_LOOP('',(#271,#272,#273,#274,#275,#276,#277,#278,#279));
#80=EDGE_LOOP('',(#280,#281,#282,#283,#284));
#81=EDGE_LOOP('',(#285,#286,#287,#288,#289,#290));
#82=EDGE_LOOP('',(#291,#292,#293,#294,#295,#296));
#83=EDGE_LOOP('',(#297,#298,#299,#300,#301,#302));
#84=EDGE_LOOP('',(#303,#304,#305,#306,#307,#308));
#85=EDGE_LOOP('',(#309,#310,#311,#312,#313,#314));
#86=EDGE_LOOP('',(#315,#316,#317,#318,#319,#320));
#87=EDGE_LOOP('',(#321,#322,#323,#324,#325,#326));
#88=EDGE_LOOP('',(#327));
#89=EDGE_LOOP('',(#328));
#90=EDGE_LOOP('',(#329));
#91=EDGE_LOOP('',(#330,#331,#332));
#92=EDGE_LOOP('',(#333,#334,#335));
#93=EDGE_LOOP('',(#336,#337,#338));
#94=EDGE_LOOP('',(#339,#340,#341));
#95=EDGE_LOOP('',(#342,#343,#344));
#96=EDGE_LOOP('',(#345,#346,#347));
#97=EDGE_LOOP('',(#348,#349,#350));
#98=EDGE_LOOP('',(#351,#352,#353));
#99=EDGE_LOOP('',(#354,#355,#356));
#100=EDGE_LOOP('',(#357,#358,#359));
#101=EDGE_LOOP('',(#360,#361,#362));
#102=EDGE_LOOP('',(#363,#364,#365));
#103=LINE('',#573,#126);
#104=LINE('',#581,#127);
#105=LINE('',#587,#128);
#106=LINE('',#598,#129);
#107=LINE('',#606,#130);
#108=LINE('',#610,#131);
#109=LINE('',#620,#132);
#110=LINE('',#621,#133);
#111=LINE('',#622,#134);
#112=LINE('',#633,#135);
#113=LINE('',#634,#136);
#114=LINE('',#635,#137);
#115=LINE('',#643,#138);
#116=LINE('',#644,#139);
#117=LINE('',#645,#140);
#118=LINE('',#659,#141);
#119=LINE('',#660,#142);
#120=LINE('',#661,#143);
#121=LINE('',#672,#144);
#122=LINE('',#673,#145);
#123=LINE('',#674,#146);
#124=LINE('',#683,#147);
#125=LINE('',#684,#148);
#126=VECTOR('',#459,1.5);
#127=VECTOR('',#468,1.5);
#128=VECTOR('',#475,1.225);
#129=VECTOR('',#486,2.75);
#130=VECTOR('',#497,1.25);
#131=VECTOR('',#500,1000.);
#132=VECTOR('',#501,1000.);
#133=VECTOR('',#502,1000.);
#134=VECTOR('',#503,1000.);
#135=VECTOR('',#506,1000.);
#136=VECTOR('',#507,1000.);
#137=VECTOR('',#508,1000.);
#138=VECTOR('',#511,1000.);
#139=VECTOR('',#512,1000.);
#140=VECTOR('',#513,1000.);
#141=VECTOR('',#516,1000.);
#142=VECTOR('',#517,1000.);
#143=VECTOR('',#518,1000.);
#144=VECTOR('',#521,1000.);
#145=VECTOR('',#522,1000.);
#146=VECTOR('',#523,1000.);
#147=VECTOR('',#526,1000.);
#148=VECTOR('',#527,1000.);
#149=CIRCLE('',#409,1.5);
#150=CIRCLE('',#410,1.5);
#151=CIRCLE('',#411,1.5);
#152=CIRCLE('',#413,1.25);
#153=CIRCLE('',#414,1.25);
#154=CIRCLE('',#416,1.25);
#155=CIRCLE('',#417,1.5);
#156=CIRCLE('',#419,2.75);
#157=CIRCLE('',#420,2.75);
#158=CIRCLE('',#421,2.75);
#159=CIRCLE('',#422,2.75);
#160=CIRCLE('',#423,2.75);
#161=CIRCLE('',#424,2.75);
#162=CIRCLE('',#425,2.75);
#163=CIRCLE('',#434,2.75);
#164=CIRCLE('',#435,2.75);
#165=CIRCLE('',#436,2.75);
#166=CIRCLE('',#437,2.75);
#167=CIRCLE('',#438,2.75);
#168=CIRCLE('',#439,2.75);
#169=VERTEX_POINT('',#570);
#170=VERTEX_POINT('',#572);
#171=VERTEX_POINT('',#574);
#172=VERTEX_POINT('',#578);
#173=VERTEX_POINT('',#579);
#174=VERTEX_POINT('',#584);
#175=VERTEX_POINT('',#586);
#176=VERTEX_POINT('',#590);
#177=VERTEX_POINT('',#591);
#178=VERTEX_POINT('',#593);
#179=VERTEX_POINT('',#595);
#180=VERTEX_POINT('',#597);
#181=VERTEX_POINT('',#600);
#182=VERTEX_POINT('',#602);
#183=VERTEX_POINT('',#608);
#184=VERTEX_POINT('',#609);
#185=VERTEX_POINT('',#611);
#186=VERTEX_POINT('',#615);
#187=VERTEX_POINT('',#619);
#188=VERTEX_POINT('',#624);
#189=VERTEX_POINT('',#628);
#190=VERTEX_POINT('',#632);
#191=VERTEX_POINT('',#637);
#192=VERTEX_POINT('',#638);
#193=VERTEX_POINT('',#642);
#194=VERTEX_POINT('',#650);
#195=VERTEX_POINT('',#654);
#196=VERTEX_POINT('',#658);
#197=VERTEX_POINT('',#663);
#198=VERTEX_POINT('',#667);
#199=VERTEX_POINT('',#671);
#200=VERTEX_POINT('',#676);
#201=EDGE_CURVE('',#169,#169,#149,.T.);
#202=EDGE_CURVE('',#169,#170,#103,.T.);
#203=EDGE_CURVE('',#170,#171,#150,.T.);
#204=EDGE_CURVE('',#171,#170,#151,.T.);
#205=EDGE_CURVE('',#172,#173,#152,.T.);
#206=EDGE_CURVE('',#173,#171,#104,.T.);
#207=EDGE_CURVE('',#173,#172,#153,.T.);
#208=EDGE_CURVE('',#174,#174,#154,.T.);
#209=EDGE_CURVE('',#174,#175,#105,.T.);
#210=EDGE_CURVE('',#175,#175,#155,.T.);
#211=EDGE_CURVE('',#176,#177,#156,.T.);
#212=EDGE_CURVE('',#178,#176,#157,.T.);
#213=EDGE_CURVE('',#179,#178,#158,.T.);
#214=EDGE_CURVE('',#179,#180,#106,.T.);
#215=EDGE_CURVE('',#180,#180,#159,.T.);
#216=EDGE_CURVE('',#181,#179,#160,.T.);
#217=EDGE_CURVE('',#182,#181,#161,.T.);
#218=EDGE_CURVE('',#177,#182,#162,.T.);
#219=EDGE_CURVE('',#172,#174,#107,.T.);
#220=EDGE_CURVE('',#183,#184,#108,.T.);
#221=EDGE_CURVE('',#184,#185,#17,.T.);
#222=EDGE_CURVE('',#185,#186,#18,.T.);
#223=EDGE_CURVE('',#187,#186,#109,.T.);
#224=EDGE_CURVE('',#187,#181,#110,.T.);
#225=EDGE_CURVE('',#181,#183,#111,.T.);
#226=EDGE_CURVE('',#186,#188,#19,.T.);
#227=EDGE_CURVE('',#188,#189,#20,.T.);
#228=EDGE_CURVE('',#190,#189,#112,.T.);
#229=EDGE_CURVE('',#190,#182,#113,.T.);
#230=EDGE_CURVE('',#182,#187,#114,.T.);
#231=EDGE_CURVE('',#191,#192,#21,.T.);
#232=EDGE_CURVE('',#193,#191,#115,.T.);
#233=EDGE_CURVE('',#177,#193,#116,.T.);
#234=EDGE_CURVE('',#190,#177,#117,.T.);
#235=EDGE_CURVE('',#192,#189,#22,.T.);
#236=EDGE_CURVE('',#191,#194,#23,.T.);
#237=EDGE_CURVE('',#194,#195,#24,.T.);
#238=EDGE_CURVE('',#196,#195,#118,.T.);
#239=EDGE_CURVE('',#196,#176,#119,.T.);
#240=EDGE_CURVE('',#176,#193,#120,.T.);
#241=EDGE_CURVE('',#195,#197,#25,.T.);
#242=EDGE_CURVE('',#197,#198,#26,.T.);
#243=EDGE_CURVE('',#199,#198,#121,.T.);
#244=EDGE_CURVE('',#199,#178,#122,.T.);
#245=EDGE_CURVE('',#178,#196,#123,.T.);
#246=EDGE_CURVE('',#198,#200,#27,.T.);
#247=EDGE_CURVE('',#200,#184,#28,.T.);
#248=EDGE_CURVE('',#183,#179,#124,.T.);
#249=EDGE_CURVE('',#179,#199,#125,.T.);
#250=EDGE_CURVE('',#185,#200,#163,.T.);
#251=EDGE_CURVE('',#200,#197,#164,.T.);
#252=EDGE_CURVE('',#197,#194,#165,.T.);
#253=EDGE_CURVE('',#194,#192,#166,.T.);
#254=EDGE_CURVE('',#192,#188,#167,.T.);
#255=EDGE_CURVE('',#188,#185,#168,.T.);
#256=ORIENTED_EDGE('',*,*,#201,.F.);
#257=ORIENTED_EDGE('',*,*,#202,.T.);
#258=ORIENTED_EDGE('',*,*,#203,.T.);
#259=ORIENTED_EDGE('',*,*,#204,.T.);
#260=ORIENTED_EDGE('',*,*,#202,.F.);
#261=ORIENTED_EDGE('',*,*,#205,.T.);
#262=ORIENTED_EDGE('',*,*,#206,.T.);
#263=ORIENTED_EDGE('',*,*,#203,.F.);
#264=ORIENTED_EDGE('',*,*,#204,.F.);
#265=ORIENTED_EDGE('',*,*,#206,.F.);
#266=ORIENTED_EDGE('',*,*,#207,.T.);
#267=ORIENTED_EDGE('',*,*,#208,.T.);
#268=ORIENTED_EDGE('',*,*,#209,.T.);
#269=ORIENTED_EDGE('',*,*,#210,.T.);
#270=ORIENTED_EDGE('',*,*,#209,.F.);
#271=ORIENTED_EDGE('',*,*,#211,.F.);
#272=ORIENTED_EDGE('',*,*,#212,.F.);
#273=ORIENTED_EDGE('',*,*,#213,.F.);
#274=ORIENTED_EDGE('',*,*,#214,.T.);
#275=ORIENTED_EDGE('',*,*,#215,.T.);
#276=ORIENTED_EDGE('',*,*,#214,.F.);
#277=ORIENTED_EDGE('',*,*,#216,.F.);
#278=ORIENTED_EDGE('',*,*,#217,.F.);
#279=ORIENTED_EDGE('',*,*,#218,.F.);
#280=ORIENTED_EDGE('',*,*,#205,.F.);
#281=ORIENTED_EDGE('',*,*,#219,.T.);
#282=ORIENTED_EDGE('',*,*,#208,.F.);
#283=ORIENTED_EDGE('',*,*,#219,.F.);
#284=ORIENTED_EDGE('',*,*,#207,.F.);
#285=ORIENTED_EDGE('',*,*,#220,.T.);
#286=ORIENTED_EDGE('',*,*,#221,.T.);
#287=ORIENTED_EDGE('',*,*,#222,.T.);
#288=ORIENTED_EDGE('',*,*,#223,.F.);
#289=ORIENTED_EDGE('',*,*,#224,.T.);
#290=ORIENTED_EDGE('',*,*,#225,.T.);
#291=ORIENTED_EDGE('',*,*,#223,.T.);
#292=ORIENTED_EDGE('',*,*,#226,.T.);
#293=ORIENTED_EDGE('',*,*,#227,.T.);
#294=ORIENTED_EDGE('',*,*,#228,.F.);
#295=ORIENTED_EDGE('',*,*,#229,.T.);
#296=ORIENTED_EDGE('',*,*,#230,.T.);
#297=ORIENTED_EDGE('',*,*,#231,.F.);
#298=ORIENTED_EDGE('',*,*,#232,.F.);
#299=ORIENTED_EDGE('',*,*,#233,.F.);
#300=ORIENTED_EDGE('',*,*,#234,.F.);
#301=ORIENTED_EDGE('',*,*,#228,.T.);
#302=ORIENTED_EDGE('',*,*,#235,.F.);
#303=ORIENTED_EDGE('',*,*,#232,.T.);
#304=ORIENTED_EDGE('',*,*,#236,.T.);
#305=ORIENTED_EDGE('',*,*,#237,.T.);
#306=ORIENTED_EDGE('',*,*,#238,.F.);
#307=ORIENTED_EDGE('',*,*,#239,.T.);
#308=ORIENTED_EDGE('',*,*,#240,.T.);
#309=ORIENTED_EDGE('',*,*,#238,.T.);
#310=ORIENTED_EDGE('',*,*,#241,.T.);
#311=ORIENTED_EDGE('',*,*,#242,.T.);
#312=ORIENTED_EDGE('',*,*,#243,.F.);
#313=ORIENTED_EDGE('',*,*,#244,.T.);
#314=ORIENTED_EDGE('',*,*,#245,.T.);
#315=ORIENTED_EDGE('',*,*,#243,.T.);
#316=ORIENTED_EDGE('',*,*,#246,.T.);
#317=ORIENTED_EDGE('',*,*,#247,.T.);
#318=ORIENTED_EDGE('',*,*,#220,.F.);
#319=ORIENTED_EDGE('',*,*,#248,.T.);
#320=ORIENTED_EDGE('',*,*,#249,.T.);
#321=ORIENTED_EDGE('',*,*,#250,.T.);
#322=ORIENTED_EDGE('',*,*,#251,.T.);
#323=ORIENTED_EDGE('',*,*,#252,.T.);
#324=ORIENTED_EDGE('',*,*,#253,.T.);
#325=ORIENTED_EDGE('',*,*,#254,.T.);
#326=ORIENTED_EDGE('',*,*,#255,.T.);
#327=ORIENTED_EDGE('',*,*,#210,.F.);
#328=ORIENTED_EDGE('',*,*,#215,.F.);
#329=ORIENTED_EDGE('',*,*,#201,.T.);
#330=ORIENTED_EDGE('',*,*,#234,.T.);
#331=ORIENTED_EDGE('',*,*,#218,.T.);
#332=ORIENTED_EDGE('',*,*,#229,.F.);
#333=ORIENTED_EDGE('',*,*,#233,.T.);
#334=ORIENTED_EDGE('',*,*,#240,.F.);
#335=ORIENTED_EDGE('',*,*,#211,.T.);
#336=ORIENTED_EDGE('',*,*,#217,.T.);
#337=ORIENTED_EDGE('',*,*,#224,.F.);
#338=ORIENTED_EDGE('',*,*,#230,.F.);
#339=ORIENTED_EDGE('',*,*,#245,.F.);
#340=ORIENTED_EDGE('',*,*,#212,.T.);
#341=ORIENTED_EDGE('',*,*,#239,.F.);
#342=ORIENTED_EDGE('',*,*,#216,.T.);
#343=ORIENTED_EDGE('',*,*,#248,.F.);
#344=ORIENTED_EDGE('',*,*,#225,.F.);
#345=ORIENTED_EDGE('',*,*,#249,.F.);
#346=ORIENTED_EDGE('',*,*,#213,.T.);
#347=ORIENTED_EDGE('',*,*,#244,.F.);
#348=ORIENTED_EDGE('',*,*,#247,.F.);
#349=ORIENTED_EDGE('',*,*,#250,.F.);
#350=ORIENTED_EDGE('',*,*,#221,.F.);
#351=ORIENTED_EDGE('',*,*,#255,.F.);
#352=ORIENTED_EDGE('',*,*,#226,.F.);
#353=ORIENTED_EDGE('',*,*,#222,.F.);
#354=ORIENTED_EDGE('',*,*,#254,.F.);
#355=ORIENTED_EDGE('',*,*,#235,.T.);
#356=ORIENTED_EDGE('',*,*,#227,.F.);
#357=ORIENTED_EDGE('',*,*,#231,.T.);
#358=ORIENTED_EDGE('',*,*,#253,.F.);
#359=ORIENTED_EDGE('',*,*,#236,.F.);
#360=ORIENTED_EDGE('',*,*,#252,.F.);
#361=ORIENTED_EDGE('',*,*,#241,.F.);
#362=ORIENTED_EDGE('',*,*,#237,.F.);
#363=ORIENTED_EDGE('',*,*,#251,.F.);
#364=ORIENTED_EDGE('',*,*,#246,.F.);
#365=ORIENTED_EDGE('',*,*,#242,.F.);
#366=CYLINDRICAL_SURFACE('',#408,1.5);
#367=CYLINDRICAL_SURFACE('',#418,2.75);
#368=CYLINDRICAL_SURFACE('',#426,1.25);
#369=ADVANCED_FACE('',(#51),#366,.F.);
#370=ADVANCED_FACE('',(#52),#43,.F.);
#371=ADVANCED_FACE('',(#53),#44,.F.);
#372=ADVANCED_FACE('',(#54),#367,.T.);
#373=ADVANCED_FACE('',(#55),#368,.F.);
#374=ADVANCED_FACE('',(#56),#29,.T.);
#375=ADVANCED_FACE('',(#57),#30,.T.);
#376=ADVANCED_FACE('',(#58),#31,.F.);
#377=ADVANCED_FACE('',(#59),#32,.T.);
#378=ADVANCED_FACE('',(#60),#33,.T.);
#379=ADVANCED_FACE('',(#61),#34,.T.);
#380=ADVANCED_FACE('',(#62,#15),#35,.F.);
#381=ADVANCED_FACE('',(#63,#16),#36,.T.);
#382=ADVANCED_FACE('',(#64),#37,.T.);
#383=ADVANCED_FACE('',(#65),#38,.T.);
#384=ADVANCED_FACE('',(#66),#39,.T.);
#385=ADVANCED_FACE('',(#67),#40,.T.);
#386=ADVANCED_FACE('',(#68),#41,.T.);
#387=ADVANCED_FACE('',(#69),#42,.T.);
#388=ADVANCED_FACE('',(#70),#45,.T.);
#389=ADVANCED_FACE('',(#71),#46,.T.);
#390=ADVANCED_FACE('',(#72),#47,.T.);
#391=ADVANCED_FACE('',(#73),#48,.T.);
#392=ADVANCED_FACE('',(#74),#49,.T.);
#393=ADVANCED_FACE('',(#75),#50,.T.);
#394=CLOSED_SHELL('',(#369,#370,#371,#372,#373,#374,#375,#376,#377,#378,
#379,#380,#381,#382,#383,#384,#385,#386,#387,#388,#389,#390,#391,#392,#393));
#395=DERIVED_UNIT_ELEMENT(#397,1.);
#396=DERIVED_UNIT_ELEMENT(#710,-3.);
#397=(
MASS_UNIT()
NAMED_UNIT(*)
SI_UNIT(.KILO.,.GRAM.)
);
#398=DERIVED_UNIT((#395,#396));
#399=MEASURE_REPRESENTATION_ITEM('density measure',
POSITIVE_RATIO_MEASURE(7850.),#398);
#400=PROPERTY_DEFINITION_REPRESENTATION(#405,#402);
#401=PROPERTY_DEFINITION_REPRESENTATION(#406,#403);
#402=REPRESENTATION('material name',(#404),#707);
#403=REPRESENTATION('density',(#399),#707);
#404=DESCRIPTIVE_REPRESENTATION_ITEM('Acier','Acier');
#405=PROPERTY_DEFINITION('material property','material name',#717);
#406=PROPERTY_DEFINITION('material property','density of part',#717);
#407=AXIS2_PLACEMENT_3D('',#568,#453,#454);
#408=AXIS2_PLACEMENT_3D('',#569,#455,#456);
#409=AXIS2_PLACEMENT_3D('',#571,#457,#458);
#410=AXIS2_PLACEMENT_3D('',#575,#460,#461);
#411=AXIS2_PLACEMENT_3D('',#576,#462,#463);
#412=AXIS2_PLACEMENT_3D('',#577,#464,#465);
#413=AXIS2_PLACEMENT_3D('',#580,#466,#467);
#414=AXIS2_PLACEMENT_3D('',#582,#469,#470);
#415=AXIS2_PLACEMENT_3D('',#583,#471,#472);
#416=AXIS2_PLACEMENT_3D('',#585,#473,#474);
#417=AXIS2_PLACEMENT_3D('',#588,#476,#477);
#418=AXIS2_PLACEMENT_3D('',#589,#478,#479);
#419=AXIS2_PLACEMENT_3D('',#592,#480,#481);
#420=AXIS2_PLACEMENT_3D('',#594,#482,#483);
#421=AXIS2_PLACEMENT_3D('',#596,#484,#485);
#422=AXIS2_PLACEMENT_3D('',#599,#487,#488);
#423=AXIS2_PLACEMENT_3D('',#601,#489,#490);
#424=AXIS2_PLACEMENT_3D('',#603,#491,#492);
#425=AXIS2_PLACEMENT_3D('',#604,#493,#494);
#426=AXIS2_PLACEMENT_3D('',#605,#495,#496);
#427=AXIS2_PLACEMENT_3D('',#607,#498,#499);
#428=AXIS2_PLACEMENT_3D('',#623,#504,#505);
#429=AXIS2_PLACEMENT_3D('',#636,#509,#510);
#430=AXIS2_PLACEMENT_3D('',#649,#514,#515);
#431=AXIS2_PLACEMENT_3D('',#662,#519,#520);
#432=AXIS2_PLACEMENT_3D('',#675,#524,#525);
#433=AXIS2_PLACEMENT_3D('',#685,#528,#529);
#434=AXIS2_PLACEMENT_3D('',#686,#530,#531);
#435=AXIS2_PLACEMENT_3D('',#687,#532,#533);
#436=AXIS2_PLACEMENT_3D('',#688,#534,#535);
#437=AXIS2_PLACEMENT_3D('',#689,#536,#537);
#438=AXIS2_PLACEMENT_3D('',#690,#538,#539);
#439=AXIS2_PLACEMENT_3D('',#691,#540,#541);
#440=AXIS2_PLACEMENT_3D('',#692,#542,#543);
#441=AXIS2_PLACEMENT_3D('',#693,#544,#545);
#442=AXIS2_PLACEMENT_3D('',#694,#546,#547);
#443=AXIS2_PLACEMENT_3D('',#695,#548,#549);
#444=AXIS2_PLACEMENT_3D('',#696,#550,#551);
#445=AXIS2_PLACEMENT_3D('',#697,#552,#553);
#446=AXIS2_PLACEMENT_3D('',#698,#554,#555);
#447=AXIS2_PLACEMENT_3D('',#699,#556,#557);
#448=AXIS2_PLACEMENT_3D('',#700,#558,#559);
#449=AXIS2_PLACEMENT_3D('',#701,#560,#561);
#450=AXIS2_PLACEMENT_3D('',#702,#562,#563);
#451=AXIS2_PLACEMENT_3D('',#703,#564,#565);
#452=AXIS2_PLACEMENT_3D('',#704,#566,#567);
#453=DIRECTION('axis',(0.,0.,1.));
#454=DIRECTION('refdir',(1.,0.,0.));
#455=DIRECTION('center_axis',(0.,0.,1.));
#456=DIRECTION('ref_axis',(1.,0.,0.));
#457=DIRECTION('center_axis',(0.,0.,1.));
#458=DIRECTION('ref_axis',(-1.,0.,0.));
#459=DIRECTION('',(0.,0.,1.));
#460=DIRECTION('center_axis',(0.,0.,1.));
#461=DIRECTION('ref_axis',(1.,0.,0.));
#462=DIRECTION('center_axis',(0.,0.,1.));
#463=DIRECTION('ref_axis',(1.,0.,0.));
#464=DIRECTION('center_axis',(0.,0.,-1.));
#465=DIRECTION('ref_axis',(-1.,0.,0.));
#466=DIRECTION('center_axis',(0.,0.,1.));
#467=DIRECTION('ref_axis',(-1.,0.,0.));
#468=DIRECTION('',(0.819152044288989,-1.00317192905352E-16,-0.57357643635105));
#469=DIRECTION('center_axis',(0.,0.,1.));
#470=DIRECTION('ref_axis',(-1.,0.,0.));
#471=DIRECTION('center_axis',(0.,0.,1.));
#472=DIRECTION('ref_axis',(1.,0.,0.));
#473=DIRECTION('center_axis',(0.,0.,-1.));
#474=DIRECTION('ref_axis',(1.,0.,0.));
#475=DIRECTION('',(-0.819152044288993,-1.00317192905353E-16,0.573576436351044));
#476=DIRECTION('center_axis',(0.,0.,1.));
#477=DIRECTION('ref_axis',(1.,0.,0.));
#478=DIRECTION('center_axis',(0.,0.,1.));
#479=DIRECTION('ref_axis',(1.,0.,0.));
#480=DIRECTION('center_axis',(0.,0.,1.));
#481=DIRECTION('ref_axis',(1.,0.,0.));
#482=DIRECTION('center_axis',(0.,0.,1.));
#483=DIRECTION('ref_axis',(1.,0.,0.));
#484=DIRECTION('center_axis',(0.,0.,1.));
#485=DIRECTION('ref_axis',(1.,0.,0.));
#486=DIRECTION('',(0.,0.,-1.));
#487=DIRECTION('center_axis',(0.,0.,1.));
#488=DIRECTION('ref_axis',(-1.,0.,0.));
#489=DIRECTION('center_axis',(0.,0.,1.));
#490=DIRECTION('ref_axis',(1.,0.,0.));
#491=DIRECTION('center_axis',(0.,0.,1.));
#492=DIRECTION('ref_axis',(1.,0.,0.));
#493=DIRECTION('center_axis',(0.,0.,1.));
#494=DIRECTION('ref_axis',(1.,0.,0.));
#495=DIRECTION('center_axis',(0.,0.,1.));
#496=DIRECTION('ref_axis',(1.,0.,0.));
#497=DIRECTION('',(0.,0.,1.));
#498=DIRECTION('center_axis',(-0.500000000000001,0.866025403784438,0.));
#499=DIRECTION('ref_axis',(-0.866025403784438,-0.500000000000001,0.));
#500=DIRECTION('',(0.,0.,1.));
#501=DIRECTION('',(0.,0.,1.));
#502=DIRECTION('',(-0.866025403784438,-0.500000000000001,0.));
#503=DIRECTION('',(-0.866025403784438,-0.500000000000001,0.));
#504=DIRECTION('center_axis',(0.500000000000001,0.866025403784438,0.));
#505=DIRECTION('ref_axis',(-0.866025403784438,0.500000000000001,0.));
#506=DIRECTION('',(0.,0.,1.));
#507=DIRECTION('',(-0.866025403784438,0.500000000000001,0.));
#508=DIRECTION('',(-0.866025403784438,0.500000000000001,0.));
#509=DIRECTION('center_axis',(-1.,0.,0.));
#510=DIRECTION('ref_axis',(0.,0.,1.));
#511=DIRECTION('',(0.,0.,1.));
#512=DIRECTION('',(0.,-1.,0.));
#513=DIRECTION('',(0.,-1.,0.));
#514=DIRECTION('center_axis',(0.5,-0.866025403784438,0.));
#515=DIRECTION('ref_axis',(0.866025403784438,0.5,0.));
#516=DIRECTION('',(0.,0.,1.));
#517=DIRECTION('',(0.866025403784438,0.5,0.));
#518=DIRECTION('',(0.866025403784438,0.5,0.));
#519=DIRECTION('center_axis',(-0.500000000000001,-0.866025403784438,0.));
#520=DIRECTION('ref_axis',(0.866025403784438,-0.500000000000001,0.));
#521=DIRECTION('',(0.,0.,1.));
#522=DIRECTION('',(0.866025403784438,-0.500000000000001,0.));
#523=DIRECTION('',(0.866025403784438,-0.500000000000001,0.));
#524=DIRECTION('center_axis',(-1.,0.,0.));
#525=DIRECTION('ref_axis',(0.,0.,1.));
#526=DIRECTION('',(0.,-1.,0.));
#527=DIRECTION('',(0.,-1.,0.));
#528=DIRECTION('center_axis',(0.,0.,-1.));
#529=DIRECTION('ref_axis',(-1.,0.,0.));
#530=DIRECTION('center_axis',(0.,0.,1.));
#531=DIRECTION('ref_axis',(-1.,3.5527136788005E-15,0.));
#532=DIRECTION('center_axis',(0.,0.,1.));
#533=DIRECTION('ref_axis',(-1.,0.,0.));
#534=DIRECTION('center_axis',(0.,0.,1.));
#535=DIRECTION('ref_axis',(-1.,0.,0.));
#536=DIRECTION('center_axis',(0.,0.,1.));
#537=DIRECTION('ref_axis',(-1.,1.77635683940025E-15,0.));
#538=DIRECTION('center_axis',(0.,0.,1.));
#539=DIRECTION('ref_axis',(1.,0.,0.));
#540=DIRECTION('center_axis',(0.,0.,1.));
#541=DIRECTION('ref_axis',(-1.,-1.77635683940025E-15,0.));
#542=DIRECTION('center_axis',(0.,0.,-1.));
#543=DIRECTION('ref_axis',(-1.,0.,0.));
#544=DIRECTION('center_axis',(0.,0.,-1.));
#545=DIRECTION('ref_axis',(-1.,0.,0.));
#546=DIRECTION('center_axis',(0.,0.,-1.));
#547=DIRECTION('ref_axis',(-1.,0.,0.));
#548=DIRECTION('center_axis',(0.,0.,-1.));
#549=DIRECTION('ref_axis',(-1.,0.,0.));
#550=DIRECTION('center_axis',(0.,0.,-1.));
#551=DIRECTION('ref_axis',(-1.,0.,0.));
#552=DIRECTION('center_axis',(0.,0.,-1.));
#553=DIRECTION('ref_axis',(-1.,0.,0.));
#554=DIRECTION('center_axis',(0.,0.,-1.));
#555=DIRECTION('ref_axis',(-1.,0.,0.));
#556=DIRECTION('center_axis',(0.,0.,-1.));
#557=DIRECTION('ref_axis',(-1.,0.,0.));
#558=DIRECTION('center_axis',(0.,0.,-1.));
#559=DIRECTION('ref_axis',(-1.,0.,0.));
#560=DIRECTION('center_axis',(0.,0.,-1.));
#561=DIRECTION('ref_axis',(-1.,0.,0.));
#562=DIRECTION('center_axis',(0.,0.,-1.));
#563=DIRECTION('ref_axis',(-1.,0.,0.));
#564=DIRECTION('center_axis',(0.,0.,-1.));
#565=DIRECTION('ref_axis',(-1.,0.,0.));
#566=DIRECTION('center_axis',(0.,0.,-1.));
#567=DIRECTION('ref_axis',(-1.,0.,0.));
#568=CARTESIAN_POINT('',(0.,0.,0.));
#569=CARTESIAN_POINT('Origin',(0.,0.,-25.0375057290932));
#570=CARTESIAN_POINT('',(-1.5,-1.83697019872103E-16,-2.4));
#571=CARTESIAN_POINT('Origin',(0.,0.,-2.4));
#572=CARTESIAN_POINT('',(-1.5,-1.83697019872103E-16,-2.3746));
#573=CARTESIAN_POINT('',(-1.5,-1.83697019872103E-16,-25.0375057290932));
#574=CARTESIAN_POINT('',(1.5,1.83697019872103E-16,-2.3746));
#575=CARTESIAN_POINT('Origin',(0.,0.,-2.3746));
#576=CARTESIAN_POINT('Origin',(0.,0.,-2.3746));
#577=CARTESIAN_POINT('Origin',(0.,0.,-2.3746));
#578=CARTESIAN_POINT('',(-1.25,1.53080849893419E-16,-2.19954811544757));
#579=CARTESIAN_POINT('',(1.25,-1.53080849893419E-16,-2.19954811544757));
#580=CARTESIAN_POINT('Origin',(0.,0.,-2.19954811544757));
#581=CARTESIAN_POINT('',(1.5,-1.83697019872103E-16,-2.3746));
#582=CARTESIAN_POINT('Origin',(0.,0.,-2.19954811544757));
#583=CARTESIAN_POINT('Origin',(0.,0.,-0.192557073007669));
#584=CARTESIAN_POINT('',(-1.25,-1.53080849893419E-16,-0.175051884552427));
#585=CARTESIAN_POINT('Origin',(0.,0.,-0.175051884552426));
#586=CARTESIAN_POINT('',(-1.5,-1.83697019872103E-16,2.08166817117217E-16));
#587=CARTESIAN_POINT('',(-1.225,-1.50019232895551E-16,-0.192557073007669));
#588=CARTESIAN_POINT('Origin',(0.,0.,0.));
#589=CARTESIAN_POINT('Origin',(0.,0.,0.));
#590=CARTESIAN_POINT('',(1.375,-2.38156986040721,-2.));
#591=CARTESIAN_POINT('',(2.75,0.,-2.));
#592=CARTESIAN_POINT('Origin',(0.,0.,-2.));
#593=CARTESIAN_POINT('',(-1.375,-2.38156986040721,-2.));
#594=CARTESIAN_POINT('Origin',(0.,0.,-2.));
#595=CARTESIAN_POINT('',(-2.75,0.,-2.));
#596=CARTESIAN_POINT('Origin',(0.,0.,-2.));
#597=CARTESIAN_POINT('',(-2.75,-3.36777869765522E-16,-2.4));
#598=CARTESIAN_POINT('',(-2.75,-3.36777869765522E-16,0.));
#599=CARTESIAN_POINT('Origin',(0.,0.,-2.4));
#600=CARTESIAN_POINT('',(-1.375,2.38156986040721,-2.));
#601=CARTESIAN_POINT('Origin',(0.,0.,-2.));
#602=CARTESIAN_POINT('',(1.375,2.38156986040721,-2.));
#603=CARTESIAN_POINT('Origin',(0.,0.,-2.));
#604=CARTESIAN_POINT('Origin',(0.,0.,-2.));
#605=CARTESIAN_POINT('Origin',(0.,0.,-2.4));
#606=CARTESIAN_POINT('',(-1.25,-1.53080849893419E-16,-2.4));
#607=CARTESIAN_POINT('Origin',(3.58118378978574E-16,3.17542648054294,-2.4));
#608=CARTESIAN_POINT('',(-2.75,1.58771324027147,-2.));
#609=CARTESIAN_POINT('',(-2.75,1.58771324027147,-0.245620093061864));
#610=CARTESIAN_POINT('',(-2.75,1.58771324027147,-2.4));
#611=CARTESIAN_POINT('',(-1.375,2.38156986040721,0.));
#612=CARTESIAN_POINT('Ctrl Pts',(-2.75000000000767,1.58771324026704,-0.24562009306442));
#613=CARTESIAN_POINT('Ctrl Pts',(-2.0131397208175,2.01313972081263,-3.33066907387547E-16));
#614=CARTESIAN_POINT('Ctrl Pts',(-1.375,2.38156986040721,-3.42528400538249E-16));
#615=CARTESIAN_POINT('',(1.95156391047391E-15,3.17542648054294,-0.245620093061864));
#616=CARTESIAN_POINT('Ctrl Pts',(-1.375,2.38156986040721,-3.42528400538249E-16));
#617=CARTESIAN_POINT('Ctrl Pts',(-0.736860279182504,2.75000000000178,-3.81572144486381E-16));
#618=CARTESIAN_POINT('Ctrl Pts',(7.67358861142623E-12,3.17542648054738,
-0.245620093064422));
#619=CARTESIAN_POINT('',(3.58118378978574E-16,3.17542648054294,-2.));
#620=CARTESIAN_POINT('',(3.58118378978574E-16,3.17542648054294,-2.4));
#621=CARTESIAN_POINT('',(3.58118378978574E-16,3.17542648054294,-2.));
#622=CARTESIAN_POINT('',(3.58118378978574E-16,3.17542648054294,-2.));
#623=CARTESIAN_POINT('Origin',(2.75,1.58771324027147,-2.4));
#624=CARTESIAN_POINT('',(1.375,2.3815698604072,0.));
#625=CARTESIAN_POINT('Ctrl Pts',(-7.67063642691003E-12,3.17542648054737,
-0.245620093064422));
#626=CARTESIAN_POINT('Ctrl Pts',(0.736860279182508,2.75000000000178,-5.55111512312578E-17));
#627=CARTESIAN_POINT('Ctrl Pts',(1.37500000000001,2.3815698604072,-4.56704534050999E-16));
#628=CARTESIAN_POINT('',(2.75,1.58771324027147,-0.245620093061864));
#629=CARTESIAN_POINT('Ctrl Pts',(1.37500000000001,2.3815698604072,-4.56704534050999E-16));
#630=CARTESIAN_POINT('Ctrl Pts',(2.0131397208175,2.01313972081263,-9.21346758551772E-16));
#631=CARTESIAN_POINT('Ctrl Pts',(2.75000000000767,1.58771324026704,-0.24562009306442));
#632=CARTESIAN_POINT('',(2.75,1.58771324027147,-2.));
#633=CARTESIAN_POINT('',(2.75,1.58771324027147,-2.4));
#634=CARTESIAN_POINT('',(2.75,1.58771324027147,-2.));
#635=CARTESIAN_POINT('',(2.75,1.58771324027147,-2.));
#636=CARTESIAN_POINT('Origin',(2.75,1.58771324027147,-2.4));
#637=CARTESIAN_POINT('',(2.75,-1.58771324027147,-0.245620093061864));
#638=CARTESIAN_POINT('',(2.75,0.,0.));
#639=CARTESIAN_POINT('Ctrl Pts',(2.75,-1.58771324028033,-0.245620093064422));
#640=CARTESIAN_POINT('Ctrl Pts',(2.75,-0.736860279189149,6.38378239159465E-16));
#641=CARTESIAN_POINT('Ctrl Pts',(2.75,1.82681813620399E-15,3.42528400538248E-16));
#642=CARTESIAN_POINT('',(2.75,-1.58771324027147,-2.));
#643=CARTESIAN_POINT('',(2.75,-1.58771324027147,-2.4));
#644=CARTESIAN_POINT('',(2.75,1.58771324027147,-2.));
#645=CARTESIAN_POINT('',(2.75,1.58771324027147,-2.));
#646=CARTESIAN_POINT('Ctrl Pts',(2.75,1.82681813620399E-15,3.42528400538248E-16));
#647=CARTESIAN_POINT('Ctrl Pts',(2.75,0.736860279189148,8.28044933150517E-17));
#648=CARTESIAN_POINT('Ctrl Pts',(2.75,1.58771324028033,-0.24562009306442));
#649=CARTESIAN_POINT('Origin',(-2.50385766456194E-16,-3.17542648054295,
-2.4));
#650=CARTESIAN_POINT('',(1.375,-2.38156986040721,0.));
#651=CARTESIAN_POINT('Ctrl Pts',(2.75000000000767,-1.58771324026705,-0.245620093064422));
#652=CARTESIAN_POINT('Ctrl Pts',(2.0131397208175,-2.01313972081263,-2.74780198594726E-15));
#653=CARTESIAN_POINT('Ctrl Pts',(1.37500000000001,-2.38156986040721,-2.16934653674224E-15));
#654=CARTESIAN_POINT('',(-4.33680868994202E-15,-3.17542648054294,-0.245620093061864));
#655=CARTESIAN_POINT('Ctrl Pts',(1.37500000000001,-2.38156986040721,-2.16934653674224E-15));
#656=CARTESIAN_POINT('Ctrl Pts',(0.736860279182509,-2.75000000000178,-1.67681796932284E-15));
#657=CARTESIAN_POINT('Ctrl Pts',(-7.66793025777017E-12,-3.17542648054737,
-0.245620093064422));
#658=CARTESIAN_POINT('',(-4.33680868994202E-16,-3.17542648054295,-2.));
#659=CARTESIAN_POINT('',(-2.50385766456194E-16,-3.17542648054295,-2.4));
#660=CARTESIAN_POINT('',(-2.50385766456194E-16,-3.17542648054295,-2.));
#661=CARTESIAN_POINT('',(-2.50385766456194E-16,-3.17542648054295,-2.));
#662=CARTESIAN_POINT('Origin',(-2.75,-1.58771324027147,-2.4));
#663=CARTESIAN_POINT('',(-1.375,-2.38156986040721,0.));
#664=CARTESIAN_POINT('Ctrl Pts',(7.66694619626478E-12,-3.17542648054737,
-0.245620093064421));
#665=CARTESIAN_POINT('Ctrl Pts',(-0.736860279182507,-2.75000000000178,-1.85962356624714E-15));
#666=CARTESIAN_POINT('Ctrl Pts',(-1.375,-2.38156986040721,-1.48428973566575E-15));
#667=CARTESIAN_POINT('',(-2.75,-1.58771324027147,-0.245620093061864));
#668=CARTESIAN_POINT('Ctrl Pts',(-1.375,-2.38156986040721,-1.48428973566575E-15));
#669=CARTESIAN_POINT('Ctrl Pts',(-2.0131397208175,-2.01313972081264,-1.21244133152141E-15));
#670=CARTESIAN_POINT('Ctrl Pts',(-2.75000000000767,-1.58771324026704,-0.24562009306442));
#671=CARTESIAN_POINT('',(-2.75,-1.58771324027147,-2.));
#672=CARTESIAN_POINT('',(-2.75,-1.58771324027147,-2.4));
#673=CARTESIAN_POINT('',(-2.75,-1.58771324027147,-2.));
#674=CARTESIAN_POINT('',(-2.75,-1.58771324027147,-2.));
#675=CARTESIAN_POINT('Origin',(-2.75,1.58771324027147,-2.4));
#676=CARTESIAN_POINT('',(-2.75,0.,0.));
#677=CARTESIAN_POINT('Ctrl Pts',(-2.75,-1.58771324028034,-0.245620093064422));
#678=CARTESIAN_POINT('Ctrl Pts',(-2.75,-0.736860279189149,6.10622663543836E-16));
#679=CARTESIAN_POINT('Ctrl Pts',(-2.75,1.82681813620399E-15,3.42528400538248E-16));
#680=CARTESIAN_POINT('Ctrl Pts',(-2.75,1.82681813620399E-15,3.42528400538248E-16));
#681=CARTESIAN_POINT('Ctrl Pts',(-2.75,0.736860279189148,8.28044933150517E-17));
#682=CARTESIAN_POINT('Ctrl Pts',(-2.75,1.58771324028033,-0.24562009306442));
#683=CARTESIAN_POINT('',(-2.75,1.58771324027147,-2.));
#684=CARTESIAN_POINT('',(-2.75,1.58771324027147,-2.));
#685=CARTESIAN_POINT('Origin',(8.67361737988404E-16,3.17542648054294,0.));
#686=CARTESIAN_POINT('Origin',(0.,0.,0.));
#687=CARTESIAN_POINT('Origin',(0.,0.,0.));
#688=CARTESIAN_POINT('Origin',(0.,0.,0.));
#689=CARTESIAN_POINT('Origin',(0.,0.,0.));
#690=CARTESIAN_POINT('Origin',(0.,0.,0.));
#691=CARTESIAN_POINT('Origin',(0.,0.,0.));
#692=CARTESIAN_POINT('Origin',(8.67361737988404E-16,3.17542648054294,-2.4));
#693=CARTESIAN_POINT('Origin',(0.,13.1754264805429,-2.));
#694=CARTESIAN_POINT('Origin',(0.,13.1754264805429,-2.));
#695=CARTESIAN_POINT('Origin',(0.,13.1754264805429,-2.));
#696=CARTESIAN_POINT('Origin',(0.,13.1754264805429,-2.));
#697=CARTESIAN_POINT('Origin',(0.,13.1754264805429,-2.));
#698=CARTESIAN_POINT('Origin',(0.,13.1754264805429,-2.));
#699=CARTESIAN_POINT('Origin',(0.,0.,0.));
#700=CARTESIAN_POINT('Origin',(0.,0.,0.));
#701=CARTESIAN_POINT('Origin',(0.,0.,0.));
#702=CARTESIAN_POINT('Origin',(0.,0.,0.));
#703=CARTESIAN_POINT('Origin',(0.,0.,0.));
#704=CARTESIAN_POINT('Origin',(0.,0.,0.));
#705=UNCERTAINTY_MEASURE_WITH_UNIT(LENGTH_MEASURE(0.01),#709,
'DISTANCE_ACCURACY_VALUE',
'Maximum model space distance between geometric entities at asserted c
onnectivities');
#706=UNCERTAINTY_MEASURE_WITH_UNIT(LENGTH_MEASURE(0.01),#709,
'DISTANCE_ACCURACY_VALUE',
'Maximum model space distance between geometric entities at asserted c
onnectivities');
#707=(
GEOMETRIC_REPRESENTATION_CONTEXT(3)
GLOBAL_UNCERTAINTY_ASSIGNED_CONTEXT((#705))
GLOBAL_UNIT_ASSIGNED_CONTEXT((#709,#711,#712))
REPRESENTATION_CONTEXT('','3D')
);
#708=(
GEOMETRIC_REPRESENTATION_CONTEXT(3)
GLOBAL_UNCERTAINTY_ASSIGNED_CONTEXT((#706))
GLOBAL_UNIT_ASSIGNED_CONTEXT((#709,#711,#712))
REPRESENTATION_CONTEXT('','3D')
);
#709=(
LENGTH_UNIT()
NAMED_UNIT(*)
SI_UNIT(.MILLI.,.METRE.)
);
#710=(
LENGTH_UNIT()
NAMED_UNIT(*)
SI_UNIT($,.METRE.)
);
#711=(
NAMED_UNIT(*)
PLANE_ANGLE_UNIT()
SI_UNIT($,.RADIAN.)
);
#712=(
NAMED_UNIT(*)
SI_UNIT($,.STERADIAN.)
SOLID_ANGLE_UNIT()
);
#713=SHAPE_DEFINITION_REPRESENTATION(#714,#715);
#714=PRODUCT_DEFINITION_SHAPE('',$,#717);
#715=SHAPE_REPRESENTATION('',(#407),#707);
#716=PRODUCT_DEFINITION_CONTEXT('part definition',#721,'design');
#717=PRODUCT_DEFINITION(
'hex nut style 1 gradeab_iso_ISO - 4032 - M3 - W - N',
'hex nut style 1 gradeab_iso_ISO - 4032 - M3 - W - N',#718,#716);
#718=PRODUCT_DEFINITION_FORMATION('',$,#723);
#719=PRODUCT_RELATED_PRODUCT_CATEGORY(
'hex nut style 1 gradeab_iso_ISO - 4032 - M3 - W - N',
'hex nut style 1 gradeab_iso_ISO - 4032 - M3 - W - N',(#723));
#720=APPLICATION_PROTOCOL_DEFINITION('international standard',
'automotive_design',2009,#721);
#721=APPLICATION_CONTEXT(
'Core Data for Automotive Mechanical Design Process');
#722=PRODUCT_CONTEXT('part definition',#721,'mechanical');
#723=PRODUCT('hex nut style 1 gradeab_iso_ISO - 4032 - M3 - W - N',
'hex nut style 1 gradeab_iso_ISO - 4032 - M3 - W - N',$,(#722));
#724=PRESENTATION_STYLE_ASSIGNMENT((#726));
#725=PRESENTATION_STYLE_ASSIGNMENT((#727));
#726=SURFACE_STYLE_USAGE(.BOTH.,#728);
#727=SURFACE_STYLE_USAGE(.BOTH.,#729);
#728=SURFACE_SIDE_STYLE('',(#730));
#729=SURFACE_SIDE_STYLE('',(#731));
#730=SURFACE_STYLE_FILL_AREA(#732);
#731=SURFACE_STYLE_FILL_AREA(#733);
#732=FILL_AREA_STYLE('Acier - Satin\X\E9',(#734));
#733=FILL_AREA_STYLE('Opaque(198,193,188)',(#735));
#734=FILL_AREA_STYLE_COLOUR('Acier - Satin\X\E9',#736);
#735=FILL_AREA_STYLE_COLOUR('Opaque(198,193,188)',#737);
#736=COLOUR_RGB('Acier - Satin\X\E9',0.627450980392157,0.627450980392157,
0.627450980392157);
#737=COLOUR_RGB('Opaque(198,193,188)',0.776470588235294,0.756862745098039,
0.737254901960784);
ENDSEC;
END-ISO-10303-21;
