ISO-10303-21;
HEADER;
/* Generated by software containing ST-Developer
 * from STEP Tools, Inc. (www.steptools.com) 
 */

FILE_DESCRIPTION(
/* description */ (''),
/* implementation_level */ '2;1');

FILE_NAME(
/* name */ 'Pin15_1.step',
/* time_stamp */ '2026-02-08T18:42:32+01:00',
/* author */ (''),
/* organization */ (''),
/* preprocessor_version */ 'ST-DEVELOPER v20.1',
/* originating_system */ 'Autodesk Translation Framework v14.24.0.0',
/* authorisation */ '');

FILE_SCHEMA (('AUTOMOTIVE_DESIGN { 1 0 10303 214 3 1 1 }'));
ENDSEC;

DATA;
#10=MECHANICAL_DESIGN_GEOMETRIC_PRESENTATION_REPRESENTATION('',(#13),#389);
#11=SHAPE_REPRESENTATION_RELATIONSHIP('SRR','None',#396,#12);
#12=ADVANCED_BREP_SHAPE_REPRESENTATION('',(#14),#388);
#13=STYLED_ITEM('',(#406),#14);
#14=MANIFOLD_SOLID_BREP('Corps1',#225);
#15=CYLINDRICAL_SURFACE('',#247,0.3);
#16=CYLINDRICAL_SURFACE('',#249,0.15);
#17=CYLINDRICAL_SURFACE('',#254,0.3);
#18=CYLINDRICAL_SURFACE('',#256,0.15);
#19=FACE_OUTER_BOUND('',#31,.T.);
#20=FACE_OUTER_BOUND('',#32,.T.);
#21=FACE_OUTER_BOUND('',#33,.T.);
#22=FACE_OUTER_BOUND('',#34,.T.);
#23=FACE_OUTER_BOUND('',#35,.T.);
#24=FACE_OUTER_BOUND('',#36,.T.);
#25=FACE_OUTER_BOUND('',#37,.T.);
#26=FACE_OUTER_BOUND('',#38,.T.);
#27=FACE_OUTER_BOUND('',#39,.T.);
#28=FACE_OUTER_BOUND('',#40,.T.);
#29=FACE_OUTER_BOUND('',#41,.T.);
#30=FACE_OUTER_BOUND('',#42,.T.);
#31=EDGE_LOOP('',(#145,#146,#147,#148,#149,#150,#151,#152,#153,#154));
#32=EDGE_LOOP('',(#155,#156,#157,#158));
#33=EDGE_LOOP('',(#159,#160,#161,#162));
#34=EDGE_LOOP('',(#163,#164,#165,#166));
#35=EDGE_LOOP('',(#167,#168,#169,#170));
#36=EDGE_LOOP('',(#171,#172,#173,#174));
#37=EDGE_LOOP('',(#175,#176,#177,#178));
#38=EDGE_LOOP('',(#179,#180,#181,#182));
#39=EDGE_LOOP('',(#183,#184,#185,#186));
#40=EDGE_LOOP('',(#187,#188,#189,#190));
#41=EDGE_LOOP('',(#191,#192,#193,#194));
#42=EDGE_LOOP('',(#195,#196,#197,#198,#199,#200,#201,#202,#203,#204));
#43=CIRCLE('',#240,0.3);
#44=CIRCLE('',#241,0.15);
#45=CIRCLE('',#242,0.3);
#46=CIRCLE('',#243,0.15);
#47=CIRCLE('',#248,0.3);
#48=CIRCLE('',#250,0.15);
#49=CIRCLE('',#255,0.3);
#50=CIRCLE('',#257,0.15);
#51=LINE('',#327,#73);
#52=LINE('',#329,#74);
#53=LINE('',#335,#75);
#54=LINE('',#337,#76);
#55=LINE('',#339,#77);
#56=LINE('',#344,#78);
#57=LINE('',#347,#79);
#58=LINE('',#349,#80);
#59=LINE('',#350,#81);
#60=LINE('',#353,#82);
#61=LINE('',#354,#83);
#62=LINE('',#357,#84);
#63=LINE('',#358,#85);
#64=LINE('',#362,#86);
#65=LINE('',#366,#87);
#66=LINE('',#369,#88);
#67=LINE('',#370,#89);
#68=LINE('',#373,#90);
#69=LINE('',#374,#91);
#70=LINE('',#377,#92);
#71=LINE('',#378,#93);
#72=LINE('',#382,#94);
#73=VECTOR('',#263,1000.);
#74=VECTOR('',#264,1000.);
#75=VECTOR('',#269,1000.);
#76=VECTOR('',#270,1000.);
#77=VECTOR('',#271,1000.);
#78=VECTOR('',#276,1000.);
#79=VECTOR('',#279,1000.);
#80=VECTOR('',#280,1000.);
#81=VECTOR('',#281,1000.);
#82=VECTOR('',#284,1000.);
#83=VECTOR('',#285,1000.);
#84=VECTOR('',#288,1000.);
#85=VECTOR('',#289,1000.);
#86=VECTOR('',#294,1000.);
#87=VECTOR('',#299,1000.);
#88=VECTOR('',#302,1000.);
#89=VECTOR('',#303,1000.);
#90=VECTOR('',#306,1000.);
#91=VECTOR('',#307,1000.);
#92=VECTOR('',#310,1000.);
#93=VECTOR('',#311,1000.);
#94=VECTOR('',#316,1000.);
#95=VERTEX_POINT('',#325);
#96=VERTEX_POINT('',#326);
#97=VERTEX_POINT('',#328);
#98=VERTEX_POINT('',#330);
#99=VERTEX_POINT('',#332);
#100=VERTEX_POINT('',#334);
#101=VERTEX_POINT('',#336);
#102=VERTEX_POINT('',#338);
#103=VERTEX_POINT('',#340);
#104=VERTEX_POINT('',#342);
#105=VERTEX_POINT('',#346);
#106=VERTEX_POINT('',#348);
#107=VERTEX_POINT('',#352);
#108=VERTEX_POINT('',#356);
#109=VERTEX_POINT('',#360);
#110=VERTEX_POINT('',#364);
#111=VERTEX_POINT('',#368);
#112=VERTEX_POINT('',#372);
#113=VERTEX_POINT('',#376);
#114=VERTEX_POINT('',#380);
#115=EDGE_CURVE('',#95,#96,#51,.T.);
#116=EDGE_CURVE('',#97,#95,#52,.T.);
#117=EDGE_CURVE('',#98,#97,#43,.T.);
#118=EDGE_CURVE('',#99,#98,#44,.T.);
#119=EDGE_CURVE('',#100,#99,#53,.T.);
#120=EDGE_CURVE('',#101,#100,#54,.T.);
#121=EDGE_CURVE('',#102,#101,#55,.T.);
#122=EDGE_CURVE('',#103,#102,#45,.T.);
#123=EDGE_CURVE('',#104,#103,#46,.T.);
#124=EDGE_CURVE('',#96,#104,#56,.T.);
#125=EDGE_CURVE('',#104,#105,#57,.T.);
#126=EDGE_CURVE('',#105,#106,#58,.T.);
#127=EDGE_CURVE('',#106,#96,#59,.T.);
#128=EDGE_CURVE('',#106,#107,#60,.T.);
#129=EDGE_CURVE('',#107,#95,#61,.T.);
#130=EDGE_CURVE('',#107,#108,#62,.T.);
#131=EDGE_CURVE('',#108,#97,#63,.T.);
#132=EDGE_CURVE('',#108,#109,#47,.T.);
#133=EDGE_CURVE('',#109,#98,#64,.T.);
#134=EDGE_CURVE('',#110,#109,#48,.T.);
#135=EDGE_CURVE('',#99,#110,#65,.T.);
#136=EDGE_CURVE('',#110,#111,#66,.T.);
#137=EDGE_CURVE('',#111,#100,#67,.T.);
#138=EDGE_CURVE('',#111,#112,#68,.T.);
#139=EDGE_CURVE('',#112,#101,#69,.T.);
#140=EDGE_CURVE('',#112,#113,#70,.T.);
#141=EDGE_CURVE('',#113,#102,#71,.T.);
#142=EDGE_CURVE('',#113,#114,#49,.T.);
#143=EDGE_CURVE('',#114,#103,#72,.T.);
#144=EDGE_CURVE('',#105,#114,#50,.T.);
#145=ORIENTED_EDGE('',*,*,#115,.F.);
#146=ORIENTED_EDGE('',*,*,#116,.F.);
#147=ORIENTED_EDGE('',*,*,#117,.F.);
#148=ORIENTED_EDGE('',*,*,#118,.F.);
#149=ORIENTED_EDGE('',*,*,#119,.F.);
#150=ORIENTED_EDGE('',*,*,#120,.F.);
#151=ORIENTED_EDGE('',*,*,#121,.F.);
#152=ORIENTED_EDGE('',*,*,#122,.F.);
#153=ORIENTED_EDGE('',*,*,#123,.F.);
#154=ORIENTED_EDGE('',*,*,#124,.F.);
#155=ORIENTED_EDGE('',*,*,#124,.T.);
#156=ORIENTED_EDGE('',*,*,#125,.T.);
#157=ORIENTED_EDGE('',*,*,#126,.T.);
#158=ORIENTED_EDGE('',*,*,#127,.T.);
#159=ORIENTED_EDGE('',*,*,#127,.F.);
#160=ORIENTED_EDGE('',*,*,#128,.T.);
#161=ORIENTED_EDGE('',*,*,#129,.T.);
#162=ORIENTED_EDGE('',*,*,#115,.T.);
#163=ORIENTED_EDGE('',*,*,#130,.T.);
#164=ORIENTED_EDGE('',*,*,#131,.T.);
#165=ORIENTED_EDGE('',*,*,#116,.T.);
#166=ORIENTED_EDGE('',*,*,#129,.F.);
#167=ORIENTED_EDGE('',*,*,#132,.T.);
#168=ORIENTED_EDGE('',*,*,#133,.T.);
#169=ORIENTED_EDGE('',*,*,#117,.T.);
#170=ORIENTED_EDGE('',*,*,#131,.F.);
#171=ORIENTED_EDGE('',*,*,#133,.F.);
#172=ORIENTED_EDGE('',*,*,#134,.F.);
#173=ORIENTED_EDGE('',*,*,#135,.F.);
#174=ORIENTED_EDGE('',*,*,#118,.T.);
#175=ORIENTED_EDGE('',*,*,#119,.T.);
#176=ORIENTED_EDGE('',*,*,#135,.T.);
#177=ORIENTED_EDGE('',*,*,#136,.T.);
#178=ORIENTED_EDGE('',*,*,#137,.T.);
#179=ORIENTED_EDGE('',*,*,#137,.F.);
#180=ORIENTED_EDGE('',*,*,#138,.T.);
#181=ORIENTED_EDGE('',*,*,#139,.T.);
#182=ORIENTED_EDGE('',*,*,#120,.T.);
#183=ORIENTED_EDGE('',*,*,#140,.T.);
#184=ORIENTED_EDGE('',*,*,#141,.T.);
#185=ORIENTED_EDGE('',*,*,#121,.T.);
#186=ORIENTED_EDGE('',*,*,#139,.F.);
#187=ORIENTED_EDGE('',*,*,#142,.T.);
#188=ORIENTED_EDGE('',*,*,#143,.T.);
#189=ORIENTED_EDGE('',*,*,#122,.T.);
#190=ORIENTED_EDGE('',*,*,#141,.F.);
#191=ORIENTED_EDGE('',*,*,#143,.F.);
#192=ORIENTED_EDGE('',*,*,#144,.F.);
#193=ORIENTED_EDGE('',*,*,#125,.F.);
#194=ORIENTED_EDGE('',*,*,#123,.T.);
#195=ORIENTED_EDGE('',*,*,#144,.T.);
#196=ORIENTED_EDGE('',*,*,#142,.F.);
#197=ORIENTED_EDGE('',*,*,#140,.F.);
#198=ORIENTED_EDGE('',*,*,#138,.F.);
#199=ORIENTED_EDGE('',*,*,#136,.F.);
#200=ORIENTED_EDGE('',*,*,#134,.T.);
#201=ORIENTED_EDGE('',*,*,#132,.F.);
#202=ORIENTED_EDGE('',*,*,#130,.F.);
#203=ORIENTED_EDGE('',*,*,#128,.F.);
#204=ORIENTED_EDGE('',*,*,#126,.F.);
#205=PLANE('',#239);
#206=PLANE('',#244);
#207=PLANE('',#245);
#208=PLANE('',#246);
#209=PLANE('',#251);
#210=PLANE('',#252);
#211=PLANE('',#253);
#212=PLANE('',#258);
#213=ADVANCED_FACE('',(#19),#205,.F.);
#214=ADVANCED_FACE('',(#20),#206,.T.);
#215=ADVANCED_FACE('',(#21),#207,.T.);
#216=ADVANCED_FACE('',(#22),#208,.T.);
#217=ADVANCED_FACE('',(#23),#15,.T.);
#218=ADVANCED_FACE('',(#24),#16,.F.);
#219=ADVANCED_FACE('',(#25),#209,.T.);
#220=ADVANCED_FACE('',(#26),#210,.T.);
#221=ADVANCED_FACE('',(#27),#211,.T.);
#222=ADVANCED_FACE('',(#28),#17,.T.);
#223=ADVANCED_FACE('',(#29),#18,.F.);
#224=ADVANCED_FACE('',(#30),#212,.T.);
#225=CLOSED_SHELL('',(#213,#214,#215,#216,#217,#218,#219,#220,#221,#222,
#223,#224));
#226=DERIVED_UNIT_ELEMENT(#228,1.);
#227=DERIVED_UNIT_ELEMENT(#391,-3.);
#228=(
MASS_UNIT()
NAMED_UNIT(*)
SI_UNIT(.KILO.,.GRAM.)
);
#229=DERIVED_UNIT((#226,#227));
#230=MEASURE_REPRESENTATION_ITEM('density measure',
POSITIVE_RATIO_MEASURE(7850.),#229);
#231=PROPERTY_DEFINITION_REPRESENTATION(#236,#233);
#232=PROPERTY_DEFINITION_REPRESENTATION(#237,#234);
#233=REPRESENTATION('material name',(#235),#388);
#234=REPRESENTATION('density',(#230),#388);
#235=DESCRIPTIVE_REPRESENTATION_ITEM('Acier','Acier');
#236=PROPERTY_DEFINITION('material property','material name',#398);
#237=PROPERTY_DEFINITION('material property','density of part',#398);
#238=AXIS2_PLACEMENT_3D('',#323,#259,#260);
#239=AXIS2_PLACEMENT_3D('',#324,#261,#262);
#240=AXIS2_PLACEMENT_3D('',#331,#265,#266);
#241=AXIS2_PLACEMENT_3D('',#333,#267,#268);
#242=AXIS2_PLACEMENT_3D('',#341,#272,#273);
#243=AXIS2_PLACEMENT_3D('',#343,#274,#275);
#244=AXIS2_PLACEMENT_3D('',#345,#277,#278);
#245=AXIS2_PLACEMENT_3D('',#351,#282,#283);
#246=AXIS2_PLACEMENT_3D('',#355,#286,#287);
#247=AXIS2_PLACEMENT_3D('',#359,#290,#291);
#248=AXIS2_PLACEMENT_3D('',#361,#292,#293);
#249=AXIS2_PLACEMENT_3D('',#363,#295,#296);
#250=AXIS2_PLACEMENT_3D('',#365,#297,#298);
#251=AXIS2_PLACEMENT_3D('',#367,#300,#301);
#252=AXIS2_PLACEMENT_3D('',#371,#304,#305);
#253=AXIS2_PLACEMENT_3D('',#375,#308,#309);
#254=AXIS2_PLACEMENT_3D('',#379,#312,#313);
#255=AXIS2_PLACEMENT_3D('',#381,#314,#315);
#256=AXIS2_PLACEMENT_3D('',#383,#317,#318);
#257=AXIS2_PLACEMENT_3D('',#384,#319,#320);
#258=AXIS2_PLACEMENT_3D('',#385,#321,#322);
#259=DIRECTION('axis',(0.,0.,1.));
#260=DIRECTION('refdir',(1.,0.,0.));
#261=DIRECTION('center_axis',(1.,0.,0.));
#262=DIRECTION('ref_axis',(0.,0.,-1.));
#263=DIRECTION('',(0.,0.,1.));
#264=DIRECTION('',(0.,1.,0.));
#265=DIRECTION('center_axis',(1.,0.,0.));
#266=DIRECTION('ref_axis',(0.,0.,-1.));
#267=DIRECTION('center_axis',(-1.,0.,0.));
#268=DIRECTION('ref_axis',(0.,0.,-1.));
#269=DIRECTION('',(0.,1.,0.));
#270=DIRECTION('',(0.,0.,-1.));
#271=DIRECTION('',(0.,-1.,0.));
#272=DIRECTION('center_axis',(1.,0.,0.));
#273=DIRECTION('ref_axis',(0.,0.,-1.));
#274=DIRECTION('center_axis',(-1.,0.,0.));
#275=DIRECTION('ref_axis',(0.,0.,-1.));
#276=DIRECTION('',(0.,-1.,0.));
#277=DIRECTION('center_axis',(0.,2.19770710638954E-16,1.));
#278=DIRECTION('ref_axis',(0.,-1.,2.19770710638954E-16));
#279=DIRECTION('',(1.,0.,0.));
#280=DIRECTION('',(0.,1.,-2.19770710638954E-16));
#281=DIRECTION('',(-1.,0.,0.));
#282=DIRECTION('center_axis',(0.,1.,0.));
#283=DIRECTION('ref_axis',(0.,0.,1.));
#284=DIRECTION('',(0.,0.,-1.));
#285=DIRECTION('',(-1.,0.,0.));
#286=DIRECTION('center_axis',(0.,0.,-1.));
#287=DIRECTION('ref_axis',(-1.,0.,0.));
#288=DIRECTION('',(0.,-1.,0.));
#289=DIRECTION('',(-1.,0.,0.));
#290=DIRECTION('center_axis',(1.,0.,0.));
#291=DIRECTION('ref_axis',(0.,0.,-1.));
#292=DIRECTION('center_axis',(-1.,0.,0.));
#293=DIRECTION('ref_axis',(0.,0.,-1.));
#294=DIRECTION('',(-1.,0.,0.));
#295=DIRECTION('center_axis',(1.,0.,0.));
#296=DIRECTION('ref_axis',(0.,0.,-1.));
#297=DIRECTION('center_axis',(-1.,0.,0.));
#298=DIRECTION('ref_axis',(0.,0.,-1.));
#299=DIRECTION('',(1.,0.,0.));
#300=DIRECTION('center_axis',(0.,0.,-1.));
#301=DIRECTION('ref_axis',(-1.,0.,0.));
#302=DIRECTION('',(0.,-1.,0.));
#303=DIRECTION('',(-1.,0.,0.));
#304=DIRECTION('center_axis',(0.,-1.,0.));
#305=DIRECTION('ref_axis',(0.,0.,-1.));
#306=DIRECTION('',(0.,0.,1.));
#307=DIRECTION('',(-1.,0.,0.));
#308=DIRECTION('center_axis',(0.,0.,1.));
#309=DIRECTION('ref_axis',(1.,0.,0.));
#310=DIRECTION('',(0.,1.,0.));
#311=DIRECTION('',(-1.,0.,0.));
#312=DIRECTION('center_axis',(1.,0.,0.));
#313=DIRECTION('ref_axis',(0.,0.,-1.));
#314=DIRECTION('center_axis',(-1.,0.,0.));
#315=DIRECTION('ref_axis',(0.,0.,-1.));
#316=DIRECTION('',(-1.,0.,0.));
#317=DIRECTION('center_axis',(1.,0.,0.));
#318=DIRECTION('ref_axis',(0.,0.,-1.));
#319=DIRECTION('center_axis',(-1.,0.,0.));
#320=DIRECTION('ref_axis',(0.,0.,-1.));
#321=DIRECTION('center_axis',(1.,0.,0.));
#322=DIRECTION('ref_axis',(0.,0.,-1.));
#323=CARTESIAN_POINT('',(0.,0.,0.));
#324=CARTESIAN_POINT('Origin',(4.075,2.675,0.3325));
#325=CARTESIAN_POINT('',(4.075,3.15,0.));
#326=CARTESIAN_POINT('',(4.075,3.15,0.23));
#327=CARTESIAN_POINT('',(4.075,3.15,0.3325));
#328=CARTESIAN_POINT('',(4.075,2.85,0.));
#329=CARTESIAN_POINT('',(4.075,2.675,0.));
#330=CARTESIAN_POINT('',(4.075,2.5501667129887,0.29));
#331=CARTESIAN_POINT('Origin',(4.075,2.85,0.3));
#332=CARTESIAN_POINT('',(4.075,2.40025006948305,0.435));
#333=CARTESIAN_POINT('Origin',(4.075,2.40025006948305,0.285));
#334=CARTESIAN_POINT('',(4.075,2.2,0.435));
#335=CARTESIAN_POINT('',(4.075,2.675,0.435));
#336=CARTESIAN_POINT('',(4.075,2.2,0.665));
#337=CARTESIAN_POINT('',(4.075,2.2,0.3325));
#338=CARTESIAN_POINT('',(4.075,2.48,0.665));
#339=CARTESIAN_POINT('',(4.075,2.675,0.665));
#340=CARTESIAN_POINT('',(4.075,2.7798332870113,0.375));
#341=CARTESIAN_POINT('Origin',(4.075,2.48,0.365));
#342=CARTESIAN_POINT('',(4.075,2.92974993051695,0.23));
#343=CARTESIAN_POINT('Origin',(4.075,2.92974993051695,0.38));
#344=CARTESIAN_POINT('',(4.075,2.675,0.23));
#345=CARTESIAN_POINT('Origin',(4.075,2.965,0.23));
#346=CARTESIAN_POINT('',(4.375,2.92974993051695,0.23));
#347=CARTESIAN_POINT('',(4.075,2.92974993051695,0.23));
#348=CARTESIAN_POINT('',(4.375,3.15,0.23));
#349=CARTESIAN_POINT('',(4.375,2.965,0.23));
#350=CARTESIAN_POINT('',(4.075,3.15,0.23));
#351=CARTESIAN_POINT('Origin',(4.075,3.15,0.115));
#352=CARTESIAN_POINT('',(4.375,3.15,0.));
#353=CARTESIAN_POINT('',(4.375,3.15,0.115));
#354=CARTESIAN_POINT('',(4.075,3.15,0.));
#355=CARTESIAN_POINT('Origin',(4.075,2.85,0.));
#356=CARTESIAN_POINT('',(4.375,2.85,0.));
#357=CARTESIAN_POINT('',(4.375,2.85,0.));
#358=CARTESIAN_POINT('',(4.075,2.85,0.));
#359=CARTESIAN_POINT('Origin',(4.075,2.85,0.3));
#360=CARTESIAN_POINT('',(4.375,2.5501667129887,0.29));
#361=CARTESIAN_POINT('Origin',(4.375,2.85,0.3));
#362=CARTESIAN_POINT('',(4.075,2.5501667129887,0.29));
#363=CARTESIAN_POINT('Origin',(4.075,2.40025006948305,0.285));
#364=CARTESIAN_POINT('',(4.375,2.40025006948305,0.435));
#365=CARTESIAN_POINT('Origin',(4.375,2.40025006948305,0.285));
#366=CARTESIAN_POINT('',(4.075,2.40025006948305,0.435));
#367=CARTESIAN_POINT('Origin',(4.075,2.375,0.435));
#368=CARTESIAN_POINT('',(4.375,2.2,0.435));
#369=CARTESIAN_POINT('',(4.375,2.375,0.435));
#370=CARTESIAN_POINT('',(4.075,2.2,0.435));
#371=CARTESIAN_POINT('Origin',(4.075,2.2,0.55));
#372=CARTESIAN_POINT('',(4.375,2.2,0.665));
#373=CARTESIAN_POINT('',(4.375,2.2,0.55));
#374=CARTESIAN_POINT('',(4.075,2.2,0.665));
#375=CARTESIAN_POINT('Origin',(4.075,2.49,0.665));
#376=CARTESIAN_POINT('',(4.375,2.48,0.665));
#377=CARTESIAN_POINT('',(4.375,2.49,0.665));
#378=CARTESIAN_POINT('',(4.075,2.48,0.665));
#379=CARTESIAN_POINT('Origin',(4.075,2.48,0.365));
#380=CARTESIAN_POINT('',(4.375,2.7798332870113,0.375));
#381=CARTESIAN_POINT('Origin',(4.375,2.48,0.365));
#382=CARTESIAN_POINT('',(4.075,2.7798332870113,0.375));
#383=CARTESIAN_POINT('Origin',(4.075,2.92974993051695,0.38));
#384=CARTESIAN_POINT('Origin',(4.375,2.92974993051695,0.38));
#385=CARTESIAN_POINT('Origin',(4.375,2.675,0.3325));
#386=UNCERTAINTY_MEASURE_WITH_UNIT(LENGTH_MEASURE(0.01),#390,
'DISTANCE_ACCURACY_VALUE',
'Maximum model space distance between geometric entities at asserted c
onnectivities');
#387=UNCERTAINTY_MEASURE_WITH_UNIT(LENGTH_MEASURE(0.01),#390,
'DISTANCE_ACCURACY_VALUE',
'Maximum model space distance between geometric entities at asserted c
onnectivities');
#388=(
GEOMETRIC_REPRESENTATION_CONTEXT(3)
GLOBAL_UNCERTAINTY_ASSIGNED_CONTEXT((#386))
GLOBAL_UNIT_ASSIGNED_CONTEXT((#390,#392,#393))
REPRESENTATION_CONTEXT('','3D')
);
#389=(
GEOMETRIC_REPRESENTATION_CONTEXT(3)
GLOBAL_UNCERTAINTY_ASSIGNED_CONTEXT((#387))
GLOBAL_UNIT_ASSIGNED_CONTEXT((#390,#392,#393))
REPRESENTATION_CONTEXT('','3D')
);
#390=(
LENGTH_UNIT()
NAMED_UNIT(*)
SI_UNIT(.MILLI.,.METRE.)
);
#391=(
LENGTH_UNIT()
NAMED_UNIT(*)
SI_UNIT($,.METRE.)
);
#392=(
NAMED_UNIT(*)
PLANE_ANGLE_UNIT()
SI_UNIT($,.RADIAN.)
);
#393=(
NAMED_UNIT(*)
SI_UNIT($,.STERADIAN.)
SOLID_ANGLE_UNIT()
);
#394=SHAPE_DEFINITION_REPRESENTATION(#395,#396);
#395=PRODUCT_DEFINITION_SHAPE('',$,#398);
#396=SHAPE_REPRESENTATION('',(#238),#388);
#397=PRODUCT_DEFINITION_CONTEXT('part definition',#402,'design');
#398=PRODUCT_DEFINITION('Pin15_1','Pin15_1',#399,#397);
#399=PRODUCT_DEFINITION_FORMATION('',$,#404);
#400=PRODUCT_RELATED_PRODUCT_CATEGORY('Pin15_1','Pin15_1',(#404));
#401=APPLICATION_PROTOCOL_DEFINITION('international standard',
'automotive_design',2009,#402);
#402=APPLICATION_CONTEXT(
'Core Data for Automotive Mechanical Design Process');
#403=PRODUCT_CONTEXT('part definition',#402,'mechanical');
#404=PRODUCT('Pin15_1','Pin15_1',$,(#403));
#405=PRESENTATION_STYLE_ASSIGNMENT((#407));
#406=PRESENTATION_STYLE_ASSIGNMENT((#408));
#407=SURFACE_STYLE_USAGE(.BOTH.,#409);
#408=SURFACE_STYLE_USAGE(.BOTH.,#410);
#409=SURFACE_SIDE_STYLE('',(#411));
#410=SURFACE_SIDE_STYLE('',(#412));
#411=SURFACE_STYLE_FILL_AREA(#413);
#412=SURFACE_STYLE_FILL_AREA(#414);
#413=FILL_AREA_STYLE('Acier - Satin\X\E9',(#415));
#414=FILL_AREA_STYLE('Opaque(230,230,230)',(#416));
#415=FILL_AREA_STYLE_COLOUR('Acier - Satin\X\E9',#417);
#416=FILL_AREA_STYLE_COLOUR('Opaque(230,230,230)',#418);
#417=COLOUR_RGB('Acier - Satin\X\E9',0.627450980392157,0.627450980392157,
0.627450980392157);
#418=COLOUR_RGB('Opaque(230,230,230)',0.901960784313726,0.901960784313726,
0.901960784313726);
ENDSEC;
END-ISO-10303-21;
