ISO-10303-21;
HEADER;
/* Generated by software containing ST-Developer
 * from STEP Tools, Inc. (www.steptools.com) 
 */

FILE_DESCRIPTION(
/* description */ (''),
/* implementation_level */ '2;1');

FILE_NAME(
/* name */ 'Colonnette_M3-12-FF.step',
/* time_stamp */ '2026-02-08T19:26:15+01:00',
/* author */ (''),
/* organization */ (''),
/* preprocessor_version */ 'ST-DEVELOPER v20.1',
/* originating_system */ 'Autodesk Translation Framework v14.24.0.0',
/* authorisation */ '');

FILE_SCHEMA (('AUTOMOTIVE_DESIGN { 1 0 10303 214 3 1 1 }'));
ENDSEC;

DATA;
#10=MECHANICAL_DESIGN_GEOMETRIC_PRESENTATION_REPRESENTATION('',(#13),#864);
#11=SHAPE_REPRESENTATION_RELATIONSHIP('SRR','None',#871,#12);
#12=ADVANCED_BREP_SHAPE_REPRESENTATION('',(#14),#863);
#13=STYLED_ITEM('',(#881),#14);
#14=MANIFOLD_SOLID_BREP('Corps1',#349);
#15=FACE_BOUND('',#97,.T.);
#16=FACE_BOUND('',#99,.T.);
#17=PLANE('',#375);
#18=PLANE('',#376);
#19=PLANE('',#377);
#20=PLANE('',#378);
#21=PLANE('',#379);
#22=PLANE('',#380);
#23=PLANE('',#381);
#24=PLANE('',#387);
#25=CYLINDRICAL_SURFACE('',#374,1.4);
#26=B_SPLINE_CURVE_WITH_KNOTS('',3,(#512,#513,#514,#515,#516,#517,#518,
#519,#520,#521,#522,#523),.UNSPECIFIED.,.F.,.F.,(4,2,2,2,2,4),(-0.335025963955632,
-0.271377715225777,-0.207729466495922,-0.182317859389947,-0.17436532278114,
-0.16751298197782),.UNSPECIFIED.);
#27=B_SPLINE_CURVE_WITH_KNOTS('',3,(#525,#526,#527,#528,#529,#530,#531,
#532,#533,#534,#535,#536),.UNSPECIFIED.,.F.,.F.,(4,2,2,2,2,4),(0.167512981977818,
0.174365322781138,0.182317859389945,0.20772946649592,0.271377715225775,
0.335025963955629),.UNSPECIFIED.);
#28=B_SPLINE_CURVE_WITH_KNOTS('',3,(#543,#544,#545,#546,#547,#548,#549,
#550,#551,#552,#553,#554),.UNSPECIFIED.,.F.,.F.,(4,2,2,2,2,4),(0.,0.0636482487298492,
0.127296497459698,0.15270810456567,0.160660641174477,0.167512981977796),
 .UNSPECIFIED.);
#29=B_SPLINE_CURVE_WITH_KNOTS('',3,(#555,#556,#557,#558,#559,#560,#561,
#562,#563,#564,#565,#566),.UNSPECIFIED.,.F.,.F.,(4,2,2,2,2,4),(-0.167512981977797,
-0.160660641174478,-0.152708104565672,-0.127296497459699,-0.0636482487298496,
0.),.UNSPECIFIED.);
#30=B_SPLINE_CURVE_WITH_KNOTS('',3,(#572,#573,#574,#575,#576,#577,#578,
#579,#580,#581,#582,#583),.UNSPECIFIED.,.F.,.F.,(4,2,2,2,2,4),(0.502538945933407,
0.509391286736726,0.517343823345533,0.542755430451504,0.606403679181354,
0.670051927911203),.UNSPECIFIED.);
#31=B_SPLINE_CURVE_WITH_KNOTS('',3,(#586,#587,#588,#589,#590,#591,#592,
#593,#594,#595,#596,#597),.UNSPECIFIED.,.F.,.F.,(4,2,2,2,2,4),(0.335025963955629,
0.398674212685483,0.462322461415337,0.487734068521312,0.49568660513012,
0.502538945933439),.UNSPECIFIED.);
#32=B_SPLINE_CURVE_WITH_KNOTS('',3,(#600,#601,#602,#603,#604,#605,#606,
#607,#608,#609,#610,#611),.UNSPECIFIED.,.F.,.F.,(4,2,2,2,2,4),(0.16751298197782,
0.17436532278114,0.182317859389947,0.207729466495923,0.271377715225777,
0.335025963955632),.UNSPECIFIED.);
#33=B_SPLINE_CURVE_WITH_KNOTS('',3,(#614,#615,#616,#617,#618,#619,#620,
#621,#622,#623,#624,#625),.UNSPECIFIED.,.F.,.F.,(4,2,2,2,2,4),(0.,0.0636482487298497,
0.127296497459699,0.152708104565672,0.160660641174479,0.167512981977797),
 .UNSPECIFIED.);
#34=B_SPLINE_CURVE_WITH_KNOTS('',3,(#629,#630,#631,#632,#633,#634,#635,
#636,#637,#638,#639,#640),.UNSPECIFIED.,.F.,.F.,(4,2,2,2,2,4),(0.16751298197781,
0.174365322781129,0.182317859389935,0.207729466495909,0.27137771522576,
0.335025963955611),.UNSPECIFIED.);
#35=B_SPLINE_CURVE_WITH_KNOTS('',3,(#644,#645,#646,#647,#648,#649,#650,
#651,#652,#653,#654,#655),.UNSPECIFIED.,.F.,.F.,(4,2,2,2,2,4),(0.,0.0636482487298484,
0.127296497459697,0.152708104565668,0.160660641174475,0.167512981977793),
 .UNSPECIFIED.);
#36=B_SPLINE_CURVE_WITH_KNOTS('',3,(#656,#657,#658,#659,#660,#661,#662,
#663,#664,#665,#666,#667),.UNSPECIFIED.,.F.,.F.,(4,2,2,2,2,4),(0.502538945933399,
0.509391286736717,0.517343823345523,0.542755430451495,0.606403679181343,
0.670051927911191),.UNSPECIFIED.);
#37=B_SPLINE_CURVE_WITH_KNOTS('',3,(#668,#669,#670,#671,#672,#673,#674,
#675,#676,#677,#678,#679),.UNSPECIFIED.,.F.,.F.,(4,2,2,2,2,4),(0.335025963955611,
0.398674212685462,0.462322461415314,0.487734068521287,0.495686605130094,
0.502538945933413),.UNSPECIFIED.);
#38=B_SPLINE_CURVE_WITH_KNOTS('',3,(#683,#684,#685,#686,#687,#688,#689,
#690,#691,#692,#693,#694),.UNSPECIFIED.,.F.,.F.,(4,2,2,2,2,4),(0.167512981977799,
0.174365322781118,0.182317859389924,0.207729466495895,0.271377715225742,
0.33502596395559),.UNSPECIFIED.);
#39=B_SPLINE_CURVE_WITH_KNOTS('',3,(#698,#699,#700,#701,#702,#703,#704,
#705,#706,#707,#708,#709),.UNSPECIFIED.,.F.,.F.,(4,2,2,2,2,4),(0.,0.0636482487298468,
0.127296497459694,0.152708104565664,0.16066064117447,0.167512981977788),
 .UNSPECIFIED.);
#40=B_SPLINE_CURVE_WITH_KNOTS('',3,(#710,#711,#712,#713,#714,#715,#716,
#717,#718,#719,#720,#721),.UNSPECIFIED.,.F.,.F.,(4,2,2,2,2,4),(0.502538945933385,
0.509391286736703,0.517343823345509,0.542755430451479,0.606403679181326,
0.670051927911173),.UNSPECIFIED.);
#41=B_SPLINE_CURVE_WITH_KNOTS('',3,(#722,#723,#724,#725,#726,#727,#728,
#729,#730,#731,#732,#733),.UNSPECIFIED.,.F.,.F.,(4,2,2,2,2,4),(0.33502596395559,
0.398674212685438,0.462322461415286,0.487734068521257,0.495686605130063,
0.502538945933381),.UNSPECIFIED.);
#42=B_SPLINE_CURVE_WITH_KNOTS('',3,(#737,#738,#739,#740,#741,#742,#743,
#744,#745,#746,#747,#748),.UNSPECIFIED.,.F.,.F.,(4,2,2,2,2,4),(0.167512981977799,
0.174365322781118,0.182317859389924,0.207729466495895,0.271377715225743,
0.33502596395559),.UNSPECIFIED.);
#43=B_SPLINE_CURVE_WITH_KNOTS('',3,(#752,#753,#754,#755,#756,#757,#758,
#759,#760,#761,#762,#763),.UNSPECIFIED.,.F.,.F.,(4,2,2,2,2,4),(0.,0.0636482487298484,
0.127296497459697,0.152708104565668,0.160660641174474,0.167512981977792),
 .UNSPECIFIED.);
#44=B_SPLINE_CURVE_WITH_KNOTS('',3,(#764,#765,#766,#767,#768,#769,#770,
#771,#772,#773,#774,#775),.UNSPECIFIED.,.F.,.F.,(4,2,2,2,2,4),(0.502538945933385,
0.509391286736703,0.517343823345509,0.542755430451479,0.606403679181326,
0.670051927911173),.UNSPECIFIED.);
#45=B_SPLINE_CURVE_WITH_KNOTS('',3,(#776,#777,#778,#779,#780,#781,#782,
#783,#784,#785,#786,#787),.UNSPECIFIED.,.F.,.F.,(4,2,2,2,2,4),(0.33502596395559,
0.398674212685438,0.462322461415286,0.487734068521257,0.495686605130063,
0.502538945933381),.UNSPECIFIED.);
#46=B_SPLINE_CURVE_WITH_KNOTS('',3,(#790,#791,#792,#793,#794,#795,#796,
#797,#798,#799,#800,#801),.UNSPECIFIED.,.F.,.F.,(4,2,2,2,2,4),(0.16751298197781,
0.174365322781129,0.182317859389936,0.207729466495909,0.27137771522576,
0.335025963955611),.UNSPECIFIED.);
#47=B_SPLINE_CURVE_WITH_KNOTS('',3,(#803,#804,#805,#806,#807,#808,#809,
#810,#811,#812,#813,#814),.UNSPECIFIED.,.F.,.F.,(4,2,2,2,2,4),(-2.94438535376087E-15,
0.0636482487298465,0.127296497459696,0.152708104565668,0.160660641174474,
0.167512981977793),.UNSPECIFIED.);
#48=B_SPLINE_CURVE_WITH_KNOTS('',3,(#815,#816,#817,#818,#819,#820,#821,
#822,#823,#824,#825,#826),.UNSPECIFIED.,.F.,.F.,(4,2,2,2,2,4),(0.502538945933395,
0.509391286736714,0.51734382334552,0.542755430451491,0.60640367918134,0.670051927911189),
 .UNSPECIFIED.);
#49=B_SPLINE_CURVE_WITH_KNOTS('',3,(#827,#828,#829,#830,#831,#832,#833,
#834,#835,#836,#837,#838),.UNSPECIFIED.,.F.,.F.,(4,2,2,2,2,4),(0.335025963955611,
0.398674212685463,0.462322461415314,0.487734068521287,0.495686605130094,
0.502538945933413),.UNSPECIFIED.);
#50=TOROIDAL_SURFACE('',#370,2.75000000000007,0.425426480542931);
#51=TOROIDAL_SURFACE('',#372,2.75000000000003,0.425426480542931);
#52=TOROIDAL_SURFACE('',#393,2.75000000000003,0.425426480542931);
#53=TOROIDAL_SURFACE('',#394,2.75000000000003,0.425426480542931);
#54=TOROIDAL_SURFACE('',#395,2.75000000000003,0.425426480542931);
#55=TOROIDAL_SURFACE('',#396,2.75000000000003,0.425426480542931);
#56=TOROIDAL_SURFACE('',#397,2.75000000000003,0.425426480542931);
#57=TOROIDAL_SURFACE('',#398,2.75000000000007,0.425426480542931);
#58=TOROIDAL_SURFACE('',#399,2.75000000000007,0.425426480542931);
#59=TOROIDAL_SURFACE('',#400,2.75000000000007,0.425426480542931);
#60=TOROIDAL_SURFACE('',#401,2.75000000000007,0.425426480542931);
#61=TOROIDAL_SURFACE('',#402,2.75000000000007,0.425426480542931);
#62=FACE_OUTER_BOUND('',#85,.T.);
#63=FACE_OUTER_BOUND('',#86,.T.);
#64=FACE_OUTER_BOUND('',#87,.T.);
#65=FACE_OUTER_BOUND('',#88,.T.);
#66=FACE_OUTER_BOUND('',#89,.T.);
#67=FACE_OUTER_BOUND('',#90,.T.);
#68=FACE_OUTER_BOUND('',#91,.T.);
#69=FACE_OUTER_BOUND('',#92,.T.);
#70=FACE_OUTER_BOUND('',#93,.T.);
#71=FACE_OUTER_BOUND('',#94,.T.);
#72=FACE_OUTER_BOUND('',#95,.T.);
#73=FACE_OUTER_BOUND('',#96,.T.);
#74=FACE_OUTER_BOUND('',#98,.T.);
#75=FACE_OUTER_BOUND('',#100,.T.);
#76=FACE_OUTER_BOUND('',#101,.T.);
#77=FACE_OUTER_BOUND('',#102,.T.);
#78=FACE_OUTER_BOUND('',#103,.T.);
#79=FACE_OUTER_BOUND('',#104,.T.);
#80=FACE_OUTER_BOUND('',#105,.T.);
#81=FACE_OUTER_BOUND('',#106,.T.);
#82=FACE_OUTER_BOUND('',#107,.T.);
#83=FACE_OUTER_BOUND('',#108,.T.);
#84=FACE_OUTER_BOUND('',#109,.T.);
#85=EDGE_LOOP('',(#224,#225,#226,#227));
#86=EDGE_LOOP('',(#228,#229,#230,#231,#232));
#87=EDGE_LOOP('',(#233,#234,#235));
#88=EDGE_LOOP('',(#236,#237,#238));
#89=EDGE_LOOP('',(#239,#240,#241,#242,#243));
#90=EDGE_LOOP('',(#244,#245,#246,#247,#248,#249));
#91=EDGE_LOOP('',(#250,#251,#252,#253,#254,#255));
#92=EDGE_LOOP('',(#256,#257,#258,#259,#260,#261));
#93=EDGE_LOOP('',(#262,#263,#264,#265,#266,#267));
#94=EDGE_LOOP('',(#268,#269,#270,#271,#272,#273));
#95=EDGE_LOOP('',(#274,#275,#276,#277,#278,#279));
#96=EDGE_LOOP('',(#280,#281,#282,#283,#284,#285));
#97=EDGE_LOOP('',(#286));
#98=EDGE_LOOP('',(#287,#288,#289,#290,#291,#292));
#99=EDGE_LOOP('',(#293));
#100=EDGE_LOOP('',(#294,#295,#296));
#101=EDGE_LOOP('',(#297,#298,#299));
#102=EDGE_LOOP('',(#300,#301,#302));
#103=EDGE_LOOP('',(#303,#304,#305));
#104=EDGE_LOOP('',(#306,#307,#308));
#105=EDGE_LOOP('',(#309,#310,#311));
#106=EDGE_LOOP('',(#312,#313,#314));
#107=EDGE_LOOP('',(#315,#316,#317));
#108=EDGE_LOOP('',(#318,#319,#320));
#109=EDGE_LOOP('',(#321,#322,#323));
#110=LINE('',#499,#119);
#111=LINE('',#507,#120);
#112=LINE('',#568,#121);
#113=LINE('',#570,#122);
#114=LINE('',#585,#123);
#115=LINE('',#613,#124);
#116=LINE('',#642,#125);
#117=LINE('',#696,#126);
#118=LINE('',#750,#127);
#119=VECTOR('',#409,1.65);
#120=VECTOR('',#418,1.4);
#121=VECTOR('',#431,1.4);
#122=VECTOR('',#434,1000.);
#123=VECTOR('',#435,1000.);
#124=VECTOR('',#438,1000.);
#125=VECTOR('',#441,1000.);
#126=VECTOR('',#444,1000.);
#127=VECTOR('',#447,1000.);
#128=CIRCLE('',#364,1.4);
#129=CIRCLE('',#365,1.65);
#130=CIRCLE('',#367,1.4);
#131=CIRCLE('',#368,1.4);
#132=CIRCLE('',#369,1.65);
#133=CIRCLE('',#371,2.75000000000007);
#134=CIRCLE('',#373,2.75000000000003);
#135=CIRCLE('',#382,2.75000000000007);
#136=CIRCLE('',#383,2.75000000000007);
#137=CIRCLE('',#384,2.75000000000007);
#138=CIRCLE('',#385,2.75000000000007);
#139=CIRCLE('',#386,2.75000000000007);
#140=CIRCLE('',#388,2.75000000000003);
#141=CIRCLE('',#389,2.75000000000003);
#142=CIRCLE('',#390,2.75000000000003);
#143=CIRCLE('',#391,2.75000000000003);
#144=CIRCLE('',#392,2.75000000000003);
#145=VERTEX_POINT('',#496);
#146=VERTEX_POINT('',#498);
#147=VERTEX_POINT('',#502);
#148=VERTEX_POINT('',#503);
#149=VERTEX_POINT('',#506);
#150=VERTEX_POINT('',#510);
#151=VERTEX_POINT('',#511);
#152=VERTEX_POINT('',#524);
#153=VERTEX_POINT('',#539);
#154=VERTEX_POINT('',#540);
#155=VERTEX_POINT('',#542);
#156=VERTEX_POINT('',#571);
#157=VERTEX_POINT('',#584);
#158=VERTEX_POINT('',#599);
#159=VERTEX_POINT('',#612);
#160=VERTEX_POINT('',#627);
#161=VERTEX_POINT('',#628);
#162=VERTEX_POINT('',#641);
#163=VERTEX_POINT('',#643);
#164=VERTEX_POINT('',#681);
#165=VERTEX_POINT('',#682);
#166=VERTEX_POINT('',#695);
#167=VERTEX_POINT('',#697);
#168=VERTEX_POINT('',#735);
#169=VERTEX_POINT('',#736);
#170=VERTEX_POINT('',#749);
#171=VERTEX_POINT('',#751);
#172=VERTEX_POINT('',#789);
#173=VERTEX_POINT('',#802);
#174=EDGE_CURVE('',#145,#145,#128,.T.);
#175=EDGE_CURVE('',#145,#146,#110,.T.);
#176=EDGE_CURVE('',#146,#146,#129,.T.);
#177=EDGE_CURVE('',#147,#148,#130,.T.);
#178=EDGE_CURVE('',#148,#147,#131,.T.);
#179=EDGE_CURVE('',#148,#149,#111,.T.);
#180=EDGE_CURVE('',#149,#149,#132,.T.);
#181=EDGE_CURVE('',#150,#151,#26,.T.);
#182=EDGE_CURVE('',#151,#152,#27,.T.);
#183=EDGE_CURVE('',#152,#150,#133,.T.);
#184=EDGE_CURVE('',#153,#154,#134,.T.);
#185=EDGE_CURVE('',#154,#155,#28,.T.);
#186=EDGE_CURVE('',#155,#153,#29,.T.);
#187=EDGE_CURVE('',#147,#145,#112,.T.);
#188=EDGE_CURVE('',#155,#151,#113,.T.);
#189=EDGE_CURVE('',#156,#154,#30,.T.);
#190=EDGE_CURVE('',#156,#157,#114,.T.);
#191=EDGE_CURVE('',#152,#157,#31,.T.);
#192=EDGE_CURVE('',#158,#150,#32,.T.);
#193=EDGE_CURVE('',#159,#158,#115,.T.);
#194=EDGE_CURVE('',#153,#159,#33,.T.);
#195=EDGE_CURVE('',#160,#161,#34,.T.);
#196=EDGE_CURVE('',#162,#160,#116,.T.);
#197=EDGE_CURVE('',#163,#162,#35,.T.);
#198=EDGE_CURVE('',#159,#163,#36,.T.);
#199=EDGE_CURVE('',#161,#158,#37,.T.);
#200=EDGE_CURVE('',#164,#165,#38,.T.);
#201=EDGE_CURVE('',#166,#164,#117,.T.);
#202=EDGE_CURVE('',#167,#166,#39,.T.);
#203=EDGE_CURVE('',#162,#167,#40,.T.);
#204=EDGE_CURVE('',#165,#160,#41,.T.);
#205=EDGE_CURVE('',#168,#169,#42,.T.);
#206=EDGE_CURVE('',#170,#168,#118,.T.);
#207=EDGE_CURVE('',#171,#170,#43,.T.);
#208=EDGE_CURVE('',#166,#171,#44,.T.);
#209=EDGE_CURVE('',#169,#164,#45,.T.);
#210=EDGE_CURVE('',#157,#172,#46,.T.);
#211=EDGE_CURVE('',#173,#156,#47,.T.);
#212=EDGE_CURVE('',#170,#173,#48,.T.);
#213=EDGE_CURVE('',#172,#168,#49,.T.);
#214=EDGE_CURVE('',#152,#172,#135,.T.);
#215=EDGE_CURVE('',#169,#172,#136,.T.);
#216=EDGE_CURVE('',#165,#169,#137,.T.);
#217=EDGE_CURVE('',#161,#165,#138,.T.);
#218=EDGE_CURVE('',#150,#161,#139,.T.);
#219=EDGE_CURVE('',#173,#171,#140,.T.);
#220=EDGE_CURVE('',#154,#173,#141,.T.);
#221=EDGE_CURVE('',#163,#153,#142,.T.);
#222=EDGE_CURVE('',#167,#163,#143,.T.);
#223=EDGE_CURVE('',#171,#167,#144,.T.);
#224=ORIENTED_EDGE('',*,*,#174,.F.);
#225=ORIENTED_EDGE('',*,*,#175,.T.);
#226=ORIENTED_EDGE('',*,*,#176,.F.);
#227=ORIENTED_EDGE('',*,*,#175,.F.);
#228=ORIENTED_EDGE('',*,*,#177,.F.);
#229=ORIENTED_EDGE('',*,*,#178,.F.);
#230=ORIENTED_EDGE('',*,*,#179,.T.);
#231=ORIENTED_EDGE('',*,*,#180,.F.);
#232=ORIENTED_EDGE('',*,*,#179,.F.);
#233=ORIENTED_EDGE('',*,*,#181,.T.);
#234=ORIENTED_EDGE('',*,*,#182,.T.);
#235=ORIENTED_EDGE('',*,*,#183,.T.);
#236=ORIENTED_EDGE('',*,*,#184,.T.);
#237=ORIENTED_EDGE('',*,*,#185,.T.);
#238=ORIENTED_EDGE('',*,*,#186,.T.);
#239=ORIENTED_EDGE('',*,*,#177,.T.);
#240=ORIENTED_EDGE('',*,*,#178,.T.);
#241=ORIENTED_EDGE('',*,*,#187,.T.);
#242=ORIENTED_EDGE('',*,*,#174,.T.);
#243=ORIENTED_EDGE('',*,*,#187,.F.);
#244=ORIENTED_EDGE('',*,*,#182,.F.);
#245=ORIENTED_EDGE('',*,*,#188,.F.);
#246=ORIENTED_EDGE('',*,*,#185,.F.);
#247=ORIENTED_EDGE('',*,*,#189,.F.);
#248=ORIENTED_EDGE('',*,*,#190,.T.);
#249=ORIENTED_EDGE('',*,*,#191,.F.);
#250=ORIENTED_EDGE('',*,*,#192,.F.);
#251=ORIENTED_EDGE('',*,*,#193,.F.);
#252=ORIENTED_EDGE('',*,*,#194,.F.);
#253=ORIENTED_EDGE('',*,*,#186,.F.);
#254=ORIENTED_EDGE('',*,*,#188,.T.);
#255=ORIENTED_EDGE('',*,*,#181,.F.);
#256=ORIENTED_EDGE('',*,*,#195,.F.);
#257=ORIENTED_EDGE('',*,*,#196,.F.);
#258=ORIENTED_EDGE('',*,*,#197,.F.);
#259=ORIENTED_EDGE('',*,*,#198,.F.);
#260=ORIENTED_EDGE('',*,*,#193,.T.);
#261=ORIENTED_EDGE('',*,*,#199,.F.);
#262=ORIENTED_EDGE('',*,*,#200,.F.);
#263=ORIENTED_EDGE('',*,*,#201,.F.);
#264=ORIENTED_EDGE('',*,*,#202,.F.);
#265=ORIENTED_EDGE('',*,*,#203,.F.);
#266=ORIENTED_EDGE('',*,*,#196,.T.);
#267=ORIENTED_EDGE('',*,*,#204,.F.);
#268=ORIENTED_EDGE('',*,*,#205,.F.);
#269=ORIENTED_EDGE('',*,*,#206,.F.);
#270=ORIENTED_EDGE('',*,*,#207,.F.);
#271=ORIENTED_EDGE('',*,*,#208,.F.);
#272=ORIENTED_EDGE('',*,*,#201,.T.);
#273=ORIENTED_EDGE('',*,*,#209,.F.);
#274=ORIENTED_EDGE('',*,*,#210,.F.);
#275=ORIENTED_EDGE('',*,*,#190,.F.);
#276=ORIENTED_EDGE('',*,*,#211,.F.);
#277=ORIENTED_EDGE('',*,*,#212,.F.);
#278=ORIENTED_EDGE('',*,*,#206,.T.);
#279=ORIENTED_EDGE('',*,*,#213,.F.);
#280=ORIENTED_EDGE('',*,*,#214,.T.);
#281=ORIENTED_EDGE('',*,*,#215,.F.);
#282=ORIENTED_EDGE('',*,*,#216,.F.);
#283=ORIENTED_EDGE('',*,*,#217,.F.);
#284=ORIENTED_EDGE('',*,*,#218,.F.);
#285=ORIENTED_EDGE('',*,*,#183,.F.);
#286=ORIENTED_EDGE('',*,*,#176,.T.);
#287=ORIENTED_EDGE('',*,*,#219,.F.);
#288=ORIENTED_EDGE('',*,*,#220,.F.);
#289=ORIENTED_EDGE('',*,*,#184,.F.);
#290=ORIENTED_EDGE('',*,*,#221,.F.);
#291=ORIENTED_EDGE('',*,*,#222,.F.);
#292=ORIENTED_EDGE('',*,*,#223,.F.);
#293=ORIENTED_EDGE('',*,*,#180,.T.);
#294=ORIENTED_EDGE('',*,*,#207,.T.);
#295=ORIENTED_EDGE('',*,*,#212,.T.);
#296=ORIENTED_EDGE('',*,*,#219,.T.);
#297=ORIENTED_EDGE('',*,*,#189,.T.);
#298=ORIENTED_EDGE('',*,*,#220,.T.);
#299=ORIENTED_EDGE('',*,*,#211,.T.);
#300=ORIENTED_EDGE('',*,*,#202,.T.);
#301=ORIENTED_EDGE('',*,*,#208,.T.);
#302=ORIENTED_EDGE('',*,*,#223,.T.);
#303=ORIENTED_EDGE('',*,*,#197,.T.);
#304=ORIENTED_EDGE('',*,*,#203,.T.);
#305=ORIENTED_EDGE('',*,*,#222,.T.);
#306=ORIENTED_EDGE('',*,*,#194,.T.);
#307=ORIENTED_EDGE('',*,*,#198,.T.);
#308=ORIENTED_EDGE('',*,*,#221,.T.);
#309=ORIENTED_EDGE('',*,*,#205,.T.);
#310=ORIENTED_EDGE('',*,*,#215,.T.);
#311=ORIENTED_EDGE('',*,*,#213,.T.);
#312=ORIENTED_EDGE('',*,*,#200,.T.);
#313=ORIENTED_EDGE('',*,*,#216,.T.);
#314=ORIENTED_EDGE('',*,*,#209,.T.);
#315=ORIENTED_EDGE('',*,*,#195,.T.);
#316=ORIENTED_EDGE('',*,*,#217,.T.);
#317=ORIENTED_EDGE('',*,*,#204,.T.);
#318=ORIENTED_EDGE('',*,*,#199,.T.);
#319=ORIENTED_EDGE('',*,*,#192,.T.);
#320=ORIENTED_EDGE('',*,*,#218,.T.);
#321=ORIENTED_EDGE('',*,*,#191,.T.);
#322=ORIENTED_EDGE('',*,*,#210,.T.);
#323=ORIENTED_EDGE('',*,*,#214,.F.);
#324=CONICAL_SURFACE('',#363,1.65,0.785398163397452);
#325=CONICAL_SURFACE('',#366,1.4,0.785398163397456);
#326=ADVANCED_FACE('',(#62),#324,.F.);
#327=ADVANCED_FACE('',(#63),#325,.F.);
#328=ADVANCED_FACE('',(#64),#50,.T.);
#329=ADVANCED_FACE('',(#65),#51,.T.);
#330=ADVANCED_FACE('',(#66),#25,.F.);
#331=ADVANCED_FACE('',(#67),#17,.F.);
#332=ADVANCED_FACE('',(#68),#18,.F.);
#333=ADVANCED_FACE('',(#69),#19,.F.);
#334=ADVANCED_FACE('',(#70),#20,.F.);
#335=ADVANCED_FACE('',(#71),#21,.F.);
#336=ADVANCED_FACE('',(#72),#22,.F.);
#337=ADVANCED_FACE('',(#73,#15),#23,.F.);
#338=ADVANCED_FACE('',(#74,#16),#24,.T.);
#339=ADVANCED_FACE('',(#75),#52,.T.);
#340=ADVANCED_FACE('',(#76),#53,.T.);
#341=ADVANCED_FACE('',(#77),#54,.T.);
#342=ADVANCED_FACE('',(#78),#55,.T.);
#343=ADVANCED_FACE('',(#79),#56,.T.);
#344=ADVANCED_FACE('',(#80),#57,.T.);
#345=ADVANCED_FACE('',(#81),#58,.T.);
#346=ADVANCED_FACE('',(#82),#59,.T.);
#347=ADVANCED_FACE('',(#83),#60,.T.);
#348=ADVANCED_FACE('',(#84),#61,.T.);
#349=CLOSED_SHELL('',(#326,#327,#328,#329,#330,#331,#332,#333,#334,#335,
#336,#337,#338,#339,#340,#341,#342,#343,#344,#345,#346,#347,#348));
#350=DERIVED_UNIT_ELEMENT(#352,1.);
#351=DERIVED_UNIT_ELEMENT(#866,-3.);
#352=(
MASS_UNIT()
NAMED_UNIT(*)
SI_UNIT(.KILO.,.GRAM.)
);
#353=DERIVED_UNIT((#350,#351));
#354=MEASURE_REPRESENTATION_ITEM('density measure',
POSITIVE_RATIO_MEASURE(7850.),#353);
#355=PROPERTY_DEFINITION_REPRESENTATION(#360,#357);
#356=PROPERTY_DEFINITION_REPRESENTATION(#361,#358);
#357=REPRESENTATION('material name',(#359),#863);
#358=REPRESENTATION('density',(#354),#863);
#359=DESCRIPTIVE_REPRESENTATION_ITEM('Acier','Acier');
#360=PROPERTY_DEFINITION('material property','material name',#873);
#361=PROPERTY_DEFINITION('material property','density of part',#873);
#362=AXIS2_PLACEMENT_3D('',#494,#403,#404);
#363=AXIS2_PLACEMENT_3D('',#495,#405,#406);
#364=AXIS2_PLACEMENT_3D('',#497,#407,#408);
#365=AXIS2_PLACEMENT_3D('',#500,#410,#411);
#366=AXIS2_PLACEMENT_3D('',#501,#412,#413);
#367=AXIS2_PLACEMENT_3D('',#504,#414,#415);
#368=AXIS2_PLACEMENT_3D('',#505,#416,#417);
#369=AXIS2_PLACEMENT_3D('',#508,#419,#420);
#370=AXIS2_PLACEMENT_3D('',#509,#421,#422);
#371=AXIS2_PLACEMENT_3D('',#537,#423,#424);
#372=AXIS2_PLACEMENT_3D('',#538,#425,#426);
#373=AXIS2_PLACEMENT_3D('',#541,#427,#428);
#374=AXIS2_PLACEMENT_3D('',#567,#429,#430);
#375=AXIS2_PLACEMENT_3D('',#569,#432,#433);
#376=AXIS2_PLACEMENT_3D('',#598,#436,#437);
#377=AXIS2_PLACEMENT_3D('',#626,#439,#440);
#378=AXIS2_PLACEMENT_3D('',#680,#442,#443);
#379=AXIS2_PLACEMENT_3D('',#734,#445,#446);
#380=AXIS2_PLACEMENT_3D('',#788,#448,#449);
#381=AXIS2_PLACEMENT_3D('',#839,#450,#451);
#382=AXIS2_PLACEMENT_3D('',#840,#452,#453);
#383=AXIS2_PLACEMENT_3D('',#841,#454,#455);
#384=AXIS2_PLACEMENT_3D('',#842,#456,#457);
#385=AXIS2_PLACEMENT_3D('',#843,#458,#459);
#386=AXIS2_PLACEMENT_3D('',#844,#460,#461);
#387=AXIS2_PLACEMENT_3D('',#845,#462,#463);
#388=AXIS2_PLACEMENT_3D('',#846,#464,#465);
#389=AXIS2_PLACEMENT_3D('',#847,#466,#467);
#390=AXIS2_PLACEMENT_3D('',#848,#468,#469);
#391=AXIS2_PLACEMENT_3D('',#849,#470,#471);
#392=AXIS2_PLACEMENT_3D('',#850,#472,#473);
#393=AXIS2_PLACEMENT_3D('',#851,#474,#475);
#394=AXIS2_PLACEMENT_3D('',#852,#476,#477);
#395=AXIS2_PLACEMENT_3D('',#853,#478,#479);
#396=AXIS2_PLACEMENT_3D('',#854,#480,#481);
#397=AXIS2_PLACEMENT_3D('',#855,#482,#483);
#398=AXIS2_PLACEMENT_3D('',#856,#484,#485);
#399=AXIS2_PLACEMENT_3D('',#857,#486,#487);
#400=AXIS2_PLACEMENT_3D('',#858,#488,#489);
#401=AXIS2_PLACEMENT_3D('',#859,#490,#491);
#402=AXIS2_PLACEMENT_3D('',#860,#492,#493);
#403=DIRECTION('axis',(0.,0.,1.));
#404=DIRECTION('refdir',(1.,0.,0.));
#405=DIRECTION('center_axis',(0.,-1.,0.));
#406=DIRECTION('ref_axis',(0.,0.,-1.));
#407=DIRECTION('center_axis',(0.,-1.,0.));
#408=DIRECTION('ref_axis',(0.,0.,1.));
#409=DIRECTION('',(-8.65956056235497E-17,-0.707106781186545,0.70710678118655));
#410=DIRECTION('center_axis',(0.,1.,0.));
#411=DIRECTION('ref_axis',(0.,0.,1.));
#412=DIRECTION('center_axis',(0.,1.,0.));
#413=DIRECTION('ref_axis',(0.,0.,1.));
#414=DIRECTION('center_axis',(0.,1.,0.));
#415=DIRECTION('ref_axis',(0.,0.,1.));
#416=DIRECTION('center_axis',(0.,1.,0.));
#417=DIRECTION('ref_axis',(0.,0.,1.));
#418=DIRECTION('',(-8.659560562355E-17,0.707106781186542,-0.707106781186553));
#419=DIRECTION('center_axis',(0.,-1.,0.));
#420=DIRECTION('ref_axis',(0.,0.,1.));
#421=DIRECTION('center_axis',(3.49148133884313E-15,-1.,0.));
#422=DIRECTION('ref_axis',(1.,3.4962957934246E-15,0.));
#423=DIRECTION('center_axis',(0.,1.,0.));
#424=DIRECTION('ref_axis',(0.,0.,1.));
#425=DIRECTION('center_axis',(3.49148133884313E-15,-1.,0.));
#426=DIRECTION('ref_axis',(1.,3.35644396168765E-15,0.));
#427=DIRECTION('center_axis',(3.49148133884313E-15,-1.,0.));
#428=DIRECTION('ref_axis',(1.,3.49148133884313E-15,0.));
#429=DIRECTION('center_axis',(0.,-1.,0.));
#430=DIRECTION('ref_axis',(0.,0.,-1.));
#431=DIRECTION('',(0.,-1.,0.));
#432=DIRECTION('center_axis',(-0.866025403784442,0.,-0.499999999999995));
#433=DIRECTION('ref_axis',(-0.499999999999995,0.,0.866025403784441));
#434=DIRECTION('',(0.,-1.,0.));
#435=DIRECTION('',(0.,-1.,0.));
#436=DIRECTION('center_axis',(-0.866025403784438,0.,0.500000000000001));
#437=DIRECTION('ref_axis',(0.500000000000001,0.,0.866025403784438));
#438=DIRECTION('',(0.,-1.,0.));
#439=DIRECTION('center_axis',(3.55092541519693E-15,0.,1.));
#440=DIRECTION('ref_axis',(1.,0.,-3.55092541519693E-15));
#441=DIRECTION('',(0.,-1.,0.));
#442=DIRECTION('center_axis',(0.866025403784441,0.,0.499999999999995));
#443=DIRECTION('ref_axis',(0.499999999999995,0.,-0.866025403784442));
#444=DIRECTION('',(0.,-1.,0.));
#445=DIRECTION('center_axis',(0.866025403784435,0.,-0.500000000000007));
#446=DIRECTION('ref_axis',(-0.500000000000007,0.,-0.866025403784435));
#447=DIRECTION('',(0.,-1.,0.));
#448=DIRECTION('center_axis',(-1.03796281367295E-14,0.,-1.));
#449=DIRECTION('ref_axis',(-1.,0.,1.03796281367295E-14));
#450=DIRECTION('center_axis',(0.,1.,0.));
#451=DIRECTION('ref_axis',(0.,0.,1.));
#452=DIRECTION('center_axis',(3.49148133884313E-15,-1.,0.));
#453=DIRECTION('ref_axis',(1.,3.49148133884313E-15,0.));
#454=DIRECTION('center_axis',(0.,1.,0.));
#455=DIRECTION('ref_axis',(0.,0.,1.));
#456=DIRECTION('center_axis',(0.,1.,0.));
#457=DIRECTION('ref_axis',(0.,0.,1.));
#458=DIRECTION('center_axis',(0.,1.,0.));
#459=DIRECTION('ref_axis',(0.,0.,1.));
#460=DIRECTION('center_axis',(0.,1.,0.));
#461=DIRECTION('ref_axis',(0.,0.,1.));
#462=DIRECTION('center_axis',(0.,1.,0.));
#463=DIRECTION('ref_axis',(0.,0.,1.));
#464=DIRECTION('center_axis',(3.49148133884313E-15,-1.,0.));
#465=DIRECTION('ref_axis',(1.,3.49148133884313E-15,0.));
#466=DIRECTION('center_axis',(3.49148133884313E-15,-1.,0.));
#467=DIRECTION('ref_axis',(1.,3.49148133884313E-15,0.));
#468=DIRECTION('center_axis',(3.49148133884313E-15,-1.,0.));
#469=DIRECTION('ref_axis',(1.,3.49148133884313E-15,0.));
#470=DIRECTION('center_axis',(3.49148133884313E-15,-1.,0.));
#471=DIRECTION('ref_axis',(1.,3.49148133884313E-15,0.));
#472=DIRECTION('center_axis',(3.49148133884313E-15,-1.,0.));
#473=DIRECTION('ref_axis',(1.,3.49148133884313E-15,0.));
#474=DIRECTION('center_axis',(3.49148133884313E-15,-1.,0.));
#475=DIRECTION('ref_axis',(1.,3.35644396168765E-15,0.));
#476=DIRECTION('center_axis',(3.49148133884313E-15,-1.,0.));
#477=DIRECTION('ref_axis',(1.,3.35644396168765E-15,0.));
#478=DIRECTION('center_axis',(3.49148133884313E-15,-1.,0.));
#479=DIRECTION('ref_axis',(-1.,-3.35644396168765E-15,6.98296267768627E-15));
#480=DIRECTION('center_axis',(3.49148133884313E-15,-1.,0.));
#481=DIRECTION('ref_axis',(1.,3.35644396168765E-15,0.));
#482=DIRECTION('center_axis',(3.49148133884313E-15,-1.,0.));
#483=DIRECTION('ref_axis',(1.,3.35644396168765E-15,0.));
#484=DIRECTION('center_axis',(3.49148133884313E-15,-1.,0.));
#485=DIRECTION('ref_axis',(1.,3.4962957934246E-15,0.));
#486=DIRECTION('center_axis',(3.49148133884313E-15,-1.,0.));
#487=DIRECTION('ref_axis',(-1.,-3.4962957934246E-15,6.98296267768627E-15));
#488=DIRECTION('center_axis',(3.49148133884313E-15,-1.,0.));
#489=DIRECTION('ref_axis',(1.,3.4962957934246E-15,0.));
#490=DIRECTION('center_axis',(3.49148133884313E-15,-1.,0.));
#491=DIRECTION('ref_axis',(1.,3.4962957934246E-15,0.));
#492=DIRECTION('center_axis',(3.49148133884313E-15,-1.,0.));
#493=DIRECTION('ref_axis',(1.,3.4962957934246E-15,0.));
#494=CARTESIAN_POINT('',(0.,0.,0.));
#495=CARTESIAN_POINT('Origin',(0.,0.,0.));
#496=CARTESIAN_POINT('',(-1.71450551880629E-16,0.249999999999999,1.4));
#497=CARTESIAN_POINT('Origin',(0.,0.249999999999999,0.));
#498=CARTESIAN_POINT('',(-2.02066721859313E-16,-6.34811328928191E-17,1.65));
#499=CARTESIAN_POINT('',(-2.02066721859313E-16,0.,1.65));
#500=CARTESIAN_POINT('Origin',(0.,0.,0.));
#501=CARTESIAN_POINT('Origin',(0.,11.75,0.));
#502=CARTESIAN_POINT('',(1.71450551880629E-16,11.75,1.4));
#503=CARTESIAN_POINT('',(-1.71450551880629E-16,11.75,-1.4));
#504=CARTESIAN_POINT('Origin',(0.,11.75,0.));
#505=CARTESIAN_POINT('Origin',(0.,11.75,0.));
#506=CARTESIAN_POINT('',(-2.02066721859314E-16,12.,-1.65));
#507=CARTESIAN_POINT('',(-1.71450551880629E-16,11.75,-1.4));
#508=CARTESIAN_POINT('Origin',(0.,12.,0.));
#509=CARTESIAN_POINT('Origin',(6.89552581700781E-14,0.425426480542931,0.));
#510=CARTESIAN_POINT('',(2.38156986040734,8.31520672476321E-15,-1.37500000000004));
#511=CARTESIAN_POINT('',(3.17542648054307,0.425426480542901,2.38741318381308E-13));
#512=CARTESIAN_POINT('Ctrl Pts',(2.38156986040721,8.74300631892311E-15,
-1.37499999999997));
#513=CARTESIAN_POINT('Ctrl Pts',(2.48765027495697,9.11284088665299E-15,
-1.19126333231181));
#514=CARTESIAN_POINT('Ctrl Pts',(2.60391336890338,-0.00274384155775984,
-0.989889746551477));
#515=CARTESIAN_POINT('Ctrl Pts',(2.83242521556016,0.0183862745452195,-0.594095618010546));
#516=CARTESIAN_POINT('Ctrl Pts',(2.94471815720386,0.0403033038268013,-0.399598537752299));
#517=CARTESIAN_POINT('Ctrl Pts',(3.08093059498672,0.158261854318496,-0.163671674889565));
#518=CARTESIAN_POINT('Ctrl Pts',(3.12407565142391,0.211983477818398,-0.0889422450449374));
#519=CARTESIAN_POINT('Ctrl Pts',(3.15735253922809,0.301085144564567,-0.0313049846503189));
#520=CARTESIAN_POINT('Ctrl Pts',(3.16506937455977,0.32890037826996,-0.017939033782205));
#521=CARTESIAN_POINT('Ctrl Pts',(3.17306878530395,0.375584635570903,-0.0040836479426794));
#522=CARTESIAN_POINT('Ctrl Pts',(3.17542648054307,0.402585344531875,2.4007041505132E-13));
#523=CARTESIAN_POINT('Ctrl Pts',(3.17542648054307,0.425426480542941,2.4008572907519E-13));
#524=CARTESIAN_POINT('',(2.38156986040735,8.31520672476325E-15,1.37500000000002));
#525=CARTESIAN_POINT('Ctrl Pts',(3.17542648054307,0.42542648054294,-2.40363284831346E-13));
#526=CARTESIAN_POINT('Ctrl Pts',(3.17542648054307,0.402585344531875,-2.36624740779001E-13));
#527=CARTESIAN_POINT('Ctrl Pts',(3.17306878530395,0.375584635570904,0.00408364794267883));
#528=CARTESIAN_POINT('Ctrl Pts',(3.16506937455977,0.328900378269961,0.0179390337822043));
#529=CARTESIAN_POINT('Ctrl Pts',(3.15735253922809,0.301085144564567,0.0313049846503191));
#530=CARTESIAN_POINT('Ctrl Pts',(3.12407565142391,0.211983477818399,0.0889422450449379));
#531=CARTESIAN_POINT('Ctrl Pts',(3.08093059498673,0.158261854318498,0.163671674889563));
#532=CARTESIAN_POINT('Ctrl Pts',(2.94471815720387,0.0403033038268034,0.399598537752294));
#533=CARTESIAN_POINT('Ctrl Pts',(2.83242521556017,0.0183862745452222,0.594095618010541));
#534=CARTESIAN_POINT('Ctrl Pts',(2.6039133689034,-0.00274384155775898,0.989889746551468));
#535=CARTESIAN_POINT('Ctrl Pts',(2.48765027495699,9.04059620657358E-15,
1.1912633323118));
#536=CARTESIAN_POINT('Ctrl Pts',(2.38156986040723,8.74300631892311E-15,
1.37499999999996));
#537=CARTESIAN_POINT('Origin',(7.05207134197354E-14,0.,0.));
#538=CARTESIAN_POINT('Origin',(3.03576608295941E-14,11.5745735194571,0.));
#539=CARTESIAN_POINT('',(2.38156986040726,12.,-1.37500000000002));
#540=CARTESIAN_POINT('',(2.38156986040727,12.,1.375));
#541=CARTESIAN_POINT('Origin',(2.86229373536177E-14,12.,0.));
#542=CARTESIAN_POINT('',(3.17542648054299,11.5745735194571,1.04950770296597E-13));
#543=CARTESIAN_POINT('Ctrl Pts',(2.38156986040722,12.,1.37499999999997));
#544=CARTESIAN_POINT('Ctrl Pts',(2.48765027495697,12.,1.19126333231183));
#545=CARTESIAN_POINT('Ctrl Pts',(2.60391336890337,12.0027438415578,0.989889746551513));
#546=CARTESIAN_POINT('Ctrl Pts',(2.83242521556013,11.9816137254548,0.594095618010614));
#547=CARTESIAN_POINT('Ctrl Pts',(2.94471815720382,11.9596966961732,0.399598537752382));
#548=CARTESIAN_POINT('Ctrl Pts',(3.08093059498666,11.8417381456815,0.163671674889674));
#549=CARTESIAN_POINT('Ctrl Pts',(3.12407565142384,11.7880165221816,0.0889422450450595));
#550=CARTESIAN_POINT('Ctrl Pts',(3.15735253922802,11.6989148554354,0.0313049846504482));
#551=CARTESIAN_POINT('Ctrl Pts',(3.1650693745597,11.6710996217301,0.0179390337823362));
#552=CARTESIAN_POINT('Ctrl Pts',(3.17306878530387,11.6244153644291,0.00408364794281198));
#553=CARTESIAN_POINT('Ctrl Pts',(3.17542648054299,11.5974146554681,-1.06093234782379E-13));
#554=CARTESIAN_POINT('Ctrl Pts',(3.17542648054299,11.5745735194571,-1.06026298851702E-13));
#555=CARTESIAN_POINT('Ctrl Pts',(3.17542648054299,11.5745735194571,1.04916075827077E-13));
#556=CARTESIAN_POINT('Ctrl Pts',(3.17542648054299,11.5974146554681,1.00233796331483E-13));
#557=CARTESIAN_POINT('Ctrl Pts',(3.17306878530387,11.6244153644291,-0.00408364794281336));
#558=CARTESIAN_POINT('Ctrl Pts',(3.1650693745597,11.6710996217301,-0.017939033782337));
#559=CARTESIAN_POINT('Ctrl Pts',(3.15735253922802,11.6989148554354,-0.0313049846504491));
#560=CARTESIAN_POINT('Ctrl Pts',(3.12407565142383,11.7880165221816,-0.0889422450450605));
#561=CARTESIAN_POINT('Ctrl Pts',(3.08093059498666,11.8417381456815,-0.163671674889679));
#562=CARTESIAN_POINT('Ctrl Pts',(2.94471815720381,11.9596966961732,-0.399598537752389));
#563=CARTESIAN_POINT('Ctrl Pts',(2.83242521556012,11.9816137254548,-0.594095618010622));
#564=CARTESIAN_POINT('Ctrl Pts',(2.60391336890336,12.0027438415578,-0.989889746551522));
#565=CARTESIAN_POINT('Ctrl Pts',(2.48765027495695,12.,-1.19126333231184));
#566=CARTESIAN_POINT('Ctrl Pts',(2.3815698604072,12.,-1.37499999999998));
#567=CARTESIAN_POINT('Origin',(0.,12.,0.));
#568=CARTESIAN_POINT('',(-1.71450551880629E-16,12.,1.4));
#569=CARTESIAN_POINT('Origin',(1.5877132402715,12.,2.74999999999997));
#570=CARTESIAN_POINT('',(3.17542648054293,12.,0.));
#571=CARTESIAN_POINT('',(1.58771324027159,11.5745735194571,2.74999999999997));
#572=CARTESIAN_POINT('Ctrl Pts',(1.58771324027145,11.5745735194571,2.75000000000005));
#573=CARTESIAN_POINT('Ctrl Pts',(1.58771324027145,11.5974146554681,2.75000000000005));
#574=CARTESIAN_POINT('Ctrl Pts',(1.59007093551057,11.6244153644291,2.74591635205713));
#575=CARTESIAN_POINT('Ctrl Pts',(1.59807034625475,11.67109962173,2.73206096621761));
#576=CARTESIAN_POINT('Ctrl Pts',(1.60578718158643,11.6989148554354,2.7186950153495));
#577=CARTESIAN_POINT('Ctrl Pts',(1.63906406939061,11.7880165221816,2.66105775495489));
#578=CARTESIAN_POINT('Ctrl Pts',(1.68220912582778,11.8417381456815,2.58632832511027));
#579=CARTESIAN_POINT('Ctrl Pts',(1.81842156361063,11.9596966961732,2.35040146224756));
#580=CARTESIAN_POINT('Ctrl Pts',(1.93071450525431,11.9816137254548,2.15590438198933));
#581=CARTESIAN_POINT('Ctrl Pts',(2.15922635191107,12.0027438415578,1.76011025344843));
#582=CARTESIAN_POINT('Ctrl Pts',(2.27548944585747,12.,1.55873666768811));
#583=CARTESIAN_POINT('Ctrl Pts',(2.38156986040722,12.,1.37499999999997));
#584=CARTESIAN_POINT('',(1.5877132402717,0.425426480542895,2.74999999999997));
#585=CARTESIAN_POINT('',(1.5877132402715,12.,2.74999999999997));
#586=CARTESIAN_POINT('Ctrl Pts',(2.38156986040723,8.74300631892311E-15,
1.37499999999996));
#587=CARTESIAN_POINT('Ctrl Pts',(2.27548944585747,8.37238966540502E-15,
1.55873666768811));
#588=CARTESIAN_POINT('Ctrl Pts',(2.15922635191107,-0.00274384155776057,
1.76011025344844));
#589=CARTESIAN_POINT('Ctrl Pts',(1.93071450525429,0.018386274545219,2.15590438198937));
#590=CARTESIAN_POINT('Ctrl Pts',(1.8184215636106,0.0403033038267995,2.35040146224762));
#591=CARTESIAN_POINT('Ctrl Pts',(1.68220912582774,0.158261854318493,2.58632832511035));
#592=CARTESIAN_POINT('Ctrl Pts',(1.63906406939056,0.211983477818394,2.66105775495497));
#593=CARTESIAN_POINT('Ctrl Pts',(1.60578718158637,0.301085144564561,2.71869501534959));
#594=CARTESIAN_POINT('Ctrl Pts',(1.59807034625469,0.328900378269955,2.73206096621771));
#595=CARTESIAN_POINT('Ctrl Pts',(1.59007093551051,0.375584635570898,2.74591635205723));
#596=CARTESIAN_POINT('Ctrl Pts',(1.58771324027139,0.40258534453187,2.75000000000015));
#597=CARTESIAN_POINT('Ctrl Pts',(1.58771324027139,0.425426480542935,2.75000000000015));
#598=CARTESIAN_POINT('Origin',(3.17542648054293,12.,0.));
#599=CARTESIAN_POINT('',(1.58771324027167,0.425426480542895,-2.74999999999999));
#600=CARTESIAN_POINT('Ctrl Pts',(1.58771324027135,0.425426480542935,-2.75000000000017));
#601=CARTESIAN_POINT('Ctrl Pts',(1.58771324027136,0.402585344531871,-2.75000000000017));
#602=CARTESIAN_POINT('Ctrl Pts',(1.59007093551047,0.375584635570898,-2.74591635205726));
#603=CARTESIAN_POINT('Ctrl Pts',(1.59807034625465,0.328900378269956,-2.73206096621773));
#604=CARTESIAN_POINT('Ctrl Pts',(1.60578718158633,0.301085144564562,-2.71869501534961));
#605=CARTESIAN_POINT('Ctrl Pts',(1.63906406939052,0.211983477818393,-2.661057754955));
#606=CARTESIAN_POINT('Ctrl Pts',(1.6822091258277,0.158261854318492,-2.58632832511037));
#607=CARTESIAN_POINT('Ctrl Pts',(1.81842156361056,0.0403033038267975,-2.35040146224764));
#608=CARTESIAN_POINT('Ctrl Pts',(1.93071450525426,0.0183862745452163,-2.15590438198939));
#609=CARTESIAN_POINT('Ctrl Pts',(2.15922635191104,-0.00274384155776129,
-1.76011025344846));
#610=CARTESIAN_POINT('Ctrl Pts',(2.27548944585745,8.41959693799207E-15,
-1.55873666768812));
#611=CARTESIAN_POINT('Ctrl Pts',(2.38156986040721,8.74300631892311E-15,
-1.37499999999997));
#612=CARTESIAN_POINT('',(1.58771324027155,11.5745735194571,-2.74999999999999));
#613=CARTESIAN_POINT('',(1.58771324027146,12.,-2.74999999999999));
#614=CARTESIAN_POINT('Ctrl Pts',(2.3815698604072,12.,-1.37499999999998));
#615=CARTESIAN_POINT('Ctrl Pts',(2.27548944585745,12.,-1.55873666768813));
#616=CARTESIAN_POINT('Ctrl Pts',(2.15922635191105,12.0027438415578,-1.76011025344845));
#617=CARTESIAN_POINT('Ctrl Pts',(1.93071450525428,11.9816137254548,-2.15590438198935));
#618=CARTESIAN_POINT('Ctrl Pts',(1.8184215636106,11.9596966961732,-2.35040146224758));
#619=CARTESIAN_POINT('Ctrl Pts',(1.68220912582775,11.8417381456815,-2.58632832511029));
#620=CARTESIAN_POINT('Ctrl Pts',(1.63906406939057,11.7880165221816,-2.66105775495491));
#621=CARTESIAN_POINT('Ctrl Pts',(1.60578718158639,11.6989148554354,-2.71869501534952));
#622=CARTESIAN_POINT('Ctrl Pts',(1.59807034625471,11.67109962173,-2.73206096621763));
#623=CARTESIAN_POINT('Ctrl Pts',(1.59007093551053,11.6244153644291,-2.74591635205715));
#624=CARTESIAN_POINT('Ctrl Pts',(1.58771324027141,11.5974146554681,-2.75000000000007));
#625=CARTESIAN_POINT('Ctrl Pts',(1.58771324027141,11.5745735194571,-2.75000000000007));
#626=CARTESIAN_POINT('Origin',(1.58771324027146,12.,-2.74999999999999));
#627=CARTESIAN_POINT('',(-1.58771324027144,0.425426480542884,-2.75000000000004));
#628=CARTESIAN_POINT('',(6.07556685279436E-14,-3.40944720126565E-29,-2.75000000000007));
#629=CARTESIAN_POINT('Ctrl Pts',(-1.58771324027155,0.425426480542926,-2.74999999999998));
#630=CARTESIAN_POINT('Ctrl Pts',(-1.58771324027154,0.402585344531863,-2.74999999999998));
#631=CARTESIAN_POINT('Ctrl Pts',(-1.58299784979331,0.375584635570892,-2.74999999999998));
#632=CARTESIAN_POINT('Ctrl Pts',(-1.56699902830496,0.328900378269953,-2.74999999999998));
#633=CARTESIAN_POINT('Ctrl Pts',(-1.5515653576416,0.301085144564562,-2.74999999999998));
#634=CARTESIAN_POINT('Ctrl Pts',(-1.48501158203323,0.2119834778184,-2.74999999999998));
#635=CARTESIAN_POINT('Ctrl Pts',(-1.39872146915887,0.158261854318502,-2.74999999999998));
#636=CARTESIAN_POINT('Ctrl Pts',(-1.12629659359317,0.0403033038268081,-2.74999999999998));
#637=CARTESIAN_POINT('Ctrl Pts',(-0.901710710305791,0.0183862745452218,
-2.74999999999999));
#638=CARTESIAN_POINT('Ctrl Pts',(-0.444687016992257,-0.002743841557766,
-2.74999999999999));
#639=CARTESIAN_POINT('Ctrl Pts',(-0.212160829099449,-3.24421941399992E-16,
-2.74999999999999));
#640=CARTESIAN_POINT('Ctrl Pts',(6.06459327201492E-14,4.16333634234434E-16,
-2.74999999999999));
#641=CARTESIAN_POINT('',(-1.58771324027146,11.5745735194571,-2.75000000000001));
#642=CARTESIAN_POINT('',(-1.58771324027148,12.,-2.74999999999998));
#643=CARTESIAN_POINT('',(1.88578924618261E-14,12.,-2.75000000000003));
#644=CARTESIAN_POINT('Ctrl Pts',(1.90819582357449E-14,12.,-2.74999999999999));
#645=CARTESIAN_POINT('Ctrl Pts',(-0.212160829099482,12.,-2.74999999999999));
#646=CARTESIAN_POINT('Ctrl Pts',(-0.44468701699228,12.0027438415578,-2.74999999999999));
#647=CARTESIAN_POINT('Ctrl Pts',(-0.901710710305793,11.9816137254548,-2.74999999999999));
#648=CARTESIAN_POINT('Ctrl Pts',(-1.12629659359316,11.9596966961732,-2.74999999999998));
#649=CARTESIAN_POINT('Ctrl Pts',(-1.39872146915885,11.8417381456815,-2.74999999999998));
#650=CARTESIAN_POINT('Ctrl Pts',(-1.4850115820332,11.7880165221816,-2.74999999999998));
#651=CARTESIAN_POINT('Ctrl Pts',(-1.55156535764156,11.6989148554354,-2.74999999999998));
#652=CARTESIAN_POINT('Ctrl Pts',(-1.56699902830492,11.67109962173,-2.74999999999998));
#653=CARTESIAN_POINT('Ctrl Pts',(-1.58299784979327,11.6244153644291,-2.74999999999998));
#654=CARTESIAN_POINT('Ctrl Pts',(-1.58771324027151,11.5974146554681,-2.74999999999998));
#655=CARTESIAN_POINT('Ctrl Pts',(-1.58771324027151,11.5745735194571,-2.74999999999998));
#656=CARTESIAN_POINT('Ctrl Pts',(1.58771324027155,11.5745735194571,-2.74999999999999));
#657=CARTESIAN_POINT('Ctrl Pts',(1.58771324027154,11.5974146554681,-2.74999999999999));
#658=CARTESIAN_POINT('Ctrl Pts',(1.58299784979331,11.6244153644291,-2.74999999999999));
#659=CARTESIAN_POINT('Ctrl Pts',(1.56699902830496,11.67109962173,-2.74999999999999));
#660=CARTESIAN_POINT('Ctrl Pts',(1.5515653576416,11.6989148554354,-2.74999999999999));
#661=CARTESIAN_POINT('Ctrl Pts',(1.48501158203324,11.7880165221816,-2.74999999999999));
#662=CARTESIAN_POINT('Ctrl Pts',(1.39872146915889,11.8417381456815,-2.74999999999999));
#663=CARTESIAN_POINT('Ctrl Pts',(1.1262965935932,11.9596966961732,-2.74999999999999));
#664=CARTESIAN_POINT('Ctrl Pts',(0.901710710305831,11.9816137254548,-2.74999999999999));
#665=CARTESIAN_POINT('Ctrl Pts',(0.444687016992318,12.0027438415578,-2.74999999999999));
#666=CARTESIAN_POINT('Ctrl Pts',(0.21216082909952,12.,-2.74999999999999));
#667=CARTESIAN_POINT('Ctrl Pts',(1.91072473199373E-14,12.,-2.74999999999999));
#668=CARTESIAN_POINT('Ctrl Pts',(6.06459327201492E-14,4.16333634234434E-16,
-2.74999999999999));
#669=CARTESIAN_POINT('Ctrl Pts',(0.21216082909957,1.15696887566783E-15,
-2.74999999999999));
#670=CARTESIAN_POINT('Ctrl Pts',(0.444687016992378,-0.00274384155776283,
-2.74999999999999));
#671=CARTESIAN_POINT('Ctrl Pts',(0.901710710305911,0.018386274545228,-2.74999999999999));
#672=CARTESIAN_POINT('Ctrl Pts',(1.12629659359329,0.040303303826816,-2.74999999999999));
#673=CARTESIAN_POINT('Ctrl Pts',(1.39872146915899,0.158261854318511,-2.74999999999999));
#674=CARTESIAN_POINT('Ctrl Pts',(1.48501158203335,0.21198347781841,-2.74999999999999));
#675=CARTESIAN_POINT('Ctrl Pts',(1.55156535764172,0.301085144564573,-2.74999999999999));
#676=CARTESIAN_POINT('Ctrl Pts',(1.56699902830508,0.328900378269964,-2.74999999999999));
#677=CARTESIAN_POINT('Ctrl Pts',(1.58299784979343,0.375584635570903,-2.74999999999999));
#678=CARTESIAN_POINT('Ctrl Pts',(1.58771324027167,0.402585344531874,-2.74999999999999));
#679=CARTESIAN_POINT('Ctrl Pts',(1.58771324027167,0.425426480542937,-2.74999999999999));
#680=CARTESIAN_POINT('Origin',(-1.58771324027148,12.,-2.74999999999998));
#681=CARTESIAN_POINT('',(-3.17542648054293,0.425426480542879,2.40692882291782E-14));
#682=CARTESIAN_POINT('',(-2.3815698604072,-8.31520672476325E-15,-1.37500000000002));
#683=CARTESIAN_POINT('Ctrl Pts',(-3.17542648054293,0.425426480542921,2.33146835171283E-14));
#684=CARTESIAN_POINT('Ctrl Pts',(-3.17542648054293,0.40258534453186,1.92970360716782E-14));
#685=CARTESIAN_POINT('Ctrl Pts',(-3.17306878530381,0.375584635570892,-0.00408364794289466));
#686=CARTESIAN_POINT('Ctrl Pts',(-3.16506937455964,0.328900378269958,-0.0179390337824172));
#687=CARTESIAN_POINT('Ctrl Pts',(-3.15735253922796,0.301085144564569,-0.0313049846505292));
#688=CARTESIAN_POINT('Ctrl Pts',(-3.12407565142378,0.211983477818413,-0.088942245045136));
#689=CARTESIAN_POINT('Ctrl Pts',(-3.08093059498661,0.158261854318516,-0.163671674889748));
#690=CARTESIAN_POINT('Ctrl Pts',(-2.94471815720377,0.0403033038268219,-0.399598537752447));
#691=CARTESIAN_POINT('Ctrl Pts',(-2.83242521556008,0.0183862745452299,-0.594095618010673));
#692=CARTESIAN_POINT('Ctrl Pts',(-2.60391336890333,-0.00274384155776933,
-0.989889746551561));
#693=CARTESIAN_POINT('Ctrl Pts',(-2.48765027495693,-8.30110341280406E-15,
-1.19126333231188));
#694=CARTESIAN_POINT('Ctrl Pts',(-2.38156986040719,-7.91033905045424E-15,
-1.37500000000001));
#695=CARTESIAN_POINT('',(-3.17542648054293,11.5745735194571,2.23345647532014E-14));
#696=CARTESIAN_POINT('',(-3.17542648054293,12.,2.21738845993679E-14));
#697=CARTESIAN_POINT('',(-2.38156986040721,12.,-1.375));
#698=CARTESIAN_POINT('Ctrl Pts',(-2.3815698604072,12.,-1.37499999999999));
#699=CARTESIAN_POINT('Ctrl Pts',(-2.48765027495694,12.,-1.19126333231186));
#700=CARTESIAN_POINT('Ctrl Pts',(-2.60391336890334,12.0027438415578,-0.989889746551548));
#701=CARTESIAN_POINT('Ctrl Pts',(-2.83242521556009,11.9816137254547,-0.594095618010665));
#702=CARTESIAN_POINT('Ctrl Pts',(-2.94471815720377,11.9596966961732,-0.399598537752442));
#703=CARTESIAN_POINT('Ctrl Pts',(-3.08093059498661,11.8417381456815,-0.163671674889747));
#704=CARTESIAN_POINT('Ctrl Pts',(-3.12407565142378,11.7880165221816,-0.0889422450451346));
#705=CARTESIAN_POINT('Ctrl Pts',(-3.15735253922796,11.6989148554354,-0.031304984650529));
#706=CARTESIAN_POINT('Ctrl Pts',(-3.16506937455964,11.67109962173,-0.0179390337824167));
#707=CARTESIAN_POINT('Ctrl Pts',(-3.17306878530381,11.6244153644291,-0.00408364794289476));
#708=CARTESIAN_POINT('Ctrl Pts',(-3.17542648054293,11.5974146554681,2.24150803179825E-14));
#709=CARTESIAN_POINT('Ctrl Pts',(-3.17542648054293,11.5745735194571,2.24820162486594E-14));
#710=CARTESIAN_POINT('Ctrl Pts',(-1.58771324027146,11.5745735194571,-2.75000000000001));
#711=CARTESIAN_POINT('Ctrl Pts',(-1.58771324027146,11.5974146554681,-2.75000000000001));
#712=CARTESIAN_POINT('Ctrl Pts',(-1.59007093551058,11.6244153644291,-2.74591635205709));
#713=CARTESIAN_POINT('Ctrl Pts',(-1.59807034625475,11.67109962173,-2.73206096621757));
#714=CARTESIAN_POINT('Ctrl Pts',(-1.60578718158643,11.6989148554354,-2.71869501534946));
#715=CARTESIAN_POINT('Ctrl Pts',(-1.63906406939061,11.7880165221816,-2.66105775495485));
#716=CARTESIAN_POINT('Ctrl Pts',(-1.68220912582779,11.8417381456815,-2.58632832511024));
#717=CARTESIAN_POINT('Ctrl Pts',(-1.81842156361063,11.9596966961732,-2.35040146224754));
#718=CARTESIAN_POINT('Ctrl Pts',(-1.93071450525431,11.9816137254548,-2.15590438198932));
#719=CARTESIAN_POINT('Ctrl Pts',(-2.15922635191105,12.0027438415578,-1.76011025344844));
#720=CARTESIAN_POINT('Ctrl Pts',(-2.27548944585745,12.,-1.55873666768813));
#721=CARTESIAN_POINT('Ctrl Pts',(-2.3815698604072,12.,-1.37499999999999));
#722=CARTESIAN_POINT('Ctrl Pts',(-2.38156986040719,-7.91033905045424E-15,
-1.37500000000001));
#723=CARTESIAN_POINT('Ctrl Pts',(-2.27548944585744,-7.53990641712165E-15,
-1.55873666768815));
#724=CARTESIAN_POINT('Ctrl Pts',(-2.15922635191104,-0.00274384155776776,
-1.76011025344846));
#725=CARTESIAN_POINT('Ctrl Pts',(-1.93071450525429,0.0183862745452333,-2.15590438198935));
#726=CARTESIAN_POINT('Ctrl Pts',(-1.81842156361061,0.0403033038268259,-2.35040146224758));
#727=CARTESIAN_POINT('Ctrl Pts',(-1.68220912582777,0.158261854318521,-2.58632832511027));
#728=CARTESIAN_POINT('Ctrl Pts',(-1.63906406939059,0.211983477818418,-2.66105775495489));
#729=CARTESIAN_POINT('Ctrl Pts',(-1.60578718158642,0.301085144564575,-2.71869501534949));
#730=CARTESIAN_POINT('Ctrl Pts',(-1.59807034625474,0.328900378269963,-2.7320609662176));
#731=CARTESIAN_POINT('Ctrl Pts',(-1.59007093551056,0.375584635570898,-2.74591635205713));
#732=CARTESIAN_POINT('Ctrl Pts',(-1.58771324027144,0.402585344531866,-2.75000000000004));
#733=CARTESIAN_POINT('Ctrl Pts',(-1.58771324027144,0.425426480542927,-2.75000000000004));
#734=CARTESIAN_POINT('Origin',(-3.17542648054293,12.,2.21738845993679E-14));
#735=CARTESIAN_POINT('',(-1.58771324027151,0.425426480542884,2.75));
#736=CARTESIAN_POINT('',(-2.38156986040719,-8.31520672476318E-15,1.37500000000005));
#737=CARTESIAN_POINT('Ctrl Pts',(-1.5877132402714,0.425426480542926,2.75000000000007));
#738=CARTESIAN_POINT('Ctrl Pts',(-1.58771324027141,0.402585344531865,2.75000000000006));
#739=CARTESIAN_POINT('Ctrl Pts',(-1.59007093551052,0.375584635570897,2.74591635205715));
#740=CARTESIAN_POINT('Ctrl Pts',(-1.5980703462547,0.328900378269963,2.73206096621763));
#741=CARTESIAN_POINT('Ctrl Pts',(-1.60578718158638,0.301085144564574,2.71869501534951));
#742=CARTESIAN_POINT('Ctrl Pts',(-1.63906406939056,0.211983477818418,2.66105775495491));
#743=CARTESIAN_POINT('Ctrl Pts',(-1.68220912582773,0.15826185431852,2.5863283251103));
#744=CARTESIAN_POINT('Ctrl Pts',(-1.81842156361057,0.0403033038268252,2.3504014622476));
#745=CARTESIAN_POINT('Ctrl Pts',(-1.93071450525426,0.0183862745452333,2.15590438198938));
#746=CARTESIAN_POINT('Ctrl Pts',(-2.15922635191102,-0.00274384155776774,
1.76011025344849));
#747=CARTESIAN_POINT('Ctrl Pts',(-2.27548944585742,-7.53811911346203E-15,
1.55873666768818));
#748=CARTESIAN_POINT('Ctrl Pts',(-2.38156986040717,-7.91033905045424E-15,
1.37500000000004));
#749=CARTESIAN_POINT('',(-1.58771324027144,11.5745735194571,2.75));
#750=CARTESIAN_POINT('',(-1.58771324027144,12.,2.75));
#751=CARTESIAN_POINT('',(-2.38156986040719,12.,1.37500000000003));
#752=CARTESIAN_POINT('Ctrl Pts',(-2.38156986040718,12.,1.37500000000003));
#753=CARTESIAN_POINT('Ctrl Pts',(-2.27548944585743,12.,1.55873666768816));
#754=CARTESIAN_POINT('Ctrl Pts',(-2.15922635191103,12.0027438415578,1.76011025344847));
#755=CARTESIAN_POINT('Ctrl Pts',(-1.93071450525427,11.9816137254548,2.15590438198935));
#756=CARTESIAN_POINT('Ctrl Pts',(-1.81842156361059,11.9596966961732,2.35040146224757));
#757=CARTESIAN_POINT('Ctrl Pts',(-1.68220912582775,11.8417381456815,2.58632832511027));
#758=CARTESIAN_POINT('Ctrl Pts',(-1.63906406939057,11.7880165221816,2.66105775495488));
#759=CARTESIAN_POINT('Ctrl Pts',(-1.6057871815864,11.6989148554354,2.71869501534948));
#760=CARTESIAN_POINT('Ctrl Pts',(-1.59807034625472,11.67109962173,2.73206096621759));
#761=CARTESIAN_POINT('Ctrl Pts',(-1.59007093551054,11.6244153644291,2.74591635205711));
#762=CARTESIAN_POINT('Ctrl Pts',(-1.58771324027142,11.5974146554681,2.75000000000003));
#763=CARTESIAN_POINT('Ctrl Pts',(-1.58771324027142,11.5745735194571,2.75000000000003));
#764=CARTESIAN_POINT('Ctrl Pts',(-3.17542648054293,11.5745735194571,2.1094237467878E-14));
#765=CARTESIAN_POINT('Ctrl Pts',(-3.17542648054293,11.5974146554681,2.57039011975963E-14));
#766=CARTESIAN_POINT('Ctrl Pts',(-3.17306878530381,11.6244153644291,0.00408364794293957));
#767=CARTESIAN_POINT('Ctrl Pts',(-3.16506937455964,11.67109962173,0.0179390337824617));
#768=CARTESIAN_POINT('Ctrl Pts',(-3.15735253922796,11.6989148554354,0.031304984650572));
#769=CARTESIAN_POINT('Ctrl Pts',(-3.12407565142378,11.7880165221816,0.0889422450451772));
#770=CARTESIAN_POINT('Ctrl Pts',(-3.08093059498661,11.8417381456815,0.163671674889788));
#771=CARTESIAN_POINT('Ctrl Pts',(-2.94471815720376,11.9596966961732,0.399598537752481));
#772=CARTESIAN_POINT('Ctrl Pts',(-2.83242521556008,11.9816137254547,0.594095618010704));
#773=CARTESIAN_POINT('Ctrl Pts',(-2.60391336890333,12.0027438415578,0.989889746551584));
#774=CARTESIAN_POINT('Ctrl Pts',(-2.48765027495693,12.,1.1912633323119));
#775=CARTESIAN_POINT('Ctrl Pts',(-2.38156986040718,12.,1.37500000000003));
#776=CARTESIAN_POINT('Ctrl Pts',(-2.38156986040717,-7.91033905045424E-15,
1.37500000000004));
#777=CARTESIAN_POINT('Ctrl Pts',(-2.48765027495692,-8.28136974938958E-15,
1.19126333231191));
#778=CARTESIAN_POINT('Ctrl Pts',(-2.60391336890332,-0.00274384155776937,
0.989889746551597));
#779=CARTESIAN_POINT('Ctrl Pts',(-2.83242521556008,0.0183862745452302,0.594095618010712));
#780=CARTESIAN_POINT('Ctrl Pts',(-2.94471815720376,0.0403033038268212,0.399598537752487));
#781=CARTESIAN_POINT('Ctrl Pts',(-3.0809305949866,0.158261854318516,0.16367167488979));
#782=CARTESIAN_POINT('Ctrl Pts',(-3.12407565142378,0.211983477818413,0.0889422450451789));
#783=CARTESIAN_POINT('Ctrl Pts',(-3.15735253922796,0.301085144564569,0.0313049846505726));
#784=CARTESIAN_POINT('Ctrl Pts',(-3.16506937455964,0.328900378269957,0.0179390337824607));
#785=CARTESIAN_POINT('Ctrl Pts',(-3.17306878530381,0.375584635570892,0.00408364794293828));
#786=CARTESIAN_POINT('Ctrl Pts',(-3.17542648054293,0.40258534453186,2.14597230137792E-14));
#787=CARTESIAN_POINT('Ctrl Pts',(-3.17542648054293,0.425426480542921,2.13717932240343E-14));
#788=CARTESIAN_POINT('Origin',(-1.58771324027144,12.,2.75));
#789=CARTESIAN_POINT('',(9.90960785651751E-14,0.,2.74999999999999));
#790=CARTESIAN_POINT('Ctrl Pts',(1.58771324027171,0.425426480542938,2.74999999999997));
#791=CARTESIAN_POINT('Ctrl Pts',(1.5877132402717,0.402585344531875,2.74999999999997));
#792=CARTESIAN_POINT('Ctrl Pts',(1.58299784979347,0.375584635570904,2.74999999999997));
#793=CARTESIAN_POINT('Ctrl Pts',(1.56699902830512,0.328900378269965,2.74999999999997));
#794=CARTESIAN_POINT('Ctrl Pts',(1.55156535764175,0.301085144564574,2.74999999999997));
#795=CARTESIAN_POINT('Ctrl Pts',(1.48501158203339,0.211983477818411,2.74999999999997));
#796=CARTESIAN_POINT('Ctrl Pts',(1.39872146915903,0.15826185431851,2.74999999999997));
#797=CARTESIAN_POINT('Ctrl Pts',(1.12629659359333,0.0403033038268151,2.74999999999998));
#798=CARTESIAN_POINT('Ctrl Pts',(0.901710710305951,0.0183862745452278,2.74999999999998));
#799=CARTESIAN_POINT('Ctrl Pts',(0.444687016992417,-0.00274384155776309,
2.74999999999998));
#800=CARTESIAN_POINT('Ctrl Pts',(0.212160829099609,1.15708920986886E-15,
2.74999999999999));
#801=CARTESIAN_POINT('Ctrl Pts',(9.90527104782757E-14,4.16333634234434E-16,
2.74999999999999));
#802=CARTESIAN_POINT('',(2.7972416050126E-14,12.,2.74999999999999));
#803=CARTESIAN_POINT('Ctrl Pts',(5.73846525853128E-14,12.,2.74999999999999));
#804=CARTESIAN_POINT('Ctrl Pts',(0.212160829099558,12.,2.74999999999999));
#805=CARTESIAN_POINT('Ctrl Pts',(0.444687016992357,12.0027438415578,2.74999999999998));
#806=CARTESIAN_POINT('Ctrl Pts',(0.901710710305871,11.9816137254548,2.74999999999998));
#807=CARTESIAN_POINT('Ctrl Pts',(1.12629659359324,11.9596966961732,2.74999999999998));
#808=CARTESIAN_POINT('Ctrl Pts',(1.39872146915893,11.8417381456815,2.74999999999997));
#809=CARTESIAN_POINT('Ctrl Pts',(1.48501158203328,11.7880165221816,2.74999999999997));
#810=CARTESIAN_POINT('Ctrl Pts',(1.55156535764164,11.6989148554354,2.74999999999997));
#811=CARTESIAN_POINT('Ctrl Pts',(1.566999028305,11.67109962173,2.74999999999997));
#812=CARTESIAN_POINT('Ctrl Pts',(1.58299784979335,11.6244153644291,2.74999999999997));
#813=CARTESIAN_POINT('Ctrl Pts',(1.58771324027159,11.5974146554681,2.74999999999997));
#814=CARTESIAN_POINT('Ctrl Pts',(1.58771324027159,11.5745735194571,2.74999999999997));
#815=CARTESIAN_POINT('Ctrl Pts',(-1.58771324027147,11.5745735194571,2.75));
#816=CARTESIAN_POINT('Ctrl Pts',(-1.58771324027147,11.5974146554681,2.75));
#817=CARTESIAN_POINT('Ctrl Pts',(-1.58299784979323,11.6244153644291,2.75));
#818=CARTESIAN_POINT('Ctrl Pts',(-1.56699902830488,11.67109962173,2.75));
#819=CARTESIAN_POINT('Ctrl Pts',(-1.55156535764152,11.6989148554354,2.75));
#820=CARTESIAN_POINT('Ctrl Pts',(-1.48501158203316,11.7880165221816,2.75));
#821=CARTESIAN_POINT('Ctrl Pts',(-1.39872146915881,11.8417381456815,2.75));
#822=CARTESIAN_POINT('Ctrl Pts',(-1.12629659359312,11.9596966961732,2.75));
#823=CARTESIAN_POINT('Ctrl Pts',(-0.901710710305756,11.9816137254548,2.75));
#824=CARTESIAN_POINT('Ctrl Pts',(-0.444687016992242,12.0027438415578,2.74999999999999));
#825=CARTESIAN_POINT('Ctrl Pts',(-0.212160829099444,12.,2.74999999999999));
#826=CARTESIAN_POINT('Ctrl Pts',(5.74162695877347E-14,12.,2.74999999999999));
#827=CARTESIAN_POINT('Ctrl Pts',(9.90527104782757E-14,4.16333634234434E-16,
2.74999999999999));
#828=CARTESIAN_POINT('Ctrl Pts',(-0.212160829099411,-3.24347612245333E-16,
2.74999999999999));
#829=CARTESIAN_POINT('Ctrl Pts',(-0.444687016992219,-0.00274384155776619,
2.74999999999999));
#830=CARTESIAN_POINT('Ctrl Pts',(-0.901710710305752,0.0183862745452215,
2.75));
#831=CARTESIAN_POINT('Ctrl Pts',(-1.12629659359313,0.0403033038268072,2.75));
#832=CARTESIAN_POINT('Ctrl Pts',(-1.39872146915884,0.158261854318501,2.75));
#833=CARTESIAN_POINT('Ctrl Pts',(-1.48501158203319,0.211983477818401,2.75));
#834=CARTESIAN_POINT('Ctrl Pts',(-1.55156535764156,0.301085144564563,2.75));
#835=CARTESIAN_POINT('Ctrl Pts',(-1.56699902830492,0.328900378269954,2.75));
#836=CARTESIAN_POINT('Ctrl Pts',(-1.58299784979327,0.375584635570893,2.75));
#837=CARTESIAN_POINT('Ctrl Pts',(-1.58771324027151,0.402585344531864,2.75));
#838=CARTESIAN_POINT('Ctrl Pts',(-1.58771324027151,0.425426480542927,2.75));
#839=CARTESIAN_POINT('Origin',(0.,0.,0.));
#840=CARTESIAN_POINT('Origin',(7.05207134197354E-14,0.,0.));
#841=CARTESIAN_POINT('Origin',(7.05207134197354E-14,0.,0.));
#842=CARTESIAN_POINT('Origin',(7.05207134197354E-14,0.,0.));
#843=CARTESIAN_POINT('Origin',(7.05207134197354E-14,0.,0.));
#844=CARTESIAN_POINT('Origin',(7.05207134197354E-14,0.,0.));
#845=CARTESIAN_POINT('Origin',(0.,12.,0.));
#846=CARTESIAN_POINT('Origin',(2.86229373536177E-14,12.,0.));
#847=CARTESIAN_POINT('Origin',(2.86229373536177E-14,12.,0.));
#848=CARTESIAN_POINT('Origin',(2.86229373536177E-14,12.,0.));
#849=CARTESIAN_POINT('Origin',(2.86229373536177E-14,12.,0.));
#850=CARTESIAN_POINT('Origin',(2.86229373536177E-14,12.,0.));
#851=CARTESIAN_POINT('Origin',(3.03576608295941E-14,11.5745735194571,0.));
#852=CARTESIAN_POINT('Origin',(3.03576608295941E-14,11.5745735194571,0.));
#853=CARTESIAN_POINT('Origin',(3.03576608295941E-14,11.5745735194571,0.));
#854=CARTESIAN_POINT('Origin',(3.03576608295941E-14,11.5745735194571,0.));
#855=CARTESIAN_POINT('Origin',(3.03576608295941E-14,11.5745735194571,0.));
#856=CARTESIAN_POINT('Origin',(6.89552581700781E-14,0.425426480542931,0.));
#857=CARTESIAN_POINT('Origin',(6.89552581700781E-14,0.425426480542931,0.));
#858=CARTESIAN_POINT('Origin',(6.89552581700781E-14,0.425426480542931,0.));
#859=CARTESIAN_POINT('Origin',(6.89552581700781E-14,0.425426480542931,0.));
#860=CARTESIAN_POINT('Origin',(6.89552581700781E-14,0.425426480542931,0.));
#861=UNCERTAINTY_MEASURE_WITH_UNIT(LENGTH_MEASURE(0.01),#865,
'DISTANCE_ACCURACY_VALUE',
'Maximum model space distance between geometric entities at asserted c
onnectivities');
#862=UNCERTAINTY_MEASURE_WITH_UNIT(LENGTH_MEASURE(0.01),#865,
'DISTANCE_ACCURACY_VALUE',
'Maximum model space distance between geometric entities at asserted c
onnectivities');
#863=(
GEOMETRIC_REPRESENTATION_CONTEXT(3)
GLOBAL_UNCERTAINTY_ASSIGNED_CONTEXT((#861))
GLOBAL_UNIT_ASSIGNED_CONTEXT((#865,#867,#868))
REPRESENTATION_CONTEXT('','3D')
);
#864=(
GEOMETRIC_REPRESENTATION_CONTEXT(3)
GLOBAL_UNCERTAINTY_ASSIGNED_CONTEXT((#862))
GLOBAL_UNIT_ASSIGNED_CONTEXT((#865,#867,#868))
REPRESENTATION_CONTEXT('','3D')
);
#865=(
LENGTH_UNIT()
NAMED_UNIT(*)
SI_UNIT(.MILLI.,.METRE.)
);
#866=(
LENGTH_UNIT()
NAMED_UNIT(*)
SI_UNIT($,.METRE.)
);
#867=(
NAMED_UNIT(*)
PLANE_ANGLE_UNIT()
SI_UNIT($,.RADIAN.)
);
#868=(
NAMED_UNIT(*)
SI_UNIT($,.STERADIAN.)
SOLID_ANGLE_UNIT()
);
#869=SHAPE_DEFINITION_REPRESENTATION(#870,#871);
#870=PRODUCT_DEFINITION_SHAPE('',$,#873);
#871=SHAPE_REPRESENTATION('',(#362),#863);
#872=PRODUCT_DEFINITION_CONTEXT('part definition',#877,'design');
#873=PRODUCT_DEFINITION('Colonnette_M3-12-FF','Colonnette_M3-12-FF',#874,
#872);
#874=PRODUCT_DEFINITION_FORMATION('',$,#879);
#875=PRODUCT_RELATED_PRODUCT_CATEGORY('Colonnette_M3-12-FF',
'Colonnette_M3-12-FF',(#879));
#876=APPLICATION_PROTOCOL_DEFINITION('international standard',
'automotive_design',2009,#877);
#877=APPLICATION_CONTEXT(
'Core Data for Automotive Mechanical Design Process');
#878=PRODUCT_CONTEXT('part definition',#877,'mechanical');
#879=PRODUCT('Colonnette_M3-12-FF','Colonnette_M3-12-FF',$,(#878));
#880=PRESENTATION_STYLE_ASSIGNMENT((#882));
#881=PRESENTATION_STYLE_ASSIGNMENT((#883));
#882=SURFACE_STYLE_USAGE(.BOTH.,#884);
#883=SURFACE_STYLE_USAGE(.BOTH.,#885);
#884=SURFACE_SIDE_STYLE('',(#886));
#885=SURFACE_SIDE_STYLE('',(#887));
#886=SURFACE_STYLE_FILL_AREA(#888);
#887=SURFACE_STYLE_FILL_AREA(#889);
#888=FILL_AREA_STYLE('Acier - Satin\X\E9',(#890));
#889=FILL_AREA_STYLE('Opaque(228,233,237)',(#891));
#890=FILL_AREA_STYLE_COLOUR('Acier - Satin\X\E9',#892);
#891=FILL_AREA_STYLE_COLOUR('Opaque(228,233,237)',#893);
#892=COLOUR_RGB('Acier - Satin\X\E9',0.627450980392157,0.627450980392157,
0.627450980392157);
#893=COLOUR_RGB('Opaque(228,233,237)',0.894117647058824,0.913725490196078,
0.929411764705882);
ENDSEC;
END-ISO-10303-21;
